<?xml version="1.0" encoding="UTF-8"?> <svg xmlns="http://www.w3.org/2000/svg" width="128" height="128" viewBox="0 0 128 128" fill="none"><path d="M95.9 112H16.1C7.175 112 0 104.825 0 95.9V16.1C0 7.175 7.175 0 16.1 0H95.8125C104.825 0 112 7.175 112 16.1V95.8125C112 104.825 104.825 112 95.9 112Z" fill="#002333"></path><path d="M95.9 0H16.1C7.175 0 0 7.175 0 16.1V69.125C16.5375 76.0375 35.7 79.975 56.175 79.975C76.475 79.975 95.55 76.125 112 69.3V16.1C112 7.175 104.825 0 95.9 0Z" fill="url(#paint0_linear_918_29098)"></path><path d="M95.9 3.5C102.9 3.5 108.5 9.1875 108.5 16.1V95.8125C108.5 102.812 102.813 108.413 95.9 108.413H16.1C9.1 108.413 3.5 102.725 3.5 95.8125V16.1C3.5 9.1875 9.1875 3.5 16.1 3.5H95.9ZM95.9 0H16.1C7.175 0 0 7.175 0 16.1V95.8125C0 104.825 7.175 112 16.1 112H95.8125C104.738 112 111.913 104.825 111.913 95.9V16.1C112 7.175 104.825 0 95.9 0Z" fill="#002333"></path><rect x="88.5" y="88.5" width="39" height="39" rx="4.5" fill="url(#paint1_linear_918_29098)" stroke="#C2CACE"></rect><path d="M56 79.6496C42.9495 79.6496 32.35 69.0501 32.35 55.9996C32.35 42.9491 42.9495 32.3496 56 32.3496" stroke="#00E3C0" stroke-width="1.8" stroke-linecap="round" stroke-linejoin="round"></path><path d="M56 32.3496C69.0505 32.3496 79.65 42.9491 79.65 55.9996" stroke="#00E3C0" stroke-width="1.8" stroke-linecap="round" stroke-linejoin="round"></path><path d="M49.808 55.9999V52.7104C49.808 48.0556 51.9902 46.5614 56.215 49.0016L59.053 50.6356L61.891 52.2696C65.7717 54.5056 65.7717 57.4296 61.891 59.6764L59.053 61.3104L56.215 62.9444C51.9902 65.3846 49.808 63.9119 49.808 59.2356V55.9999Z" stroke="#00E3C0" stroke-width="1.8" stroke-miterlimit="10" stroke-linecap="round" stroke-linejoin="round"></path><path d="M65.6857 74.8124C65.6857 76.8979 67.2875 78.5749 69.2655 78.5749H73.3075C75.0382 78.5749 76.4357 77.1021 76.4357 75.3069C76.4357 73.3396 75.5865 72.6516 74.3072 72.2001L67.8142 69.9426C66.535 69.4911 65.6857 68.8031 65.6857 66.8359C65.6857 65.0299 67.094 63.5679 68.814 63.5679H72.856C74.8447 63.5679 76.4357 65.2449 76.4357 67.3304" stroke="#00E3C0" stroke-width="1.8" stroke-linecap="round" stroke-linejoin="round"></path><path d="M71.05 60.2998V81.7998" stroke="#00E3C0" stroke-width="1.8" stroke-linecap="round" stroke-linejoin="round"></path><path d="M117.313 107.022L118.471 108.299L119.586 107.022H121.967L119.64 109.639L121.999 112.277H119.522L118.375 110.99L117.238 112.277H114.847L117.185 109.65L114.847 107.022H117.313Z" fill="#FF5900"></path><path d="M114.847 107.022V108.798H112.199V110.427H114.847V112.277H110.253V104H114.847V105.845H112.199V107.022H114.847Z" fill="#FF5900"></path><path d="M108.315 104V107.387H108.294C107.864 106.894 107.328 106.723 106.707 106.723C105.433 106.723 104.473 107.589 104.136 108.734C103.752 107.472 102.761 106.699 101.292 106.699C100.098 106.699 99.1562 107.234 98.6646 108.107V107.022H96.1983V105.845H98.8898V104H94V112.277H96.1983V108.798H98.3897C98.3243 109.053 98.2894 109.327 98.2894 109.616C98.2894 111.342 99.6084 112.554 101.292 112.554C102.707 112.554 103.64 111.889 104.133 110.678H102.249C101.994 111.042 101.801 111.15 101.292 111.15C100.701 111.15 100.191 110.635 100.191 110.024H104.028C104.194 111.395 105.262 112.578 106.728 112.578C107.36 112.578 107.939 112.266 108.293 111.741H108.315V112.277H110.252V104H108.315ZM100.253 108.822C100.375 108.296 100.783 107.953 101.292 107.953C101.852 107.953 102.239 108.286 102.341 108.822C102.384 108.822 100.253 108.822 100.253 108.822ZM107.139 111.017C106.424 111.017 105.98 110.351 105.98 109.656C105.98 108.913 106.366 108.199 107.139 108.199C107.939 108.199 108.258 108.913 108.258 109.656C108.258 110.36 107.92 111.017 107.139 111.017Z" fill="#2A007C"></path><defs><linearGradient id="paint0_linear_918_29098" x1="56" y1="112" x2="56" y2="0.000240325" gradientUnits="userSpaceOnUse"><stop stop-color="#004A52"></stop><stop offset="1" stop-color="#002333"></stop></linearGradient><linearGradient id="paint1_linear_918_29098" x1="89.5" y1="89.5" x2="128" y2="127" gradientUnits="userSpaceOnUse"><stop stop-color="white"></stop><stop offset="1" stop-color="#F2F4F5"></stop></linearGradient></defs></svg> 