<?xml version="1.0" encoding="UTF-8"?> <svg xmlns="http://www.w3.org/2000/svg" width="128" height="128" viewBox="0 0 128 128" fill="none"><path d="M95.9 112H16.1C7.175 112 0 104.825 0 95.9V16.1C0 7.175 7.175 0 16.1 0H95.8125C104.825 0 112 7.175 112 16.1V95.8125C112 104.825 104.825 112 95.9 112Z" fill="#002333"></path><path d="M95.9 0H16.1C7.175 0 0 7.175 0 16.1V69.125C16.5375 76.0375 35.7 79.975 56.175 79.975C76.475 79.975 95.55 76.125 112 69.3V16.1C112 7.175 104.825 0 95.9 0Z" fill="url(#paint0_linear_918_29051)"></path><path d="M95.9 3.5C102.9 3.5 108.5 9.1875 108.5 16.1V95.8125C108.5 102.812 102.813 108.413 95.9 108.413H16.1C9.1 108.413 3.5 102.725 3.5 95.8125V16.1C3.5 9.1875 9.1875 3.5 16.1 3.5H95.9ZM95.9 0H16.1C7.175 0 0 7.175 0 16.1V95.8125C0 104.825 7.175 112 16.1 112H95.8125C104.738 112 111.913 104.825 111.913 95.9V16.1C112 7.175 104.825 0 95.9 0Z" fill="#002333"></path><rect x="88.5" y="88.5" width="39" height="39" rx="4.5" fill="url(#paint1_linear_918_29051)" stroke="#C2CACE"></rect><path d="M56.0001 79.6496C42.9496 79.6496 32.3501 69.0501 32.3501 55.9996C32.3501 42.9491 42.9496 32.3496 56.0001 32.3496" stroke="#00E3C0" stroke-width="1.8" stroke-linecap="round" stroke-linejoin="round"></path><path d="M56 32.3496C69.0505 32.3496 79.65 42.9491 79.65 55.9996" stroke="#00E3C0" stroke-width="1.8" stroke-linecap="round" stroke-linejoin="round"></path><path d="M49.8081 55.9999V52.7104C49.8081 48.0556 51.9904 46.5614 56.2151 49.0016L59.0531 50.6356L61.8911 52.2696C65.7719 54.5056 65.7719 57.4296 61.8911 59.6764L59.0531 61.3104L56.2151 62.9444C51.9904 65.3846 49.8081 63.9119 49.8081 59.2356V55.9999Z" stroke="#00E3C0" stroke-width="1.8" stroke-miterlimit="10" stroke-linecap="round" stroke-linejoin="round"></path><path d="M65.6858 74.8124C65.6858 76.8979 67.2875 78.5749 69.2655 78.5749H73.3075C75.0383 78.5749 76.4358 77.1021 76.4358 75.3069C76.4358 73.3396 75.5865 72.6516 74.3073 72.2001L67.8143 69.9426C66.535 69.4911 65.6858 68.8031 65.6858 66.8359C65.6858 65.0299 67.094 63.5679 68.814 63.5679H72.856C74.8448 63.5679 76.4358 65.2449 76.4358 67.3304" stroke="#00E3C0" stroke-width="1.8" stroke-linecap="round" stroke-linejoin="round"></path><path d="M71.05 60.2998V81.7998" stroke="#00E3C0" stroke-width="1.8" stroke-linecap="round" stroke-linejoin="round"></path><path fill-rule="evenodd" clip-rule="evenodd" d="M98.6819 103.255L98.7668 113L100.931 115.705L107.426 119.183L115.405 115.233L117.061 111.24L116.891 98.3174L110.864 98.1457L104.582 99.176L98.8519 102.525L98.6819 103.255Z" fill="#301506"></path><path d="M107.98 96.2121C104.197 96.2121 100.898 96.9529 98.1722 98.4137V110.092C98.1722 112.55 99.0851 114.605 100.812 116.036C102.415 117.367 107.373 119.559 107.98 119.825C108.556 119.571 113.573 117.345 115.151 116.036C116.876 114.606 117.789 112.55 117.789 110.092V98.4137C115.064 96.9527 111.764 96.2119 107.98 96.2119L107.98 96.2121ZM113.581 98.4734C114.709 98.4884 115.817 98.5588 116.888 98.6595V110.092C116.888 112.289 116.1 114.064 114.579 115.331C113.22 116.463 109.123 118.319 107.98 118.829C106.822 118.313 102.715 116.433 101.381 115.332C99.8688 114.086 99.073 112.269 99.073 110.093V103.412C103.417 99.3825 108.693 98.409 113.581 98.4737L113.581 98.4734ZM108.236 103.797C107.305 103.797 106.554 104.007 105.936 104.411V115.66H107.643V112.026C107.813 112.077 108.06 112.124 108.411 112.124C110.304 112.124 111.393 110.397 111.393 107.877C111.393 105.36 110.272 103.797 108.236 103.797L108.236 103.797ZM114.069 103.797C112.946 103.83 111.772 104.653 111.779 106.047C111.782 106.965 112.034 107.652 113.441 108.487C114.191 108.933 114.494 109.226 114.507 109.768C114.521 110.37 114.11 110.733 113.484 110.731C112.939 110.726 112.288 110.421 111.852 110.028V111.617C112.387 111.94 113.054 112.153 113.728 112.153C115.414 112.153 116.167 110.948 116.2 109.844C116.232 108.837 115.957 108.076 114.531 107.228C113.894 106.851 113.392 106.603 113.408 105.974C113.425 105.361 113.928 105.146 114.412 105.15C115.008 105.155 115.585 105.489 115.941 105.859V104.358C115.641 104.124 115.006 103.768 114.069 103.797L114.069 103.797ZM99.9448 103.972V109.398C99.9448 111.227 100.8 112.153 102.489 112.153C103.533 112.153 104.408 111.908 105.06 111.46V103.972H103.357V110.478C103.171 110.606 102.896 110.689 102.549 110.689C101.767 110.689 101.65 109.963 101.65 109.474V103.972H99.9447L99.9448 103.972ZM108.247 105.187C109.237 105.187 109.648 105.987 109.648 107.92C109.648 109.807 109.178 110.719 108.196 110.719C107.965 110.719 107.764 110.661 107.642 110.614V105.312C107.781 105.242 108.016 105.187 108.247 105.187V105.187Z" fill="#FAB80A"></path><defs><linearGradient id="paint0_linear_918_29051" x1="56" y1="112" x2="56" y2="0.000240325" gradientUnits="userSpaceOnUse"><stop stop-color="#004A52"></stop><stop offset="1" stop-color="#002333"></stop></linearGradient><linearGradient id="paint1_linear_918_29051" x1="89.5" y1="89.5" x2="128" y2="127" gradientUnits="userSpaceOnUse"><stop stop-color="white"></stop><stop offset="1" stop-color="#F2F4F5"></stop></linearGradient></defs></svg> 