<?xml version="1.0" encoding="UTF-8"?> <svg xmlns="http://www.w3.org/2000/svg" width="128" height="128" viewBox="0 0 128 128" fill="none"><path d="M109.6 128H18.4C8.2 128 0 119.8 0 109.6V18.4C0 8.2 8.2 0 18.4 0H109.5C119.8 0 128 8.2 128 18.4V109.5C128 119.8 119.8 128 109.6 128Z" fill="#002333"></path><path d="M109.6 0H18.4C8.2 0 0 8.2 0 18.4V79C18.9 86.9 40.8 91.4 64.2 91.4C87.4 91.4 109.2 87 128 79.2V18.4C128 8.2 119.8 0 109.6 0Z" fill="url(#paint0_linear_892_28052)"></path><path d="M109.6 4C117.6 4 124 10.5 124 18.4V109.5C124 117.5 117.5 123.9 109.6 123.9H18.4C10.4 123.9 4 117.4 4 109.5V18.4C4 10.5 10.5 4 18.4 4H109.6ZM109.6 0H18.4C8.2 0 0 8.2 0 18.4V109.5C0 119.8 8.2 128 18.4 128H109.5C119.7 128 127.9 119.8 127.9 109.6V18.4C128 8.2 119.8 0 109.6 0Z" fill="#002333"></path><path fill-rule="evenodd" clip-rule="evenodd" d="M76.9 78.7484H75.266C73.546 78.7484 71.912 79.4149 70.708 80.6189L67.0315 84.2526C65.3545 85.9081 62.624 85.9081 60.947 84.2526L57.2705 80.6189C56.0665 79.4149 54.411 78.7484 52.7125 78.7484H51.1C47.531 78.7484 44.65 75.889 44.65 72.363V48.9064C44.65 45.3804 47.531 42.521 51.1 42.521H76.9C80.469 42.521 83.35 45.3804 83.35 48.9064V72.363C83.35 75.8675 80.469 78.7484 76.9 78.7484Z" stroke="#00E3C0" stroke-width="2" stroke-linecap="round" stroke-linejoin="round"></path><path fill-rule="evenodd" clip-rule="evenodd" d="M64 59.6997C66.7735 59.6997 69.0095 57.4636 69.0095 54.6901C69.0095 51.9166 66.7735 49.6807 64 49.6807C61.2265 49.6807 58.9905 51.9166 58.9905 54.6901C58.9905 57.4636 61.2265 59.6997 64 59.6997Z" stroke="#00E3C0" stroke-width="2" stroke-linecap="round" stroke-linejoin="round"></path><path d="M72.6 71.8689C72.6 67.9989 68.7515 64.8599 64 64.8599C59.2485 64.8599 55.4 67.9989 55.4 71.8689" stroke="#00E3C0" stroke-width="2" stroke-linecap="round" stroke-linejoin="round"></path><defs><linearGradient id="paint0_linear_892_28052" x1="64" y1="128" x2="64" y2="0.000274657" gradientUnits="userSpaceOnUse"><stop stop-color="#004A52"></stop><stop offset="1" stop-color="#002333"></stop></linearGradient></defs></svg> 