<?xml version="1.0" encoding="UTF-8"?> <svg xmlns="http://www.w3.org/2000/svg" width="128" height="128" viewBox="0 0 128 128" fill="none"><path d="M109.6 128H18.4C8.2 128 0 119.8 0 109.6V18.4C0 8.2 8.2 0 18.4 0H109.5C119.8 0 128 8.2 128 18.4V109.5C128 119.8 119.8 128 109.6 128Z" fill="#002333"></path><path d="M109.6 0H18.4C8.2 0 0 8.2 0 18.4V79C18.9 86.9 40.8 91.4 64.2 91.4C87.4 91.4 109.2 87 128 79.2V18.4C128 8.2 119.8 0 109.6 0Z" fill="url(#paint0_linear_892_28008)"></path><path d="M109.6 4C117.6 4 124 10.5 124 18.4V109.5C124 117.5 117.5 123.9 109.6 123.9H18.4C10.4 123.9 4 117.4 4 109.5V18.4C4 10.5 10.5 4 18.4 4H109.6ZM109.6 0H18.4C8.2 0 0 8.2 0 18.4V109.5C0 119.8 8.2 128 18.4 128H109.5C119.7 128 127.9 119.8 127.9 109.6V18.4C128 8.2 119.8 0 109.6 0Z" fill="#002333"></path><path d="M70.6005 73.8903C72.3205 66.4513 83.5865 66.4513 85.3065 73.8903C86.317 78.2548 83.5435 81.9528 81.114 84.2533C78.0287 87.188 77.8783 87.145 74.793 84.2533C72.3635 81.9528 69.59 78.2548 70.6005 73.8903Z" stroke="#00E3C0" stroke-width="1.8"></path><path d="M64 48.9502H69.762C73.7395 48.9502 75.5885 53.8737 72.6 56.4967L55.4215 71.5252C52.433 74.1267 54.282 79.0502 58.238 79.0502H64" stroke="#00E3C0" stroke-width="1.8" stroke-linecap="round" stroke-linejoin="round"></path><path d="M42.113 45.4028L50.025 49.9823L57.8832 45.4351" stroke="#00E3C0" stroke-width="1.8" stroke-linecap="round" stroke-linejoin="round"></path><path d="M50.025 58.0987V49.9717" stroke="#00E3C0" stroke-width="1.8" stroke-linecap="round" stroke-linejoin="round"></path><path d="M48.1652 40.963L43.3815 43.6182C42.2957 44.2202 41.4142 45.7252 41.4142 46.9615V52.0247C41.4142 53.261 42.2957 54.766 43.3815 55.368L48.1652 58.0232C49.1865 58.593 50.8635 58.593 51.8847 58.0232L56.6685 55.368C57.7542 54.766 58.6357 53.261 58.6357 52.0247V46.9615C58.6357 45.7252 57.7435 44.2202 56.6685 43.6182L51.8847 40.963C50.8527 40.3932 49.1972 40.3932 48.1652 40.963Z" stroke="#00E3C0" stroke-width="1.8" stroke-linecap="round" stroke-linejoin="round"></path><path d="M77.9535 75.8252H77.975" stroke="#00E3C0" stroke-width="3.6" stroke-linecap="round" stroke-linejoin="round"></path><defs><linearGradient id="paint0_linear_892_28008" x1="64" y1="128" x2="64" y2="0.000274657" gradientUnits="userSpaceOnUse"><stop stop-color="#004A52"></stop><stop offset="1" stop-color="#002333"></stop></linearGradient></defs></svg> 