<?xml version="1.0" encoding="UTF-8"?> <svg xmlns="http://www.w3.org/2000/svg" width="128" height="128" viewBox="0 0 128 128" fill="none"><path d="M95.9 112H16.1C7.175 112 0 104.825 0 95.9V16.1C0 7.175 7.175 0 16.1 0H95.8125C104.825 0 112 7.175 112 16.1V95.8125C112 104.825 104.825 112 95.9 112Z" fill="#002333"></path><path d="M95.9 0H16.1C7.175 0 0 7.175 0 16.1V69.125C16.5375 76.0375 35.7 79.975 56.175 79.975C76.475 79.975 95.55 76.125 112 69.3V16.1C112 7.175 104.825 0 95.9 0Z" fill="url(#paint0_linear_918_28918)"></path><path d="M95.9 3.5C102.9 3.5 108.5 9.1875 108.5 16.1V95.8125C108.5 102.812 102.813 108.412 95.9 108.412H16.1C9.1 108.412 3.5 102.725 3.5 95.8125V16.1C3.5 9.1875 9.1875 3.5 16.1 3.5H95.9ZM95.9 0H16.1C7.175 0 0 7.175 0 16.1V95.8125C0 104.825 7.175 112 16.1 112H95.8125C104.738 112 111.913 104.825 111.913 95.9V16.1C112 7.175 104.825 0 95.9 0Z" fill="#002333"></path><rect x="88.5" y="88.5" width="39" height="39" rx="4.5" fill="url(#paint1_linear_918_28918)" stroke="#C2CACE"></rect><path d="M77.5 56V49.55C77.5 38.8 73.2 34.5 62.45 34.5H49.55C38.8 34.5 34.5 38.8 34.5 49.55V62.45C34.5 73.2 38.8 77.5 49.55 77.5H56" stroke="#00E3C0" stroke-width="1.8" stroke-linecap="round" stroke-linejoin="round"></path><path d="M34.5645 48.4751H77.5" stroke="#00E3C0" stroke-width="1.8" stroke-linecap="round" stroke-linejoin="round"></path><path d="M34.5645 63.5254H56" stroke="#00E3C0" stroke-width="1.8" stroke-linecap="round" stroke-linejoin="round"></path><path d="M48.4965 77.4785V34.5215" stroke="#00E3C0" stroke-width="1.8" stroke-linecap="round" stroke-linejoin="round"></path><path d="M63.5465 55.9785V34.5215" stroke="#00E3C0" stroke-width="1.8" stroke-linecap="round" stroke-linejoin="round"></path><path d="M63.5358 73.7377C63.5358 75.8232 65.1375 77.5002 67.1155 77.5002H71.1575C72.8883 77.5002 74.2858 76.0274 74.2858 74.2322C74.2858 72.2649 73.4365 71.5769 72.1573 71.1254L65.6643 68.8679C64.385 68.4164 63.5358 67.7284 63.5358 65.7612C63.5358 63.9552 64.944 62.4932 66.664 62.4932H70.706C72.6948 62.4932 74.2858 64.1702 74.2858 66.2557" stroke="#00E3C0" stroke-width="1.8" stroke-linecap="round" stroke-linejoin="round"></path><path d="M68.9 59.2251V80.7251" stroke="#00E3C0" stroke-width="1.8" stroke-linecap="round" stroke-linejoin="round"></path><g clip-path="url(#clip0_918_28918)"><path fill-rule="evenodd" clip-rule="evenodd" d="M112.947 112.26C112.383 112.417 111.648 112.482 111.018 112.482C109.378 112.482 108.302 111.631 108.302 110.071C108.302 108.591 109.312 107.634 110.782 107.634C111.11 107.634 111.464 107.673 111.674 107.778V105.629H112.947V112.26ZM111.674 108.879C111.477 108.787 111.202 108.735 110.887 108.735C110.113 108.735 109.601 109.207 109.601 110.032C109.601 110.91 110.152 111.408 111.058 111.408C111.215 111.408 111.464 111.408 111.674 111.355V108.879ZM123.407 112.26C122.842 112.417 122.107 112.482 121.464 112.482C119.837 112.482 118.748 111.631 118.748 110.071C118.748 108.591 119.758 107.634 121.228 107.634C121.569 107.634 121.911 107.673 122.12 107.778V105.629H123.407V112.26ZM122.12 108.879C121.924 108.787 121.661 108.735 121.346 108.735C120.559 108.735 120.047 109.207 120.047 110.032C120.047 110.91 120.611 111.408 121.517 111.408C121.674 111.408 121.911 111.408 122.12 111.355V108.879ZM114.955 108.879C115.165 108.787 115.467 108.761 115.716 108.761C116.504 108.761 117.042 109.207 117.042 110.006C117.042 110.949 116.438 111.382 115.638 111.395V112.482H115.703C117.357 112.482 118.341 111.578 118.341 109.967C118.341 108.499 117.291 107.634 115.743 107.634C114.955 107.634 114.181 107.818 113.669 108.027V114.251H114.955V108.879Z" fill="#3F3F42"></path><path fill-rule="evenodd" clip-rule="evenodd" d="M103.604 104.607L103.814 104.843L103.932 104.778L103.604 104.607Z" fill="#DC0032"></path><path fill-rule="evenodd" clip-rule="evenodd" d="M103.289 104.437L103.695 104.909L103.84 104.83L103.682 104.647L103.289 104.437Z" fill="#DC0032"></path><path fill-rule="evenodd" clip-rule="evenodd" d="M102.961 104.267L103.577 104.974L103.722 104.896L103.367 104.476L102.961 104.267Z" fill="#DC0032"></path><path fill-rule="evenodd" clip-rule="evenodd" d="M102.646 104.097L103.459 105.04L103.604 104.961L103.039 104.306L102.646 104.097ZM104.207 105.761L104.115 105.813L104.207 105.918V105.761Z" fill="#DC0032"></path><path fill-rule="evenodd" clip-rule="evenodd" d="M102.331 103.926L103.341 105.106L103.485 105.027L102.724 104.136L102.331 103.926ZM104.155 105.787L104.01 105.879L104.207 106.114V105.866L104.155 105.787H104.155Z" fill="#DC0032"></path><path fill-rule="evenodd" clip-rule="evenodd" d="M102.003 103.756L103.223 105.171L103.381 105.092L102.409 103.966L102.003 103.756ZM104.037 105.852L103.892 105.944L104.207 106.311V106.062L104.037 105.852Z" fill="#DC0032"></path><path fill-rule="evenodd" clip-rule="evenodd" d="M101.688 103.585L103.118 105.236L103.262 105.158L102.081 103.795L101.688 103.585ZM103.919 105.931L103.774 106.01L104.207 106.521V106.272L103.919 105.931Z" fill="#DC0032"></path><path fill-rule="evenodd" clip-rule="evenodd" d="M101.373 103.415L103 105.302L103.144 105.223L101.766 103.625L101.373 103.415ZM103.8 105.996L103.656 106.075L104.207 106.717V106.468L103.8 105.996Z" fill="#DC0032"></path><path fill-rule="evenodd" clip-rule="evenodd" d="M101.045 103.245L102.882 105.367L103.026 105.289L101.451 103.454L101.045 103.245ZM103.682 106.062L103.538 106.14L104.207 106.913V106.665L103.682 106.062Z" fill="#DC0032"></path><path fill-rule="evenodd" clip-rule="evenodd" d="M100.73 103.074L102.764 105.446L102.908 105.354L101.123 103.284L100.73 103.074ZM103.564 106.127L103.42 106.206L104.207 107.123V106.874L103.564 106.127Z" fill="#DC0032"></path><path fill-rule="evenodd" clip-rule="evenodd" d="M100.401 102.904L102.646 105.512L102.79 105.42L100.808 103.114L100.401 102.904ZM103.459 106.193L103.302 106.272L104.207 107.32V107.071L103.459 106.193Z" fill="#DC0032"></path><path fill-rule="evenodd" clip-rule="evenodd" d="M100.087 102.734L102.527 105.577L102.685 105.486L100.493 102.944L100.087 102.734ZM103.341 106.259L103.197 106.337L104.207 107.53V107.268L103.341 106.259Z" fill="#DC0032"></path><path fill-rule="evenodd" clip-rule="evenodd" d="M99.7716 102.563L102.423 105.643L102.567 105.551L100.165 102.773L99.7716 102.563ZM103.223 106.324L103.079 106.403L104.207 107.726V107.477L103.223 106.324Z" fill="#DC0032"></path><path fill-rule="evenodd" clip-rule="evenodd" d="M99.4435 102.38L102.304 105.708L102.449 105.616L99.8503 102.603L99.4435 102.38ZM103.105 106.389L102.961 106.468L104.207 107.922V107.674L103.105 106.389Z" fill="#DC0032"></path><path fill-rule="evenodd" clip-rule="evenodd" d="M99.1285 102.209L102.186 105.774L102.331 105.695L99.5354 102.432L99.1285 102.209ZM102.987 106.455L102.842 106.533L104.207 108.132V107.87L102.987 106.455Z" fill="#DC0032"></path><path fill-rule="evenodd" clip-rule="evenodd" d="M98.8136 102.052L102.068 105.839L102.213 105.76L99.2073 102.262L98.8136 102.052ZM102.869 106.52L102.724 106.599L104.207 108.329V108.08L102.869 106.52Z" fill="#DC0032"></path><path fill-rule="evenodd" clip-rule="evenodd" d="M98.6036 102L101.95 105.905L102.094 105.826L98.8924 102.092L98.8136 102.052C98.748 102.013 98.6824 102 98.6036 102ZM102.751 106.586L102.606 106.665L104.207 108.525V108.276L102.751 106.586Z" fill="#DC0032"></path><path fill-rule="evenodd" clip-rule="evenodd" d="M98.6036 102C98.5512 102 98.4987 102.013 98.4462 102.026L101.832 105.97L101.989 105.892L98.643 102C98.6299 102 98.6168 102 98.6036 102ZM102.646 106.652L102.501 106.73L104.207 108.735V108.473L102.646 106.652Z" fill="#DC0032"></path><path fill-rule="evenodd" clip-rule="evenodd" d="M98.4855 102.013C98.4593 102.026 98.4199 102.039 98.4068 102.052L98.3281 102.092L101.727 106.036L101.871 105.957L98.4855 102.013ZM102.527 106.717L102.383 106.809L104.207 108.932V108.683L102.527 106.717Z" fill="#DC0032"></path><path fill-rule="evenodd" clip-rule="evenodd" d="M98.3543 102.065L98.2099 102.144L101.609 106.101L101.753 106.023L98.3543 102.065ZM102.409 106.783L102.265 106.874L104.207 109.128V108.879L102.409 106.783Z" fill="#DC0032"></path><path fill-rule="evenodd" clip-rule="evenodd" d="M98.2362 102.131L98.0918 102.209L101.491 106.167L101.635 106.088L98.2362 102.131ZM102.291 106.848L102.147 106.94L104.207 109.338V109.089L102.291 106.848Z" fill="#DC0032"></path><path fill-rule="evenodd" clip-rule="evenodd" d="M98.1181 102.197L97.9737 102.275L101.373 106.233L101.517 106.154L98.1181 102.197ZM102.173 106.914L102.029 107.006L104.207 109.535V109.286L102.173 106.914Z" fill="#DC0032"></path><path fill-rule="evenodd" clip-rule="evenodd" d="M97.9999 102.262L97.8556 102.341L101.255 106.298L101.399 106.219L97.9999 102.262ZM102.055 106.979L101.911 107.071L104.207 109.731V109.482L102.055 106.979Z" fill="#DC0032"></path><path fill-rule="evenodd" clip-rule="evenodd" d="M97.8818 102.328L97.7375 102.406L101.136 106.363L101.281 106.285L97.8818 102.328ZM101.95 107.045L101.806 107.136L104.207 109.941V109.692L101.95 107.045Z" fill="#DC0032"></path><path fill-rule="evenodd" clip-rule="evenodd" d="M97.7637 102.38L97.6194 102.472L101.031 106.429L101.176 106.35L97.7637 102.38ZM101.832 107.123L101.688 107.202L104.207 110.137V109.888L101.832 107.123Z" fill="#DC0032"></path><path fill-rule="evenodd" clip-rule="evenodd" d="M97.6456 102.445L97.5013 102.524L100.913 106.494L101.058 106.416L97.6456 102.445ZM101.714 107.189L101.569 107.267L104.207 110.346V110.084L101.714 107.189Z" fill="#DC0032"></path><path fill-rule="evenodd" clip-rule="evenodd" d="M97.5275 102.511L97.3832 102.59L100.795 106.573L100.94 106.481L97.5275 102.511ZM101.596 107.255L101.451 107.333L104.207 110.543V110.294L101.596 107.255Z" fill="#DC0032"></path><path fill-rule="evenodd" clip-rule="evenodd" d="M97.4094 102.577L97.2651 102.655L100.677 106.639L100.821 106.547L97.4094 102.577ZM101.478 107.32L101.333 107.399L104.207 110.74V110.491L101.478 107.32Z" fill="#DC0032"></path><path fill-rule="evenodd" clip-rule="evenodd" d="M97.2913 102.642L97.1469 102.721L100.559 106.704L100.703 106.612L97.2913 102.642ZM101.359 107.385L101.215 107.464L104.207 110.949V110.687L101.359 107.385Z" fill="#DC0032"></path><path fill-rule="evenodd" clip-rule="evenodd" d="M97.1732 102.708L97.0288 102.786L100.441 106.769L100.585 106.678L97.1732 102.708ZM101.255 107.451L101.11 107.529L104.207 111.146V110.897L101.255 107.451Z" fill="#DC0032"></path><path fill-rule="evenodd" clip-rule="evenodd" d="M97.0551 102.76L96.8976 102.838L100.336 106.835L100.48 106.743L97.0551 102.76ZM101.136 107.516L100.992 107.595L104.207 111.342V111.093L101.136 107.516Z" fill="#DC0032"></path><path fill-rule="evenodd" clip-rule="evenodd" d="M96.937 102.826L96.7795 102.904L100.231 106.914C100.244 106.888 100.257 106.875 100.283 106.861L100.362 106.809L96.937 102.826L96.937 102.826ZM101.018 107.582L100.874 107.661L104.181 111.513C104.194 111.474 104.207 111.434 104.207 111.395V111.29L101.018 107.582H101.018Z" fill="#DC0032"></path><path fill-rule="evenodd" clip-rule="evenodd" d="M96.8189 102.891L96.6614 102.97L100.192 107.071V107.019C100.192 106.979 100.218 106.927 100.244 106.888L96.8189 102.891ZM100.9 107.648L100.795 107.713C100.782 107.713 100.769 107.726 100.756 107.726L104.115 111.644C104.155 111.592 104.181 111.539 104.194 111.487L100.9 107.648Z" fill="#DC0032"></path><path fill-rule="evenodd" clip-rule="evenodd" d="M96.7007 102.957L96.5433 103.035L100.192 107.281V107.018L96.7007 102.957ZM100.533 107.661L104.024 111.736C104.063 111.709 104.102 111.657 104.142 111.618L100.782 107.713C100.73 107.739 100.651 107.739 100.598 107.713L100.533 107.661Z" fill="#DC0032"></path><path fill-rule="evenodd" clip-rule="evenodd" d="M96.5826 103.022L96.4252 103.101L103.905 111.801L104.01 111.749C104.024 111.736 104.037 111.722 104.05 111.709L100.611 107.713H100.598L100.297 107.529C100.27 107.516 100.257 107.49 100.231 107.464C100.205 107.425 100.205 107.398 100.192 107.372V107.228L96.5826 103.022Z" fill="#DC0032"></path><path fill-rule="evenodd" clip-rule="evenodd" d="M96.4645 103.087L96.3071 103.166L103.787 111.866L103.932 111.788L96.4645 103.087Z" fill="#DC0032"></path><path fill-rule="evenodd" clip-rule="evenodd" d="M96.3464 103.14L96.189 103.219L103.682 111.932L103.827 111.854L96.3464 103.14Z" fill="#DC0032"></path><path fill-rule="evenodd" clip-rule="evenodd" d="M96.2283 103.206L96.0709 103.284L103.564 111.998L103.709 111.919L96.2283 103.206Z" fill="#DC0032"></path><path fill-rule="evenodd" clip-rule="evenodd" d="M96.1102 103.271L95.9528 103.35L103.446 112.063L103.59 111.985L96.1102 103.271Z" fill="#DC0032"></path><path fill-rule="evenodd" clip-rule="evenodd" d="M95.979 103.336L95.8346 103.415L103.328 112.142L103.472 112.05L95.979 103.336Z" fill="#DC0032"></path><path fill-rule="evenodd" clip-rule="evenodd" d="M95.8608 103.402L95.7165 103.48L103.21 112.207L103.354 112.115L95.8608 103.402Z" fill="#DC0032"></path><path fill-rule="evenodd" clip-rule="evenodd" d="M95.7427 103.468L95.5984 103.546L103.105 112.273L103.249 112.181L95.7427 103.468Z" fill="#DC0032"></path><path fill-rule="evenodd" clip-rule="evenodd" d="M95.6246 103.52L95.4803 103.599L102.987 112.338L103.131 112.247L95.6246 103.52Z" fill="#DC0032"></path><path fill-rule="evenodd" clip-rule="evenodd" d="M95.5065 103.585L95.3622 103.664L102.869 112.404L103.013 112.325L95.5065 103.585Z" fill="#DC0032"></path><path fill-rule="evenodd" clip-rule="evenodd" d="M95.3884 103.651L95.2441 103.729L98.8923 107.975L99.0104 108.054C99.0629 108.08 99.1154 108.145 99.1154 108.211V108.224L102.751 112.469L102.895 112.391L95.3884 103.651Z" fill="#DC0032"></path><path fill-rule="evenodd" clip-rule="evenodd" d="M95.2703 103.716L95.126 103.795L98.5511 107.791L98.9842 108.027L95.2703 103.716ZM99.1023 108.171C99.1023 108.184 99.1154 108.198 99.1154 108.211V108.433L102.632 112.535L102.777 112.456L99.1023 108.171Z" fill="#DC0032"></path><path fill-rule="evenodd" clip-rule="evenodd" d="M95.1522 103.782L95.0079 103.861L98.2099 107.595L98.643 107.831L95.1522 103.782ZM99.1154 108.381V108.63L102.527 112.601L102.672 112.522L99.1154 108.381Z" fill="#DC0032"></path><path fill-rule="evenodd" clip-rule="evenodd" d="M95.0341 103.848L94.8898 103.926L97.8819 107.399L98.3018 107.634L95.0341 103.848ZM99.1154 108.578V108.84L102.409 112.666L102.554 112.587L99.1154 108.578Z" fill="#DC0032"></path><path fill-rule="evenodd" clip-rule="evenodd" d="M94.916 103.9L94.7716 103.979L97.5406 107.202L97.9606 107.451L94.916 103.9ZM99.1154 108.787V109.036L102.291 112.731L102.436 112.653L99.1154 108.787Z" fill="#DC0032"></path><path fill-rule="evenodd" clip-rule="evenodd" d="M94.7979 103.965L94.6535 104.044L97.1994 107.005L97.6194 107.254L94.7979 103.965ZM99.1154 108.984V109.233L102.173 112.797L102.317 112.718L99.1154 108.984Z" fill="#DC0032"></path><path fill-rule="evenodd" clip-rule="evenodd" d="M94.6798 104.031L94.5354 104.109L96.8582 106.822L97.2782 107.058L94.6798 104.031ZM99.1154 109.18V109.442L102.055 112.875L102.199 112.784L99.1154 109.18Z" fill="#DC0032"></path><path fill-rule="evenodd" clip-rule="evenodd" d="M94.5617 104.097L94.4173 104.175L96.517 106.626L96.937 106.861L94.5617 104.097ZM99.1154 109.39V109.639L101.95 112.941L102.094 112.85L99.1154 109.39Z" fill="#DC0032"></path><path fill-rule="evenodd" clip-rule="evenodd" d="M94.4435 104.162L94.2992 104.241L96.1758 106.429L96.6089 106.665L94.4435 104.162ZM99.1154 109.587V109.836L101.832 113.007L101.976 112.915L99.1154 109.587Z" fill="#DC0032"></path><path fill-rule="evenodd" clip-rule="evenodd" d="M94.3254 104.228L94.1811 104.306L95.8346 106.232L96.2677 106.481L94.3254 104.228ZM97.7637 108.473L98.1049 108.866V108.722C98.1049 108.696 98.0787 108.656 98.0524 108.643L97.7637 108.473ZM99.1154 109.783V110.045L101.714 113.072L101.858 112.98L99.1154 109.783Z" fill="#DB0032"></path><path fill-rule="evenodd" clip-rule="evenodd" d="M94.2073 104.28L94.063 104.358L95.4934 106.036L95.9265 106.285L94.2073 104.28ZM97.4225 108.276L98.1049 109.062V108.813L97.8556 108.525L97.4225 108.276ZM99.1154 109.993V110.242L101.596 113.137L101.74 113.059L99.1154 109.993Z" fill="#DC0032"></path><path fill-rule="evenodd" clip-rule="evenodd" d="M94.0892 104.345L93.9449 104.424L95.1653 105.852L95.5853 106.088L94.0892 104.345ZM97.0813 108.093L98.105 109.272V109.023L97.5144 108.329L97.0813 108.093ZM99.1154 110.189V110.438L101.478 113.203L101.622 113.124L99.1154 110.189Z" fill="#DC0032"></path><path fill-rule="evenodd" clip-rule="evenodd" d="M93.9711 104.411L93.8268 104.49L94.8241 105.656L95.2441 105.892L93.9711 104.411ZM96.7533 107.897L98.105 109.469V109.22L97.1732 108.132L96.7533 107.897ZM99.1154 110.399V110.648L101.373 113.269L101.517 113.19L99.1154 110.399Z" fill="#DC0032"></path><path fill-rule="evenodd" clip-rule="evenodd" d="M93.853 104.477L93.7087 104.555L94.483 105.459L94.9029 105.695L93.853 104.477ZM96.4121 107.7L98.105 109.665V109.416L96.832 107.949L96.4121 107.7ZM99.1154 110.596V110.845L101.255 113.334L101.399 113.256L99.1154 110.596Z" fill="#DC0032"></path><path fill-rule="evenodd" clip-rule="evenodd" d="M93.7349 104.542L93.5905 104.621L94.1417 105.263L94.5616 105.512L93.7349 104.542ZM96.0708 107.503L98.1049 109.875V109.626L96.4908 107.752L96.0708 107.503ZM99.1154 110.792V111.041L101.136 113.4L101.281 113.321L99.1154 110.792Z" fill="#DC0032"></path><path fill-rule="evenodd" clip-rule="evenodd" d="M93.6168 104.607L93.4724 104.686L93.8005 105.066L94.2336 105.315L93.6168 104.607ZM95.7296 107.32L98.1049 110.071V109.822L96.1496 107.556L95.7296 107.32ZM99.1154 111.002V111.251L101.018 113.465L101.163 113.386L99.1154 111.002Z" fill="#DC0032"></path><path fill-rule="evenodd" clip-rule="evenodd" d="M93.4987 104.66L93.3412 104.739L93.4593 104.883L93.8924 105.119L93.4987 104.66ZM95.3884 107.124L98.1049 110.281V110.019L95.8215 107.359L95.3884 107.124ZM99.1154 111.199V111.448L100.9 113.544L101.045 113.452L99.1154 111.199Z" fill="#DC0032"></path><path fill-rule="evenodd" clip-rule="evenodd" d="M93.3806 104.726L93.2887 104.778L93.5512 104.922L93.3806 104.726V104.726ZM95.0472 106.927L98.1049 110.478V110.229L95.4803 107.176L95.0472 106.927ZM99.1154 111.395V111.657L100.795 113.609L100.94 113.518L99.1154 111.395Z" fill="#DC0032"></path><path fill-rule="evenodd" clip-rule="evenodd" d="M94.7191 106.73L98.1049 110.674V110.425L95.1391 106.979L94.7191 106.73ZM99.1154 111.604V111.853L100.677 113.675L100.821 113.583L99.1154 111.604Z" fill="#DC0032"></path><path fill-rule="evenodd" clip-rule="evenodd" d="M94.3779 106.547L98.1049 110.884V110.622L94.7979 106.783L94.3779 106.547ZM99.1154 111.801V112.05L100.559 113.74L100.703 113.649L99.1154 111.801Z" fill="#DC0032"></path><path fill-rule="evenodd" clip-rule="evenodd" d="M94.0367 106.35L98.1049 111.08V110.831L94.4567 106.586L94.0367 106.35ZM99.1154 111.998V112.26L100.441 113.806L100.585 113.727L99.1154 111.998Z" fill="#DC0032"></path><path fill-rule="evenodd" clip-rule="evenodd" d="M93.6956 106.154L98.105 111.277V111.028L94.1155 106.403L93.6956 106.154ZM99.1154 112.207V112.456L100.323 113.872L100.467 113.793L99.1154 112.207Z" fill="#DB0032"></path><path fill-rule="evenodd" clip-rule="evenodd" d="M93.3543 105.957L98.1049 111.487V111.238L93.7743 106.206L93.3543 105.957ZM99.1154 112.404V112.653L100.218 113.937L100.362 113.858L99.1154 112.404Z" fill="#DA0032"></path><path fill-rule="evenodd" clip-rule="evenodd" d="M93.0131 105.773L98.1049 111.683V111.434L93.4462 106.009L93.0131 105.773ZM99.1154 112.6V112.862L100.1 114.002L100.244 113.924L99.1154 112.6Z" fill="#D90032"></path><path fill-rule="evenodd" clip-rule="evenodd" d="M93 105.761V105.944L98.1049 111.88V111.631L93.105 105.813L93 105.761ZM99.1154 112.81V112.967C99.1154 112.994 99.1023 113.02 99.0892 113.033L99.9816 114.068L100.126 113.989L99.1154 112.81Z" fill="#D80032"></path><path fill-rule="evenodd" clip-rule="evenodd" d="M93 105.892V106.154L98.1049 112.089V111.84L93 105.892ZM99.1023 113.007C99.0892 113.059 99.0498 113.111 99.0104 113.125L98.9973 113.138L99.8635 114.133L100.008 114.055L99.1023 113.007L99.1023 113.007Z" fill="#D70032"></path><path fill-rule="evenodd" clip-rule="evenodd" d="M93 106.101V106.35L98.1049 112.286V112.037L93 106.101ZM99.0236 113.111C99.0236 113.124 99.0236 113.124 99.0104 113.124L98.8792 113.203L99.7453 114.199L99.8897 114.12L99.0236 113.111L99.0236 113.111Z" fill="#D60032"></path><path fill-rule="evenodd" clip-rule="evenodd" d="M93 106.298V106.547L98.1049 112.483V112.234L93 106.298ZM98.9186 113.177L98.7611 113.269L99.6404 114.278L99.7847 114.186L98.9186 113.177Z" fill="#D50032"></path><path fill-rule="evenodd" clip-rule="evenodd" d="M93 106.507V106.756L98.1049 112.692V112.443L93 106.507ZM98.8005 113.242L98.7086 113.295C98.6824 113.308 98.6561 113.308 98.6299 113.308L99.5222 114.343L99.6666 114.251L98.8005 113.242V113.242Z" fill="#D40032"></path><path fill-rule="evenodd" clip-rule="evenodd" d="M93 106.704V106.953L98.1049 112.889V112.64L93 106.704ZM98.3937 113.243L99.4041 114.409L99.5485 114.317L98.6692 113.308C98.6561 113.308 98.6299 113.321 98.6168 113.321H98.6036C98.5643 113.321 98.538 113.308 98.5118 113.295L98.3937 113.243L98.3937 113.243Z" fill="#D30032"></path><path fill-rule="evenodd" clip-rule="evenodd" d="M93 106.9V107.162L99.286 114.474L99.4304 114.382L98.4855 113.282L98.1968 113.124C98.1443 113.098 98.1049 113.033 98.1049 112.967V112.836L93 106.9Z" fill="#D20032"></path><path fill-rule="evenodd" clip-rule="evenodd" d="M93 107.11V107.359L99.1679 114.54L99.3123 114.461L93 107.11Z" fill="#D10032"></path><path fill-rule="evenodd" clip-rule="evenodd" d="M93 107.307V107.556L99.0498 114.605L99.1942 114.526L93 107.307Z" fill="#D00032"></path><path fill-rule="evenodd" clip-rule="evenodd" d="M93 107.503V107.765L98.9448 114.671L99.0892 114.592L93 107.503Z" fill="#CF0032"></path><path fill-rule="evenodd" clip-rule="evenodd" d="M93 107.713V107.962L98.8267 114.736L98.9711 114.658L93 107.713Z" fill="#CE0032"></path><path fill-rule="evenodd" clip-rule="evenodd" d="M93 107.91V108.159L98.6955 114.789C98.7349 114.776 98.7742 114.763 98.8136 114.749L98.853 114.723L93 107.91Z" fill="#CD0032"></path><path fill-rule="evenodd" clip-rule="evenodd" d="M93 108.106V108.368L98.5249 114.789C98.5511 114.789 98.5774 114.789 98.6036 114.789C98.643 114.789 98.6824 114.789 98.7217 114.775L93 108.106Z" fill="#CC0032"></path><path fill-rule="evenodd" clip-rule="evenodd" d="M93 108.316V108.565L98.2231 114.645L98.4068 114.75C98.4461 114.776 98.5118 114.789 98.5643 114.789L93 108.316Z" fill="#CB0032"></path><path fill-rule="evenodd" clip-rule="evenodd" d="M93 108.512V108.761L97.8818 114.448L98.3149 114.697L93 108.512Z" fill="#CA0032"></path><path fill-rule="evenodd" clip-rule="evenodd" d="M93 108.722V108.971L97.5406 114.251L97.9737 114.5L93 108.722Z" fill="#C90032"></path><path fill-rule="evenodd" clip-rule="evenodd" d="M93 108.918V109.167L97.1994 114.055L97.6194 114.304L93 108.918Z" fill="#C80033"></path><path fill-rule="evenodd" clip-rule="evenodd" d="M93 109.115V109.364L96.8582 113.858L97.2782 114.107L93 109.115Z" fill="#C70033"></path><path fill-rule="evenodd" clip-rule="evenodd" d="M93 109.325V109.574L96.5039 113.649L96.937 113.898L93 109.325Z" fill="#C60033"></path><path fill-rule="evenodd" clip-rule="evenodd" d="M93 109.521V109.77L96.1627 113.452L96.5958 113.701L93 109.521Z" fill="#C50033"></path><path fill-rule="evenodd" clip-rule="evenodd" d="M93 109.718V109.967L95.8215 113.256L96.2546 113.505L93 109.718Z" fill="#C40033"></path><path fill-rule="evenodd" clip-rule="evenodd" d="M93 109.927V110.176L95.4803 113.059L95.9134 113.308L93 109.927Z" fill="#C30033"></path><path fill-rule="evenodd" clip-rule="evenodd" d="M93 110.124V110.373L95.1391 112.863L95.5722 113.112L93 110.124Z" fill="#C20033"></path><path fill-rule="evenodd" clip-rule="evenodd" d="M93 110.32V110.582L94.7979 112.666L95.2178 112.915L93 110.32Z" fill="#C10033"></path><path fill-rule="evenodd" clip-rule="evenodd" d="M93 110.53V110.779L94.4436 112.47L94.8766 112.718L93 110.53Z" fill="#C00033"></path><path fill-rule="evenodd" clip-rule="evenodd" d="M93 110.727V110.976L94.1024 112.273L94.5354 112.509L93 110.727Z" fill="#BF0033"></path><path fill-rule="evenodd" clip-rule="evenodd" d="M93 110.923V111.185L93.7611 112.063L94.1942 112.312L93 110.923Z" fill="#BE0033"></path><path fill-rule="evenodd" clip-rule="evenodd" d="M93 111.133V111.382L93.4199 111.867L93.853 112.116L93 111.133Z" fill="#BD0033"></path><path fill-rule="evenodd" clip-rule="evenodd" d="M93 111.33V111.395C93 111.526 93.0919 111.683 93.1968 111.749L93.5118 111.919L93 111.33Z" fill="#BC0033"></path><path fill-rule="evenodd" clip-rule="evenodd" d="M93.0787 111.631C93.105 111.657 93.1181 111.683 93.1444 111.696L93.0787 111.631Z" fill="#BB0033"></path></g><defs><linearGradient id="paint0_linear_918_28918" x1="56" y1="112" x2="56" y2="0.000240325" gradientUnits="userSpaceOnUse"><stop stop-color="#004A52"></stop><stop offset="1" stop-color="#002333"></stop></linearGradient><linearGradient id="paint1_linear_918_28918" x1="89.5" y1="89.5" x2="128" y2="127" gradientUnits="userSpaceOnUse"><stop stop-color="white"></stop><stop offset="1" stop-color="#F2F4F5"></stop></linearGradient><clipPath id="clip0_918_28918"><rect width="31" height="13" fill="white" transform="translate(93 102)"></rect></clipPath></defs></svg> 