<svg width="45" height="12" fill="none" xmlns="http://www.w3.org/2000/svg"><path d="M44.37.825c-1.877 4.047-12.286 9.571-19.75 10.667-8.08 1.187-12.731.379-22.306-3.944.15.631.291 1.124.382 1.623.097.544.192 1.097.195 1.645.002.171-.291.455-.478.484-.18.025-.513-.17-.579-.346A146.117 146.117 0 0 1 .152 6.382c-.18-.511.001-.894.56-1.043 2.055-.544 4.106-1.116 6.174-1.62.487-.118 1.034 0 1.693.011-.494 1.355-1.638 1.222-2.446 1.596-.853.398-1.778.641-2.868 1.024a25.133 25.133 0 0 0 8.166 3.464c10.38 2.418 19.834.133 28.528-5.788 1.132-.77 2.176-1.672 3.269-2.501.294-.224.63-.394 1.14-.707l.002.007z" fill="#000"/></svg>