<svg width="11" height="11" fill="inherit" xmlns="http://www.w3.org/2000/svg"><mask id="a" fill="inherit"><path d="M10.258.296A.434.434 0 0 0 10.21.3H7.667a.433.433 0 1 0 0 .866H9.22l-4.46 4.46a.433.433 0 1 0 .612.614l4.46-4.46v1.553a.433.433 0 1 0 .867 0V.788a.434.434 0 0 0-.442-.492zM1.6 2.033a.873.873 0 0 0-.867.867v6.5c0 .473.393.867.867.867h6.5a.873.873 0 0 0 .867-.867V3.949l-.867.867V9.4H1.6V2.9h4.583l.868-.867H1.6z"/></mask><path d="M10.258.296A.434.434 0 0 0 10.21.3H7.667a.433.433 0 1 0 0 .866H9.22l-4.46 4.46a.433.433 0 1 0 .612.614l4.46-4.46v1.553a.433.433 0 1 0 .867 0V.788a.434.434 0 0 0-.442-.492zM1.6 2.033a.873.873 0 0 0-.867.867v6.5c0 .473.393.867.867.867h6.5a.873.873 0 0 0 .867-.867V3.949l-.867.867V9.4H1.6V2.9h4.583l.868-.867H1.6z" fill-opacity=".8"/><path d="M10.21.3v1h.072l.07-.01L10.21.3zM7.667.3l-.014 1h.014v-1zm0 .866v-1h-.014l.014 1zm1.554 0 .707.708L11.635.166H9.22v1zm-4.46 4.46.692.722.007-.007.007-.007-.707-.707zm.612.614-.707-.708-.007.008-.007.007.721.693zm4.46-4.46h1V-.636L9.126 1.072l.707.707zm0 1.553 1 .014v-.014h-1zm.867 0h-1v.014l1-.014zm0-2.545L9.71.651 9.7.72v.07h1zM8.967 3.95h1V1.535L8.26 3.242l.707.707zm-.867.867-.707-.707-.293.293v.414h1zm0 4.584v1h1v-1h-1zm-6.5 0h-1v1h1v-1zm0-6.5v-1h-1v1h1zm4.584 0v1h.414l.293-.293-.707-.707zm.867-.867.707.707 1.707-1.707H7.05v1zm3.176-2.737a1.435 1.435 0 0 0-.16.014l.286 1.98a.566.566 0 0 1-.063.005l-.063-1.999zM10.21-.7H7.667v2h2.543v-2zm-2.53 0a1.433 1.433 0 0 0-.554.103l.746 1.856a.567.567 0 0 1-.22.04l.029-2zm-.554.103c-.176.071-.337.176-.472.31l1.404 1.424a.567.567 0 0 1-.186.122L7.126-.597zm-.472.31a1.434 1.434 0 0 0-.316.467l1.845.772a.566.566 0 0 1-.125.185L6.654-.288zM6.338.18a1.434 1.434 0 0 0-.11.553h2c0 .075-.016.15-.045.219L6.338.18zm-.11.553c0 .19.037.378.11.553L8.183.514c.03.07.044.144.044.22h-2zm.11.553c.074.176.181.334.316.468L8.058.33a.566.566 0 0 1 .125.184l-1.845.772zm.316.468c.136.133.296.238.472.31L7.872.206c.07.028.133.07.186.123L6.654 1.754zm.472.31c.176.07.365.105.555.102l-.028-2a.567.567 0 0 1 .219.041l-.746 1.856zm.54.102h1.555v-2H7.667v2zM8.515.46l-4.46 4.46 1.413 1.415 4.46-4.46L8.515.459zM4.068 4.905c-.138.132-.248.29-.323.466l1.836.793a.567.567 0 0 1-.128.184L4.068 4.905zm-.323.466a1.433 1.433 0 0 0-.118.554l2 .02c0 .076-.016.15-.046.22L3.745 5.37zm-.118.554c-.002.19.034.38.106.556l1.852-.756c.029.07.043.145.042.22l-2-.02zm.106.556c.073.177.18.337.314.472L5.46 5.539a.567.567 0 0 1 .124.186l-1.852.756zm.314.472c.135.135.295.241.472.313l.756-1.851c.07.028.133.07.186.124L4.047 6.953zm.472.313c.176.073.365.109.556.107l-.02-2c.075-.001.15.013.22.042l-.756 1.851zm.556.107c.19-.002.38-.042.554-.118L4.836 5.42a.567.567 0 0 1 .219-.046l.02 2zm.554-.118c.175-.076.333-.185.465-.323L4.652 5.547a.567.567 0 0 1 .184-.128l.793 1.836zm.451-.308 4.46-4.46-1.414-1.415-4.46 4.46L6.08 6.947zm2.753-5.168v1.554h2V1.78h-2zm0 1.54c-.002.19.033.378.104.555l1.856-.746c.027.07.041.144.04.22l-2-.029zm.104.555c.07.176.176.336.309.472L10.67 2.94a.567.567 0 0 1 .123.187l-1.856.746zm.309.472c.133.135.292.242.468.316l.771-1.845c.07.029.133.071.185.124L9.246 4.346zm.468.316c.175.073.363.11.553.11v-2c.075 0 .15.016.218.045l-.771 1.845zm.553.11c.19 0 .378-.037.553-.11l-.772-1.845a.567.567 0 0 1 .219-.044v2zm.553-.11c.175-.074.334-.181.467-.316L9.863 2.94a.567.567 0 0 1 .185-.124l.772 1.845zm.467-.316c.134-.136.239-.296.31-.472L9.74 3.128a.567.567 0 0 1 .122-.187l1.424 1.405zm.31-.472c.07-.177.106-.365.103-.555l-2 .028a.567.567 0 0 1 .041-.219l1.856.746zm.103-.54V.787h-2v2.545h2zM11.69.924a1.433 1.433 0 0 0-.048-.615L9.729.895a.567.567 0 0 1-.02-.244l1.982.274zM11.643.31a1.434 1.434 0 0 0-.304-.538L9.849 1.107a.567.567 0 0 1-.12-.212L11.642.31zm-.304-.538a1.434 1.434 0 0 0-.502-.36l-.789 1.837a.567.567 0 0 1-.198-.142l1.489-1.335zm-.502-.36a1.433 1.433 0 0 0-.607-.116l.058 2a.567.567 0 0 1-.24-.047l.79-1.837zM1.6 1.033c-1.026 0-1.867.84-1.867 1.867h2a.136.136 0 0 1-.037.096.136.136 0 0 1-.096.037v-2zM-.267 2.9v6.5h2V2.9h-2zm0 6.5c0 1.026.841 1.867 1.867 1.867v-2c.045 0 .078.018.096.037a.136.136 0 0 1 .037.096h-2zM1.6 11.267h6.5v-2H1.6v2zm6.5 0c1.026 0 1.867-.841 1.867-1.867h-2c0-.045.019-.078.037-.096a.136.136 0 0 1 .096-.038v2zM9.967 9.4V5.066h-2V9.4h2zm0-4.334V3.95h-2v1.117h2zM8.26 3.242l-.867.867 1.414 1.414.867-.867L8.26 3.242zM7.1 4.816v1.117h2V4.816h-2zm0 1.117V9.4h2V5.933h-2zm1 2.467H1.6v2h6.5v-2zm-5.5 1V2.9h-2v6.5h2zm-1-5.5h3.467v-2H1.6v2zm3.467 0h.866v-2h-.866v2zm.866 0h.25v-2h-.25v2zm.958-.293.867-.867-1.415-1.414-.866.867L6.89 3.607zm.16-2.574H5.933v2h1.118v-2zm-1.118 0h-.866v2h.866v-2zm-.866 0H1.6v2h3.467v-2z" fill-opacity=".8" mask="url(#a)"/></svg>