<svg width="379" height="226" fill="none" xmlns="http://www.w3.org/2000/svg"><g clip-path="url(#a)"><rect width="379" height="226" rx="8" fill="url(#b)"/><path fill-rule="evenodd" clip-rule="evenodd" d="M289.441 74.694c.783-.272 1.761-.928 2.673-1.07.912-.125 2.283.095 3.195.095.719 0 1.175.578 1.175.224-.196-.432-.326-.782.13-1.12.197-.094-.389-.287-.586-.542-.389-.897 1.565-1.6 3.066-1.152.13.047.259.13.259.224.067.256.13.303-.133.417.263-.099.522-.193.782-.224.849-.067 1.305-.032 1.761.397v.13c.196.125.196.14.652-.083.456-.193 1.957-.303 2.543-.319 1.631-.047 3.914.099 4.174 1.117.129.562 1.501.849 1.045 1.438-.652.877-1.828 1.615-2.61 2.476v.016c0-.032.067-.079.13-.114.849-.354 2.61-.271 1.698-.944-.067-.082 0-.176.067-.24.326-.145.782-.349 1.367-.223.456.11 1.631-.083 2.217-.063 1.175.047 2.217.126 3.459 0 .455-.031.978-.13 1.501.047.979.385 4.433.928 3.517-.031-.192-.177-.326-.496-.192-.657.978-.703 4.696.11 6.064.095 1.698-.032 3.459.927 3.718 1.756.389 1.31 1.435.735 2.413.798-.13 0 1.498.24 1.108-.016-.455-.224-.848-.4-.782-.703.067-.656 4.107-.464 4.63-.542a3.882 3.882 0 0 1 1.894.208c-.585-.224-1.238-.656-1.501-.99-.192-.126-.193-.256.067-.335 1.242-.59 3.848-1.5 6.001-.526.26.098.326.24.26.353-.327.272-.13.24.585-.078.264-.047.586.031.653.145 0-.11-.067-.255 0-.4.196-.48 2.087-.496 2.869-.287.849.224 1.367.495 1.045.959.13-.13 3.129-.095 3.718-.08.912.032 2.02.304 2.936.465 1.761-.095 3.781-1.31 6.001-.61.59.177 4.111 1.455 4.111 1.423-.067-.11.13-.24.326-.24 2.476-.062 4.76-1.053 7.566-.176 4.044 1.324-2.61-1.262-.586-1.47.979-.095.653-.079 1.828.078 1.694.209 2.02-.192 3.195-.35 1.957-.24 4.304.287 6.524.559 2.802.35 5.675.448 8.478.849.585.094 1.367.255 1.957.448 0 0 2.609.833 1.694.302-.067-.126.067-.255.196-.302 1.435-.511 3.133.015 5.086.047 1.041.015 2.02.015 2.869.495.523.255.196.61 0 .766-.916.767 1.108 1.36 2.413 2.044.197.114 0 .275-.13.307-3.521.334-6.457-1.569-9.129.098-1.502.896 4.955 1.533 5.738 2.653.259.338-.519.672-.845.813-1.828.688-1.698 1.824-1.435 3.038.067.161-.326.401-.652.354-1.301-.161-2.476-.48-2.932.157-.26.334-.849.287-1.498.177-.522-.11-.782.079-.782.558.13.704.653 1.329 2.02 1.887.782.287 1.631.546 2.347.864 1.045.48 4.433.782 3.977 1.741 0 .272-.715.366-1.305.319 0 0 2.543.786 2.74.927 1.041.433-.586 1.006 1.238 1.792.585.256.652.401.522.672 0 .063 0 .142-.196.142-2.869.192.585 1.485.652 2.334.067.397-1.242.382-1.827.256-2.543-.48-4.237-2.142-6.194-3.003-2.48-1.053-5.868-1.98-7.436-3.419-1.891-1.87-.519-3.612-1.631-5.498-.456-.672-1.238-1.278-1.372-1.934-.389-1.344-1.368.224-.456.865.586.448.519 1.438-.652 1.422-1.305-.015-1.957-.448-2.61-.99-.326-.016-.849-.047-.782-.031a.903.903 0 0 1-.585-.016c-1.565-.48-.653 1.454-.586 1.902-.067.64 1.368.766 2.154 1.167.911.464-.916 1.183-1.305 1.309-1.957.48-1.891-.927-3.651-.72-.912.13-1.828.272-2.217.72-.063.047-.13.098-.259.11-.979.193-2.217.224-3.392.287-3.195.208-1.501 1.694-1.564 2.747 0 .72-.782 1.23-.979 1.934-.13.416 4.63 1.933 5.023 1.214.067-.177.326-.448.585-.526 1.368-.256 3.066.015 4.304.526-.196-.157-.259-.318-.326-.495 0-.24.523-.354.978-.224 1.238.334 2.021 1.038 2.873 1.631.26-.047.586-.016.849.141 1.761 1.294 5.345 2.268 7.762 3.325.716.303 2.347.897 2.15 1.372-.196.782-2.543-.224-.326 1.309.652.464 2.413 1.36 1.501 1.855-2.283 1.132-6.846-3.997-7.302-4.351-1.827-1.34-4.956-2.173-6.846-3.356 0 .16-.067.334-.264.499.523.255 1.305.432 1.694.766.719.558 1.305 1.152 2.154 1.663 1.828 1.026 3.066 1.981 3.718 3.199 1.041 2.028 2.283 4.425-.326 5.978-.456.287-2.547.094-2.673.318-.393.672.063 1.246-.133 1.981-.067.416-.193 1.328-.456 1.823-.26.767 1.631.767 2.739 1.038 1.828.417 2.673.849 3.392 1.694.393.448 2.998 2.287 1.501 2.798-.715.256-2.346.959-3.325.818-1.305-.161-2.216-.578-2.543-1.152-.782-1.505-4.111-1.871-6.001-2.975-.259-.177-.456-.432-.519-.641-.133-.255-.196-.495-.326-.75-2.61.672-3.066 1.375-1.501 2.079.786.448.786.959.522 1.391-1.108 1.36.197 1.022 1.372 1.773.652.51 1.238 1.391 2.543 1.662 1.501.318 2.802.527 3.521 1.23.134.13 0 .287-.259.303-1.175.082-2.543.224-3.718-.063.13.735 5.675 1.167 6.39 1.725.653.495-.326.719.39 1.089 1.238.527-.519 1.261-.783 1.647-.259.652-1.108 1.053-.326 1.855.197.224.26.255.26.479-.063.11-.26.177-.586.161.259.016-.652 1.101-.979 1.23-.782.287-1.89.865-1.371 1.36 1.112.849-3.392 1.439-4.304 1.631-2.087.46-4.303.782-6.587 1.116-3.588.543-4.5 1.663-1.501 3.262 2.672 1.423 6.327 1.918 7.565 3.773.067.063.067.111 0 .146 1.828 1.281 2.221 2.016.197 3.179-1.238.735-2.476 1.455-3.651 2.205-.393.271-.782.558-1.498.672-1.501.256-2.086-.448-2.024-.912.197-.958-3.195-1.006-4.5-1.902-1.041-.719-2.542-1.198-4.173-1.643-1.698-.463-.653.653-.523.735.585.59.326 1.231.259 1.804-.067 1.246 2.221 1.183 2.74 2.079.259.751-.13 1.007 2.153 1.293 2.61.303 4.174 1.82 5.546 2.7.782.527 3.132 2.59 2.087 3.278-.13.079-.393.13-.586.079-1.368-.177-2.61-.672-3.848-.959-.848-.193-2.283-.271-2.739-.688-1.108-.849-2.932-1.647-3.781-2.523-.911-.896-1.76-2.366-4.174-2.798-2.542-.464-2.609-1.183-1.953-2.123 1.042-1.517-1.238-3.93-3.847-5.29-.067-.015-.067-.047-.197-.078 0-.032-.13-.079-.193-.13-.196-.114-.196-.24 0-.354.063-.031-.652-.864-.911-.609-.26.224-.586.543-1.175.672-1.435.303-2.673.334-4.304-.094-.652-.193-.719-.609-.59-.88.197-.433 1.435-.767.653-1.36-.782-.621-1.305-1.278-2.346-1.836-1.631-.849-2.284-.432-3.589-.99-.978-.366-1.304-.672-2.02-1.12-.522-.303-3.065.192-3.914.177-1.502-.016-3.978-.366-2.999 1.167.259.334.13.495-.067.782-.585.719-2.283 1.407-3.262 1.981-1.568.943-3.392 1.819-4.826 2.798-1.112.735 0 1.328.13 2.095.129.751.522 1.647.393 2.382 0 .224.063.782-.393.99-.653.287-1.761.35-1.305.943.13.24.13.511-.523.657-.782.172-2.024 1.021-3.262.86-1.564-.208-2.802-1.167-3.458-1.709-1.498-1.105-2.15-2.284-3.718-3.404-1.368-1.026-2.284-2.173-3.589-3.242-.196-.11-.196-.224-.066-.303-.13-.114-.26-.24-.26-.354-.456-.974-1.238-1.501-2.609-2.252-1.238-.735-1.631-1.47-1.761-2.334-.067-.719-1.694.527-2.869.495-1.564-.016-3.066-.652-4.237-1.085-.196-.063-.196-.161-.196-.255.263-.224.326-.366.911-.432.912-.095-1.76-.845-1.76-.845-.586-.256-1.046-.48-1.502-.783-1.76-1.006-3.325-1.021-5.805-.99-2.935.047-6.26.063-9.196-.047-1.957-.079-3.262-.417-4.697-1.053-2.153-.975-3.977-.063-6.198-.401-.585-.083-.978-.323-1.367-.511-1.112-.558-2.024-.397-3.066-.845-.456-.208-.912-.543-1.108-.833 0-.048-1.112-1.981-1.894-1.199-.13.177-1.238.369-1.761.527 1.694.735 2.476 1.532 3.848 2.413.455.302.911 1.996 1.827 1.006.13-.224.979-.114.979.126-.063-.193 1.045 2.11 1.371 2.016.523-.114 1.435-.401 2.087-.37 1.891.13 1.435-.511 2.154-1.006.13-.129 1.175-.672 1.041-.75-.259-.287.327-.625.979-.413.523.177 1.305.365 1.631.688.389.511 1.564 1.855 1.957 1.933.979.209 2.74.366 3.392.896.523.527.979 1.199.523 1.741-.456.401-.912.688-1.565.991-5.219 2.492-.192.719-.915 1.328-.586.429-1.498 1.199-2.217 1.47-.456.157-2.279.829-3.195.943-2.087.256-2.936.386-4.5 1.297 0 .032-.326.256-.523.303-2.283.527-4.696 1.057-7.043 1.47-1.434.24-7.043 1.662-8.477.656-1.238-.896-.979-1.918-1.828-2.861-1.041-1.199-1.89-2.653-3.454-3.742-.326-.239-3.718-1.324-3.848-1.819-.259-1.36-.912-2.445-3.392-3.357-1.371-.495-1.89-2.028-2.672-2.7-.652-.589-.782-1.135-.845-1.741-.326.256-1.175.782-1.631.767-.652-.016-.586-.032-1.171-.224-1.828-.704.259.927.519 1.006.848.208 1.304.401 1.108.829-.523.975 2.346 1.678 2.672 2.445.586 1.328 2.48 2.366 2.74 3.706.326 1.391 2.672 2.063 3.718 3.293 1.434 1.647 3.195 2.767 6.457 3.82 1.434.496 2.087.912 2.739 1.58.067.032.134.063.197.114 0 .047 0 .095.067.142v.063c.196.495.326 1.104 2.02.719.845-.177 3.328.318 3.588.11.326-.24.912-.656 1.631-.672 1.761-.063 3.262-.287 4.893-.432.849-.095 2.672-.079 2.413.593-.456.912-1.045 1.549-1.045 2.543-.067.527-.327.798-.979 1.246-1.368.99-2.739 1.804-3.781 2.924-.782.782-1.305 1.505-2.48 2.173-2.413 1.36-6.194 2.126-8.74 3.435-2.869 1.533-6.198 4.524-4.434 6.536.849.99.912 1.886 2.61 2.747.456.24.586.432.652.688v.126c0 .129-.129.208-.326.239-.782.928.912 2.429.586 3.388-.326.912-.979 1.647-2.284 2.382-1.238.719-3.262.511-4.763 1.47-.715.495-2.154.849-3.128 1.261-2.021.786-.519 1.085.196 1.95.652.845 2.346 1.886.782 2.826-.715.416-1.368.672-2.672.735-.389.015-3.262.015-3.129.369.067.189.26.397.26.605.393 1.95-2.543 3.946-4.76 5.64-2.153 1.647-5.349 2.016-9.067 2.975-2.802.735-4.433.079-7.369.193-.129 0-.326-.032-.393-.079-1.827.157-2.543.849-4.303.751-1.305-.063-2.932-.672-3.848-1.038-1.171-.511.259-1.709-.196-2.252-1.042-1.022-2.351-1.981-3.392-2.991-2.61-2.507-3.651-5.227-6.52-7.703-1.895-1.678-4.241-3.069-4.76-4.924-.196-.126-.263-.142-.393-.287-.129-.224.716-.397.979-.173-.067-.079.719-.704.782-.896.067-.433 0-.861-.13-1.293.067-.338 0-.849.586-1.167.916-.48 3.262-1.121 2.35-1.856-.585-.385-1.108-.75-1.372-1.198-.522-1.568-1.304-2.956-2.609-4.426-1.368-1.583-4.5-2.35-6.127-3.788-1.175-1.042 1.953-1.392 1.367-2.24-.196-.158-.585-.669-.518-.865.393-.814 3.718-3.227-1.305-3.164-1.305.016-3.459.735-4.893.37-.912-.24-1.502-.865-1.828-1.36a.695.695 0 0 1-.259-.079c-1.108-.703-1.761-1.167-4.174-.865-1.175.146-2.346.354-3.521.559a45.532 45.532 0 0 1-5.22.672c-2.216.161-4.696-.209-6.846.094-1.89.255-3.195.798-5.086 1.006-.719.079-1.827-.193-2.216-.448-1.238-.896-2.02-1.662-3.911-2.397-2.543-.975-4.63-2.095-5.152-3.596-.067-.209-1.828-1.631-2.74-1.631-.455-.016-.978-.063-1.175-.272-.522-.511.519-1.132.586-1.631.13-.896.326-1.772 1.041-2.653.912-1.116 1.046-2.299 1.565-3.435.455-.77-.912-1.933.393-2.684 1.434-.829 1.89-1.757 3.195-2.59.393-.192.585-.271.978-.334a.711.711 0 0 1 .327-.11c-.067-.094.192-.271 1.041-.511.067-.094.197-.192.263-.287.193-.126.39-.255.586-.385.912-.625 2.739-1.246 3.848-1.804 2.153-1.073 7.762-1.458 8.151-2.955.393-1.215.456-2.017 2.609-2.83.912-.354 2.217-.558 3.196-.845 1.564-.401 1.367-1.376 2.543-1.855.263-.094.719-.126.848-.063 1.498.354 2.021.849 4.045.672 1.434-.13 2.346 0 3.718-.369.782-.209.848-.24 1.827-.189 1.631.063 3.459-.593 5.086-.833 1.631-.271 3.325-.016 5.022-.366.327-.063 4.107.142 3.652.173 1.304-.094 2.086-.126 3.258.016.978-.24 1.827-.35 2.413.161.196.114.13.208-.067.318-.979.625-.067 1.278-.326 2.048-.13.401-2.154.814-.393 1.089 1.305.208 2.216.558 3.651.652.652.047 1.501.083 2.02.318.652.24 6.328 3.263 6.783 1.329.26-1.262 4.304-1.58 6.328-1.329 2.606.287 4.174 1.376 7.173 1.345.978-.016 1.367.208 2.149.432 1.958.542 2.154.063 3.262-.224 1.305-.385 6.261.11 6.458-.578.129-.413.522-1.387 1.045-1.725.653-.511.523-.943.715-1.486.327-.574.393-1.246-1.175-.656-.585.208-1.501.499-2.413.287-1.957-.48-3.651-.126-5.608-.126-1.305 0-2.806-1.183-3.848-1.486-.585-.192-.912-.385-1.041-.593v.016c-.067.161-.327.318-.72.416-.326.095-.848.063-1.045-.145-.13-.157 0-.35.326-.444 0-.047.13-.099.26-.114.259-.047.719-.047.978.078-.067-.365.26-.75.26-1.12-.197.11-.523.177-.782.193-.393 0-.716-.094-.849-.256-.067-.078-.067-.161 0-.239.066-.032 0-.063.129-.079 0-.063.063-.11.197-.141.326-.083.782.015 1.045.157 0-.079-.129-.146-.259-.224-.197-.079-.197-.157-.067-.24.719-.876 6.001-.542 5.542-1.486 0-.062.066-.176.196-.224 1.305-.4 3.329-.349 4.826-.526 1.238-.161 2.154-.515 3.392-.657.912-.094 2.217.704 2.806.912 1.631.558 5.086.527 6.913.142.327-.782-5.282-2.81-6.001-3.321-.46-.319-1.631-1.329-.067-1.439-.259.032.782-.672.916-.703-.197.047-2.413.416-2.673.416-1.957-.063-.326.59.067.991.067.11 0 .224-.259.302-.523.24-3.392 1.293-4.174.366-.326-.464-.393-.464-1.305-.735-.326-.094-.326-.334-.326-.48.259-.448 1.564-.224.196-.385-.455-.063-.719-.063-.978-.291-.782-.943-1.957.897-2.02.928-.197.432-.586.782-.849 1.199-.26.401-1.828 1.694-2.02 2.271.196.016.326.047.393.142.652.703.652 1.25-.719 1.678-.72.189-1.631.157-2.347.13-.129 0-4.433-.641-3.847.015.326.386-.653.704-1.372.625-.259-.031-2.806-1.678-1.435-.208.26.303 1.046 1.517 1.238 1.568.783.173.783.157 1.176.464.326.318-.456.652-1.046.668-.326 0-1.497-.432-1.368.114 0 .287.067.511-.129.766-.264.319-1.175.224-1.631.13-.067-.031-.13-.079-.13-.145.13-.385-1.827-.834-2.217-.959-.129-.047-.129-.142-.066-.209.456-.322 2.216-.624.978-.687-.715-.032-1.305-.527-1.694-.786-1.108-.845-1.631-1.309-1.631-2.331-.067-1.089-.456-1.934-2.739-2.382-.326-.063-.652-.11-.849-.224-.845-.353-.912-1.599-1.761-1.36-.326.095-.911.272-1.304.158-.393-.11-.72-.177-.849-.417-.26-.912-1.175.11-.849.656.263-.015.522.016.719.13 1.305.818.456 1.486 3.262 2.142.652.142 1.568.318 1.761.7.259.703 1.76.959 2.02 1.631.067.098-.067.192-.197.239-1.434.558-2.543-.589-2.346.735.067.527-.389 1.116-1.761 1.116-.129 0-.326-.062-.389-.125-.719-.704.912-1.616-.849-2.237-1.371-.479-3.195-.813-4.37-1.407-1.242-.636-2.087-1.308-2.806-2.126-.719-.782-1.109-.35-1.828-.141-1.631.448-3.329.896-5.023.432-3.195-.896-2.869.432-3.914 1.038-1.045.609-2.48 1.021-3.651 1.552 0 .031-.067.047-.067.063-.456.271-2.48 1.026-2.413 1.36 0 .287.196.589-.13.876-.782.912-2.609 1.026-3.977 1.678-1.631.735-6.784 1.407-7.892.303-1.371-1.36-2.672.307-4.111-.157-1.108-.401-.715-1.36-.652-1.981.063-.464.192-.849.845-1.262.978-.573 1.631-1.277 2.48-1.851 1.694-.974-.197-1.23-.782-1.965-.067-.145.063-.287.393-.334 1.434-.161 2.932-.546 4.37-.495 1.435.047 2.673.255 4.044.354 1.761.098 4.241.161 5.219-.849.849-.688.916-1.423.197-2.221a1.962 1.962 0 0 1-.912-.64c-.523-.574-2.672-.751-2.087-1.549.26-.448.849-.641 1.698-.542 1.372.145 3.718.192 4.826-.35 1.042-.464 1.761-.594 2.936-.88 1.435-.334 2.087-.896 3.262-1.313 1.435-.542 2.806-1.596 4.567-1.934.067-.015.13-.047.259-.031.067-.016.197-.016.393.016.393-.146 2.936-.303 2.936-.319.586-.479 1.631-.833 2.02-1.375.193-.354.13-1.407.586-1.71 1.368-.798 3.718-.912 4.111.322.326.798.13 1.054-1.108 1.596-.067.047 3.195 1.022 3.391 1.053 1.238.193 2.217.704 3.325 0 .393-.224.719-.479 1.109-.672.455-.177.978-.401 1.564-.338.585.051.652.051 1.041.271.456.354 1.109-.59 1.372-.719.326-.255 1.108-.432 1.761-.271.196.047.326.189.326.303-.13-.464.259-.735 0-1.215-.197-.48.456-1.053.978-1.423.389-.334 1.109-.463 1.891-.353.719.114 2.346 1.104 1.368-.558-.13-.13-.26-.287-.193-.417.259-.464.849-1.022 1.953-1.085.979-.066 1.828.095 2.74.063.911-.05 1.693-.24 2.283-.495-.652-.079-.849-.35-.719-.735-.782.397-2.02.767-2.999.72-.586-.032-.782-.095-1.045-.35-.197-.209-1.435.38-1.828.51-2.283.672-3.848-3.356-2.869-4.012.979-.672 2.673-1.152 4.107-1.549 1.108-.302 2.35-1.933.326-1.297a5.419 5.419 0 0 1-.715.177 1.1 1.1 0 0 1-.652-.094c.326.224-1.372.11-1.042.145-.263-.031-.523.85-.585.96-.327.494-1.046 1.182-1.958 1.406-1.045.24-2.672.354-2.609 1.006 0 .511-1.109.386-.912 1.089.196.656.978 1.085 1.305 1.662.063.287.326.496-.13.767-.197.145-.586.255-.849.334-1.761.432-3.132 1.183-3.521 2.157-.393.673-2.217 2.08-3.522 2.382-1.368.323-1.175-.59-1.501-.975 0-.015-.586-.86-.523-.829-.393-.16-.849-.318-.719-.64.196-.417.067-.88.196-1.282.327-.927-2.739.303-3.065.401-1.368.386-3.521.11-4.174-.526-.519-.366-.456-.767-.196-1.168 0 .016.719-.558.915-.703-.066 0-.066-.02-.129-.02-.456.114-.979-.173-.586-.365 0-.114.067-.24.067-.401.259-.319.585-.61.978-.88.26-.224.716-.319.393-.335-.326-.015-.585-.145-.522-.322.456-.609 1.694-.959 2.932-1.104.259-.032.456.063.456.192 0 .032.719-.255 1.304-.495a2.614 2.614 0 0 1-.782-.016c-.129-.015-.259-.078-.196-.145.067-.047.067-.11.129-.177-.066-.063 0-.177.197-.224.259-.114.916-.078 1.305.016.067.031.196.13.067.177 0 .031 0 .047-.067.078.129-.063.196-.094.263-.094.326-.063.653-.114.782-.177a.894.894 0 0 1-.393-.078c-.196-.063-.259-.177-.326-.272-.067-.098 0-.208.193-.255.455-.063.848-.016 1.175.016.192.015.326.11.326.208-.067.031-.067.063-.067.078.456-.208.849-.432 1.501-.672 3.455-1.293 4.304-3.788 8.022-4.971.13-.047.326-.146.585-.24-.062-.016-.129-.016-.196-.031-.389-.095-.586-.319-.197-.496.197-.094.456-.16.72-.224 0-.13.196-.24.522-.192.26.047.519.192.586.334.586-.208 1.108-.366 1.568-.354 1.435.051 2.284.464 3.718-.224.197-.094 1.372-.83 1.89-.72 1.502.24 2.673-.16 3.589-.734.129-.098.456-.047.585.079.13.334 4.304 1.053 1.828 1.646-1.108.272 2.087.464 2.869.657 1.108.224 2.48-.256 3.458.224.849.4.716.864 1.958 1.167.849.177 1.434.334 2.087.61.393.16.782.703.585.942-.912 1.105-3.458 1.47-5.412.767-3.588-1.262-4.174-.85-2.216-.161.326.094.585.27.585.432.393.72.067 1.725 1.761 2.173 1.238.338 1.238.464.326-.125-1.045-.767 1.108-1.058 2.087-.85.197.048 2.936.944 1.631.417-.196-.078-.326-.255-.326-.365-.134-.401.782-.64 1.305-.798 1.694-.495 3.651-.063 2.936-1.376-.39-.526.522-1.022-.067-1.615-.13-.079-.063-.193.067-.271 1.045-.782 3.977-.354 4.759.495 0 .098 0 .193-.13.256-.652.275-.522.208-1.305.24 1.176-.048 1.305.145 1.176.318.066-.032.129-.079.259-.126.786-.48 1.894-.798 2.739-1.246.523-.271 1.891-.448 2.543-.688.586-.224.849-.173 1.435-.031.259.047.326.177.259.287-.196.27-.389.48-.979.62 1.046-.27 1.631-.432 2.673-.51h.196c.523-.319 1.368-.704 2.021-.48.326.146.522.287.585.543.26.64.715-.641.653-.72-.067-.687.915-1.214 2.216-.813a21.65 21.65 0 0 0 3.785.782c.979.145 1.761.672 2.672.88 0-.974-2.672-1.309-3.195-2.173-.456-.912-.393-1.887-.196-2.798.129-.735 3.458-.845 4.5-.527.978.287.782 1.423 1.108 1.82.586.959 1.372 2.814 2.543 3.596.523.385.13 1.073.196 1.454.063.432-1.045.574-1.631.672-.393.094-.715.13-.715.141.067-.015.652-.062 1.305.067 1.501.303 2.154.287 2.413-.672 0-.35.067-1.615.652-1.965.523-.302 1.828-.302 2.543-.047.523.208 2.087.574 2.284.72-1.046-.559-1.895-1.424-3.848-1.25-1.242.098-2.087.176-3.132-.225-.327-.13-.393-.397-.456-.573-.13-.672-.523-.96-1.435-1.407-1.108-.559-.912-2.221.523-2.413.259-.016.393.03.523.098.585.318.715.593.782 1.006-.067.098 0 .192.067.287.326-.464 1.171-.574 1.76-.814.782-.287 2.02-.098 2.803.157 1.371.433 2.413 1.136 3.328 1.757-.522-.365-1.371-.99-1.568-1.375-.585-.928-2.806-.814-3.458-1.679-.26-.302.196-.849.849-.896.393-.031 3.454-.287 3.262-.353-.523-.385-1.238-.464-1.238-.96 0-.062 0-.16.129-.192.782-.24 1.368-.495 2.217-.782l-.028.016zM154.311 75.413c3.459-.24 5.546-1.407 6.131-3.18.26-.786.72-2.413-2.542-1.84 0 0-.782.193-1.042.162-.719-.032-.978-.271-1.694-.354.26.016-2.346.271-2.806.319-.393.015-.719-.177-.393-.366 1.501-.959.912-1.596 3.522-1.47 2.283.114.066 0 0-.334 0-.141.129-.48-.067-.574-.912-.412-.067-1.308 1.175-1.277 1.761.063 3.392.208 5.152-.079 1.238-.192 4.044-.275 5.22-.734-.26-.032-.72-.032-.849-.048-.26-.015-.393-.094-.456-.224 0-.4.652-.59 1.238-.786 1.497-.526 3.065-.208 4.567-.829.585-.24 2.279-.365 2.869-.464.978-.157 1.631.224 2.672.079 1.108-.161 3.911.098 2.15 1.022-.393.192 2.024-.511 2.739-.64.523-.127 1.238.306 1.502.51.978.735.192.255.978-.35.326-.287 1.175-.306 1.698-.16.456.129.782.207.912.27-.326-.141-.849-.448-.456-.735.652-.48 1.108-.48 2.087-.35 1.761.209 2.806-.526 4.37-.369 1.305.145 2.413.464 3.785.385.456-.016.912-.063 1.368-.047.585.016 1.108.031 1.501.271.13.063.196.193.13.271-.067.063-.13.126-.193.177-.067.095-.196.177-.393.189-.979.067-1.89.031-2.869.067-.849.016-4.433.381-2.48.365.393 0 .782 0 1.238-.016.782 0 1.564.146 2.346.048a34.72 34.72 0 0 1 1.761-.334c.849-.063.849-.114 1.564.078.26.079.26.271.13.385-.13.079-.196.13-.326.162h.196c.26-.032.586-.048.912-.08.653-.062 1.238 0 1.631.256.13.099.193.224.13.354-1.372 1.183-5.086.464-6.847.366-1.238-.063-2.998 0-.129.208.912.063.782.047 1.631.271.585.177 1.761.11 2.609.157.067.016.26.099.26.209.519-.11.782-.193 1.238-.224a56.45 56.45 0 0 1 3.262-.099c1.108 0 3.392.543 2.413 1.31-.782.608-2.087.333-3.195.573-.849.177-1.368.067-1.957-.016.129.098.259.193.389.322.129.095.066.256-.13.35-.456.193-1.046.224-1.568.209.133.098.067.224-.13.286.067 1.168-5.541 1.757-4.366 3.148.715.865-1.372.865-2.74.85.067.078 0 .157-.066.208-.134.126-.393.224-.523.302.13.063.259.158.259.287 0 .621-.523.704-1.305.877.393.334.523.703-.326.99-.259.11-1.631.031-1.761-.126.197.287.327.35.067.64-.522.559-2.024.913-3.132.865-.326-.03-.652-.302-.652-.479 0-.192-1.435.063-2.61.287.067.063.13.126.196.208.067.672.849.672 1.891.865 1.89.37-.456 1.84-1.171 2.205a2.885 2.885 0 0 1-1.828.224c.063.208-.13.432-.326.64-.586.496-2.346.928-3.132 1.246-.783.354-1.828.85-2.869 1.006-2.48.366-4.174-.177-6.002-.849-.912.877-2.936 2.11-4.5 1.997-2.216-.157-3.195.99-4.5.287-.326.161-.719.255-1.368.354-1.76.255-2.413.75-4.303.833-.13 0-.197-.016-.326-.051-1.502.224-1.631 1.198-2.677 1.694-.326.192-1.045.27-1.564.35-.259.03-2.543 1.26-2.806 1.599-.389.62-1.891.334-2.413.75-.782.641-2.61.865-3.915.865-.585-.016-.719-.385-.129-.51.849-.225.782-.303.978-.657-.393.51 1.891-1.886-.326-.59-.652.449-.979.621-2.02.527-.259-.016-.326-.224-.13-.354.653-.593-.849-.876-.782-1.407.063-.59.979-.64 1.501-1.167.586-.735 1.565-1.517 2.48-2.189.72-.495 2.02-.766.26-.798-.326 0-.393-.224-.134-.338.26-.126 1.372-.4 1.957-.609-.326-.047-.456-.177-.259-.35.586-.48.912-.75 1.824-1.022.522-.157 2.283-.177.719-.192-.393 0-.586-.256-.26-.429.653-.27.456-.208.979-.322 0-.063.063-.145.13-.208 1.305-.688 2.739-.157 4.37-1.053.652-.37.197-.688-.326-.99-.067.207 0 .431-.393.589-.26.192-.719.287-1.238.385-.263.063-.523.031-.653-.032-.196.099-.393.177-.652.146a1.079 1.079 0 0 1-.586-.24c-.259-.145-.129-.35-.259-.48-.196-.145-.389-.286-.389-.495.193-.255.715-.448 1.108-.542.716-.161 1.564-.177 2.154-.016.067-.224.652-.4.979-.208.848-.11 1.693-.224 2.672-.354-.393-.047-.393-.287-.192-.416.978-.527-1.502-.047-1.958-.016-.196.031-.585-.079-.585-.287.129-.193.196-1.041.978-1.104l-.004.004zM8.679 75.429c.196-.366.652-1.1 1.238-1.407.719-.354.522-.272 1.434-.417 1.372-.208.782.161.979-.4.13-.339 1.434-.877 2.02-.976 2.154-.322 4.307-.864 6.52-1.167 1.046-.145 1.76-.24 2.74-.208 1.045.05-.197.735 1.827.05 1.368-.463 3.065-.254 4.5-.53.26-.063.456-.125.845-.176.523-.048.196-.193-1.175-.448-.782.094-1.568.286-2.346.302-.72.031-1.435.063-1.569-.303-.26-.448 1.305-1.725 2.543-1.58.456.063 1.435-1.167 2.806-.797 1.502.35 4.044-.625 5.153-.047.326.145.067.334-.197.51-.912.578 1.305-.062 1.89 0 .457.048 1.306.543.98-.031 0-.047.066-.114.129-.161.586-.303-.849-.318-.393-.75.782-.689 1.957-.944 3.262-1.247 2.35-1.996 7.499-.656 10.501-1.823.197-.095.716-.177.912-.146 1.372.146 2.543-.015 3.981-.176 1.305-.162 1.761.062 2.803.208 1.175.16 1.694-.271 2.739-.495.197-.048.456-.048.523.047.326.287.13.574-.326.943-.85.75.719.063.978.031.197-.015.456-.015.456.079.197.271.197.562.393.849.13 0 .26.031.326.079.782.542 1.957 1.839 2.936 1.98.653.095 1.171.177 1.828.366.911.318-.26 1.214.585 1.49.782.24.519.396 1.828.14 1.108-.223 2.543-.463 3.521-.239.197.032.26.114.26.208.066-.16 5.085-.829 6.064-.463.067.047.067.126.067.208-.39.782-1.89.798-3.129.83-1.305.046-.26.062 0 .062.912.047 1.564-.047 2.413-.255.716-.193.716-.224 1.368-.146.326.047.326.511.652.464.72-.145 1.046-.24 1.631-.016.456.24.197.464-.259.672 2.346 0 3.718 1.2 4.63 2.22 1.041 1.054-1.564.944-2.547 1.33-.067.573 1.631.589 2.413.656.912.063 1.305 1.312 2.673.687.912-.4 1.497-.593 2.61-.542-.197-.016-.783-.318-.916-.495-.13-.079 0-.24.259-.256 1.175-.145 3.718-.385 3.521.543-.13.609 2.999 1.501 4.107 1.246.653-.158 1.109-.193 1.891-.158.133.016.259.079.196.158 0 .302-.652 1.151-1.108 1.36-1.824.766 3.132-.88 2.543-.704.912-.303 2.609-.574 3.262-.943.782-.48 2.35-.59 2.35-1.423.063-.365.063-.61.519-.943.196-.209 1.368-.495 1.89-.511.13-.016.26 0 .26.063.522.558.652.141 1.434-.256.523-.27 1.828-.609 2.673-.766.129-.016.259.016.196.063.326.318.326.224-.067.574-.393.448-.652.927-.978 1.375-.523.574-2.74.849-2.48 1.277.067.193-1.761 1.007-1.761 1.073-.456.782 1.894-.51 2.806-.432.13 0 .197.031.197.063.067.302-.067.495-.389.798-.067.098-.26.177-.26.24-.259.11-.522.224-.782.318.13.141.197.287.389.416.912-.385 1.828-.448 2.74-.927a15.66 15.66 0 0 1 1.631-.75c1.108-.496 3.258-.543 3.521.239.456.818-2.217 1.454-2.802 2.11a.568.568 0 0 1-.263.08c-.067.416-.39.687-1.435.844-1.368.224-2.999.896-4.303.656-.849-.145-2.284-.558-3.263-.145-1.371.605-2.413.688-3.847.385.585.11-.326 1.152-1.175 1.313-2.869.464-5.672 1.006-8.544 1.564-1.565.338-1.238-.558-3.325.735-.26.145-.523.271-.782.385-.85.319-1.761.64-2.673.849-2.217.495-4.107.928-5.935 1.84-.585.286-1.108.353-1.827.479.13.558 1.371.896.067 1.58-1.238.656 1.501.463 2.087.656.389.142.652.527.652.798-.063.542-.389 1.596 1.108 1.725.586.047 1.305.047 1.89.142.327.047.783.114.85.255.522.735-2.543 2.11-3.133 2.527-.522.334-3.78 2.523-1.041 2.638.393.015 1.041-.512 1.368-.688.719-.433.782-.975 1.564-1.439 1.305-.703 1.434-1.261 2.346-1.965.326-.29 1.175-.37 1.76-.4 2.154-.095 1.632-.559 3.066-.913 1.435-.35 2.936-.192 3.848-.99a16.627 16.627 0 0 0 1.957-2.047c.456-.594 1.238-.85 2.28-1.136 2.609-.688 1.827-1.502 3.325-1.918 1.304-.37 2.542-1.824 4.24-1.663.456.047 1.046.079 1.175.334.327.543 1.368.37 2.284.464 1.501.157-.13 1.486.912 1.549.911.047 1.371.27.719.735-.912.609-1.238 1.151-2.154 1.63-2.217 1.054-1.434.574-.782.814.523.114.523.287.456.511-.26.625 4.044-1.006 4.696-1.34.849-.433 1.895-1.006 3.066-.88.067 0 .13.015.13.03h.066c.197.048.197.178.067.256-.067.558-1.238 1.517-1.045 1.631.259.13.393.448-.197.574-.782.224-.063 1.309-1.041 1.792-1.175.669-2.154.72-2.346 1.997-.067.448-.523.656.652.562.13-.016.196.016.259.078.327.319.456.559.72.912.062.047.062.11-.067.157-.393.24-2.61.735-1.761.578.849-.145 1.497-.275 2.154-.13 1.497.335 0 1.215-.523 1.631-.782.735-1.564.995-2.869 1.262.916.11 1.242.448.782.928-.259.224-3.718.943-2.869 1.104.349.073.609.197.782.369.067.162 1.042.209 1.498.287.849.146 0 .865 0 1.152.066.094 0 .24-.063.303-.523.271.192.463.326.734.326.366-.719.59-1.108.83-.916.688-2.74.208-3.066-.271 0-.063.067-.126.067-.177-.393.192-3.459.719-2.936 0 .326-.271 1.108-.688-.067-.574a6.675 6.675 0 0 1-1.371 0c-.653-.063-1.627-.271-1.761-.621-.259-.464 1.108-.641 1.564-.99.523-.574 1.435-.527 2.02-.975.653-.574 2.087-.849 3.066-1.344.192-.095.389-.193.715-.271-2.48.51-4.956.99-7.628.864-.653-.031-1.238-.047-1.828-.208-1.368-.366-2.672-.063-4.174.189-.067.015-.13.031-.192.047 1.238-.079 2.149.078 1.957.687 0 .063-.13.126-.263.162-.52.145-.456.463-.912.656-.586.255-1.109.401-1.828.574-.13.031-.326.063-.522.098.066.098-.067.224-.26.255-.063.016-.196.032-.26.048-.455.719-3.391 2.252.457 2.157 1.045-.015 1.564-.015 1.89.464.26.271-.586.672-1.108.751-2.15.302-5.609.574-7.629 1.198-.652.209-3.588.606-2.61-.302.523-.511 1.699-.991 2.74-1.215-1.041.048-.849-.334-1.694.224-.393.224-1.175.386-1.698.303-1.564-.224-2.283.224-3.521.625-2.61.896-.456-.193-3.522 1.694.13-.098-.522.338-.719.401-.652.177-1.108.353-1.957.334-.653-.016-4.304.015-2.61.094.523.032.523.016.782.224-.066.047 0 .11-.066.177-.912.511-2.024.735-3.325.656-1.238-.082-1.565.735-2.543 1.054-.197.062-.326.078-.39.047-1.76.479-2.868 1.246-4.5 1.725a.79.79 0 0 1-.652-.11c-.26-.287-1.76-.562-.585-.24.26.047.26.146.196.256-.782.766-4.107 1.438-2.74 2.22.068.063.068.177-.196.224-1.76.527-3.588.782-5.282 1.454-1.953.751-4.303 1.423-6.52 2.001-6.783 1.757-5.349 5.05-9.197 7.64-.259.13-.585.146-.782.11-.978.354-.652.37-1.63.574-.13.047-.39.047-.456-.047-.586-.829-.393-1.663-.264-2.606-.063-.302-.13-.605.393-.912 1.175-.542 1.502-1.167 1.238-1.902-.13-.145-.393-.287-.456-.432-.719.24-1.63.432-2.216.161.585.271-4.241-2.111-4.827-.656-.652 1.277-3.521 1.277-5.018.849-1.238-.35-3.915-.189-5.546-.527-.585-.126-6.783 1.949-7.043 2.095-1.304.766-1.304 1.902-2.936 2.574-2.153.896-4.044 2.283-5.608 3.439-1.175.927-.782 2.397-1.434 3.419-.456.656 1.175 1.757 2.869 1.246.719-.224 1.5-.208 2.283-.287 2.48-.224 4.433-1.647 6.26-2.382 2.088-.829 6.78-1.359 8.478-.672.13.083.193.177.067.287-.456.48-.979.543-1.89.959-1.761.829-3.133 1.678-4.241 2.637-.849.72-3.521.543-4.826.751-.264.287-.326.927-.456 1.136-.393.912 2.153.864 3.521.817 1.694-.067 3.066-.078 4.5.256 3.392.798-2.087 3.58-2.936 4.555-1.694 2.047-.389 3.804 5.153 2.731 1.108-.22 1.89-.078 2.672.161.716.224 1.109 2.048 3 1.215 1.827-.751 2.282-1.788 4.043-2.492.193-.063.456-.063.586-.047.13.031.326.047.519.063.13.031.259.11.196.177 0-.417 4.76-1.152 4.76-1.152.978-.24 1.827-.511 2.61-.224.129.047.196.146.066.224-.586.511-1.957.621-2.02 1.132-.067.208-.456.448-.782.609-1.435.751.26.975.916.161.392-.444.848-.943 2.153-.974 1.435-.048 1.171-.928 2.413-1.089.197-.031.456-.016.586.063.652.656.979 1.12 2.869 1.293 1.108.098 1.76.401 2.932.479 2.02.162 4.893-.511 6.587-.015 0 0 .067 0 .067.015 0 .016.13.048.196.063.067.047.067.099.067.161 0 .016 0 .048-.067.079-.326.369.523.271.72.401.066.016.13.031.196.063.067-.256-.197-.511.26-.767.196-.129.585-.255.915-.255.063 0 .197.016.326.016a.785.785 0 0 1 .586.063c.456.286.326.766-.26 1.088-.326.189-.719.271-1.175.271.523.417.782.908 1.761 1.152 2.48.593 3.325 1.662 4.174 2.814 0 .016 0 .031.067.031 1.304.319 3.325-.365 4.696-.255 1.694.145 3.129.479 3.978 1.12 1.108.798 1.434 1.725 2.02 2.637.456.684.782 1.23.522 1.981-.13.322-1.041.786-1.564.975-.523.176-2.672 1.328-.652.672 1.175-.385 2.154-.496 3.521-.448.912.015 1.305.353 1.502.672.062.448 1.827-.177 2.542-.177 1.958.031 4.37 1.104 4.697 1.918-.13-.401-.849 1.981.978.75.13-.125.586-.448.85-.526.476-.097.911-.092 1.304.015 2.154.543 3.848.319 6.131.559 1.761.172 2.22.573 3.392 1.084 1.238.527 2.413.865 4.107.991.326.015.652.063.849.141.586.256.326 1.183.586 1.407.066.079-.067.157-.13.22.067.37.523.625.326 1.057-.196.527-.389 1.183-.782 1.694-.519.511-1.108.944-2.087 1.345-2.283.911-2.154 1.469-3.392 2.476-1.108.927-3.262 2.11-2.283 3.1.523.37.849.751.912 1.183 0 .704-.456 1.231-1.761 1.679-.979.526.067 1.375-.586 1.98-.652.672-2.543 1.058-3.262 1.836-.326.385-.652.829-1.76.99-3 .417-5.35.688-7.629 1.757-3.458 1.615-3.065 2.382-2.74 4.06.13.735-1.697 1.438-1.827 2.189-.26.845.653 2.334-1.957 2.861-.26.063-.585.016-.72-.067-.258-.204.068-1.037-.062-1.179-2.61.495 0 3.243-3.262 4.025-1.305.306-2.48.511-3.977.558-1.828.067-1.109.322-.393.625 2.672 1.132.585 4.04-4.045 4.394-1.694.11-.911.031-2.739.125-.456.016-2.48-.015-1.501.209.849.157.192.621 1.238.849 1.045.255-.456.845-1.046 1.037-1.041.303-2.216.13-3.195.208-.26.016 1.631.735 1.631.834.456.448 1.175.255 1.372.683.13.496-.586 1.089-.72 1.616.13.031.197.063.197.094.326.303.912.609.653.975-.327.401-3.325 1.808-1.628 2.11 1.238.224 2.217.303 3.589.24.389-.016.849.063 1.041.161 1.042.35.782 1.23.13 1.71-.979.719-1.305 1.183-.85 1.949.134.146-.192.354-.325.448-.782.527-1.175-.224-.72.448.26.401 2.154.126 2.543.672.586.877.979.908-.849 1.757-.196.11-.393.204-.456.303a6.156 6.156 0 0 1 1.239-.578c.978-.318 2.086-.189 2.739.063.196-.016.456-.016.585.067.979.463 1.502 1.006 2.936 1.324 1.238.287 2.346.318 3.718.48 1.435.157.845.605-.326.829-.979.208-2.413.047-3.392.031-1.305-.015-2.672-.031-3.977.048-.586.047-2.676.224-2.676-.193-.067-.448 3.328-.48 1.76-.668-.782-.095-1.045-.24-1.367-.511-.13-.126-.98-.193-1.435-.287 0 .208.067.432-.193.672-.066.079-.259.11-.455.11-2.61-.063-1.239-1.772-4.697-1.277-.586.094-2.284-.063-2.543-.271-.456-.37-.456-.323-.393-.72.26-.829-2.48-1.391-3.914-1.788-.85-.24-.72-.688-.523-1.053.197-.562-.979-.047-1.76-.079-.26-.015-.523-.114-.783-.271.067.063-.067.126-.26.157-.325.083-.911.099-.911-.078v-.016c-.197-.032-.197-.11-.197-.177-.393.016-.978-.047-1.175-.114-.393-.094-.845-.255-.782-.464.067-.208.653-.381 1.242-.381.979 0 1.238.417 1.108.719v.063a.782.782 0 0 1 .327.016c.196.016.393.047.522.098-.389-.338-.585-.766-.522-.927 0-.063.133-.11.393-.142 1.957-.224-.716-.416-.912-.817-.326-.767-1.698.063-2.936.161-.326.035-.393 0-.586-.063-.782-.464-.585-1.183 0-1.757.13-.078.394-.157.653-.145 1.305.063 1.827-.11 2.154-.48-.067-.015-.067-.051.066-.078.393-.448-2.672-1.486-2.869-2.028-.13-.354-.978-2.303-2.61-1.792-.129.047-.325.066-.518.047-1.828-.334-2.154-1.136-2.283-1.887-.13-1.006-.394-1.918-1.698-2.778-.523-.287-.523-.735-.523-1.089 0-.896-.782-1.902-.13-2.83.456-.609.653-1.12.456-1.694-.13-.338-.523-.927-.26-1.34-.388-.24-.911-.53-.978-.833-.26-.766.456-2.044-.326-2.684-1.305-.991-.26-2.861-.13-4.009 0-.975.067-1.934-.522-2.846-.327-.432-.782-.896-.845-1.359-.067-1.12 1.238-2.7-.782-3.534-.586-.255-.85-.416-.98-.75-2.282-.672-4.432-1.325-7.109-1.824-1.367-.255-2.932-.542-3.325-1.183-.719-1.199-1.238-2.319-3.065-3.274-1.108-.577-1.046-.849-.912-1.584.393-1.23-.849-1.006-1.045-1.886-.13-.464-.13-1.057-.52-1.438-.652-.688-2.609-.959-3.324-1.553-.586-.495.72-1.454.72-2.012-.068-.672.129-.912 1.563-1.407l.067-.016c1.108-.495 2.543-.943 1.042-1.1-1.109-.099-1.176-.448-1.368-.881-.13-.672 1.63-1.886 2.413-2.444 1.175-.786 3.848-1.792 5.479-2.449 1.045-.444 2.672-1.022 2.806-1.646.067-.079-.13-.335.13-.464 0-.016 1.045-1.788.978-1.82.067-.558.197-.782-.067-1.391-.067-.13-.196-.256-.13-.401-.522-1.038-1.434-1.085-2.609-.11.13.126-.13.369-.197.464-.066.078-.13.157-.393.177-1.694.334-2.02-.319-2.672-.802-.067 0-.13-.016-.197-.016-1.76-.224-3.132-1.053-3.65-1.761-.457-.75-.26-.495-1.109.016-.134.079-.326.13-.523.13-.912 0-1.564-.24-1.367-.704.715-1.324 1.434-2.252-.197-3.325-1.631-1.104-5.023-1.631-6.52-2.908-.849-.814.196-1.902-4.044-1.533-.586.063-1.76.193-2.347.099-2.413-.386-4.303-1.199-5.867-1.981-1.368-.657-5.412-1.95-3.978-3.357-.13-.401-.259-.86.393-1.293.912-.593 1.824-1.022 1.824-1.725 0-.385.393-.704.72-1.085.848-1.088.585-1.662-.264-2.444-.26-.303-.912-.688-.979-1.038 0-.578.523-1.328.782-1.886.327-.688.193-1.199.13-1.836-.13-.609.979-1.344 1.631-1.933.782-.83-1.305-.782-1.63.031-.13.369-.327.719-.457 1.073-.782 1.71-1.501 3.404-2.543 5.113-.456.814-.196 2.252-2.413 2.779-1.108.271-1.238-.59-1.434-.814-.85-1.151.063-2.303 1.108-3.627.067-.767-1.175-1.038-.72-1.804.13-.161.586-.334.85-.433 2.74-.927 2.02-1.552 2.153-2.444.13-.511 2.087-2.158 2.154-2.268.26-.562.523-1.104.72-1.662.326-.928-.067-1.262-.912-1.969-.197-.095-.197-.24-.197-.385.197-.653.586-1.168 1.564-1.789 1.761-1.037.456-1.454 1.502-2.334.585-.417.978-.547 1.823-.657.326-.047.586-.176.653-.318 0-.016-.067-.031.063-.063 0-.126.133-.224.393-.334 1.693-.817 1.76-1.615 3.128-2.382 2.024-1.198 4.303-2.255 6.783-3.23 1.761-.688 3.066-1.439 4.5-2.22 1.435-.72 3.325-1.278 4.697-1.919 1.564-.624 2.74-1.76 4.37-2.224.26-.047.456-.032.586.031.26.209.26.303.067.625.13-.177-1.175.865-.653.704 1.175-.382 2.936-.688 3.459-1.392.389-.432.26-.365.782-.589 0-.016-.063-.047 0-.079-.13.146 1.175-2.511 1.372-2.397-.456-.224.326-.511-.586-.255a.754.754 0 0 1-.456-.016c-1.434-.865 3.133-2.256 4.24-3.164.586-.464.653-.354.72-.912.067-.24.326-.448.652-.652.72-.48 1.368-.786 2.347-1.136.067-.047.196-.177.13-.334-.13.126-.456.255-.72.302-.456.099-.978.032-.978-.24.13-.223.719-.431 1.175-.494.067 0 .067-.016.13-.016.259-.063.455-.047.652.016 0-.177 0-.335.067-.433.063-.16.393-.353.715-.448 1.108-.432 1.631-1.104 2.74-1.532.978-.433 1.045-1.09 1.89-1.502-.327.11-.586.224-.912.24-.26 0-.586-.256-1.046-.126-.196.11-.652.126-.911.11-.979-.031-.716-.688-.456-1.037 0-.048.13-.099.196-.13.39-.511.979-1.215 2.02-1.47 0 0 .067-.016.13-.016-.456.047-.782.063-.979.016-.393-.11-2.476-.208-2.542-.605-.067-.161-1.042-1.022-.586-1.392.652-.558-.134-.098-.652-.27-.72-.209-2.154.88-3.33 1.04-.652.08-1.823.272-2.086-.113.067.114-4.304.13-4.63.114-.196-.016-.13-.177.067-.24 3.459-.943 6.913-2.11 10.372-1.902-1.958-.11-3.392-.256-5.546.448-1.305.4-2.35.703-3.718.896-2.543.381-3.195.72-4.956 1.325 0 0-.13.015-.26.047.13.015.394.047.457.063.13-.016.13-.032.196-.032.456-.016.912.031 1.046.224.196.157.066.334-.26.495-.652.287-1.238.11-1.76.032-.327-.032-.653-.032-.845-.157-.13-.08-.067-.24 0-.366-.197.063-.523.13-.783.173.586.067 1.239.578.327.928-.197.098-.586.11-.85.11-.522.03-.911.208-1.5.334a2.917 2.917 0 0 1-.72.11c-.522.015-.912.16-1.497.224-1.372.177-1.435-.657-.26-1.073.783-.24 1.502-.433 2.087-.511 0 0-.13 0-.196.016-1.175.078-2.154.396-3.329.479-2.02.145-4.107.88-6.131.975-1.828.094-3.325.224-5.023.114-1.501-.079-3.065.687-4.37.432-.067-.032-.13-.098-.067-.157.523-.594 1.372-.798 2.413-.99 1.957-.303 4.111-.225 5.935-.335 2.154-.13 4.107-.782 6.127-1.088 1.175-.177.912.114 2.48-.334.652-.24.523-.209 1.305-.209.066 0 .13.016.066.032.912-.079 2.807-.798 1.239-.688-.653.063-1.239.177-1.828.334-.197.051-.456.02-.393-.094.26-.798-.72-.735-1.828-.896 0-.016-.13-.063-.066-.11.326-.559 2.024-.704 2.935-.96.586-.157 1.238-.318 1.698-.526-.326-.287-.786-.287-1.371-.016-.327.079-.586.161-.72.24-.518.145-.782.126-1.108.063-.196-.016-.26-.063-.196-.161l-.004.008z" fill="#CCE0FF"/><rect x="52" y="96" width="101" height="54" rx="4" fill="#fff"/><path d="M60.012 117.339h84.995v.824H60.012v-.824zM60.012 122.747h84.995v.824H60.012v-.824zM60.012 128.756h72.6v.824h-72.6v-.824z" fill="#D9D9D9"/><path d="m98.683 109.324.572-1.498h.418l-1.2 2.889h-.418l.398-.956-.77-1.933h.45l.55 1.498zM95.651 108.807c0-.614.398-1.013.959-1.013.478 0 .79.239.9.653h-.436c-.067-.189-.223-.311-.465-.311-.326 0-.542.243-.542.671 0 .431.216.674.543.674.24 0 .39-.107.464-.31h.437c-.11.385-.422.652-.901.652-.561 0-.959-.399-.959-1.016zM93.246 108.8c0-.607.408-1.006.923-1.006.33 0 .557.157.678.317v-.285h.407v1.965h-.407v-.292a.842.842 0 0 1-.685.324c-.508 0-.916-.417-.916-1.023zm1.6.007c0-.421-.287-.66-.592-.66-.302 0-.593.228-.593.653 0 .424.291.67.593.67.305 0 .593-.239.593-.663zM91.106 107.826h.433l.553 1.602.554-1.602h.43l-.746 1.965h-.483l-.741-1.965zM90.4 109.791v-1.965h.405v1.965h-.404zm.207-2.225a.257.257 0 0 1-.26-.261c0-.146.114-.26.26-.26.142 0 .255.114.255.26a.256.256 0 0 1-.255.261zM89.443 108.757v1.034h-.404v-1.965h.404v.285c.114-.196.31-.317.586-.317v.421h-.103c-.298 0-.483.125-.483.542zM87.038 108.115a.852.852 0 0 1 .682-.321c.514 0 .919.399.919 1.006 0 .606-.405 1.023-.92 1.023a.883.883 0 0 1-.68-.317v1.22h-.405v-2.9h.404v.289zm1.19.685c0-.425-.292-.653-.597-.653-.302 0-.593.239-.593.66 0 .424.291.663.593.663.305 0 .596-.246.596-.67zM84.755 108.757v1.034h-.404v-1.965h.404v.285c.114-.196.309-.317.586-.317v.421h-.103c-.298 0-.483.125-.483.542zM83.817 107.826v1.965h-.405v-.235a.725.725 0 0 1-.578.264c-.458 0-.806-.289-.806-.838v-1.156h.401v1.095c0 .36.195.546.49.546.298 0 .493-.186.493-.546v-1.095h.405zM81.646 108.807c0 .617-.455 1.016-1.015 1.016-.557 0-.98-.399-.98-1.016s.44-1.013.998-1.013c.557 0 .997.396.997 1.013zm-1.583 0c0 .446.263.663.568.663.301 0 .6-.217.6-.663 0-.446-.288-.66-.59-.66-.305 0-.578.214-.578.66zM78.488 109.324l.571-1.498h.419l-1.2 2.889h-.418l.397-.956-.77-1.933h.451l.55 1.498zM75.429 108.136c-.273 0-.493.186-.536.496h1.082c-.007-.303-.244-.496-.546-.496zm.916 1.07c-.11.343-.42.617-.898.617-.56 0-.976-.399-.976-1.016s.397-1.013.976-1.013c.557 0 .95.389.95.967 0 .067-.003.132-.013.199H74.89c.028.325.259.521.557.521.248 0 .387-.121.461-.275h.437zM74.072 107.826v1.965h-.405v-.235a.725.725 0 0 1-.578.264c-.458 0-.806-.289-.806-.838v-1.156h.401v1.095c0 .36.195.546.49.546.298 0 .493-.186.493-.546v-1.095h.405zM71.365 109.792v-2.64h.405v2.64h-.405zM68.826 108.8c0-.607.408-1.006.923-1.006.33 0 .557.157.678.317v-.285h.408v1.965h-.408v-.292a.842.842 0 0 1-.685.324c-.508 0-.916-.417-.916-1.023zm1.6.007c0-.421-.287-.66-.592-.66-.302 0-.593.228-.593.653 0 .424.291.67.593.67.305 0 .593-.239.593-.663zM66.686 107.826h.432l.554 1.602.554-1.602h.429l-.745 1.965h-.483l-.742-1.965zM64.628 108.136c-.273 0-.493.186-.536.496h1.082c-.007-.303-.244-.496-.546-.496zm.915 1.07c-.11.343-.418.617-.897.617-.56 0-.976-.399-.976-1.016s.397-1.013.976-1.013c.557 0 .95.389.95.967 0 .067-.003.132-.013.199h-1.494c.028.325.259.521.557.521.248 0 .386-.121.461-.275h.436zM60.76 109.795l-.7-2.483h.43l.51 2.019.554-2.019h.455l.514 2.009.515-2.009h.433l-.731 2.479h-.458l-.518-1.876-.55 1.876-.454.004z" fill="#3D3E50"/><path d="M112.242 140.634v-.915c0-.3-.162-.455-.408-.455-.248 0-.411.155-.411.455v.915h-.337v-1.638h.337v.188a.624.624 0 0 1 .485-.214c.381 0 .668.24.668.698v.966h-.334zM110.753 139.814c0 .514-.379.847-.846.847-.464 0-.816-.333-.816-.847s.366-.844.831-.844c.464 0 .831.33.831.844zm-1.319 0c0 .371.219.553.473.553.251 0 .5-.182.5-.553 0-.372-.24-.55-.491-.55-.254 0-.482.178-.482.55zM108.42 140.634v-1.637h.338v1.637h-.338zm.172-1.854a.214.214 0 0 1-.216-.217.214.214 0 1 1 .429 0 .213.213 0 0 1-.213.217zM107.374 140.18v-.907h-.192v-.276h.192v-.407h.34v.407h.396v.276h-.396v.907c0 .122.047.172.189.172h.207v.283h-.266c-.29 0-.47-.122-.47-.455zM105.204 139.808c0-.505.34-.838.769-.838.275 0 .464.131.565.264v-.238h.34v1.638h-.34v-.244a.7.7 0 0 1-.571.271c-.423 0-.763-.348-.763-.853zm1.334.006c0-.351-.24-.55-.494-.55-.251 0-.494.19-.494.544 0 .354.243.559.494.559.254 0 .494-.199.494-.553zM104.553 140.634v-.915c0-.3-.163-.455-.408-.455-.249 0-.411.155-.411.455v.915h-.335v-.915c0-.3-.162-.455-.408-.455-.248 0-.411.155-.411.455v.915h-.337v-1.638h.337v.188a.62.62 0 0 1 .482-.214c.258 0 .473.11.586.324.1-.199.331-.324.568-.324.381 0 .671.24.671.698v.966h-.334zM101.446 139.772v.862h-.338v-1.638h.338v.238a.53.53 0 0 1 .487-.264v.35h-.085c-.249 0-.402.104-.402.452zM100.775 139.814c0 .514-.378.847-.845.847-.465 0-.817-.333-.817-.847s.367-.844.832-.844c.464 0 .83.33.83.844zm-1.319 0c0 .371.22.553.474.553.251 0 .499-.182.499-.553 0-.372-.239-.55-.49-.55-.255 0-.482.178-.482.55zM98.282 140.634v-1.361h-.192v-.276h.192v-.116c0-.378.192-.541.618-.541v.282c-.207 0-.278.072-.278.259v.116h.302v.276h-.302v1.361h-.34zM97.477 140.634v-.915c0-.3-.163-.455-.409-.455-.248 0-.41.155-.41.455v.915h-.338v-1.638h.337v.188a.625.625 0 0 1 .485-.214c.382 0 .669.24.669.698v.966h-.335zM95.541 140.634v-2.066h.337v2.066h-.337zM93.993 140.634v-2.199h.337v2.199h-.337zM91.877 139.808c0-.505.34-.838.769-.838.275 0 .464.131.565.264v-.238h.34v1.638h-.34v-.244a.7.7 0 0 1-.571.271c-.423 0-.763-.348-.763-.853zm1.334.006c0-.351-.24-.55-.494-.55-.252 0-.494.19-.494.544 0 .354.242.559.494.559.254 0 .494-.199.494-.553zM91.225 140.634v-.915c0-.3-.163-.455-.408-.455-.249 0-.411.155-.411.455v.915h-.338v-1.638h.338v.188a.625.625 0 0 1 .484-.214c.382 0 .669.24.669.698v.966h-.334zM89.735 139.814c0 .514-.378.847-.846.847-.464 0-.816-.333-.816-.847s.367-.844.831-.844c.464 0 .831.33.831.844zm-1.319 0c0 .371.22.553.473.553.252 0 .5-.182.5-.553 0-.372-.24-.55-.49-.55-.255 0-.483.178-.483.55zM87.819 140.176c0 .277-.24.485-.624.485-.39 0-.666-.232-.68-.529h.349c.011.134.139.244.325.244.195 0 .299-.084.299-.197 0-.321-.947-.136-.947-.737 0-.261.243-.472.627-.472.37 0 .612.199.63.526h-.337c-.012-.143-.121-.241-.305-.241-.18 0-.275.074-.275.184 0 .33.92.146.938.737zM85.806 139.772v.862h-.337v-1.638h.337v.238a.53.53 0 0 1 .488-.264v.35h-.086c-.248 0-.402.104-.402.452zM84.33 139.255c-.228 0-.412.155-.447.413h.902c-.006-.252-.204-.413-.456-.413zm.762.892c-.091.285-.349.514-.748.514-.467 0-.813-.333-.813-.847s.331-.844.813-.844c.465 0 .793.324.793.805 0 .057-.003.11-.012.167H83.88a.45.45 0 0 0 .464.434c.207 0 .323-.101.385-.229h.363zM82.222 139.519h.373c.263 0 .38-.127.38-.335 0-.214-.117-.339-.38-.339h-.373v.674zm1.1-.335c0 .294-.192.612-.728.612h-.372v.838h-.337v-2.066h.71c.487 0 .727.28.727.616zM80.037 140.245l.476-1.248h.35l-1 2.408h-.35l.332-.797-.642-1.611h.376l.458 1.248zM76.788 140.634v-2.066h.364l.721 1.62.719-1.62h.36v2.066h-.336v-1.415l-.627 1.415h-.234l-.63-1.415v1.415h-.337zM75.24 140.634v-2.199h.337v2.199h-.337zM74.46 140.634v-2.199h.337v2.199h-.337zM73.32 139.255c-.227 0-.41.155-.446.413h.902c-.006-.252-.204-.413-.455-.413zm.764.892c-.092.285-.35.514-.748.514-.468 0-.814-.333-.814-.847s.332-.844.814-.844c.464 0 .792.324.792.805 0 .057-.003.11-.012.167h-1.245a.45.45 0 0 0 .465.434c.207 0 .322-.101.384-.229h.364zM72.237 140.049c0 .309-.251.606-.71.606-.41 0-.727-.226-.727-.591h.36c.015.169.134.306.367.306.237 0 .37-.128.37-.303 0-.5-1.091-.176-1.091-.936 0-.363.287-.589.707-.589.393 0 .67.208.7.562h-.372c-.012-.14-.133-.268-.346-.274-.195-.006-.346.089-.346.289 0 .466 1.088.175 1.088.93zM69.035 140.18v-.907h-.192v-.276h.192v-.407h.34v.407h.396v.276h-.396v.907c0 .122.047.172.19.172h.206v.283h-.266c-.29 0-.47-.122-.47-.455zM68.65 139.814c0 .514-.38.847-.847.847-.464 0-.816-.333-.816-.847s.367-.844.831-.844c.465 0 .831.33.831.844zm-1.32 0c0 .371.22.553.474.553.25 0 .5-.182.5-.553 0-.372-.24-.55-.492-.55-.254 0-.482.178-.482.55zM66.316 138.565h.337v2.069h-.337l-1.014-1.542v1.542h-.337v-2.069h.337l1.014 1.54v-1.54zM63.864 139.814c0 .514-.379.847-.846.847-.464 0-.816-.333-.816-.847s.367-.844.83-.844c.465 0 .832.33.832.844zm-1.32 0c0 .371.22.553.474.553.251 0 .5-.182.5-.553 0-.372-.24-.55-.491-.55-.254 0-.482.178-.482.55zM60.886 138.568c.66 0 1.091.402 1.091 1.041 0 .636-.431 1.025-1.09 1.025h-.672v-2.066h.671zm-.334 1.79h.334c.485 0 .745-.28.745-.749 0-.473-.26-.764-.745-.764h-.334v1.513z" fill="#248A5A"/><rect x="158" y="23" width="96" height="51.613" rx="3" fill="#fff"/><path d="M163.062 40.058h85.654v.83h-85.654v-.83zM163.062 45.509h85.654v.83h-85.654v-.83zM163.062 51.565h73.162v.831h-73.162v-.83z" fill="#D9D9D9"/><path fill-rule="evenodd" clip-rule="evenodd" d="M189.324 61.173h-25.981v7.472h25.981v-7.472zm-26.281-.3v8.072h26.581v-8.072h-26.581zM218.237 61.173h-25.981v7.472h25.981v-7.472zm-26.281-.3v8.072h26.581v-8.072h-26.581z" fill="#4682E3"/><path d="M220.869 60.873h27.98v8.072h-27.98v-8.072z" fill="#4682E3"/><path fill-rule="evenodd" clip-rule="evenodd" d="M248.249 61.473h-26.78v6.872h26.78v-6.872zm-27.38-.6v8.072h27.98v-8.072h-27.98z" fill="#4682E3"/><path d="m208.996 31.992.58-1.512h.425l-1.217 2.916h-.425l.403-.965-.782-1.951h.458l.558 1.512zM205.919 31.469c0-.62.403-1.023.972-1.023.486 0 .803.242.915.66h-.443c-.069-.192-.227-.314-.472-.314-.331 0-.551.245-.551.677 0 .436.22.68.551.68.245 0 .396-.107.472-.313h.443c-.112.39-.429.66-.915.66-.569 0-.972-.404-.972-1.027zM203.479 31.462c0-.612.414-1.016.936-1.016.335 0 .565.159.688.32v-.287h.414v1.984h-.414v-.295a.854.854 0 0 1-.695.327c-.515 0-.929-.421-.929-1.033zm1.624.007c0-.425-.292-.666-.602-.666-.306 0-.601.23-.601.659 0 .428.295.677.601.677.31 0 .602-.241.602-.67zM201.306 30.48h.439l.562 1.616.562-1.616h.435l-.756 1.984h-.49l-.752-1.984zM200.59 32.463V30.48h.411v1.984h-.411zm.209-2.247a.26.26 0 0 1-.263-.263.26.26 0 0 1 .263-.263c.144 0 .259.116.259.263a.259.259 0 0 1-.259.263zM199.62 31.419v1.044h-.411v-1.984h.411v.288c.115-.198.313-.32.594-.32v.424h-.105c-.302 0-.489.126-.489.548zM197.178 30.77a.865.865 0 0 1 .692-.324c.522 0 .932.404.932 1.016s-.41 1.033-.932 1.033a.898.898 0 0 1-.692-.32v1.231h-.41V30.48h.41v.291zm1.206.692c0-.429-.295-.66-.604-.66-.307 0-.602.242-.602.667 0 .429.295.67.602.67.309 0 .604-.249.604-.677zM193.246 32.464l-.619-1.984h.417l.415 1.595.421-1.596h.428l.404 1.589.41-1.588h.404l-.616 1.984h-.432l-.4-1.466-.4 1.466h-.432zM192.319 30.48v1.984h-.41v-.238a.74.74 0 0 1-.587.267c-.465 0-.818-.292-.818-.847V30.48h.407v1.105c0 .364.198.551.497.551.303 0 .501-.187.501-.551V30.48h.41zM188.656 32.463v-1.11c0-.363-.198-.55-.497-.55-.302 0-.5.187-.5.55v1.11h-.411v-1.984h.411v.227a.761.761 0 0 1 .59-.26c.465 0 .814.292.814.847v1.17h-.407zM185.861 30.792c-.277 0-.501.187-.544.5h1.099c-.008-.306-.249-.5-.555-.5zm.929 1.08c-.112.346-.425.623-.911.623-.569 0-.99-.403-.99-1.026s.403-1.023.99-1.023c.565 0 .965.393.965.976 0 .069-.003.133-.014.202h-1.516a.545.545 0 0 0 .565.526c.252 0 .393-.123.468-.278h.443zM184.054 31.419v1.044h-.411v-1.984h.411v.288c.115-.198.313-.32.594-.32v.424h-.104c-.303 0-.49.126-.49.548zM182.256 30.792c-.277 0-.5.187-.544.5h1.099c-.007-.306-.249-.5-.555-.5zm.929 1.08c-.111.346-.425.623-.911.623-.569 0-.99-.403-.99-1.026s.403-1.023.99-1.023c.566 0 .965.393.965.976 0 .069-.003.133-.014.202h-1.516a.546.546 0 0 0 .565.526c.252 0 .393-.123.468-.278h.443zM178.844 31.463c0-.613.414-1.016.94-1.016.259 0 .533.123.684.31v-.958h.414v2.665h-.414v-.3a.823.823 0 0 1-.688.332c-.522 0-.936-.421-.936-1.033zm1.624.007c0-.425-.292-.666-.602-.666-.306 0-.601.23-.601.659 0 .428.295.677.601.677.31 0 .602-.242.602-.67zM178.008 31.419v1.044h-.41v-1.984h.41v.288c.115-.198.313-.32.594-.32v.424h-.104c-.303 0-.49.126-.49.548zM175.021 31.462c0-.612.414-1.016.936-1.016.335 0 .565.159.688.32v-.287h.414v1.984h-.414v-.295a.854.854 0 0 1-.695.327c-.515 0-.929-.421-.929-1.033zm1.624.007c0-.425-.292-.666-.602-.666-.306 0-.601.23-.601.659 0 .428.295.677.601.677.31 0 .602-.241.602-.67zM172.58 31.462c0-.612.414-1.016.936-1.016.335 0 .566.159.688.32v-.287h.414v1.984h-.414v-.295a.854.854 0 0 1-.695.327c-.515 0-.929-.421-.929-1.033zm1.624.007c0-.425-.292-.666-.601-.666-.306 0-.602.23-.602.659 0 .428.296.677.602.677.309 0 .601-.241.601-.67zM170.13 32.464l-.619-1.984h.417l.415 1.595.421-1.596h.428l.404 1.589.41-1.588h.404l-.616 1.984h-.432l-.4-1.466-.4 1.466h-.432zM168.069 30.216a.26.26 0 0 1-.263-.263.26.26 0 0 1 .263-.263c.144 0 .259.116.259.263a.259.259 0 0 1-.259.263zm-.209.263h.411v2.373c0 .404-.216.555-.569.555h-.213v-.346h.141c.173 0 .23-.061.23-.209V30.48zM166.911 32.463V30.48h.41v1.984h-.41zm.208-2.247a.26.26 0 0 1-.262-.263.26.26 0 0 1 .262-.263.26.26 0 0 1 .26.263.26.26 0 0 1-.26.263zM163.821 32.467l-.71-2.506h.436l.519 2.038.561-2.038h.461l.523 2.027.522-2.027h.439l-.742 2.503h-.464l-.526-1.894-.558 1.894-.461.003z" fill="#3D3E50"/><path d="M182.191 65.949v-.74c0-.242-.132-.367-.332-.367-.201 0-.333.125-.333.368v.739h-.274v-1.323h.274v.151a.507.507 0 0 1 .393-.172c.31 0 .543.194.543.564v.78h-.271zM180.327 64.835c-.185 0-.334.125-.363.334h.733c-.005-.204-.166-.334-.37-.334zm.619.72c-.074.23-.283.415-.607.415-.38 0-.66-.268-.66-.684 0-.415.268-.681.66-.681.377 0 .643.261.643.65a.867.867 0 0 1-.009.135h-1.011c.019.218.175.35.377.35.168 0 .261-.082.312-.185h.295zM179.474 65.58c0 .222-.195.39-.507.39-.317 0-.54-.187-.552-.427h.283c.01.108.113.197.264.197.159 0 .243-.067.243-.158 0-.26-.768-.11-.768-.596 0-.211.197-.382.509-.382.3 0 .497.161.511.425h-.274c-.009-.115-.098-.194-.247-.194-.146 0-.223.06-.223.149 0 .266.746.118.761.595zM178.192 65.58c0 .222-.195.39-.507.39-.317 0-.54-.187-.552-.427h.283c.01.108.113.197.264.197.159 0 .243-.067.243-.158 0-.26-.768-.11-.768-.596 0-.211.196-.382.509-.382.3 0 .496.161.511.425h-.274c-.009-.115-.098-.194-.247-.194-.147 0-.223.06-.223.149 0 .266.746.118.761.595zM175.486 65.281c0-.408.276-.677.625-.677.223 0 .376.106.458.214v-.192h.276v1.323h-.276v-.197a.568.568 0 0 1-.463.219c-.344 0-.62-.281-.62-.69zm1.083.005c0-.283-.194-.444-.401-.444-.204 0-.401.154-.401.44 0 .285.197.45.401.45.207 0 .401-.16.401-.446zM174.225 64.82a.577.577 0 0 1 .461-.215c.348 0 .622.268.622.676 0 .409-.274.69-.622.69a.597.597 0 0 1-.461-.214v.82h-.274v-1.95h.274v.194zm.804.462c0-.286-.197-.44-.403-.44-.204 0-.401.161-.401.444 0 .286.197.447.401.447.206 0 .403-.166.403-.452zM173.33 65.949v-.74c0-.242-.132-.367-.331-.367-.202 0-.334.125-.334.368v.739h-.273v-1.323h.273v.151a.51.51 0 0 1 .394-.172c.31 0 .543.194.543.564v.78h-.272zM170.674 65.281c0-.408.276-.677.624-.677.223 0 .377.106.459.214v-.192h.276v1.323h-.276v-.197a.57.57 0 0 1-.464.219c-.343 0-.619-.281-.619-.69zm1.083.005c0-.283-.195-.444-.401-.444-.204 0-.401.154-.401.44 0 .285.197.45.401.45.206 0 .401-.16.401-.446zM170.217 65.95l-.12-.342h-.699l-.12.341h-.286l.598-1.67h.317l.598 1.67h-.288zm-.197-.565-.272-.775-.273.775h.545zM213.246 65.949v-.74c0-.242-.132-.367-.331-.367-.202 0-.334.125-.334.368v.739h-.273v-1.323h.273v.151a.51.51 0 0 1 .394-.172c.31 0 .543.194.543.564v.78h-.272zM211.384 64.835c-.185 0-.334.125-.363.334h.732c-.005-.204-.165-.334-.369-.334zm.619.72c-.074.23-.283.415-.607.415-.38 0-.661-.268-.661-.684 0-.415.269-.681.661-.681.376 0 .643.261.643.65a.76.76 0 0 1-.01.135h-1.01c.019.218.175.35.377.35.168 0 .261-.082.312-.185h.295zM210.539 64.626v.223l-.6.876h.6v.224h-.917v-.224l.603-.876h-.603v-.223h.917zM209.203 64.451a.173.173 0 0 1-.175-.175c0-.099.076-.175.175-.175.096 0 .173.076.173.175a.173.173 0 0 1-.173.175zm-.139.175h.273v1.582c0 .27-.144.37-.379.37h-.142v-.23h.094c.115 0 .154-.041.154-.14v-1.582zM208.431 65.95v-1.324h.273v1.323h-.273zm.139-1.499a.173.173 0 0 1-.175-.175c0-.099.076-.175.175-.175.096 0 .173.076.173.175a.173.173 0 0 1-.173.175zM206.706 65.949l-.413-1.323h.279l.276 1.063.281-1.063h.285l.269 1.059.274-1.059h.269l-.411 1.323h-.288l-.266-.977-.267.977h-.288zM205.686 65.95v-1.1h-.156v-.224h.156v-.093c0-.305.156-.437.501-.437v.228c-.168 0-.225.057-.225.209v.093h.245v.224h-.245v1.1h-.276zM203.934 65.281c0-.408.276-.677.624-.677.223 0 .377.106.458.214v-.192h.277v1.323h-.277v-.197a.568.568 0 0 1-.463.219c-.343 0-.619-.281-.619-.69zm1.082.005c0-.283-.194-.444-.4-.444-.205 0-.401.154-.401.44 0 .285.196.45.401.45.206 0 .4-.16.4-.446zM203.105 65.58c0 .222-.194.39-.506.39-.317 0-.54-.187-.552-.427h.283c.01.108.113.197.264.197.159 0 .243-.067.243-.158 0-.26-.769-.11-.769-.596 0-.211.197-.382.509-.382.3 0 .497.161.512.425h-.274c-.01-.115-.098-.194-.247-.194-.147 0-.224.06-.224.149 0 .266.747.118.761.595zM201.194 64.835c-.185 0-.334.125-.362.334h.732c-.005-.204-.166-.334-.37-.334zm.62.72c-.075.23-.284.415-.608.415-.379 0-.66-.268-.66-.684 0-.415.269-.681.66-.681.377 0 .644.261.644.65a.869.869 0 0 1-.01.135h-1.011c.019.218.175.35.377.35.168 0 .262-.082.312-.185h.296zM200.004 65.95v-1.777h.274v1.776h-.274zM199.371 65.95v-1.777h.274v1.776h-.274zM198.823 65.95l-.12-.342h-.699l-.12.341h-.285l.597-1.67h.317l.598 1.67h-.288zm-.197-.565-.271-.775-.274.775h.545z" fill="#1863DC"/><path d="M243.998 65.665c0 .223-.194.391-.506.391-.317 0-.541-.187-.553-.427h.284c.009.108.113.197.264.197.158 0 .242-.067.242-.158 0-.26-.768-.11-.768-.596 0-.211.197-.382.509-.382.3 0 .497.161.511.425h-.273c-.01-.115-.099-.194-.248-.194-.146 0-.223.06-.223.149 0 .266.747.117.761.595zM242.087 64.92c-.185 0-.334.126-.363.335h.732c-.004-.204-.165-.334-.369-.334zm.619.721c-.074.23-.283.415-.607.415-.38 0-.661-.268-.661-.684 0-.415.269-.682.661-.682.377 0 .643.262.643.651a.76.76 0 0 1-.01.135h-1.01c.019.218.175.35.377.35.168 0 .261-.082.312-.185h.295zM240.896 66.034v-1.776h.274v1.776h-.274zM240.264 66.034v-1.776h.273v1.776h-.273zM238.545 65.367c0-.409.276-.678.624-.678.223 0 .377.106.459.214v-.192h.276v1.323h-.276v-.197a.57.57 0 0 1-.464.218c-.343 0-.619-.28-.619-.689zm1.083.004c0-.283-.195-.444-.401-.444-.204 0-.401.154-.401.44 0 .285.197.45.401.45.206 0 .401-.16.401-.446zM237.365 65.339v.696h-.273v-1.323h.273v.192a.431.431 0 0 1 .396-.214v.284h-.069c-.202 0-.327.084-.327.365zM236.167 64.92c-.185 0-.334.126-.363.335h.733c-.005-.204-.166-.334-.37-.334zm.619.721c-.074.23-.283.415-.607.415-.379 0-.66-.268-.66-.684 0-.415.269-.682.66-.682.377 0 .643.262.643.651a.868.868 0 0 1-.009.135h-1.011c.019.218.175.35.377.35.168 0 .262-.082.312-.185h.295zM234.685 64.92c-.185 0-.334.126-.362.335h.732c-.005-.204-.166-.334-.37-.334zm.619.721c-.074.23-.283.415-.607.415-.379 0-.66-.268-.66-.684 0-.415.269-.682.66-.682.377 0 .643.262.643.651a.868.868 0 0 1-.009.135h-1.011c.019.218.175.35.377.35.168 0 .262-.082.312-.185h.295zM233.278 65.667v-.732h-.156v-.223h.156v-.33h.276v.33h.322v.223h-.322v.732c0 .099.039.14.154.14h.168v.227h-.216c-.235 0-.382-.098-.382-.367zM231.881 64.906a.577.577 0 0 1 .461-.217c.348 0 .622.27.622.678 0 .408-.274.688-.622.688a.6.6 0 0 1-.461-.213v.82h-.274v-1.95h.274v.194zm.804.46c0-.285-.196-.439-.403-.439-.204 0-.401.161-.401.444 0 .286.197.447.401.447.207 0 .403-.166.403-.451zM230.683 64.92c-.184 0-.333.125-.362.334h.732c-.005-.204-.166-.334-.37-.334zm.62.72c-.075.23-.284.415-.608.415-.379 0-.66-.268-.66-.684 0-.415.269-.681.66-.681.377 0 .644.261.644.65a.869.869 0 0 1-.01.135h-1.011c.02.218.176.35.377.35.168 0 .262-.082.312-.185h.296zM228.596 65.371c0-.413.269-.681.648-.681.324 0 .535.16.61.439h-.296c-.045-.127-.151-.21-.314-.21-.221 0-.367.164-.367.452 0 .29.146.454.367.454.163 0 .264-.072.314-.209h.296c-.075.26-.286.44-.61.44-.379 0-.648-.27-.648-.685zM227.156 65.371c0-.413.269-.681.648-.681.325 0 .536.16.61.439h-.295c-.046-.127-.151-.21-.315-.21-.22 0-.367.164-.367.452 0 .29.147.454.367.454.164 0 .265-.072.315-.209h.295c-.074.26-.285.44-.61.44-.379 0-.648-.27-.648-.685zM226.699 66.034l-.12-.34h-.699l-.12.34h-.285l.597-1.67h.317l.598 1.67h-.288zm-.197-.564-.271-.775-.274.775h.545z" fill="#fff"/><path fill-rule="evenodd" clip-rule="evenodd" d="M274 122.422a.33.33 0 0 1-.66 0V76.489h-11.703a.33.33 0 0 1 0-.66h12.032a.33.33 0 0 1 .33.33v46.264l.001-.001z" fill="#fff"/><g filter="url(#c)"><path fill-rule="evenodd" clip-rule="evenodd" d="M254.154 83.317c3.94 0 7.153-3.217 7.153-7.159 0-3.942-3.213-7.158-7.153-7.158-3.941 0-7.154 3.215-7.154 7.158 0 3.943 3.213 7.159 7.154 7.159z" fill="#fff"/></g><path fill-rule="evenodd" clip-rule="evenodd" d="M51.892 189.478a.393.393 0 0 1-.785 0v-31.074a.392.392 0 0 1 .785 0v31.074z" fill="#fff"/><g filter="url(#d)"><path fill-rule="evenodd" clip-rule="evenodd" d="M51.5 158.012c4.682 0 8.5-3.822 8.5-8.506S56.182 141 51.5 141c-4.68 0-8.5 3.822-8.5 8.506s3.818 8.506 8.5 8.506z" fill="#fff"/></g><path fill-rule="evenodd" clip-rule="evenodd" d="M55.15 90.59a.41.41 0 0 1-.41.41.41.41 0 0 1-.409-.41V58.162a.41.41 0 0 1 .819 0V90.59z" fill="#fff"/><path fill-rule="evenodd" clip-rule="evenodd" d="M54.741 57.753c4.886 0 8.87-3.988 8.87-8.876 0-4.889-3.984-8.877-8.87-8.877-4.885 0-8.87 3.988-8.87 8.877 0 4.888 3.984 8.876 8.87 8.876zM340.279 105.59c0 .225-.184.41-.409.41a.411.411 0 0 1-.409-.41V73.162a.41.41 0 0 1 .818 0v32.428zM339.871 72.753c4.885 0 8.87-3.988 8.87-8.876 0-4.889-3.985-8.877-8.87-8.877S331 58.988 331 63.877c0 4.888 3.984 8.876 8.871 8.876zM36.096 108.687c0 .172-.141.313-.313.313a.314.314 0 0 1-.313-.313V83.889a.313.313 0 0 1 .626 0v24.798z" fill="#fff"/><path fill-rule="evenodd" clip-rule="evenodd" d="M35.784 83.576c3.736 0 6.782-3.05 6.782-6.788 0-3.738-3.046-6.788-6.782-6.788S29 73.05 29 76.788c0 3.738 3.047 6.788 6.784 6.788zM224.763 160.565a.382.382 0 1 1-.763 0v-30.661c0-.211.17-.382.381-.382h9.23a.381.381 0 0 1 0 .764h-8.848v30.279z" fill="#fff"/><path fill-rule="evenodd" clip-rule="evenodd" d="M242.891 138.809c4.901 0 8.899-4 8.899-8.904 0-4.903-3.998-8.905-8.899-8.905-4.902 0-8.899 4-8.899 8.905 0 4.905 3.998 8.904 8.899 8.904z" fill="#fff"/><path d="m53.571 52.5-3.325-3.325.831-.831 2.494 2.493 5.352-5.352.831.832-6.183 6.183zM50.775 152.87l-2.85-2.85.713-.713 2.137 2.138 4.587-4.588.713.713-5.3 5.3zM252.775 79l-2.85-2.85.713-.713 2.137 2.138 4.588-4.588.712.713-5.3 5.3z" fill="#009262"/><path d="M246.144 132.481a.47.47 0 1 1-.664.664l-2.48-2.481-2.481 2.48a.468.468 0 0 1-.801-.332c0-.125.049-.244.137-.332l2.481-2.48-2.48-2.481a.471.471 0 0 1 .332-.802c.124 0 .244.05.332.138l2.48 2.481 2.481-2.482a.468.468 0 0 1 .801.332.468.468 0 0 1-.137.332L243.664 130l2.48 2.481zM343.144 66.48a.47.47 0 1 1-.664.665L340 64.664l-2.481 2.48a.469.469 0 1 1-.664-.664l2.481-2.48-2.48-2.481a.47.47 0 1 1 .664-.664l2.48 2.48 2.481-2.48a.469.469 0 1 1 .664.663L340.664 64l2.48 2.48zM38.428 78.985a.376.376 0 0 1-.53.531l-1.985-1.985-1.985 1.985a.375.375 0 0 1-.53-.532L35.381 77l-1.984-1.984a.375.375 0 1 1 .531-.532l1.984 1.985 1.985-1.985a.376.376 0 0 1 .531.531L36.444 77l1.984 1.985z" fill="#EC4A5E"/></g><defs><filter id="c" x="224" y="63" width="60.307" height="60.316" filterUnits="userSpaceOnUse" color-interpolation-filters="sRGB"><feFlood flood-opacity="0" result="BackgroundImageFix"/><feColorMatrix in="SourceAlpha" values="0 0 0 0 0 0 0 0 0 0 0 0 0 0 0 0 0 0 127 0" result="hardAlpha"/><feOffset dy="17"/><feGaussianBlur stdDeviation="11.5"/><feColorMatrix values="0 0 0 0 0 0 0 0 0 0 0 0 0 0 0 0 0 0 0.03 0"/><feBlend in2="BackgroundImageFix" result="effect1_dropShadow_5653_15062"/><feColorMatrix in="SourceAlpha" values="0 0 0 0 0 0 0 0 0 0 0 0 0 0 0 0 0 0 127 0" result="hardAlpha"/><feOffset dy="9"/><feGaussianBlur stdDeviation="5"/><feComposite in2="hardAlpha" operator="out"/><feColorMatrix values="0 0 0 0 0 0 0 0 0 0 0 0 0 0 0 0 0 0 0.02 0"/><feBlend in2="effect1_dropShadow_5653_15062" result="effect2_dropShadow_5653_15062"/><feColorMatrix in="SourceAlpha" values="0 0 0 0 0 0 0 0 0 0 0 0 0 0 0 0 0 0 127 0" result="hardAlpha"/><feOffset/><feGaussianBlur stdDeviation="2.5"/><feColorMatrix values="0 0 0 0 0 0 0 0 0 0 0 0 0 0 0 0 0 0 0.06 0"/><feBlend in2="effect2_dropShadow_5653_15062" result="effect3_dropShadow_5653_15062"/><feBlend in="SourceGraphic" in2="effect3_dropShadow_5653_15062" result="shape"/></filter><filter id="d" x="20" y="135" width="63" height="63.012" filterUnits="userSpaceOnUse" color-interpolation-filters="sRGB"><feFlood flood-opacity="0" result="BackgroundImageFix"/><feColorMatrix in="SourceAlpha" values="0 0 0 0 0 0 0 0 0 0 0 0 0 0 0 0 0 0 127 0" result="hardAlpha"/><feOffset dy="17"/><feGaussianBlur stdDeviation="11.5"/><feColorMatrix values="0 0 0 0 0 0 0 0 0 0 0 0 0 0 0 0 0 0 0.03 0"/><feBlend in2="BackgroundImageFix" result="effect1_dropShadow_5653_15062"/><feColorMatrix in="SourceAlpha" values="0 0 0 0 0 0 0 0 0 0 0 0 0 0 0 0 0 0 127 0" result="hardAlpha"/><feOffset dy="9"/><feGaussianBlur stdDeviation="5"/><feComposite in2="hardAlpha" operator="out"/><feColorMatrix values="0 0 0 0 0 0 0 0 0 0 0 0 0 0 0 0 0 0 0.02 0"/><feBlend in2="effect1_dropShadow_5653_15062" result="effect2_dropShadow_5653_15062"/><feColorMatrix in="SourceAlpha" values="0 0 0 0 0 0 0 0 0 0 0 0 0 0 0 0 0 0 127 0" result="hardAlpha"/><feOffset/><feGaussianBlur stdDeviation="2.5"/><feColorMatrix values="0 0 0 0 0 0 0 0 0 0 0 0 0 0 0 0 0 0 0.06 0"/><feBlend in2="effect2_dropShadow_5653_15062" result="effect3_dropShadow_5653_15062"/><feBlend in="SourceGraphic" in2="effect3_dropShadow_5653_15062" result="shape"/></filter><linearGradient id="b" x1="828.576" y1="-199.735" x2="250.122" y2="515.022" gradientUnits="userSpaceOnUse"><stop stop-color="#1863DC"/><stop offset="1" stop-color="#D1E0F8"/></linearGradient><clipPath id="a"><rect width="379" height="226" rx="8" fill="#fff"/></clipPath></defs></svg>