<svg width="379" height="226" fill="none" xmlns="http://www.w3.org/2000/svg"><g clip-path="url(#a)"><rect width="379" height="226" rx="8" fill="url(#b)"/><g filter="url(#c)"><path d="M302.713 52H75.362C72.952 52 71 54.093 71 56.675v132.65c0 2.582 1.953 4.675 4.362 4.675h227.351c2.409 0 4.362-2.093 4.362-4.675V56.675c0-2.582-1.953-4.675-4.362-4.675z" fill="#fff"/></g><g filter="url(#d)"><rect x="240.863" y="14" width="56" height="55" rx="8" fill="#fff" shape-rendering="crispEdges"/><path fill-rule="evenodd" clip-rule="evenodd" d="m271.168 21.522 14.379 7.988c1.552.862 2.434 2.38 2.45 4.105v16.213c0 1.726-.883 3.243-2.435 4.106l-14.378 8.002c-1.552.863-3.317.863-4.869 0l-14.151-8.002c-1.552-.863-2.434-2.38-2.434-4.106V33.615c0-1.725.882-3.243 2.434-4.105l14.136-7.988c1.551-.863 3.316-.863 4.868 0zm11.503 29.824c1.111-.64 1.552-1.503 1.552-2.589V34.701c0-1.071-.441-1.934-1.552-2.588l-12.385-6.917c-.883-.654-1.993-.654-2.876 0l-12.385 6.917c-1.111.64-1.552 1.502-1.552 2.588v14.056c0 1.071.441 1.934 1.552 2.589l12.385 6.916a3.357 3.357 0 0 0 2.876 0l12.385-6.916zm-12.736-20.542c1.157.565 1.659 1.904 1.202 3.05l3.059 2.156c.243-.253.548-.417.882-.506l.259-2.008c-.928-.535-1.293-1.71-.791-2.662.018-.03.033-.06.049-.088a.904.904 0 0 1 .072-.12l-4.305-2.41a1.865 1.865 0 0 1-.99.803l.092 1.606c.152.045.319.105.471.179zm-2.022-1.845.091 1.71a2.526 2.526 0 0 0-1.247.953l-3.622-1.041 4.017-2.246c.183.252.441.476.761.624zm2.342 16.481a3.647 3.647 0 0 1-.563-.357l-3.879 2.559c.121.49.06 1.041-.198 1.532-.076.134-.152.267-.259.387l2.952 4.358c.106-.03.213-.06.319-.075l1.72-8.33c-.009-.017-.028-.029-.049-.042a.253.253 0 0 1-.043-.032zm3.425-8.032-3.454-2.44a.018.018 0 0 0-.015.008c-.004.004-.008.008-.016.008l1.37 4.938c.365 0 .73.06 1.095.193l1.309-1.874a1.757 1.757 0 0 1-.289-.833zm-9.069 8.716a2.31 2.31 0 0 0-1.978-.059l-1.248-1.458c.259-.699.015-1.472-.593-1.889l.669-3.852c.213-.06.411-.149.594-.268l6.694 3.48a2.788 2.788 0 0 0 .107 1.86l-3.789 2.484a2.402 2.402 0 0 0-.456-.297zm2.479-11.393-4.321 2.439v.164l6.695 3.495c.213-.208.441-.387.699-.52l-1.354-4.894c-.38 0-.761-.09-1.11-.268a1.976 1.976 0 0 1-.609-.416zm13.071 10.724a2.011 2.011 0 0 0-.35-2.305l1.674-3.139h.152v7.78l-1.567-2.187c.031-.045.061-.09.091-.149zm-20.16-9.564-1.75-.907a1.848 1.848 0 0 0-.472-1.413l3.591-2.008 4.945 1.427c0 .164.031.328.061.491l-4.275 2.41a.87.87 0 0 0-.274-.178 1.752 1.752 0 0 0-1.826.178zm17.331.848 2.1.163c.03-.074.06-.148.091-.208a2.35 2.35 0 0 1 2.054-1.25c-.122-.669-.502-1.219-1.248-1.65l-2.084-1.16c0 .007-.004.014-.008.022-.004.007-.008.015-.008.022a2.09 2.09 0 0 1-1.475 1.086l-.259 1.948c.426.238.7.61.837 1.027zm-2.74 6.158a2.835 2.835 0 0 0-.73-1.949l1.308-1.889c.791.149 1.613-.193 2.009-.907l2.191.178c.137.446.395.848.76 1.145l-1.612 3.05a2.09 2.09 0 0 0-1.902.892l-2.024-.52zm3.21 3.584-1.384 1.92c.091.237.122.505.091.773l2.343 1.472 1.507-.848c.243-.148.441-.297.623-.46l-2.054-2.871c-.38.104-.76.104-1.126.014zm-6.969 8.628 3.834-4.596c.35.059.7-.015.989-.179l1.75 1.1-6.573 3.675zm-9.554-7.393c.046-.208.107-.401.213-.595l.046-.089-1.217-1.458c-.396.12-.853.105-1.248-.104a1.643 1.643 0 0 1-.913-1.517l-2.085-1.07v3.837c.35-.015.716.06 1.05.223.426.208.746.55.944.937l3.21-.164zm-1.263-9.163-.669 3.912c-.183.06-.335.134-.487.238l-2.785-1.413v-4.64a1.938 1.938 0 0 0 1.476-.402l1.78.922a1.64 1.64 0 0 0 .685 1.383zm2.496 11.603a2.274 2.274 0 0 1-1.035-1.027l-3.271.179a1.78 1.78 0 0 1-.152.386c-.056.122-.136.23-.207.328l-.022.03 9.251 5.16c.031-.118.076-.252.152-.371l-3.073-4.522a2.255 2.255 0 0 1-1.643-.163zm14.103-4.492-1.293 1.785a1.602 1.602 0 0 0-.456-.06l-1.294-2.35a2.79 2.79 0 0 0 .624-.759l2.084.536c.046.312.168.595.335.847zm-3.21 2.736c.046-.119.106-.238.183-.342l-1.309-2.38c-.152.03-.32.06-.472.075l-1.643 7.913 3.317-3.986c-.213-.372-.243-.833-.076-1.28z" fill="#54C891"/></g><path d="m224.157 44.507.011-.061a5.15 5.15 0 0 0 1.308-1.738 4.897 4.897 0 0 0 .475-2.085c0-.443-.067-.864-.201-1.263a2.913 2.913 0 0 0-.615-1.05l.011-.062h.66c.257.272.449.604.576.995.13.387.195.808.195 1.263 0 .495-.073.996-.218 1.503a5.488 5.488 0 0 1-.615 1.409 4.348 4.348 0 0 1-.927 1.09h-.66zM220.287 41.517c.068-.38.215-.72.442-1.023.231-.301.512-.536.844-.704a2.268 2.268 0 0 1 1.045-.257c.413 0 .764.103 1.051.308.29.2.475.488.553.86h-.766a.819.819 0 0 0-.346-.436c-.16-.1-.358-.15-.593-.15a1.55 1.55 0 0 0-.721.173c-.219.115-.406.28-.558.492-.15.212-.248.458-.297.737a2.236 2.236 0 0 0-.028.313c0 .336.101.602.302.8.201.197.47.295.805.295.235 0 .451-.048.648-.145.198-.1.363-.248.498-.441h.765c-.212.372-.497.66-.855.86a2.319 2.319 0 0 1-1.157.302c-.32 0-.607-.067-.86-.201a1.466 1.466 0 0 1-.593-.564 1.635 1.635 0 0 1-.212-.839c0-.119.011-.246.033-.38zM220.026 40.74a1.368 1.368 0 0 1-.76.99 1.865 1.865 0 0 1-.816.162h-.704l-.28 1.576h-.637l.688-3.884h1.341c.391 0 .687.087.888.263a.843.843 0 0 1 .302.676c0 .048-.007.121-.022.218zm-1.487.655c.242 0 .432-.058.57-.174a.752.752 0 0 0 .263-.48.84.84 0 0 0 .017-.162.442.442 0 0 0-.157-.364c-.1-.089-.255-.134-.464-.134h-.704l-.229 1.314h.704zM212.64 41.517c.068-.38.215-.72.442-1.023.231-.301.512-.536.844-.704a2.268 2.268 0 0 1 1.045-.257c.414 0 .764.103 1.051.308.29.2.475.488.553.86h-.766a.819.819 0 0 0-.346-.436c-.16-.1-.358-.15-.593-.15a1.55 1.55 0 0 0-.721.173c-.219.115-.406.28-.558.492a1.81 1.81 0 0 0-.297.737 2.236 2.236 0 0 0-.028.313c0 .336.101.602.302.8.201.197.47.295.805.295.346 0 .646-.096.9-.29.253-.197.432-.464.536-.8h-1.458l.089-.497h2.141l-.09.498c-.093.302-.25.58-.469.833-.22.253-.483.456-.788.609-.302.149-.623.223-.962.223-.32 0-.607-.067-.86-.201a1.466 1.466 0 0 1-.593-.564 1.635 1.635 0 0 1-.212-.839c0-.119.011-.246.033-.38zM211.003 44.507a2.59 2.59 0 0 1-.509-.938 4.062 4.062 0 0 1-.168-1.197 5.615 5.615 0 0 1 .878-3.006 4.38 4.38 0 0 1 1.011-1.118h.66l-.011.062c-.384.305-.721.67-1.012 1.095a5.37 5.37 0 0 0-.665 1.37 4.788 4.788 0 0 0-.235 1.463c0 .418.06.816.179 1.196.123.377.304.714.542 1.012l-.011.061h-.659zM207.976 39.332l-.732 4.136h-.637l.732-4.136h.637zM204.39 43.518c-.261 0-.49-.054-.687-.162a1.166 1.166 0 0 1-.464-.459 1.386 1.386 0 0 1-.162-.676 1.842 1.842 0 0 1 .911-1.632c.287-.167.605-.251.956-.251.26 0 .491.056.693.168.201.108.357.26.469.458a1.3 1.3 0 0 1 .173.676 1.872 1.872 0 0 1-.933 1.632 1.894 1.894 0 0 1-.956.246zm.078-.537c.213 0 .407-.06.582-.178.179-.123.318-.284.419-.481.1-.201.151-.416.151-.643 0-.257-.073-.454-.218-.592a.755.755 0 0 0-.548-.213.972.972 0 0 0-.581.185c-.168.12-.3.281-.397.486-.093.201-.14.417-.14.648 0 .25.067.444.202.582a.716.716 0 0 0 .53.206zM201.982 40.93c.127-.186.276-.331.447-.436.175-.104.369-.156.581-.156l-.117.66h-.162c-.246 0-.444.06-.593.184-.149.123-.253.335-.313.637l-.29 1.649h-.637l.542-3.08h.637l-.095.542zM199.712 42.613a1.084 1.084 0 0 0-.011.1c0 .079.024.137.073.174.048.033.128.05.24.05h.391l-.095.531h-.503c-.246 0-.434-.048-.564-.145-.131-.1-.196-.26-.196-.475 0-.082.008-.16.023-.235l.301-1.705h-.363l.089-.52h.369l.134-.765h.643l-.134.766h.743l-.089.52h-.749l-.302 1.704zM197.297 40.338c.324 0 .581.087.771.263.194.17.29.419.29.743 0 .082-.009.184-.027.307l-.325 1.817h-.631l.307-1.722c.015-.104.023-.179.023-.223 0-.205-.058-.362-.174-.47-.111-.108-.268-.162-.469-.162a.894.894 0 0 0-.615.224c-.164.145-.268.355-.313.631v-.017l-.307 1.739h-.637l.542-3.08h.637l-.062.358c.127-.127.276-.226.448-.296.175-.075.355-.112.542-.112zM192.973 43.518c-.261 0-.49-.054-.688-.162a1.173 1.173 0 0 1-.464-.459 1.386 1.386 0 0 1-.162-.676 1.842 1.842 0 0 1 .911-1.632 1.86 1.86 0 0 1 .956-.251c.261 0 .492.056.693.168.201.108.357.26.469.458.116.194.174.419.174.676a1.872 1.872 0 0 1-.934 1.632 1.89 1.89 0 0 1-.955.246zm.078-.537c.212 0 .406-.06.581-.178a1.27 1.27 0 0 0 .419-.481c.101-.201.151-.416.151-.643 0-.257-.073-.454-.218-.592a.753.753 0 0 0-.548-.213.974.974 0 0 0-.581.185c-.168.12-.3.281-.397.486a1.525 1.525 0 0 0-.139.648c0 .25.067.444.201.582a.72.72 0 0 0 .531.206zM187.437 41.517c.067-.38.214-.72.441-1.023.231-.301.512-.536.844-.704a2.268 2.268 0 0 1 1.045-.257c.414 0 .764.103 1.051.308.29.2.475.488.553.86h-.766a.814.814 0 0 0-.346-.436c-.16-.1-.358-.15-.592-.15a1.544 1.544 0 0 0-1.28.664 1.81 1.81 0 0 0-.297.738 2.216 2.216 0 0 0-.027.313c0 .336.1.602.301.8.202.197.47.295.805.295.235 0 .451-.048.648-.145.198-.1.364-.248.498-.441h.765c-.212.372-.497.66-.855.86a2.318 2.318 0 0 1-1.156.302 1.81 1.81 0 0 1-.861-.201 1.466 1.466 0 0 1-.593-.564 1.635 1.635 0 0 1-.212-.839c0-.119.011-.246.034-.38zM183.263 40.389l.453 2.347 1.313-2.347h.659l-2.682 4.526h-.66l.889-1.497-.682-3.03h.71zM179.085 41.925c.056-.317.168-.594.336-.833.171-.242.382-.428.631-.559.253-.13.527-.195.822-.195.372 0 .665.09.877.268.212.175.334.427.363.755h-.687a.582.582 0 0 0-.207-.358c-.108-.086-.255-.129-.441-.129a.915.915 0 0 0-.671.28c-.186.182-.309.44-.369.771-.018.12-.028.216-.028.29 0 .247.062.437.185.57.123.131.294.196.514.196a.867.867 0 0 0 .816-.486h.687a1.784 1.784 0 0 1-.637.749 1.7 1.7 0 0 1-.961.274c-.388 0-.695-.11-.922-.33-.228-.223-.341-.525-.341-.905 0-.116.011-.235.033-.358zM175.297 41.914a2.05 2.05 0 0 1 .335-.822c.172-.238.38-.422.626-.553a1.59 1.59 0 0 1 .771-.201c.243 0 .446.048.61.145.164.093.287.21.368.352l.079-.447h.642l-.542 3.08h-.642l.083-.459a1.625 1.625 0 0 1-.508.364 1.501 1.501 0 0 1-.66.145c-.231 0-.437-.052-.62-.157a1.131 1.131 0 0 1-.425-.441 1.43 1.43 0 0 1-.151-.665c0-.112.012-.226.034-.341zm2.52.011c.015-.07.023-.147.023-.23 0-.249-.075-.444-.224-.586a.742.742 0 0 0-.547-.218c-.164 0-.325.041-.481.123a1.242 1.242 0 0 0-.637.9c-.015.07-.023.147-.023.229 0 .253.073.455.218.604a.763.763 0 0 0 .554.218c.164 0 .324-.041.48-.123.157-.082.293-.202.408-.358.116-.16.192-.346.229-.559zM173.307 42.898l1.314-2.51h.687l-1.716 3.08h-.771l-.626-3.08h.682l.43 2.51zM171.481 39.98a.335.335 0 0 1-.246-.095.327.327 0 0 1-.095-.24c0-.13.049-.242.146-.336a.477.477 0 0 1 .34-.145.327.327 0 0 1 .336.335c0 .13-.049.244-.146.341a.467.467 0 0 1-.335.14zm.24.408-.542 3.08h-.637l.542-3.08h.637zM169.481 40.93c.127-.186.276-.331.447-.436.175-.104.369-.156.582-.156l-.118.66h-.162c-.246 0-.443.06-.592.184-.149.123-.254.335-.313.637l-.291 1.649h-.637l.542-3.08h.637l-.095.542zM168.27 40.74a1.36 1.36 0 0 1-.76.99c-.223.108-.495.162-.816.162h-.704l-.279 1.576h-.637l.687-3.884h1.341c.392 0 .688.087.889.263a.846.846 0 0 1 .302.676c0 .048-.008.121-.023.218zm-1.486.655c.242 0 .432-.058.57-.174a.752.752 0 0 0 .263-.48.836.836 0 0 0 .016-.162.444.444 0 0 0-.156-.364c-.101-.089-.255-.134-.464-.134h-.704l-.229 1.314h.704zM163.293 39.332l-.732 4.136h-.637l.732-4.136h.637zM158.199 41.914c.055-.31.167-.583.335-.822.171-.238.38-.422.626-.553a1.59 1.59 0 0 1 .771-.201c.242 0 .445.048.609.145.164.093.287.21.369.352l.078-.447h.643l-.542 3.08h-.643l.084-.459a1.63 1.63 0 0 1-.509.364 1.5 1.5 0 0 1-.659.145c-.231 0-.438-.052-.62-.157a1.124 1.124 0 0 1-.425-.441 1.418 1.418 0 0 1-.151-.665c0-.112.011-.226.034-.341zm2.52.011c.015-.07.022-.147.022-.23 0-.249-.074-.444-.223-.586a.743.743 0 0 0-.548-.218c-.164 0-.324.041-.48.123a1.133 1.133 0 0 0-.408.352 1.255 1.255 0 0 0-.23.548c-.014.07-.022.147-.022.229 0 .253.073.455.218.604a.762.762 0 0 0 .553.218c.164 0 .324-.041.481-.123.156-.082.292-.202.408-.358a1.34 1.34 0 0 0 .229-.559zM155.45 40.847c.134-.15.304-.27.509-.364.205-.097.423-.145.654-.145.238 0 .447.05.626.15.182.102.324.245.424.431.101.183.151.399.151.649a2.093 2.093 0 0 1-.374 1.18 1.859 1.859 0 0 1-.62.569 1.562 1.562 0 0 1-.766.201c-.239 0-.442-.047-.609-.14a.974.974 0 0 1-.38-.357l-.079.447h-.637l.732-4.136h.638l-.269 1.515zm1.683 1.067c.014-.07.022-.147.022-.23 0-.249-.075-.442-.224-.58a.758.758 0 0 0-.553-.213c-.16 0-.32.041-.481.123a1.206 1.206 0 0 0-.408.358c-.115.156-.191.34-.229.553-.015.071-.022.147-.022.23 0 .249.073.446.218.592a.76.76 0 0 0 .553.218c.164 0 .324-.041.481-.123a1.21 1.21 0 0 0 .413-.37 1.34 1.34 0 0 0 .23-.558zM152.132 43.518c-.261 0-.49-.054-.687-.162a1.166 1.166 0 0 1-.464-.459 1.386 1.386 0 0 1-.162-.676 1.842 1.842 0 0 1 .911-1.632c.287-.167.605-.251.955-.251.261 0 .492.056.693.168.202.108.358.26.47.458a1.3 1.3 0 0 1 .173.676 1.872 1.872 0 0 1-.933 1.632 1.894 1.894 0 0 1-.956.246zm.078-.537c.213 0 .407-.06.582-.178.178-.123.318-.284.419-.481.1-.201.151-.416.151-.643 0-.257-.073-.454-.218-.592a.755.755 0 0 0-.548-.213.972.972 0 0 0-.581.185c-.168.12-.3.281-.397.486-.093.201-.14.417-.14.648 0 .25.067.444.202.582a.716.716 0 0 0 .53.206zM150.681 39.332l-.733 4.136h-.637l.732-4.136h.638zM145.123 41.517c.067-.38.215-.72.442-1.023.231-.301.512-.536.844-.704a2.265 2.265 0 0 1 1.045-.257c.413 0 .764.103 1.051.308.29.2.475.488.553.86h-.766a.819.819 0 0 0-.346-.436c-.161-.1-.358-.15-.593-.15a1.55 1.55 0 0 0-.721.173 1.61 1.61 0 0 0-.559.492 1.81 1.81 0 0 0-.296.737 2.236 2.236 0 0 0-.028.313c0 .336.101.602.302.8.201.197.47.295.805.295.346 0 .646-.096.9-.29.253-.197.432-.464.536-.8h-1.458l.089-.497h2.14l-.089.498c-.093.302-.25.58-.469.833-.22.253-.483.456-.788.609-.302.149-.623.223-.962.223-.32 0-.607-.067-.86-.201a1.466 1.466 0 0 1-.593-.564 1.635 1.635 0 0 1-.212-.839c0-.119.011-.246.033-.38zM202.264 35.462a.5.5 0 0 1-.587-.394l-.868-4.416a.5.5 0 1 1 .981-.193l.771 3.925 3.925-.771a.5.5 0 1 1 .193.981l-4.415.868zm35.393-12.365c-3.35-1.817-9.635-2.49-16.364-.824-6.704 1.66-13.773 5.624-18.711 12.977l-.83-.557c5.099-7.594 12.398-11.682 19.301-13.39 6.879-1.703 13.44-1.059 17.081.915l-.477.88z" fill="#fff"/><path d="M105.889 131.098h-1.613v-5.221h1.684c.507 0 .941.105 1.301.314.361.207.637.506.83.895.192.387.288.851.288 1.391 0 .545-.097 1.013-.291 1.405a2.073 2.073 0 0 1-.847.903c-.37.209-.822.313-1.352.313zm-.98-.561h.939c.432 0 .79-.083 1.074-.25.284-.166.496-.403.635-.711.14-.308.21-.674.21-1.099 0-.421-.069-.784-.207-1.088a1.525 1.525 0 0 0-.618-.704c-.273-.164-.614-.247-1.023-.247h-1.01v4.099zm6.042.642c-.354 0-.664-.083-.931-.252a1.709 1.709 0 0 1-.623-.706 2.384 2.384 0 0 1-.222-1.06c0-.408.074-.764.222-1.068.15-.305.357-.541.623-.709.267-.169.577-.252.931-.252.354 0 .664.083.929.252.267.168.474.404.622.709.15.304.225.66.225 1.068 0 .404-.075.758-.225 1.06a1.686 1.686 0 0 1-.622.706 1.69 1.69 0 0 1-.929.252zm0-.54c.269 0 .49-.069.664-.206.173-.138.302-.319.385-.543.083-.225.125-.467.125-.729 0-.262-.042-.506-.125-.732a1.232 1.232 0 0 0-.385-.548c-.174-.139-.395-.209-.664-.209-.268 0-.49.07-.663.209a1.234 1.234 0 0 0-.386.548c-.083.226-.125.47-.125.732s.042.504.125.729c.084.224.212.405.386.543.173.137.395.206.663.206zm8.942-4.762v5.221h-.613l-2.847-4.099h-.052v4.099h-.632v-5.221h.612l2.858 4.11h.051v-4.11h.623zm2.777 5.302c-.354 0-.665-.083-.932-.252a1.7 1.7 0 0 1-.622-.706 2.384 2.384 0 0 1-.223-1.06c0-.408.075-.764.223-1.068.149-.305.356-.541.622-.709.267-.169.578-.252.932-.252.353 0 .663.083.928.252.267.168.475.404.623.709.15.304.224.66.224 1.068 0 .404-.074.758-.224 1.06a1.688 1.688 0 0 1-.623.706 1.69 1.69 0 0 1-.928.252zm0-.54c.268 0 .489-.069.663-.206.173-.138.302-.319.385-.543.083-.225.125-.467.125-.729 0-.262-.042-.506-.125-.732a1.232 1.232 0 0 0-.385-.548c-.174-.139-.395-.209-.663-.209-.27 0-.49.07-.664.209a1.224 1.224 0 0 0-.385.548c-.084.226-.126.47-.126.732s.042.504.126.729c.083.224.211.405.385.543.174.137.394.206.664.206zm4.399-3.457v.511h-2.031v-.511h2.031zm-1.439-.938h.602v3.732c0 .17.024.298.074.383a.386.386 0 0 0 .194.168c.08.027.164.041.253.041.066 0 .12-.004.163-.01l.102-.021.122.54c-.04.016-.097.031-.171.046a1.192 1.192 0 0 1-.278.026c-.17 0-.336-.037-.5-.11a.99.99 0 0 1-.403-.333.966.966 0 0 1-.158-.567v-3.895zm7.305.938a.8.8 0 0 0-.372-.601c-.218-.143-.485-.214-.802-.214-.231 0-.434.037-.607.112a.962.962 0 0 0-.403.309.738.738 0 0 0-.143.446.63.63 0 0 0 .1.359.865.865 0 0 0 .26.247c.106.065.216.118.332.161.115.04.221.074.319.099l.53.143c.136.036.288.085.455.148.168.062.329.149.482.257.155.107.282.245.383.413.1.169.15.375.15.62 0 .282-.074.537-.222.764-.146.228-.36.409-.643.543-.281.134-.622.202-1.023.202-.374 0-.699-.06-.972-.181a1.552 1.552 0 0 1-.644-.505 1.44 1.44 0 0 1-.262-.752h.653c.017.197.083.36.199.489.118.128.266.223.444.286.18.061.374.092.582.092.241 0 .458-.039.65-.117.193-.08.345-.191.457-.332a.786.786 0 0 0 .168-.5.612.612 0 0 0-.145-.423 1.071 1.071 0 0 0-.383-.265 4 4 0 0 0-.513-.178l-.642-.184c-.409-.117-.732-.284-.97-.502-.238-.217-.357-.502-.357-.854 0-.292.079-.547.237-.765a1.58 1.58 0 0 1 .643-.51 2.18 2.18 0 0 1 .906-.183c.337 0 .636.06.898.181.262.119.47.282.622.49.155.207.237.442.246.705h-.613zm3.286 3.997c-.378 0-.704-.083-.977-.249a1.672 1.672 0 0 1-.631-.704 2.399 2.399 0 0 1-.219-1.055c0-.401.073-.755.219-1.061.148-.307.354-.547.618-.718.265-.174.575-.26.929-.26.204 0 .405.034.604.102.2.068.381.178.544.331.163.151.293.352.39.601.097.25.146.558.146.923v.255h-3.021v-.52h2.408c0-.221-.044-.418-.132-.591a1.008 1.008 0 0 0-.373-.411c-.16-.1-.349-.15-.566-.15-.24 0-.448.059-.623.178-.173.118-.307.27-.4.459a1.344 1.344 0 0 0-.141.607v.347c0 .295.051.546.153.752.104.203.248.359.432.466.183.105.397.158.64.158.158 0 .301-.022.429-.066a.925.925 0 0 0 .334-.204.924.924 0 0 0 .217-.342l.582.164c-.062.197-.165.37-.309.519a1.51 1.51 0 0 1-.536.347 1.983 1.983 0 0 1-.717.122zm3.141-5.302v5.221h-.602v-5.221h.602zm1.705 0v5.221h-.602v-5.221h.602zm3.205 0h.756l1.776 4.334h.061l1.776-4.334h.755v5.221h-.592v-3.966h-.051l-1.633 3.966h-.571l-1.634-3.966h-.05v3.966h-.593v-5.221zm6.699 6.689a1.322 1.322 0 0 1-.439-.071l.153-.53c.147.037.276.051.388.04a.466.466 0 0 0 .299-.15c.088-.088.169-.232.242-.431l.112-.305-1.449-3.937h.653l1.082 3.121h.041l1.082-3.121h.653l-1.663 4.487c-.076.202-.168.37-.279.502-.11.134-.239.234-.385.299a1.2 1.2 0 0 1-.49.096zm5.714-1.468v-5.221h1.766c.41 0 .745.074 1.005.222.262.146.456.344.582.594.126.25.189.529.189.836 0 .308-.063.588-.189.839a1.395 1.395 0 0 1-.576.601c-.261.148-.594.222-1 .222h-1.266v-.56h1.245c.281 0 .506-.049.676-.146a.873.873 0 0 0 .37-.392c.078-.167.117-.355.117-.564 0-.209-.039-.396-.117-.561a.835.835 0 0 0-.373-.387c-.171-.095-.399-.143-.683-.143h-1.113v4.66h-.633zm6.081.081c-.378 0-.704-.083-.977-.249a1.672 1.672 0 0 1-.631-.704 2.399 2.399 0 0 1-.219-1.055c0-.401.073-.755.219-1.061.148-.307.354-.547.618-.718.265-.174.575-.26.929-.26.204 0 .405.034.604.102.199.068.381.178.544.331.163.151.293.352.39.601.097.25.146.558.146.923v.255h-3.021v-.52h2.408c0-.221-.044-.418-.132-.591a1.008 1.008 0 0 0-.373-.411c-.16-.1-.349-.15-.566-.15-.24 0-.448.059-.623.178-.173.118-.307.27-.4.459a1.344 1.344 0 0 0-.141.607v.347c0 .295.051.546.153.752.104.203.248.359.432.466.183.105.397.158.64.158.158 0 .301-.022.429-.066a.925.925 0 0 0 .334-.204.937.937 0 0 0 .217-.342l.582.164c-.062.197-.165.37-.309.519a1.51 1.51 0 0 1-.536.347 1.983 1.983 0 0 1-.717.122zm2.539-.081v-3.916h.581v.592h.042a.932.932 0 0 1 .387-.471c.187-.122.398-.182.633-.182a5.738 5.738 0 0 1 .316.011v.611a1.69 1.69 0 0 0-.14-.023 1.368 1.368 0 0 0-.227-.017c-.191 0-.361.039-.511.119a.883.883 0 0 0-.479.798v2.478h-.602zm5.449-3.038-.541.152a1.009 1.009 0 0 0-.15-.262.73.73 0 0 0-.265-.214.971.971 0 0 0-.432-.085c-.24 0-.439.056-.599.166-.158.109-.238.247-.238.416 0 .149.055.267.163.354.11.087.28.159.511.217l.582.142c.35.086.611.215.783.39a.913.913 0 0 1 .258.671.993.993 0 0 1-.194.601 1.285 1.285 0 0 1-.536.419 1.957 1.957 0 0 1-.801.152c-.4 0-.731-.086-.993-.259a1.152 1.152 0 0 1-.497-.76l.571-.143a.787.787 0 0 0 .309.474c.153.105.353.158.6.158.28 0 .503-.059.668-.178.167-.121.25-.265.25-.433a.457.457 0 0 0-.143-.342c-.095-.093-.241-.163-.439-.209l-.653-.153c-.359-.085-.622-.217-.791-.395a.956.956 0 0 1-.25-.676c0-.221.062-.416.186-.586a1.27 1.27 0 0 1 .513-.4c.218-.097.465-.145.74-.145.388 0 .693.084.914.254.223.17.381.395.474.674zm2.571 3.119c-.354 0-.665-.083-.932-.252a1.706 1.706 0 0 1-.622-.706 2.384 2.384 0 0 1-.223-1.06c0-.408.075-.764.223-1.068.149-.305.357-.541.622-.709.267-.169.578-.252.932-.252.353 0 .663.083.928.252.267.168.475.404.623.709.15.304.224.66.224 1.068 0 .404-.074.758-.224 1.06a1.688 1.688 0 0 1-.623.706 1.69 1.69 0 0 1-.928.252zm0-.54c.268 0 .489-.069.663-.206.173-.138.302-.319.385-.543.084-.225.125-.467.125-.729 0-.262-.041-.506-.125-.732a1.232 1.232 0 0 0-.385-.548c-.174-.139-.395-.209-.663-.209-.269 0-.49.07-.664.209a1.224 1.224 0 0 0-.385.548c-.084.226-.126.47-.126.732s.042.504.126.729c.083.224.211.405.385.543.174.137.395.206.664.206zm3.297-1.896v2.355h-.602v-3.916h.581v.612h.051c.092-.199.232-.358.419-.479.187-.123.428-.183.724-.183.266 0 .498.054.697.163.199.107.354.27.464.489.111.218.166.493.166.826v2.488h-.602v-2.447c0-.308-.08-.547-.24-.719-.159-.173-.379-.26-.658-.26a1.06 1.06 0 0 0-.516.125.896.896 0 0 0-.354.365c-.087.159-.13.353-.13.581zm4.754 2.447a1.6 1.6 0 0 1-.676-.14 1.153 1.153 0 0 1-.482-.411 1.15 1.15 0 0 1-.179-.652c0-.225.044-.407.133-.546a.931.931 0 0 1 .354-.331c.148-.08.312-.14.49-.179a5.96 5.96 0 0 1 .544-.097c.238-.03.431-.053.579-.068a.878.878 0 0 0 .327-.085c.069-.038.104-.106.104-.204v-.02c0-.251-.069-.447-.207-.586-.136-.14-.342-.209-.62-.209-.287 0-.513.063-.676.188-.163.126-.278.26-.344.403l-.572-.204c.102-.238.238-.423.409-.556.171-.134.358-.227.561-.28.204-.055.405-.081.602-.081.126 0 .27.015.434.046.165.028.324.089.477.181.155.091.283.23.385.415.103.185.153.433.153.744v2.58h-.602v-.53h-.03a1.054 1.054 0 0 1-.205.273 1.19 1.19 0 0 1-.38.247 1.464 1.464 0 0 1-.579.102zm.092-.541c.238 0 .439-.046.602-.14a.957.957 0 0 0 .5-.828v-.551c-.025.031-.081.059-.168.084a2.877 2.877 0 0 1-.296.064 16.781 16.781 0 0 1-.577.077 2.29 2.29 0 0 0-.439.099.753.753 0 0 0-.326.201.512.512 0 0 0-.123.362.54.54 0 0 0 .232.474c.157.105.355.158.595.158zm3.406-4.772v5.221h-.602v-5.221h.602zm3.838 0v5.221h-.633v-5.221h.633zm1.789 2.866v2.355h-.602v-3.916h.582v.612h.051c.091-.199.231-.358.418-.479.187-.123.429-.183.725-.183.265 0 .498.054.696.163.2.107.354.27.465.489.11.218.166.493.166.826v2.488h-.602v-2.447c0-.308-.08-.547-.24-.719-.16-.173-.38-.26-.658-.26-.193 0-.365.042-.516.125a.893.893 0 0 0-.355.365c-.087.159-.13.353-.13.581zm5.346-1.561v.511h-2.112v-.511h2.112zm-1.48 3.916v-4.456c0-.224.053-.411.159-.561a.971.971 0 0 1 .411-.336 1.29 1.29 0 0 1 .533-.112 1.329 1.329 0 0 1 .571.102l-.173.519a3.332 3.332 0 0 0-.128-.038.78.78 0 0 0-.209-.023c-.199 0-.343.05-.431.151-.087.1-.13.247-.13.441v4.313h-.603zm3.755.081c-.353 0-.664-.083-.931-.252a1.709 1.709 0 0 1-.623-.706 2.384 2.384 0 0 1-.222-1.06c0-.408.074-.764.222-1.068.15-.305.357-.541.623-.709.267-.169.578-.252.931-.252.354 0 .663.083.929.252.267.168.475.404.623.709a2.4 2.4 0 0 1 .224 1.068c0 .404-.075.758-.224 1.06a1.688 1.688 0 0 1-.623.706 1.692 1.692 0 0 1-.929.252zm0-.54c.269 0 .49-.069.663-.206.174-.138.302-.319.386-.543.083-.225.125-.467.125-.729 0-.262-.042-.506-.125-.732a1.234 1.234 0 0 0-.386-.548c-.173-.139-.394-.209-.663-.209s-.49.07-.663.209a1.234 1.234 0 0 0-.386.548c-.083.226-.125.47-.125.732s.042.504.125.729c.084.224.212.405.386.543.173.137.394.206.663.206zm2.695.459v-3.916h.582v.592h.041a.93.93 0 0 1 .388-.471c.187-.122.398-.182.633-.182a5.618 5.618 0 0 1 .316.011v.611a1.665 1.665 0 0 0-.141-.023 1.368 1.368 0 0 0-.227-.017c-.19 0-.36.039-.51.119a.875.875 0 0 0-.479.798v2.478h-.603zm2.674 0v-3.916h.581v.612h.052a.982.982 0 0 1 .395-.487c.182-.117.401-.175.656-.175.258 0 .473.058.645.175.174.116.309.278.406.487h.041c.1-.202.251-.363.452-.481.2-.121.441-.181.721-.181.351 0 .638.109.86.328.224.218.335.557.335 1.017v2.621h-.602v-2.621c0-.289-.08-.495-.238-.619a.878.878 0 0 0-.559-.186c-.275 0-.489.083-.64.25a.892.892 0 0 0-.227.627v2.549h-.612v-2.682a.707.707 0 0 0-.217-.538.78.78 0 0 0-.559-.206.83.83 0 0 0-.439.125.948.948 0 0 0-.327.346 1.035 1.035 0 0 0-.122.508v2.447h-.602zm7.398.092a1.6 1.6 0 0 1-.676-.14 1.159 1.159 0 0 1-.482-.411 1.15 1.15 0 0 1-.179-.652c0-.225.045-.407.133-.546a.934.934 0 0 1 .355-.331c.148-.08.311-.14.489-.179.181-.041.362-.073.544-.097.238-.03.431-.053.579-.068a.872.872 0 0 0 .327-.085c.069-.038.104-.106.104-.204v-.02c0-.251-.069-.447-.206-.586-.136-.14-.343-.209-.621-.209-.287 0-.512.063-.676.188-.163.126-.278.26-.344.403l-.571-.204c.102-.238.238-.423.408-.556.172-.134.358-.227.561-.28.204-.055.405-.081.602-.081.126 0 .27.015.434.046.165.028.324.089.477.181.155.091.283.23.385.415.102.185.153.433.153.744v2.58h-.602v-.53h-.031c-.04.085-.108.176-.204.273a1.185 1.185 0 0 1-.379.247 1.472 1.472 0 0 1-.58.102zm.092-.541c.238 0 .439-.046.602-.14a.957.957 0 0 0 .5-.828v-.551c-.025.031-.081.059-.168.084a2.877 2.877 0 0 1-.296.064 15.742 15.742 0 0 1-.577.077c-.156.02-.303.053-.439.099a.753.753 0 0 0-.326.201.512.512 0 0 0-.123.362.54.54 0 0 0 .232.474c.157.105.355.158.595.158zm4.508-3.467v.511h-2.031v-.511h2.031zm-1.439-.938h.602v3.732c0 .17.025.298.074.383a.386.386 0 0 0 .194.168c.08.027.164.041.253.041.066 0 .121-.004.163-.01l.102-.021.122.54c-.04.016-.097.031-.171.046a1.192 1.192 0 0 1-.278.026c-.17 0-.336-.037-.5-.11a.99.99 0 0 1-.403-.333.966.966 0 0 1-.158-.567v-3.895zm2.345 4.854v-3.916h.602v3.916h-.602zm.306-4.568a.43.43 0 0 1-.304-.12.386.386 0 0 1-.125-.288c0-.112.042-.208.125-.288a.43.43 0 0 1 .304-.12c.117 0 .218.04.301.12.085.08.128.176.128.288a.382.382 0 0 1-.128.288.419.419 0 0 1-.301.12zm2.991 4.649c-.354 0-.664-.083-.931-.252a1.709 1.709 0 0 1-.623-.706 2.384 2.384 0 0 1-.222-1.06c0-.408.074-.764.222-1.068.15-.305.357-.541.623-.709.267-.169.577-.252.931-.252.354 0 .663.083.929.252.267.168.474.404.622.709.15.304.225.66.225 1.068 0 .404-.075.758-.225 1.06a1.686 1.686 0 0 1-.622.706 1.692 1.692 0 0 1-.929.252zm0-.54c.269 0 .49-.069.663-.206.174-.138.303-.319.386-.543.083-.225.125-.467.125-.729 0-.262-.042-.506-.125-.732a1.226 1.226 0 0 0-.386-.548c-.173-.139-.394-.209-.663-.209s-.49.07-.663.209a1.234 1.234 0 0 0-.386.548c-.083.226-.125.47-.125.732s.042.504.125.729c.084.224.212.405.386.543.173.137.394.206.663.206zm3.297-1.896v2.355h-.602v-3.916h.582v.612h.051a1.12 1.12 0 0 1 .418-.479c.188-.123.429-.183.725-.183.265 0 .498.054.697.163.199.107.354.27.464.489.111.218.166.493.166.826v2.488h-.602v-2.447c0-.308-.08-.547-.24-.719-.16-.173-.38-.26-.658-.26a1.06 1.06 0 0 0-.516.125.89.89 0 0 0-.354.365 1.196 1.196 0 0 0-.131.581z" fill="#000"/><path d="M97.894 123.682h-8.143a.718.718 0 0 0-.719.717v8.136c0 .397.322.718.719.718h8.143a.718.718 0 0 0 .719-.718v-8.136a.718.718 0 0 0-.719-.717z" fill="#1863DC" stroke="#1863DC"/><path d="M93.417 70.133c0 .608-.115 1.124-.345 1.55-.23.426-.541.752-.937.976a2.647 2.647 0 0 1-1.328.335c-.495 0-.94-.112-1.334-.337a2.401 2.401 0 0 1-.933-.977c-.229-.426-.343-.941-.343-1.547 0-.607.114-1.124.343-1.55.229-.426.54-.75.933-.973a2.641 2.641 0 0 1 1.334-.337c.492 0 .935.112 1.328.337.396.223.708.547.937.973.23.426.345.943.345 1.55zm-1.195 0c0-.393-.058-.725-.176-.995a1.347 1.347 0 0 0-.493-.614c-.212-.14-.461-.21-.746-.21s-.533.07-.746.21c-.212.14-.377.344-.495.614-.116.27-.174.602-.174.995 0 .394.058.725.174.996.118.27.283.474.495.614.213.14.461.21.746.21s.534-.07.746-.21c.212-.14.376-.344.493-.614.117-.27.176-.602.176-.996zm2.047 4.35v-5.742h1.143v.702h.051c.051-.113.125-.227.22-.343a1.16 1.16 0 0 1 .382-.294c.158-.08.354-.12.588-.12.304 0 .586.08.843.24.258.158.464.396.618.715.154.317.232.715.232 1.194 0 .466-.076.86-.226 1.18a1.673 1.673 0 0 1-.61.726 1.565 1.565 0 0 1-.86.245c-.225 0-.416-.038-.574-.112a1.188 1.188 0 0 1-.384-.28c-.1-.114-.176-.23-.229-.345h-.035v2.235h-1.16zm1.134-3.654c0 .249.035.465.104.65a.966.966 0 0 0 .3.433c.13.101.289.152.475.152a.748.748 0 0 0 .48-.155c.13-.105.23-.25.296-.435.07-.187.104-.402.104-.645 0-.24-.034-.453-.101-.636a.948.948 0 0 0-.297-.43.753.753 0 0 0-.481-.154.766.766 0 0 0-.48.15.939.939 0 0 0-.296.423 1.836 1.836 0 0 0-.104.647zm5.939-2.088v.87h-2.517v-.87h2.517zm-1.946-1h1.16v3.893c0 .107.016.19.049.25a.268.268 0 0 0 .136.123c.06.023.129.035.207.035.054 0 .108-.004.163-.013l.125-.025.182.862a3.142 3.142 0 0 1-.245.063c-.105.025-.233.04-.383.046a1.76 1.76 0 0 1-.735-.112 1.024 1.024 0 0 1-.487-.397c-.117-.18-.174-.406-.172-.68V67.74zm5.179 2.43v.92h-2.542v-.92h2.542zM107.452 73c-.423 0-.789-.09-1.097-.269a1.834 1.834 0 0 1-.71-.756 2.433 2.433 0 0 1-.251-1.128c0-.432.084-.809.251-1.131.166-.325.403-.577.71-.756.308-.182.674-.272 1.097-.272.423 0 .787.09 1.094.272.308.18.546.431.713.756.167.322.251.7.251 1.13 0 .428-.084.805-.251 1.13a1.841 1.841 0 0 1-.713.755c-.307.18-.671.27-1.094.27zm.005-.897a.723.723 0 0 0 .482-.163c.129-.11.226-.261.291-.452a1.95 1.95 0 0 0 .101-.65c0-.242-.034-.459-.101-.65a1.008 1.008 0 0 0-.291-.45.716.716 0 0 0-.482-.166.74.74 0 0 0-.49.165c-.13.11-.229.261-.296.452-.066.19-.098.407-.098.65 0 .243.032.46.098.65.067.19.166.34.296.45a.748.748 0 0 0 .49.164zm5.487-.963v-2.398h1.16v4.177h-1.113v-.759h-.044a1.235 1.235 0 0 1-.471.59 1.381 1.381 0 0 1-.797.223 1.41 1.41 0 0 1-.738-.19 1.313 1.313 0 0 1-.498-.541 1.86 1.86 0 0 1-.179-.84v-2.66h1.159v2.453c.002.246.068.441.199.584.13.144.305.215.525.215.139 0 .27-.031.392-.095a.747.747 0 0 0 .293-.288.873.873 0 0 0 .112-.47zm4.311-2.398v.87h-2.518v-.87h2.518zm-1.946-1h1.159v3.893c0 .107.017.19.049.25a.271.271 0 0 0 .136.123c.06.023.129.035.207.035a.996.996 0 0 0 .163-.013l.125-.025.183.862c-.058.018-.14.039-.245.063-.105.025-.233.04-.384.046a1.766 1.766 0 0 1-.735-.112 1.027 1.027 0 0 1-.487-.397c-.116-.18-.173-.406-.171-.68V67.74zm4.497 5.177v-5.57h2.199c.422 0 .782.082 1.08.243.298.16.525.382.681.666.158.283.236.61.236.979 0 .37-.079.696-.239.979-.16.283-.391.503-.694.66-.301.158-.666.237-1.094.237h-1.402v-.943h1.211c.227 0 .414-.04.561-.117a.77.77 0 0 0 .332-.33c.075-.14.111-.303.111-.486a.997.997 0 0 0-.111-.484.741.741 0 0 0-.332-.324 1.214 1.214 0 0 0-.566-.117h-.795v4.607h-1.178zm4.94 0V68.74h1.124v.729h.044c.076-.26.204-.455.384-.588.179-.134.386-.2.62-.2a1.772 1.772 0 0 1 .365.04v1.028a2.025 2.025 0 0 0-.49-.063.927.927 0 0 0-.457.112.818.818 0 0 0-.316.304.881.881 0 0 0-.115.452v2.363h-1.159zm4.847.081c-.43 0-.8-.087-1.11-.26a1.787 1.787 0 0 1-.714-.746c-.167-.322-.25-.704-.25-1.144 0-.43.083-.807.25-1.132a1.85 1.85 0 0 1 .705-.758 2.058 2.058 0 0 1 1.072-.272c.276 0 .533.044.771.133a1.714 1.714 0 0 1 1.045 1.058c.1.264.149.574.149.93v.318h-3.529v-.718h2.438a.882.882 0 0 0-.109-.443.775.775 0 0 0-.302-.302.862.862 0 0 0-.443-.111.892.892 0 0 0-.468.122.852.852 0 0 0-.316.323.917.917 0 0 0-.117.449v.683c0 .206.038.385.114.535.078.15.188.267.329.348.142.082.31.123.504.123.129 0 .247-.019.354-.055a.712.712 0 0 0 .449-.43l1.072.071a1.456 1.456 0 0 1-.335.675c-.167.19-.383.339-.647.446a2.449 2.449 0 0 1-.912.157zm4.923-4.258v.87h-2.58v-.87h2.58zm-1.989 4.177v-4.479c0-.302.059-.553.177-.753.119-.2.283-.349.49-.449.207-.1.441-.15.704-.15.179 0 .341.014.488.042.149.027.259.051.332.073l-.207.87a1.447 1.447 0 0 0-.169-.04 1.054 1.054 0 0 0-.201-.02c-.171 0-.29.04-.357.12a.49.49 0 0 0-.1.329v4.457h-1.157zm4.453.081c-.43 0-.8-.087-1.11-.26a1.785 1.785 0 0 1-.713-.746c-.167-.322-.251-.704-.251-1.144 0-.43.084-.807.251-1.132.166-.324.402-.577.704-.758a2.064 2.064 0 0 1 1.073-.272c.276 0 .533.044.77.133.24.087.449.218.626.394.18.176.32.397.419.664.1.264.15.574.15.93v.318h-3.53v-.718h2.439a.893.893 0 0 0-.109-.443.781.781 0 0 0-.302-.302.863.863 0 0 0-.444-.111.892.892 0 0 0-.468.122.859.859 0 0 0-.316.323.917.917 0 0 0-.117.449v.683c0 .206.038.385.115.535.078.15.187.267.329.348a.988.988 0 0 0 .503.123c.129 0 .247-.019.354-.055a.712.712 0 0 0 .449-.43l1.072.071a1.454 1.454 0 0 1-.334.675c-.167.19-.383.339-.648.446a2.445 2.445 0 0 1-.912.157zm2.676-.081V68.74h1.124v.729h.043a1.08 1.08 0 0 1 .384-.588 1.01 1.01 0 0 1 .621-.2 1.754 1.754 0 0 1 .364.04v1.028a2.05 2.05 0 0 0-.489-.063.928.928 0 0 0-.458.112.832.832 0 0 0-.316.304.88.88 0 0 0-.114.452v2.363h-1.159zm4.846.081c-.43 0-.8-.087-1.11-.26a1.791 1.791 0 0 1-.713-.746c-.167-.322-.251-.704-.251-1.144 0-.43.084-.807.251-1.132a1.85 1.85 0 0 1 .705-.758 2.058 2.058 0 0 1 1.072-.272c.276 0 .533.044.77.133.24.087.449.218.626.394.18.176.32.397.419.664.1.264.15.574.15.93v.318h-3.53v-.718h2.439a.893.893 0 0 0-.109-.443.781.781 0 0 0-.302-.302.863.863 0 0 0-.444-.111.892.892 0 0 0-.468.122.866.866 0 0 0-.316.323.917.917 0 0 0-.117.449v.683c0 .206.038.385.115.535.078.15.187.267.329.348a.99.99 0 0 0 .504.123c.128 0 .246-.019.353-.055a.712.712 0 0 0 .449-.43l1.073.071a1.465 1.465 0 0 1-.335.675c-.167.19-.383.339-.648.446a2.445 2.445 0 0 1-.912.157zm3.835-2.496v2.415h-1.159V68.74h1.105v.737h.049a1.16 1.16 0 0 1 .465-.576 1.41 1.41 0 0 1 .792-.215c.29 0 .544.063.759.19.216.127.384.308.504.544.12.234.18.513.18.837v2.66h-1.16v-2.453c.002-.255-.063-.455-.196-.598-.132-.145-.314-.218-.547-.218a.835.835 0 0 0-.414.1.705.705 0 0 0-.277.295 1.01 1.01 0 0 0-.101.46zM153.834 73c-.428 0-.796-.09-1.104-.272a1.837 1.837 0 0 1-.708-.761 2.45 2.45 0 0 1-.245-1.12c0-.428.082-.803.248-1.126a1.83 1.83 0 0 1 .71-.759c.306-.183.671-.274 1.094-.274.365 0 .684.066.958.198.274.133.491.318.651.558.159.239.247.52.263.843h-1.094a.84.84 0 0 0-.244-.503.704.704 0 0 0-.515-.194.78.78 0 0 0-.471.147.935.935 0 0 0-.31.422 1.808 1.808 0 0 0-.112.671c0 .267.037.494.109.68a.95.95 0 0 0 .313.427.779.779 0 0 0 .471.147.772.772 0 0 0 .357-.082.68.68 0 0 0 .263-.236.891.891 0 0 0 .139-.378h1.094c-.018.319-.105.6-.261.843-.154.24-.367.43-.64.565a2.138 2.138 0 0 1-.966.204zm4.515 0c-.43 0-.8-.087-1.11-.26a1.793 1.793 0 0 1-.714-.746c-.166-.322-.25-.704-.25-1.144 0-.43.084-.807.25-1.132.168-.324.402-.577.706-.758a2.055 2.055 0 0 1 1.072-.272c.275 0 .532.044.77.133a1.714 1.714 0 0 1 1.045 1.058c.1.264.15.574.15.93v.318h-3.53v-.718h2.438a.892.892 0 0 0-.108-.443.784.784 0 0 0-.303-.302.862.862 0 0 0-.443-.111.892.892 0 0 0-.468.122.859.859 0 0 0-.316.323.917.917 0 0 0-.117.449v.683c0 .206.038.385.114.535.078.15.188.267.33.348a.988.988 0 0 0 .503.123c.129 0 .247-.019.354-.055a.712.712 0 0 0 .449-.43l1.073.071a1.475 1.475 0 0 1-.335.675c-.167.19-.383.339-.648.446a2.445 2.445 0 0 1-.912.157zm6.154-3.067-1.061.065a.557.557 0 0 0-.118-.244.62.62 0 0 0-.236-.177.81.81 0 0 0-.346-.068.847.847 0 0 0-.454.114c-.124.075-.186.174-.186.3 0 .099.04.183.12.252.08.069.217.124.411.166l.757.152c.406.084.709.218.908.403.2.185.3.428.3.728 0 .274-.081.514-.242.721-.16.207-.379.368-.659.484a2.512 2.512 0 0 1-.961.171c-.553 0-.994-.115-1.322-.345a1.347 1.347 0 0 1-.575-.946l1.141-.06a.588.588 0 0 0 .25.386c.133.087.302.13.509.13.203 0 .367-.038.49-.116.125-.08.189-.183.19-.308a.317.317 0 0 0-.133-.258c-.087-.069-.221-.121-.403-.158l-.723-.144c-.409-.081-.713-.223-.912-.424a1.051 1.051 0 0 1-.297-.77c0-.268.072-.499.218-.693.147-.194.353-.343.617-.449a2.55 2.55 0 0 1 .937-.157c.528 0 .943.111 1.246.334.305.223.483.527.534.911z" fill="#27283C"/><path d="M283.392 84.574H88.149v3.994h195.243v-3.994zM283.113 141.174H87.863v3.55h195.25v-3.55zM283.392 96.555H88.149v3.994h195.243v-3.994zM250.276 151.822H87.863v3.55h162.413v-3.55zM211.91 108.537H88.15v3.994h123.76v-3.994z" fill="#CDD8F8"/><path d="M287.449 162.816h-96.945v16.233h96.945v-16.233z" stroke="#1863DC"/><path d="M245.478 168.596v4.591h-.53v-4.591h.53zM242.717 173.257c-.331 0-.618-.073-.858-.22a1.477 1.477 0 0 1-.554-.618 2.12 2.12 0 0 1-.193-.928c0-.353.065-.664.193-.933.13-.27.311-.481.543-.632.233-.153.505-.229.816-.229.179 0 .356.03.531.09.175.06.334.157.477.291.144.133.258.31.343.529.086.22.128.491.128.812v.224h-2.654v-.457h2.116c0-.195-.039-.368-.116-.52a.88.88 0 0 0-.825-.493.953.953 0 0 0-.547.156c-.153.104-.27.238-.352.404a1.176 1.176 0 0 0-.124.533v.305c0 .26.045.481.135.662a.966.966 0 0 0 .379.41c.161.093.349.139.562.139.139 0 .265-.02.377-.058a.824.824 0 0 0 .294-.18.816.816 0 0 0 .19-.3l.511.143a1.126 1.126 0 0 1-.271.458c-.127.13-.284.231-.471.305a1.76 1.76 0 0 1-.63.107zM239.147 173.257c-.323 0-.601-.076-.834-.229a1.492 1.492 0 0 1-.538-.629 2.132 2.132 0 0 1-.188-.917c0-.35.064-.659.192-.926.13-.269.311-.479.543-.63.233-.153.505-.229.816-.229.242 0 .46.045.655.135.194.089.353.215.477.376.124.162.201.35.231.565h-.529a.818.818 0 0 0-.269-.417c-.138-.122-.323-.183-.556-.183a.93.93 0 0 0-.543.161 1.05 1.05 0 0 0-.361.451 1.669 1.669 0 0 0-.127.679c0 .266.042.497.125.695.085.197.205.35.359.459a.928.928 0 0 0 .547.164.941.941 0 0 0 .374-.072.774.774 0 0 0 .451-.529h.529a1.228 1.228 0 0 1-.686.935 1.496 1.496 0 0 1-.668.141zM234.585 171.114v2.071h-.529v-3.443h.511v.538h.045a.977.977 0 0 1 .367-.421c.165-.108.377-.162.637-.162.233 0 .437.048.612.144a.962.962 0 0 1 .408.43c.097.191.146.434.146.726v2.188h-.529v-2.152c0-.27-.071-.481-.211-.632-.141-.152-.333-.228-.579-.228a.924.924 0 0 0-.452.109.785.785 0 0 0-.312.321 1.06 1.06 0 0 0-.114.511zM231.511 173.266c-.219 0-.417-.041-.594-.123a1.017 1.017 0 0 1-.424-.361 1.017 1.017 0 0 1-.157-.574c0-.197.039-.357.117-.48a.814.814 0 0 1 .311-.291c.13-.07.274-.123.431-.157.158-.036.317-.064.477-.085.209-.027.379-.047.509-.061a.776.776 0 0 0 .287-.074c.061-.034.092-.094.092-.179v-.018c0-.221-.061-.393-.182-.516-.119-.122-.301-.183-.545-.183-.252 0-.45.055-.594.165a.982.982 0 0 0-.302.355l-.502-.18c.089-.209.209-.372.358-.488.151-.118.316-.201.493-.247.18-.048.356-.072.529-.072.111 0 .238.014.382.041.145.025.284.078.419.159.136.08.249.202.338.365.09.163.135.381.135.655v2.268h-.529v-.466h-.027a1.017 1.017 0 0 1-.514.457 1.28 1.28 0 0 1-.508.09zm.08-.475c.21 0 .386-.041.529-.123a.854.854 0 0 0 .328-.319.819.819 0 0 0 .112-.41v-.484c-.023.027-.072.051-.148.074a2.685 2.685 0 0 1-.26.056 11.431 11.431 0 0 1-.507.067 2.046 2.046 0 0 0-.385.087.654.654 0 0 0-.287.178.447.447 0 0 0-.108.318c0 .184.068.323.204.417a.912.912 0 0 0 .522.139zM229.672 170.031h-.556a1.163 1.163 0 0 0-.469-.727 1.278 1.278 0 0 0-.383-.188 1.53 1.53 0 0 0-.44-.063c-.278 0-.529.071-.755.211-.224.14-.403.347-.536.621-.131.273-.197.609-.197 1.006 0 .398.066.734.197 1.007.133.274.312.481.536.621.226.14.477.211.755.211.153 0 .299-.021.44-.063.14-.042.268-.104.383-.186a1.185 1.185 0 0 0 .469-.729h.556a1.863 1.863 0 0 1-.229.63 1.71 1.71 0 0 1-.413.473 1.792 1.792 0 0 1-.553.294 2.077 2.077 0 0 1-.653.101c-.391 0-.739-.096-1.044-.287a1.966 1.966 0 0 1-.72-.816c-.175-.353-.262-.771-.262-1.256 0-.484.087-.902.262-1.255.175-.353.415-.625.72-.816a1.926 1.926 0 0 1 1.044-.287c.232 0 .449.034.653.101.204.067.389.166.553.296.165.129.302.285.413.471.11.184.187.394.229.63zM184.808 162.049H87.863v16.776h96.945v-16.776z" fill="#1863DC"/><path d="M164.083 172.833c-.332 0-.618-.073-.859-.219a1.48 1.48 0 0 1-.554-.619 2.116 2.116 0 0 1-.192-.928c0-.353.064-.664.192-.933.13-.27.311-.481.543-.632a1.46 1.46 0 0 1 .816-.229c.179 0 .356.03.531.09.175.06.334.157.478.292.143.133.257.309.343.529.085.219.127.49.127.811v.224h-2.654v-.457h2.116c0-.194-.039-.368-.116-.52a.874.874 0 0 0-.328-.361.915.915 0 0 0-.497-.132.946.946 0 0 0-.547.157c-.153.103-.27.237-.352.403a1.19 1.19 0 0 0-.123.534v.305c0 .26.044.48.134.661a.973.973 0 0 0 .379.41c.161.093.349.139.563.139.139 0 .264-.019.376-.058a.802.802 0 0 0 .294-.18.795.795 0 0 0 .19-.3l.512.144a1.142 1.142 0 0 1-.272.457c-.127.13-.284.231-.47.305a1.764 1.764 0 0 1-.63.107zM160.512 172.833c-.323 0-.601-.076-.834-.228a1.501 1.501 0 0 1-.538-.63 2.143 2.143 0 0 1-.188-.917c0-.35.064-.658.193-.926.13-.269.311-.479.542-.63a1.46 1.46 0 0 1 .816-.229c.242 0 .46.045.655.135.194.09.353.215.477.377.124.161.201.349.231.564h-.529a.819.819 0 0 0-.269-.416c-.137-.123-.323-.184-.556-.184a.924.924 0 0 0-.542.161 1.043 1.043 0 0 0-.361.451 1.669 1.669 0 0 0-.128.679c0 .266.042.498.125.695.086.197.205.35.359.459.156.11.338.164.547.164a.946.946 0 0 0 .375-.072.77.77 0 0 0 .45-.529h.529a1.22 1.22 0 0 1-.686.935 1.496 1.496 0 0 1-.668.141zM155.948 170.69v2.072h-.529v-3.444h.511v.538h.045a.98.98 0 0 1 .368-.421c.164-.108.376-.162.636-.162.234 0 .438.048.612.144a.967.967 0 0 1 .408.43c.098.192.146.434.146.727v2.188h-.529v-2.152c0-.271-.07-.482-.211-.633-.14-.152-.333-.228-.578-.228a.915.915 0 0 0-.453.11.787.787 0 0 0-.311.32 1.051 1.051 0 0 0-.115.511zM153.188 172.833c-.331 0-.618-.073-.858-.219a1.48 1.48 0 0 1-.554-.619 2.116 2.116 0 0 1-.193-.928c0-.353.065-.664.193-.933.13-.27.311-.481.543-.632a1.46 1.46 0 0 1 .816-.229c.179 0 .356.03.531.09.175.06.334.157.477.292.144.133.258.309.343.529.085.219.128.49.128.811v.224h-2.654v-.457h2.116c0-.194-.039-.368-.117-.52a.872.872 0 0 0-.327-.361.915.915 0 0 0-.497-.132.944.944 0 0 0-.547.157c-.153.103-.27.237-.352.403a1.177 1.177 0 0 0-.124.534v.305c0 .26.045.48.135.661a.966.966 0 0 0 .379.41c.161.093.349.139.562.139.139 0 .265-.019.377-.058a.81.81 0 0 0 .294-.18.807.807 0 0 0 .19-.3l.511.144a1.14 1.14 0 0 1-.271.457c-.127.13-.284.231-.471.305a1.764 1.764 0 0 1-.63.107zM149.501 172.763v-3.444h.512v.521h.035a.828.828 0 0 1 .341-.415c.165-.106.35-.159.556-.159a4.047 4.047 0 0 1 .278.009v.538a1.263 1.263 0 0 0-.123-.021 1.27 1.27 0 0 0-.2-.015.938.938 0 0 0-.448.105.77.77 0 0 0-.421.702v2.179h-.53zM147.27 172.833c-.331 0-.618-.073-.858-.219a1.48 1.48 0 0 1-.554-.619 2.116 2.116 0 0 1-.193-.928c0-.353.065-.664.193-.933.13-.27.311-.481.543-.632a1.46 1.46 0 0 1 .816-.229c.179 0 .356.03.531.09.175.06.334.157.477.292.144.133.258.309.343.529.086.219.128.49.128.811v.224h-2.654v-.457h2.116c0-.194-.039-.368-.116-.52a.88.88 0 0 0-.825-.493.946.946 0 0 0-.547.157c-.153.103-.27.237-.352.403a1.177 1.177 0 0 0-.124.534v.305c0 .26.045.48.135.661a.966.966 0 0 0 .379.41c.161.093.349.139.562.139.139 0 .265-.019.377-.058a.81.81 0 0 0 .294-.18.807.807 0 0 0 .19-.3l.511.144a1.14 1.14 0 0 1-.271.457c-.127.13-.284.231-.471.305a1.764 1.764 0 0 1-.63.107zM145.227 169.32v.448h-1.857v-.448h1.857zm-1.301 3.443v-3.918c0-.198.047-.362.139-.493a.854.854 0 0 1 .361-.296c.148-.066.304-.099.469-.099a1.22 1.22 0 0 1 .502.09l-.153.457c-.026-.009-.064-.02-.112-.034a.692.692 0 0 0-.183-.02c-.175 0-.302.044-.379.132-.077.089-.115.218-.115.388v3.793h-.529zM141.463 172.833c-.331 0-.617-.073-.858-.219a1.48 1.48 0 0 1-.554-.619 2.116 2.116 0 0 1-.193-.928c0-.353.065-.664.193-.933.13-.27.311-.481.543-.632a1.46 1.46 0 0 1 .816-.229c.179 0 .356.03.531.09.175.06.334.157.477.292.144.133.258.309.343.529.086.219.128.49.128.811v.224h-2.654v-.457h2.116c0-.194-.039-.368-.116-.52a.88.88 0 0 0-.825-.493.946.946 0 0 0-.547.157c-.153.103-.27.237-.352.403a1.19 1.19 0 0 0-.124.534v.305c0 .26.045.48.135.661a.966.966 0 0 0 .379.41c.161.093.349.139.562.139.139 0 .265-.019.377-.058a.802.802 0 0 0 .294-.18.807.807 0 0 0 .19-.3l.511.144a1.129 1.129 0 0 1-.271.457c-.127.13-.284.231-.471.305a1.756 1.756 0 0 1-.63.107zM137.775 172.763v-3.444h.511v.521h.036a.823.823 0 0 1 .341-.415c.164-.106.349-.159.556-.159a4.023 4.023 0 0 1 .278.009v.538a1.245 1.245 0 0 0-.124-.021 1.266 1.266 0 0 0-.199-.015.942.942 0 0 0-.449.105.77.77 0 0 0-.421.702v2.179h-.529zM133.928 174.053v-4.735h.512v.547h.062c.039-.06.093-.136.162-.228a.928.928 0 0 1 .3-.251c.132-.075.31-.113.534-.113.29 0 .545.073.766.218.222.145.394.35.518.616s.186.58.186.942c0 .365-.062.681-.186.948a1.476 1.476 0 0 1-.515.619c-.22.145-.473.217-.76.217-.222 0-.399-.036-.532-.11a.979.979 0 0 1-.307-.253 4.104 4.104 0 0 1-.166-.237h-.044v1.82h-.53zm.521-3.013c0 .26.038.489.114.688.076.197.187.352.334.464a.864.864 0 0 0 .538.166.866.866 0 0 0 .554-.175c.149-.118.261-.276.336-.475.076-.2.114-.423.114-.668 0-.242-.037-.46-.112-.655a1.012 1.012 0 0 0-.334-.464.882.882 0 0 0-.558-.172.886.886 0 0 0-.543.163.983.983 0 0 0-.331.453 1.858 1.858 0 0 0-.112.675zM128.981 174.055a1.15 1.15 0 0 1-.386-.063l.135-.466c.128.033.242.045.341.036a.406.406 0 0 0 .262-.133c.078-.077.148-.204.213-.378l.098-.269-1.273-3.462h.574l.95 2.744h.036l.951-2.744h.574l-1.462 3.946a1.488 1.488 0 0 1-.244.441.917.917 0 0 1-.339.263c-.127.056-.27.085-.43.085zM123.277 172.762v-3.444h.511v.538h.045a.866.866 0 0 1 .347-.428c.16-.103.352-.155.576-.155.228 0 .417.052.568.155.152.102.271.244.356.428h.036a.993.993 0 0 1 .397-.423c.176-.107.387-.16.634-.16.308 0 .56.097.756.29.195.191.293.489.293.894v2.305h-.529v-2.305c0-.254-.069-.436-.208-.545a.773.773 0 0 0-.491-.163c-.242 0-.43.073-.563.219a.785.785 0 0 0-.199.552v2.242h-.538v-2.359a.62.62 0 0 0-.191-.473.683.683 0 0 0-.491-.181.722.722 0 0 0-.386.11.822.822 0 0 0-.286.304.902.902 0 0 0-.108.447v2.152h-.529zM119.271 172.833c-.332 0-.618-.073-.859-.219a1.478 1.478 0 0 1-.553-.619 2.102 2.102 0 0 1-.193-.928c0-.353.064-.664.193-.933.13-.27.31-.481.542-.632a1.46 1.46 0 0 1 .816-.229c.179 0 .356.03.531.09.175.06.334.157.478.292.143.133.258.309.343.529.085.219.128.49.128.811v.224h-2.655v-.457h2.117c0-.194-.039-.368-.117-.52a.872.872 0 0 0-.327-.361.921.921 0 0 0-.498-.132.946.946 0 0 0-.547.157c-.152.103-.27.237-.352.403a1.19 1.19 0 0 0-.123.534v.305c0 .26.045.48.134.661a.973.973 0 0 0 .379.41c.162.093.349.139.563.139.139 0 .264-.019.376-.058a.802.802 0 0 0 .294-.18.81.81 0 0 0 .191-.3l.511.144a1.14 1.14 0 0 1-.271.457c-.127.13-.284.231-.471.305a1.764 1.764 0 0 1-.63.107zM117.251 169.32l-1.274 3.444h-.538l-1.273-3.444h.574l.95 2.744h.036l.951-2.744h.574zM112.016 172.842c-.218 0-.416-.041-.594-.123a1.024 1.024 0 0 1-.424-.361 1.023 1.023 0 0 1-.157-.574c0-.197.039-.357.117-.48a.82.82 0 0 1 .311-.291c.13-.07.274-.123.431-.157.158-.036.317-.064.477-.085.21-.027.379-.047.509-.061a.77.77 0 0 0 .287-.074c.061-.034.092-.094.092-.179v-.018c0-.221-.06-.393-.181-.515-.12-.123-.302-.184-.545-.184-.253 0-.451.055-.594.166a.965.965 0 0 0-.303.354l-.502-.18a1.2 1.2 0 0 1 .359-.488c.151-.118.315-.2.493-.247.179-.048.355-.072.529-.072.11 0 .237.014.381.041a1.2 1.2 0 0 1 .419.159.94.94 0 0 1 .339.365c.089.163.134.381.134.655v2.269h-.529v-.467h-.027a.918.918 0 0 1-.179.24 1.046 1.046 0 0 1-.334.218 1.303 1.303 0 0 1-.509.089zm.081-.475c.209 0 .385-.041.529-.123a.837.837 0 0 0 .439-.729v-.484c-.022.027-.072.052-.148.074-.075.021-.161.04-.26.056a11.431 11.431 0 0 1-.507.067 1.97 1.97 0 0 0-.385.088.667.667 0 0 0-.287.177.449.449 0 0 0-.108.318c0 .184.068.323.204.417a.915.915 0 0 0 .523.139zM109.559 169.32a.704.704 0 0 0-.327-.529 1.254 1.254 0 0 0-.704-.188 1.34 1.34 0 0 0-.534.098.852.852 0 0 0-.354.271.65.65 0 0 0-.125.393c0 .122.029.228.087.316.06.087.136.159.229.217.092.057.19.104.291.142.102.035.195.065.28.087l.467.125c.119.032.252.075.399.13.148.056.289.131.423.227.136.094.248.215.337.363.088.148.132.33.132.545 0 .248-.065.472-.195.672-.129.201-.317.36-.565.478-.247.118-.546.177-.899.177-.329 0-.614-.053-.854-.159a1.357 1.357 0 0 1-.565-.444 1.267 1.267 0 0 1-.231-.661h.574a.717.717 0 0 0 .175.43.943.943 0 0 0 .39.251c.158.054.329.081.511.081.212 0 .403-.035.572-.103a.99.99 0 0 0 .401-.292.687.687 0 0 0 .148-.439.537.537 0 0 0-.128-.372.92.92 0 0 0-.336-.233 3.355 3.355 0 0 0-.451-.157l-.565-.162c-.358-.103-.642-.25-.852-.441a.971.971 0 0 1-.313-.751c0-.257.069-.482.208-.673.141-.193.329-.342.565-.448.238-.108.503-.162.796-.162.296 0 .559.053.789.16.23.104.412.248.547.43.136.182.208.389.215.621h-.538z" fill="#fff"/><path d="m91 128.5 2 2.5 4-5" stroke="#fff" stroke-linecap="round" stroke-linejoin="round"/></g><defs><filter id="c" x="42" y="31" width="294.075" height="200" filterUnits="userSpaceOnUse" color-interpolation-filters="sRGB"><feFlood flood-opacity="0" result="BackgroundImageFix"/><feColorMatrix in="SourceAlpha" values="0 0 0 0 0 0 0 0 0 0 0 0 0 0 0 0 0 0 127 0" result="hardAlpha"/><feOffset dy="8"/><feGaussianBlur stdDeviation="14.5"/><feColorMatrix values="0 0 0 0 0.0941176 0 0 0 0 0.388235 0 0 0 0 0.862745 0 0 0 0.31 0"/><feBlend in2="BackgroundImageFix" result="effect1_dropShadow_7253_71004"/><feBlend in="SourceGraphic" in2="effect1_dropShadow_7253_71004" result="shape"/></filter><filter id="d" x="197.863" y="-32" width="137" height="147" filterUnits="userSpaceOnUse" color-interpolation-filters="sRGB"><feFlood flood-opacity="0" result="BackgroundImageFix"/><feColorMatrix in="SourceAlpha" values="0 0 0 0 0 0 0 0 0 0 0 0 0 0 0 0 0 0 127 0" result="hardAlpha"/><feMorphology radius="15" in="SourceAlpha" result="effect1_dropShadow_7253_71004"/><feOffset dx="7" dy="15"/><feGaussianBlur stdDeviation="23"/><feColorMatrix values="0 0 0 0 0.176471 0 0 0 0 0.678431 0 0 0 0 0.439216 0 0 0 0.3 0"/><feBlend in2="BackgroundImageFix" result="effect1_dropShadow_7253_71004"/><feColorMatrix in="SourceAlpha" values="0 0 0 0 0 0 0 0 0 0 0 0 0 0 0 0 0 0 127 0" result="hardAlpha"/><feMorphology radius="18" in="SourceAlpha" result="effect2_dropShadow_7253_71004"/><feOffset dx="-13" dy="-16"/><feGaussianBlur stdDeviation="24"/><feComposite in2="hardAlpha" operator="out"/><feColorMatrix values="0 0 0 0 0.0941176 0 0 0 0 0.388235 0 0 0 0 0.862745 0 0 0 0.3 0"/><feBlend in2="effect1_dropShadow_7253_71004" result="effect2_dropShadow_7253_71004"/><feBlend in="SourceGraphic" in2="effect2_dropShadow_7253_71004" result="shape"/></filter><linearGradient id="b" x1="828.576" y1="-199.735" x2="250.122" y2="515.022" gradientUnits="userSpaceOnUse"><stop stop-color="#1863DC"/><stop offset="1" stop-color="#D1E0F8"/></linearGradient><clipPath id="a"><rect width="379" height="226" rx="8" fill="#fff"/></clipPath></defs></svg>