<svg xmlns="http://www.w3.org/2000/svg" fill="none" viewBox="0 0.5 19 19"><path fill-rule="evenodd" clip-rule="evenodd" d="M0 10C0 4.756 4.256.5 9.5.5S19 4.756 19 10s-4.256 9.5-9.5 9.5S0 15.244 0 10zm10.694 6.056H8.75V14.11h1.944v1.945zM9.5 18c-4.41 0-8-3.59-8-8s3.59-8 8-8 8 3.59 8 8-3.59 8-8 8zM5.833 8.278a3.888 3.888 0 0 1 3.89-3.89 3.888 3.888 0 0 1 3.888 3.89c0 1.247-.768 1.918-1.516 2.572-.71.62-1.4 1.224-1.4 2.289H8.75c0-1.77.916-2.473 1.721-3.09.632-.484 1.196-.916 1.196-1.771a1.95 1.95 0 0 0-1.945-1.945 1.95 1.95 0 0 0-1.944 1.945H5.833z" fill="#087CE1"/></svg>