<svg width="45" height="22" viewBox="0 0 45 22" fill="none" xmlns="http://www.w3.org/2000/svg">
<rect width="45" height="22" rx="2" fill="#4493F9"/>
<path d="M16.6697 6.54545V16H15.3587L10.5529 9.06605H10.4652V16H9.03871V6.54545H10.359L15.1694 13.4886H15.2571V6.54545H16.6697ZM21.6959 16.1431C20.9973 16.1431 20.3956 15.9938 19.8909 15.6953C19.3892 15.3937 19.0015 14.9705 18.7275 14.4258C18.4567 13.878 18.3213 13.2363 18.3213 12.5007C18.3213 11.7744 18.4567 11.1342 18.7275 10.5803C19.0015 10.0263 19.3831 9.59387 19.8724 9.28303C20.3648 8.97218 20.9404 8.81676 21.599 8.81676C21.9991 8.81676 22.3869 8.88293 22.7623 9.01527C23.1378 9.14761 23.4748 9.35535 23.7733 9.63849C24.0719 9.92164 24.3073 10.2894 24.4797 10.7418C24.652 11.1912 24.7382 11.7375 24.7382 12.3807V12.87H19.1015V11.8359H23.3856C23.3856 11.4728 23.3117 11.1512 23.164 10.8711C23.0162 10.5879 22.8085 10.3648 22.5407 10.2017C22.2761 10.0386 21.9652 9.95703 21.6082 9.95703C21.2204 9.95703 20.8819 10.0524 20.5926 10.2433C20.3064 10.431 20.0848 10.6772 19.9278 10.9819C19.7739 11.2835 19.697 11.6113 19.697 11.9652V12.7731C19.697 13.247 19.7801 13.6502 19.9463 13.9826C20.1156 14.315 20.351 14.5689 20.6526 14.7443C20.9542 14.9167 21.3066 15.0028 21.7098 15.0028C21.9714 15.0028 22.2099 14.9659 22.4253 14.892C22.6408 14.8151 22.827 14.7012 22.9839 14.5504C23.1409 14.3996 23.2609 14.2134 23.344 13.9918L24.6505 14.2273C24.5458 14.612 24.3581 14.949 24.0873 15.2383C23.8195 15.5245 23.4825 15.7476 23.0763 15.9077C22.6731 16.0646 22.213 16.1431 21.6959 16.1431ZM27.7943 16L25.7077 8.90909H27.1341L28.5237 14.1165H28.593L29.9871 8.90909H31.4136L32.7986 14.0934H32.8678L34.2481 8.90909H35.6746L33.5926 16H32.1846L30.7442 10.8803H30.6381L29.1977 16H27.7943Z" fill="white"/>
</svg>
