<svg width="379" height="226" fill="none" xmlns="http://www.w3.org/2000/svg"><g clip-path="url(#a)"><rect width="379" height="226" rx="8" fill="url(#b)"/><g clip-path="url(#c)"><rect x="34" y="15" width="320" height="195" rx="4" fill="#fff"/><path d="M354 28.95H34v92.625h320V28.949z" fill="#D4FBFF"/><path d="M353.983 109.562H34v12.031h319.983v-12.031zM34 109.562V89.833l26.591 6.916s52.927 4.911 76.551.357h13.389l8.085-2.277h16.92l17.108-2.328 8.409-3.194 17.074 6.66 35.904 3.96-24.937 9.618H34v.017z" fill="#A4D4E0"/><path d="M229.094 107.981v1.581H34s24.067-12.88 24.067-19.015h4.793l7.078-8.156h14.55l28.484 12.88c3.719 2.396 7.591 4.452 11.019 5.421h10.865l21.73 5.522h32.084l17.943 1.224 22.481.526v.017z" fill="#BDEBF2"/><path d="M62.86 90.53h13.987l19.751 8.275-15.538-8.53 8.323-3.755H76.25l-6.311-4.13-7.079 8.14zM124.008 100.709h-18.694L93.938 89.307l11.376 5.964h7.676c3.718 2.396 7.59 4.452 11.018 5.421v.017zM43.38 110.241l19.48-4.418 3.36-5.829 13.457-1.92 17.79 9.312h31.078l13.782 2.855H43.381z" fill="#A4D4E0"/><path d="m201.053 89.307 9.722 6.66-13.27 1.173-18.183 7.834-21.474-3.603h-13.884l12.127-1.937-5.56-2.328 8.085-2.277h16.92l17.108-2.328 8.409-3.194z" fill="#BDEBF2"/><path d="M338.717 57.207c0 5.846-4.758 10.587-10.626 10.587-5.867 0-10.626-4.741-10.626-10.587 0-5.845 4.759-10.586 10.626-10.586 5.868 0 10.626 4.741 10.626 10.586z" fill="#A4D4E0"/><path d="m264.845 95.967-30.634.645-6.191 4.571-17.245 3.671 5.066.883 19.632 1.224 18.558-7.154 10.814-3.84z" fill="#BDEBF2"/><path d="m354 90.004-4.077 1.988h-11.018c-19.428 6.508-62.991-.493-62.991-.493l-46.82 18.063 24.937.187H354V90.004z" fill="#A4D4E0"/><path d="m354 104.601-16.971-7.477h-8.938c-2.814-1.393-6.004-4.333-9.074-7.749l-17.995-14.103-11.496 3.789-7.437 6.22-10.967 1.766-17.091 22.719H354v-5.165z" fill="#BDEBF2"/><path d="M328.091 97.123h-15.385l-9.364-16.262 9.364 8.514h6.311c3.07 3.415 6.243 6.355 9.074 7.748zM261.74 110.717l16.033-6.305 2.764-8.292 11.069-2.753 14.652 13.305h25.568l11.343 4.045H261.74z" fill="#A4D4E0"/><path d="m354 90.004-4.094 1.988L354 94.949v-4.945zM354 95.441l-9.501 2.617H354v-2.617z" fill="#BDEBF2"/><path d="m289.526 79.043 4.298 5.607 10.968 9.686-15.266-6.372-18.404-.935 10.967-1.767 7.437-6.219z" fill="#A4D4E0"/><path d="M354 15H34v13.95h320V15z" fill="#9DA2AD"/><path d="M336.671 21.965a2.83 2.83 0 0 1-2.832 2.821 2.819 2.819 0 0 1-2.831-2.82 2.819 2.819 0 0 1 2.831-2.822 2.82 2.82 0 0 1 2.832 2.821z" fill="#AAAFBA"/><path d="M326.778 21.965a2.83 2.83 0 0 1-2.831 2.821 2.82 2.82 0 0 1-2.832-2.82 2.82 2.82 0 0 1 2.832-2.822 2.819 2.819 0 0 1 2.831 2.821z" fill="#8B929D"/><path d="M346.564 21.965a2.83 2.83 0 0 1-2.831 2.821 2.82 2.82 0 1 1 0-5.642 2.819 2.819 0 0 1 2.831 2.821zM299.589 21.983a3.772 3.772 0 0 1-1.109 2.668 3.798 3.798 0 0 1-2.678 1.105H108.861c-2.081 0-3.803-1.7-3.803-3.773a3.77 3.77 0 0 1 1.108-2.668 3.801 3.801 0 0 1 2.678-1.104h186.924a3.8 3.8 0 0 1 3.804 3.79l.017-.018z" fill="#E5E7EB"/><path d="M102.176 21.969a3.771 3.771 0 0 1-1.109 2.668 3.798 3.798 0 0 1-2.678 1.104H88.36c-2.08 0-3.786-1.699-3.786-3.789a3.77 3.77 0 0 1 1.109-2.668 3.799 3.799 0 0 1 2.678-1.104h10.03c2.08 0 3.786 1.699 3.786 3.772v.017z" fill="#AAAFBA"/><path d="M42.852 25.33a.53.53 0 0 1-.375-.152l-2.865-2.821a.537.537 0 0 1-.154-.39c0-.154.051-.29.154-.392l2.865-2.82a.558.558 0 0 1 .768 0c.204.22.204.56 0 .764l-2.474 2.43 2.474 2.43c.204.204.221.56 0 .765a.542.542 0 0 1-.393.153v.034zM57.027 18.621a.53.53 0 0 1 .375.153l2.866 2.82a.537.537 0 0 1 .153.392.537.537 0 0 1-.153.39l-2.866 2.821a.558.558 0 0 1-.767 0 .553.553 0 0 1 0-.764l2.473-2.43-2.473-2.43c-.205-.204-.222-.561 0-.765a.542.542 0 0 1 .392-.153v-.034z" fill="#8B929D"/><path d="M354 28.95H34v11.775h320V28.949z" fill="#508099"/><path d="M337.301 35.184c0 .765-.256 1.461-.665 1.971-.409.51-.972.816-1.603.816h-57.174c-1.245 0-2.286-1.258-2.286-2.804 0-.765.256-1.478.665-1.988.41-.51.99-.816 1.604-.816h57.174c1.245 0 2.285 1.258 2.285 2.804v.017z" fill="#D4FBFF"/><path d="M333.549 36.46a1.715 1.715 0 1 1 0-3.433 1.715 1.715 0 1 1 0 3.433zm0-2.82c-.614 0-1.126.492-1.126 1.12 0 .63.495 1.122 1.126 1.122.631 0 1.126-.493 1.126-1.121 0-.63-.495-1.122-1.126-1.122z" fill="#508099"/><path d="M331.263 37.325s-.154-.034-.205-.085a.297.297 0 0 1 0-.425l1.262-1.257a.3.3 0 0 1 .427 0 .297.297 0 0 1 0 .425l-1.262 1.257s-.137.085-.205.085h-.017zM173.711 86.131c0 .918-.375 1.75-.989 2.345a3.277 3.277 0 0 1-2.354.986h-22.941a3.342 3.342 0 0 1-3.343-3.33c0-.918.375-1.75.989-2.346a3.307 3.307 0 0 1 2.354-.985h22.941c1.825 0 3.343 1.495 3.343 3.33z" fill="#508099"/><path d="M111.591 135.885H50.545v39.813h61.046v-39.813z" fill="#A4D4E0"/><path d="M50.545 175.699v-12.252l15.846-6.661h13.525l12.708-8.02 14.123 7.018 4.844 1.257v18.658H50.545z" fill="#7DB5D0"/><path d="M50.545 175.698v-8.785l13.611 4.384h14.379l11.786-7.596h16.886l4.384 4.282v7.715H50.545zM66.374 151.704c3.589 0 6.498-2.898 6.498-6.474s-2.91-6.474-6.498-6.474c-3.59 0-6.499 2.898-6.499 6.474s2.91 6.474 6.499 6.474z" fill="#508099"/><path d="M79.916 156.786h17.91l-5.203-8.02-12.707 8.02zM66.39 156.785l3.582 8.36 8.068 3.263H61.444l-10.9-4.962 15.847-6.661z" fill="#649DB4"/><path d="M70.57 195.273H55.577a2.47 2.47 0 0 0-2.474 2.464v.799A2.469 2.469 0 0 0 55.578 201H70.57a2.468 2.468 0 0 0 2.473-2.464v-.799a2.47 2.47 0 0 0-2.474-2.464z" fill="#508099"/><path d="M187.22 135.852h-61.046v39.813h61.046v-39.813z" fill="#7DB5D0"/><path d="M126.174 175.664v-12.251l15.828-6.661h13.526l12.708-8.004 14.122 7.018 4.862 1.257v18.641h-61.046z" fill="#508099"/><path d="M126.174 175.665v-8.785l13.611 4.401h14.362l11.803-7.595h16.869l4.401 4.265v7.714h-61.046z" fill="#649DB4"/><path d="M148.501 145.197c0 3.568-2.9 6.474-6.499 6.474-3.598 0-6.498-2.889-6.498-6.474 0-3.586 2.9-6.474 6.498-6.474 3.599 0 6.499 2.888 6.499 6.474z" fill="#A4D4E0"/><path d="M155.528 156.752h17.91l-5.202-8.004-12.708 8.004zM142.002 156.752l3.599 8.36 8.068 3.263h-16.596l-10.899-4.962 15.828-6.661z" fill="#649DB4"/><path d="M146.182 195.24h-14.993a2.468 2.468 0 0 0-2.473 2.464v.799a2.468 2.468 0 0 0 2.473 2.464h14.993a2.468 2.468 0 0 0 2.473-2.464v-.799a2.468 2.468 0 0 0-2.473-2.464z" fill="#7DB5D0"/><path d="M261.826 135.867H200.78v39.814h61.046v-39.814z" fill="#A4D4E0"/><path d="M200.78 175.681V163.43l15.829-6.661h13.526l12.707-8.021 14.123 7.035 4.861 1.257v18.641H200.78z" fill="#7DB5D0"/><path d="M200.78 175.681v-8.785l13.611 4.384h14.362l11.803-7.579h16.869l4.401 4.265v7.715H200.78zM223.108 145.212c0 3.569-2.9 6.475-6.499 6.475-3.599 0-6.499-2.889-6.499-6.475 0-3.585 2.9-6.474 6.499-6.474 3.599 0 6.499 2.889 6.499 6.474z" fill="#508099"/><path d="M230.135 156.769h17.909l-5.202-8.021-12.707 8.021zM216.609 156.768l3.599 8.36 8.068 3.262h-16.597l-10.899-4.961 15.829-6.661z" fill="#649DB4"/><path d="M220.787 195.256h-14.992a2.47 2.47 0 0 0-2.474 2.464v.798a2.47 2.47 0 0 0 2.474 2.464h14.992a2.47 2.47 0 0 0 2.474-2.464v-.798a2.47 2.47 0 0 0-2.474-2.464z" fill="#508099"/><path d="M337.438 135.834h-61.045v39.813h61.045v-39.813z" fill="#7DB5D0"/><path d="M276.393 175.647v-12.252l15.845-6.661h13.526l12.707-8.004 14.106 7.018 4.861 1.258v18.641h-61.045z" fill="#508099"/><path d="M276.393 175.648v-8.785l13.611 4.401h14.379l11.786-7.596h16.886l4.383 4.265v7.715h-61.045z" fill="#649DB4"/><path d="M298.72 145.179c0 3.569-2.9 6.474-6.499 6.474-3.599 0-6.498-2.888-6.498-6.474 0-3.585 2.899-6.474 6.498-6.474s6.499 2.889 6.499 6.474z" fill="#A4D4E0"/><path d="M305.764 156.734h17.909l-5.202-8.004-12.707 8.004zM292.238 156.734l3.582 8.361 8.068 3.279h-16.596l-10.899-4.979 15.845-6.661z" fill="#649DB4"/><path d="M296.417 195.223h-14.993a2.468 2.468 0 0 0-2.473 2.464v.798a2.468 2.468 0 0 0 2.473 2.464h14.993a2.468 2.468 0 0 0 2.473-2.464v-.798a2.468 2.468 0 0 0-2.473-2.464z" fill="#7DB5D0"/><path fill="#5CA6FF" style="mix-blend-mode:color" d="M27 9h335v201H27z"/><path fill="#000" fill-opacity=".15" d="M27 29h335v181H27z"/><g filter="url(#d)"><rect x="115" y="75" width="172" height="84" rx="4" fill="#fff" shape-rendering="crispEdges"/><path fill="#D9D9D9" d="M128.595 102.762h142.72v1.352h-142.72zM128.595 111.633h142.72v1.352h-142.72zM128.595 121.49h121.906v1.352H128.595z"/><path stroke="#4682E3" d="M129.062 137.139h43.291v12.138h-43.291zM177.238 137.139h43.291v12.138h-43.291z"/><path fill="#4682E3" stroke="#4682E3" d="M225.414 137.141h45.622v12.138h-45.622z"/><path d="m189.059 88.993.893-2.317h.655l-1.876 4.47h-.654l.621-1.48-1.204-2.99h.705l.86 2.317zM184.316 88.192c0-.949.622-1.567 1.498-1.567.75 0 1.238.37 1.41 1.01h-.683c-.105-.293-.349-.48-.727-.48-.51 0-.848.375-.848 1.037 0 .668.338 1.043.848 1.043.378 0 .611-.165.727-.48h.683c-.172.596-.66 1.01-1.41 1.01-.876 0-1.498-.618-1.498-1.573zM180.557 88.181c0-.938.638-1.556 1.442-1.556.516 0 .871.243 1.06.491v-.441h.638v3.04h-.638v-.452c-.194.26-.56.502-1.071.502-.793 0-1.431-.646-1.431-1.584zm2.502.011c0-.651-.449-1.02-.927-1.02-.471 0-.926.353-.926 1.01 0 .656.455 1.037.926 1.037.478 0 .927-.37.927-1.027zM177.21 86.676h.677l.865 2.477.866-2.477h.671l-1.165 3.04h-.754l-1.16-3.04zM176.108 89.716v-3.04h.632v3.04h-.632zm.321-3.444a.4.4 0 0 1-.405-.402.4.4 0 0 1 .405-.403c.222 0 .4.176.4.403a.398.398 0 0 1-.4.402zM174.611 88.115v1.6h-.632v-3.04h.632v.441c.178-.303.483-.491.916-.491v.651h-.161c-.466 0-.755.193-.755.839zM170.85 87.122a1.337 1.337 0 0 1 1.066-.497c.804 0 1.437.618 1.437 1.556 0 .938-.633 1.584-1.437 1.584-.505 0-.866-.254-1.066-.491v1.887h-.632v-4.486h.632v.447zm1.859 1.06c0-.657-.455-1.01-.932-1.01-.472 0-.927.369-.927 1.02 0 .657.455 1.027.927 1.027.477 0 .932-.381.932-1.038zM167.28 88.115v1.6h-.633v-3.04h.633v.441c.178-.303.483-.491.915-.491v.651h-.16c-.467 0-.755.193-.755.839zM165.812 86.676v3.04h-.633v-.364c-.199.26-.543.408-.904.408-.716 0-1.259-.447-1.259-1.296v-1.788h.627v1.694c0 .557.305.844.765.844.466 0 .771-.287.771-.844v-1.694h.633zM162.419 88.192c0 .955-.71 1.573-1.587 1.573-.871 0-1.531-.618-1.531-1.573 0-.954.688-1.567 1.559-1.567s1.559.612 1.559 1.567zm-2.475 0c0 .69.411 1.027.888 1.027.472 0 .938-.337.938-1.027s-.45-1.02-.921-1.02c-.477 0-.905.33-.905 1.02zM157.481 88.993l.893-2.317h.655l-1.876 4.47h-.654l.621-1.48-1.204-2.99h.705l.86 2.317zM152.698 87.155c-.427 0-.771.287-.838.767h1.693c-.011-.47-.383-.767-.855-.767zm1.432 1.655c-.172.53-.655.955-1.404.955-.877 0-1.526-.618-1.526-1.573 0-.954.622-1.567 1.526-1.567.871 0 1.487.602 1.487 1.495 0 .105-.006.205-.022.31h-2.336c.044.502.405.805.871.805.388 0 .605-.188.721-.425h.683zM150.576 86.676v3.04h-.633v-.364c-.2.26-.544.408-.904.408-.716 0-1.26-.447-1.26-1.296v-1.788h.627v1.694c0 .557.305.844.766.844.466 0 .771-.287.771-.844v-1.694h.633zM146.345 89.716v-4.083h.632v4.083h-.632zM142.373 88.181c0-.938.638-1.556 1.443-1.556.516 0 .871.243 1.059.491v-.441h.638v3.04h-.638v-.452c-.194.26-.56.502-1.07.502-.794 0-1.432-.646-1.432-1.584zm2.502.011c0-.651-.449-1.02-.926-1.02-.472 0-.927.353-.927 1.01 0 .656.455 1.037.927 1.037.477 0 .926-.37.926-1.027zM139.026 86.676h.677l.866 2.477.865-2.477h.672l-1.165 3.04h-.755l-1.16-3.04zM135.809 87.155c-.428 0-.772.287-.838.767h1.692c-.011-.47-.383-.767-.854-.767zm1.431 1.655c-.172.53-.655.955-1.404.955-.876 0-1.525-.618-1.525-1.573 0-.954.621-1.567 1.525-1.567.871 0 1.487.602 1.487 1.495 0 .105-.005.205-.022.31h-2.336c.045.502.405.805.871.805.389 0 .605-.188.722-.425h.682zM129.761 89.722l-1.093-3.841h.671l.799 3.123.866-3.123h.71l.805 3.107.804-3.107H134l-1.143 3.835h-.716l-.81-2.903-.86 2.903-.71.006z" fill="#3E3F51"/><path d="M159.744 143.144c-.332 0-.6.224-.651.597h1.316c-.009-.365-.298-.597-.665-.597zm1.114 1.288c-.134.412-.51.743-1.092.743-.682 0-1.187-.481-1.187-1.224 0-.742.483-1.219 1.187-1.219.677 0 1.156.468 1.156 1.164 0 .081-.004.158-.017.24h-1.817c.035.39.315.627.678.627.302 0 .47-.146.561-.331h.531zM158.227 142.771v.4l-1.079 1.566h1.079v.399h-1.649v-.399l1.083-1.566h-1.083v-.4h1.649zM155.574 145.137v-2.365h.491v2.365h-.491zm.25-2.678a.311.311 0 0 1-.315-.314.31.31 0 0 1 .315-.313.31.31 0 0 1 .311.313.31.31 0 0 1-.311.314zM154.46 145.136v-1.322c0-.433-.237-.657-.595-.657-.363 0-.6.224-.6.657v1.322h-.488v-1.322c0-.433-.237-.657-.595-.657-.363 0-.6.224-.6.657v1.322h-.492v-2.365h.492v.27a.906.906 0 0 1 .703-.309c.376 0 .691.159.855.468.146-.287.483-.468.828-.468.557 0 .98.348.98 1.009v1.395h-.488zM150.604 143.953c0 .743-.552 1.224-1.234 1.224-.678 0-1.191-.481-1.191-1.224 0-.742.535-1.219 1.212-1.219.678 0 1.213.477 1.213 1.219zm-1.925 0c0 .537.32.799.691.799.367 0 .729-.262.729-.799 0-.536-.349-.794-.716-.794-.371 0-.704.258-.704.794zM146.81 144.48v-1.309h-.281v-.399h.281v-.588h.496v.588h.578v.399h-.578v1.309c0 .176.069.249.276.249h.302v.407h-.388c-.423 0-.686-.176-.686-.656zM146.201 144.475c0 .399-.35.7-.911.7-.569 0-.971-.335-.992-.764h.509c.017.193.203.352.475.352.285 0 .436-.121.436-.284 0-.463-1.381-.197-1.381-1.064 0-.378.354-.683.915-.683.539 0 .893.288.919.76h-.492c-.017-.206-.177-.348-.445-.348-.263 0-.401.108-.401.267 0 .476 1.342.21 1.368 1.064zM143.778 142.771v2.365h-.491v-.283c-.156.202-.423.318-.704.318-.557 0-.979-.348-.979-1.009v-1.391h.487v1.318c0 .434.238.657.596.657.362 0 .6-.223.6-.657v-1.318h.491zM138.123 143.639c0-.893.686-1.524 1.532-1.524.626 0 1.165.314 1.394.897h-.591c-.16-.317-.445-.468-.803-.468-.596 0-1.027.421-1.027 1.095 0 .674.431 1.099 1.027 1.099.358 0 .643-.151.803-.468h.591c-.229.584-.768.893-1.394.893-.846 0-1.532-.627-1.532-1.524zM207.923 145.137v-3.176h.492v3.176h-.492zM206.785 145.137v-3.176h.492v3.176h-.492zM205.799 145.136l-.215-.61h-1.256l-.216.61h-.513l1.074-2.988h.57l1.074 2.988h-.518zm-.353-1.009-.488-1.386-.492 1.386h.98zM201.127 144.48v-1.309h-.28v-.399h.28v-.588h.496v.588h.579v.399h-.579v1.309c0 .176.07.249.277.249h.302v.407h-.389c-.423 0-.686-.176-.686-.656zM198.298 143.951c0-.738.483-1.219 1.165-1.219.583 0 .962.288 1.096.786h-.531c-.082-.228-.272-.374-.565-.374-.397 0-.66.292-.66.807 0 .52.263.812.66.812.293 0 .475-.129.565-.374h.531c-.134.464-.513.786-1.096.786-.682 0-1.165-.481-1.165-1.224zM196.8 143.146c-.332 0-.6.224-.652.597h1.316c-.008-.365-.297-.597-.664-.597zm1.113 1.288c-.133.412-.509.743-1.091.743-.682 0-1.187-.481-1.187-1.224 0-.742.483-1.219 1.187-1.219.677 0 1.156.468 1.156 1.163 0 .082-.004.159-.017.241h-1.817c.035.39.315.626.678.626.302 0 .47-.145.561-.33h.53zM194.911 142.459a.311.311 0 0 1-.315-.314.31.31 0 0 1 .315-.313c.172 0 .31.137.31.313a.31.31 0 0 1-.31.314zm-.251.313h.492v2.828c0 .481-.259.661-.682.661h-.254v-.412h.168c.207 0 .276-.073.276-.249v-2.828zM192.998 143.144c-.332 0-.6.224-.651.597h1.316c-.009-.365-.298-.597-.665-.597zm1.114 1.288c-.134.412-.51.743-1.092.743-.682 0-1.187-.481-1.187-1.224 0-.742.483-1.219 1.187-1.219.677 0 1.156.468 1.156 1.164 0 .081-.004.158-.017.24h-1.817c.035.39.315.627.678.627.302 0 .47-.146.561-.331h.531zM190.863 143.047c0-.3-.173-.494-.557-.494h-.544v1h.544c.384 0 .557-.21.557-.506zm-1.592-.893h1.035c.712 0 1.062.408 1.062.893 0 .352-.19.73-.695.854l.742 1.236h-.587l-.69-1.193h-.376v1.193h-.491v-2.983z" fill="#1863DC"/><path d="M257.931 145.008v-3.176h.492v3.176h-.492zM256.793 145.008v-3.176h.492v3.176h-.492zM255.808 145.009l-.215-.61h-1.256l-.216.61h-.514l1.075-2.988h.57l1.074 2.988h-.518zm-.354-1.009-.487-1.386-.492 1.386h.979zM251.135 144.351v-1.309h-.281v-.399h.281v-.588h.496v.588h.579v.399h-.579v1.309c0 .176.069.249.276.249h.303v.408h-.389c-.423 0-.686-.176-.686-.657zM248.625 142.992c.151-.198.44-.387.828-.387.626 0 1.118.481 1.118 1.211 0 .729-.492 1.232-1.118 1.232-.392 0-.673-.198-.828-.382v1.467h-.492v-3.489h.492v.348zm1.445.824c0-.511-.353-.786-.725-.786-.366 0-.72.288-.72.794 0 .511.354.799.72.799.372 0 .725-.296.725-.807zM246.471 143.017c-.332 0-.6.224-.652.597h1.316c-.008-.365-.297-.597-.664-.597zm1.113 1.288c-.134.412-.509.743-1.092.743-.681 0-1.186-.481-1.186-1.224 0-.742.483-1.219 1.186-1.219.678 0 1.157.468 1.157 1.164 0 .081-.004.158-.017.24h-1.817c.034.391.315.627.677.627.302 0 .471-.146.561-.331h.531zM242.718 143.824c0-.738.483-1.219 1.165-1.219.583 0 .962.288 1.096.786h-.531c-.082-.228-.272-.374-.565-.374-.397 0-.66.292-.66.807 0 .52.263.812.66.812.293 0 .475-.129.565-.374h.531c-.134.464-.513.786-1.096.786-.682 0-1.165-.481-1.165-1.224zM240.13 143.824c0-.738.483-1.219 1.165-1.219.583 0 .962.288 1.096.786h-.531c-.082-.228-.272-.374-.565-.374-.397 0-.66.292-.66.807 0 .52.263.812.66.812.293 0 .475-.129.565-.374h.531c-.134.464-.513.786-1.096.786-.682 0-1.165-.481-1.165-1.224zM239.309 145.009l-.216-.61h-1.255l-.216.61h-.514l1.075-2.988h.57l1.074 2.988h-.518zm-.354-1.009-.487-1.386-.492 1.386h.979z" fill="#fff"/></g></g></g><defs><clipPath id="a"><rect width="379" height="226" rx="8" fill="#fff"/></clipPath><clipPath id="c"><rect x="34" y="15" width="320" height="195" rx="4" fill="#fff"/></clipPath><linearGradient id="b" x1="828.576" y1="-199.735" x2="250.122" y2="515.022" gradientUnits="userSpaceOnUse"><stop stop-color="#1863DC"/><stop offset="1" stop-color="#D1E0F8"/></linearGradient><filter id="d" x="88" y="58" width="228" height="140" filterUnits="userSpaceOnUse" color-interpolation-filters="sRGB"><feFlood flood-opacity="0" result="BackgroundImageFix"/><feColorMatrix in="SourceAlpha" values="0 0 0 0 0 0 0 0 0 0 0 0 0 0 0 0 0 0 127 0" result="hardAlpha"/><feMorphology radius="9" in="SourceAlpha" result="effect1_dropShadow_7253_107506"/><feOffset dx="1" dy="11"/><feGaussianBlur stdDeviation="18.5"/><feComposite in2="hardAlpha" operator="out"/><feColorMatrix values="0 0 0 0 0 0 0 0 0 0 0 0 0 0 0 0 0 0 0.22 0"/><feBlend in2="BackgroundImageFix" result="effect1_dropShadow_7253_107506"/><feBlend in="SourceGraphic" in2="effect1_dropShadow_7253_107506" result="shape"/></filter></defs></svg>