<svg width="32" height="33" viewBox="0 0 32 33" fill="none" xmlns="http://www.w3.org/2000/svg">
<g clip-path="url(#clip0_900_87)">
<path d="M10.5202 20.8299L15.139 23.4966L21.9161 17.2542C22.8685 16.3774 23.5938 15.2825 24.0299 14.0637C24.466 12.8448 24.5997 11.5384 24.4198 10.2565L23.6391 4.70196C23.6222 4.58153 23.5781 4.46653 23.5102 4.3657C23.4422 4.26487 23.3521 4.18086 23.2468 4.12006C23.1415 4.05926 23.0237 4.02327 22.9024 4.01482C22.7811 4.00637 22.6595 4.02568 22.5467 4.07129L17.3461 6.17246C16.1459 6.65755 15.0813 7.42664 14.2438 8.41371C13.4063 9.40078 12.8208 10.5764 12.5377 11.8395L10.5202 20.8299ZM10.5202 20.8299L5.72274 21.1393C5.72274 21.1393 6.08 15.1872 11.7881 14.6338M8.52017 24.294C7.18684 26.6034 8.82957 29.0914 8.82957 29.0914C8.82957 29.0914 11.8056 29.2701 13.139 26.9607M20.3687 19.5878C22.7435 24.8078 17.7674 28.0933 17.7674 28.0933L15.6366 23.7839" stroke="#136FE8" stroke-width="2" stroke-linecap="round" stroke-linejoin="round"/>
<path d="M16.8297 15.235C16.2173 14.8814 15.7703 14.299 15.5873 13.6158C15.4042 12.9327 15.5001 12.2048 15.8537 11.5923C16.2073 10.9798 16.7898 10.5329 17.4729 10.3498C18.156 10.1668 18.8839 10.2626 19.4964 10.6162C20.1089 10.9699 20.5558 11.5523 20.7389 12.2354C20.9219 12.9186 20.8261 13.6465 20.4725 14.259C20.1189 14.8715 19.5364 15.3184 18.8533 15.5014C18.1701 15.6845 17.4422 15.5887 16.8297 15.235Z" stroke="#136FE8" stroke-width="2" stroke-linecap="round" stroke-linejoin="round"/>
</g>
<defs>
<clipPath id="clip0_900_87">
<rect width="32" height="32" fill="white" transform="translate(0 0.5)"/>
</clipPath>
</defs>
</svg>
