<svg width="44" height="42" viewBox="0 0 44 42" fill="none" xmlns="http://www.w3.org/2000/svg">
<path d="M0 12.5199C0 6.95291 4.51297 2.43994 10.08 2.43994H29.04C34.607 2.43994 39.12 6.95291 39.12 12.5199V31.4799C39.12 37.047 34.607 41.5599 29.04 41.5599H10.08C4.51297 41.5599 0 37.047 0 31.4799V12.5199Z" fill="#E8F1FE"/>
<g clip-path="url(#clip0_916_1420)">
<mask id="mask0_916_1420" style="mask-type:luminance" maskUnits="userSpaceOnUse" x="8" y="9" width="24" height="25">
<path d="M8 9.93946H32V33.9395H8V9.93946Z" fill="white"/>
</mask>
<g mask="url(#mask0_916_1420)">
<path d="M16.4375 29.252C16.4375 31.323 14.7586 33.002 12.6875 33.002C10.6164 33.002 8.9375 31.323 8.9375 29.252V12.752C8.9375 11.7164 9.77698 10.877 10.8125 10.877H14.5625C15.598 10.877 16.4375 11.7164 16.4375 12.752V29.252Z" stroke="#136FE8" stroke-width="2" stroke-miterlimit="10"/>
<path d="M20.1875 16.4488L21.9683 14.6681C22.7005 13.9358 23.8877 13.9358 24.6199 14.6681L27.2716 17.3197C28.0038 18.052 28.0038 19.2391 27.2716 19.9714L15.3391 31.9038" stroke="#136FE8" stroke-width="2" stroke-miterlimit="10"/>
<path d="M26.669 25.502H29.1875C30.223 25.502 31.0625 26.3414 31.0625 27.377V31.127C31.0625 32.1625 30.223 33.002 29.1875 33.002H12.6875" stroke="#136FE8" stroke-width="2" stroke-miterlimit="10"/>
<path d="M11.75 29.252H13.625" stroke="#136FE8" stroke-width="2" stroke-miterlimit="10"/>
</g>
</g>
<rect x="26" y="0.000488281" width="18" height="18" rx="9" fill="#FFE8C6"/>
<path d="M39.4902 8.20623L38.6403 12.2095C38.6235 12.2932 38.5798 12.3681 38.5167 12.4212C38.4537 12.4743 38.3752 12.5023 38.2949 12.5004H31.6756C31.5953 12.5023 31.5168 12.4743 31.4538 12.4212C31.3907 12.3681 31.347 12.2932 31.3302 12.2095L30.5079 8.20623C30.4941 8.13859 30.4984 8.06816 30.5204 8.00302C30.5424 7.93788 30.5812 7.88067 30.6323 7.83795C30.6836 7.79508 30.7451 7.76853 30.8099 7.76136C30.8747 7.75419 30.9401 7.7667 30.9985 7.79744L33.0161 8.83968L34.6881 5.68719C34.7183 5.63051 34.762 5.58337 34.8148 5.55057C34.8676 5.51777 34.9276 5.50049 34.9887 5.50049C35.0498 5.50049 35.1098 5.51777 35.1626 5.55057C35.2154 5.58337 35.2591 5.63051 35.2893 5.68719L36.9613 8.84336L38.9927 7.79376C39.0516 7.76051 39.1181 7.7461 39.1845 7.75225C39.2508 7.75841 39.3141 7.78487 39.3666 7.82845C39.4192 7.87202 39.4588 7.93087 39.4807 7.99789C39.5027 8.06491 39.5059 8.13726 39.4902 8.20623Z" fill="#FFB240"/>
<defs>
<clipPath id="clip0_916_1420">
<rect width="24" height="24" fill="white" transform="translate(7.56 10)"/>
</clipPath>
</defs>
</svg>
