<svg width="379" height="226" fill="none" xmlns="http://www.w3.org/2000/svg"><g clip-path="url(#a)"><rect width="379" height="226" rx="8" fill="url(#b)"/><path d="M290.781 18H106.219c-2.33 0-4.219 1.88-4.219 4.2v173.6c0 2.32 1.889 4.2 4.219 4.2h184.562c2.33 0 4.219-1.88 4.219-4.2V22.2c0-2.32-1.889-4.2-4.219-4.2z" fill="#fff"/><path d="M114.364 37.25h1.04l-1.765-4.894h-1.146l-1.764 4.893h1.033l.323-.93h1.955l.324.93zm-.591-1.716h-1.42l.71-2.044.71 2.044zm2.038-.238c0 1.211.787 2.016 1.779 2.016.611 0 1.047-.28 1.279-.637v.574h.999v-5.18h-.999v1.841c-.267-.364-.759-.602-1.272-.602-.999 0-1.786.777-1.786 1.988zm3.065.014c0 .735-.492 1.141-1.033 1.141-.528 0-1.027-.42-1.027-1.155 0-.735.499-1.127 1.027-1.127.541 0 1.033.406 1.033 1.141zm1.7-.014c0 1.211.787 2.016 1.779 2.016.611 0 1.047-.28 1.279-.637v.574h.999v-5.18h-.999v1.841c-.267-.364-.759-.602-1.272-.602-.999 0-1.786.777-1.786 1.988zm3.065.014c0 .735-.492 1.141-1.033 1.141-.528 0-1.027-.42-1.027-1.155 0-.735.499-1.127 1.027-1.127.541 0 1.033.406 1.033 1.141zm3.628-2.947v4.886h2.602v-.777h-1.617v-4.109h-.985zm2.974 2.933c0 1.211.788 2.016 1.772 2.016.619 0 1.062-.294 1.294-.63v.567h.991v-3.878h-.991v.553c-.232-.322-.661-.616-1.287-.616-.991 0-1.779.777-1.779 1.988zm3.066.014c0 .735-.492 1.141-1.034 1.141-.527 0-1.026-.42-1.026-1.155 0-.735.499-1.127 1.026-1.127.542 0 1.034.406 1.034 1.141zm4.681 1.94h.984v-2.276c0-1.07-.647-1.659-1.554-1.659-.499 0-.921.21-1.174.54v-.484h-.984v3.878h.984v-2.142c0-.623.344-.959.879-.959.52 0 .865.336.865.96v2.141zm1.667-1.954c0 1.211.787 2.016 1.779 2.016.611 0 1.054-.3 1.286-.637v.602c0 .721-.421 1.03-.963 1.03-.492 0-.858-.232-.956-.582h-.977c.098.89.864 1.435 1.961 1.435 1.28 0 1.927-.833 1.927-1.883v-3.906h-.992v.553c-.232-.336-.675-.616-1.286-.616-.992 0-1.779.777-1.779 1.988zm3.065.014c0 .735-.492 1.141-1.033 1.141-.527 0-1.027-.42-1.027-1.155 0-.735.5-1.127 1.027-1.127.541 0 1.033.406 1.033 1.141zm5.63-1.939h-.991v2.135c0 .623-.337.96-.872.96-.52 0-.865-.337-.865-.96v-2.135h-.984v2.275c0 1.064.654 1.652 1.561 1.652.485 0 .914-.21 1.16-.539v.49h.991v-3.878zm.718 1.925c0 1.211.788 2.016 1.772 2.016.619 0 1.062-.294 1.294-.63v.567h.991v-3.878h-.991v.553c-.232-.322-.661-.616-1.287-.616-.991 0-1.779.777-1.779 1.988zm3.066.014c0 .735-.492 1.141-1.034 1.141-.527 0-1.026-.42-1.026-1.155 0-.735.499-1.127 1.026-1.127.542 0 1.034.406 1.034 1.141zm1.7-.014c0 1.211.787 2.016 1.778 2.016.612 0 1.055-.3 1.287-.637v.602c0 .721-.422 1.03-.963 1.03-.492 0-.858-.232-.956-.582h-.978c.099.89.865 1.435 1.962 1.435 1.28 0 1.926-.833 1.926-1.883v-3.906h-.991v.553c-.232-.336-.675-.616-1.287-.616-.991 0-1.778.777-1.778 1.988zm3.065.014c0 .735-.492 1.141-1.034 1.141-.527 0-1.026-.42-1.026-1.155 0-.735.499-1.127 1.026-1.127.542 0 1.034.406 1.034 1.141zm3.626-1.197c.506 0 .914.322.928.833h-1.849c.078-.532.45-.833.921-.833zm1.849 1.918h-1.061c-.127.26-.359.47-.781.47-.492 0-.886-.323-.935-.897h2.848a2.29 2.29 0 0 0 .028-.378c0-1.155-.795-1.918-1.92-1.918-1.153 0-1.954.777-1.954 2.002 0 1.218.822 2.002 1.954 2.002.964 0 1.61-.567 1.821-1.28z" fill="#14142A"/><path d="m281.29 33.05 3.515 3.5M284.805 33.05l-3.515 3.5" stroke="#6E7191" stroke-width=".5" stroke-linecap="round" stroke-linejoin="round"/><path d="M113.169 52.045a.625.625 0 0 0-.291-.47 1.125 1.125 0 0 0-.628-.166c-.181 0-.339.029-.475.087a.764.764 0 0 0-.316.24.578.578 0 0 0-.111.349c0 .108.026.202.077.28a.707.707 0 0 0 .204.193c.083.05.169.092.26.125.09.032.174.058.25.078l.415.111c.107.028.225.067.356.116.131.049.257.115.377.2.121.084.221.191.3.323a.93.93 0 0 1 .118.483c0 .22-.058.419-.174.596a1.188 1.188 0 0 1-.504.424 1.848 1.848 0 0 1-.801.157c-.292 0-.546-.047-.761-.141a1.214 1.214 0 0 1-.503-.394 1.123 1.123 0 0 1-.206-.586h.512a.637.637 0 0 0 .155.381c.092.1.208.174.348.223.141.048.293.072.455.072.19 0 .359-.03.51-.092a.877.877 0 0 0 .357-.258.61.61 0 0 0 .132-.39.476.476 0 0 0-.114-.33.836.836 0 0 0-.299-.207 3.205 3.205 0 0 0-.402-.14l-.503-.142c-.32-.092-.573-.223-.759-.392a.857.857 0 0 1-.28-.666c0-.228.062-.427.186-.597.125-.17.293-.303.503-.398.212-.095.448-.143.709-.143.264 0 .498.047.703.141.206.093.368.22.488.382a.952.952 0 0 1 .192.551h-.48zm2.572 3.118c-.295 0-.55-.065-.765-.195a1.311 1.311 0 0 1-.493-.549 1.872 1.872 0 0 1-.172-.823c0-.313.058-.588.172-.827.116-.24.277-.427.483-.56.208-.136.451-.204.727-.204.16 0 .318.027.474.08.156.053.298.139.425.258.128.118.23.275.306.47.076.195.114.434.114.72v.198h-2.365v-.405h1.885a1 1 0 0 0-.103-.462.785.785 0 0 0-.736-.437.848.848 0 0 0-.487.14.911.911 0 0 0-.313.357c-.074.147-.11.305-.11.473v.27c0 .231.04.427.12.587.081.16.193.28.337.364a.992.992 0 0 0 .501.123c.124 0 .236-.017.336-.05a.731.731 0 0 0 .262-.16.713.713 0 0 0 .169-.267l.456.127c-.048.154-.129.29-.242.406a1.179 1.179 0 0 1-.419.27 1.566 1.566 0 0 1-.562.096zm2.459-4.136V55.1h-.471v-4.073h.471zm2.15 4.136c-.296 0-.551-.065-.765-.195a1.305 1.305 0 0 1-.493-.549 1.858 1.858 0 0 1-.172-.823c0-.313.057-.588.172-.827.115-.24.277-.427.483-.56.208-.136.45-.204.727-.204.16 0 .318.027.473.08.156.053.298.139.426.258.128.118.23.275.306.47.075.195.113.434.113.72v.198h-2.365v-.405h1.886c0-.173-.035-.326-.104-.462a.783.783 0 0 0-.735-.437.846.846 0 0 0-.487.14.914.914 0 0 0-.314.357c-.073.147-.11.305-.11.473v.27c0 .231.04.427.12.587a.86.86 0 0 0 .338.364.99.99 0 0 0 .501.123c.124 0 .236-.017.336-.05a.719.719 0 0 0 .261-.16.715.715 0 0 0 .17-.267l.455.127a.993.993 0 0 1-.241.406 1.174 1.174 0 0 1-.42.27 1.556 1.556 0 0 1-.561.096zm3.234 0a1.33 1.33 0 0 1-.743-.203 1.323 1.323 0 0 1-.48-.558 1.9 1.9 0 0 1-.167-.814c0-.31.057-.584.171-.821.116-.239.277-.425.484-.559.208-.135.45-.203.727-.203.216 0 .41.04.583.12.173.08.315.19.426.334.11.143.179.31.205.5h-.471a.727.727 0 0 0-.24-.37c-.122-.108-.287-.162-.495-.162a.834.834 0 0 0-.484.143.932.932 0 0 0-.321.4c-.076.17-.114.372-.114.602 0 .236.037.442.112.617.076.175.182.31.32.407.138.097.3.146.487.146a.836.836 0 0 0 .333-.064.685.685 0 0 0 .402-.47h.471a1.079 1.079 0 0 1-.611.83 1.34 1.34 0 0 1-.595.125zm3.23-3.118v.398h-1.59v-.398h1.59zm-1.127-.732h.472v2.912c0 .132.019.232.057.298a.3.3 0 0 0 .152.131.611.611 0 0 0 .198.032.8.8 0 0 0 .128-.008l.08-.016.096.422a.986.986 0 0 1-.352.056.947.947 0 0 1-.391-.086.776.776 0 0 1-.316-.26.742.742 0 0 1-.124-.442v-3.039zm3.482 3.787v-4.073h.495v3.635h1.902v.438h-2.397zm4.003.071c-.195 0-.371-.036-.53-.11a.907.907 0 0 1-.377-.32.9.9 0 0 1-.14-.508c0-.175.035-.317.104-.426a.733.733 0 0 1 .277-.259c.116-.062.244-.108.384-.139.141-.031.283-.057.425-.075.187-.024.338-.042.454-.054a.699.699 0 0 0 .255-.066c.055-.03.082-.083.082-.159v-.016c0-.196-.054-.348-.161-.457-.107-.109-.269-.163-.486-.163-.225 0-.401.049-.529.147a.87.87 0 0 0-.27.314l-.447-.159c.08-.185.186-.33.319-.433.135-.105.281-.178.44-.22.16-.041.317-.063.471-.063.099 0 .212.012.34.036.129.023.253.07.373.141.121.072.222.18.302.324.08.145.12.338.12.581V55.1h-.472v-.414h-.024a.833.833 0 0 1-.159.213.923.923 0 0 1-.298.193c-.124.053-.275.08-.453.08zm.071-.421a.941.941 0 0 0 .472-.11.747.747 0 0 0 .391-.646v-.43c-.02.024-.064.046-.132.066a2.1 2.1 0 0 1-.231.05 9.895 9.895 0 0 1-.452.06 1.793 1.793 0 0 0-.343.077.595.595 0 0 0-.256.157.399.399 0 0 0-.096.282c0 .163.061.287.182.37a.82.82 0 0 0 .465.124zm2.667-1.488V55.1h-.472v-3.055h.456v.477h.039a.879.879 0 0 1 .328-.374c.147-.095.336-.143.567-.143.208 0 .39.043.546.127a.86.86 0 0 1 .363.382c.087.17.13.385.13.645v1.94h-.471V53.19c0-.24-.063-.426-.188-.56-.125-.136-.297-.203-.515-.203a.827.827 0 0 0-.404.097.701.701 0 0 0-.278.285.935.935 0 0 0-.101.453zm4.057 3.047c-.228 0-.424-.03-.587-.088a1.245 1.245 0 0 1-.668-.525l.376-.262c.042.056.097.119.162.19a.815.815 0 0 0 .268.19c.114.054.264.081.449.081.248 0 .452-.06.613-.18.161-.118.242-.305.242-.56v-.62h-.04a2.628 2.628 0 0 1-.148.207.84.84 0 0 1-.272.217 1.016 1.016 0 0 1-.475.093c-.248 0-.47-.059-.667-.175a1.235 1.235 0 0 1-.466-.51c-.113-.222-.169-.492-.169-.81 0-.314.055-.586.165-.818a1.28 1.28 0 0 1 .462-.54c.197-.13.425-.194.683-.194.2 0 .358.033.475.1.119.065.209.139.272.222a3.3 3.3 0 0 1 .148.203h.048v-.485h.455v3.142c0 .263-.06.476-.18.64a1.019 1.019 0 0 1-.479.364c-.2.079-.422.118-.667.118zm-.016-1.679a.85.85 0 0 0 .479-.129.803.803 0 0 0 .298-.372c.068-.162.102-.355.102-.58 0-.22-.034-.415-.1-.583a.875.875 0 0 0-.296-.396.794.794 0 0 0-.483-.143c-.2 0-.366.05-.5.151a.921.921 0 0 0-.297.406c-.065.17-.098.358-.098.564 0 .212.033.4.1.563a.86.86 0 0 0 .299.382.86.86 0 0 0 .496.137zm4.138-.78v-1.805h.472V55.1h-.472v-.517h-.032a.99.99 0 0 1-.335.395.97.97 0 0 1-.575.161c-.192 0-.363-.042-.512-.125a.878.878 0 0 1-.351-.382c-.086-.17-.128-.386-.128-.646v-1.941h.471v1.909c0 .223.063.4.188.533a.64.64 0 0 0 .483.199c.118 0 .237-.03.358-.09a.776.776 0 0 0 .433-.745zm2.238 1.321c-.194 0-.371-.036-.529-.11a.91.91 0 0 1-.378-.32.9.9 0 0 1-.14-.508c0-.175.035-.317.105-.426a.719.719 0 0 1 .277-.259c.116-.062.244-.108.383-.139.142-.031.283-.057.426-.075.186-.024.338-.042.453-.054a.7.7 0 0 0 .256-.066c.055-.03.082-.083.082-.159v-.016c0-.196-.054-.348-.162-.457-.106-.109-.268-.163-.485-.163-.225 0-.402.049-.529.147a.87.87 0 0 0-.27.314l-.448-.159c.08-.185.187-.33.32-.433.135-.105.281-.178.439-.22.16-.041.317-.063.472-.063.098 0 .211.012.339.036.129.023.254.07.374.141.121.072.222.18.301.324.08.145.12.338.12.581V55.1h-.471v-.414h-.024a.816.816 0 0 1-.16.213.918.918 0 0 1-.297.193 1.15 1.15 0 0 1-.454.08zm.072-.421a.944.944 0 0 0 .472-.11.747.747 0 0 0 .391-.646v-.43c-.02.024-.064.046-.132.066a2.122 2.122 0 0 1-.232.05 9.83 9.83 0 0 1-.451.06 1.82 1.82 0 0 0-.344.077.591.591 0 0 0-.255.157.399.399 0 0 0-.096.282c0 .163.06.287.182.37a.815.815 0 0 0 .465.124zm3.433 1.559c-.227 0-.423-.03-.587-.088a1.234 1.234 0 0 1-.667-.525l.375-.262c.043.056.097.119.162.19a.815.815 0 0 0 .268.19c.114.054.264.081.449.081.248 0 .452-.06.613-.18.161-.118.242-.305.242-.56v-.62h-.04a2.628 2.628 0 0 1-.148.207.835.835 0 0 1-.271.217 1.023 1.023 0 0 1-.476.093c-.247 0-.47-.059-.667-.175a1.227 1.227 0 0 1-.465-.51 1.777 1.777 0 0 1-.17-.81c0-.314.055-.586.166-.818a1.222 1.222 0 0 1 1.144-.734c.2 0 .358.033.476.1.118.065.209.139.271.222a3.3 3.3 0 0 1 .148.203h.048v-.485h.455v3.142c0 .263-.059.476-.179.64a1.026 1.026 0 0 1-.48.364 1.809 1.809 0 0 1-.667.118zm-.016-1.679a.855.855 0 0 0 .48-.129.807.807 0 0 0 .297-.372c.068-.162.102-.355.102-.58 0-.22-.033-.415-.1-.583a.873.873 0 0 0-.295-.396.8.8 0 0 0-.484-.143c-.2 0-.366.05-.499.151a.923.923 0 0 0-.298.406c-.065.17-.098.358-.098.564 0 .212.033.4.1.563.068.162.168.29.3.382a.854.854 0 0 0 .495.137zm3.492.533c-.296 0-.551-.065-.765-.195a1.313 1.313 0 0 1-.494-.549 1.872 1.872 0 0 1-.171-.823c0-.313.057-.588.171-.827.116-.24.277-.427.484-.56a1.3 1.3 0 0 1 .727-.204c.16 0 .317.027.473.08.156.053.298.139.425.258.128.118.23.275.306.47.076.195.114.434.114.72v.198h-2.365v-.405h1.886c0-.173-.035-.326-.104-.462a.778.778 0 0 0-.292-.32.819.819 0 0 0-.443-.117.85.85 0 0 0-.488.14.92.92 0 0 0-.313.357c-.073.147-.11.305-.11.473v.27c0 .231.04.427.12.587.081.16.194.28.337.364a.993.993 0 0 0 .502.123c.123 0 .235-.017.335-.05a.723.723 0 0 0 .262-.16.727.727 0 0 0 .17-.267l.455.127c-.048.154-.128.29-.241.406a1.192 1.192 0 0 1-.42.27 1.56 1.56 0 0 1-.561.096zm2.155-1.782c0-.5.065-.962.196-1.382a4.27 4.27 0 0 1 .563-1.163h.415a2.617 2.617 0 0 0-.269.485 4.718 4.718 0 0 0-.218.63 5.879 5.879 0 0 0-.148.709 5.229 5.229 0 0 0-.052.721 5.563 5.563 0 0 0 .34 1.865c.104.28.22.506.347.681h-.415a4.28 4.28 0 0 1-.563-1.162 4.643 4.643 0 0 1-.196-1.384zm4.043-.652-.423.12a.793.793 0 0 0-.118-.205.574.574 0 0 0-.208-.167.755.755 0 0 0-.337-.066.81.81 0 0 0-.47.13c-.123.084-.186.192-.186.323 0 .117.043.21.128.277.085.068.219.124.4.169l.455.111c.274.066.479.168.613.304.135.136.202.31.202.523a.775.775 0 0 1-.152.47c-.1.138-.24.246-.419.326-.18.08-.389.12-.627.12-.313 0-.572-.068-.777-.204a.897.897 0 0 1-.39-.592l.448-.112a.618.618 0 0 0 .241.37c.12.083.277.124.47.124.219 0 .394-.047.523-.14.13-.094.196-.207.196-.338a.353.353 0 0 0-.112-.266.717.717 0 0 0-.344-.163l-.511-.12c-.281-.066-.487-.169-.619-.308a.743.743 0 0 1-.196-.527c0-.172.049-.325.146-.457a.994.994 0 0 1 .401-.312 1.42 1.42 0 0 1 .58-.114c.303 0 .542.066.715.2.174.132.298.307.371.524zm1.772.652c0 .502-.065.963-.197 1.384-.131.42-.318.808-.562 1.162h-.415a2.5 2.5 0 0 0 .268-.486c.083-.19.157-.4.219-.628a5.592 5.592 0 0 0 .2-1.432 5.563 5.563 0 0 0-.339-1.865 2.872 2.872 0 0 0-.348-.68h.415c.244.354.431.742.562 1.163.132.42.197.881.197 1.382z" fill="#4E4B66"/><path d="M125.554 65.6h-13.711c-.776 0-1.406.626-1.406 1.4v5.6c0 .773.63 1.4 1.406 1.4h13.711c.776 0 1.406-.627 1.406-1.4V67c0-.774-.63-1.4-1.406-1.4z" fill="#E8F1FE"/><path d="M112.616 70.202c0-.12.029-.227.085-.32a.568.568 0 0 1 .223-.222.61.61 0 0 1 .321-.084h2.379a.61.61 0 0 1 .321.084c.096.053.17.128.223.223a.595.595 0 0 1 .085.319v.008a.617.617 0 0 1-.629.626h-2.379a.607.607 0 0 1-.544-.302.626.626 0 0 1-.085-.324v-.008zm2.369 0c0-.12.028-.227.085-.32a.568.568 0 0 1 .223-.222.61.61 0 0 1 .321-.084h2.379a.61.61 0 0 1 .321.084c.095.053.17.128.223.223a.595.595 0 0 1 .085.319v.008a.617.617 0 0 1-.629.626h-2.379a.607.607 0 0 1-.544-.302.617.617 0 0 1-.085-.324v-.008zm2.369 0c0-.12.028-.227.085-.32a.562.562 0 0 1 .223-.222.61.61 0 0 1 .321-.084h1.215c.121 0 .227.028.32.084a.57.57 0 0 1 .224.223.604.604 0 0 1 .084.319v.008a.61.61 0 0 1-.628.626h-1.215a.6.6 0 0 1-.544-.302.617.617 0 0 1-.085-.324v-.008zm1.207 0c0-.12.028-.227.085-.32a.568.568 0 0 1 .223-.222.61.61 0 0 1 .321-.084h2.379a.61.61 0 0 1 .321.084c.095.053.17.128.223.223a.604.604 0 0 1 .085.319v.008a.626.626 0 0 1-.308.546.635.635 0 0 1-.321.08h-2.379a.607.607 0 0 1-.544-.302.617.617 0 0 1-.085-.324v-.008zm2.369 0c0-.12.028-.227.084-.32a.57.57 0 0 1 .224-.222.61.61 0 0 1 .321-.084h2.379c.121 0 .228.028.32.084a.564.564 0 0 1 .224.223.604.604 0 0 1 .084.319v.008c0 .12-.028.229-.084.324a.603.603 0 0 1-.544.302h-2.379a.61.61 0 0 1-.629-.626v-.008z" fill="#1160C6"/><path d="M148.404 65.6h-17.226c-.776 0-1.406.626-1.406 1.4v5.6c0 .773.63 1.4 1.406 1.4h17.226c.777 0 1.406-.627 1.406-1.4V67c0-.774-.629-1.4-1.406-1.4z" fill="#E8F1FE"/><path d="M131.952 70.202c0-.12.029-.227.085-.32a.568.568 0 0 1 .223-.222.61.61 0 0 1 .321-.084h2.379a.61.61 0 0 1 .321.084c.095.053.17.128.223.223a.595.595 0 0 1 .085.319v.008a.617.617 0 0 1-.629.626h-2.379a.607.607 0 0 1-.544-.302.626.626 0 0 1-.085-.324v-.008zm2.369 0c0-.12.028-.227.085-.32a.568.568 0 0 1 .223-.222.61.61 0 0 1 .321-.084h2.379a.61.61 0 0 1 .321.084c.095.053.17.128.223.223a.604.604 0 0 1 .085.319v.008a.626.626 0 0 1-.308.546.635.635 0 0 1-.321.08h-2.379a.607.607 0 0 1-.544-.302.617.617 0 0 1-.085-.324v-.008zm2.369 0c0-.12.028-.227.084-.32a.57.57 0 0 1 .224-.222.61.61 0 0 1 .321-.084h2.379a.61.61 0 0 1 .321.084c.095.053.17.128.223.223a.595.595 0 0 1 .085.319v.008a.617.617 0 0 1-.629.626h-2.379a.61.61 0 0 1-.629-.626v-.008zm2.369 0c0-.12.028-.227.084-.32a.57.57 0 0 1 .224-.222.61.61 0 0 1 .321-.084h1.214a.61.61 0 0 1 .321.084.57.57 0 0 1 .224.223.604.604 0 0 1 .084.319v.008a.61.61 0 0 1-.629.626h-1.214a.61.61 0 0 1-.629-.626v-.008zm1.207 0c0-.12.028-.227.084-.32a.57.57 0 0 1 .224-.222.606.606 0 0 1 .32-.084h1.215a.61.61 0 0 1 .321.084.57.57 0 0 1 .224.223.604.604 0 0 1 .084.319v.008a.61.61 0 0 1-.629.626h-1.215a.61.61 0 0 1-.628-.626v-.008zm1.207 0c0-.12.028-.227.084-.32a.57.57 0 0 1 .224-.222.61.61 0 0 1 .321-.084h2.379c.121 0 .228.028.32.084a.564.564 0 0 1 .224.223.604.604 0 0 1 .084.319v.008c0 .12-.028.229-.084.324a.603.603 0 0 1-.544.302h-2.379a.61.61 0 0 1-.629-.626v-.008zm2.369 0c0-.12.028-.227.084-.32a.57.57 0 0 1 .224-.222.606.606 0 0 1 .32-.084h2.38c.121 0 .227.028.32.084a.57.57 0 0 1 .224.223.604.604 0 0 1 .084.319v.008a.61.61 0 0 1-.628.626h-2.38a.61.61 0 0 1-.628-.626v-.008z" fill="#1160C6"/><path d="M168.794 65.6h-14.765c-.776 0-1.406.626-1.406 1.4v5.6c0 .773.63 1.4 1.406 1.4h14.765c.777 0 1.406-.627 1.406-1.4V67c0-.774-.629-1.4-1.406-1.4z" fill="#E8F1FE"/><path d="M154.802 70.202c0-.12.028-.227.085-.32a.568.568 0 0 1 .223-.222.61.61 0 0 1 .321-.084h1.215c.121 0 .228.028.32.084a.564.564 0 0 1 .224.223.604.604 0 0 1 .084.319v.008c0 .12-.028.229-.084.324a.603.603 0 0 1-.544.302h-1.215a.607.607 0 0 1-.544-.302.617.617 0 0 1-.085-.324v-.008zm1.207 0c0-.12.029-.227.085-.32a.568.568 0 0 1 .223-.222.61.61 0 0 1 .321-.084h1.215a.61.61 0 0 1 .321.084c.095.053.17.128.223.223a.604.604 0 0 1 .085.319v.008a.626.626 0 0 1-.308.546.635.635 0 0 1-.321.08h-1.215a.607.607 0 0 1-.544-.302.626.626 0 0 1-.085-.324v-.008zm1.207 0c0-.12.028-.227.085-.32a.568.568 0 0 1 .223-.222.61.61 0 0 1 .321-.084h2.379a.61.61 0 0 1 .321.084c.095.053.17.128.223.223a.595.595 0 0 1 .085.319v.008a.617.617 0 0 1-.629.626h-2.379a.607.607 0 0 1-.544-.302.617.617 0 0 1-.085-.324v-.008zm2.369 0c0-.12.028-.227.084-.32a.57.57 0 0 1 .224-.222.61.61 0 0 1 .321-.084h2.379a.61.61 0 0 1 .321.084c.095.053.17.128.223.223a.604.604 0 0 1 .084.319v.008a.626.626 0 0 1-.307.546.635.635 0 0 1-.321.08h-2.379a.61.61 0 0 1-.629-.626v-.008zm2.369 0c0-.12.028-.227.085-.32a.562.562 0 0 1 .223-.222.61.61 0 0 1 .321-.084h2.379a.61.61 0 0 1 .321.084c.095.053.17.128.223.223a.604.604 0 0 1 .085.319v.008a.626.626 0 0 1-.308.546.635.635 0 0 1-.321.08h-2.379a.6.6 0 0 1-.544-.302.617.617 0 0 1-.085-.324v-.008zm2.369 0c0-.12.028-.227.084-.32a.57.57 0 0 1 .224-.222.609.609 0 0 1 .32-.084h2.38c.121 0 .228.028.32.084a.57.57 0 0 1 .224.223.604.604 0 0 1 .084.319v.008a.61.61 0 0 1-.628.626h-2.38a.61.61 0 0 1-.628-.626v-.008z" fill="#1160C6"/><path d="M190.59 65.6h-16.171c-.777 0-1.407.626-1.407 1.4v5.6c0 .773.63 1.4 1.407 1.4h16.171c.776 0 1.406-.627 1.406-1.4V67c0-.774-.63-1.4-1.406-1.4z" fill="#E8F1FE"/><path d="M175.193 70.202c0-.12.028-.227.084-.32a.57.57 0 0 1 .224-.222.609.609 0 0 1 .32-.084h2.38c.121 0 .228.028.32.084a.57.57 0 0 1 .224.223.604.604 0 0 1 .084.319v.008a.61.61 0 0 1-.628.626h-2.38a.61.61 0 0 1-.628-.626v-.008zm2.369 0c0-.12.028-.227.084-.32a.564.564 0 0 1 .224-.222.604.604 0 0 1 .32-.084h2.379a.61.61 0 0 1 .321.084.57.57 0 0 1 .224.223.604.604 0 0 1 .084.319v.008a.61.61 0 0 1-.629.626h-2.379a.603.603 0 0 1-.544-.302.626.626 0 0 1-.084-.324v-.008zm2.369 0c0-.12.028-.227.084-.32a.564.564 0 0 1 .224-.222.604.604 0 0 1 .32-.084h1.215a.61.61 0 0 1 .321.084c.095.053.17.128.223.223a.595.595 0 0 1 .085.319v.008a.617.617 0 0 1-.629.626h-1.215a.603.603 0 0 1-.544-.302.626.626 0 0 1-.084-.324v-.008zm1.207 0c0-.12.028-.227.084-.32a.564.564 0 0 1 .224-.222.604.604 0 0 1 .32-.084h2.379a.61.61 0 0 1 .321.084.57.57 0 0 1 .224.223.604.604 0 0 1 .084.319v.008a.61.61 0 0 1-.629.626h-2.379a.603.603 0 0 1-.544-.302.626.626 0 0 1-.084-.324v-.008zm2.368 0c0-.12.028-.227.085-.32a.568.568 0 0 1 .223-.222.61.61 0 0 1 .321-.084h2.379a.61.61 0 0 1 .321.084c.095.053.17.128.223.223a.595.595 0 0 1 .085.319v.008a.617.617 0 0 1-.629.626h-2.379a.607.607 0 0 1-.544-.302.617.617 0 0 1-.085-.324v-.008zm2.369 0c0-.12.028-.227.085-.32a.568.568 0 0 1 .223-.222.61.61 0 0 1 .321-.084h2.379a.61.61 0 0 1 .321.084c.095.053.17.128.223.223a.595.595 0 0 1 .085.319v.008a.617.617 0 0 1-.629.626h-2.379a.607.607 0 0 1-.544-.302.617.617 0 0 1-.085-.324v-.008z" fill="#1160C6"/><path d="M213.441 65.6h-17.226c-.777 0-1.406.626-1.406 1.4v5.6c0 .773.629 1.4 1.406 1.4h17.226c.777 0 1.406-.627 1.406-1.4V67c0-.774-.629-1.4-1.406-1.4z" fill="#E8F1FE"/><path d="M196.988 70.202c0-.12.028-.227.084-.32a.57.57 0 0 1 .224-.222.61.61 0 0 1 .321-.084h1.215c.12 0 .227.028.32.084a.57.57 0 0 1 .224.223.604.604 0 0 1 .084.319v.008a.61.61 0 0 1-.628.626h-1.215a.61.61 0 0 1-.629-.626v-.008zm1.207 0c0-.12.028-.227.085-.32a.568.568 0 0 1 .223-.222.61.61 0 0 1 .321-.084h2.379a.61.61 0 0 1 .321.084c.095.053.17.128.223.223a.595.595 0 0 1 .085.319v.008a.617.617 0 0 1-.629.626h-2.379a.607.607 0 0 1-.544-.302.617.617 0 0 1-.085-.324v-.008zm2.369 0c0-.12.028-.227.084-.32a.57.57 0 0 1 .224-.222.61.61 0 0 1 .321-.084h2.379c.121 0 .228.028.32.084a.564.564 0 0 1 .224.223.604.604 0 0 1 .084.319v.008c0 .12-.028.229-.084.324a.603.603 0 0 1-.544.302h-2.379a.61.61 0 0 1-.629-.626v-.008zm2.369 0c0-.12.028-.227.084-.32a.57.57 0 0 1 .224-.222.604.604 0 0 1 .32-.084h2.38c.12 0 .227.028.32.084a.57.57 0 0 1 .224.223.604.604 0 0 1 .084.319v.008a.61.61 0 0 1-.628.626h-2.38a.61.61 0 0 1-.628-.626v-.008zm2.368 0c0-.12.029-.227.085-.32a.568.568 0 0 1 .223-.222.61.61 0 0 1 .321-.084h1.215a.61.61 0 0 1 .321.084c.095.053.17.128.223.223a.604.604 0 0 1 .085.319v.008a.626.626 0 0 1-.308.546.635.635 0 0 1-.321.08h-1.215a.607.607 0 0 1-.544-.302.626.626 0 0 1-.085-.324v-.008zm1.208 0c0-.12.028-.227.084-.32a.564.564 0 0 1 .224-.222.604.604 0 0 1 .32-.084h2.38c.12 0 .227.028.32.084a.57.57 0 0 1 .224.223.604.604 0 0 1 .084.319v.008a.61.61 0 0 1-.628.626h-2.38a.603.603 0 0 1-.544-.302.626.626 0 0 1-.084-.324v-.008zm2.368 0c0-.12.029-.227.085-.32a.568.568 0 0 1 .223-.222.61.61 0 0 1 .321-.084h2.379a.61.61 0 0 1 .321.084c.095.053.17.128.223.223a.595.595 0 0 1 .085.319v.008a.617.617 0 0 1-.629.626h-2.379a.607.607 0 0 1-.544-.302.626.626 0 0 1-.085-.324v-.008z" fill="#1160C6"/><path d="M217.026 70.202c0-.12.028-.227.085-.32a.568.568 0 0 1 .223-.222.61.61 0 0 1 .321-.084h2.379a.61.61 0 0 1 .321.084c.095.053.17.128.223.223a.595.595 0 0 1 .085.319v.008a.617.617 0 0 1-.629.626h-2.379a.607.607 0 0 1-.544-.302.617.617 0 0 1-.085-.324v-.008zm2.369 0c0-.12.028-.227.084-.32a.57.57 0 0 1 .224-.222.61.61 0 0 1 .321-.084h2.379a.61.61 0 0 1 .321.084c.095.053.17.128.223.223a.604.604 0 0 1 .085.319v.008a.626.626 0 0 1-.308.546.635.635 0 0 1-.321.08h-2.379a.61.61 0 0 1-.629-.626v-.008zm2.369 0c0-.12.028-.227.085-.32a.568.568 0 0 1 .223-.222.61.61 0 0 1 .321-.084h2.379a.61.61 0 0 1 .321.084c.095.053.17.128.223.223a.604.604 0 0 1 .085.319v.008a.626.626 0 0 1-.308.546.635.635 0 0 1-.321.08h-2.379a.607.607 0 0 1-.544-.302.617.617 0 0 1-.085-.324v-.008zm4.898 0c0-.12.028-.227.085-.32a.568.568 0 0 1 .223-.222.61.61 0 0 1 .321-.084h2.379a.61.61 0 0 1 .321.084c.095.053.17.128.223.223a.595.595 0 0 1 .085.319v.008a.617.617 0 0 1-.629.626h-2.379a.607.607 0 0 1-.544-.302.617.617 0 0 1-.085-.324v-.008zm4.899 0c0-.12.028-.227.084-.32a.57.57 0 0 1 .224-.222.606.606 0 0 1 .32-.084h2.38c.121 0 .227.028.32.084a.57.57 0 0 1 .224.223.604.604 0 0 1 .084.319v.008a.61.61 0 0 1-.628.626h-2.38a.61.61 0 0 1-.628-.626v-.008zm2.369 0c0-.12.028-.227.084-.32a.568.568 0 0 1 .223-.222.61.61 0 0 1 .321-.084h2.379a.61.61 0 0 1 .321.084.57.57 0 0 1 .224.223.604.604 0 0 1 .084.319v.008a.61.61 0 0 1-.629.626h-2.379a.607.607 0 0 1-.544-.302.626.626 0 0 1-.084-.324v-.008zm2.368 0c0-.12.028-.227.085-.32a.568.568 0 0 1 .223-.222.61.61 0 0 1 .321-.084h1.215c.121 0 .228.028.32.084a.564.564 0 0 1 .224.223.604.604 0 0 1 .084.319v.008c0 .12-.028.229-.084.324a.603.603 0 0 1-.544.302h-1.215a.607.607 0 0 1-.544-.302.617.617 0 0 1-.085-.324v-.008zm1.207 0c0-.12.029-.227.085-.32a.568.568 0 0 1 .223-.222.61.61 0 0 1 .321-.084h2.379a.61.61 0 0 1 .321.084.57.57 0 0 1 .224.223.604.604 0 0 1 .084.319v.008a.61.61 0 0 1-.629.626h-2.379a.607.607 0 0 1-.544-.302.626.626 0 0 1-.085-.324v-.008z" fill="#CACACA"/><path d="M285.157 82.575H111.844c-.68 0-1.231.549-1.231 1.225v14c0 .677.551 1.225 1.231 1.225h173.313c.68 0 1.23-.548 1.23-1.225v-14c0-.676-.55-1.225-1.23-1.225z" stroke="#C7CADE" stroke-width=".5"/><path d="M119.929 93.25a2.806 2.806 0 0 0 2.812-2.8c0-1.547-1.259-2.8-2.812-2.8a2.806 2.806 0 0 0-2.813 2.8c0 1.546 1.259 2.8 2.813 2.8zM123.445 93.95l-1.529-1.522" stroke="#6E7191" stroke-width=".5" stroke-linecap="round" stroke-linejoin="round"/><path d="M130.044 89.845a.623.623 0 0 0-.292-.47 1.12 1.12 0 0 0-.627-.166c-.181 0-.34.029-.475.087a.754.754 0 0 0-.316.24.573.573 0 0 0-.112.349c0 .109.026.202.078.28a.686.686 0 0 0 .204.193c.082.05.169.092.259.126.091.031.174.057.25.077l.416.111c.106.028.225.067.355.116.132.049.258.116.378.2.121.084.221.192.299.323a.922.922 0 0 1 .118.483c0 .22-.058.419-.174.597a1.179 1.179 0 0 1-.503.423c-.22.105-.487.158-.801.158-.293 0-.547-.048-.761-.142a1.208 1.208 0 0 1-.503-.394 1.114 1.114 0 0 1-.206-.586h.511a.638.638 0 0 0 .156.382c.092.099.208.173.348.222.141.048.293.072.455.072.189 0 .359-.03.509-.092a.874.874 0 0 0 .358-.258.61.61 0 0 0 .132-.39.476.476 0 0 0-.114-.33.84.84 0 0 0-.3-.207 3.205 3.205 0 0 0-.401-.14l-.504-.142c-.319-.092-.572-.222-.759-.392a.859.859 0 0 1-.279-.666.99.99 0 0 1 .185-.597c.126-.17.293-.303.504-.397.212-.096.448-.144.709-.144.264 0 .498.047.703.141.205.093.368.22.487.382a.945.945 0 0 1 .192.551h-.479zm2.572 3.118c-.296 0-.551-.065-.765-.194a1.305 1.305 0 0 1-.493-.55 1.859 1.859 0 0 1-.172-.822c0-.313.057-.59.172-.828.115-.24.277-.427.483-.56a1.3 1.3 0 0 1 .727-.204c.16 0 .318.027.473.08a1.177 1.177 0 0 1 .731.728c.076.195.114.434.114.72v.199h-2.365v-.406h1.886a1 1 0 0 0-.104-.461.776.776 0 0 0-.292-.32.817.817 0 0 0-.443-.118.847.847 0 0 0-.487.14.917.917 0 0 0-.314.357c-.073.147-.11.305-.11.473v.27c0 .231.04.427.12.588.081.159.194.28.338.363a.99.99 0 0 0 .501.124c.124 0 .236-.017.336-.052a.718.718 0 0 0 .261-.159.728.728 0 0 0 .17-.266l.455.127c-.048.154-.128.289-.241.405a1.174 1.174 0 0 1-.42.27 1.556 1.556 0 0 1-.561.096zm2.89.009c-.194 0-.371-.037-.529-.11a.91.91 0 0 1-.378-.32.9.9 0 0 1-.139-.51c0-.174.034-.316.103-.425a.736.736 0 0 1 .278-.258c.116-.063.244-.109.384-.14.141-.031.283-.056.425-.075.186-.024.338-.042.453-.054a.697.697 0 0 0 .256-.065c.055-.03.082-.084.082-.16v-.015c0-.197-.054-.35-.162-.458-.106-.109-.268-.163-.485-.163-.225 0-.402.05-.529.147a.874.874 0 0 0-.27.314l-.448-.159c.08-.185.187-.33.32-.433.135-.105.281-.178.439-.219.16-.042.317-.064.472-.064.098 0 .212.012.339.036.13.023.254.07.374.142.121.07.222.179.302.324.079.144.119.338.119.58V92.9h-.471v-.414h-.024a.816.816 0 0 1-.16.213.92.92 0 0 1-.297.193 1.15 1.15 0 0 1-.454.08zm.072-.422a.941.941 0 0 0 .472-.11.747.747 0 0 0 .391-.646v-.43c-.02.024-.064.046-.132.066a2.202 2.202 0 0 1-.231.05 10.557 10.557 0 0 1-.452.06 1.8 1.8 0 0 0-.343.077.589.589 0 0 0-.256.157.4.4 0 0 0-.096.283.42.42 0 0 0 .182.37.814.814 0 0 0 .465.123zm2.195.35v-3.055h.455v.462h.032a.733.733 0 0 1 .304-.368.894.894 0 0 1 .495-.142 4.96 4.96 0 0 1 .248.008v.478a1.222 1.222 0 0 0-.11-.018 1.072 1.072 0 0 0-.178-.014.836.836 0 0 0-.399.093.68.68 0 0 0-.376.622V92.9h-.471zm3.245.063c-.287 0-.535-.067-.742-.203a1.323 1.323 0 0 1-.48-.558 1.884 1.884 0 0 1-.168-.814c0-.31.058-.584.172-.821a1.35 1.35 0 0 1 .484-.559c.207-.135.45-.203.727-.203.215 0 .41.04.583.12.173.08.315.19.425.334.111.143.18.31.206.5h-.471a.727.727 0 0 0-.24-.369c-.123-.109-.288-.163-.496-.163a.831.831 0 0 0-.483.143.93.93 0 0 0-.321.4c-.076.17-.114.372-.114.602 0 .237.037.442.112.617.076.175.182.31.319.407a.829.829 0 0 0 .487.146.841.841 0 0 0 .334-.064.687.687 0 0 0 .402-.469h.471a1.07 1.07 0 0 1-.198.487 1.103 1.103 0 0 1-.413.342 1.34 1.34 0 0 1-.596.125zm2.367-1.9V92.9h-.471v-4.073h.471v1.495h.041a.866.866 0 0 1 .323-.376c.145-.093.339-.14.579-.14.209 0 .393.041.55.125a.842.842 0 0 1 .365.38c.088.17.132.385.132.648v1.94h-.471V90.99c0-.242-.063-.43-.19-.562-.125-.134-.299-.2-.521-.2a.873.873 0 0 0-.416.096.709.709 0 0 0-.287.285.912.912 0 0 0-.105.453z" fill="#8F92AF"/><mask id="c" style="mask-type:luminance" maskUnits="userSpaceOnUse" x="110" y="99" width="177" height="68"><path d="M110.437 99.2h176.126v64.4c0 1.546-1.259 2.8-2.812 2.8H113.25a2.807 2.807 0 0 1-2.813-2.8V99.2z" fill="#fff"/></mask><g mask="url(#c)"><path d="M286.915 163.6c0 1.74-1.417 3.15-3.164 3.15H113.25a3.156 3.156 0 0 1-3.164-3.15h.703a2.456 2.456 0 0 0 2.461 2.45h170.501a2.456 2.456 0 0 0 2.461-2.45h.703zm-173.665 3.15a3.156 3.156 0 0 1-3.164-3.15V99.2h.703v64.4a2.456 2.456 0 0 0 2.461 2.45v.7zM286.915 99.2v64.4c0 1.74-1.417 3.15-3.164 3.15v-.7a2.456 2.456 0 0 0 2.461-2.45V99.2h.703z" fill="#C7CADE"/></g><path d="M121.687 103.575h-4.219c-.679 0-1.23.549-1.23 1.225v4.2c0 .677.551 1.225 1.23 1.225h4.219c.679 0 1.23-.548 1.23-1.225v-4.2c0-.676-.551-1.225-1.23-1.225z" stroke="#C7CADE" stroke-width=".5"/><path d="M126.573 107.427c0-.14.033-.264.099-.372a.66.66 0 0 1 .261-.26.71.71 0 0 1 .374-.098h2.775c.141 0 .266.033.374.098a.66.66 0 0 1 .261.26.699.699 0 0 1 .099.372v.01a.72.72 0 0 1-.734.73h-2.775a.7.7 0 0 1-.635-.353.72.72 0 0 1-.099-.377v-.01zm2.764 0c0-.14.033-.264.098-.372a.672.672 0 0 1 .261-.26.712.712 0 0 1 .374-.098h2.776c.141 0 .266.033.374.098a.66.66 0 0 1 .261.26.698.698 0 0 1 .098.372v.01a.719.719 0 0 1-.359.637.739.739 0 0 1-.374.093h-2.776a.739.739 0 0 1-.374-.093.715.715 0 0 1-.359-.637v-.01zm2.764 0c0-.14.032-.264.098-.372a.66.66 0 0 1 .261-.26.712.712 0 0 1 .374-.098h2.776c.141 0 .265.033.374.098a.672.672 0 0 1 .261.26.707.707 0 0 1 .098.372v.01a.728.728 0 0 1-.359.637.741.741 0 0 1-.374.093h-2.776a.7.7 0 0 1-.635-.353.719.719 0 0 1-.098-.377v-.01zm2.763 0c0-.14.033-.264.099-.372a.663.663 0 0 1 .26-.26.715.715 0 0 1 .374-.098h2.776c.141 0 .266.033.374.098a.66.66 0 0 1 .261.26.699.699 0 0 1 .099.372v.01a.72.72 0 0 1-.734.73h-2.776a.705.705 0 0 1-.634-.353.72.72 0 0 1-.099-.377v-.01zm5.715 0c0-.14.033-.264.098-.372a.672.672 0 0 1 .261-.26.712.712 0 0 1 .374-.098h1.418c.141 0 .265.033.374.098a.672.672 0 0 1 .261.26.707.707 0 0 1 .098.372v.01a.728.728 0 0 1-.359.637.741.741 0 0 1-.374.093h-1.418a.739.739 0 0 1-.374-.093.715.715 0 0 1-.359-.637v-.01zm1.408 0c0-.14.033-.264.099-.372a.66.66 0 0 1 .261-.26.71.71 0 0 1 .374-.098h2.775c.141 0 .266.033.374.098a.66.66 0 0 1 .261.26.699.699 0 0 1 .099.372v.01a.72.72 0 0 1-.734.73h-2.775a.7.7 0 0 1-.635-.353.72.72 0 0 1-.099-.377v-.01zm2.764 0c0-.14.032-.264.098-.372a.666.666 0 0 1 .261-.26.712.712 0 0 1 .374-.098h2.776c.141 0 .266.033.374.098a.666.666 0 0 1 .261.26.698.698 0 0 1 .098.372v.01a.719.719 0 0 1-.359.637.739.739 0 0 1-.374.093h-2.776a.708.708 0 0 1-.635-.353.719.719 0 0 1-.098-.377v-.01zm2.763 0c0-.14.033-.264.099-.372a.66.66 0 0 1 .261-.26.712.712 0 0 1 .374-.098h2.775a.71.71 0 0 1 .374.098.66.66 0 0 1 .261.26.699.699 0 0 1 .099.372v.01a.72.72 0 0 1-.734.73h-2.775a.7.7 0 0 1-.635-.353.72.72 0 0 1-.099-.377v-.01zm2.764 0c0-.14.033-.264.099-.372a.663.663 0 0 1 .26-.26.715.715 0 0 1 .374-.098h2.776c.141 0 .266.033.374.098a.66.66 0 0 1 .261.26.699.699 0 0 1 .099.372v.01a.72.72 0 0 1-.734.73h-2.776a.705.705 0 0 1-.634-.353.72.72 0 0 1-.099-.377v-.01zm2.764 0c0-.14.032-.264.098-.372a.666.666 0 0 1 .261-.26.712.712 0 0 1 .374-.098h2.776c.141 0 .266.033.374.098a.672.672 0 0 1 .261.26.707.707 0 0 1 .098.372v.01a.728.728 0 0 1-.359.637.739.739 0 0 1-.374.093h-2.776a.708.708 0 0 1-.635-.353.719.719 0 0 1-.098-.377v-.01zm2.763 0c0-.14.033-.264.099-.372a.718.718 0 0 1 .635-.358h2.775a.71.71 0 0 1 .374.098.66.66 0 0 1 .261.26.699.699 0 0 1 .099.372v.01a.72.72 0 0 1-.734.73h-2.775a.705.705 0 0 1-.635-.353.72.72 0 0 1-.099-.377v-.01zm2.764 0c0-.14.033-.264.098-.372a.672.672 0 0 1 .261-.26.715.715 0 0 1 .374-.098h2.776c.141 0 .266.033.374.098a.66.66 0 0 1 .261.26.708.708 0 0 1 .099.372v.01a.729.729 0 0 1-.36.637.739.739 0 0 1-.374.093h-2.776a.741.741 0 0 1-.374-.093.715.715 0 0 1-.359-.637v-.01zm2.764 0c0-.14.032-.264.098-.372a.66.66 0 0 1 .261-.26.712.712 0 0 1 .374-.098h2.776c.141 0 .266.033.374.098a.672.672 0 0 1 .261.26.707.707 0 0 1 .098.372v.01a.728.728 0 0 1-.359.637.739.739 0 0 1-.374.093h-2.776a.7.7 0 0 1-.635-.353.719.719 0 0 1-.098-.377v-.01zm2.763 0c0-.14.033-.264.099-.372a.663.663 0 0 1 .26-.26.715.715 0 0 1 .374-.098h2.776a.71.71 0 0 1 .374.098.66.66 0 0 1 .261.26.699.699 0 0 1 .099.372v.01a.72.72 0 0 1-.734.73h-2.776a.705.705 0 0 1-.634-.353.72.72 0 0 1-.099-.377v-.01zm2.764 0c0-.14.033-.264.098-.372a.666.666 0 0 1 .261-.26.715.715 0 0 1 .374-.098h2.776c.141 0 .266.033.374.098a.666.666 0 0 1 .261.26.707.707 0 0 1 .098.372v.01a.728.728 0 0 1-.359.637.739.739 0 0 1-.374.093h-2.776a.708.708 0 0 1-.635-.353.728.728 0 0 1-.098-.377v-.01zm2.763 0c0-.14.033-.264.099-.372a.66.66 0 0 1 .261-.26.712.712 0 0 1 .374-.098h2.776c.141 0 .265.033.374.098a.672.672 0 0 1 .261.26.707.707 0 0 1 .098.372v.01a.728.728 0 0 1-.359.637.741.741 0 0 1-.374.093h-2.776a.7.7 0 0 1-.635-.353.72.72 0 0 1-.099-.377v-.01zm2.764 0c0-.14.033-.264.098-.372a.672.672 0 0 1 .261-.26.715.715 0 0 1 .374-.098h2.776c.141 0 .266.033.374.098a.66.66 0 0 1 .261.26.698.698 0 0 1 .098.372v.01a.719.719 0 0 1-.359.637.739.739 0 0 1-.374.093h-2.776a.741.741 0 0 1-.374-.093.715.715 0 0 1-.359-.637v-.01zm2.764 0c0-.14.033-.264.098-.372a.666.666 0 0 1 .261-.26.712.712 0 0 1 .374-.098h2.776c.141 0 .266.033.374.098a.666.666 0 0 1 .261.26.707.707 0 0 1 .098.372v.01a.728.728 0 0 1-.359.637.739.739 0 0 1-.374.093h-2.776a.708.708 0 0 1-.635-.353.728.728 0 0 1-.098-.377v-.01zm2.763 0c0-.14.033-.264.099-.372a.66.66 0 0 1 .261-.26.712.712 0 0 1 .374-.098h2.776c.141 0 .265.033.374.098a.663.663 0 0 1 .26.26.699.699 0 0 1 .099.372v.01a.72.72 0 0 1-.733.73h-2.776a.7.7 0 0 1-.635-.353.72.72 0 0 1-.099-.377v-.01zm2.764 0c0-.14.033-.264.098-.372a.672.672 0 0 1 .261-.26.712.712 0 0 1 .374-.098h2.776c.141 0 .266.033.374.098a.66.66 0 0 1 .261.26.698.698 0 0 1 .098.372v.01a.719.719 0 0 1-.359.637.739.739 0 0 1-.374.093h-2.776a.739.739 0 0 1-.374-.093.715.715 0 0 1-.359-.637v-.01zm2.764 0c0-.14.032-.264.098-.372a.66.66 0 0 1 .261-.26.712.712 0 0 1 .374-.098h1.418c.141 0 .265.033.374.098a.663.663 0 0 1 .26.26.699.699 0 0 1 .099.372v.01a.72.72 0 0 1-.733.73h-1.418a.7.7 0 0 1-.635-.353.719.719 0 0 1-.098-.377v-.01z" fill="#CACACA"/><path d="M121.687 118.975h-4.219c-.679 0-1.23.548-1.23 1.225v4.2c0 .676.551 1.225 1.23 1.225h4.219c.679 0 1.23-.549 1.23-1.225v-4.2c0-.677-.551-1.225-1.23-1.225z" stroke="#C7CADE" stroke-width=".5"/><path d="M126.573 122.827a.7.7 0 0 1 .099-.373.657.657 0 0 1 .261-.259.7.7 0 0 1 .374-.098h1.417c.141 0 .266.032.374.098a.657.657 0 0 1 .261.259.7.7 0 0 1 .098.373v.01a.724.724 0 0 1-.359.637.739.739 0 0 1-.374.093h-1.417a.708.708 0 0 1-.635-.353.724.724 0 0 1-.099-.377v-.01zm1.409 0a.7.7 0 0 1 .098-.373.657.657 0 0 1 .261-.259.703.703 0 0 1 .374-.098h2.776c.141 0 .265.032.374.098a.67.67 0 0 1 .261.259.709.709 0 0 1 .098.373v.01a.723.723 0 0 1-.359.637.741.741 0 0 1-.374.093h-2.776a.708.708 0 0 1-.635-.353.724.724 0 0 1-.098-.377v-.01zm2.763 0a.7.7 0 0 1 .099-.373.66.66 0 0 1 .26-.259.705.705 0 0 1 .374-.098h2.776c.141 0 .266.032.374.098a.657.657 0 0 1 .261.259.7.7 0 0 1 .099.373v.01a.724.724 0 0 1-.36.637.739.739 0 0 1-.374.093h-2.776a.741.741 0 0 1-.374-.093.724.724 0 0 1-.359-.637v-.01zm2.764 0c0-.141.033-.265.098-.373a.663.663 0 0 1 .261-.259.703.703 0 0 1 .374-.098h2.776c.141 0 .266.032.374.098a.663.663 0 0 1 .261.259.709.709 0 0 1 .098.373v.01a.715.715 0 0 1-.359.637.739.739 0 0 1-.374.093h-2.776a.739.739 0 0 1-.374-.093.715.715 0 0 1-.359-.637v-.01zm2.763 0a.7.7 0 0 1 .099-.373.657.657 0 0 1 .261-.259.703.703 0 0 1 .374-.098h1.417c.141 0 .266.032.374.098a.657.657 0 0 1 .261.259.7.7 0 0 1 .099.373v.01a.724.724 0 0 1-.36.637.739.739 0 0 1-.374.093h-1.417a.708.708 0 0 1-.635-.353.724.724 0 0 1-.099-.377v-.01zm1.409 0a.7.7 0 0 1 .098-.373.657.657 0 0 1 .261-.259.703.703 0 0 1 .374-.098h2.776c.141 0 .266.032.374.098a.67.67 0 0 1 .261.259.709.709 0 0 1 .098.373v.01a.723.723 0 0 1-.359.637.739.739 0 0 1-.374.093h-2.776a.708.708 0 0 1-.635-.353.724.724 0 0 1-.098-.377v-.01zm2.763 0a.7.7 0 0 1 .099-.373.657.657 0 0 1 .261-.259.703.703 0 0 1 .374-.098h2.775c.141 0 .266.032.374.098a.657.657 0 0 1 .261.259.7.7 0 0 1 .099.373v.01a.724.724 0 0 1-.36.637.739.739 0 0 1-.374.093h-2.775a.708.708 0 0 1-.635-.353.724.724 0 0 1-.099-.377v-.01zm5.715 0c0-.141.033-.265.098-.373a.67.67 0 0 1 .261-.259.705.705 0 0 1 .374-.098h1.418c.141 0 .266.032.374.098a.67.67 0 0 1 .261.259.709.709 0 0 1 .098.373v.01a.723.723 0 0 1-.359.637.739.739 0 0 1-.374.093h-1.418a.741.741 0 0 1-.374-.093.723.723 0 0 1-.359-.637v-.01zm1.408 0a.7.7 0 0 1 .099-.373.657.657 0 0 1 .261-.259.7.7 0 0 1 .374-.098h1.417c.141 0 .266.032.374.098a.663.663 0 0 1 .261.259.709.709 0 0 1 .098.373v.01a.715.715 0 0 1-.359.637.739.739 0 0 1-.374.093h-1.417a.708.708 0 0 1-.635-.353.724.724 0 0 1-.099-.377v-.01zm1.409 0a.7.7 0 0 1 .098-.373.657.657 0 0 1 .261-.259.703.703 0 0 1 .374-.098h2.776c.141 0 .266.032.374.098a.67.67 0 0 1 .261.259.709.709 0 0 1 .098.373v.01a.723.723 0 0 1-.359.637.739.739 0 0 1-.374.093h-2.776a.708.708 0 0 1-.635-.353.724.724 0 0 1-.098-.377v-.01zm2.763 0a.7.7 0 0 1 .099-.373.66.66 0 0 1 .26-.259.709.709 0 0 1 .375-.098h2.775c.141 0 .266.032.374.098a.657.657 0 0 1 .261.259.7.7 0 0 1 .099.373v.01a.724.724 0 0 1-.36.637.739.739 0 0 1-.374.093h-2.775a.745.745 0 0 1-.375-.093.724.724 0 0 1-.359-.637v-.01zm2.764 0c0-.141.033-.265.098-.373a.67.67 0 0 1 .261-.259.703.703 0 0 1 .374-.098h2.776c.141 0 .266.032.374.098a.657.657 0 0 1 .261.259.709.709 0 0 1 .098.373v.01c0 .14-.033.266-.098.377a.708.708 0 0 1-.635.353h-2.776a.739.739 0 0 1-.374-.093.723.723 0 0 1-.359-.637v-.01zm2.764 0a.7.7 0 0 1 .098-.373.657.657 0 0 1 .261-.259.703.703 0 0 1 .374-.098h2.776c.141 0 .265.032.374.098a.67.67 0 0 1 .261.259.709.709 0 0 1 .098.373v.01a.723.723 0 0 1-.359.637.741.741 0 0 1-.374.093H158a.708.708 0 0 1-.635-.353.724.724 0 0 1-.098-.377v-.01zm2.763 0a.7.7 0 0 1 .099-.373.66.66 0 0 1 .26-.259.705.705 0 0 1 .374-.098h2.776c.141 0 .266.032.374.098a.657.657 0 0 1 .261.259.7.7 0 0 1 .099.373v.01a.724.724 0 0 1-.36.637.739.739 0 0 1-.374.093h-2.776a.741.741 0 0 1-.374-.093.724.724 0 0 1-.359-.637v-.01zm2.764 0c0-.141.033-.265.098-.373a.663.663 0 0 1 .261-.259.703.703 0 0 1 .374-.098h2.776c.141 0 .266.032.374.098a.663.663 0 0 1 .261.259.709.709 0 0 1 .098.373v.01a.715.715 0 0 1-.359.637.739.739 0 0 1-.374.093h-2.776a.739.739 0 0 1-.374-.093.715.715 0 0 1-.359-.637v-.01zm2.763 0a.7.7 0 0 1 .099-.373.657.657 0 0 1 .261-.259.7.7 0 0 1 .374-.098h2.776c.141 0 .265.032.374.098a.67.67 0 0 1 .261.259.709.709 0 0 1 .098.373v.01a.723.723 0 0 1-.359.637.741.741 0 0 1-.374.093h-2.776a.708.708 0 0 1-.635-.353.724.724 0 0 1-.099-.377v-.01zm2.764 0c0-.141.033-.265.098-.373a.67.67 0 0 1 .261-.259.705.705 0 0 1 .374-.098h2.776c.141 0 .266.032.374.098a.657.657 0 0 1 .261.259.7.7 0 0 1 .098.373v.01a.724.724 0 0 1-.359.637.739.739 0 0 1-.374.093h-2.776a.741.741 0 0 1-.374-.093.723.723 0 0 1-.359-.637v-.01zm2.764 0c0-.141.033-.265.098-.373a.663.663 0 0 1 .261-.259.703.703 0 0 1 .374-.098h2.776c.141 0 .265.032.374.098a.663.663 0 0 1 .261.259.709.709 0 0 1 .098.373v.01a.715.715 0 0 1-.359.637.741.741 0 0 1-.374.093h-2.776a.739.739 0 0 1-.374-.093.715.715 0 0 1-.359-.637v-.01zm2.763 0a.7.7 0 0 1 .099-.373.657.657 0 0 1 .261-.259.7.7 0 0 1 .374-.098h2.776c.141 0 .265.032.374.098a.66.66 0 0 1 .26.259.7.7 0 0 1 .099.373v.01a.724.724 0 0 1-.359.637.741.741 0 0 1-.374.093h-2.776a.708.708 0 0 1-.635-.353.724.724 0 0 1-.099-.377v-.01zm2.764 0c0-.141.033-.265.098-.373a.67.67 0 0 1 .261-.259.703.703 0 0 1 .374-.098h2.776c.141 0 .266.032.374.098a.657.657 0 0 1 .261.259.7.7 0 0 1 .098.373v.01a.724.724 0 0 1-.359.637.739.739 0 0 1-.374.093h-2.776a.739.739 0 0 1-.374-.093.723.723 0 0 1-.359-.637v-.01zm2.763 0a.7.7 0 0 1 .099-.373.657.657 0 0 1 .261-.259.703.703 0 0 1 .374-.098h2.776c.141 0 .265.032.374.098a.66.66 0 0 1 .26.259.7.7 0 0 1 .099.373v.01a.724.724 0 0 1-.359.637.741.741 0 0 1-.374.093h-2.776a.708.708 0 0 1-.635-.353.724.724 0 0 1-.099-.377v-.01zm2.764 0a.7.7 0 0 1 .099-.373.657.657 0 0 1 .261-.259.7.7 0 0 1 .374-.098h2.775c.141 0 .266.032.375.098a.66.66 0 0 1 .26.259.7.7 0 0 1 .099.373v.01a.724.724 0 0 1-.359.637.745.745 0 0 1-.375.093h-2.775a.708.708 0 0 1-.635-.353.724.724 0 0 1-.099-.377v-.01zm2.764 0c0-.141.033-.265.098-.373a.663.663 0 0 1 .261-.259.703.703 0 0 1 .374-.098h2.776c.141 0 .266.032.374.098a.663.663 0 0 1 .261.259.7.7 0 0 1 .098.373v.01a.724.724 0 0 1-.359.637.739.739 0 0 1-.374.093h-2.776a.739.739 0 0 1-.374-.093.715.715 0 0 1-.359-.637v-.01zm2.763 0a.7.7 0 0 1 .099-.373.657.657 0 0 1 .261-.259.703.703 0 0 1 .374-.098h2.776c.141 0 .265.032.374.098a.66.66 0 0 1 .26.259.7.7 0 0 1 .099.373v.01a.724.724 0 0 1-.359.637.741.741 0 0 1-.374.093H188.4a.708.708 0 0 1-.635-.353.724.724 0 0 1-.099-.377v-.01zm2.764 0a.7.7 0 0 1 .099-.373.657.657 0 0 1 .261-.259.7.7 0 0 1 .374-.098h2.775c.141 0 .266.032.374.098a.657.657 0 0 1 .261.259.7.7 0 0 1 .099.373v.01a.724.724 0 0 1-.36.637.739.739 0 0 1-.374.093h-2.775a.708.708 0 0 1-.635-.353.724.724 0 0 1-.099-.377v-.01zm2.764 0a.7.7 0 0 1 .098-.373.663.663 0 0 1 .261-.259.703.703 0 0 1 .374-.098h2.776c.141 0 .266.032.374.098a.663.663 0 0 1 .261.259.7.7 0 0 1 .098.373v.01a.724.724 0 0 1-.359.637.739.739 0 0 1-.374.093h-2.776a.739.739 0 0 1-.374-.093.715.715 0 0 1-.359-.637v-.01zm2.763 0a.7.7 0 0 1 .099-.373.657.657 0 0 1 .261-.259.703.703 0 0 1 .374-.098h1.417c.141 0 .266.032.374.098a.657.657 0 0 1 .261.259.7.7 0 0 1 .098.373v.01a.724.724 0 0 1-.359.637.739.739 0 0 1-.374.093h-1.417a.708.708 0 0 1-.635-.353.724.724 0 0 1-.099-.377v-.01z" fill="#CACACA"/><path d="M121.687 134.375h-4.219c-.679 0-1.23.548-1.23 1.225v4.2c0 .677.551 1.225 1.23 1.225h4.219c.679 0 1.23-.548 1.23-1.225v-4.2c0-.677-.551-1.225-1.23-1.225z" stroke="#C7CADE" stroke-width=".5"/><path d="M126.573 138.227c0-.14.033-.264.099-.372a.66.66 0 0 1 .261-.26.71.71 0 0 1 .374-.098h2.775c.141 0 .266.033.374.098a.66.66 0 0 1 .261.26.699.699 0 0 1 .099.372v.01a.724.724 0 0 1-.36.637.739.739 0 0 1-.374.093h-2.775a.7.7 0 0 1-.635-.353.724.724 0 0 1-.099-.377v-.01zm2.764 0c0-.14.033-.264.098-.372a.672.672 0 0 1 .261-.26.712.712 0 0 1 .374-.098h2.776c.141 0 .266.033.374.098a.66.66 0 0 1 .261.26.698.698 0 0 1 .098.372v.01a.724.724 0 0 1-.359.637.739.739 0 0 1-.374.093h-2.776a.739.739 0 0 1-.374-.093.715.715 0 0 1-.359-.637v-.01zm2.764 0c0-.14.032-.264.098-.372a.66.66 0 0 1 .261-.26.712.712 0 0 1 .374-.098h2.776c.141 0 .265.033.374.098a.672.672 0 0 1 .261.26.707.707 0 0 1 .098.372v.01a.715.715 0 0 1-.359.637.741.741 0 0 1-.374.093h-2.776a.7.7 0 0 1-.635-.353.724.724 0 0 1-.098-.377v-.01zm2.763 0c0-.14.033-.264.099-.372a.663.663 0 0 1 .26-.26.715.715 0 0 1 .374-.098h2.776c.141 0 .266.033.374.098a.66.66 0 0 1 .261.26.699.699 0 0 1 .099.372v.01a.724.724 0 0 1-.36.637.739.739 0 0 1-.374.093h-2.776a.705.705 0 0 1-.634-.353.724.724 0 0 1-.099-.377v-.01zm2.764 0c0-.14.033-.264.098-.372a.672.672 0 0 1 .261-.26.712.712 0 0 1 .374-.098h2.776c.141 0 .266.033.374.098a.66.66 0 0 1 .261.26.707.707 0 0 1 .098.372v.01c0 .14-.033.266-.098.377a.7.7 0 0 1-.635.353h-2.776a.739.739 0 0 1-.374-.093.715.715 0 0 1-.359-.637v-.01zm2.764 0c0-.14.032-.264.098-.372a.66.66 0 0 1 .261-.26.712.712 0 0 1 .374-.098h2.776c.141 0 .265.033.374.098a.672.672 0 0 1 .261.26.707.707 0 0 1 .098.372v.01a.715.715 0 0 1-.359.637.741.741 0 0 1-.374.093h-2.776a.7.7 0 0 1-.635-.353.724.724 0 0 1-.098-.377v-.01zm5.714 0c0-.14.033-.264.098-.372a.672.672 0 0 1 .261-.26.715.715 0 0 1 .374-.098h1.418c.141 0 .266.033.374.098a.666.666 0 0 1 .261.26.707.707 0 0 1 .098.372v.01c0 .14-.033.266-.098.377a.708.708 0 0 1-.635.353h-1.418a.741.741 0 0 1-.374-.093.715.715 0 0 1-.359-.637v-.01zm1.408 0c0-.14.033-.264.099-.372a.66.66 0 0 1 .261-.26.712.712 0 0 1 .374-.098h2.775a.71.71 0 0 1 .374.098.66.66 0 0 1 .261.26.699.699 0 0 1 .099.372v.01a.724.724 0 0 1-.36.637.736.736 0 0 1-.374.093h-2.775a.7.7 0 0 1-.635-.353.724.724 0 0 1-.099-.377v-.01zm2.764 0c0-.14.033-.264.099-.372a.663.663 0 0 1 .26-.26.715.715 0 0 1 .374-.098h2.776c.141 0 .266.033.374.098a.66.66 0 0 1 .261.26.699.699 0 0 1 .099.372v.01a.724.724 0 0 1-.36.637.739.739 0 0 1-.374.093h-2.776a.705.705 0 0 1-.634-.353.724.724 0 0 1-.099-.377v-.01zm2.764 0c0-.14.032-.264.098-.372a.66.66 0 0 1 .261-.26.712.712 0 0 1 .374-.098h2.776c.141 0 .266.033.374.098a.672.672 0 0 1 .261.26.707.707 0 0 1 .098.372v.01a.715.715 0 0 1-.359.637.739.739 0 0 1-.374.093h-2.776a.7.7 0 0 1-.635-.353.724.724 0 0 1-.098-.377v-.01zm2.763 0c0-.14.033-.264.099-.372a.718.718 0 0 1 .635-.358h2.775a.71.71 0 0 1 .374.098.66.66 0 0 1 .261.26.699.699 0 0 1 .099.372v.01a.724.724 0 0 1-.36.637.736.736 0 0 1-.374.093h-2.775a.705.705 0 0 1-.635-.353.724.724 0 0 1-.099-.377v-.01zm2.764 0c0-.14.033-.264.098-.372a.672.672 0 0 1 .261-.26.715.715 0 0 1 .374-.098h2.776c.141 0 .266.033.374.098a.66.66 0 0 1 .261.26.708.708 0 0 1 .099.372v.01c0 .14-.034.266-.099.377a.7.7 0 0 1-.635.353h-2.776a.741.741 0 0 1-.374-.093.715.715 0 0 1-.359-.637v-.01zm2.764 0c0-.14.032-.264.098-.372a.66.66 0 0 1 .261-.26.712.712 0 0 1 .374-.098h2.776c.141 0 .265.033.374.098a.672.672 0 0 1 .261.26.707.707 0 0 1 .098.372v.01a.715.715 0 0 1-.359.637.741.741 0 0 1-.374.093h-2.776a.7.7 0 0 1-.635-.353.724.724 0 0 1-.098-.377v-.01zm2.763 0c0-.14.033-.264.099-.372a.663.663 0 0 1 .26-.26.715.715 0 0 1 .374-.098h2.776a.71.71 0 0 1 .374.098.66.66 0 0 1 .261.26.699.699 0 0 1 .099.372v.01a.724.724 0 0 1-.36.637.736.736 0 0 1-.374.093h-2.776a.705.705 0 0 1-.634-.353.724.724 0 0 1-.099-.377v-.01zm2.764 0c0-.14.033-.264.098-.372a.666.666 0 0 1 .261-.26.715.715 0 0 1 .374-.098h2.776c.141 0 .266.033.374.098a.666.666 0 0 1 .261.26.707.707 0 0 1 .098.372v.01c0 .14-.033.266-.098.377a.708.708 0 0 1-.635.353h-2.776a.708.708 0 0 1-.635-.353.733.733 0 0 1-.098-.377v-.01zm2.763 0c0-.14.033-.264.099-.372a.66.66 0 0 1 .261-.26.712.712 0 0 1 .374-.098h2.776c.141 0 .265.033.374.098a.672.672 0 0 1 .261.26.707.707 0 0 1 .098.372v.01a.715.715 0 0 1-.359.637.741.741 0 0 1-.374.093h-2.776a.7.7 0 0 1-.635-.353.724.724 0 0 1-.099-.377v-.01zm2.764 0c0-.14.033-.264.098-.372a.672.672 0 0 1 .261-.26.715.715 0 0 1 .374-.098h2.776c.141 0 .266.033.374.098a.66.66 0 0 1 .261.26.698.698 0 0 1 .098.372v.01a.724.724 0 0 1-.359.637.739.739 0 0 1-.374.093h-2.776a.741.741 0 0 1-.374-.093.715.715 0 0 1-.359-.637v-.01zm2.764 0c0-.14.033-.264.098-.372a.666.666 0 0 1 .261-.26.712.712 0 0 1 .374-.098h2.776c.141 0 .266.033.374.098a.666.666 0 0 1 .261.26.707.707 0 0 1 .098.372v.01c0 .14-.033.266-.098.377a.708.708 0 0 1-.635.353h-2.776a.708.708 0 0 1-.635-.353.733.733 0 0 1-.098-.377v-.01zm2.763 0c0-.14.033-.264.099-.372a.66.66 0 0 1 .261-.26.712.712 0 0 1 .374-.098h2.776c.141 0 .265.033.374.098a.663.663 0 0 1 .26.26.699.699 0 0 1 .099.372v.01a.724.724 0 0 1-.359.637.741.741 0 0 1-.374.093h-2.776a.7.7 0 0 1-.635-.353.724.724 0 0 1-.099-.377v-.01zm2.764 0c0-.14.033-.264.098-.372a.672.672 0 0 1 .261-.26.712.712 0 0 1 .374-.098h2.776c.141 0 .266.033.374.098a.66.66 0 0 1 .261.26.698.698 0 0 1 .098.372v.01a.724.724 0 0 1-.359.637.739.739 0 0 1-.374.093h-2.776a.739.739 0 0 1-.374-.093.715.715 0 0 1-.359-.637v-.01zm2.764 0c0-.14.032-.264.098-.372a.66.66 0 0 1 .261-.26.712.712 0 0 1 .374-.098h2.776c.141 0 .266.033.374.098a.672.672 0 0 1 .261.26.707.707 0 0 1 .098.372v.01a.715.715 0 0 1-.359.637.739.739 0 0 1-.374.093h-2.776a.7.7 0 0 1-.635-.353.724.724 0 0 1-.098-.377v-.01zm2.763 0c0-.14.033-.264.099-.372a.66.66 0 0 1 .261-.26.712.712 0 0 1 .374-.098h2.775a.718.718 0 0 1 .635.358.699.699 0 0 1 .099.372v.01a.724.724 0 0 1-.359.637.745.745 0 0 1-.375.093h-2.775a.7.7 0 0 1-.635-.353.724.724 0 0 1-.099-.377v-.01zm2.764 0c0-.14.033-.264.098-.372a.672.672 0 0 1 .261-.26.712.712 0 0 1 .374-.098h2.776c.141 0 .266.033.374.098a.66.66 0 0 1 .261.26.698.698 0 0 1 .098.372v.01a.724.724 0 0 1-.359.637.739.739 0 0 1-.374.093h-2.776a.739.739 0 0 1-.374-.093.715.715 0 0 1-.359-.637v-.01zm2.764 0c0-.14.032-.264.098-.372a.66.66 0 0 1 .261-.26.712.712 0 0 1 .374-.098h2.776c.141 0 .266.033.374.098a.672.672 0 0 1 .261.26.707.707 0 0 1 .098.372v.01a.715.715 0 0 1-.359.637.739.739 0 0 1-.374.093h-2.776a.7.7 0 0 1-.635-.353.724.724 0 0 1-.098-.377v-.01zm2.763 0c0-.14.033-.264.099-.372a.66.66 0 0 1 .261-.26.712.712 0 0 1 .374-.098h1.417c.141 0 .266.033.374.098a.666.666 0 0 1 .261.26.698.698 0 0 1 .098.372v.01a.724.724 0 0 1-.359.637.739.739 0 0 1-.374.093h-1.417a.7.7 0 0 1-.635-.353.724.724 0 0 1-.099-.377v-.01z" fill="#CACACA"/><path d="M121.687 149.775h-4.219c-.679 0-1.23.549-1.23 1.225v4.2c0 .677.551 1.225 1.23 1.225h4.219c.679 0 1.23-.548 1.23-1.225V151c0-.676-.551-1.225-1.23-1.225z" stroke="#C7CADE" stroke-width=".5"/><path d="M126.573 153.628a.7.7 0 0 1 .099-.373.66.66 0 0 1 .261-.26.71.71 0 0 1 .374-.098h2.775c.141 0 .266.033.374.098a.66.66 0 0 1 .261.26.7.7 0 0 1 .099.373v.009a.725.725 0 0 1-.36.637.739.739 0 0 1-.374.093h-2.775a.705.705 0 0 1-.635-.352.725.725 0 0 1-.099-.378v-.009zm2.764 0c0-.141.033-.265.098-.373a.672.672 0 0 1 .261-.26.712.712 0 0 1 .374-.098h1.418c.141 0 .265.033.374.098a.672.672 0 0 1 .261.26.709.709 0 0 1 .098.373v.009a.72.72 0 0 1-.359.637.741.741 0 0 1-.374.093h-1.418a.739.739 0 0 1-.374-.093.72.72 0 0 1-.359-.637v-.009zm1.408 0a.7.7 0 0 1 .099-.373.663.663 0 0 1 .26-.26.715.715 0 0 1 .374-.098h2.776c.141 0 .266.033.374.098a.66.66 0 0 1 .261.26.7.7 0 0 1 .099.373v.009a.725.725 0 0 1-.36.637.739.739 0 0 1-.374.093h-2.776a.741.741 0 0 1-.374-.093.725.725 0 0 1-.359-.637v-.009zm2.764 0c0-.141.033-.265.098-.373a.666.666 0 0 1 .261-.26.712.712 0 0 1 .374-.098h2.776c.141 0 .266.033.374.098a.666.666 0 0 1 .261.26.709.709 0 0 1 .098.373v.009a.713.713 0 0 1-.733.73h-2.776a.713.713 0 0 1-.733-.73v-.009zm2.763 0a.7.7 0 0 1 .099-.373.66.66 0 0 1 .261-.26.712.712 0 0 1 .374-.098h2.776c.141 0 .265.033.374.098a.672.672 0 0 1 .261.26.709.709 0 0 1 .098.373v.009a.72.72 0 0 1-.359.637.741.741 0 0 1-.374.093h-2.776a.705.705 0 0 1-.635-.352.725.725 0 0 1-.099-.378v-.009zm2.764 0c0-.141.033-.265.098-.373a.672.672 0 0 1 .261-.26.715.715 0 0 1 .374-.098h2.776c.141 0 .266.033.374.098a.66.66 0 0 1 .261.26.7.7 0 0 1 .098.373v.009a.725.725 0 0 1-.359.637.739.739 0 0 1-.374.093h-2.776a.741.741 0 0 1-.374-.093.72.72 0 0 1-.359-.637v-.009zm5.715 0a.7.7 0 0 1 .098-.373.666.666 0 0 1 .261-.26.712.712 0 0 1 .374-.098h1.418c.14 0 .265.033.374.098a.663.663 0 0 1 .26.26.7.7 0 0 1 .099.373v.009a.725.725 0 0 1-.359.637.744.744 0 0 1-.374.093h-1.418a.713.713 0 0 1-.733-.73v-.009zm1.408 0c0-.141.033-.265.098-.373a.672.672 0 0 1 .261-.26.715.715 0 0 1 .374-.098h2.776c.141 0 .266.033.374.098a.66.66 0 0 1 .261.26.7.7 0 0 1 .099.373v.009a.725.725 0 0 1-.36.637.739.739 0 0 1-.374.093h-2.776a.741.741 0 0 1-.374-.093.72.72 0 0 1-.359-.637v-.009zm2.764 0c0-.141.033-.265.098-.373a.666.666 0 0 1 .261-.26.712.712 0 0 1 .374-.098h2.776c.141 0 .265.033.374.098a.666.666 0 0 1 .261.26.709.709 0 0 1 .098.373v.009a.713.713 0 0 1-.733.73h-2.776a.713.713 0 0 1-.733-.73v-.009zm2.763 0a.7.7 0 0 1 .099-.373.66.66 0 0 1 .261-.26.71.71 0 0 1 .374-.098h2.776c.141 0 .265.033.374.098a.663.663 0 0 1 .26.26.7.7 0 0 1 .099.373v.009a.725.725 0 0 1-.359.637.741.741 0 0 1-.374.093h-2.776a.705.705 0 0 1-.635-.352.725.725 0 0 1-.099-.378v-.009zm2.764 0c0-.141.033-.265.098-.373a.672.672 0 0 1 .261-.26.715.715 0 0 1 .374-.098h2.776c.141 0 .266.033.374.098a.66.66 0 0 1 .261.26.7.7 0 0 1 .098.373v.009a.725.725 0 0 1-.359.637.739.739 0 0 1-.374.093h-2.776a.741.741 0 0 1-.374-.093.72.72 0 0 1-.359-.637v-.009zm2.763 0a.71.71 0 0 1 .099-.373.66.66 0 0 1 .261-.26.712.712 0 0 1 .374-.098h2.776c.141 0 .265.033.374.098a.672.672 0 0 1 .261.26.709.709 0 0 1 .098.373v.009a.72.72 0 0 1-.359.637.741.741 0 0 1-.374.093h-2.776a.705.705 0 0 1-.635-.352.735.735 0 0 1-.099-.378v-.009zm2.764 0a.7.7 0 0 1 .099-.373.66.66 0 0 1 .261-.26.71.71 0 0 1 .374-.098h2.776c.14 0 .265.033.374.098a.663.663 0 0 1 .26.26.7.7 0 0 1 .099.373v.009a.725.725 0 0 1-.359.637.744.744 0 0 1-.374.093h-2.776a.705.705 0 0 1-.635-.352.725.725 0 0 1-.099-.378v-.009zm2.764 0c0-.141.033-.265.098-.373a.672.672 0 0 1 .261-.26.712.712 0 0 1 .374-.098h2.776c.141 0 .266.033.374.098a.66.66 0 0 1 .261.26.7.7 0 0 1 .098.373v.009a.725.725 0 0 1-.359.637.739.739 0 0 1-.374.093h-2.776a.739.739 0 0 1-.374-.093.72.72 0 0 1-.359-.637v-.009zm2.763 0a.7.7 0 0 1 .099-.373.66.66 0 0 1 .261-.26.712.712 0 0 1 .374-.098h2.776c.141 0 .265.033.374.098a.663.663 0 0 1 .26.26.7.7 0 0 1 .099.373v.009a.725.725 0 0 1-.359.637.741.741 0 0 1-.374.093h-2.776a.705.705 0 0 1-.635-.352.725.725 0 0 1-.099-.378v-.009zm2.764 0a.7.7 0 0 1 .099-.373.66.66 0 0 1 .261-.26.71.71 0 0 1 .374-.098h2.775c.141 0 .266.033.374.098a.66.66 0 0 1 .261.26.7.7 0 0 1 .099.373v.009a.725.725 0 0 1-.36.637.739.739 0 0 1-.374.093h-2.775a.705.705 0 0 1-.635-.352.725.725 0 0 1-.099-.378v-.009zm2.764 0a.7.7 0 0 1 .098-.373.666.666 0 0 1 .261-.26.712.712 0 0 1 .374-.098h2.776c.141 0 .266.033.374.098a.666.666 0 0 1 .261.26.7.7 0 0 1 .098.373v.009a.725.725 0 0 1-.359.637.739.739 0 0 1-.374.093h-2.776a.713.713 0 0 1-.733-.73v-.009zm2.763 0a.7.7 0 0 1 .099-.373.66.66 0 0 1 .261-.26.712.712 0 0 1 .374-.098h2.775c.142 0 .266.033.375.098a.663.663 0 0 1 .26.26.7.7 0 0 1 .099.373v.009a.725.725 0 0 1-.359.637.742.742 0 0 1-.375.093h-2.775a.705.705 0 0 1-.635-.352.725.725 0 0 1-.099-.378v-.009zm2.764 0c0-.141.033-.265.098-.373a.672.672 0 0 1 .261-.26.712.712 0 0 1 .374-.098h2.776c.141 0 .266.033.374.098a.66.66 0 0 1 .261.26.7.7 0 0 1 .099.373v.009a.725.725 0 0 1-.36.637.739.739 0 0 1-.374.093h-2.776a.739.739 0 0 1-.374-.093.72.72 0 0 1-.359-.637v-.009zm2.764 0a.7.7 0 0 1 .098-.373.66.66 0 0 1 .261-.26.712.712 0 0 1 .374-.098h2.776c.141 0 .266.033.374.098a.672.672 0 0 1 .261.26.709.709 0 0 1 .098.373v.009a.72.72 0 0 1-.359.637.739.739 0 0 1-.374.093h-2.776a.705.705 0 0 1-.635-.352.725.725 0 0 1-.098-.378v-.009zm2.763 0a.7.7 0 0 1 .099-.373.66.66 0 0 1 .261-.26.712.712 0 0 1 .374-.098h2.775c.141 0 .266.033.374.098a.66.66 0 0 1 .261.26.7.7 0 0 1 .099.373v.009a.725.725 0 0 1-.36.637.739.739 0 0 1-.374.093h-2.775a.705.705 0 0 1-.635-.352.725.725 0 0 1-.099-.378v-.009zm2.764 0c0-.141.033-.265.098-.373a.672.672 0 0 1 .261-.26.712.712 0 0 1 .374-.098h2.776c.141 0 .266.033.374.098a.66.66 0 0 1 .261.26.7.7 0 0 1 .098.373v.009a.725.725 0 0 1-.359.637.739.739 0 0 1-.374.093h-2.776a.739.739 0 0 1-.374-.093.72.72 0 0 1-.359-.637v-.009zm2.764 0a.7.7 0 0 1 .098-.373.66.66 0 0 1 .261-.26.712.712 0 0 1 .374-.098h2.776c.141 0 .266.033.374.098a.672.672 0 0 1 .261.26.709.709 0 0 1 .098.373v.009a.72.72 0 0 1-.359.637.739.739 0 0 1-.374.093h-2.776a.705.705 0 0 1-.635-.352.725.725 0 0 1-.098-.378v-.009zm2.763 0a.7.7 0 0 1 .099-.373.663.663 0 0 1 .26-.26.715.715 0 0 1 .374-.098h2.776c.141 0 .266.033.374.098a.66.66 0 0 1 .261.26.7.7 0 0 1 .099.373v.009a.725.725 0 0 1-.36.637.739.739 0 0 1-.374.093h-2.776a.741.741 0 0 1-.374-.093.725.725 0 0 1-.359-.637v-.009zm2.764 0c0-.141.033-.265.098-.373a.672.672 0 0 1 .261-.26.712.712 0 0 1 .374-.098h1.417a.71.71 0 0 1 .374.098.66.66 0 0 1 .261.26.7.7 0 0 1 .099.373v.009a.725.725 0 0 1-.36.637.736.736 0 0 1-.374.093h-1.417a.739.739 0 0 1-.374-.093.72.72 0 0 1-.359-.637v-.009z" fill="#CACACA"/><path d="M247.892 174.975h-28.827c-.679 0-1.23.548-1.23 1.225v11.2c0 .676.551 1.225 1.23 1.225h28.827c.68 0 1.231-.549 1.231-1.225v-11.2c0-.677-.551-1.225-1.231-1.225z" fill="#fff"/><path d="M247.892 174.975h-28.827c-.679 0-1.23.548-1.23 1.225v11.2c0 .676.551 1.225 1.23 1.225h28.827c.68 0 1.231-.549 1.231-1.225v-11.2c0-.677-.551-1.225-1.231-1.225z" stroke="#1578F7" stroke-width=".5"/><path d="M227.131 181.152h-.623a.943.943 0 0 0-.374-.607c-.094-.07-.2-.124-.317-.159a1.24 1.24 0 0 0-.37-.054c-.235 0-.446.059-.633.177a1.21 1.21 0 0 0-.439.519c-.107.228-.16.506-.16.835 0 .332.053.612.16.84.108.228.255.4.441.517.186.116.396.175.629.175.129 0 .252-.017.368-.052.117-.036.223-.088.318-.157a.96.96 0 0 0 .377-.599l.623.002a1.64 1.64 0 0 1-.194.553 1.536 1.536 0 0 1-.365.434c-.148.12-.317.214-.507.28a1.895 1.895 0 0 1-.624.099 1.8 1.8 0 0 1-.947-.25 1.752 1.752 0 0 1-.654-.722c-.159-.313-.238-.686-.238-1.12 0-.435.08-.808.239-1.119.16-.313.379-.553.656-.72.277-.169.592-.253.944-.253.217 0 .42.032.608.094.189.061.358.151.509.27.151.118.275.263.373.434.099.17.166.364.2.583zm1.583 2.815a1.25 1.25 0 0 1-.527-.107.887.887 0 0 1-.373-.316.9.9 0 0 1-.136-.507c0-.173.033-.315.1-.426a.738.738 0 0 1 .27-.265c.113-.064.239-.113.379-.147.14-.033.282-.058.427-.075l.448-.052a.67.67 0 0 0 .25-.069c.052-.032.078-.084.078-.156v-.013c0-.174-.05-.309-.148-.404-.097-.096-.243-.143-.436-.143-.201 0-.359.044-.475.133a.71.71 0 0 0-.238.292l-.561-.127a1.082 1.082 0 0 1 .737-.7 1.747 1.747 0 0 1 .919-.036c.138.028.267.08.387.155a.867.867 0 0 1 .298.324c.077.14.116.321.116.543v2.029h-.584v-.418h-.024a.846.846 0 0 1-.173.227.94.94 0 0 1-.298.185 1.16 1.16 0 0 1-.436.073zm.131-.477a.861.861 0 0 0 .423-.097.683.683 0 0 0 .363-.595v-.394a.302.302 0 0 1-.123.06c-.06.017-.129.033-.206.046l-.226.033-.184.024a1.487 1.487 0 0 0-.317.074.537.537 0 0 0-.228.149.373.373 0 0 0-.084.255c0 .147.055.258.164.334a.728.728 0 0 0 .418.111zm2.776-1.404v1.814h-.597v-3.055h.574v.497h.037a.882.882 0 0 1 .332-.389 1.03 1.03 0 0 1 .573-.148c.209 0 .392.044.549.132.158.086.28.215.366.385.087.171.13.383.13.635v1.943h-.597v-1.872c0-.221-.058-.394-.174-.519a.62.62 0 0 0-.478-.188.746.746 0 0 0-.369.089.648.648 0 0 0-.254.262.867.867 0 0 0-.092.414zm4.057 1.875c-.297 0-.552-.067-.767-.201a1.326 1.326 0 0 1-.491-.558 1.847 1.847 0 0 1-.172-.816c0-.31.059-.583.176-.821.117-.238.282-.425.495-.559.213-.134.464-.201.753-.201.233 0 .441.043.623.13a1.086 1.086 0 0 1 .644.897h-.582a.686.686 0 0 0-.22-.37c-.112-.104-.264-.155-.455-.155a.74.74 0 0 0-.437.131.838.838 0 0 0-.29.37 1.409 1.409 0 0 0-.104.564c0 .223.034.415.102.577a.857.857 0 0 0 .288.376.74.74 0 0 0 .441.133c.113 0 .216-.02.308-.062a.622.622 0 0 0 .234-.181.67.67 0 0 0 .133-.282h.582a1.125 1.125 0 0 1-.194.529 1.12 1.12 0 0 1-.434.366 1.41 1.41 0 0 1-.633.133zm3.222 0c-.303 0-.563-.064-.782-.193a1.306 1.306 0 0 1-.503-.547 1.841 1.841 0 0 1-.175-.829c0-.313.058-.588.175-.827.119-.238.284-.425.496-.559.213-.134.462-.201.747-.201.173 0 .34.029.503.086a1.21 1.21 0 0 1 .743.744c.074.193.112.429.112.705v.212h-2.439v-.446h1.854a.87.87 0 0 0-.096-.415.717.717 0 0 0-.27-.289.757.757 0 0 0-.403-.106.785.785 0 0 0-.44.124.821.821 0 0 0-.287.318.91.91 0 0 0-.1.424v.348c0 .204.036.378.108.521a.782.782 0 0 0 .305.328.914.914 0 0 0 .458.111.945.945 0 0 0 .309-.048.626.626 0 0 0 .397-.387l.566.101a1 1 0 0 1-.244.435c-.116.124-.261.22-.437.289a1.64 1.64 0 0 1-.597.101zm2.576-4.134v4.073h-.598v-4.073h.598zM285.157 174.8H256.33c-.777 0-1.406.627-1.406 1.4v11.2c0 .773.629 1.4 1.406 1.4h28.827c.776 0 1.406-.627 1.406-1.4v-11.2c0-.773-.63-1.4-1.406-1.4z" fill="#1578F7"/><path d="M265.914 183.9h-.655l1.472-4.073h.713l1.472 4.073h-.655l-1.157-3.333h-.032l-1.158 3.333zm.11-1.595h2.125v.517h-2.125v-.517zm4.534 1.654a1.19 1.19 0 0 1-.663-.188 1.303 1.303 0 0 1-.456-.543 2.017 2.017 0 0 1-.163-.85c0-.33.055-.612.165-.847.112-.235.265-.414.46-.539a1.2 1.2 0 0 1 .661-.187c.19 0 .343.032.459.096a.814.814 0 0 1 .272.219c.065.083.116.157.152.221h.036v-1.514h.597v4.073h-.583v-.476h-.05a1.49 1.49 0 0 1-.156.223.877.877 0 0 1-.276.219.97.97 0 0 1-.455.093zm.132-.507a.698.698 0 0 0 .435-.135.83.83 0 0 0 .272-.38 1.57 1.57 0 0 0 .094-.565c0-.212-.031-.397-.092-.557a.825.825 0 0 0-.27-.371.712.712 0 0 0-.439-.134c-.18 0-.33.047-.45.14a.851.851 0 0 0-.272.379 1.57 1.57 0 0 0-.089.543c0 .205.03.388.092.551a.876.876 0 0 0 .271.388.711.711 0 0 0 .448.141zm3.389.507a1.19 1.19 0 0 1-.663-.188 1.303 1.303 0 0 1-.456-.543 2.017 2.017 0 0 1-.164-.85c0-.33.056-.612.166-.847.112-.235.265-.414.46-.539.194-.124.415-.187.661-.187.19 0 .343.032.459.096a.804.804 0 0 1 .272.219c.065.083.116.157.152.221h.036v-1.514h.597v4.073h-.583v-.476h-.05a1.49 1.49 0 0 1-.156.223.877.877 0 0 1-.276.219.97.97 0 0 1-.455.093zm.132-.507a.696.696 0 0 0 .435-.135.838.838 0 0 0 .272-.38 1.57 1.57 0 0 0 .094-.565c0-.212-.031-.397-.092-.557a.818.818 0 0 0-.27-.371.71.71 0 0 0-.439-.134c-.18 0-.33.047-.45.14a.842.842 0 0 0-.271.379c-.06.161-.09.342-.09.543 0 .205.031.388.092.551a.884.884 0 0 0 .271.388c.121.094.27.141.448.141z" fill="#fff"/><g filter="url(#d)"><rect x="68" y="162" width="89" height="23" rx="4" fill="#1578F7" shape-rendering="crispEdges"/><path d="M81.066 175.401v-4.321h.86v4.321h-.86zm-1.729-1.733v-.856h4.321v.856h-4.32zm8.811 2.832H87.1l2.355-6.545h1.141l2.356 6.545h-1.049l-1.85-5.357h-.051l-1.854 5.357zm.176-2.563h3.4v.831h-3.4v-.831zm7.255 2.659c-.397 0-.75-.101-1.061-.304a2.065 2.065 0 0 1-.729-.872c-.175-.38-.262-.834-.262-1.365 0-.53.088-.984.265-1.361.18-.378.424-.666.735-.867.311-.2.664-.3 1.058-.3.305 0 .55.051.735.153.188.101.333.218.435.352.104.134.185.252.243.355h.057v-2.432h.956v6.545h-.933v-.764h-.08c-.058.105-.14.224-.25.358a1.387 1.387 0 0 1-.44.352c-.188.1-.431.15-.73.15zm.21-.815c.275 0 .508-.073.697-.217.192-.147.337-.351.435-.611.1-.26.15-.562.15-.908 0-.34-.049-.639-.147-.894a1.316 1.316 0 0 0-.431-.598 1.134 1.134 0 0 0-.703-.214c-.288 0-.528.074-.72.223-.191.15-.336.353-.434.611a2.49 2.49 0 0 0-.144.872c0 .329.05.624.147.886.098.262.243.47.435.623.194.151.432.227.716.227zm5.424.815c-.397 0-.75-.101-1.062-.304a2.067 2.067 0 0 1-.728-.872c-.175-.38-.262-.834-.262-1.365 0-.53.088-.984.265-1.361a2.04 2.04 0 0 1 .735-.867c.311-.2.664-.3 1.058-.3.305 0 .55.051.735.153.188.101.332.218.435.352.104.134.185.252.243.355h.057v-2.432h.956v6.545h-.934v-.764h-.079a2.505 2.505 0 0 1-.25.358 1.376 1.376 0 0 1-.441.352c-.187.1-.43.15-.728.15zm.21-.815c.275 0 .508-.073.697-.217.192-.147.337-.351.435-.611.1-.26.15-.562.15-.908 0-.34-.049-.639-.147-.894a1.319 1.319 0 0 0-.431-.598 1.136 1.136 0 0 0-.704-.214c-.287 0-.527.074-.719.223-.191.15-.336.353-.434.611a2.488 2.488 0 0 0-.144.872c0 .329.049.624.147.886.098.262.243.47.435.623.193.151.432.227.715.227zm6.923-5.826v6.545h-.956v-6.545h.956zm2.714 6.654a2 2 0 0 1-.843-.173 1.414 1.414 0 0 1-.598-.508c-.145-.222-.217-.493-.217-.815 0-.277.053-.505.159-.684.107-.179.251-.321.432-.425.181-.104.383-.183.607-.237.224-.053.452-.093.684-.121l.716-.083c.183-.024.316-.061.399-.112.084-.051.125-.134.125-.249v-.023c0-.279-.079-.495-.236-.648-.156-.154-.388-.231-.697-.231-.322 0-.575.072-.761.215-.183.14-.31.297-.38.469l-.898-.204c.106-.298.262-.539.466-.722a1.89 1.89 0 0 1 .713-.403c.269-.085.551-.128.847-.128.196 0 .404.023.623.07.222.045.429.128.62.25.194.121.353.295.476.521.124.223.186.514.186.872v3.26h-.933v-.671h-.039a1.358 1.358 0 0 1-.278.364 1.46 1.46 0 0 1-.476.297 1.844 1.844 0 0 1-.697.119zm.208-.767c.264 0 .49-.053.678-.157.189-.104.333-.241.431-.409.1-.171.15-.353.15-.547v-.632a.488.488 0 0 1-.198.095 2.965 2.965 0 0 1-.329.074l-.361.054-.294.039a2.35 2.35 0 0 0-.508.118.864.864 0 0 0-.365.24.6.6 0 0 0-.134.409c0 .236.087.415.262.537.175.119.397.179.668.179zm4.443-2.257v2.915h-.955v-4.909h.917v.799h.061c.113-.26.289-.469.53-.627.243-.157.549-.236.917-.236.335 0 .628.07.879.211.252.138.447.345.585.62.139.275.208.615.208 1.019v3.123h-.956v-3.007c0-.356-.092-.634-.278-.835-.185-.202-.44-.303-.764-.303-.221 0-.418.048-.591.144-.17.095-.306.236-.406.421a1.396 1.396 0 0 0-.147.665zm6.482 4.858c-.39 0-.726-.051-1.007-.153a1.954 1.954 0 0 1-.684-.406 1.696 1.696 0 0 1-.396-.553l.821-.339c.058.094.134.193.23.297.098.107.23.198.397.272.168.075.384.112.648.112.363 0 .662-.088.898-.265.237-.175.355-.454.355-.838v-.965h-.06a2.132 2.132 0 0 1-.25.348 1.34 1.34 0 0 1-.441.333c-.187.094-.431.14-.732.14-.387 0-.737-.09-1.048-.271a1.925 1.925 0 0 1-.735-.809c-.179-.358-.269-.798-.269-1.32s.089-.969.266-1.342c.179-.373.424-.658.735-.857.311-.2.664-.3 1.058-.3.304 0 .55.051.738.153.187.101.333.218.438.352.106.134.188.252.246.355h.07v-.796h.937v5.018c0 .422-.098.768-.294 1.038a1.73 1.73 0 0 1-.796.601c-.333.13-.708.195-1.125.195zm-.01-2.809c.275 0 .507-.064.697-.192.192-.13.337-.315.435-.556.1-.243.15-.534.15-.873 0-.33-.049-.621-.147-.872a1.299 1.299 0 0 0-.432-.588 1.133 1.133 0 0 0-.703-.214c-.287 0-.527.074-.719.223a1.357 1.357 0 0 0-.435.601 2.41 2.41 0 0 0-.143.85c0 .322.049.605.147.847.098.243.243.433.434.569.194.137.433.205.716.205zm6.616-1.17v-2.873h.959v4.909h-.94v-.85h-.051c-.113.262-.294.48-.543.655-.247.173-.555.259-.924.259-.315 0-.594-.069-.837-.208a1.45 1.45 0 0 1-.569-.623c-.137-.275-.205-.615-.205-1.02v-3.122h.956v3.007c0 .335.093.601.278.799a.94.94 0 0 0 .722.298c.179 0 .357-.045.534-.135.179-.089.327-.224.444-.406.12-.181.178-.411.176-.69zm3.671 2.145a2 2 0 0 1-.843-.173 1.414 1.414 0 0 1-.598-.508c-.145-.222-.217-.493-.217-.815 0-.277.053-.505.16-.684.106-.179.25-.321.431-.425.181-.104.383-.183.607-.237.224-.053.452-.093.684-.121l.716-.083c.183-.024.316-.061.4-.112.083-.051.124-.134.124-.249v-.023c0-.279-.079-.495-.236-.648-.156-.154-.388-.231-.697-.231-.322 0-.575.072-.761.215-.183.14-.31.297-.38.469l-.898-.204c.106-.298.262-.539.467-.722a1.88 1.88 0 0 1 .712-.403c.269-.085.551-.128.847-.128.196 0 .404.023.623.07.222.045.429.128.62.25.194.121.353.295.477.521.123.223.185.514.185.872v3.26h-.933v-.671h-.039a1.338 1.338 0 0 1-.278.364 1.46 1.46 0 0 1-.476.297 1.844 1.844 0 0 1-.697.119zm.208-.767c.264 0 .49-.053.678-.157.189-.104.333-.241.431-.409.1-.171.15-.353.15-.547v-.632a.488.488 0 0 1-.198.095 2.915 2.915 0 0 1-.329.074l-.361.054-.294.039a2.365 2.365 0 0 0-.508.118.864.864 0 0 0-.365.24.6.6 0 0 0-.134.409c0 .236.087.415.262.537.175.119.398.179.668.179zm5.546 2.601c-.39 0-.725-.051-1.007-.153a1.954 1.954 0 0 1-.684-.406 1.71 1.71 0 0 1-.396-.553l.821-.339c.058.094.135.193.231.297.098.107.23.198.396.272.168.075.384.112.649.112.362 0 .661-.088.898-.265.236-.175.355-.454.355-.838v-.965h-.061a2.132 2.132 0 0 1-.25.348 1.34 1.34 0 0 1-.441.333c-.187.094-.431.14-.731.14-.388 0-.738-.09-1.049-.271a1.925 1.925 0 0 1-.735-.809c-.179-.358-.268-.798-.268-1.32s.088-.969.265-1.342c.179-.373.424-.658.735-.857.311-.2.664-.3 1.058-.3.305 0 .551.051.738.153.188.101.334.218.438.352.107.134.189.252.246.355h.07v-.796h.937v5.018c0 .422-.098.768-.294 1.038a1.726 1.726 0 0 1-.796.601c-.332.13-.707.195-1.125.195zm-.01-2.809c.275 0 .508-.064.697-.192.192-.13.337-.315.435-.556.1-.243.15-.534.15-.873 0-.33-.049-.621-.147-.872a1.304 1.304 0 0 0-.431-.588 1.136 1.136 0 0 0-.704-.214c-.287 0-.527.074-.719.223a1.363 1.363 0 0 0-.434.601 2.387 2.387 0 0 0-.144.85c0 .322.049.605.147.847.098.243.243.433.435.569.193.137.432.205.715.205zm5.622.965c-.483 0-.9-.103-1.249-.31a2.104 2.104 0 0 1-.806-.879c-.187-.379-.281-.823-.281-1.333 0-.502.094-.946.281-1.329.19-.384.454-.683.793-.898a2.192 2.192 0 0 1 1.195-.323c.277 0 .546.046.806.137.26.092.493.236.7.432.206.196.369.451.488.764.12.311.179.689.179 1.134v.339h-3.902v-.716h2.966c0-.251-.051-.474-.153-.668a1.161 1.161 0 0 0-.432-.463 1.203 1.203 0 0 0-.645-.17c-.269 0-.503.066-.704.199-.198.13-.351.3-.46.511-.106.209-.16.436-.16.681v.559c0 .328.058.607.173.837.117.23.28.406.489.528.209.119.453.179.732.179.181 0 .346-.026.495-.077.149-.053.278-.132.387-.237.109-.104.192-.233.249-.386l.905.163a1.656 1.656 0 0 1-.39.7 1.9 1.9 0 0 1-.7.463 2.614 2.614 0 0 1-.956.163z" fill="#fff"/></g></g><defs><linearGradient id="b" x1="828.576" y1="-199.735" x2="250.122" y2="515.022" gradientUnits="userSpaceOnUse"><stop stop-color="#1863DC"/><stop offset="1" stop-color="#D1E0F8"/></linearGradient><clipPath id="a"><rect width="379" height="226" rx="8" fill="#fff"/></clipPath><filter id="d" x="62" y="160" width="97" height="31" filterUnits="userSpaceOnUse" color-interpolation-filters="sRGB"><feFlood flood-opacity="0" result="BackgroundImageFix"/><feColorMatrix in="SourceAlpha" values="0 0 0 0 0 0 0 0 0 0 0 0 0 0 0 0 0 0 127 0" result="hardAlpha"/><feOffset dx="-2" dy="2"/><feGaussianBlur stdDeviation="2"/><feComposite in2="hardAlpha" operator="out"/><feColorMatrix values="0 0 0 0 0 0 0 0 0 0 0 0 0 0 0 0 0 0 0.16 0"/><feBlend in2="BackgroundImageFix" result="effect1_dropShadow_5653_15236"/><feBlend in="SourceGraphic" in2="effect1_dropShadow_5653_15236" result="shape"/></filter></defs></svg>