<svg width="188" height="30" fill="none" xmlns="http://www.w3.org/2000/svg"><path d="M13.225 2.954c6.265 0 10.947 3.5 12.466 9.228h-7.024c-1.076-2.291-3.1-3.373-5.505-3.373-3.923 0-6.644 2.927-6.644 7.636 0 4.71 2.72 7.636 6.644 7.636 2.404 0 4.43-1.145 5.505-3.372h7.024c-1.519 5.727-6.201 9.227-12.466 9.227C5.442 29.872 0 24.336 0 16.382 0 8.427 5.442 2.954 13.225 2.954zM38.473 30c-6.138 0-10.757-4.136-10.757-10.818 0-6.682 4.746-10.818 10.884-10.818S49.483 12.5 49.483 19.182c0 6.682-4.872 10.818-11.01 10.818zm0-5.6c2.278 0 4.43-1.718 4.43-5.218 0-3.564-2.089-5.218-4.367-5.218-2.341 0-4.366 1.654-4.366 5.218.063 3.5 1.962 5.218 4.303 5.218zM62.202 30c-6.138 0-10.757-4.136-10.757-10.818 0-6.682 4.746-10.818 10.884-10.818S73.213 12.5 73.213 19.182C73.213 25.864 68.34 30 62.203 30zm0-5.6c2.278 0 4.43-1.718 4.43-5.218 0-3.564-2.088-5.218-4.366-5.218-2.342 0-4.366 1.654-4.366 5.218 0 3.5 1.961 5.218 4.302 5.218zM75.49 2.954h6.392V17.21l6.328-8.527h7.91l-8.67 10.5 8.796 10.5h-7.91l-6.391-8.846v8.846h-6.391V2.953h-.063zM97.638 3.018c0-1.973 1.519-3.5 3.797-3.5 2.278 0 3.796 1.527 3.796 3.5 0 1.91-1.518 3.436-3.796 3.436-2.278 0-3.797-1.527-3.797-3.436zm.633 5.6h6.391v21h-6.391v-21zM117.571 30c-6.138 0-10.568-4.136-10.568-10.818 0-6.682 4.366-10.818 10.568-10.818 6.074 0 10.44 4.072 10.44 10.5 0 .572-.063 1.273-.126 1.909h-14.491c.253 2.736 1.899 4.009 3.987 4.009 1.772 0 2.784-.891 3.353-2.037h6.835c-1.076 4.073-4.746 7.255-9.998 7.255zm-4.113-12.854h8.036c0-2.291-1.772-3.628-3.923-3.628-2.152 0-3.734 1.273-4.113 3.628zM157.562 30c-6.138 0-10.567-4.136-10.567-10.818 0-6.682 4.366-10.818 10.567-10.818 6.075 0 10.441 4.072 10.441 10.5 0 .572-.063 1.273-.126 1.909h-14.491c.253 2.736 1.898 4.009 3.987 4.009 1.771 0 2.784-.891 3.353-2.037h6.834c-1.075 4.073-4.809 7.255-9.998 7.255zm-4.176-12.854h8.036c0-2.291-1.771-3.628-3.923-3.628-2.088 0-3.733 1.273-4.113 3.628zM179.583 30c-5.568 0-9.302-3.118-9.618-7.19h6.328c.126 1.463 1.455 2.417 3.227 2.417 1.645 0 2.531-.763 2.531-1.718 0-3.372-11.39-.954-11.39-8.654 0-3.564 3.037-6.491 8.479-6.491 5.379 0 8.416 2.99 8.796 7.127h-5.948c-.19-1.4-1.266-2.354-3.101-2.354-1.519 0-2.341.572-2.341 1.59 0 3.373 11.326.955 11.453 8.846.063 3.627-3.164 6.427-8.416 6.427z" fill="#404041"/><path d="M134.656 9h-6.645l6.075 11.327h6.644L134.656 9z" fill="#0056A7"/><path d="m133.96 20.01.189.317h6.645l-4.367-7.954-2.467 7.636z" fill="#2E3191"/><path d="m146.109-.545-11.96 20.872h6.645L152.753-.545h-6.644zM134.149 23.445h6.455V30h-6.455v-6.555z" fill="#0056A7"/></svg>