<svg width="379" height="226" fill="none" xmlns="http://www.w3.org/2000/svg"><g clip-path="url(#a)"><rect width="379" height="226" rx="8" fill="url(#b)"/><g clip-path="url(#c)"><path d="M321.011 29H58.989A5.995 5.995 0 0 0 53 35v155c0 3.314 2.681 6 5.99 6H321.01a5.994 5.994 0 0 0 5.989-6V35c0-3.314-2.681-6-5.989-6z" fill="#fff"/><path d="M70.54 54.48c0 1.1-.88 2.09-2.466 2.09-1.448 0-2.566-.76-2.586-2.08h1.498c.04.56.409.93 1.058.93.658 0 1.048-.35 1.048-.85 0-1.51-3.594-.6-3.584-3.13 0-1.26 1.018-2.02 2.456-2.02 1.427 0 2.405.73 2.495 1.99h-1.537c-.03-.46-.4-.82-.998-.83-.55-.02-.958.25-.958.82 0 1.4 3.573.62 3.573 3.08zm.851-.75c0-1.74 1.138-2.86 2.735-2.86 1.378 0 2.306.72 2.605 1.96h-1.507c-.16-.47-.529-.77-1.108-.77-.778 0-1.297.59-1.297 1.67s.519 1.66 1.297 1.66c.58 0 .939-.26 1.108-.76h1.507c-.299 1.18-1.227 1.96-2.605 1.96-1.597 0-2.735-1.12-2.735-2.86zm6.005-.02c0-1.73 1.118-2.84 2.525-2.84.889 0 1.498.42 1.827.88v-.79h1.407v5.54h-1.407v-.81c-.33.48-.958.9-1.837.9-1.397 0-2.515-1.15-2.515-2.88zm4.352.02c0-1.05-.699-1.63-1.467-1.63-.749 0-1.458.56-1.458 1.61s.709 1.65 1.458 1.65c.768 0 1.467-.58 1.467-1.63zm6.645 2.77v-3.06c0-.89-.489-1.37-1.228-1.37-.758 0-1.247.48-1.247 1.37v3.06H84.52v-5.54h1.398v.69c.359-.47.958-.77 1.667-.77 1.287 0 2.206.84 2.206 2.37v3.25h-1.398z" fill="#14142A"/><path d="m307.536 50.5 4.991 5M312.527 50.5l-4.991 5" stroke="#6E7191" stroke-width="2" stroke-linecap="round" stroke-linejoin="round"/><path d="M72.963 79c0-2.21-1.787-4-3.992-4a3.996 3.996 0 0 0-3.993 4c0 2.21 1.788 4 3.993 4a3.996 3.996 0 0 0 3.992-4z" fill="#1578F7"/><path d="M70.468 79c0-.828-.67-1.5-1.497-1.5-.827 0-1.497.672-1.497 1.5s.67 1.5 1.497 1.5c.827 0 1.497-.672 1.497-1.5z" fill="#fff"/><path d="M79.525 82v-5.818h3.72v.883h-2.668v1.58h2.414v.883h-2.413V82h-1.053zm7.137-1.835v-2.529h1.027V82h-.996v-.776h-.045c-.098.244-.26.444-.485.6-.223.155-.498.233-.825.233-.285 0-.538-.064-.757-.19a1.325 1.325 0 0 1-.51-.56c-.123-.247-.185-.544-.185-.892v-2.779h1.027v2.62c0 .276.075.496.226.659.152.162.35.244.596.244a.944.944 0 0 0 .44-.11.898.898 0 0 0 .348-.33c.093-.148.14-.333.14-.554zm3.109-3.983V82h-1.027v-5.818h1.027zm2.082 0V82h-1.026v-5.818h1.026zm6.479 2.608-.936.102a.755.755 0 0 0-.139-.267.69.69 0 0 0-.26-.202.95.95 0 0 0-.403-.077.983.983 0 0 0-.54.14c-.143.092-.214.213-.212.36a.377.377 0 0 0 .14.31c.096.08.254.145.476.196l.743.16c.412.088.718.23.918.422.203.194.305.446.306.759a1.187 1.187 0 0 1-.24.727 1.545 1.545 0 0 1-.656.489c-.28.117-.6.176-.964.176-.533 0-.962-.112-1.287-.335a1.348 1.348 0 0 1-.581-.94l1-.097a.706.706 0 0 0 .29.446c.147.1.34.15.576.15.243 0 .439-.05.587-.15.149-.1.224-.225.224-.372a.387.387 0 0 0-.145-.31c-.095-.081-.242-.144-.442-.187l-.744-.157c-.417-.087-.726-.234-.927-.44-.2-.208-.3-.472-.297-.79a1.12 1.12 0 0 1 .218-.699 1.43 1.43 0 0 1 .62-.46c.267-.11.575-.165.922-.165.51 0 .913.11 1.206.327.295.218.477.512.547.884zm2.84 3.295c-.435 0-.808-.096-1.12-.287a1.914 1.914 0 0 1-.718-.793 2.623 2.623 0 0 1-.25-1.17c0-.443.086-.834.256-1.173.17-.341.41-.606.72-.796.312-.191.681-.287 1.106-.287.354 0 .667.066.939.196.274.13.492.312.655.549.162.234.255.51.278.823h-.981a.939.939 0 0 0-.284-.525c-.147-.142-.345-.213-.593-.213a.922.922 0 0 0-.552.17 1.091 1.091 0 0 0-.372.483c-.087.21-.13.462-.13.756 0 .297.043.553.13.767.087.212.209.376.366.491.159.114.345.17.558.17a.934.934 0 0 0 .406-.084.814.814 0 0 0 .303-.253.975.975 0 0 0 .168-.4h.981a1.73 1.73 0 0 1-.272.82 1.615 1.615 0 0 1-.641.557 2.144 2.144 0 0 1-.953.199zm3.962.003c-.276 0-.524-.05-.746-.148a1.216 1.216 0 0 1-.521-.443 1.295 1.295 0 0 1-.191-.722c0-.246.046-.45.137-.61.091-.161.214-.29.371-.387.157-.096.334-.17.531-.219.198-.05.403-.088.615-.11.255-.027.462-.05.621-.071a.923.923 0 0 0 .346-.103c.074-.047.11-.12.11-.218v-.017c0-.214-.063-.38-.19-.498-.126-.117-.309-.176-.547-.176-.251 0-.451.055-.598.165a.815.815 0 0 0-.295.39l-.959-.137c.076-.265.201-.487.375-.665.174-.18.386-.314.638-.403.251-.091.529-.137.833-.137.21 0 .419.025.627.074.208.05.398.13.57.245.172.111.31.264.414.457.106.193.159.435.159.724V82h-.987V81.4h-.034a1.233 1.233 0 0 1-.686.594 1.7 1.7 0 0 1-.593.094zm.267-.756c.206 0 .385-.04.536-.122a.906.906 0 0 0 .349-.33.84.84 0 0 0 .124-.446v-.514a.488.488 0 0 1-.164.074 2.416 2.416 0 0 1-.255.06 8.615 8.615 0 0 1-.281.045l-.241.034a1.8 1.8 0 0 0-.412.103.686.686 0 0 0-.286.198.487.487 0 0 0-.105.324c0 .19.07.333.207.43a.903.903 0 0 0 .528.144zm4.092-1.89V82h-1.027v-4.364h.981v.742h.051c.101-.245.26-.439.479-.583.222-.144.495-.216.82-.216.301 0 .562.065.786.194a1.3 1.3 0 0 1 .522.56c.124.243.186.54.184.888V82h-1.027v-2.62c0-.291-.075-.52-.226-.684-.15-.165-.357-.247-.622-.247a.954.954 0 0 0-.479.119.824.824 0 0 0-.326.338 1.137 1.137 0 0 0-.116.537z" fill="#14142A"/><path d="M63.93 93.754c0-.2.047-.378.14-.532a.945.945 0 0 1 .37-.371c.154-.094.331-.14.531-.14h2.013c.2 0 .377.046.53.14a.945.945 0 0 1 .371.37c.093.155.14.332.14.533v.014c0 .2-.047.38-.14.539a1.01 1.01 0 0 1-.37.37c-.154.09-.331.134-.531.134H64.97c-.2 0-.377-.045-.53-.133a1.011 1.011 0 0 1-.371-.371 1.044 1.044 0 0 1-.14-.54v-.013zm2 0c0-.2.046-.378.14-.532a.944.944 0 0 1 .37-.371c.153-.094.33-.14.53-.14h3.941c.2 0 .378.046.531.14a.944.944 0 0 1 .37.37c.094.155.14.332.14.533v.014c0 .2-.046.38-.14.539a1.01 1.01 0 0 1-.37.37c-.153.09-.33.134-.53.134H66.97c-.2 0-.378-.045-.532-.133a1.01 1.01 0 0 1-.37-.371 1.044 1.044 0 0 1-.14-.54v-.013zm3.923 0c0-.2.047-.378.14-.532a.945.945 0 0 1 .37-.371c.154-.094.33-.14.531-.14h3.94c.201 0 .378.046.532.14a.944.944 0 0 1 .37.37c.093.155.14.332.14.533v.014c0 .2-.047.38-.14.539a1.01 1.01 0 0 1-.37.37c-.154.09-.33.134-.531.134h-3.94c-.201 0-.378-.045-.532-.133a1.011 1.011 0 0 1-.37-.371 1.044 1.044 0 0 1-.14-.54v-.013zm3.924 0c0-.2.046-.378.14-.532a.945.945 0 0 1 .37-.371c.153-.094.33-.14.53-.14h3.941c.2 0 .378.046.531.14a.944.944 0 0 1 .37.37c.094.155.14.332.14.533v.014c0 .2-.046.38-.14.539a1.01 1.01 0 0 1-.37.37c-.153.09-.33.134-.53.134h-3.941c-.2 0-.378-.045-.531-.133a1.011 1.011 0 0 1-.37-.371 1.044 1.044 0 0 1-.14-.54v-.013zm3.923 0c0-.2.047-.378.14-.532a.945.945 0 0 1 .37-.371c.154-.094.33-.14.531-.14h2.012c.2 0 .378.046.531.14a.944.944 0 0 1 .37.37c.094.155.14.332.14.533v.014c0 .2-.046.38-.14.539a1.01 1.01 0 0 1-.37.37c-.153.09-.33.134-.53.134H78.74c-.2 0-.377-.045-.531-.133a1.011 1.011 0 0 1-.37-.371 1.045 1.045 0 0 1-.14-.54v-.013zm2 0c0-.2.046-.378.139-.532a.945.945 0 0 1 .37-.371c.154-.094.331-.14.531-.14h3.941c.2 0 .377.046.531.14a.944.944 0 0 1 .37.37c.094.155.14.332.14.533v.014c0 .2-.046.38-.14.539a1.01 1.01 0 0 1-.37.37c-.154.09-.33.134-.53.134H80.74c-.2 0-.377-.045-.53-.133a1.011 1.011 0 0 1-.371-.371 1.044 1.044 0 0 1-.14-.54v-.013zm3.923 0c0-.2.046-.378.14-.532a.944.944 0 0 1 .37-.371c.154-.094.33-.14.53-.14h3.942c.2 0 .377.046.53.14a.944.944 0 0 1 .371.37c.093.155.14.332.14.533v.014c0 .2-.047.38-.14.539a1.01 1.01 0 0 1-.37.37c-.154.09-.331.134-.531.134h-3.941c-.2 0-.377-.045-.531-.133a1.01 1.01 0 0 1-.37-.371 1.045 1.045 0 0 1-.14-.54v-.013zm8.113 0c0-.2.046-.378.14-.532a.945.945 0 0 1 .37-.371c.154-.094.33-.14.531-.14h2.012c.2 0 .378.046.531.14a.945.945 0 0 1 .37.37c.094.155.14.332.14.533v.014c0 .2-.046.38-.14.539a1.01 1.01 0 0 1-.37.37c-.153.09-.33.134-.53.134h-2.013c-.2 0-.377-.045-.531-.133a1.01 1.01 0 0 1-.37-.371 1.044 1.044 0 0 1-.14-.54v-.013zm2 0c0-.2.046-.378.139-.532a.944.944 0 0 1 .37-.371c.154-.094.33-.14.531-.14h2.013c.2 0 .377.046.53.14a.945.945 0 0 1 .371.37c.093.155.14.332.14.533v.014c0 .2-.047.38-.14.539a1.011 1.011 0 0 1-.37.37c-.154.09-.331.134-.531.134h-2.013c-.2 0-.377-.045-.53-.133a1.01 1.01 0 0 1-.371-.371 1.044 1.044 0 0 1-.14-.54v-.013zm1.998 0c0-.2.047-.378.14-.532a.944.944 0 0 1 .37-.371c.154-.094.331-.14.531-.14h3.941c.201 0 .378.046.531.14a.945.945 0 0 1 .371.37c.093.155.139.332.139.533v.014c0 .2-.046.38-.139.539a1.012 1.012 0 0 1-.371.37c-.153.09-.33.134-.531.134h-3.94c-.2 0-.378-.045-.531-.133a1.01 1.01 0 0 1-.37-.371 1.044 1.044 0 0 1-.14-.54v-.013zm3.924 0c0-.2.046-.378.14-.532a.947.947 0 0 1 .37-.371c.154-.094.331-.14.531-.14h3.941c.2 0 .377.046.531.14a.943.943 0 0 1 .37.37 1 1 0 0 1 .14.533v.014a1.037 1.037 0 0 1-.51.91 1.047 1.047 0 0 1-.531.133h-3.941c-.2 0-.377-.045-.531-.133a1.013 1.013 0 0 1-.37-.371 1.044 1.044 0 0 1-.14-.54v-.013zm3.923 0c0-.2.047-.378.14-.532a.95.95 0 0 1 .37-.371c.154-.094.331-.14.531-.14h3.941c.201 0 .378.046.531.14a.945.945 0 0 1 .371.37c.093.155.139.332.139.533v.014c0 .2-.046.38-.139.539a1.012 1.012 0 0 1-.371.37c-.153.09-.33.134-.531.134h-3.941c-.2 0-.377-.045-.531-.133a1.016 1.016 0 0 1-.37-.371 1.046 1.046 0 0 1-.14-.54v-.013zm3.924 0c0-.2.047-.378.14-.532a.943.943 0 0 1 .37-.371c.154-.094.331-.14.531-.14h3.941c.2 0 .377.046.531.14a.943.943 0 0 1 .37.37c.093.155.14.332.14.533v.014c0 .2-.047.38-.14.539a1.009 1.009 0 0 1-.37.37 1.047 1.047 0 0 1-.531.134h-3.941c-.2 0-.377-.045-.531-.133a1.009 1.009 0 0 1-.37-.371 1.046 1.046 0 0 1-.14-.54v-.013zm3.923 0c0-.2.047-.378.14-.532a.945.945 0 0 1 .371-.371.998.998 0 0 1 .531-.14h3.94c.201 0 .378.046.531.14a.945.945 0 0 1 .371.37c.093.155.14.332.14.533v.014c0 .2-.047.38-.14.539a1.012 1.012 0 0 1-.371.37c-.153.09-.33.134-.531.134h-3.94c-.201 0-.378-.045-.531-.133a1.012 1.012 0 0 1-.371-.371 1.046 1.046 0 0 1-.14-.54v-.013zm3.924 0c0-.2.047-.378.14-.532a.943.943 0 0 1 .37-.371c.154-.094.331-.14.531-.14h3.941c.2 0 .377.046.531.14a.943.943 0 0 1 .37.37c.093.155.14.332.14.533v.014c0 .2-.047.38-.14.539a1.009 1.009 0 0 1-.37.37 1.047 1.047 0 0 1-.531.134h-3.941c-.2 0-.377-.045-.531-.133a1.009 1.009 0 0 1-.37-.371 1.046 1.046 0 0 1-.14-.54v-.013zm3.924 0c0-.2.046-.378.139-.532a.945.945 0 0 1 .371-.371.998.998 0 0 1 .531-.14h3.941c.2 0 .377.046.531.14a.95.95 0 0 1 .37.37c.093.155.14.332.14.533v.014c0 .2-.047.38-.14.539a1.016 1.016 0 0 1-.37.37 1.047 1.047 0 0 1-.531.134h-3.941c-.201 0-.378-.045-.531-.133a1.012 1.012 0 0 1-.371-.371 1.046 1.046 0 0 1-.139-.54v-.013zm3.923 0a1 1 0 0 1 .14-.532.943.943 0 0 1 .37-.371c.154-.094.331-.14.531-.14h3.941c.2 0 .377.046.531.14a.943.943 0 0 1 .37.37 1 1 0 0 1 .14.533v.014a1.037 1.037 0 0 1-.51.91 1.047 1.047 0 0 1-.531.133h-3.941c-.2 0-.377-.045-.531-.133a1.037 1.037 0 0 1-.51-.91v-.014zm3.923 0c0-.2.047-.378.14-.532a.95.95 0 0 1 .37-.371c.154-.094.331-.14.531-.14h3.941c.201 0 .378.046.531.14a.945.945 0 0 1 .371.37c.093.155.139.332.139.533v.014c0 .2-.046.38-.139.539a1.012 1.012 0 0 1-.371.37c-.153.09-.33.134-.531.134h-3.941c-.2 0-.377-.045-.531-.133a1.016 1.016 0 0 1-.37-.371 1.046 1.046 0 0 1-.14-.54v-.013zm3.924 0c0-.2.047-.378.14-.532a.943.943 0 0 1 .37-.371c.154-.094.331-.14.531-.14h3.941c.2 0 .377.046.531.14a.943.943 0 0 1 .37.37c.093.155.14.332.14.533v.014c0 .2-.047.38-.14.539a1.009 1.009 0 0 1-.37.37 1.047 1.047 0 0 1-.531.134h-3.941c-.2 0-.377-.045-.531-.133a1.009 1.009 0 0 1-.37-.371 1.046 1.046 0 0 1-.14-.54v-.013zm3.924 0c0-.2.046-.378.139-.532a.945.945 0 0 1 .371-.371 1 1 0 0 1 .531-.14h3.94c.201 0 .378.046.531.14a.945.945 0 0 1 .371.37c.093.155.14.332.14.533v.014c0 .2-.047.38-.14.539a1.012 1.012 0 0 1-.371.37c-.153.09-.33.134-.531.134h-3.94c-.2 0-.378-.045-.531-.133a1.012 1.012 0 0 1-.371-.371 1.046 1.046 0 0 1-.139-.54v-.013zm3.923 0c0-.2.047-.378.14-.532a.943.943 0 0 1 .37-.371c.154-.094.331-.14.531-.14h3.941c.2 0 .377.046.531.14a.937.937 0 0 1 .37.37c.093.155.14.332.14.533v.014c0 .2-.047.38-.14.539a1.001 1.001 0 0 1-.901.504h-3.941c-.2 0-.377-.045-.531-.133a1.009 1.009 0 0 1-.37-.371 1.046 1.046 0 0 1-.14-.54v-.013zm3.924 0c0-.2.046-.378.139-.532a.945.945 0 0 1 .371-.371 1 1 0 0 1 .531-.14h3.941c.2 0 .377.046.531.14a.95.95 0 0 1 .37.37c.093.155.14.332.14.533v.014c0 .2-.047.38-.14.539a1.016 1.016 0 0 1-.37.37 1.047 1.047 0 0 1-.531.134h-3.941c-.201 0-.377-.045-.531-.133a1.012 1.012 0 0 1-.371-.371 1.046 1.046 0 0 1-.139-.54v-.013zm3.923 0a1 1 0 0 1 .14-.532.943.943 0 0 1 .37-.371c.154-.094.331-.14.531-.14h3.941c.2 0 .377.046.531.14a.943.943 0 0 1 .37.37 1 1 0 0 1 .14.533v.014a1.037 1.037 0 0 1-.51.91 1.047 1.047 0 0 1-.531.133h-3.941c-.2 0-.377-.045-.531-.133a1.037 1.037 0 0 1-.51-.91v-.014zm3.923 0c0-.2.047-.378.14-.532a.95.95 0 0 1 .37-.371c.154-.094.331-.14.532-.14h3.94c.201 0 .378.046.531.14a.945.945 0 0 1 .371.37c.093.155.139.332.139.533v.014c0 .2-.046.38-.139.539a1.012 1.012 0 0 1-.371.37c-.153.09-.33.134-.531.134h-3.94c-.201 0-.378-.045-.532-.133a1.016 1.016 0 0 1-.37-.371 1.046 1.046 0 0 1-.14-.54v-.013zm3.924 0c0-.2.047-.378.14-.532a.943.943 0 0 1 .37-.371c.154-.094.331-.14.531-.14h3.941c.2 0 .377.046.531.14a.952.952 0 0 1 .371.37c.092.155.139.332.139.533v.014a1.02 1.02 0 0 1-.51.91 1.047 1.047 0 0 1-.531.133h-3.941c-.2 0-.377-.045-.531-.133a1.009 1.009 0 0 1-.37-.371 1.046 1.046 0 0 1-.14-.54v-.013zm3.924 0c0-.2.046-.378.139-.532a.945.945 0 0 1 .371-.371 1 1 0 0 1 .531-.14h3.94c.201 0 .378.046.532.14a.943.943 0 0 1 .37.37c.093.155.14.332.14.533v.014c0 .2-.047.38-.14.539a1.009 1.009 0 0 1-.37.37 1.048 1.048 0 0 1-.532.134h-3.94c-.2 0-.378-.045-.531-.133a1.012 1.012 0 0 1-.371-.371 1.046 1.046 0 0 1-.139-.54v-.013zm3.923 0c0-.2.047-.378.14-.532a.95.95 0 0 1 .37-.371c.154-.094.331-.14.531-.14h2.012c.201 0 .378.046.531.14a.945.945 0 0 1 .371.37c.093.155.139.332.139.533v.014c0 .2-.046.38-.139.539a1.012 1.012 0 0 1-.371.37c-.153.09-.33.134-.531.134h-2.012c-.2 0-.377-.045-.531-.133a1.016 1.016 0 0 1-.37-.371 1.046 1.046 0 0 1-.14-.54v-.013zm6.189 0c0-.2.047-.378.14-.532a.937.937 0 0 1 .37-.371c.154-.094.331-.14.531-.14h3.941c.2 0 .377.046.531.14a.943.943 0 0 1 .37.37c.093.155.14.332.14.533v.014c0 .2-.047.38-.14.539a1.009 1.009 0 0 1-.37.37 1.047 1.047 0 0 1-.531.134h-3.941a1.001 1.001 0 0 1-.901-.504 1.046 1.046 0 0 1-.14-.54v-.013zm3.923 0c0-.2.047-.378.14-.532a.945.945 0 0 1 .371-.371.998.998 0 0 1 .531-.14h3.94c.201 0 .378.046.531.14a.945.945 0 0 1 .371.37c.093.155.139.332.139.533v.014c0 .2-.046.38-.139.539a1.012 1.012 0 0 1-.371.37c-.153.09-.33.134-.531.134h-3.94c-.201 0-.378-.045-.531-.133a1.012 1.012 0 0 1-.371-.371 1.046 1.046 0 0 1-.14-.54v-.013zm3.924 0c0-.2.047-.378.14-.532a.943.943 0 0 1 .37-.371c.154-.094.331-.14.531-.14h3.941c.2 0 .377.046.531.14a.943.943 0 0 1 .37.37c.093.155.14.332.14.533v.014c0 .2-.047.38-.14.539a1.009 1.009 0 0 1-.37.37 1.047 1.047 0 0 1-.531.134h-3.941c-.2 0-.377-.045-.531-.133a1.009 1.009 0 0 1-.37-.371 1.046 1.046 0 0 1-.14-.54v-.013zm3.924 0c0-.2.046-.378.139-.532a.945.945 0 0 1 .371-.371.998.998 0 0 1 .531-.14h2.012c.2 0 .377.046.531.14a.943.943 0 0 1 .37.37c.093.155.14.332.14.533v.014c0 .2-.047.38-.14.539a1.009 1.009 0 0 1-.37.37 1.047 1.047 0 0 1-.531.134h-2.012c-.201 0-.378-.045-.531-.133a1.012 1.012 0 0 1-.371-.371 1.046 1.046 0 0 1-.139-.54v-.013zm1.999 0c0-.2.046-.378.139-.532a.945.945 0 0 1 .371-.371.998.998 0 0 1 .531-.14h3.94c.201 0 .378.046.531.14a.945.945 0 0 1 .371.37c.093.155.14.332.14.533v.014c0 .2-.047.38-.14.539a1.012 1.012 0 0 1-.371.37c-.153.09-.33.134-.531.134h-3.94c-.201 0-.378-.045-.531-.133a1.012 1.012 0 0 1-.371-.371 1.046 1.046 0 0 1-.139-.54v-.013zm3.923 0c0-.2.047-.378.14-.532a.943.943 0 0 1 .37-.371c.154-.094.331-.14.531-.14h3.941a1 1 0 0 1 .531.14.945.945 0 0 1 .371.37c.092.155.139.332.139.533v.014c0 .2-.047.38-.139.539a1.012 1.012 0 0 1-.371.37 1.044 1.044 0 0 1-.531.134h-3.941c-.2 0-.377-.045-.531-.133a1.009 1.009 0 0 1-.37-.371 1.046 1.046 0 0 1-.14-.54v-.013zm3.924 0c0-.2.046-.378.139-.532a.952.952 0 0 1 .371-.371 1 1 0 0 1 .531-.14h2.012c.2 0 .377.046.531.14a.943.943 0 0 1 .37.37 1 1 0 0 1 .14.533v.014a1.037 1.037 0 0 1-.51.91 1.047 1.047 0 0 1-.531.133h-2.012c-.2 0-.378-.045-.531-.133a1.02 1.02 0 0 1-.51-.91v-.014zm1.999 0a1 1 0 0 1 .14-.532.943.943 0 0 1 .37-.371c.154-.094.331-.14.531-.14h3.941c.2 0 .377.046.531.14a.943.943 0 0 1 .37.37 1 1 0 0 1 .14.533v.014a1.037 1.037 0 0 1-.51.91 1.047 1.047 0 0 1-.531.133h-3.941c-.2 0-.377-.045-.531-.133a1.037 1.037 0 0 1-.51-.91v-.014zm3.923 0c0-.2.047-.378.14-.532a.95.95 0 0 1 .37-.371c.154-.094.331-.14.531-.14h3.941c.201 0 .378.046.531.14a.945.945 0 0 1 .371.37c.093.155.139.332.139.533v.014c0 .2-.046.38-.139.539a1.012 1.012 0 0 1-.371.37c-.153.09-.33.134-.531.134h-3.941c-.2 0-.377-.045-.531-.133a1.016 1.016 0 0 1-.37-.371 1.046 1.046 0 0 1-.14-.54v-.013zm3.924 0c0-.2.047-.378.14-.532a.943.943 0 0 1 .37-.371c.154-.094.331-.14.531-.14h3.941c.2 0 .377.046.531.14a.943.943 0 0 1 .37.37c.093.155.14.332.14.533v.014c0 .2-.047.38-.14.539a1.009 1.009 0 0 1-.37.37 1.047 1.047 0 0 1-.531.134h-3.941c-.2 0-.377-.045-.531-.133a1.009 1.009 0 0 1-.37-.371 1.046 1.046 0 0 1-.14-.54v-.013zm3.924 0c0-.2.046-.378.139-.532a.945.945 0 0 1 .371-.371 1 1 0 0 1 .531-.14h3.94c.201 0 .378.046.531.14a.945.945 0 0 1 .371.37c.093.155.14.332.14.533v.014c0 .2-.047.38-.14.539a1.012 1.012 0 0 1-.371.37c-.153.09-.33.134-.531.134h-3.94c-.2 0-.378-.045-.531-.133a1.012 1.012 0 0 1-.371-.371 1.046 1.046 0 0 1-.139-.54v-.013zm3.923 0c0-.2.047-.378.14-.532a.943.943 0 0 1 .37-.371c.154-.094.331-.14.531-.14h3.941c.2 0 .377.046.531.14a.937.937 0 0 1 .37.37c.093.155.14.332.14.533v.014c0 .2-.047.38-.14.539a1.001 1.001 0 0 1-.901.504h-3.941c-.2 0-.377-.045-.531-.133a1.009 1.009 0 0 1-.37-.371 1.046 1.046 0 0 1-.14-.54v-.013zm3.924 0c0-.2.046-.378.139-.532a.945.945 0 0 1 .371-.371 1 1 0 0 1 .531-.14h3.941c.2 0 .377.046.531.14a.95.95 0 0 1 .37.37c.093.155.14.332.14.533v.014c0 .2-.047.38-.14.539a1.016 1.016 0 0 1-.37.37 1.047 1.047 0 0 1-.531.134h-3.941c-.201 0-.377-.045-.531-.133a1.012 1.012 0 0 1-.371-.371 1.046 1.046 0 0 1-.139-.54v-.013zm8.112 0c0-.2.047-.378.14-.532a.945.945 0 0 1 .371-.371.998.998 0 0 1 .531-.14h3.94c.201 0 .378.046.531.14a.945.945 0 0 1 .371.37c.093.155.139.332.139.533v.014c0 .2-.046.38-.139.539a1.012 1.012 0 0 1-.371.37c-.153.09-.33.134-.531.134h-3.94c-.201 0-.378-.045-.531-.133a1.012 1.012 0 0 1-.371-.371 1.046 1.046 0 0 1-.14-.54v-.013zm3.924 0c0-.2.047-.378.14-.532a.943.943 0 0 1 .37-.371c.154-.094.331-.14.531-.14h2.013c.2 0 .377.046.531.14a.95.95 0 0 1 .37.37c.093.155.14.332.14.533v.014c0 .2-.047.38-.14.539a1.016 1.016 0 0 1-.37.37 1.047 1.047 0 0 1-.531.134h-2.013c-.2 0-.377-.045-.531-.133a1.009 1.009 0 0 1-.37-.371 1.046 1.046 0 0 1-.14-.54v-.013zm2 0c0-.2.046-.378.139-.532a.945.945 0 0 1 .371-.371.998.998 0 0 1 .531-.14h3.941c.2 0 .377.046.531.14a.95.95 0 0 1 .37.37c.093.155.14.332.14.533v.014c0 .2-.047.38-.14.539a1.016 1.016 0 0 1-.37.37 1.047 1.047 0 0 1-.531.134h-3.941c-.201 0-.378-.045-.531-.133a1.012 1.012 0 0 1-.371-.371 1.046 1.046 0 0 1-.139-.54v-.013zm3.923 0a1 1 0 0 1 .14-.532.943.943 0 0 1 .37-.371c.154-.094.331-.14.531-.14h3.941c.2 0 .377.046.531.14a.943.943 0 0 1 .37.37 1 1 0 0 1 .14.533v.014a1.037 1.037 0 0 1-.51.91 1.047 1.047 0 0 1-.531.133h-3.941c-.2 0-.377-.045-.531-.133a1.037 1.037 0 0 1-.51-.91v-.014zm3.923 0c0-.2.047-.378.14-.532a.95.95 0 0 1 .37-.371c.154-.094.331-.14.531-.14h2.013c.2 0 .377.046.531.14a.943.943 0 0 1 .37.37c.093.155.14.332.14.533v.014c0 .2-.047.38-.14.539a1.009 1.009 0 0 1-.37.37 1.047 1.047 0 0 1-.531.134h-2.013c-.2 0-.377-.045-.531-.133a1.016 1.016 0 0 1-.37-.371 1.046 1.046 0 0 1-.14-.54v-.013zm2 0c0-.2.046-.378.139-.532a.945.945 0 0 1 .371-.371 1 1 0 0 1 .531-.14h3.941c.2 0 .377.046.531.14a.943.943 0 0 1 .37.37c.093.155.14.332.14.533v.014c0 .2-.047.38-.14.539a1.009 1.009 0 0 1-.37.37 1.047 1.047 0 0 1-.531.134h-3.941c-.2 0-.378-.045-.531-.133a1.012 1.012 0 0 1-.371-.371 1.046 1.046 0 0 1-.139-.54v-.013zm3.923 0c0-.2.047-.378.14-.532a.95.95 0 0 1 .37-.371c.154-.094.331-.14.531-.14h3.941a1 1 0 0 1 .531.14.937.937 0 0 1 .37.37 1 1 0 0 1 .14.533v.014a1.037 1.037 0 0 1-.51.91c-.154.088-.33.133-.531.133h-3.941c-.2 0-.377-.045-.531-.133a1.016 1.016 0 0 1-.37-.371 1.046 1.046 0 0 1-.14-.54v-.013zm3.924 0a1 1 0 0 1 .14-.532.937.937 0 0 1 .37-.371 1 1 0 0 1 .531-.14h2.012a1 1 0 0 1 .531.14.945.945 0 0 1 .371.37c.092.155.139.332.139.533v.014c0 .2-.047.38-.139.539a1.012 1.012 0 0 1-.371.37 1.044 1.044 0 0 1-.531.134h-2.012a1.001 1.001 0 0 1-.901-.504 1.037 1.037 0 0 1-.14-.54v-.013z" fill="#8F92AF"/><path d="M63.93 106.754c0-.201.047-.378.14-.532a.939.939 0 0 1 .37-.371.997.997 0 0 1 .531-.14h2.013c.2 0 .377.046.53.14a.938.938 0 0 1 .371.371c.093.154.14.331.14.532v.014c0 .2-.047.38-.14.539a1.014 1.014 0 0 1-.37.371 1.05 1.05 0 0 1-.531.133H64.97c-.2 0-.377-.045-.53-.133a1.015 1.015 0 0 1-.371-.371 1.047 1.047 0 0 1-.14-.539v-.014zm2 0c0-.201.046-.378.14-.532a.938.938 0 0 1 .37-.371.997.997 0 0 1 .53-.14h2.013c.2 0 .377.046.53.14a.939.939 0 0 1 .371.371c.093.154.14.331.14.532v.014c0 .2-.047.38-.14.539a1.015 1.015 0 0 1-.37.371 1.05 1.05 0 0 1-.531.133H66.97c-.2 0-.378-.045-.532-.133a1.014 1.014 0 0 1-.37-.371 1.047 1.047 0 0 1-.14-.539v-.014zm1.999 0c0-.201.046-.378.14-.532a.938.938 0 0 1 .37-.371.997.997 0 0 1 .53-.14h3.942c.2 0 .377.046.53.14a.938.938 0 0 1 .371.371c.093.154.14.331.14.532v.014c0 .2-.047.38-.14.539a1.014 1.014 0 0 1-.37.371 1.05 1.05 0 0 1-.531.133H68.97c-.2 0-.377-.045-.531-.133a1.014 1.014 0 0 1-.37-.371 1.047 1.047 0 0 1-.14-.539v-.014zm3.923 0c0-.201.047-.378.14-.532a.938.938 0 0 1 .37-.371.997.997 0 0 1 .531-.14h3.941c.2 0 .377.046.531.14a.938.938 0 0 1 .37.371c.094.154.14.331.14.532v.014c0 .2-.046.38-.14.539a1.014 1.014 0 0 1-.37.371 1.05 1.05 0 0 1-.53.133h-3.942c-.2 0-.377-.045-.53-.133a1.014 1.014 0 0 1-.371-.371 1.047 1.047 0 0 1-.14-.539v-.014zm3.924 0c0-.201.046-.378.14-.532a.938.938 0 0 1 .37-.371.997.997 0 0 1 .53-.14h3.942c.2 0 .377.046.53.14a.938.938 0 0 1 .371.371c.093.154.14.331.14.532v.014c0 .2-.047.38-.14.539a1.014 1.014 0 0 1-.37.371 1.05 1.05 0 0 1-.531.133h-3.941c-.2 0-.377-.045-.531-.133a1.014 1.014 0 0 1-.37-.371 1.047 1.047 0 0 1-.14-.539v-.014zm3.923 0c0-.201.047-.378.14-.532a.939.939 0 0 1 .37-.371.997.997 0 0 1 .531-.14h3.941c.2 0 .377.046.531.14a.938.938 0 0 1 .37.371c.094.154.14.331.14.532v.014c0 .2-.046.38-.14.539a1.014 1.014 0 0 1-.37.371 1.05 1.05 0 0 1-.53.133H80.74c-.2 0-.377-.045-.53-.133a1.015 1.015 0 0 1-.371-.371 1.047 1.047 0 0 1-.14-.539v-.014zm3.924 0c0-.201.046-.378.14-.532a.939.939 0 0 1 .37-.371.997.997 0 0 1 .53-.14h3.942c.2 0 .377.046.53.14a.938.938 0 0 1 .371.371c.093.154.14.331.14.532v.014c0 .2-.047.38-.14.539a1.014 1.014 0 0 1-.37.371 1.05 1.05 0 0 1-.531.133h-3.941c-.2 0-.377-.045-.531-.133a1.015 1.015 0 0 1-.37-.371 1.048 1.048 0 0 1-.14-.539v-.014zm3.923 0c0-.201.047-.378.14-.532a.938.938 0 0 1 .37-.371.996.996 0 0 1 .531-.14h3.941c.2 0 .377.046.531.14a.938.938 0 0 1 .37.371c.094.154.14.331.14.532v.014c0 .2-.046.38-.14.539a1.014 1.014 0 0 1-.37.371 1.05 1.05 0 0 1-.53.133h-3.942c-.2 0-.377-.045-.53-.133a1.014 1.014 0 0 1-.371-.371 1.047 1.047 0 0 1-.14-.539v-.014zm3.924 0c0-.201.046-.378.14-.532a.939.939 0 0 1 .37-.371.997.997 0 0 1 .53-.14h3.942c.2 0 .377.046.53.14a.938.938 0 0 1 .371.371c.093.154.14.331.14.532v.014c0 .2-.047.38-.14.539a1.014 1.014 0 0 1-.37.371 1.05 1.05 0 0 1-.531.133H92.51c-.2 0-.377-.045-.531-.133a1.015 1.015 0 0 1-.37-.371 1.047 1.047 0 0 1-.14-.539v-.014zm3.923 0c0-.201.047-.378.14-.532a.939.939 0 0 1 .37-.371.997.997 0 0 1 .531-.14h3.941c.2 0 .377.046.531.14a.939.939 0 0 1 .371.371c.093.154.139.331.139.532v.014c0 .2-.046.38-.139.539a1.015 1.015 0 0 1-.371.371 1.052 1.052 0 0 1-.531.133h-3.94c-.2 0-.378-.045-.532-.133a1.015 1.015 0 0 1-.37-.371 1.047 1.047 0 0 1-.14-.539v-.014zm3.924 0c0-.201.046-.378.14-.532a.939.939 0 0 1 .37-.371.998.998 0 0 1 .531-.14h3.941c.2 0 .377.046.531.14a.937.937 0 0 1 .37.371c.093.154.14.331.14.532v.014c0 .2-.047.38-.14.539a1.013 1.013 0 0 1-.37.371 1.052 1.052 0 0 1-.531.133h-3.941c-.2 0-.377-.045-.531-.133a1.015 1.015 0 0 1-.37-.371 1.048 1.048 0 0 1-.14-.539v-.014zm3.923 0c0-.201.047-.378.14-.532a.939.939 0 0 1 .371-.371.993.993 0 0 1 .531-.14h3.94c.2 0 .378.046.531.14a.939.939 0 0 1 .371.371c.093.154.139.331.139.532v.014c0 .2-.046.38-.139.539a1.015 1.015 0 0 1-.371.371 1.05 1.05 0 0 1-.531.133h-3.94c-.201 0-.378-.045-.531-.133a1.015 1.015 0 0 1-.371-.371 1.049 1.049 0 0 1-.14-.539v-.014zm3.924 0a1 1 0 0 1 .14-.532.937.937 0 0 1 .37-.371.998.998 0 0 1 .531-.14h3.941c.2 0 .377.046.531.14a.937.937 0 0 1 .37.371c.093.154.14.331.14.532v.014c0 .2-.047.38-.14.539a1.013 1.013 0 0 1-.37.371 1.052 1.052 0 0 1-.531.133h-3.941c-.2 0-.377-.045-.531-.133a1.04 1.04 0 0 1-.51-.91v-.014zm3.923 0c0-.201.047-.378.14-.532a.943.943 0 0 1 .37-.371.998.998 0 0 1 .531-.14h3.941c.201 0 .377.046.531.14a.93.93 0 0 1 .37.371 1 1 0 0 1 .14.532v.014a1.04 1.04 0 0 1-.51.91 1.05 1.05 0 0 1-.531.133h-3.941c-.2 0-.377-.045-.531-.133a1.02 1.02 0 0 1-.37-.371 1.049 1.049 0 0 1-.14-.539v-.014zm3.924 0a1 1 0 0 1 .14-.532.93.93 0 0 1 .37-.371.996.996 0 0 1 .531-.14h3.941c.2 0 .377.046.531.14a.943.943 0 0 1 .37.371c.093.154.14.331.14.532v.014c0 .2-.047.38-.14.539a1.02 1.02 0 0 1-.37.371 1.052 1.052 0 0 1-.531.133h-3.941a1.05 1.05 0 0 1-.531-.133 1.04 1.04 0 0 1-.51-.91v-.014zm3.923 0c0-.201.047-.378.14-.532a.937.937 0 0 1 .37-.371.998.998 0 0 1 .531-.14h3.941c.2 0 .378.046.531.14a.945.945 0 0 1 .371.371c.093.154.139.331.139.532v.014a1.023 1.023 0 0 1-.51.91 1.05 1.05 0 0 1-.531.133h-3.941c-.2 0-.377-.045-.531-.133a1.013 1.013 0 0 1-.37-.371 1.049 1.049 0 0 1-.14-.539v-.014zm3.924 0c0-.201.047-.378.139-.532a.945.945 0 0 1 .371-.371.996.996 0 0 1 .531-.14h3.941c.2 0 .377.046.531.14a.937.937 0 0 1 .37.371c.093.154.14.331.14.532v.014c0 .2-.047.38-.14.539a1.013 1.013 0 0 1-.37.371 1.052 1.052 0 0 1-.531.133h-3.941c-.2 0-.378-.045-.531-.133a1.023 1.023 0 0 1-.51-.91v-.014zm3.923 0c0-.201.047-.378.14-.532a.939.939 0 0 1 .371-.371.993.993 0 0 1 .531-.14h3.94c.201 0 .378.046.531.14a.939.939 0 0 1 .371.371c.093.154.139.331.139.532v.014c0 .2-.046.38-.139.539a1.015 1.015 0 0 1-.371.371c-.153.088-.33.133-.531.133h-3.94c-.201 0-.378-.045-.531-.133a1.015 1.015 0 0 1-.371-.371 1.049 1.049 0 0 1-.14-.539v-.014z" fill="#1578F7"/><path d="m137.346 104.75 2.496 2.5 2.495-2.5" stroke="#1578F7" stroke-width=".5" stroke-linecap="round" stroke-linejoin="round"/><path d="M72.963 129c0-2.209-1.787-4-3.992-4a3.996 3.996 0 0 0-3.993 4c0 2.209 1.788 4 3.993 4a3.996 3.996 0 0 0 3.992-4z" fill="#1578F7"/><path d="M70.468 129c0-.828-.67-1.5-1.497-1.5-.827 0-1.497.672-1.497 1.5s.67 1.5 1.497 1.5c.827 0 1.497-.672 1.497-1.5z" fill="#fff"/><path d="M63.93 143.754c0-.201.047-.378.14-.532a.939.939 0 0 1 .37-.371.997.997 0 0 1 .531-.14h2.013c.2 0 .377.046.53.14a.938.938 0 0 1 .371.371c.093.154.14.331.14.532v.014c0 .2-.047.38-.14.539a1.014 1.014 0 0 1-.37.371 1.05 1.05 0 0 1-.531.133H64.97c-.2 0-.377-.045-.53-.133a1.015 1.015 0 0 1-.371-.371 1.047 1.047 0 0 1-.14-.539v-.014zm2 0c0-.201.046-.378.14-.532a.938.938 0 0 1 .37-.371.997.997 0 0 1 .53-.14h3.941c.2 0 .378.046.531.14a.938.938 0 0 1 .37.371c.094.154.14.331.14.532v.014c0 .2-.046.38-.14.539a1.014 1.014 0 0 1-.37.371 1.05 1.05 0 0 1-.53.133H66.97c-.2 0-.378-.045-.532-.133a1.014 1.014 0 0 1-.37-.371 1.047 1.047 0 0 1-.14-.539v-.014zm3.923 0c0-.201.047-.378.14-.532a.939.939 0 0 1 .37-.371.997.997 0 0 1 .531-.14h3.94c.201 0 .378.046.532.14a.938.938 0 0 1 .37.371c.093.154.14.331.14.532v.014c0 .2-.047.38-.14.539a1.014 1.014 0 0 1-.37.371 1.05 1.05 0 0 1-.531.133h-3.94c-.201 0-.378-.045-.532-.133a1.015 1.015 0 0 1-.37-.371 1.047 1.047 0 0 1-.14-.539v-.014zm3.924 0c0-.201.046-.378.14-.532a.939.939 0 0 1 .37-.371.997.997 0 0 1 .53-.14h3.941c.2 0 .378.046.531.14a.938.938 0 0 1 .37.371c.094.154.14.331.14.532v.014c0 .2-.046.38-.14.539a1.014 1.014 0 0 1-.37.371 1.05 1.05 0 0 1-.53.133h-3.941c-.2 0-.378-.045-.531-.133a1.015 1.015 0 0 1-.37-.371 1.047 1.047 0 0 1-.14-.539v-.014zm3.923 0c0-.201.047-.378.14-.532a.939.939 0 0 1 .37-.371.997.997 0 0 1 .531-.14h2.012c.2 0 .378.046.531.14a.938.938 0 0 1 .37.371c.094.154.14.331.14.532v.014c0 .2-.046.38-.14.539a1.014 1.014 0 0 1-.37.371 1.05 1.05 0 0 1-.53.133H78.74c-.2 0-.377-.045-.531-.133a1.015 1.015 0 0 1-.37-.371 1.048 1.048 0 0 1-.14-.539v-.014zm2 0c0-.201.046-.378.139-.532a.939.939 0 0 1 .37-.371.997.997 0 0 1 .531-.14h3.941c.2 0 .377.046.531.14a.938.938 0 0 1 .37.371c.094.154.14.331.14.532v.014c0 .2-.046.38-.14.539a1.014 1.014 0 0 1-.37.371 1.05 1.05 0 0 1-.53.133H80.74c-.2 0-.377-.045-.53-.133a1.015 1.015 0 0 1-.371-.371 1.047 1.047 0 0 1-.14-.539v-.014zm3.923 0c0-.201.046-.378.14-.532a.938.938 0 0 1 .37-.371.997.997 0 0 1 .53-.14h3.942c.2 0 .377.046.53.14a.938.938 0 0 1 .371.371c.093.154.14.331.14.532v.014c0 .2-.047.38-.14.539a1.014 1.014 0 0 1-.37.371 1.05 1.05 0 0 1-.531.133h-3.941c-.2 0-.377-.045-.531-.133a1.014 1.014 0 0 1-.37-.371 1.048 1.048 0 0 1-.14-.539v-.014zm8.113 0c0-.201.046-.378.14-.532a.938.938 0 0 1 .37-.371.997.997 0 0 1 .531-.14h2.012c.2 0 .378.046.531.14a.938.938 0 0 1 .37.371c.094.154.14.331.14.532v.014c0 .2-.046.38-.14.539a1.014 1.014 0 0 1-.37.371 1.05 1.05 0 0 1-.53.133h-2.013c-.2 0-.377-.045-.531-.133a1.014 1.014 0 0 1-.37-.371 1.047 1.047 0 0 1-.14-.539v-.014zm2 0c0-.201.046-.378.139-.532a.938.938 0 0 1 .37-.371.997.997 0 0 1 .531-.14h2.013c.2 0 .377.046.53.14a.939.939 0 0 1 .371.371c.093.154.14.331.14.532v.014c0 .2-.047.38-.14.539a1.015 1.015 0 0 1-.37.371 1.05 1.05 0 0 1-.531.133h-2.013c-.2 0-.377-.045-.53-.133a1.014 1.014 0 0 1-.371-.371 1.047 1.047 0 0 1-.14-.539v-.014zm1.998 0c0-.201.047-.378.14-.532a.938.938 0 0 1 .37-.371.997.997 0 0 1 .531-.14h3.941c.201 0 .378.046.531.14a.939.939 0 0 1 .371.371c.093.154.139.331.139.532v.014c0 .2-.046.38-.139.539a1.015 1.015 0 0 1-.371.371c-.153.088-.33.133-.531.133h-3.94c-.2 0-.378-.045-.531-.133a1.014 1.014 0 0 1-.37-.371 1.047 1.047 0 0 1-.14-.539v-.014zm3.924 0c0-.201.046-.378.14-.532a.94.94 0 0 1 .37-.371.998.998 0 0 1 .531-.14h3.941c.2 0 .377.046.531.14a.937.937 0 0 1 .37.371 1 1 0 0 1 .14.532v.014a1.04 1.04 0 0 1-.51.91 1.052 1.052 0 0 1-.531.133h-3.941c-.2 0-.377-.045-.531-.133a1.017 1.017 0 0 1-.37-.371 1.047 1.047 0 0 1-.14-.539v-.014zm3.923 0c0-.201.047-.378.14-.532a.943.943 0 0 1 .37-.371.998.998 0 0 1 .531-.14h3.941c.201 0 .378.046.531.14a.939.939 0 0 1 .371.371c.093.154.139.331.139.532v.014c0 .2-.046.38-.139.539a1.015 1.015 0 0 1-.371.371c-.153.088-.33.133-.531.133h-3.941c-.2 0-.377-.045-.531-.133a1.02 1.02 0 0 1-.37-.371 1.049 1.049 0 0 1-.14-.539v-.014zm3.924 0c0-.201.047-.378.14-.532a.937.937 0 0 1 .37-.371.998.998 0 0 1 .531-.14h3.941c.2 0 .377.046.531.14a.937.937 0 0 1 .37.371c.093.154.14.331.14.532v.014c0 .2-.047.38-.14.539a1.013 1.013 0 0 1-.37.371 1.052 1.052 0 0 1-.531.133h-3.941c-.2 0-.377-.045-.531-.133a1.013 1.013 0 0 1-.37-.371 1.049 1.049 0 0 1-.14-.539v-.014zm3.923 0c0-.201.047-.378.14-.532a.939.939 0 0 1 .371-.371.993.993 0 0 1 .531-.14h3.94c.201 0 .378.046.531.14a.939.939 0 0 1 .371.371c.093.154.14.331.14.532v.014c0 .2-.047.38-.14.539a1.015 1.015 0 0 1-.371.371c-.153.088-.33.133-.531.133h-3.94c-.201 0-.378-.045-.531-.133a1.015 1.015 0 0 1-.371-.371 1.049 1.049 0 0 1-.14-.539v-.014zm3.924 0c0-.201.047-.378.14-.532a.937.937 0 0 1 .37-.371.998.998 0 0 1 .531-.14h3.941c.2 0 .377.046.531.14a.937.937 0 0 1 .37.371c.093.154.14.331.14.532v.014c0 .2-.047.38-.14.539a1.013 1.013 0 0 1-.37.371 1.052 1.052 0 0 1-.531.133h-3.941c-.2 0-.377-.045-.531-.133a1.013 1.013 0 0 1-.37-.371 1.049 1.049 0 0 1-.14-.539v-.014zm3.924 0c0-.201.046-.378.139-.532a.939.939 0 0 1 .371-.371.993.993 0 0 1 .531-.14h3.941c.2 0 .377.046.531.14a.943.943 0 0 1 .37.371c.093.154.14.331.14.532v.014c0 .2-.047.38-.14.539a1.02 1.02 0 0 1-.37.371 1.052 1.052 0 0 1-.531.133h-3.941c-.201 0-.378-.045-.531-.133a1.015 1.015 0 0 1-.371-.371 1.048 1.048 0 0 1-.139-.539v-.014zm3.923 0a1 1 0 0 1 .14-.532.937.937 0 0 1 .37-.371.998.998 0 0 1 .531-.14h3.941c.2 0 .377.046.531.14a.937.937 0 0 1 .37.371 1 1 0 0 1 .14.532v.014a1.04 1.04 0 0 1-.51.91 1.052 1.052 0 0 1-.531.133h-3.941c-.2 0-.377-.045-.531-.133a1.04 1.04 0 0 1-.51-.91v-.014zm3.923 0c0-.201.047-.378.14-.532a.943.943 0 0 1 .37-.371.998.998 0 0 1 .531-.14h3.941c.201 0 .378.046.531.14a.939.939 0 0 1 .371.371c.093.154.139.331.139.532v.014c0 .2-.046.38-.139.539a1.015 1.015 0 0 1-.371.371c-.153.088-.33.133-.531.133h-3.941c-.2 0-.377-.045-.531-.133a1.02 1.02 0 0 1-.37-.371 1.049 1.049 0 0 1-.14-.539v-.014zm3.924 0c0-.201.047-.378.14-.532a.937.937 0 0 1 .37-.371.998.998 0 0 1 .531-.14h3.941c.2 0 .377.046.531.14a.937.937 0 0 1 .37.371c.093.154.14.331.14.532v.014c0 .2-.047.38-.14.539a1.013 1.013 0 0 1-.37.371 1.052 1.052 0 0 1-.531.133h-3.941c-.2 0-.377-.045-.531-.133a1.013 1.013 0 0 1-.37-.371 1.049 1.049 0 0 1-.14-.539v-.014zm3.924 0c0-.201.046-.378.139-.532a.939.939 0 0 1 .371-.371.996.996 0 0 1 .531-.14h3.94c.201 0 .378.046.531.14a.939.939 0 0 1 .371.371c.093.154.14.331.14.532v.014c0 .2-.047.38-.14.539a1.015 1.015 0 0 1-.371.371c-.153.088-.33.133-.531.133h-3.94c-.2 0-.378-.045-.531-.133a1.015 1.015 0 0 1-.371-.371 1.048 1.048 0 0 1-.139-.539v-.014zm3.923 0c0-.201.047-.378.14-.532a.937.937 0 0 1 .37-.371.998.998 0 0 1 .531-.14h3.941c.2 0 .377.046.531.14a.93.93 0 0 1 .37.371c.093.154.14.331.14.532v.014c0 .2-.047.38-.14.539a1.005 1.005 0 0 1-.37.371 1.052 1.052 0 0 1-.531.133h-3.941c-.2 0-.377-.045-.531-.133a1.013 1.013 0 0 1-.37-.371 1.049 1.049 0 0 1-.14-.539v-.014zm3.924 0c0-.201.046-.378.139-.532a.939.939 0 0 1 .371-.371.996.996 0 0 1 .531-.14h3.941c.2 0 .377.046.531.14a.943.943 0 0 1 .37.371c.093.154.14.331.14.532v.014c0 .2-.047.38-.14.539a1.02 1.02 0 0 1-.37.371 1.052 1.052 0 0 1-.531.133h-3.941a1.05 1.05 0 0 1-.531-.133 1.015 1.015 0 0 1-.371-.371 1.048 1.048 0 0 1-.139-.539v-.014zm3.923 0a1 1 0 0 1 .14-.532.937.937 0 0 1 .37-.371.998.998 0 0 1 .531-.14h3.941c.2 0 .377.046.531.14a.937.937 0 0 1 .37.371 1 1 0 0 1 .14.532v.014a1.04 1.04 0 0 1-.51.91 1.052 1.052 0 0 1-.531.133h-3.941c-.2 0-.377-.045-.531-.133a1.04 1.04 0 0 1-.51-.91v-.014zm3.923 0c0-.201.047-.378.14-.532a.943.943 0 0 1 .37-.371 1 1 0 0 1 .532-.14h3.94c.201 0 .378.046.531.14a.939.939 0 0 1 .371.371c.093.154.139.331.139.532v.014c0 .2-.046.38-.139.539a1.015 1.015 0 0 1-.371.371c-.153.088-.33.133-.531.133h-3.94c-.201 0-.378-.045-.532-.133a1.02 1.02 0 0 1-.37-.371 1.049 1.049 0 0 1-.14-.539v-.014zm3.924 0c0-.201.047-.378.14-.532a.937.937 0 0 1 .37-.371.998.998 0 0 1 .531-.14h3.941c.2 0 .377.046.531.14a.945.945 0 0 1 .371.371c.092.154.139.331.139.532v.014a1.023 1.023 0 0 1-.51.91 1.052 1.052 0 0 1-.531.133h-3.941c-.2 0-.377-.045-.531-.133a1.013 1.013 0 0 1-.37-.371 1.049 1.049 0 0 1-.14-.539v-.014zm3.924 0c0-.201.046-.378.139-.532a.939.939 0 0 1 .371-.371.996.996 0 0 1 .531-.14h3.94a1 1 0 0 1 .532.14.937.937 0 0 1 .37.371c.093.154.14.331.14.532v.014c0 .2-.047.38-.14.539a1.013 1.013 0 0 1-.37.371 1.053 1.053 0 0 1-.532.133h-3.94c-.2 0-.378-.045-.531-.133a1.015 1.015 0 0 1-.371-.371 1.048 1.048 0 0 1-.139-.539v-.014zm3.923 0c0-.201.047-.378.14-.532a.943.943 0 0 1 .37-.371.998.998 0 0 1 .531-.14h2.012c.201 0 .378.046.531.14a.939.939 0 0 1 .371.371c.093.154.139.331.139.532v.014c0 .2-.046.38-.139.539a1.015 1.015 0 0 1-.371.371c-.153.088-.33.133-.531.133h-2.012c-.2 0-.377-.045-.531-.133a1.02 1.02 0 0 1-.37-.371 1.049 1.049 0 0 1-.14-.539v-.014zm6.189 0c0-.201.047-.378.14-.532a.93.93 0 0 1 .37-.371.998.998 0 0 1 .531-.14h3.941c.2 0 .377.046.531.14a.937.937 0 0 1 .37.371c.093.154.14.331.14.532v.014c0 .2-.047.38-.14.539a1.013 1.013 0 0 1-.37.371 1.052 1.052 0 0 1-.531.133h-3.941c-.2 0-.377-.045-.531-.133a1.005 1.005 0 0 1-.37-.371 1.049 1.049 0 0 1-.14-.539v-.014zm3.923 0c0-.201.047-.378.14-.532a.939.939 0 0 1 .371-.371.993.993 0 0 1 .531-.14h3.94c.201 0 .378.046.531.14a.939.939 0 0 1 .371.371c.093.154.139.331.139.532v.014c0 .2-.046.38-.139.539a1.015 1.015 0 0 1-.371.371c-.153.088-.33.133-.531.133h-3.94c-.201 0-.378-.045-.531-.133a1.015 1.015 0 0 1-.371-.371 1.049 1.049 0 0 1-.14-.539v-.014zm3.924 0c0-.201.047-.378.14-.532a.937.937 0 0 1 .37-.371.998.998 0 0 1 .531-.14h3.941c.2 0 .377.046.531.14a.937.937 0 0 1 .37.371c.093.154.14.331.14.532v.014c0 .2-.047.38-.14.539a1.013 1.013 0 0 1-.37.371 1.052 1.052 0 0 1-.531.133h-3.941c-.2 0-.377-.045-.531-.133a1.013 1.013 0 0 1-.37-.371 1.049 1.049 0 0 1-.14-.539v-.014zm3.924 0c0-.201.046-.378.139-.532a.939.939 0 0 1 .371-.371.993.993 0 0 1 .531-.14h2.012c.2 0 .377.046.531.14a.937.937 0 0 1 .37.371c.093.154.14.331.14.532v.014c0 .2-.047.38-.14.539a1.013 1.013 0 0 1-.37.371 1.052 1.052 0 0 1-.531.133h-2.012c-.201 0-.378-.045-.531-.133a1.015 1.015 0 0 1-.371-.371 1.048 1.048 0 0 1-.139-.539v-.014zm1.999 0c0-.201.046-.378.139-.532a.939.939 0 0 1 .371-.371.993.993 0 0 1 .531-.14h3.94c.201 0 .378.046.531.14a.939.939 0 0 1 .371.371c.093.154.14.331.14.532v.014c0 .2-.047.38-.14.539a1.015 1.015 0 0 1-.371.371c-.153.088-.33.133-.531.133h-3.94c-.201 0-.378-.045-.531-.133a1.015 1.015 0 0 1-.371-.371 1.048 1.048 0 0 1-.139-.539v-.014zm3.923 0c0-.201.047-.378.14-.532a.937.937 0 0 1 .37-.371.998.998 0 0 1 .531-.14h3.941c.2 0 .378.046.531.14a.939.939 0 0 1 .371.371c.092.154.139.331.139.532v.014c0 .2-.047.38-.139.539a1.015 1.015 0 0 1-.371.371 1.05 1.05 0 0 1-.531.133h-3.941c-.2 0-.377-.045-.531-.133a1.013 1.013 0 0 1-.37-.371 1.049 1.049 0 0 1-.14-.539v-.014zm3.924 0c0-.201.046-.378.139-.532a.945.945 0 0 1 .371-.371.996.996 0 0 1 .531-.14h2.012c.2 0 .377.046.531.14a.937.937 0 0 1 .37.371 1 1 0 0 1 .14.532v.014a1.04 1.04 0 0 1-.51.91 1.052 1.052 0 0 1-.531.133h-2.012c-.2 0-.378-.045-.531-.133a1.023 1.023 0 0 1-.51-.91v-.014zm1.999 0a1 1 0 0 1 .14-.532.937.937 0 0 1 .37-.371.998.998 0 0 1 .531-.14h3.941c.2 0 .377.046.531.14a.937.937 0 0 1 .37.371 1 1 0 0 1 .14.532v.014a1.04 1.04 0 0 1-.51.91 1.052 1.052 0 0 1-.531.133h-3.941c-.2 0-.377-.045-.531-.133a1.04 1.04 0 0 1-.51-.91v-.014zm3.923 0c0-.201.047-.378.14-.532a.943.943 0 0 1 .37-.371.998.998 0 0 1 .531-.14h3.941c.201 0 .378.046.531.14a.939.939 0 0 1 .371.371c.093.154.139.331.139.532v.014c0 .2-.046.38-.139.539a1.015 1.015 0 0 1-.371.371c-.153.088-.33.133-.531.133h-3.941c-.2 0-.377-.045-.531-.133a1.02 1.02 0 0 1-.37-.371 1.049 1.049 0 0 1-.14-.539v-.014zm3.924 0c0-.201.047-.378.14-.532a.937.937 0 0 1 .37-.371.998.998 0 0 1 .531-.14h3.941c.2 0 .377.046.531.14a.937.937 0 0 1 .37.371c.093.154.14.331.14.532v.014c0 .2-.047.38-.14.539a1.013 1.013 0 0 1-.37.371 1.052 1.052 0 0 1-.531.133h-3.941c-.2 0-.377-.045-.531-.133a1.013 1.013 0 0 1-.37-.371 1.049 1.049 0 0 1-.14-.539v-.014zm3.924 0c0-.201.046-.378.139-.532a.939.939 0 0 1 .371-.371.996.996 0 0 1 .531-.14h3.94c.201 0 .378.046.531.14a.939.939 0 0 1 .371.371c.093.154.14.331.14.532v.014c0 .2-.047.38-.14.539a1.015 1.015 0 0 1-.371.371c-.153.088-.33.133-.531.133h-3.94c-.2 0-.378-.045-.531-.133a1.015 1.015 0 0 1-.371-.371 1.048 1.048 0 0 1-.139-.539v-.014zm3.923 0c0-.201.047-.378.14-.532a.937.937 0 0 1 .37-.371.998.998 0 0 1 .531-.14h3.941c.2 0 .377.046.531.14a.93.93 0 0 1 .37.371c.093.154.14.331.14.532v.014c0 .2-.047.38-.14.539a1.005 1.005 0 0 1-.37.371 1.052 1.052 0 0 1-.531.133h-3.941c-.2 0-.377-.045-.531-.133a1.013 1.013 0 0 1-.37-.371 1.049 1.049 0 0 1-.14-.539v-.014zm3.924 0c0-.201.046-.378.139-.532a.939.939 0 0 1 .371-.371.996.996 0 0 1 .531-.14h3.941c.2 0 .377.046.531.14a.943.943 0 0 1 .37.371c.093.154.14.331.14.532v.014c0 .2-.047.38-.14.539a1.02 1.02 0 0 1-.37.371 1.052 1.052 0 0 1-.531.133h-3.941a1.05 1.05 0 0 1-.531-.133 1.015 1.015 0 0 1-.371-.371 1.048 1.048 0 0 1-.139-.539v-.014z" fill="#8F92AF"/><path d="M249.672 160.25h-40.925c-.965 0-1.747.784-1.747 1.75v16c0 .966.782 1.75 1.747 1.75h40.925c.965 0 1.747-.784 1.747-1.75v-16c0-.966-.782-1.75-1.747-1.75z" stroke="#1578F7"/><path d="M220.198 169.073h-.885a1.352 1.352 0 0 0-.53-.866 1.447 1.447 0 0 0-.45-.228 1.768 1.768 0 0 0-.525-.076c-.335 0-.634.084-.899.252a1.724 1.724 0 0 0-.624.742c-.151.326-.227.723-.227 1.193 0 .474.076.873.227 1.199.153.326.362.572.627.739.264.166.562.25.893.25.183 0 .358-.025.522-.074a1.49 1.49 0 0 0 .451-.225 1.337 1.337 0 0 0 .535-.855l.885.003a2.356 2.356 0 0 1-.275.79 2.175 2.175 0 0 1-.519.619 2.32 2.32 0 0 1-.72.401c-.27.094-.565.142-.885.142-.502 0-.951-.12-1.344-.358a2.508 2.508 0 0 1-.93-1.031c-.225-.447-.337-.981-.337-1.6 0-.621.113-1.154.34-1.599a2.49 2.49 0 0 1 .93-1.029c.393-.24.841-.36 1.341-.36.309 0 .596.044.863.133.268.087.509.216.722.386.214.169.391.375.531.62.14.242.234.52.283.832zm2.248 4.023c-.276 0-.525-.051-.748-.154a1.256 1.256 0 0 1-.53-.451 1.296 1.296 0 0 1-.193-.725c0-.246.047-.449.142-.608.094-.159.222-.285.382-.378.161-.092.341-.162.539-.21a5.54 5.54 0 0 1 .607-.108l.635-.074a.929.929 0 0 0 .355-.099c.073-.045.11-.119.11-.222v-.019c0-.249-.069-.441-.21-.577-.137-.137-.344-.205-.618-.205-.285 0-.51.064-.675.191a1.02 1.02 0 0 0-.337.417l-.797-.182c.095-.265.233-.479.414-.642.184-.164.394-.284.632-.358a2.49 2.49 0 0 1 .752-.113c.174 0 .358.021.553.062.197.04.38.114.55.222.172.108.313.262.423.463.109.199.164.457.164.776v2.897h-.828v-.596h-.034a1.22 1.22 0 0 1-.247.324 1.3 1.3 0 0 1-.422.264c-.173.07-.378.105-.619.105zm.185-.682c.234 0 .435-.046.601-.139a.976.976 0 0 0 .383-.364.95.95 0 0 0 .133-.486v-.562a.438.438 0 0 1-.176.085 2.426 2.426 0 0 1-.292.065l-.32.049-.261.034a2.13 2.13 0 0 0-.451.105.768.768 0 0 0-.323.213.53.53 0 0 0-.12.364c0 .21.078.369.233.477.155.106.353.159.593.159zm3.942-2.006v2.591h-.848v-4.363h.814v.71h.054c.1-.231.257-.417.471-.557.215-.14.486-.21.814-.21.296 0 .556.062.779.187.224.123.397.307.519.551.123.245.185.547.185.907v2.775h-.848v-2.673c0-.316-.082-.563-.247-.742-.165-.179-.39-.269-.678-.269-.196 0-.371.042-.524.127a.933.933 0 0 0-.361.375c-.086.163-.13.36-.13.591zm5.76 2.679c-.422 0-.785-.095-1.089-.287a1.897 1.897 0 0 1-.698-.798 2.656 2.656 0 0 1-.244-1.165c0-.443.083-.834.25-1.173.166-.341.401-.607.703-.798.303-.192.659-.287 1.069-.287.331 0 .626.061.885.184.259.122.468.292.626.512.161.22.256.476.287.77h-.825a.993.993 0 0 0-.312-.529c-.161-.147-.376-.221-.647-.221-.236 0-.443.062-.621.187a1.198 1.198 0 0 0-.411.529 2.024 2.024 0 0 0-.148.806c0 .319.049.593.145.824.096.231.233.41.408.537.178.127.387.191.627.191.161 0 .307-.03.437-.089a.886.886 0 0 0 .332-.258.972.972 0 0 0 .19-.403h.825a1.58 1.58 0 0 1-.89 1.278c-.256.127-.555.19-.899.19zm4.573 0c-.429 0-.799-.092-1.109-.275a1.866 1.866 0 0 1-.714-.782c-.167-.337-.25-.732-.25-1.184 0-.447.083-.841.25-1.182.168-.341.402-.607.703-.798a1.934 1.934 0 0 1 1.06-.287c.246 0 .484.041.715.122.231.081.437.209.621.383.183.175.328.401.434.679.106.277.158.613.158 1.009v.301h-3.462v-.636h2.632c0-.224-.045-.422-.136-.594a1.035 1.035 0 0 0-.956-.563c-.238 0-.446.059-.624.177a1.174 1.174 0 0 0-.408.454 1.321 1.321 0 0 0-.142.605v.497c0 .292.051.54.153.745.104.204.249.361.434.469.185.106.402.159.649.159.161 0 .308-.023.44-.069a.915.915 0 0 0 .564-.554l.803.145c-.064.237-.18.444-.346.622a1.669 1.669 0 0 1-.621.412 2.316 2.316 0 0 1-.848.145zm3.657-5.906v5.818h-.848v-5.818h.848zM313.026 160H259.1a1.998 1.998 0 0 0-1.996 2v16c0 1.105.894 2 1.996 2h53.926a1.998 1.998 0 0 0 1.996-2v-16c0-1.105-.894-2-1.996-2z" fill="#1578F7"/><path d="m299.948 172.897-1.233-4.364h1.049l.767 3.068h.039l.785-3.068h1.036l.785 3.051h.042l.756-3.051h1.051l-1.236 4.364h-1.071l-.818-2.949h-.06l-.818 2.949h-1.074zM296.209 172.982c-.427 0-.796-.094-1.108-.281a1.917 1.917 0 0 1-.728-.787c-.17-.337-.255-.731-.255-1.182 0-.451.085-.845.255-1.184.173-.339.415-.603.728-.79.312-.188.681-.281 1.108-.281.426 0 .795.093 1.108.281.312.187.554.451.724.79.172.339.258.733.258 1.184 0 .451-.086.845-.258 1.182-.17.337-.412.599-.724.787-.313.187-.682.281-1.108.281zm.005-.824a.886.886 0 0 0 .58-.19c.155-.129.271-.301.346-.517.078-.216.117-.456.117-.722 0-.267-.039-.508-.117-.724a1.142 1.142 0 0 0-.346-.52.877.877 0 0 0-.58-.193.904.904 0 0 0-.591.193 1.171 1.171 0 0 0-.349.52 2.17 2.17 0 0 0-.114.724c0 .266.038.506.114.722.078.216.194.388.349.517.158.127.355.19.591.19zM290.459 170.34v2.557h-1.029v-4.364h.983v.742h.051c.101-.244.261-.439.48-.583.222-.143.496-.215.821-.215.302 0 .564.064.787.193.226.129.4.315.523.559.125.245.187.541.185.89v2.778h-1.029v-2.619c0-.292-.075-.52-.227-.685-.15-.165-.357-.247-.622-.247a.96.96 0 0 0-.48.119.839.839 0 0 0-.327.338 1.139 1.139 0 0 0-.116.537zM283.599 170.34v2.557h-1.028v-4.364h.983v.742h.051c.1-.244.26-.439.48-.583.222-.143.495-.215.821-.215.301 0 .563.064.787.193.225.129.4.315.523.559.125.245.186.541.184.89v2.778h-1.028v-2.619c0-.292-.076-.52-.227-.685-.15-.165-.357-.247-.622-.247-.18 0-.34.04-.481.119a.83.83 0 0 0-.326.338 1.139 1.139 0 0 0-.117.537zM279.233 172.985c-.276 0-.525-.049-.747-.148-.22-.1-.394-.248-.523-.443-.127-.195-.19-.435-.19-.721 0-.247.045-.45.136-.611.091-.161.215-.29.372-.387a1.9 1.9 0 0 1 .532-.218c.199-.051.404-.088.616-.111.256-.027.463-.05.622-.071a.94.94 0 0 0 .347-.102c.074-.048.111-.121.111-.219v-.017c0-.214-.064-.38-.191-.497-.126-.118-.309-.177-.548-.177-.252 0-.452.055-.599.165a.82.82 0 0 0-.296.389l-.96-.136a1.54 1.54 0 0 1 .375-.665c.174-.18.387-.314.639-.403.252-.091.531-.136.835-.136.211 0 .42.024.628.073.209.05.399.131.571.245.173.111.311.264.415.457.106.193.159.435.159.725v2.92h-.988v-.599h-.035a1.237 1.237 0 0 1-.687.593 1.699 1.699 0 0 1-.594.094zm.267-.756c.207 0 .386-.04.537-.122a.904.904 0 0 0 .35-.329.844.844 0 0 0 .125-.446v-.515a.475.475 0 0 1-.165.074 2.26 2.26 0 0 1-.256.06 7.43 7.43 0 0 1-.281.045l-.242.035c-.153.02-.29.054-.412.102a.672.672 0 0 0-.286.199.48.48 0 0 0-.106.324c0 .189.07.332.208.429a.904.904 0 0 0 .528.144zM275.263 172.982c-.435 0-.809-.095-1.122-.287a1.921 1.921 0 0 1-.719-.792 2.63 2.63 0 0 1-.25-1.171c0-.443.086-.834.256-1.173.17-.341.411-.606.722-.796.312-.191.681-.286 1.108-.286.354 0 .667.065.94.196.275.128.493.311.656.548.163.235.256.509.279.824h-.983a.946.946 0 0 0-.284-.526c-.148-.142-.346-.213-.594-.213a.927.927 0 0 0-.554.171 1.083 1.083 0 0 0-.372.483 1.97 1.97 0 0 0-.131.755c0 .298.044.553.131.767.087.212.209.376.366.492.159.113.346.17.56.17a.93.93 0 0 0 .406-.085.817.817 0 0 0 .304-.253.986.986 0 0 0 .168-.4h.983a1.724 1.724 0 0 1-.273.821 1.613 1.613 0 0 1-.642.556 2.143 2.143 0 0 1-.955.199zM271.372 168.679a.776.776 0 0 0-.335-.58c-.195-.138-.449-.207-.761-.207-.22 0-.409.033-.566.099a.854.854 0 0 0-.361.27.655.655 0 0 0-.127.39c0 .121.027.226.082.315a.755.755 0 0 0 .23.227c.097.061.204.112.321.154.118.041.236.076.355.105l.546.136c.219.051.431.12.633.207.205.088.388.197.549.33.162.133.291.293.386.48.095.188.142.407.142.659 0 .341-.087.641-.261.901a1.74 1.74 0 0 1-.756.605c-.328.144-.725.216-1.19.216-.453 0-.846-.07-1.179-.21a1.764 1.764 0 0 1-.779-.614c-.185-.269-.286-.597-.301-.983h1.037a.887.887 0 0 0 .187.506c.11.134.253.235.429.301.178.066.377.099.597.099.229 0 .43-.034.602-.102a.969.969 0 0 0 .409-.29.698.698 0 0 0 .151-.437.55.55 0 0 0-.134-.375.967.967 0 0 0-.366-.25 3.52 3.52 0 0 0-.546-.182l-.661-.171c-.48-.123-.858-.309-1.137-.559-.276-.252-.415-.586-.415-1.003a1.5 1.5 0 0 1 .279-.901c.187-.257.442-.457.764-.599a2.654 2.654 0 0 1 1.094-.216c.413 0 .774.072 1.085.216.313.142.558.34.736.594.178.252.27.541.275.869h-1.014z" fill="#fff"/><path d="M126.385 129.442v2.557h-1.029v-4.364h.983v.741h.052c.1-.244.26-.438.48-.582.221-.144.495-.216.821-.216.301 0 .563.065.787.193.225.129.399.316.522.56.125.244.187.541.185.889v2.779h-1.028v-2.62c0-.291-.076-.52-.228-.684-.149-.165-.357-.248-.622-.248a.95.95 0 0 0-.48.12.827.827 0 0 0-.327.338 1.151 1.151 0 0 0-.116.537zM122.019 132.087c-.277 0-.526-.05-.747-.148-.22-.1-.394-.248-.523-.443-.127-.195-.19-.436-.19-.722 0-.246.045-.45.136-.611a1.06 1.06 0 0 1 .372-.386c.157-.097.334-.17.531-.219.199-.051.405-.088.617-.111.256-.026.463-.05.622-.071a.903.903 0 0 0 .347-.102c.073-.047.11-.12.11-.219v-.017c0-.214-.063-.379-.19-.497-.127-.117-.31-.176-.548-.176-.252 0-.452.055-.6.165a.813.813 0 0 0-.295.389l-.96-.136c.075-.265.2-.487.375-.665a1.64 1.64 0 0 1 .639-.404c.252-.09.53-.136.835-.136.21 0 .42.025.628.074.208.049.399.131.571.244.172.112.311.265.415.458.106.193.159.434.159.724v2.921h-.989v-.6h-.034a1.24 1.24 0 0 1-.687.594 1.722 1.722 0 0 1-.594.094zm.267-.756c.206 0 .385-.041.537-.122a.904.904 0 0 0 .349-.33.833.833 0 0 0 .125-.446v-.514a.476.476 0 0 1-.165.074 2.24 2.24 0 0 1-.255.06 7.768 7.768 0 0 1-.281.045l-.242.034a1.826 1.826 0 0 0-.412.102.694.694 0 0 0-.287.199.49.49 0 0 0-.105.324.49.49 0 0 0 .207.429.902.902 0 0 0 .529.145zM118.049 132.084c-.436 0-.81-.096-1.122-.287a1.917 1.917 0 0 1-.719-.793 2.615 2.615 0 0 1-.25-1.17c0-.443.085-.834.256-1.173.17-.341.411-.607.721-.796.313-.191.682-.287 1.108-.287.354 0 .668.065.941.196.274.129.493.312.656.548.163.235.256.51.278.824h-.983a.931.931 0 0 0-.284-.525c-.148-.142-.345-.213-.594-.213a.928.928 0 0 0-.554.17 1.095 1.095 0 0 0-.372.483c-.087.21-.13.462-.13.756 0 .297.043.553.13.767.087.212.21.376.367.491a.933.933 0 0 0 .559.171.95.95 0 0 0 .407-.085.825.825 0 0 0 .304-.253.976.976 0 0 0 .167-.401h.983a1.709 1.709 0 0 1-.272.821 1.625 1.625 0 0 1-.643.557c-.27.133-.589.199-.954.199zM115.204 128.788l-.937.103a.746.746 0 0 0-.401-.469.953.953 0 0 0-.403-.077.994.994 0 0 0-.54.139c-.144.093-.215.213-.213.361a.377.377 0 0 0 .139.31c.097.079.256.145.477.196l.745.159c.412.089.719.23.92.423.203.193.305.446.307.759a1.188 1.188 0 0 1-.242.727 1.557 1.557 0 0 1-.656.489c-.28.117-.602.176-.966.176-.534 0-.964-.112-1.29-.335a1.353 1.353 0 0 1-.582-.941l1.003-.096a.706.706 0 0 0 .29.446c.147.1.34.15.576.15.245 0 .441-.05.588-.15.15-.101.225-.225.225-.372a.387.387 0 0 0-.145-.31c-.095-.082-.242-.144-.443-.188l-.745-.156c-.418-.087-.728-.234-.929-.44-.2-.209-.3-.472-.298-.79a1.116 1.116 0 0 1 .219-.699c.15-.199.357-.352.622-.46.267-.11.575-.165.923-.165.512 0 .914.109 1.208.327.295.218.478.512.548.883zM102.591 131.999v-4.364h.983v.741h.051c.091-.25.241-.445.452-.585.21-.142.461-.213.752-.213.296 0 .545.072.748.216.204.142.348.336.431.582h.046c.096-.242.259-.435.489-.579.231-.146.504-.219.821-.219.401 0 .729.127.983.381.253.254.38.624.38 1.111v2.929h-1.031v-2.77c0-.271-.072-.469-.216-.594a.77.77 0 0 0-.528-.19c-.248 0-.443.077-.583.233-.138.153-.207.353-.207.599v2.722h-1.009v-2.813c0-.225-.068-.405-.204-.54a.718.718 0 0 0-.529-.201.743.743 0 0 0-.403.113.794.794 0 0 0-.29.316.98.98 0 0 0-.108.471v2.654h-1.028zM99.627 132.084c-.426 0-.795-.094-1.108-.281a1.914 1.914 0 0 1-.727-.787c-.17-.337-.256-.731-.256-1.182 0-.451.085-.846.256-1.185a1.91 1.91 0 0 1 .727-.79c.313-.187.682-.281 1.108-.281.426 0 .795.094 1.108.281.312.188.554.451.724.79.173.339.259.734.259 1.185 0 .451-.086.845-.259 1.182-.17.337-.412.599-.724.787-.313.187-.682.281-1.108.281zm.006-.824a.89.89 0 0 0 .579-.19 1.15 1.15 0 0 0 .347-.517c.078-.216.116-.457.116-.722 0-.267-.038-.509-.116-.724a1.139 1.139 0 0 0-.347-.52.876.876 0 0 0-.58-.194.901.901 0 0 0-.59.194 1.16 1.16 0 0 0-.35.52 2.17 2.17 0 0 0-.113.724c0 .265.038.506.113.722.078.215.195.388.35.517.157.126.354.19.59.19zM96.91 127.635v.796h-2.508v-.796h2.509zm-1.888-1.045h1.028v4.096c0 .139.02.245.063.319.043.072.1.121.17.147.07.027.148.04.233.04a1.053 1.053 0 0 0 .301-.04l.173.804a1.924 1.924 0 0 1-.605.103 1.69 1.69 0 0 1-.696-.117 1.08 1.08 0 0 1-.491-.403c-.12-.182-.178-.409-.176-.682v-4.267zM93.79 128.788l-.938.103a.747.747 0 0 0-.4-.469.954.954 0 0 0-.403-.077.993.993 0 0 0-.54.139c-.144.093-.215.213-.213.361a.379.379 0 0 0 .139.31c.096.079.256.145.477.196l.744.159c.413.089.72.23.92.423.204.193.306.446.308.759a1.186 1.186 0 0 1-.242.727 1.557 1.557 0 0 1-.656.489 2.49 2.49 0 0 1-.966.176c-.534 0-.964-.112-1.29-.335a1.35 1.35 0 0 1-.582-.941l1.003-.096a.708.708 0 0 0 .29.446c.147.1.34.15.576.15.245 0 .44-.05.588-.15.15-.101.225-.225.225-.372a.388.388 0 0 0-.145-.31c-.095-.082-.243-.144-.443-.188l-.745-.156c-.418-.087-.728-.234-.929-.44-.2-.209-.3-.472-.298-.79a1.118 1.118 0 0 1 .219-.699c.15-.199.357-.352.622-.46a2.41 2.41 0 0 1 .923-.165c.512 0 .914.109 1.208.327.295.218.478.512.548.883zM88.255 130.163v-2.528h1.028v4.363h-.997v-.775h-.045c-.099.244-.26.444-.486.599-.224.156-.5.233-.827.233-.286 0-.539-.063-.758-.19a1.321 1.321 0 0 1-.512-.56c-.123-.246-.184-.543-.184-.892v-2.778h1.028v2.619c0 .277.076.496.227.659.152.163.35.244.597.244a.94.94 0 0 0 .44-.11.896.896 0 0 0 .35-.33c.093-.148.139-.332.139-.554zM84.554 128.144h-1.062a1.328 1.328 0 0 0-.168-.463 1.238 1.238 0 0 0-.719-.56 1.625 1.625 0 0 0-.497-.073c-.316 0-.597.079-.84.238a1.564 1.564 0 0 0-.575.693c-.138.303-.207.674-.207 1.111 0 .445.07.82.207 1.125.14.303.332.532.574.688.245.153.524.23.838.23.174 0 .337-.023.489-.068.153-.048.29-.117.412-.208a1.268 1.268 0 0 0 .486-.79l1.062.006a2.307 2.307 0 0 1-.773 1.421 2.38 2.38 0 0 1-.744.431 2.76 2.76 0 0 1-.946.154c-.511 0-.968-.119-1.37-.355a2.48 2.48 0 0 1-.948-1.026c-.231-.447-.347-.983-.347-1.608 0-.627.117-1.163.35-1.608a2.49 2.49 0 0 1 .951-1.025 2.631 2.631 0 0 1 1.364-.355c.324 0 .625.045.904.136.278.091.526.224.744.4.218.175.397.389.537.643.142.251.235.539.278.863z" fill="#14142A"/></g></g><defs><clipPath id="a"><rect width="379" height="226" rx="8" fill="#fff"/></clipPath><clipPath id="c"><path fill="#fff" transform="translate(53 29)" d="M0 0h274v167H0z"/></clipPath><linearGradient id="b" x1="828.576" y1="-199.735" x2="250.122" y2="515.022" gradientUnits="userSpaceOnUse"><stop stop-color="#1863DC"/><stop offset="1" stop-color="#D1E0F8"/></linearGradient></defs></svg>