<svg width="379" height="226" fill="none" xmlns="http://www.w3.org/2000/svg"><g clip-path="url(#a)"><rect width="379" height="226" rx="8" fill="url(#b)"/><path d="M276.151 22H117.849A3.84 3.84 0 0 0 114 25.83v158.491a3.84 3.84 0 0 0 3.849 3.831h158.302a3.84 3.84 0 0 0 3.849-3.831V25.831A3.84 3.84 0 0 0 276.151 22z" fill="#fff"/><path d="M129.592 39.48a.833.833 0 0 0-.363-.625c-.211-.149-.486-.223-.824-.223-.238 0-.442.035-.612.107a.912.912 0 0 0-.391.29.705.705 0 0 0-.049.76.826.826 0 0 0 .249.244c.105.066.221.12.348.166.127.044.255.082.384.113l.591.147c.238.055.466.13.686.223.221.094.419.212.593.355.177.143.316.315.419.517.102.202.153.44.153.71 0 .368-.094.691-.283.97-.188.278-.461.495-.818.653-.354.155-.784.232-1.288.232-.491 0-.916-.075-1.277-.226a1.896 1.896 0 0 1-.842-.661c-.201-.29-.31-.643-.327-1.06h1.123c.016.219.084.4.203.546.119.144.274.252.464.324.193.071.408.107.647.107.247 0 .465-.037.651-.11.189-.076.337-.18.443-.312a.75.75 0 0 0 .163-.472.598.598 0 0 0-.144-.404 1.06 1.06 0 0 0-.397-.27 3.847 3.847 0 0 0-.59-.195l-.717-.184c-.519-.132-.929-.333-1.23-.602-.3-.272-.45-.632-.45-1.08 0-.37.101-.694.302-.971.203-.278.479-.493.827-.646a2.887 2.887 0 0 1 1.184-.233c.447 0 .839.078 1.175.233.339.153.604.366.797.64.193.271.292.583.298.936h-1.098zm4.213 4.636c-.472 0-.877-.103-1.215-.309a2.066 2.066 0 0 1-.778-.854 2.817 2.817 0 0 1-.271-1.26c0-.478.093-.9.277-1.265.185-.367.445-.653.781-.857.338-.206.738-.309 1.2-.309.383 0 .722.07 1.018.211.297.139.534.336.711.59.176.254.276.55.301.889h-1.065a1.003 1.003 0 0 0-.307-.567c-.16-.153-.374-.23-.643-.23-.227 0-.427.062-.599.184-.173.12-.307.294-.404.52a2.12 2.12 0 0 0-.141.815c0 .32.047.596.141.826.095.229.227.405.397.53.173.122.375.183.606.183.164 0 .311-.03.44-.092a.883.883 0 0 0 .329-.272c.088-.118.149-.262.181-.431h1.065a1.742 1.742 0 0 1-.99 1.484 2.338 2.338 0 0 1-1.034.214zm4.051-2.846v2.754h-1.113v-6.268h1.089v2.366h.055c.111-.265.282-.474.514-.627.233-.155.531-.233.892-.233.328 0 .614.068.858.205.244.137.433.337.566.6.135.263.202.584.202.964v2.993h-1.112v-2.822c0-.316-.083-.562-.247-.737-.162-.178-.39-.267-.683-.267-.196 0-.373.043-.528.13a.908.908 0 0 0-.364.363c-.086.16-.129.352-.129.579zm6.29 2.846c-.474 0-.883-.098-1.227-.294a1.992 1.992 0 0 1-.79-.838c-.185-.364-.278-.791-.278-1.283 0-.483.093-.908.278-1.273.186-.367.446-.653.78-.857.335-.206.728-.309 1.178-.309.291 0 .566.047.825.14.26.093.49.235.689.43.201.193.359.44.474.74.114.298.171.653.171 1.065v.34h-3.872v-.747h2.805a1.19 1.19 0 0 0-.138-.566 1.001 1.001 0 0 0-.378-.395 1.07 1.07 0 0 0-.56-.144 1.09 1.09 0 0 0-.6.165 1.149 1.149 0 0 0-.403.429 1.231 1.231 0 0 0-.144.578v.652c0 .274.05.508.15.704.101.194.241.343.422.447.18.102.391.153.633.153.162 0 .309-.022.44-.067a.974.974 0 0 0 .341-.205.846.846 0 0 0 .219-.334l1.04.116a1.611 1.611 0 0 1-.376.717c-.183.202-.416.359-.701.47-.285.111-.611.166-.978.166zm4.795-.009c-.371 0-.703-.095-.996-.285a1.937 1.937 0 0 1-.695-.826c-.17-.361-.255-.8-.255-1.316 0-.523.086-.963.258-1.322.174-.361.409-.634.704-.817a1.82 1.82 0 0 1 .988-.279c.276 0 .504.047.682.14.179.093.32.204.425.334.104.129.186.25.243.365h.046v-2.345h1.116v6.268h-1.094v-.74h-.068a1.904 1.904 0 0 1-.249.364 1.38 1.38 0 0 1-.431.324c-.178.09-.403.135-.674.135zm.311-.909a.966.966 0 0 0 .603-.19c.166-.128.292-.307.378-.535.086-.229.13-.495.13-.8a2.21 2.21 0 0 0-.13-.792 1.128 1.128 0 0 0-.375-.523.973.973 0 0 0-.606-.187.984.984 0 0 0-.621.193 1.168 1.168 0 0 0-.375.532 2.204 2.204 0 0 0-.126.778c0 .294.041.556.126.786.086.229.212.41.378.542.168.13.374.196.618.196zm6.403-1.15v-2.725h1.113v4.701h-1.079v-.835h-.049a1.418 1.418 0 0 1-.526.646c-.242.167-.541.25-.895.25a1.62 1.62 0 0 1-.822-.205 1.43 1.43 0 0 1-.553-.602c-.134-.266-.2-.586-.2-.962v-2.993h1.113v2.822c0 .298.082.535.246.71.164.176.38.263.646.263.164 0 .323-.04.477-.119a.963.963 0 0 0 .378-.355c.1-.16.151-.358.151-.597zm3.371-4.292v6.268h-1.113v-6.268h1.113zm3.237 6.36c-.474 0-.883-.098-1.227-.294a1.988 1.988 0 0 1-.791-.838c-.185-.364-.276-.791-.276-1.283 0-.483.091-.908.276-1.273a2.09 2.09 0 0 1 .781-.857c.335-.206.727-.309 1.178-.309.292 0 .566.047.825.14.26.093.49.235.688.43.201.193.359.44.474.74.115.298.172.653.172 1.065v.34h-3.872v-.747h2.805a1.19 1.19 0 0 0-.138-.566.997.997 0 0 0-.379-.395 1.063 1.063 0 0 0-.559-.144c-.228 0-.428.055-.6.165a1.14 1.14 0 0 0-.403.429 1.244 1.244 0 0 0-.145.578v.652c0 .274.051.508.151.704.1.194.241.343.421.447.181.102.392.153.634.153.162 0 .309-.022.44-.067a.974.974 0 0 0 .341-.205.844.844 0 0 0 .218-.334l1.04.116a1.6 1.6 0 0 1-.375.717c-.182.202-.416.359-.701.47-.285.111-.611.166-.978.166zm7.251 0c-.471 0-.876-.103-1.215-.309a2.073 2.073 0 0 1-.778-.854 2.817 2.817 0 0 1-.271-1.26c0-.478.093-.9.278-1.265.184-.367.444-.653.78-.857.339-.206.739-.309 1.2-.309.383 0 .723.07 1.018.211.297.139.534.336.71.59.177.254.277.55.302.889h-1.064a1.01 1.01 0 0 0-.308-.567c-.16-.153-.374-.23-.643-.23-.227 0-.427.062-.599.184-.172.12-.307.294-.403.52a2.1 2.1 0 0 0-.142.815c0 .32.047.596.142.826.094.229.226.405.397.53.172.122.374.183.605.183.164 0 .311-.03.44-.092a.876.876 0 0 0 .329-.272c.088-.118.149-.262.182-.431h1.064a1.846 1.846 0 0 1-.295.884c-.17.255-.402.455-.695.6a2.338 2.338 0 0 1-1.034.214zm4.999 0c-.461 0-.861-.1-1.2-.303a2.065 2.065 0 0 1-.787-.848c-.184-.363-.277-.787-.277-1.273 0-.486.093-.91.277-1.276.187-.365.449-.649.787-.851.339-.202.739-.303 1.2-.303.461 0 .861.101 1.199.303.339.202.6.486.784.85.187.366.28.791.28 1.277 0 .486-.093.91-.28 1.273a2.032 2.032 0 0 1-.784.848c-.338.202-.738.303-1.199.303zm.006-.887c.25 0 .459-.069.627-.206a1.23 1.23 0 0 0 .376-.556c.084-.233.126-.492.126-.778 0-.288-.042-.548-.126-.78a1.229 1.229 0 0 0-.376-.56.952.952 0 0 0-.627-.209.98.98 0 0 0-.64.209 1.256 1.256 0 0 0-.378.56 2.336 2.336 0 0 0-.123.78c0 .286.041.545.123.778.084.232.21.418.378.556a.99.99 0 0 0 .64.206zm5.263.887c-.461 0-.861-.1-1.199-.303a2.06 2.06 0 0 1-.788-.848c-.184-.363-.277-.787-.277-1.273 0-.486.093-.91.277-1.276.187-.365.449-.649.788-.851.338-.202.738-.303 1.199-.303.462 0 .861.101 1.2.303.338.202.599.486.784.85.186.366.28.791.28 1.277 0 .486-.094.91-.28 1.273a2.045 2.045 0 0 1-.784.848c-.339.202-.738.303-1.2.303zm.006-.887c.25 0 .459-.069.627-.206a1.23 1.23 0 0 0 .376-.556c.084-.233.126-.492.126-.778 0-.288-.042-.548-.126-.78a1.229 1.229 0 0 0-.376-.56.952.952 0 0 0-.627-.209.982.982 0 0 0-.64.209 1.264 1.264 0 0 0-.378.56 2.336 2.336 0 0 0-.123.78c0 .286.041.545.123.778.084.232.211.418.378.556a.992.992 0 0 0 .64.206zm4.218-.68-.004-1.337h.179l1.697-1.889h1.302l-2.089 2.314h-.23l-.855.912zm-1.015 1.475v-6.268h1.113v6.268h-1.113zm2.964 0-1.537-2.139.75-.78 2.119 2.92h-1.332zm1.966 0v-4.7h1.114v4.7h-1.114zm.561-5.368a.652.652 0 0 1-.456-.175.562.562 0 0 1-.191-.425c0-.167.064-.31.191-.425a.646.646 0 0 1 .456-.178c.178 0 .33.06.455.178.127.116.19.258.19.425a.56.56 0 0 1-.19.425.644.644 0 0 1-.455.175zm3.789 5.46c-.473 0-.882-.098-1.227-.294a1.992 1.992 0 0 1-.79-.838c-.185-.364-.277-.791-.277-1.283 0-.483.092-.908.277-1.273.186-.367.447-.653.781-.857.334-.206.727-.309 1.178-.309.291 0 .566.047.824.14.26.093.49.235.689.43.201.193.359.44.474.74.115.298.172.653.172 1.065v.34H190.5v-.747h2.805a1.178 1.178 0 0 0-.139-.566 1.001 1.001 0 0 0-.378-.395 1.067 1.067 0 0 0-.56-.144c-.227 0-.427.055-.6.165a1.138 1.138 0 0 0-.402.429 1.22 1.22 0 0 0-.145.578v.652c0 .274.05.508.151.704.1.194.24.343.421.447.18.102.392.153.634.153.162 0 .308-.022.439-.067a.979.979 0 0 0 .342-.205.855.855 0 0 0 .218-.334l1.04.116a1.611 1.611 0 0 1-.376.717c-.182.202-.416.359-.701.47-.284.111-.611.166-.978.166zm8.925-3.55-1.015.11a.812.812 0 0 0-.151-.288.742.742 0 0 0-.283-.217 1.03 1.03 0 0 0-.436-.083c-.232 0-.427.05-.585.15-.155.1-.232.23-.231.389a.411.411 0 0 0 .151.334c.105.085.277.156.517.21l.806.172c.447.096.779.248.996.456.22.208.33.48.332.818a1.275 1.275 0 0 1-.261.783c-.17.224-.407.4-.711.526-.303.127-.652.19-1.045.19-.579 0-1.044-.12-1.397-.361a1.45 1.45 0 0 1-.63-1.013l1.086-.104a.763.763 0 0 0 .313.48c.161.108.368.163.625.163.264 0 .476-.054.636-.163.163-.108.243-.241.243-.4a.418.418 0 0 0-.156-.334c-.103-.088-.263-.155-.48-.202l-.806-.169c-.453-.093-.789-.252-1.006-.474a1.165 1.165 0 0 1-.323-.85 1.2 1.2 0 0 1 .237-.754c.162-.214.387-.38.674-.495.289-.119.622-.178.999-.178.554 0 .989.117 1.307.352.32.235.518.552.594.952zm3.08 3.55c-.471 0-.877-.103-1.215-.309a2.066 2.066 0 0 1-.778-.854 2.817 2.817 0 0 1-.271-1.26c0-.478.093-.9.277-1.265.185-.367.445-.653.781-.857.339-.206.738-.309 1.2-.309.383 0 .723.07 1.018.211.297.139.534.336.711.59.176.254.276.55.301.889h-1.064a1.01 1.01 0 0 0-.308-.567c-.16-.153-.374-.23-.643-.23-.227 0-.427.062-.599.184-.173.12-.307.294-.403.52a2.1 2.1 0 0 0-.142.815c0 .32.047.596.142.826.094.229.226.405.396.53.173.122.375.183.606.183.164 0 .311-.03.44-.092a.883.883 0 0 0 .329-.272c.088-.118.149-.262.182-.431h1.064a1.837 1.837 0 0 1-.296.884 1.736 1.736 0 0 1-.694.6 2.338 2.338 0 0 1-1.034.214zm4.297.003c-.299 0-.568-.053-.808-.159a1.316 1.316 0 0 1-.566-.477c-.137-.21-.206-.47-.206-.778 0-.265.049-.484.147-.658.099-.173.233-.312.403-.416a2.04 2.04 0 0 1 .575-.236 4.73 4.73 0 0 1 .668-.12c.277-.028.501-.053.673-.076a.994.994 0 0 0 .375-.11c.08-.05.12-.13.12-.236v-.018c0-.23-.068-.409-.206-.535-.137-.127-.335-.19-.593-.19-.273 0-.489.059-.649.177a.878.878 0 0 0-.32.42l-1.04-.147c.082-.286.218-.525.406-.717.189-.193.42-.338.692-.434.273-.098.575-.147.905-.147.227 0 .454.026.679.08.226.053.432.14.618.263.187.12.337.284.449.492.115.209.173.469.173.781v3.146h-1.07v-.645h-.037a1.38 1.38 0 0 1-.286.367 1.386 1.386 0 0 1-.459.272 1.85 1.85 0 0 1-.643.101zm.29-.814c.223 0 .417-.044.581-.132a.974.974 0 0 0 .378-.355.903.903 0 0 0 .136-.48v-.554a.529.529 0 0 1-.179.08 2.517 2.517 0 0 1-.277.064 8.475 8.475 0 0 1-.304.049l-.261.037c-.167.022-.316.059-.446.11a.738.738 0 0 0-.311.214.522.522 0 0 0-.114.349c0 .204.075.358.224.462.15.104.341.156.573.156zm4.438-2.035v2.754h-1.114v-4.7h1.065v.798h.055a1.34 1.34 0 0 1 .52-.627c.239-.155.536-.233.888-.233.327 0 .61.07.852.208.244.139.433.34.566.603.136.263.202.583.2.958v2.993h-1.113v-2.822c0-.314-.082-.56-.246-.737-.162-.178-.387-.267-.674-.267a1.04 1.04 0 0 0-.52.13.895.895 0 0 0-.353.363c-.084.16-.126.352-.126.579z" fill="#000"/><path d="M128.918 56.997a.698.698 0 0 0-.302-.52c-.176-.124-.405-.187-.687-.187-.198 0-.368.03-.51.09a.753.753 0 0 0-.326.242.59.59 0 0 0-.041.633c.051.08.121.148.208.204.087.054.184.1.289.138.106.037.213.068.321.094l.492.122c.198.046.389.108.572.186.184.079.349.177.494.296.147.12.264.263.349.431.085.169.128.366.128.592 0 .306-.079.576-.236.809a1.551 1.551 0 0 1-.682.543c-.295.129-.653.194-1.073.194-.409 0-.763-.063-1.064-.19a1.588 1.588 0 0 1-.703-.55 1.624 1.624 0 0 1-.271-.883h.935a.792.792 0 0 0 .17.454.89.89 0 0 0 .387.27c.16.06.34.09.538.09.206 0 .388-.03.543-.092a.879.879 0 0 0 .369-.26.62.62 0 0 0 .136-.393.497.497 0 0 0-.12-.336.89.89 0 0 0-.331-.225 3.212 3.212 0 0 0-.492-.163l-.597-.153c-.433-.11-.774-.278-1.026-.503-.249-.226-.374-.526-.374-.9 0-.308.084-.577.251-.808.17-.231.4-.411.69-.538a2.4 2.4 0 0 1 .987-.194c.372 0 .699.064.979.194.282.127.503.305.664.533.16.226.243.486.248.78h-.915zm3.511 3.864c-.393 0-.731-.086-1.012-.257a1.72 1.72 0 0 1-.649-.712 2.35 2.35 0 0 1-.226-1.051c0-.398.077-.749.231-1.053.154-.306.371-.544.651-.714a1.883 1.883 0 0 1 1-.258c.319 0 .602.058.848.176.248.116.445.28.592.492.147.211.231.457.251.74h-.886a.848.848 0 0 0-.257-.472c-.133-.128-.312-.191-.535-.191a.84.84 0 0 0-.5.153.974.974 0 0 0-.336.433 1.754 1.754 0 0 0-.118.679c0 .267.039.496.118.688.079.19.189.338.33.442a.853.853 0 0 0 .506.152.85.85 0 0 0 .366-.076.733.733 0 0 0 .274-.227.874.874 0 0 0 .152-.36h.886a1.45 1.45 0 0 1-.825 1.237c-.244.12-.532.18-.861.18zm3.581.003c-.25 0-.474-.044-.674-.133a1.09 1.09 0 0 1-.471-.398 1.156 1.156 0 0 1-.172-.648c0-.22.041-.404.122-.548a.954.954 0 0 1 .336-.347c.142-.087.302-.152.48-.197.179-.046.364-.079.556-.099.231-.024.417-.045.561-.064a.832.832 0 0 0 .313-.091.218.218 0 0 0 .1-.197v-.015c0-.192-.058-.34-.172-.447-.115-.105-.279-.158-.495-.158-.227 0-.407.05-.541.148a.735.735 0 0 0-.266.35l-.866-.123c.068-.238.181-.436.338-.596.157-.162.349-.283.577-.363.227-.081.478-.122.753-.122.19 0 .379.022.567.066.188.044.359.117.515.22.155.1.28.237.374.41.096.174.144.39.144.65v2.623h-.892v-.539h-.031a1.13 1.13 0 0 1-.62.533 1.539 1.539 0 0 1-.536.085zm.241-.679c.186 0 .348-.036.484-.11a.805.805 0 0 0 .315-.296.751.751 0 0 0 .113-.4v-.461a.424.424 0 0 1-.148.066c-.069.02-.145.038-.231.053a19.26 19.26 0 0 1-.472.071c-.138.02-.262.05-.371.093a.619.619 0 0 0-.259.178.431.431 0 0 0-.095.29c0 .17.062.3.187.386.125.087.284.13.477.13zm3.698-1.696v2.296h-.928v-3.918h.888v.665h.045c.091-.219.236-.393.434-.522.199-.13.446-.194.74-.194.272 0 .509.057.71.173.203.116.361.283.472.503.113.219.168.485.166.798v2.495h-.927v-2.352c0-.262-.069-.467-.206-.615-.134-.148-.322-.221-.561-.221a.868.868 0 0 0-.433.106.747.747 0 0 0-.295.304 1.034 1.034 0 0 0-.105.482zm7.255-1.622v.714h-2.328v-.714h2.328zm-1.745 3.918v-4.288c0-.264.054-.483.163-.658.111-.175.26-.306.446-.393.187-.087.393-.13.621-.13a2.174 2.174 0 0 1 .704.107l-.184.715a1.546 1.546 0 0 0-.149-.036.915.915 0 0 0-.2-.02c-.172 0-.294.041-.366.124-.07.082-.105.2-.105.352v4.227h-.93zm2.471 0v-3.918h.9v.653h.041a.98.98 0 0 1 .972-.71c.051 0 .108.003.171.008.065.004.119.01.161.018v.85a.984.984 0 0 0-.187-.036 1.772 1.772 0 0 0-.243-.018.947.947 0 0 0-.456.11.8.8 0 0 0-.315.298.838.838 0 0 0-.116.441v2.304h-.928zm4.443.076c-.395 0-.736-.082-1.023-.245a1.665 1.665 0 0 1-.659-.699c-.153-.302-.23-.658-.23-1.068 0-.403.077-.757.23-1.061.156-.306.373-.544.651-.714.279-.172.606-.258.982-.258.243 0 .472.039.687.117.217.077.408.196.574.357.167.162.299.367.395.617.095.249.143.545.143.888v.283h-3.227v-.622h2.338a.995.995 0 0 0-.115-.472.849.849 0 0 0-.782-.449.91.91 0 0 0-.5.138.945.945 0 0 0-.335.357 1.024 1.024 0 0 0-.121.482v.543c0 .228.042.424.125.587a.892.892 0 0 0 .352.372c.15.085.326.128.527.128.136 0 .258-.019.367-.056a.809.809 0 0 0 .284-.171.706.706 0 0 0 .182-.278l.867.097a1.343 1.343 0 0 1-.313.597c-.152.168-.347.299-.584.392-.238.092-.51.138-.815.138zm5.162 1.393v-2.087h-.038a1.568 1.568 0 0 1-.208.304c-.091.105-.21.195-.359.27a1.234 1.234 0 0 1-.561.112c-.309 0-.586-.078-.831-.237a1.613 1.613 0 0 1-.578-.688c-.142-.301-.213-.667-.213-1.097 0-.435.072-.803.215-1.102.145-.301.341-.528.587-.681.246-.155.52-.232.823-.232.23 0 .42.039.569.117.148.077.266.17.353.278.087.107.155.208.203.304h.056v-.648h.913v5.387h-.931zm-.907-2.158a.802.802 0 0 0 .502-.158.989.989 0 0 0 .316-.447c.072-.19.107-.412.107-.665 0-.254-.035-.474-.107-.661a.942.942 0 0 0-.313-.436.81.81 0 0 0-.505-.155.824.824 0 0 0-.518.16.984.984 0 0 0-.313.444 1.878 1.878 0 0 0-.105.648c0 .244.036.463.105.655.073.19.177.341.316.452.14.108.312.163.515.163zm5.3-.96v-2.27h.928v3.919h-.899v-.697h-.042c-.088.22-.235.4-.438.539-.202.139-.45.209-.746.209-.258 0-.486-.057-.684-.171a1.195 1.195 0 0 1-.461-.503 1.754 1.754 0 0 1-.167-.8v-2.495h.928v2.351c0 .249.068.446.205.592.137.147.316.22.538.22a.862.862 0 0 0 .398-.1.817.817 0 0 0 .315-.296.922.922 0 0 0 .125-.497zm3.625 1.725c-.395 0-.736-.082-1.023-.245a1.657 1.657 0 0 1-.658-.699c-.154-.302-.231-.658-.231-1.068 0-.403.077-.757.231-1.061.155-.306.372-.544.651-.714.278-.172.605-.258.981-.258.243 0 .472.039.687.117.217.077.408.196.574.357.168.162.299.367.395.617.096.249.143.545.143.888v.283h-3.226v-.622h2.337a.995.995 0 0 0-.115-.472.835.835 0 0 0-.315-.329.892.892 0 0 0-.467-.12.91.91 0 0 0-.5.138.964.964 0 0 0-.336.357 1.035 1.035 0 0 0-.12.482v.543c0 .228.042.424.126.587a.89.89 0 0 0 .351.372c.15.085.326.128.528.128.135 0 .257-.019.367-.056a.809.809 0 0 0 .284-.171.717.717 0 0 0 .182-.278l.866.097a1.351 1.351 0 0 1-.312.597c-.152.168-.347.299-.585.392a2.248 2.248 0 0 1-.815.138zm3.463-2.372v2.296h-.927v-3.918h.886v.665h.047c.09-.219.234-.393.433-.522.199-.13.446-.194.74-.194.272 0 .509.057.71.173.203.116.361.283.472.503.112.219.168.485.166.798v2.495h-.927v-2.352c0-.262-.069-.467-.205-.615-.136-.148-.323-.221-.562-.221a.868.868 0 0 0-.433.106.747.747 0 0 0-.295.304c-.07.133-.105.293-.105.482zm5.188 2.372c-.393 0-.731-.086-1.013-.257a1.724 1.724 0 0 1-.648-.712 2.35 2.35 0 0 1-.226-1.051c0-.398.077-.749.231-1.053.154-.306.371-.544.651-.714a1.883 1.883 0 0 1 1-.258c.319 0 .602.058.848.176.248.116.445.28.592.492.147.211.231.457.251.74h-.887a.835.835 0 0 0-.256-.472c-.133-.128-.312-.191-.536-.191a.844.844 0 0 0-.5.153.979.979 0 0 0-.335.433 1.754 1.754 0 0 0-.118.679c0 .267.039.496.118.688.078.19.189.338.331.442a.845.845 0 0 0 .504.152.851.851 0 0 0 .367-.076.733.733 0 0 0 .274-.227.86.86 0 0 0 .151-.36h.887a1.531 1.531 0 0 1-.246.738c-.142.212-.335.379-.579.5-.245.119-.531.178-.861.178zm3.025 1.393a1.887 1.887 0 0 1-.605-.097l.215-.72c.135.04.255.058.361.057a.446.446 0 0 0 .28-.1.699.699 0 0 0 .207-.316l.08-.212-1.427-4h.983l.908 2.96h.041l.91-2.96h.987l-1.577 4.393a1.753 1.753 0 0 1-.292.533c-.122.15-.27.263-.446.342a1.49 1.49 0 0 1-.625.12z" fill="#27283C"/><path d="M174.145 72.516h-46.673c-.93 0-1.684.75-1.684 1.675v12.45a1.68 1.68 0 0 0 1.684 1.676h46.673c.93 0 1.684-.75 1.684-1.676V74.19a1.68 1.68 0 0 0-1.684-1.675z" stroke="#D9DBE9"/><path d="M132.835 78.283h.657l1.546 3.758h.054l1.546-3.758h.657v4.528h-.515v-3.44h-.045l-1.421 3.44h-.498l-1.421-3.44h-.045v3.44h-.515v-4.528zm6.88 4.598c-.308 0-.579-.073-.811-.219a1.487 1.487 0 0 1-.542-.612 2.06 2.06 0 0 1-.193-.92c0-.353.064-.662.193-.926.13-.264.311-.468.542-.614.232-.146.503-.219.811-.219.308 0 .577.073.808.219.233.145.413.35.542.614.131.264.196.573.196.926 0 .351-.065.658-.196.92a1.467 1.467 0 0 1-.542.612c-.231.146-.5.22-.808.22zm0-.468c.234 0 .426-.06.577-.18a1.06 1.06 0 0 0 .336-.47c.072-.195.109-.406.109-.633 0-.226-.037-.438-.109-.634a1.072 1.072 0 0 0-.336-.475.895.895 0 0 0-.577-.182.898.898 0 0 0-.578.182c-.151.12-.263.279-.335.475a1.802 1.802 0 0 0-.109.634c0 .227.036.438.109.633.072.194.184.351.335.47.151.12.344.18.578.18zm2.87-1.645v2.043h-.524v-3.396h.506v.53h.045a.971.971 0 0 1 .364-.415c.163-.106.373-.159.631-.159.231 0 .433.047.606.141a.958.958 0 0 1 .405.425c.096.189.144.427.144.716v2.157h-.524v-2.122c0-.266-.07-.474-.209-.623-.139-.15-.33-.226-.573-.226a.92.92 0 0 0-.449.11.78.78 0 0 0-.309.315 1.045 1.045 0 0 0-.113.504zm4.619-1.353v.442h-1.768v-.442h1.768zm-1.253-.813h.524v3.236c0 .148.022.258.064.331a.336.336 0 0 0 .169.146c.07.024.143.036.22.036a.91.91 0 0 0 .231-.027l.107.469a1.09 1.09 0 0 1-.391.062 1.06 1.06 0 0 1-.435-.095.871.871 0 0 1-.352-.29.834.834 0 0 1-.137-.49v-3.378zm2.639 2.166v2.043h-.524v-4.528h.524v1.663h.044a.96.96 0 0 1 .36-.418c.161-.105.376-.157.644-.157.233 0 .436.047.611.14a.94.94 0 0 1 .407.421c.097.189.146.43.146.72v2.159h-.524v-2.123c0-.27-.07-.478-.211-.625-.139-.149-.333-.224-.58-.224a.969.969 0 0 0-.462.11.793.793 0 0 0-.32.315 1.022 1.022 0 0 0-.115.504zm3.695-2.485v4.528h-.524v-4.528h.524zm1.298 5.8a1.162 1.162 0 0 1-.382-.061l.133-.46c.128.032.24.044.338.035a.405.405 0 0 0 .26-.13c.077-.077.147-.201.211-.373l.098-.266-1.262-3.413h.568l.943 2.706h.035l.942-2.706h.569l-1.449 3.89a1.48 1.48 0 0 1-.242.436.906.906 0 0 1-.335.259 1.04 1.04 0 0 1-.427.084z" fill="#A0A3BD"/><path d="m165.243 80.814 1.687-1.68.482.481-2.169 2.158-2.169-2.158.482-.48 1.687 1.679z" fill="#686876"/><path d="M220.336 72.516h-38.011c-.93 0-1.684.75-1.684 1.675v12.45a1.68 1.68 0 0 0 1.684 1.676h38.011c.93 0 1.684-.75 1.684-1.676V74.19a1.68 1.68 0 0 0-1.684-1.675z" stroke="#D9DBE9"/><path d="M189.091 82.81h-1.403v-4.527h1.466c.441 0 .819.091 1.132.272.314.18.555.439.722.776.167.336.251.739.251 1.207 0 .472-.084.878-.253 1.218-.169.34-.415.6-.738.782-.322.182-.715.273-1.177.273zm-.853-.486h.818c.376 0 .688-.072.935-.216.247-.145.431-.35.553-.617a2.29 2.29 0 0 0 .182-.953c0-.365-.06-.68-.18-.944a1.323 1.323 0 0 0-.537-.61c-.239-.143-.535-.214-.891-.214h-.88v3.554zm4.878.566c-.216 0-.412-.04-.589-.122a1.003 1.003 0 0 1-.419-.355.997.997 0 0 1-.155-.566.87.87 0 0 1 .115-.473.821.821 0 0 1 .308-.288c.129-.07.271-.12.427-.154.157-.036.315-.064.473-.084.208-.027.375-.047.504-.06a.785.785 0 0 0 .285-.073c.06-.034.091-.093.091-.177v-.018c0-.218-.06-.387-.18-.508-.119-.12-.299-.181-.54-.181-.25 0-.447.054-.589.163a.964.964 0 0 0-.299.35l-.498-.177a1.2 1.2 0 0 1 .355-.482c.15-.117.313-.198.489-.243.178-.047.352-.07.524-.07.11 0 .236.012.378.039.144.025.282.077.415.157.135.08.247.2.336.36.088.16.133.376.133.645v2.238h-.524v-.46h-.027a.91.91 0 0 1-.178.236 1.035 1.035 0 0 1-.331.215 1.276 1.276 0 0 1-.504.088zm.08-.468c.208 0 .382-.041.524-.122a.834.834 0 0 0 .436-.719v-.477c-.022.026-.071.05-.147.073-.074.02-.16.039-.257.055a13.28 13.28 0 0 1-.502.066 1.997 1.997 0 0 0-.382.087.654.654 0 0 0-.285.174.445.445 0 0 0-.107.314c0 .181.068.318.203.411a.907.907 0 0 0 .517.138zm2.656 1.662a1.138 1.138 0 0 1-.382-.062l.134-.46c.127.032.239.044.337.035a.403.403 0 0 0 .26-.13c.077-.077.147-.201.211-.373l.098-.266-1.262-3.413h.569l.941 2.706h.036l.942-2.706h.568l-1.448 3.89a1.48 1.48 0 0 1-.242.436.906.906 0 0 1-.335.259 1.04 1.04 0 0 1-.427.084zm6.494-5.8v4.526h-.551v-3.952h-.026l-1.111.734v-.557l1.137-.752h.551z" fill="#A0A3BD"/><path d="m211.435 80.814 1.687-1.68.482.481-2.169 2.158-2.169-2.158.482-.48 1.687 1.679z" fill="#686876"/><path d="M266.528 72.516h-38.012c-.93 0-1.684.75-1.684 1.675v12.45a1.68 1.68 0 0 0 1.684 1.676h38.012c.93 0 1.684-.75 1.684-1.676V74.19a1.68 1.68 0 0 0-1.684-1.675z" stroke="#D9DBE9"/><path d="M235.282 82.872a1.36 1.36 0 0 1-.855-.272c-.235-.183-.415-.447-.54-.794-.124-.347-.186-.767-.186-1.26 0-.489.062-.907.186-1.253.126-.348.307-.613.543-.796.236-.184.521-.276.852-.276.332 0 .616.092.851.276.237.183.418.448.542.796.126.346.189.764.189 1.253 0 .493-.062.913-.186 1.26-.125.347-.305.611-.54.794a1.362 1.362 0 0 1-.856.272zm0-.486c.332 0 .59-.16.773-.478.184-.318.276-.772.276-1.362 0-.392-.042-.725-.127-1.001-.083-.276-.202-.486-.36-.63a.794.794 0 0 0-.562-.217c-.328 0-.585.162-.77.484-.185.322-.278.776-.278 1.364 0 .392.042.725.124 1 .083.274.203.482.358.625a.813.813 0 0 0 .566.215zm2.446.424 2.035-4.005v-.036h-2.346v-.486h2.915v.513l-2.026 4.014h-.578zm3.609-.58a.388.388 0 0 1-.283-.116.383.383 0 0 1-.117-.28c0-.11.039-.204.117-.282a.388.388 0 0 1 .283-.117c.109 0 .203.039.282.117a.385.385 0 0 1 .062.48.419.419 0 0 1-.145.146.378.378 0 0 1-.199.053zm0-2.29a.388.388 0 0 1-.283-.117.383.383 0 0 1-.117-.28c0-.11.039-.203.117-.28a.387.387 0 0 1 .283-.118c.109 0 .203.039.282.117a.384.384 0 0 1 .062.48.414.414 0 0 1-.145.146.378.378 0 0 1-.199.053zm1.225 1.942v-.452l1.999-3.147h.329v.698h-.223l-1.51 2.38v.034h2.692v.487h-3.287zm2.141.928V78.283h.524v4.527h-.524zm3.427-4.59c.186.002.373.038.559.107.187.07.357.184.511.345.154.159.278.376.371.652.094.275.14.621.14 1.037 0 .402-.038.76-.115 1.072a2.43 2.43 0 0 1-.329.787 1.447 1.447 0 0 1-.52.486c-.203.11-.432.166-.689.166-.254 0-.481-.05-.681-.15a1.33 1.33 0 0 1-.489-.422 1.46 1.46 0 0 1-.242-.63h.542c.049.207.146.379.291.515.146.134.34.2.579.2.352 0 .628-.152.831-.457.205-.305.307-.736.307-1.293h-.036a1.37 1.37 0 0 1-.295.32 1.31 1.31 0 0 1-.824.281c-.261 0-.5-.064-.718-.192a1.456 1.456 0 0 1-.519-.533 1.547 1.547 0 0 1-.194-.778c0-.277.063-.53.187-.76.126-.232.302-.416.529-.553.228-.137.496-.203.804-.2zm0 .487a.939.939 0 0 0-.505.14 1.006 1.006 0 0 0-.353.37 1.053 1.053 0 0 0-.129.516c0 .189.042.36.125.515a.936.936 0 0 0 .844.501.947.947 0 0 0 .711-.309c.091-.097.163-.207.215-.33a1.007 1.007 0 0 0-.051-.884 1.014 1.014 0 0 0-.351-.375.912.912 0 0 0-.506-.144zm4.481 4.103h-.578l1.67-4.527h.569l1.67 4.527h-.577l-1.359-3.811h-.036l-1.359 3.81zm.213-1.768h2.328v.486h-2.328v-.486zm3.827-2.76h.657l1.547 3.758h.053l1.546-3.757h.657v4.527h-.515v-3.44h-.044l-1.422 3.44h-.498l-1.421-3.44h-.045v3.44h-.515v-4.527z" fill="#A0A3BD"/><path d="M128.918 101.05a.698.698 0 0 0-.302-.521c-.176-.124-.405-.186-.687-.186-.198 0-.368.03-.51.089a.76.76 0 0 0-.326.243.589.589 0 0 0-.041.632c.051.08.121.148.208.204.087.055.184.1.289.138.106.037.213.069.321.094l.492.123c.198.046.389.108.572.186.184.078.349.177.494.296.147.119.264.263.349.431.085.168.128.366.128.592 0 .305-.079.575-.236.808a1.54 1.54 0 0 1-.682.543c-.295.13-.653.194-1.073.194a2.76 2.76 0 0 1-1.064-.188 1.59 1.59 0 0 1-.703-.552 1.622 1.622 0 0 1-.271-.882h.935a.793.793 0 0 0 .17.454.887.887 0 0 0 .387.27c.16.06.34.09.538.09.206 0 .388-.031.543-.092a.875.875 0 0 0 .369-.261.618.618 0 0 0 .136-.392.499.499 0 0 0-.12-.337.893.893 0 0 0-.331-.224 3.144 3.144 0 0 0-.492-.164l-.597-.152c-.433-.111-.774-.279-1.026-.503-.249-.226-.374-.526-.374-.9 0-.308.084-.578.251-.809.17-.231.4-.41.69-.538.29-.129.619-.194.987-.194.372 0 .699.065.979.194.282.128.503.305.664.533.16.226.243.486.248.781h-.915zm3.511 3.864c-.393 0-.731-.086-1.012-.258a1.723 1.723 0 0 1-.649-.711 2.351 2.351 0 0 1-.226-1.051c0-.398.077-.749.231-1.054.154-.306.371-.544.651-.714.282-.172.615-.257 1-.257.319 0 .602.058.848.175.248.116.445.28.592.493.147.211.231.457.251.739h-.886a.848.848 0 0 0-.257-.471c-.133-.128-.312-.192-.535-.192a.84.84 0 0 0-.5.153.98.98 0 0 0-.336.434 1.75 1.75 0 0 0-.118.678c0 .267.039.497.118.689.079.19.189.337.33.441a.854.854 0 0 0 .506.153.847.847 0 0 0 .366-.076.734.734 0 0 0 .274-.227.877.877 0 0 0 .152-.36h.886a1.529 1.529 0 0 1-.246.737c-.141.213-.335.38-.579.5a1.947 1.947 0 0 1-.861.179zm3.581.002c-.25 0-.474-.044-.674-.132a1.092 1.092 0 0 1-.471-.398 1.16 1.16 0 0 1-.172-.648c0-.221.041-.404.122-.548a.956.956 0 0 1 .336-.347c.142-.087.302-.152.48-.197.179-.046.364-.079.556-.099.231-.024.417-.045.561-.064a.823.823 0 0 0 .313-.092c.066-.042.1-.108.1-.196v-.015c0-.193-.058-.341-.172-.447-.115-.105-.279-.158-.495-.158-.227 0-.407.049-.541.148a.738.738 0 0 0-.266.349l-.866-.122c.068-.238.181-.437.338-.597.157-.162.349-.282.577-.362.227-.082.478-.122.753-.122.19 0 .379.022.567.066.188.044.359.117.515.219.155.101.28.238.374.411.096.173.144.39.144.65v2.622h-.892v-.538h-.031a1.123 1.123 0 0 1-.62.533 1.55 1.55 0 0 1-.536.084zm.241-.678c.186 0 .348-.037.484-.11a.805.805 0 0 0 .315-.296.752.752 0 0 0 .113-.4v-.462a.422.422 0 0 1-.148.066 1.929 1.929 0 0 1-.231.054 7.874 7.874 0 0 1-.472.071c-.138.019-.262.05-.371.092a.62.62 0 0 0-.259.179.431.431 0 0 0-.095.29c0 .17.062.299.187.386.125.087.284.13.477.13zm3.698-1.696v2.295h-.928v-3.918h.888v.666h.045c.091-.219.236-.394.434-.523.199-.129.446-.193.74-.193.272 0 .509.057.71.173.203.115.361.283.472.502.113.22.168.486.166.798v2.495h-.927v-2.351c0-.262-.069-.467-.206-.615-.134-.148-.322-.222-.561-.222a.871.871 0 0 0-.433.107.745.745 0 0 0-.295.304 1.03 1.03 0 0 0-.105.482zm6.978 2.372a1.92 1.92 0 0 1-1-.253 1.712 1.712 0 0 1-.655-.706 2.313 2.313 0 0 1-.231-1.061c0-.405.077-.76.231-1.064.155-.304.373-.54.655-.709.282-.169.616-.252 1-.252.385 0 .718.083 1 .252.282.169.499.405.653.709.156.304.233.659.233 1.064 0 .404-.077.758-.233 1.061a1.701 1.701 0 0 1-.653.706 1.917 1.917 0 0 1-1 .253zm.005-.74a.8.8 0 0 0 .523-.171c.14-.115.244-.27.313-.464.07-.194.105-.41.105-.648 0-.24-.035-.457-.105-.651a1.038 1.038 0 0 0-.313-.466.792.792 0 0 0-.523-.174.814.814 0 0 0-.533.174 1.05 1.05 0 0 0-.315.466 1.933 1.933 0 0 0-.103.651c0 .238.034.454.103.648.07.194.175.349.315.464a.823.823 0 0 0 .533.171zm2.669 2.132v-5.387h.912v.648h.054c.048-.095.116-.196.203-.303.087-.109.205-.202.353-.278a1.21 1.21 0 0 1 .569-.117c.304 0 .578.077.823.231.246.154.441.381.584.682.146.299.218.666.218 1.102 0 .43-.071.795-.213 1.096a1.61 1.61 0 0 1-.579.689 1.494 1.494 0 0 1-.83.237c-.226 0-.413-.037-.562-.112a1.147 1.147 0 0 1-.358-.27 1.817 1.817 0 0 1-.208-.304h-.038v2.086h-.928zm.91-3.428c0 .254.035.476.107.666.074.19.179.339.316.447a.804.804 0 0 0 .502.158.806.806 0 0 0 .515-.164 1 1 0 0 0 .313-.451c.071-.192.108-.411.108-.656 0-.243-.036-.459-.105-.648a.984.984 0 0 0-.313-.443.823.823 0 0 0-.518-.161.816.816 0 0 0-.505.156.95.95 0 0 0-.315.436 1.88 1.88 0 0 0-.105.66zm5.566-1.959v.715h-2.263v-.715h2.263zm-1.704-.938h.928v3.678c0 .124.019.219.057.286.039.064.09.108.153.132a.59.59 0 0 0 .21.036 1.137 1.137 0 0 0 .272-.036l.157.722a1.82 1.82 0 0 1-.547.092 1.52 1.52 0 0 1-.627-.105.977.977 0 0 1-.444-.362 1.084 1.084 0 0 1-.159-.612v-3.831zm2.481 4.856v-3.918h.927v3.918h-.927zm.466-4.473a.54.54 0 0 1-.379-.146.467.467 0 0 1-.159-.354c0-.14.053-.258.159-.355a.535.535 0 0 1 .379-.148c.148 0 .275.05.379.148a.462.462 0 0 1 .159.355.467.467 0 0 1-.159.354.537.537 0 0 1-.379.146zm3.133 4.55c-.385 0-.718-.085-1-.253a1.715 1.715 0 0 1-.656-.706 2.313 2.313 0 0 1-.231-1.061c0-.405.077-.76.231-1.064.155-.304.374-.54.656-.709.282-.169.615-.252 1-.252.384 0 .717.083.999.252.282.169.5.405.654.709.155.304.233.659.233 1.064a2.3 2.3 0 0 1-.233 1.061 1.704 1.704 0 0 1-.654.706 1.916 1.916 0 0 1-.999.253zm.005-.74a.8.8 0 0 0 .522-.171c.141-.115.245-.27.313-.464.07-.194.106-.41.106-.648 0-.24-.036-.457-.106-.651a1.022 1.022 0 0 0-.313-.466.79.79 0 0 0-.522-.174.814.814 0 0 0-.533.174c-.14.116-.246.271-.315.466a1.933 1.933 0 0 0-.103.651c0 .238.034.454.103.648.069.194.175.349.315.464a.823.823 0 0 0 .533.171zm3.596-1.632v2.295h-.928v-3.918h.887v.666h.046c.091-.219.235-.394.433-.523.201-.129.447-.193.741-.193.272 0 .508.057.71.173.204.115.36.283.472.502.113.22.168.486.167.798v2.495h-.929v-2.351c0-.262-.068-.467-.205-.615-.134-.148-.321-.222-.561-.222a.869.869 0 0 0-.433.107.745.745 0 0 0-.295.304c-.07.132-.105.293-.105.482zm6.582-.587-.846.092a.674.674 0 0 0-.125-.24.623.623 0 0 0-.236-.181.863.863 0 0 0-.364-.069.895.895 0 0 0-.487.125c-.13.084-.194.191-.192.324a.336.336 0 0 0 .126.278c.087.071.23.13.43.176l.671.143c.373.08.649.206.831.38.183.173.275.4.277.681a1.067 1.067 0 0 1-.218.653c-.142.187-.34.333-.592.439a2.257 2.257 0 0 1-.872.158c-.482 0-.87-.101-1.163-.301a1.211 1.211 0 0 1-.526-.845l.905-.086c.041.176.128.31.261.4.134.091.307.136.521.136.22 0 .397-.045.53-.136.135-.09.203-.202.203-.334a.348.348 0 0 0-.131-.278c-.085-.073-.219-.129-.4-.168l-.671-.141c-.378-.078-.657-.209-.838-.395a.965.965 0 0 1-.269-.709 1 1 0 0 1 .197-.627c.135-.179.322-.317.561-.413a2.18 2.18 0 0 1 .833-.148c.461 0 .825.097 1.089.293.267.196.432.46.495.793z" fill="#27283C"/><path d="M133.246 120.637c0-2.115-1.723-3.83-3.849-3.83-2.126 0-3.849 1.715-3.849 3.83a3.84 3.84 0 0 0 3.849 3.831 3.84 3.84 0 0 0 3.849-3.831z" fill="#1578F7"/><path d="M130.84 120.638a1.44 1.44 0 0 0-1.443-1.437 1.44 1.44 0 0 0-1.444 1.437 1.44 1.44 0 0 0 1.444 1.436 1.44 1.44 0 0 0 1.443-1.436z" fill="#fff"/><path d="M139.469 123.031v-4.527h2.914v.687h-2.091v1.23h1.891v.687h-1.891v1.923h-.823zm5.59-1.428v-1.967h.804v3.395h-.78v-.603h-.035c-.077.19-.204.345-.38.466-.175.121-.39.181-.647.181-.223 0-.421-.049-.592-.148a1.024 1.024 0 0 1-.4-.435 1.537 1.537 0 0 1-.144-.694v-2.162h.804v2.038c0 .215.059.386.177.513a.61.61 0 0 0 .466.19.736.736 0 0 0 .618-.343.788.788 0 0 0 .109-.431zm2.435-3.099v4.527h-.804v-4.527h.804zm1.631 0v4.527h-.804v-4.527h.804zm5.075 2.029-.733.08a.587.587 0 0 0-.313-.365.761.761 0 0 0-.316-.06.776.776 0 0 0-.422.109c-.112.072-.168.166-.166.281a.29.29 0 0 0 .109.241c.075.061.199.112.373.152l.582.124c.322.069.563.179.719.329a.78.78 0 0 1 .24.59.912.912 0 0 1-.189.566 1.206 1.206 0 0 1-.512.38c-.22.092-.472.137-.756.137-.418 0-.754-.086-1.008-.26a1.049 1.049 0 0 1-.456-.732l.784-.075a.55.55 0 0 0 .227.347.79.79 0 0 0 .451.117.81.81 0 0 0 .46-.117c.117-.078.175-.175.175-.29a.3.3 0 0 0-.113-.24.788.788 0 0 0-.347-.146l-.581-.122c-.328-.068-.57-.182-.727-.343a.837.837 0 0 1-.233-.614.866.866 0 0 1 .171-.544c.117-.155.279-.274.486-.358.209-.086.45-.128.722-.128.4 0 .715.085.944.254.231.17.374.398.429.687zm2.224 2.564c-.34 0-.632-.074-.877-.223a1.492 1.492 0 0 1-.562-.617 2.03 2.03 0 0 1-.195-.91c0-.345.066-.649.2-.913.133-.265.321-.472.564-.619a1.63 1.63 0 0 1 .866-.223c.277 0 .522.051.735.152.215.101.386.243.514.427.127.183.199.396.217.641h-.768a.735.735 0 0 0-.223-.409.64.64 0 0 0-.464-.166.726.726 0 0 0-.433.133.854.854 0 0 0-.291.376 1.525 1.525 0 0 0-.102.588c0 .231.034.43.102.596a.867.867 0 0 0 .287.383c.124.088.27.133.437.133a.738.738 0 0 0 .318-.067.626.626 0 0 0 .237-.197.75.75 0 0 0 .132-.311h.768c-.019.24-.09.453-.213.639-.123.184-.29.328-.502.433a1.692 1.692 0 0 1-.747.154zm3.104.003c-.216 0-.411-.039-.584-.115a.952.952 0 0 1-.409-.345 1.008 1.008 0 0 1-.149-.562c0-.191.036-.35.107-.475a.82.82 0 0 1 .291-.3c.123-.076.261-.133.416-.171.155-.04.316-.068.481-.086.2-.021.363-.039.487-.055a.717.717 0 0 0 .271-.08c.058-.036.087-.093.087-.17v-.013a.501.501 0 0 0-.149-.387c-.1-.091-.242-.137-.429-.137-.197 0-.353.043-.469.128a.642.642 0 0 0-.231.303l-.75-.106c.059-.207.157-.379.293-.517.136-.14.302-.245.5-.314.196-.071.414-.106.653-.106.164 0 .328.019.49.057.163.039.312.102.447.19a.953.953 0 0 1 .324.356c.083.15.125.338.125.564v2.272h-.773v-.466h-.027a.975.975 0 0 1-.537.462 1.36 1.36 0 0 1-.465.073zm.209-.588a.885.885 0 0 0 .42-.095.706.706 0 0 0 .273-.257.65.65 0 0 0 .098-.347v-.4a.374.374 0 0 1-.129.058 1.93 1.93 0 0 1-.2.046 9.14 9.14 0 0 1-.22.036l-.188.026a1.441 1.441 0 0 0-.323.079.538.538 0 0 0-.224.155.376.376 0 0 0-.082.252.38.38 0 0 0 .162.334.709.709 0 0 0 .413.113zm3.205-1.47v1.989h-.804v-3.395h.769v.577h.04a.967.967 0 0 1 .375-.453 1.16 1.16 0 0 1 .642-.168c.235 0 .44.05.616.15.176.1.312.245.408.435.098.19.146.421.144.692v2.162h-.804v-2.038c0-.227-.059-.404-.177-.533-.117-.128-.279-.192-.487-.192a.745.745 0 0 0-.375.093.64.64 0 0 0-.255.263.87.87 0 0 0-.092.418z" fill="#4E4B66"/><path d="M138.539 132.848h127.988M138.539 137.637h87.571" stroke="#CACACA" stroke-width="3"/><path d="M132.766 153.197a3.36 3.36 0 0 0-3.369-3.351 3.36 3.36 0 0 0-3.368 3.351 3.36 3.36 0 0 0 3.368 3.352 3.36 3.36 0 0 0 3.369-3.352z" stroke="#A0A3BD" stroke-width="2"/><path d="M143.363 152.591h-.83a1.044 1.044 0 0 0-.132-.36.947.947 0 0 0-.238-.269.957.957 0 0 0-.324-.166 1.249 1.249 0 0 0-.389-.058 1.18 1.18 0 0 0-.657.186 1.218 1.218 0 0 0-.449.539c-.108.236-.162.524-.162.865 0 .346.054.637.162.875.11.235.26.414.449.535.191.119.41.179.655.179.137 0 .264-.018.383-.053.119-.037.227-.091.321-.162a.985.985 0 0 0 .381-.614l.83.004a1.77 1.77 0 0 1-.202.606 1.768 1.768 0 0 1-.402.499 1.84 1.84 0 0 1-.582.337 2.196 2.196 0 0 1-.74.119c-.399 0-.756-.092-1.07-.277a1.928 1.928 0 0 1-.742-.797c-.181-.348-.271-.765-.271-1.251 0-.488.091-.905.273-1.252.182-.348.43-.613.744-.798a2.068 2.068 0 0 1 1.066-.276c.254 0 .489.035.707.106.217.071.411.175.581.312.171.135.311.302.421.499.111.196.183.42.217.672zm2.894 1.572v-1.967h.804v3.395h-.78v-.603h-.035c-.077.19-.204.345-.38.466-.175.121-.39.181-.647.181-.223 0-.421-.049-.592-.148a1.024 1.024 0 0 1-.4-.435 1.523 1.523 0 0 1-.145-.694v-2.162h.804v2.038c0 .215.06.386.178.513.118.126.274.19.467.19a.735.735 0 0 0 .617-.343.788.788 0 0 0 .109-.431zm4.327-1.07-.733.08a.584.584 0 0 0-.108-.208.547.547 0 0 0-.205-.157.74.74 0 0 0-.315-.06.785.785 0 0 0-.422.108c-.113.073-.168.167-.167.282a.293.293 0 0 0 .109.24c.075.062.2.113.373.153l.582.124c.323.069.563.179.72.329.158.15.238.347.24.59a.925.925 0 0 1-.189.566 1.21 1.21 0 0 1-.513.38c-.22.092-.471.137-.756.137-.417 0-.753-.087-1.008-.26a1.05 1.05 0 0 1-.455-.732l.784-.075a.553.553 0 0 0 .227.347.788.788 0 0 0 .451.117.805.805 0 0 0 .459-.117c.117-.079.176-.175.176-.29a.304.304 0 0 0-.113-.241.805.805 0 0 0-.347-.146l-.582-.121c-.327-.068-.569-.182-.727-.343a.84.84 0 0 1-.232-.614.865.865 0 0 1 .17-.544c.117-.155.279-.274.487-.358.209-.086.449-.128.722-.128.399 0 .714.084.944.254.231.169.374.398.428.687zm2.441-.897v.619h-1.962v-.619h1.962zm-1.477-.814h.804v3.188c0 .107.016.19.048.247a.263.263 0 0 0 .133.115.51.51 0 0 0 .183.031.818.818 0 0 0 .235-.031l.136.626a1.623 1.623 0 0 1-.473.079 1.324 1.324 0 0 1-.545-.09.846.846 0 0 1-.384-.314.93.93 0 0 1-.137-.531v-3.32zm3.601 4.275a1.66 1.66 0 0 1-.867-.219 1.474 1.474 0 0 1-.568-.612 1.994 1.994 0 0 1-.2-.919c0-.351.066-.658.2-.922s.324-.469.568-.615a1.66 1.66 0 0 1 .867-.218c.333 0 .622.072.866.218.244.146.433.351.566.615.135.264.203.571.203.922 0 .35-.068.657-.203.919a1.463 1.463 0 0 1-.566.612 1.656 1.656 0 0 1-.866.219zm.004-.641a.692.692 0 0 0 .453-.148.892.892 0 0 0 .271-.402c.061-.168.091-.356.091-.561 0-.208-.03-.396-.091-.564a.89.89 0 0 0-.271-.405.687.687 0 0 0-.453-.15.709.709 0 0 0-.462.15.902.902 0 0 0-.273.405c-.06.168-.089.356-.089.564 0 .205.029.393.089.561.06.168.152.302.273.402a.713.713 0 0 0 .462.148zm2.313.575v-3.395h.769v.577h.04a.891.891 0 0 1 .353-.456c.164-.11.36-.165.588-.165.231 0 .426.056.584.168.161.11.273.261.338.453h.036a.92.92 0 0 1 .382-.451c.18-.114.394-.17.642-.17.313 0 .57.098.768.296.199.197.298.485.298.864v2.279h-.807v-2.155c0-.211-.056-.365-.168-.462a.605.605 0 0 0-.413-.148c-.195 0-.346.06-.456.181a.668.668 0 0 0-.162.466v2.118h-.789v-2.188a.562.562 0 0 0-.159-.42.561.561 0 0 0-.414-.157.606.606 0 0 0-.541.334.75.75 0 0 0-.085.366v2.065h-.804zm9.673-3.282a.601.601 0 0 0-.262-.451c-.153-.108-.351-.162-.595-.162-.172 0-.319.026-.443.077a.659.659 0 0 0-.282.211.511.511 0 0 0-.1.302.46.46 0 0 0 .065.246.572.572 0 0 0 .18.176c.075.048.159.088.251.12.091.032.184.06.278.082l.426.106c.172.04.337.093.496.161.159.068.302.153.428.256.127.104.228.228.302.374.074.146.111.317.111.513 0 .265-.068.499-.204.701a1.35 1.35 0 0 1-.591.47c-.256.112-.567.168-.931.168-.354 0-.661-.054-.922-.163a1.363 1.363 0 0 1-.608-.478 1.41 1.41 0 0 1-.236-.764h.811a.686.686 0 0 0 .147.393.765.765 0 0 0 .335.234c.139.052.295.078.466.078.18 0 .337-.027.471-.08a.752.752 0 0 0 .32-.225.548.548 0 0 0 .118-.34.432.432 0 0 0-.105-.293.758.758 0 0 0-.286-.194 2.76 2.76 0 0 0-.426-.141l-.518-.133c-.375-.096-.671-.241-.889-.436-.216-.195-.324-.455-.324-.78 0-.267.073-.5.218-.701.146-.2.346-.355.598-.466.251-.112.536-.168.855-.168.323 0 .605.056.848.168.244.111.436.264.575.462.139.196.212.421.216.677h-.793zm3.042 3.348c-.34 0-.632-.074-.877-.223a1.492 1.492 0 0 1-.562-.617 2.033 2.033 0 0 1-.195-.91c0-.345.066-.649.2-.913.133-.265.321-.472.564-.619a1.63 1.63 0 0 1 .866-.223c.277 0 .522.05.735.152.215.1.386.243.513.427.128.182.2.396.218.641h-.768a.735.735 0 0 0-.223-.409.64.64 0 0 0-.464-.166.724.724 0 0 0-.433.133.841.841 0 0 0-.291.376 1.525 1.525 0 0 0-.102.588c0 .231.034.43.102.596a.873.873 0 0 0 .287.383c.124.088.27.132.437.132a.738.738 0 0 0 .318-.066.635.635 0 0 0 .237-.197.75.75 0 0 0 .132-.312h.768c-.019.241-.09.454-.213.64a1.268 1.268 0 0 1-.502.432 1.678 1.678 0 0 1-.747.155zm3.104.002c-.216 0-.411-.038-.584-.114a.952.952 0 0 1-.409-.345 1.008 1.008 0 0 1-.148-.562c0-.191.035-.35.106-.475a.831.831 0 0 1 .291-.301c.123-.075.261-.132.415-.17.156-.04.316-.068.482-.086.201-.021.363-.039.487-.055a.724.724 0 0 0 .271-.08.19.19 0 0 0 .086-.17v-.013c0-.167-.049-.296-.148-.387-.099-.091-.242-.137-.429-.137-.197 0-.353.043-.469.128a.642.642 0 0 0-.231.303l-.75-.106c.059-.207.157-.379.293-.517.136-.14.302-.245.5-.315.196-.07.414-.105.653-.105.164 0 .328.019.49.057.164.038.312.102.447.19a.953.953 0 0 1 .324.356c.083.15.125.338.125.564v2.272h-.773v-.466h-.027a.975.975 0 0 1-.538.462 1.35 1.35 0 0 1-.464.072zm.209-.588a.885.885 0 0 0 .42-.094.706.706 0 0 0 .273-.257.653.653 0 0 0 .098-.347v-.4a.383.383 0 0 1-.129.058 1.93 1.93 0 0 1-.2.046 5.896 5.896 0 0 1-.22.035l-.189.027c-.12.016-.227.042-.322.079a.538.538 0 0 0-.224.155.376.376 0 0 0-.082.252.38.38 0 0 0 .162.334.709.709 0 0 0 .413.112zm3.205-1.47v1.99h-.804v-3.395h.769v.577h.04a.973.973 0 0 1 .375-.453 1.16 1.16 0 0 1 .642-.168c.235 0 .44.049.615.15.177.1.313.245.409.435.098.19.146.421.144.692v2.162h-.804v-2.038c0-.227-.059-.404-.177-.533-.118-.128-.28-.192-.487-.192a.745.745 0 0 0-.375.093.649.649 0 0 0-.256.263.892.892 0 0 0-.091.417z" fill="#4E4B66"/><path d="M264.603 157.986h-32.719c-2.125 0-3.849 1.715-3.849 3.831v11.492c0 2.115 1.724 3.83 3.849 3.83h32.719c2.126 0 3.85-1.715 3.85-3.83v-11.492c0-2.116-1.724-3.831-3.85-3.831z" fill="#1578F7"/><path d="M242.77 166.327a.795.795 0 0 0-.36-.599c-.212-.143-.478-.215-.799-.215-.229 0-.428.036-.596.109a.925.925 0 0 0-.391.294.691.691 0 0 0-.136.422c0 .132.031.246.093.342a.822.822 0 0 0 .248.243c.104.063.215.117.334.16.118.042.232.076.341.104l.548.141c.178.043.361.102.549.177.188.074.362.172.522.293.16.122.29.272.388.452.1.18.15.395.15.645 0 .315-.081.596-.245.841a1.647 1.647 0 0 1-.709.579c-.308.141-.68.212-1.118.212-.419 0-.782-.066-1.088-.198a1.68 1.68 0 0 1-.719-.564 1.62 1.62 0 0 1-.287-.87h.848a.852.852 0 0 0 .197.503c.116.133.265.231.445.297.183.063.382.095.599.095.238 0 .451-.037.637-.112.188-.076.335-.181.443-.315a.749.749 0 0 0 .161-.476c0-.165-.047-.3-.142-.406a1.057 1.057 0 0 0-.38-.261 3.77 3.77 0 0 0-.539-.182l-.661-.18c-.449-.121-.804-.3-1.067-.536-.26-.235-.39-.547-.39-.936 0-.32.087-.601.262-.84.175-.239.412-.425.711-.558a2.448 2.448 0 0 1 1.012-.201c.379 0 .713.066 1.003.198.291.133.521.315.689.547.167.23.255.495.262.795h-.815zm3.058 4.2c-.266 0-.507-.049-.722-.147a1.215 1.215 0 0 1-.512-.432 1.245 1.245 0 0 1-.185-.694c0-.236.045-.43.136-.582.091-.152.214-.273.369-.362.155-.089.329-.156.52-.201.191-.046.386-.08.585-.104.251-.028.455-.052.612-.071a.898.898 0 0 0 .342-.094c.071-.044.107-.115.107-.213v-.019c0-.238-.068-.422-.202-.552-.134-.131-.332-.196-.597-.196-.275 0-.492.061-.65.182a.976.976 0 0 0-.326.4l-.768-.174c.091-.254.224-.459.399-.615.177-.157.38-.272.61-.343.23-.072.471-.108.724-.108.168 0 .346.02.533.059.19.039.367.109.531.213.166.103.301.251.407.443.106.191.159.438.159.743v2.775h-.799v-.571h-.032a1.165 1.165 0 0 1-.238.31 1.278 1.278 0 0 1-.408.253c-.165.067-.364.1-.595.1zm.177-.652c.226 0 .419-.045.58-.134a.94.94 0 0 0 .369-.348.897.897 0 0 0 .129-.466v-.538a.443.443 0 0 1-.17.082 2.761 2.761 0 0 1-.282.062l-.309.046-.251.033c-.159.02-.303.054-.435.101a.752.752 0 0 0-.312.204.51.51 0 0 0-.114.348.52.52 0 0 0 .224.457c.149.101.34.153.571.153zm6.426-3.619-1.523 4.179h-.875l-1.526-4.179h.878l1.063 3.216h.044l1.061-3.216h.878zm2.435 4.263c-.414 0-.771-.088-1.069-.264a1.788 1.788 0 0 1-.689-.748c-.161-.323-.241-.701-.241-1.134 0-.429.08-.806.241-1.132.162-.326.388-.581.678-.765a1.882 1.882 0 0 1 1.022-.274c.237 0 .467.039.689.116.222.078.422.201.599.368.177.167.316.384.418.65.102.265.153.587.153.966v.288h-3.338v-.609h2.537c0-.214-.044-.404-.131-.568a.983.983 0 0 0-.369-.395 1.038 1.038 0 0 0-.552-.145c-.23 0-.43.057-.602.169-.169.111-.3.256-.393.436-.092.177-.137.37-.137.579v.476c0 .28.049.517.147.713.101.196.24.346.419.449.178.102.387.152.626.152.155 0 .296-.022.424-.065a.886.886 0 0 0 .544-.531l.773.139a1.398 1.398 0 0 1-.333.596 1.61 1.61 0 0 1-.599.394 2.24 2.24 0 0 1-.817.139z" fill="#fff"/><g filter="url(#c)"><circle cx="117.5" cy="183.5" r="17.5" fill="#4493F9"/><mask id="d" style="mask-type:luminance" maskUnits="userSpaceOnUse" x="108" y="174" width="21" height="21"><path d="M108.448 174.448h20.517v20.517h-20.517v-20.517z" fill="#fff"/></mask><g mask="url(#d)" stroke="#fff" stroke-miterlimit="10" stroke-linecap="round" stroke-linejoin="round"><path d="M124.277 176.251h-13.624c-.886 0-1.603.717-1.603 1.602v2.405h16.83v-2.405c0-.885-.717-1.602-1.603-1.602zM112.416 177.453v-2.404M122.515 177.453v-2.404M119.148 177.453v-2.404M115.782 177.453v-2.404M118.747 182.961h1.002M115.181 182.961h1.001M122.313 182.961h1.002M111.614 185.666h1.002M115.181 185.666h1.001M118.747 185.666h1.002M111.614 188.371h1.002M115.181 188.371h1.001M128.365 189.955a4.408 4.408 0 1 1-8.816 0 4.408 4.408 0 0 1 8.816 0z"/><path d="M123.957 187.951v2.004h2.004M125.88 185.987v-5.73h-16.83v9.617c0 .664.538 1.202 1.202 1.202h9.441"/></g></g></g><defs><linearGradient id="b" x1="828.576" y1="-199.735" x2="250.122" y2="515.022" gradientUnits="userSpaceOnUse"><stop stop-color="#1863DC"/><stop offset="1" stop-color="#D1E0F8"/></linearGradient><clipPath id="a"><rect width="379" height="226" rx="8" fill="#fff"/></clipPath><filter id="c" x="94" y="151" width="55" height="55" filterUnits="userSpaceOnUse" color-interpolation-filters="sRGB"><feFlood flood-opacity="0" result="BackgroundImageFix"/><feColorMatrix in="SourceAlpha" values="0 0 0 0 0 0 0 0 0 0 0 0 0 0 0 0 0 0 127 0" result="hardAlpha"/><feOffset dx="4" dy="-5"/><feGaussianBlur stdDeviation="5"/><feComposite in2="hardAlpha" operator="out"/><feColorMatrix values="0 0 0 0 0.0584728 0 0 0 0 0.296412 0 0 0 0 0.575732 0 0 0 0.25 0"/><feBlend in2="BackgroundImageFix" result="effect1_dropShadow_7253_106856"/><feBlend in="SourceGraphic" in2="effect1_dropShadow_7253_106856" result="shape"/></filter></defs></svg>