<svg xmlns="http://www.w3.org/2000/svg" viewBox="0 0 20 20" style="enable-background:new 0 0 20 20" xml:space="preserve"><circle transform="rotate(-86.479 9.997 9.997) scale(.99999)" cx="10" cy="10" style="fill-rule:evenodd;clip-rule:evenodd;fill:#46b450" r="10"/><path d="M15.3 7.5c0-.2-.1-.3-.2-.5l-.9-.9c-.2-.1-.3-.1-.5-.1s-.3.1-.5.2l-4.5 4.5-2-2c0-.2-.2-.3-.4-.3s-.3.1-.5.2l-.9.9c-.1.2-.2.3-.2.5s.1.3.2.5l3.4 3.4c.1.1.3.1.5.1s.3-.1.5-.2L15.1 8c.1-.1.2-.3.2-.5z" style="fill-rule:evenodd;clip-rule:evenodd;fill:#fff"/></svg>