<svg width="65" height="65" viewBox="0 0 65 65" fill="none" xmlns="http://www.w3.org/2000/svg">
<g clip-path="url(#clip0_2339_45728)">
<path d="M21.125 27.625V39" stroke="#00E3C0" stroke-width="2" stroke-linecap="round" stroke-linejoin="round"/>
<path fill-rule="evenodd" clip-rule="evenodd" d="M21.5312 26.8125C24.44 26.8125 26.8125 24.4481 26.8125 21.5312C26.8125 18.6144 24.44 16.25 21.5312 16.25C18.6225 16.25 16.25 18.6144 16.25 21.5312C16.25 24.4481 18.6225 26.8125 21.5312 26.8125Z" stroke="#00E3C0" stroke-width="2" stroke-linecap="round" stroke-linejoin="round"/>
<path fill-rule="evenodd" clip-rule="evenodd" d="M21.125 48.75C23.8225 48.75 26 46.5676 26 43.875C26 41.1824 23.8225 39 21.125 39C18.4275 39 16.25 41.1824 16.25 43.875C16.25 46.5676 18.4275 48.75 21.125 48.75Z" stroke="#00E3C0" stroke-width="2" stroke-linecap="round" stroke-linejoin="round"/>
<path fill-rule="evenodd" clip-rule="evenodd" d="M43.875 48.75C46.5725 48.75 48.75 46.5676 48.75 43.875C48.75 41.1824 46.5725 39 43.875 39C41.1775 39 39 41.1824 39 43.875C39 46.5676 41.1775 48.75 43.875 48.75Z" stroke="#00E3C0" stroke-width="2" stroke-linecap="round" stroke-linejoin="round"/>
<path d="M21.3359 27.625C22.0672 30.4688 24.6681 32.5812 27.7385 32.565L33.3122 32.5488C37.5697 32.5325 41.1935 35.2625 42.526 39.065" stroke="#00E3C0" stroke-width="2" stroke-linecap="round" stroke-linejoin="round"/>
<path d="M32.5 1.4625C41.795 1.4625 49.6112 4.37125 55.12 9.88C60.6287 15.3888 63.5375 23.205 63.5375 32.5C63.5375 41.795 60.6287 49.6112 55.12 55.12C49.6112 60.6287 41.795 63.5375 32.5 63.5375C23.205 63.5375 15.3888 60.6287 9.88 55.12C4.37125 49.6112 1.4625 41.795 1.4625 32.5C1.4625 23.205 4.37125 15.3888 9.88 9.88C15.3888 4.37125 23.205 1.4625 32.5 1.4625ZM32.5 0C12.7563 0 0 12.7563 0 32.5C0 52.2437 12.7563 65 32.5 65C52.2437 65 65 52.2437 65 32.5C65 12.7563 52.2437 0 32.5 0Z" fill="#00E3C0"/>
</g>
<defs>
<clipPath id="clip0_2339_45728">
<rect width="65" height="65" fill="white"/>
</clipPath>
</defs>
</svg>
