<?xml version="1.0" encoding="UTF-8"?> <svg xmlns="http://www.w3.org/2000/svg" width="80" height="80" viewBox="0 0 80 80" fill="none"><path d="M40 21V26.11C40 26.76 40.6 27.21 41.23 27.08C41.85 26.95 42.53 26.97 43.24 27.2C44.59 27.64 45.64 28.79 45.92 30.18C46.43 32.75 44.48 35 42 35C41.71 35 41.44 34.97 41.17 34.91C40.57 34.77 40 35.27 40 35.89V41H45.11C45.76 41 46.21 41.6 46.08 42.24C45.95 42.86 45.97 43.54 46.2 44.24C46.63 45.59 47.79 46.65 49.18 46.92C51.75 47.43 54 45.48 54 43C54 42.71 53.97 42.44 53.91 42.17C53.77 41.57 54.27 41 54.89 41H60" stroke="#00E3C0" stroke-width="1.8" stroke-linecap="round" stroke-linejoin="round"></path><path d="M60 41V35C60 25 56 21 46 21H40" stroke="#00E3C0" stroke-width="1.8" stroke-linecap="round" stroke-linejoin="round"></path><path d="M60 41H54.89C54.24 41 53.79 41.6 53.92 42.24C54.05 42.86 54.03 43.54 53.8 44.24C53.37 45.59 52.21 46.65 50.82 46.92C48.25 47.43 46 45.48 46 43C46 42.71 46.03 42.44 46.09 42.17C46.23 41.57 45.73 41 45.11 41H40V46.11C40 46.76 39.4 47.21 38.76 47.08C38.14 46.95 37.46 46.97 36.76 47.2C35.41 47.63 34.35 48.79 34.08 50.18C33.57 52.75 35.52 55 38 55C38.29 55 38.56 54.97 38.83 54.91C39.43 54.77 40 55.27 40 55.89V61" stroke="#00E3C0" stroke-width="1.8" stroke-linecap="round" stroke-linejoin="round"></path><path d="M60 45V47C60 57 56 61 46 61H44" stroke="#00E3C0" stroke-width="1.8" stroke-linecap="round" stroke-linejoin="round"></path><path d="M40 61.0001V55.8901C40 55.2401 39.4 54.7901 38.76 54.9201C38.14 55.0501 37.46 55.0301 36.76 54.8001C35.41 54.3701 34.35 53.2101 34.08 51.8201C33.57 49.2501 35.52 47.0001 38 47.0001C38.29 47.0001 38.56 47.0301 38.83 47.0901C39.43 47.2301 40 46.7301 40 46.1101V41.0001H34.89C34.24 41.0001 33.79 40.4001 33.92 39.7601C34.05 39.1401 34.03 38.4601 33.8 37.7601C33.37 36.4101 32.21 35.3501 30.82 35.0801C28.25 34.5701 26 36.5201 26 39.0001C26 39.2901 26.03 39.5601 26.09 39.8301C26.23 40.4301 25.73 41.0001 25.11 41.0001H20" stroke="#00E3C0" stroke-width="1.8" stroke-linecap="round" stroke-linejoin="round"></path><path d="M20 41V47C20 57 24 61 34 61H40" stroke="#00E3C0" stroke-width="1.8" stroke-linecap="round" stroke-linejoin="round"></path><path d="M20 41H25.11C25.76 41 26.21 40.4 26.08 39.76C25.95 39.14 25.97 38.46 26.2 37.76C26.63 36.41 27.79 35.35 29.18 35.08C31.75 34.57 34 36.52 34 39C34 39.29 33.97 39.56 33.91 39.83C33.77 40.43 34.27 41 34.89 41H40V35.89C40 35.24 40.6 34.79 41.23 34.92C41.85 35.05 42.53 35.03 43.24 34.8C44.59 34.36 45.64 33.2 45.92 31.81C46.43 29.25 44.48 27 42 27C41.71 27 41.44 27.03 41.17 27.09C40.57 27.23 40 26.73 40 26.11V21" stroke="#00E3C0" stroke-width="1.8" stroke-linecap="round" stroke-linejoin="round"></path><path d="M36 21H34C24 21 20 25 20 35V37" stroke="#00E3C0" stroke-width="1.8" stroke-linecap="round" stroke-linejoin="round"></path><path d="M40 1.8C51.44 1.8 61.06 5.38 67.84 12.16C74.62 18.94 78.2 28.56 78.2 40C78.2 51.44 74.62 61.06 67.84 67.84C61.06 74.62 51.44 78.2 40 78.2C28.56 78.2 18.94 74.62 12.16 67.84C5.38 61.06 1.8 51.44 1.8 40C1.8 28.56 5.38 18.94 12.16 12.16C18.94 5.38 28.56 1.8 40 1.8ZM40 0C15.7 0 0 15.7 0 40C0 64.3 15.7 80 40 80C64.3 80 80 64.3 80 40C80 15.7 64.3 0 40 0Z" fill="#00E3C0"></path></svg> 