<svg width="65" height="65" viewBox="0 0 65 65" fill="none" xmlns="http://www.w3.org/2000/svg">
<g clip-path="url(#clip0_2339_45695)">
<path fill-rule="evenodd" clip-rule="evenodd" d="M49.5625 42.25C49.5625 43.4688 49.2212 44.6226 48.62 45.5976C48.2787 46.1826 47.84 46.7025 47.3363 47.125C46.1988 48.1487 44.7037 48.75 43.0625 48.75C41.08 48.75 39.3087 47.8562 38.1387 46.4587C38.1062 46.4099 38.0575 46.3775 38.025 46.3288C37.83 46.1013 37.6513 45.8576 37.505 45.5976C36.9038 44.6226 36.5625 43.4688 36.5625 42.25C36.5625 40.2025 37.505 38.3663 39 37.18C40.1212 36.2863 41.535 35.75 43.0625 35.75C44.6875 35.75 46.15 36.335 47.2875 37.3262C47.4825 37.4725 47.6612 37.6513 47.8237 37.83C48.8962 39 49.5625 40.5438 49.5625 42.25Z" stroke="#00E3C0" stroke-width="2" stroke-linecap="round" stroke-linejoin="round"/>
<path d="M45.4836 42.2168H40.6411" stroke="#00E3C0" stroke-width="2" stroke-linecap="round" stroke-linejoin="round"/>
<path d="M43.0625 39.8457V44.7044" stroke="#00E3C0" stroke-width="2" stroke-linecap="round" stroke-linejoin="round"/>
<path d="M17.3386 25.0898L31.6873 33.3936L45.9386 25.1386" stroke="#00E3C0" stroke-width="2" stroke-linecap="round" stroke-linejoin="round"/>
<path d="M31.6875 48.1156V33.377" stroke="#00E3C0" stroke-width="2" stroke-linecap="round" stroke-linejoin="round"/>
<path fill-rule="evenodd" clip-rule="evenodd" d="M47.3038 27.9012V37.0987C47.3038 37.18 47.3038 37.245 47.2876 37.3262C46.1501 36.335 44.6876 35.7498 43.0626 35.7498C41.5351 35.7498 40.1214 36.2861 39.0001 37.1798C37.5051 38.3661 36.5626 40.2023 36.5626 42.2498C36.5626 43.4686 36.9038 44.6224 37.505 45.5974C37.6513 45.8574 37.8301 46.1011 38.0251 46.3286L35.0514 47.9699C33.1989 49.0099 30.1764 49.0099 28.3239 47.9699L19.6463 43.1599C17.6801 42.0712 16.0713 39.3412 16.0713 37.0987V27.9012C16.0713 25.6587 17.6801 22.9287 19.6463 21.8399L28.3239 17.03C30.1764 15.99 33.1989 15.99 35.0514 17.03L43.7288 21.8399C45.6951 22.9287 47.3038 25.6587 47.3038 27.9012Z" stroke="#00E3C0" stroke-width="2" stroke-linecap="round" stroke-linejoin="round"/>
<path d="M32.5 1.4625C41.795 1.4625 49.6112 4.37125 55.12 9.88C60.6287 15.3888 63.5375 23.205 63.5375 32.5C63.5375 41.795 60.6287 49.6112 55.12 55.12C49.6112 60.6287 41.795 63.5375 32.5 63.5375C23.205 63.5375 15.3888 60.6287 9.88 55.12C4.37125 49.6112 1.4625 41.795 1.4625 32.5C1.4625 23.205 4.37125 15.3888 9.88 9.88C15.3888 4.37125 23.205 1.4625 32.5 1.4625ZM32.5 0C12.7563 0 0 12.7563 0 32.5C0 52.2437 12.7563 65 32.5 65C52.2437 65 65 52.2437 65 32.5C65 12.7563 52.2437 0 32.5 0Z" fill="#00E3C0"/>
</g>
<defs>
<clipPath id="clip0_2339_45695">
<rect width="65" height="65" fill="white"/>
</clipPath>
</defs>
</svg>
