<?xml version="1.0" encoding="utf-8"?>
<!-- Generator: Adobe Illustrator 26.0.2, SVG Export Plug-In . SVG Version: 6.00 Build 0)  -->
<svg version="1.1" xmlns="http://www.w3.org/2000/svg" xmlns:xlink="http://www.w3.org/1999/xlink" x="0px" y="0px"
	 viewBox="0 0 711.45 226.77" style="enable-background:new 0 0 711.45 226.77;" xml:space="preserve">
<style type="text/css">
	.st0{display:none;}
	.st1{display:inline;opacity:0.1;}
	.st2{fill:none;}
	.st3{fill:#002333;}
</style>
<g id="tlo" class="st0">
	<rect x="-8163.43" y="-2550.35" class="st1" width="16510" height="16490"/>
</g>
<g id="Warstwa_1">
	<g>
		<rect y="0" class="st2" width="711.45" height="226.77"/>
		<g>
			<g>
				<path class="st3" d="M171.97,124.49c-6.12,0-11.1-4.98-11.1-11.1c0-6.12,4.98-11.1,11.1-11.1s11.1,4.98,11.1,11.1
					C183.07,119.51,178.09,124.49,171.97,124.49z M171.97,105.59c-4.3,0-7.8,3.5-7.8,7.8c0,4.3,3.5,7.8,7.8,7.8
					c4.3,0,7.8-3.5,7.8-7.8C179.77,109.09,176.27,105.59,171.97,105.59z"/>
			</g>
			<g>
				<path class="st3" d="M105.83,122.6c-33.68,0-50.78-1.42-50.78-9.21c0-7.78,17.1-9.21,50.78-9.21c2.07,0,50.79,0.1,50.79,9.21
					C156.61,122.49,107.9,122.6,105.83,122.6z M105.83,107.48c-14.21,0-47.48,0-47.48,5.91c0,5.91,33.27,5.91,47.48,5.91
					c28.01,0,45.53-3.44,47.42-5.91C151.36,110.92,133.84,107.48,105.83,107.48z"/>
			</g>
			<g>
				<path class="st3" d="M75.59,154.72c-1.51,0-2.72-0.35-3.61-1.05c-0.96-0.75-1.49-1.88-1.49-3.19c0-8.12,19.16-23.02,50.45-23.02
					c20.56,0,32.06,5.3,41.5,10.73c0.03,0,0.05,0,0.08,0c32.18,0,62.6-12.06,62.6-24.81c0-12.75-30.42-24.81-62.6-24.81
					c-0.02,0-0.05,0-0.08,0c-9.43,5.43-20.94,10.73-41.5,10.73c-31.3,0-50.45-14.91-50.45-23.02c0-1.31,0.53-2.44,1.49-3.19
					c0.89-0.7,2.1-1.05,3.61-1.05c2.39,0,6.72,1.09,13.28,2.74c15.42,3.88,41.12,10.36,72.69,10.49c1.1-0.64,2.18-1.29,3.24-1.92
					c8.11-4.84,15.76-9.42,27.96-9.42c19.67,0,35.67,17.7,35.67,39.45c0,21.75-16,39.45-35.67,39.45c-12.2,0-19.85-4.57-27.96-9.42
					c-1.06-0.63-2.14-1.28-3.24-1.92c-31.56,0.13-57.27,6.6-72.69,10.49C82.32,153.63,77.99,154.72,75.59,154.72z M120.95,130.76
					c-30.94,0-47.15,14.65-47.15,19.72c0,0.42,0.15,0.53,0.22,0.59c0.13,0.1,0.55,0.35,1.58,0.35c1.98,0,6.61-1.17,12.47-2.64
					c14.61-3.68,38.35-9.66,67.62-10.49C147.47,134.18,137.11,130.76,120.95,130.76z M167.84,141.38
					c7.49,4.45,14.27,8.15,24.92,8.15c14.72,0,27.17-11.03,31.09-26.07C214.16,133.65,190.63,140.45,167.84,141.38z M167.84,85.39
					c22.8,0.93,46.33,7.73,56.01,17.92c-3.91-15.04-16.37-26.07-31.09-26.07C182.11,77.24,175.32,80.94,167.84,85.39z M75.59,75.35
					c-1.02,0-1.44,0.24-1.58,0.35c-0.08,0.06-0.22,0.17-0.22,0.59c0,5.07,16.21,19.72,47.15,19.72c16.16,0,26.53-3.42,34.74-7.53
					c-29.27-0.83-53.02-6.81-67.62-10.49C82.21,76.52,77.58,75.35,75.59,75.35z"/>
			</g>
		</g>
		<g>
			<g>
				<path class="st3" d="M293.82,142.88c-5.63,0-10.73-1.27-15.17-3.76c-4.43-2.49-7.93-6.03-10.38-10.5
					c-2.46-4.47-3.7-9.6-3.7-15.23c0-5.63,1.25-10.75,3.7-15.23c2.45-4.47,5.95-8.01,10.38-10.5c4.44-2.5,9.54-3.76,15.17-3.76
					s10.71,1.27,15.1,3.76c4.39,2.49,7.86,6.02,10.32,10.5c2.46,4.48,3.7,9.6,3.7,15.23c0,5.7-1.25,10.85-3.7,15.29
					c-2.45,4.43-5.91,7.95-10.26,10.44C304.63,141.61,299.52,142.88,293.82,142.88z M293.82,88.95c-5.56,0-9.99,2.17-13.17,6.44
					c-3.17,4.26-4.78,10.32-4.78,18c0,7.69,1.61,13.76,4.78,18.06c3.18,4.31,7.61,6.5,13.17,6.5c5.56,0,9.97-2.19,13.12-6.5
					c3.13-4.29,4.72-10.37,4.72-18.06c0-7.61-1.59-13.64-4.72-17.94C303.79,91.14,299.38,88.95,293.82,88.95z"/>
			</g>
			<g>
				<path class="st3" d="M356.29,142.88c-5.54,0-10.44-1.3-14.56-3.88c-4.12-2.57-7.31-6.14-9.48-10.62
					c-2.18-4.47-3.28-9.51-3.28-15c0-5.63,1.2-10.73,3.58-15.17c2.38-4.43,5.65-7.95,9.72-10.44c4.07-2.49,8.67-3.76,13.66-3.76
					c3.72,0,7.35,0.74,10.8,2.21c3.44,1.46,6.25,3.53,8.34,6.13c2.09,2.6,3.14,5.55,3.14,8.78c0,1.32-0.35,2.43-1.04,3.31
					c-0.69,0.88-1.67,1.31-2.98,1.31c-1.47,0-2.64-0.43-3.48-1.27c-0.86-0.86-1.58-2.09-2.12-3.66c-0.23-3.42-1.42-6.3-3.52-8.53
					c-2.11-2.23-5.34-3.36-9.62-3.36c-2.83,0-5.49,0.86-7.91,2.55c-2.41,1.69-4.39,4.14-5.89,7.28c-1.48,3.13-2.24,6.83-2.24,11.01
					c0,7.45,1.73,13.71,5.14,18.6c3.42,4.91,8.34,7.4,14.62,7.4c3.7,0,7.06-0.84,9.99-2.48c2.93-1.64,5.47-3.82,7.56-6.47
					c0.54-0.84,1.09-1.25,1.67-1.25c0.73,0,1.21,0.26,1.46,0.8c0.26,0.56,0.32,1.19,0.17,1.87c-1.97,4.32-4.98,7.89-8.94,10.58
					C367.13,141.51,362.15,142.88,356.29,142.88z"/>
			</g>
			<g>
				<path class="st3" d="M405.94,142.76c-5.21,0-9.33-1.52-12.24-4.51c-2.92-2.99-4.4-7.76-4.4-14.17V92.61
					c0-0.93-0.25-1.59-0.73-1.94c-0.48-0.34-1.14-0.51-1.97-0.51h-1.68c-0.67,0-1.18-0.21-1.55-0.66c-0.38-0.45-0.56-0.92-0.56-1.45
					c0-0.92,0.43-2.04,1.29-3.32c0.88-1.32,2.29-3.19,4.2-5.57c2.22-2.77,4.13-4.97,5.69-6.53c1.52-1.52,2.83-2.29,3.9-2.29
					c0.74,0,1.24,0.23,1.53,0.7c0.3,0.49,0.45,1.25,0.45,2.25v7.69c0,1.89,0.08,3.03,0.25,3.48c0.19,0.51,0.68,0.78,1.49,0.78h16.69
					c0.75,0,1.28,0.13,1.57,0.38c0.28,0.24,0.42,0.79,0.42,1.61c0,0.91-0.29,1.63-0.85,2.15c-0.56,0.53-1.31,0.79-2.22,0.79h-14.77
					c-1.95,0-2.94,0.87-2.94,2.58v29.67c0,4.34,0.92,7.65,2.74,9.84c1.83,2.19,4.4,3.31,7.64,3.31c1.94,0,3.99-0.59,6.09-1.76
					c2.1-1.17,3.9-2.95,5.35-5.29c0.52-0.74,1.07-1.12,1.65-1.12c0.58,0,1,0.25,1.29,0.75c0.3,0.52,0.33,1.06,0.11,1.65
					C421.07,138.39,414.87,142.76,405.94,142.76z"/>
			</g>
			<g>
				<path class="st3" d="M453.76,142.88c-5.63,0-10.73-1.27-15.17-3.76c-4.43-2.49-7.93-6.03-10.38-10.5
					c-2.46-4.47-3.7-9.6-3.7-15.23c0-5.63,1.25-10.75,3.7-15.23c2.46-4.47,5.95-8.01,10.38-10.5c4.43-2.5,9.54-3.76,15.17-3.76
					c5.63,0,10.71,1.27,15.1,3.76c4.4,2.49,7.87,6.03,10.32,10.5c2.46,4.48,3.7,9.61,3.7,15.23c0,5.7-1.25,10.84-3.7,15.29
					c-2.45,4.43-5.9,7.95-10.26,10.44C464.56,141.61,459.46,142.88,453.76,142.88z M453.76,88.95c-5.56,0-9.99,2.17-13.17,6.44
					c-3.17,4.25-4.78,10.31-4.78,18c0,7.69,1.61,13.77,4.78,18.06c3.18,4.31,7.61,6.5,13.17,6.5c5.56,0,9.97-2.19,13.11-6.5
					c3.13-4.29,4.72-10.37,4.72-18.06c0-7.61-1.59-13.64-4.72-17.94C463.72,91.14,459.31,88.95,453.76,88.95z"/>
			</g>
			<g>
				<path class="st3" d="M491.59,142.03c-2.76,0-4.68-0.22-5.69-0.65c-0.98-0.41-1.45-1.01-1.45-1.82c0-1.12,0.63-1.85,1.91-2.23
					c2.24-0.32,3.86-0.81,4.79-1.47c0.96-0.66,1.56-1.57,1.81-2.69c0.24-1.1,0.37-2.87,0.37-5.26V69.43c0-1.65-0.2-2.8-0.63-3.51
					c-0.43-0.73-1.37-1.14-2.78-1.23c0,0-0.01,0-0.01,0c-0.81,0-1.58,0.04-2.3,0.12c-0.71,0.08-1.35,0.12-1.9,0.12
					c-0.77,0-1.33-0.09-1.66-0.28c-0.3-0.16-0.45-0.54-0.45-1.11c0-0.67,0.27-1.19,0.83-1.6c0.59-0.43,1.44-0.85,2.54-1.24
					c2.39-0.72,3.87-1.16,4.43-1.32c1.84-0.56,3.6-1.08,5.28-1.56c1.66-0.47,2.93-0.71,3.79-0.71c1.07,0,1.86,0.23,2.34,0.67
					c0.48,0.44,0.72,1.25,0.72,2.39v67.74c0,2.41,0.12,4.16,0.37,5.2c0.25,1.08,0.88,1.97,1.88,2.63c0.97,0.65,2.61,1.19,4.87,1.59
					c1.35,0.38,2.02,1.11,2.02,2.23c0,0.81-0.42,1.41-1.28,1.82c-0.89,0.43-2.74,0.64-5.51,0.64l-7.08-0.12L491.59,142.03z"/>
			</g>
			<g>
				<path class="st3" d="M523.67,142.03c-2.68,0-4.56-0.22-5.57-0.65c-0.98-0.41-1.45-1.01-1.45-1.82c0-1.12,0.59-1.85,1.8-2.23
					c2.23-0.32,3.88-0.81,4.85-1.46c0.99-0.66,1.61-1.55,1.82-2.64c0.2-1.05,0.3-2.83,0.3-5.32V96.81c0-1.73-0.19-2.91-0.56-3.63
					c-0.39-0.74-1.31-1.11-2.73-1.11l-4.21,0.12c-0.84,0-1.44-0.09-1.77-0.28c-0.3-0.17-0.45-0.49-0.45-0.99
					c0-0.67,0.27-1.19,0.83-1.6c0.59-0.43,1.44-0.85,2.54-1.24l4.91-1.44c4.29-1.43,7.18-2.15,8.6-2.15c1.15,0,1.98,0.23,2.46,0.67
					c0.48,0.44,0.72,1.25,0.72,2.39v40.35c0,2.45,0.12,4.15,0.37,5.2c0.25,1.08,0.88,1.97,1.87,2.63c0.98,0.65,2.62,1.19,4.87,1.59
					c1.35,0.38,2.01,1.11,2.01,2.23c0,0.82-0.42,1.41-1.28,1.82c-0.9,0.43-2.75,0.64-5.51,0.64l-7.2-0.12L523.67,142.03z
					 M528.48,74.42c-2.35,0-4.25-0.57-5.66-1.7c-1.39-1.12-2.1-2.59-2.1-4.37c0-1.77,0.7-3.2,2.09-4.24
					c1.41-1.05,3.31-1.59,5.66-1.59c2.27,0,4.11,0.53,5.48,1.58c1.35,1.04,2.03,2.47,2.03,4.24c0,1.78-0.69,3.25-2.04,4.37
					C532.59,73.85,530.75,74.42,528.48,74.42z"/>
			</g>
			<g>
				<path class="st3" d="M592.77,142.63c-0.71,0-1.67-0.12-2.85-0.36c-0.4-0.08-1.55-0.22-3.44-0.42c-1.88-0.2-4.04-0.3-6.45-0.3
					h-27.62c-2.07,0-3.07-0.65-3.07-1.98c0-0.84,0.43-1.89,1.29-3.14l33.86-43.95c0.27-0.44,0.4-0.79,0.4-1.07
					c0-0.38-0.16-1.02-1.26-1.02h-20.42c-1.31,0-2.33,0.21-3.03,0.62c-0.73,0.43-1.36,1.36-1.94,2.85
					c-0.56,1.44-1.25,3.87-2.05,7.23c-0.46,1.07-0.91,1.84-1.33,2.26c-0.4,0.4-1.03,0.61-1.86,0.61c-0.67,0-1.14-0.17-1.42-0.53
					c-0.29-0.36-0.44-1.18-0.44-2.41c0-1.68,0.28-4.09,0.84-7.17c0.63-3.15,1.13-5.39,1.5-6.65c0.35-1.21,0.72-2.01,1.1-2.39
					c0.36-0.36,0.97-0.55,1.8-0.55c0.63,0,1.95,0.16,4.06,0.48c2.07,0.32,5.07,0.48,8.92,0.48h27.26c0.83,0,1.48,0.21,1.92,0.61
					c0.44,0.4,0.66,0.82,0.66,1.25c0,0.68-0.47,1.65-1.41,2.9l-33.75,44.32c-0.35,0.52-0.52,0.91-0.52,1.19
					c0,0.46,0.26,1.02,1.5,1.02h20.78c1.65,0,2.82-0.25,3.58-0.75c0.76-0.51,1.39-1.54,1.93-3.15c0.53-1.58,1.28-4.39,2.22-8.36
					c0.38-0.99,0.83-1.71,1.33-2.13c0.48-0.41,1.11-0.62,1.87-0.62c0.51,0,0.91,0.19,1.24,0.6c0.33,0.41,0.5,1.28,0.5,2.59
					c0,1.9-0.32,4.48-0.96,7.65c-0.64,2.71-1.2,4.91-1.68,6.59c-0.58,2.04-1.05,2.82-1.33,3.11
					C594.1,142.43,593.52,142.63,592.77,142.63z"/>
			</g>
			<g>
				<path class="st3" d="M630.64,142.76c-5.62,0-10.54-1.36-14.62-4.05c-4.07-2.69-7.21-6.4-9.3-11.03
					c-2.1-4.64-3.17-9.89-3.17-15.6c0-5.39,1.3-10.26,3.88-14.5c2.57-4.24,6.03-7.59,10.26-9.97c4.23-2.38,8.83-3.58,13.66-3.58
					c4.43,0,8.38,0.94,11.74,2.8c3.36,1.86,6,4.34,7.86,7.38c1.86,3.04,2.8,6.3,2.8,9.7c0,3.54-0.71,6.09-2.11,7.56
					c-1.4,1.48-3.86,2.23-7.32,2.23l-27.27,0.24c-0.9,0-1.97,0.41-1.97,2.34c0,2.9,0.71,5.89,2.11,8.9
					c1.41,3.02,3.53,5.54,6.31,7.52c2.78,1.97,6.14,2.98,10.01,2.98c3.93,0,7.46-0.86,10.47-2.54c3.01-1.68,5.51-3.88,7.44-6.54
					c0.23-0.31,0.49-0.58,0.75-0.81c0.25-0.21,0.5-0.32,0.78-0.32c0.73,0,1.23,0.3,1.52,0.92c0.3,0.64,0.34,1.25,0.12,1.84
					c-1.97,4.18-5.05,7.69-9.12,10.42C641.41,141.37,636.42,142.76,630.64,142.76z M630.04,89.31c-3.95,0-7.49,1.53-10.51,4.56
					c-3.02,3.02-4.87,7.23-5.52,12.53c-0.08,0.94,0.13,1.69,0.65,2.24c0.51,0.56,1.25,0.84,2.17,0.84l22.58-0.12
					c1.91,0,3.15-0.31,3.79-0.95c0.64-0.64,0.95-1.96,0.95-4.03c0-4.19-1.27-7.78-3.76-10.68
					C637.87,90.79,634.39,89.31,630.04,89.31z"/>
			</g>
		</g>
	</g>
</g>
</svg>
