<?xml version="1.0" encoding="UTF-8"?> <svg xmlns="http://www.w3.org/2000/svg" width="128" height="128" viewBox="0 0 128 128" fill="none"><path d="M109.6 128H18.4C8.2 128 0 119.8 0 109.6V18.4C0 8.2 8.2 0 18.4 0H109.5C119.8 0 128 8.2 128 18.4V109.5C128 119.8 119.8 128 109.6 128Z" fill="#002333"></path><path d="M109.6 0H18.4C8.2 0 0 8.2 0 18.4V79C18.9 86.9 40.8 91.4 64.2 91.4C87.4 91.4 109.2 87 128 79.2V18.4C128 8.2 119.8 0 109.6 0Z" fill="url(#paint0_linear_918_28787)"></path><path d="M109.6 4C117.6 4 124 10.5 124 18.4V109.5C124 117.5 117.5 123.9 109.6 123.9H18.4C10.4 123.9 4 117.4 4 109.5V18.4C4 10.5 10.5 4 18.4 4H109.6ZM109.6 0H18.4C8.2 0 0 8.2 0 18.4V109.5C0 119.8 8.2 128 18.4 128H109.5C119.7 128 127.9 119.8 127.9 109.6V18.4C128 8.2 119.8 0 109.6 0Z" fill="#002333"></path><path d="M50.0895 53.2502C51.5623 50.2402 54.5615 48.9502 59.485 48.9502H68.515C76.04 48.9502 79.05 51.9602 79.05 59.4852V68.5152C79.05 73.4494 77.76 76.4379 74.75 77.9107" stroke="#00E3C0" stroke-width="1.8" stroke-linecap="round" stroke-linejoin="round"></path><path d="M58.6895 44.6501C60.1622 41.6401 63.1615 40.3501 68.085 40.3501H77.115C84.64 40.3501 87.65 43.3601 87.65 50.8851V59.9151C87.65 64.8493 86.36 67.8378 83.35 69.3106" stroke="#00E3C0" stroke-width="1.8" stroke-linecap="round" stroke-linejoin="round"></path><path d="M40.35 77.1153V68.0853C40.35 60.5603 43.36 57.5503 50.885 57.5503H59.915C67.44 57.5503 70.45 60.5603 70.45 68.0853V77.1153C70.45 84.6403 67.44 87.6503 59.915 87.6503H50.885C43.36 87.6503 40.35 84.6403 40.35 77.1153Z" stroke="#00E3C0" stroke-width="1.8" stroke-linecap="round" stroke-linejoin="round"></path><defs><linearGradient id="paint0_linear_918_28787" x1="64" y1="128" x2="64" y2="0.000274657" gradientUnits="userSpaceOnUse"><stop stop-color="#004A52"></stop><stop offset="1" stop-color="#002333"></stop></linearGradient></defs></svg> 