<?xml version="1.0" encoding="UTF-8"?> <svg xmlns="http://www.w3.org/2000/svg" width="128" height="128" viewBox="0 0 128 128" fill="none"><path d="M109.6 128H18.4C8.2 128 0 119.8 0 109.6V18.4C0 8.2 8.2 0 18.4 0H109.5C119.8 0 128 8.2 128 18.4V109.5C128 119.8 119.8 128 109.6 128Z" fill="#002333"></path><path d="M109.6 0H18.4C8.2 0 0 8.2 0 18.4V79C18.9 86.9 40.8 91.4 64.2 91.4C87.4 91.4 109.2 87 128 79.2V18.4C128 8.2 119.8 0 109.6 0Z" fill="url(#paint0_linear_892_28074)"></path><path d="M109.6 4C117.6 4 124 10.5 124 18.4V109.5C124 117.5 117.5 123.9 109.6 123.9H18.4C10.4 123.9 4 117.4 4 109.5V18.4C4 10.5 10.5 4 18.4 4H109.6ZM109.6 0H18.4C8.2 0 0 8.2 0 18.4V109.5C0 119.8 8.2 128 18.4 128H109.5C119.7 128 127.9 119.8 127.9 109.6V18.4C128 8.2 119.8 0 109.6 0Z" fill="#002333"></path><path fill-rule="evenodd" clip-rule="evenodd" d="M86.575 76.8998C86.575 78.5123 86.1235 80.0389 85.328 81.3289C84.8765 82.1029 84.296 82.7908 83.6295 83.3498C82.1245 84.7043 80.1465 85.4998 77.975 85.4998C75.352 85.4998 73.0084 84.3172 71.4604 82.4682C71.4174 82.4037 71.3531 82.3608 71.3101 82.2963C71.0521 81.9953 70.8155 81.6729 70.622 81.3289C69.8265 80.0389 69.375 78.5123 69.375 76.8998C69.375 74.1908 70.622 71.7613 72.6 70.1918C74.0835 69.0093 75.954 68.2998 77.975 68.2998C80.125 68.2998 82.0599 69.0737 83.5649 70.3852C83.8229 70.5787 84.0595 70.8154 84.2745 71.0519C85.6935 72.5999 86.575 74.6423 86.575 76.8998Z" stroke="#00E3C0" stroke-width="2" stroke-linecap="round" stroke-linejoin="round"></path><path d="M81.1785 76.8569H74.7715" stroke="#00E3C0" stroke-width="2" stroke-linecap="round" stroke-linejoin="round"></path><path d="M77.975 73.7183V80.1467" stroke="#00E3C0" stroke-width="2" stroke-linecap="round" stroke-linejoin="round"></path><path d="M43.9403 54.1958L62.9247 65.1823L81.7803 54.2604" stroke="#00E3C0" stroke-width="2" stroke-linecap="round" stroke-linejoin="round"></path><path d="M62.925 84.6615V65.1611" stroke="#00E3C0" stroke-width="2" stroke-linecap="round" stroke-linejoin="round"></path><path fill-rule="evenodd" clip-rule="evenodd" d="M83.5867 57.9154V70.0844C83.5867 70.1919 83.5867 70.278 83.5652 70.3855C82.0602 69.074 80.1253 68.2998 77.9753 68.2998C75.9543 68.2998 74.0838 69.0093 72.6003 70.1918C70.6223 71.7613 69.3753 74.1908 69.3753 76.8998C69.3753 78.5123 69.8267 80.0389 70.6222 81.3289C70.8157 81.6729 71.0522 81.9953 71.3102 82.2963L67.3758 84.4678C64.9248 85.8438 60.9257 85.8438 58.4747 84.4678L46.9937 78.1039C44.3922 76.6634 42.2637 73.0514 42.2637 70.0844V57.9154C42.2637 54.9484 44.3922 51.3364 46.9937 49.8959L58.4747 43.532C60.9257 42.156 64.9248 42.156 67.3758 43.532L78.8567 49.8959C81.4582 51.3364 83.5867 54.9484 83.5867 57.9154Z" stroke="#00E3C0" stroke-width="2" stroke-linecap="round" stroke-linejoin="round"></path><defs><linearGradient id="paint0_linear_892_28074" x1="64" y1="128" x2="64" y2="0.000274657" gradientUnits="userSpaceOnUse"><stop stop-color="#004A52"></stop><stop offset="1" stop-color="#002333"></stop></linearGradient></defs></svg> 