<?xml version="1.0" encoding="UTF-8"?> <svg xmlns="http://www.w3.org/2000/svg" width="128" height="128" viewBox="0 0 128 128" fill="none"><path d="M109.6 128H18.4C8.2 128 0 119.8 0 109.6V18.4C0 8.2 8.2 0 18.4 0H109.5C119.8 0 128 8.2 128 18.4V109.5C128 119.8 119.8 128 109.6 128Z" fill="#002333"></path><path d="M109.6 0H18.4C8.2 0 0 8.2 0 18.4V79C18.9 86.9 40.8 91.4 64.2 91.4C87.4 91.4 109.2 87 128 79.2V18.4C128 8.2 119.8 0 109.6 0Z" fill="url(#paint0_linear_892_27984)"></path><path d="M109.6 4C117.6 4 124 10.5 124 18.4V109.5C124 117.5 117.5 123.9 109.6 123.9H18.4C10.4 123.9 4 117.4 4 109.5V18.4C4 10.5 10.5 4 18.4 4H109.6ZM109.6 0H18.4C8.2 0 0 8.2 0 18.4V109.5C0 119.8 8.2 128 18.4 128H109.5C119.7 128 127.9 119.8 127.9 109.6V18.4C128 8.2 119.8 0 109.6 0Z" fill="#002333"></path><path d="M79.05 72.6V52.175C79.05 49.81 77.115 47.875 74.75 47.875H62.925" stroke="#00E3C0" stroke-width="2" stroke-linecap="round" stroke-linejoin="round"></path><path d="M68.3 42.5L61.85 47.875L68.3 53.25" stroke="#00E3C0" stroke-width="2" stroke-linecap="round" stroke-linejoin="round"></path><path fill-rule="evenodd" clip-rule="evenodd" d="M79.05 85.5001C82.619 85.5001 85.5 82.6126 85.5 79.0501C85.5 75.4875 82.619 72.6001 79.05 72.6001C75.481 72.6001 72.6 75.4875 72.6 79.0501C72.6 82.6126 75.481 85.5001 79.05 85.5001Z" stroke="#00E3C0" stroke-width="2" stroke-linecap="round" stroke-linejoin="round"></path><path d="M48.95 55.3999V75.8249C48.95 78.1899 50.885 80.1249 53.25 80.1249H65.075" stroke="#00E3C0" stroke-width="2" stroke-linecap="round" stroke-linejoin="round"></path><path d="M59.7 85.5L66.15 80.125L59.7 74.75" stroke="#00E3C0" stroke-width="2" stroke-linecap="round" stroke-linejoin="round"></path><path fill-rule="evenodd" clip-rule="evenodd" d="M48.95 55.4C52.519 55.4 55.4 52.5126 55.4 48.95C55.4 45.3875 52.519 42.5 48.95 42.5C45.381 42.5 42.5 45.3875 42.5 48.95C42.5 52.5126 45.381 55.4 48.95 55.4Z" stroke="#00E3C0" stroke-width="2" stroke-linecap="round" stroke-linejoin="round"></path><defs><linearGradient id="paint0_linear_892_27984" x1="64" y1="128" x2="64" y2="0.000274657" gradientUnits="userSpaceOnUse"><stop stop-color="#004A52"></stop><stop offset="1" stop-color="#002333"></stop></linearGradient></defs></svg> 