<?xml version="1.0" encoding="UTF-8"?> <svg xmlns="http://www.w3.org/2000/svg" width="128" height="128" viewBox="0 0 128 128" fill="none"><path d="M109.6 128H18.4C8.2 128 0 119.8 0 109.6V18.4C0 8.2 8.2 0 18.4 0H109.5C119.8 0 128 8.2 128 18.4V109.5C128 119.8 119.8 128 109.6 128Z" fill="#002333"></path><path d="M109.6 0H18.4C8.2 0 0 8.2 0 18.4V79C18.9 86.9 40.8 91.4 64.2 91.4C87.4 91.4 109.2 87 128 79.2V18.4C128 8.2 119.8 0 109.6 0Z" fill="url(#paint0_linear_892_27957)"></path><path d="M109.6 4C117.6 4 124 10.5 124 18.4V109.5C124 117.5 117.5 123.9 109.6 123.9H18.4C10.4 123.9 4 117.4 4 109.5V18.4C4 10.5 10.5 4 18.4 4H109.6ZM109.6 0H18.4C8.2 0 0 8.2 0 18.4V109.5C0 119.8 8.2 128 18.4 128H109.5C119.7 128 127.9 119.8 127.9 109.6V18.4C128 8.2 119.8 0 109.6 0Z" fill="#002333"></path><path fill-rule="evenodd" clip-rule="evenodd" d="M53.7875 53.25H74.2125V48.95C74.2125 44.65 72.6 42.5 67.7625 42.5H60.2375C55.4 42.5 53.7875 44.65 53.7875 48.95V53.25Z" stroke="#00E3C0" stroke-width="2" stroke-linecap="round" stroke-linejoin="round"></path><path fill-rule="evenodd" clip-rule="evenodd" d="M72.6 70.4502V79.0502C72.6 83.3502 70.45 85.5002 66.15 85.5002H61.85C57.55 85.5002 55.4 83.3502 55.4 79.0502V70.4502H72.6Z" stroke="#00E3C0" stroke-width="2" stroke-linecap="round" stroke-linejoin="round"></path><path fill-rule="evenodd" clip-rule="evenodd" d="M83.35 59.7V70.45C83.35 74.75 81.2 76.9 76.9 76.9H72.6V70.45H55.4V76.9H51.1C46.8 76.9 44.65 74.75 44.65 70.45V59.7C44.65 55.4 46.8 53.25 51.1 53.25H76.9C81.2 53.25 83.35 55.4 83.35 59.7Z" stroke="#00E3C0" stroke-width="2" stroke-linecap="round" stroke-linejoin="round"></path><path d="M74.75 70.4502H72.1486H53.25" stroke="#00E3C0" stroke-width="2" stroke-linecap="round" stroke-linejoin="round"></path><path d="M53.25 61.8501H59.7" stroke="#00E3C0" stroke-width="2" stroke-linecap="round" stroke-linejoin="round"></path><defs><linearGradient id="paint0_linear_892_27957" x1="64" y1="128" x2="64" y2="0.000274657" gradientUnits="userSpaceOnUse"><stop stop-color="#004A52"></stop><stop offset="1" stop-color="#002333"></stop></linearGradient></defs></svg> 