<?xml version="1.0" encoding="UTF-8"?> <svg xmlns="http://www.w3.org/2000/svg" width="128" height="128" viewBox="0 0 128 128" fill="none"><path d="M109.6 128H18.4C8.2 128 0 119.8 0 109.6V18.4C0 8.2 8.2 0 18.4 0H109.5C119.8 0 128 8.2 128 18.4V109.5C128 119.8 119.8 128 109.6 128Z" fill="#002333"></path><path d="M109.6 0H18.4C8.2 0 0 8.2 0 18.4V79C18.9 86.9 40.8 91.4 64.2 91.4C87.4 91.4 109.2 87 128 79.2V18.4C128 8.2 119.8 0 109.6 0Z" fill="url(#paint0_linear_843_26972)"></path><path d="M109.6 4C117.6 4 124 10.5 124 18.4V109.5C124 117.5 117.5 123.9 109.6 123.9H18.4C10.4 123.9 4 117.4 4 109.5V18.4C4 10.5 10.5 4 18.4 4H109.6ZM109.6 0H18.4C8.2 0 0 8.2 0 18.4V109.5C0 119.8 8.2 128 18.4 128H109.5C119.7 128 127.9 119.8 127.9 109.6V18.4C128 8.2 119.8 0 109.6 0Z" fill="#002333"></path><path d="M74.75 88.7251C80.6625 88.7251 85.5 83.8876 85.5 77.9751C85.5 72.0626 80.6625 67.2251 74.75 67.2251C68.8375 67.2251 64 72.0626 64 77.9751C64 83.8876 68.8375 88.7251 74.75 88.7251Z" stroke="#00E3C0" stroke-width="1.8" stroke-linecap="round" stroke-linejoin="round"></path><path d="M70.1812 77.9754L73.2235 81.0176L79.3187 74.9331" stroke="#00E3C0" stroke-width="1.8" stroke-linecap="round" stroke-linejoin="round"></path><path d="M74.75 60.7749C80.6625 60.7749 85.5 55.9374 85.5 50.0249C85.5 44.1124 80.6625 39.2749 74.75 39.2749C68.8375 39.2749 64 44.1124 64 50.0249C64 55.9374 68.8375 60.7749 74.75 60.7749Z" stroke="#00E3C0" stroke-width="1.8" stroke-linecap="round" stroke-linejoin="round"></path><path d="M70.1812 50.0252L73.2235 53.0674L79.3187 46.9829" stroke="#00E3C0" stroke-width="1.8" stroke-linecap="round" stroke-linejoin="round"></path><path d="M48.95 61.3125C51.0247 61.3125 52.7125 63.0002 52.7125 65.075C52.7125 67.1497 51.0247 68.8375 48.95 68.8375C46.8752 68.8375 45.1875 67.1497 45.1875 65.075C45.1875 63.0002 46.8752 61.3125 48.95 61.3125Z" stroke="#00E3C0" stroke-width="1.8" stroke-miterlimit="10" stroke-linecap="round" stroke-linejoin="round"></path><path d="M36.4047 63.9674V66.1712C36.4047 67.4719 37.469 68.5577 38.7912 68.5577C41.0595 68.5577 41.9947 70.1594 40.8445 72.1267C40.1887 73.2554 40.5757 74.7282 41.726 75.3732L43.8975 76.6202C44.8865 77.2114 46.1657 76.8567 46.757 75.8677L46.8967 75.6312C48.0255 73.6639 49.8852 73.6639 51.0247 75.6312L51.1645 75.8677C51.7557 76.8567 53.035 77.2114 54.024 76.6202L56.1955 75.3732C57.335 74.7174 57.722 73.2554 57.077 72.1267C55.9375 70.1594 56.862 68.5577 59.1302 68.5577C60.431 68.5577 61.5167 67.4934 61.5167 66.1712V63.9674C61.5167 62.6667 60.4525 61.5809 59.1302 61.5809C56.862 61.5809 55.9375 59.9792 57.077 58.0119C57.7327 56.8724 57.335 55.4104 56.1955 54.7654L54.024 53.5184C53.035 52.9272 51.7557 53.2819 51.1645 54.2709L51.0247 54.5074C49.896 56.4747 48.0362 56.4747 46.8967 54.5074L46.757 54.2709C46.1657 53.2819 44.8865 52.9272 43.8975 53.5184L41.726 54.7654C40.5865 55.4212 40.1995 56.8832 40.8445 58.0119C41.984 59.9792 41.0595 61.5809 38.7912 61.5809C37.4797 61.5917 36.4047 62.6667 36.4047 63.9674Z" stroke="#00E3C0" stroke-width="1.8" stroke-miterlimit="10" stroke-linecap="round" stroke-linejoin="round"></path><defs><linearGradient id="paint0_linear_843_26972" x1="64" y1="128" x2="64" y2="0.000274657" gradientUnits="userSpaceOnUse"><stop stop-color="#004A52"></stop><stop offset="1" stop-color="#002333"></stop></linearGradient></defs></svg> 