<?xml version="1.0" encoding="UTF-8"?> <svg xmlns="http://www.w3.org/2000/svg" width="128" height="128" viewBox="0 0 128 128" fill="none"><path d="M95.9 112H16.1C7.175 112 0 104.825 0 95.9V16.1C0 7.175 7.175 0 16.1 0H95.8125C104.825 0 112 7.175 112 16.1V95.8125C112 104.825 104.825 112 95.9 112Z" fill="#002333"></path><path d="M95.9 0H16.1C7.175 0 0 7.175 0 16.1V69.125C16.5375 76.0375 35.7 79.975 56.175 79.975C76.475 79.975 95.55 76.125 112 69.3V16.1C112 7.175 104.825 0 95.9 0Z" fill="url(#paint0_linear_962_27871)"></path><path d="M95.9 3.5C102.9 3.5 108.5 9.1875 108.5 16.1V95.8125C108.5 102.812 102.813 108.413 95.9 108.413H16.1C9.1 108.413 3.5 102.725 3.5 95.8125V16.1C3.5 9.1875 9.1875 3.5 16.1 3.5H95.9ZM95.9 0H16.1C7.175 0 0 7.175 0 16.1V95.8125C0 104.825 7.175 112 16.1 112H95.8125C104.738 112 111.913 104.825 111.913 95.9V16.1C112 7.175 104.825 0 95.9 0Z" fill="#002333"></path><rect x="88.5" y="88.5" width="39" height="39" rx="4.5" fill="#FECC00" stroke="#C2CACE"></rect><path d="M56 79.6496C42.9495 79.6496 32.35 69.0501 32.35 55.9996C32.35 42.9491 42.9495 32.3496 56 32.3496" stroke="#00E3C0" stroke-width="1.8" stroke-linecap="round" stroke-linejoin="round"></path><path d="M56 32.3496C69.0505 32.3496 79.65 42.9491 79.65 55.9996" stroke="#00E3C0" stroke-width="1.8" stroke-linecap="round" stroke-linejoin="round"></path><path d="M49.808 55.9999V52.7104C49.808 48.0556 51.9902 46.5614 56.215 49.0016L59.053 50.6356L61.891 52.2696C65.7717 54.5056 65.7717 57.4296 61.891 59.6764L59.053 61.3104L56.215 62.9444C51.9902 65.3846 49.808 63.9119 49.808 59.2356V55.9999Z" stroke="#00E3C0" stroke-width="1.8" stroke-miterlimit="10" stroke-linecap="round" stroke-linejoin="round"></path><path d="M65.6857 74.8124C65.6857 76.8979 67.2875 78.5749 69.2655 78.5749H73.3075C75.0382 78.5749 76.4357 77.1021 76.4357 75.3069C76.4357 73.3396 75.5865 72.6516 74.3072 72.2001L67.8142 69.9426C66.535 69.4911 65.6857 68.8031 65.6857 66.8359C65.6857 65.0299 67.094 63.5679 68.814 63.5679H72.856C74.8447 63.5679 76.4357 65.2449 76.4357 67.3304" stroke="#00E3C0" stroke-width="1.8" stroke-linecap="round" stroke-linejoin="round"></path><path d="M71.05 60.2998V81.7998" stroke="#00E3C0" stroke-width="1.8" stroke-linecap="round" stroke-linejoin="round"></path><path d="M124 104V110.426H93V104H124Z" fill="#FFCC00"></path><path d="M98.4517 105.154L97.4612 106.418C97.4612 106.418 102.596 106.418 102.859 106.418C103.132 106.418 103.128 106.515 102.995 106.685C102.86 106.857 102.633 107.157 102.495 107.332C102.425 107.42 102.298 107.582 102.718 107.582C103.161 107.582 104.925 107.582 104.925 107.582C104.925 107.582 105.281 107.127 105.579 106.747C105.985 106.23 105.614 105.154 104.164 105.154C102.866 105.154 98.4517 105.154 98.4517 105.154Z" fill="#D2002E"></path><path d="M97.0605 109.271L99.0498 106.732C99.0498 106.732 101.255 106.732 101.518 106.732C101.791 106.732 101.788 106.83 101.654 106.999C101.519 107.172 101.289 107.468 101.151 107.643C101.081 107.732 100.954 107.894 101.373 107.894C101.817 107.894 104.681 107.894 104.681 107.894C104.406 108.248 103.513 109.271 101.911 109.271C100.613 109.271 97.0605 109.271 97.0605 109.271Z" fill="#D2002E"></path><path d="M108.453 107.894L107.375 109.271H104.529C104.529 109.271 105.607 107.894 105.608 107.894L108.453 107.894Z" fill="#D2002E"></path><path d="M112.813 107.582H105.853L107.756 105.154H110.601L109.51 106.546H110.78L111.871 105.154H114.716L112.813 107.582Z" fill="#D2002E"></path><path d="M112.569 107.894L111.489 109.271H108.645C108.645 109.271 109.723 107.894 109.724 107.894H112.569Z" fill="#D2002E"></path><path d="M93 108.437H97.1922L96.9632 108.73H93V108.437Z" fill="#D2002E"></path><path d="M93 107.894H97.6182L97.3887 108.186H93V107.894Z" fill="#D2002E"></path><path d="M93 108.98H96.7666L96.5387 109.271H93V108.98Z" fill="#D2002E"></path><path d="M124 108.73H119.824L120.053 108.437H124V108.73Z" fill="#D2002E"></path><path d="M124 109.271L119.399 109.272L119.627 108.98H124V109.271Z" fill="#D2002E"></path><path d="M120.478 107.894H124V108.186L120.25 108.187L120.478 107.894Z" fill="#D2002E"></path><path d="M118.655 105.154L116.752 107.582H113.738C113.738 107.582 115.641 105.154 115.642 105.154H118.655Z" fill="#D2002E"></path><path d="M113.494 107.894C113.494 107.894 113.286 108.161 113.185 108.289C112.828 108.743 113.144 109.271 114.31 109.271C115.656 109.271 118.878 109.271 118.878 109.271L119.958 107.894H113.494V107.894Z" fill="#D2002E"></path><path d="M93 111.47H124V111.616H93V111.47Z" fill="#FFCC00"></path><path d="M93 112.149H124V112.295H93V112.149Z" fill="#FFCC00"></path><path d="M93 112.829H124V112.974H93V112.829Z" fill="#FFCC00"></path><path d="M103.41 112.974H104.343L104.491 112.784H103.797L104.187 112.289H104.819L104.968 112.099H104.335L104.681 111.66H105.375L105.524 111.47H104.591L103.41 112.974Z" fill="#D2002E"></path><path d="M104.555 112.974H104.841L105.817 112.336L105.807 112.974H106.108L106.11 112.188L107.234 111.47H106.962L106.067 112.048L106.077 111.47H105.791L105.782 112.192L104.555 112.974Z" fill="#D2002E"></path><path fill-rule="evenodd" clip-rule="evenodd" d="M107.596 111.66H107.798C107.946 111.66 108.112 111.729 107.963 111.918C107.807 112.117 107.568 112.183 107.42 112.183H107.184L107.596 111.66ZM106.324 112.974H106.563L107.035 112.373H107.269C107.57 112.373 107.951 112.254 108.214 111.921C108.483 111.578 108.284 111.47 107.943 111.47H107.506L106.324 112.974Z" fill="#D2002E"></path><path fill-rule="evenodd" clip-rule="evenodd" d="M107.698 112.974H107.937L108.462 112.306H108.605C108.731 112.306 108.81 112.306 108.769 112.453L108.615 112.974H108.887L109.042 112.375C109.063 112.282 109.052 112.25 108.999 112.224L109.002 112.22C109.219 112.19 109.471 112.061 109.615 111.877C109.897 111.518 109.617 111.47 109.288 111.47H108.88L107.698 112.974ZM108.97 111.66H109.199C109.418 111.66 109.465 111.746 109.358 111.882C109.245 112.026 109.04 112.117 108.814 112.117H108.611L108.97 111.66Z" fill="#D2002E"></path><path d="M109.134 112.974H110.067L110.216 112.784H109.521L109.911 112.289H110.543L110.692 112.099H110.06L110.405 111.66H111.099L111.248 111.47H110.315L109.134 112.974Z" fill="#D2002E"></path><path d="M112.397 111.498C112.312 111.462 112.194 111.444 112.084 111.444C111.783 111.444 111.438 111.587 111.228 111.854C110.861 112.321 111.649 112.229 111.385 112.565C111.246 112.741 111.001 112.81 110.865 112.81C110.744 112.81 110.634 112.767 110.577 112.737L110.396 112.937C110.48 112.97 110.571 113 110.688 113C111.022 113 111.396 112.873 111.648 112.552C112.038 112.056 111.269 112.123 111.496 111.834C111.62 111.677 111.811 111.634 111.945 111.634C112.069 111.634 112.12 111.653 112.208 111.696L112.397 111.498Z" fill="#D2002E"></path><path d="M113.59 111.498C113.505 111.462 113.387 111.444 113.277 111.444C112.976 111.444 112.631 111.587 112.421 111.854C112.054 112.321 112.842 112.229 112.578 112.565C112.44 112.741 112.194 112.81 112.058 112.81C111.937 112.81 111.827 112.767 111.77 112.737L111.589 112.937C111.673 112.97 111.764 113 111.881 113C112.215 113 112.589 112.873 112.841 112.552C113.231 112.056 112.462 112.123 112.689 111.834C112.813 111.677 113.004 111.634 113.138 111.634C113.262 111.634 113.313 111.653 113.401 111.696L113.59 111.498Z" fill="#D2002E"></path><defs><linearGradient id="paint0_linear_962_27871" x1="56" y1="112" x2="56" y2="0.000240325" gradientUnits="userSpaceOnUse"><stop stop-color="#004A52"></stop><stop offset="1" stop-color="#002333"></stop></linearGradient></defs></svg> 