<?xml version="1.0" encoding="UTF-8"?> <svg xmlns="http://www.w3.org/2000/svg" width="128" height="128" viewBox="0 0 128 128" fill="none"><path d="M95.9 112H16.1C7.175 112 0 104.825 0 95.9V16.1C0 7.175 7.175 0 16.1 0H95.8125C104.825 0 112 7.175 112 16.1V95.8125C112 104.825 104.825 112 95.9 112Z" fill="#002333"></path><path d="M95.9 0H16.1C7.175 0 0 7.175 0 16.1V69.125C16.5375 76.0375 35.7 79.975 56.175 79.975C76.475 79.975 95.55 76.125 112 69.3V16.1C112 7.175 104.825 0 95.9 0Z" fill="url(#paint0_linear_918_29261)"></path><path d="M95.9 3.5C102.9 3.5 108.5 9.1875 108.5 16.1V95.8125C108.5 102.812 102.813 108.412 95.9 108.412H16.1C9.1 108.412 3.5 102.725 3.5 95.8125V16.1C3.5 9.1875 9.1875 3.5 16.1 3.5H95.9ZM95.9 0H16.1C7.175 0 0 7.175 0 16.1V95.8125C0 104.825 7.175 112 16.1 112H95.8125C104.738 112 111.913 104.825 111.913 95.9V16.1C112 7.175 104.825 0 95.9 0Z" fill="#002333"></path><rect x="88.5" y="88.5" width="39" height="39" rx="4.5" fill="url(#paint1_linear_918_29261)" stroke="#C2CACE"></rect><path d="M56 79.6496C42.9495 79.6496 32.35 69.0501 32.35 55.9996C32.35 42.9491 42.9495 32.3496 56 32.3496" stroke="#00E3C0" stroke-width="1.8" stroke-linecap="round" stroke-linejoin="round"></path><path d="M56 32.3496C69.0505 32.3496 79.65 42.9491 79.65 55.9996" stroke="#00E3C0" stroke-width="1.8" stroke-linecap="round" stroke-linejoin="round"></path><path d="M49.808 55.9999V52.7104C49.808 48.0556 51.9902 46.5614 56.215 49.0016L59.053 50.6356L61.891 52.2696C65.7717 54.5056 65.7717 57.4296 61.891 59.6764L59.053 61.3104L56.215 62.9444C51.9902 65.3846 49.808 63.9119 49.808 59.2356V55.9999Z" stroke="#00E3C0" stroke-width="1.8" stroke-miterlimit="10" stroke-linecap="round" stroke-linejoin="round"></path><path d="M65.6857 74.8124C65.6857 76.8979 67.2875 78.5749 69.2655 78.5749H73.3075C75.0382 78.5749 76.4357 77.1021 76.4357 75.3069C76.4357 73.3396 75.5865 72.6516 74.3072 72.2001L67.8142 69.9426C66.535 69.4911 65.6857 68.8031 65.6857 66.8359C65.6857 65.0299 67.094 63.5679 68.814 63.5679H72.856C74.8447 63.5679 76.4357 65.2449 76.4357 67.3304" stroke="#00E3C0" stroke-width="1.8" stroke-linecap="round" stroke-linejoin="round"></path><path d="M71.05 60.2998V81.7998" stroke="#00E3C0" stroke-width="1.8" stroke-linecap="round" stroke-linejoin="round"></path><path d="M116.555 115.05L119.541 101H99.9862L96.9999 115.05H116.555Z" fill="white"></path><path d="M118.899 101.517L100.403 101.518L100.392 101.58C100.392 101.58 111.266 103.812 111.481 103.851C113.979 104.292 113.902 104.774 113.902 104.774C115.652 104.765 115.868 104.836 116.174 105.091C117.094 105.86 115.598 108.125 115.598 108.125C115.384 108.283 99.2094 114.529 99.2094 114.529H116.131L118.898 101.518L118.899 101.517ZM109.288 104.526C108.798 104.522 108.452 104.529 108.413 104.527H99.7683H99.7664L97.642 114.533C97.642 114.533 104.149 111.339 104.945 110.93C106.576 110.093 108.83 108.986 110.914 108.276C111.311 108.142 113.012 107.617 114.003 107.441C114.387 107.372 114.55 107.307 114.545 107.235C114.53 107.03 114.144 107.016 113.49 107.048C111.496 107.142 107.673 108.664 106.573 109.245L105.331 105.395H113.267C113.534 104.646 110.759 104.538 109.288 104.526L109.288 104.526ZM113.495 105.453C113.438 105.453 113.388 105.492 113.322 105.582C113.261 105.661 113.211 105.714 113.053 105.793C112.808 105.914 112.167 105.981 111.867 106.007C111.579 106.031 111.501 106.06 111.496 106.171C111.493 106.27 111.539 106.327 111.952 106.327C112.903 106.327 114.613 105.969 115.129 106.133C115.401 106.22 115.182 106.704 114.959 107.342C114.872 107.588 115.042 107.571 115.141 107.463C115.24 107.354 115.683 106.542 115.731 106.128C115.8 105.541 115.296 105.453 114.601 105.453H113.495H113.495Z" fill="#15569C"></path><defs><linearGradient id="paint0_linear_918_29261" x1="56" y1="112" x2="56" y2="0.000240325" gradientUnits="userSpaceOnUse"><stop stop-color="#004A52"></stop><stop offset="1" stop-color="#002333"></stop></linearGradient><linearGradient id="paint1_linear_918_29261" x1="89.5" y1="89.5" x2="128" y2="127" gradientUnits="userSpaceOnUse"><stop stop-color="white"></stop><stop offset="1" stop-color="#F2F4F5"></stop></linearGradient></defs></svg> 