<?xml version="1.0" encoding="UTF-8"?> <svg xmlns="http://www.w3.org/2000/svg" width="133" height="133" viewBox="0 0 133 133" fill="none"><path d="M95.9 112H16.1C7.175 112 0 104.825 0 95.9V16.1C0 7.175 7.175 0 16.1 0H95.8125C104.825 0 112 7.175 112 16.1V95.8125C112 104.825 104.825 112 95.9 112Z" fill="#002333"></path><path d="M95.9 0H16.1C7.175 0 0 7.175 0 16.1V69.125C16.5375 76.0375 35.7 79.975 56.175 79.975C76.475 79.975 95.55 76.125 112 69.3V16.1C112 7.175 104.825 0 95.9 0Z" fill="url(#paint0_linear_892_28146)"></path><path d="M95.9 3.5C102.9 3.5 108.5 9.1875 108.5 16.1V95.8125C108.5 102.812 102.813 108.413 95.9 108.413H16.1C9.1 108.413 3.5 102.725 3.5 95.8125V16.1C3.5 9.1875 9.1875 3.5 16.1 3.5H95.9ZM95.9 0H16.1C7.175 0 0 7.175 0 16.1V95.8125C0 104.825 7.175 112 16.1 112H95.8125C104.738 112 111.913 104.825 111.913 95.9V16.1C112 7.175 104.825 0 95.9 0Z" fill="#002333"></path><rect x="88.5" y="88.5" width="39" height="39" rx="4.5" fill="url(#paint1_linear_892_28146)" stroke="#C2CACE"></rect><path d="M56 35.5747V41.068C56 41.7667 56.645 42.2505 57.3222 42.1107C57.9887 41.971 58.7198 41.9925 59.483 42.2397C60.9343 42.7127 62.063 43.949 62.364 45.4432C62.9122 48.206 60.816 50.6247 58.15 50.6247C57.8383 50.6247 57.548 50.5925 57.2577 50.528C56.6127 50.3775 56 50.915 56 51.5815V57.0747H61.4933C62.192 57.0747 62.6758 57.7197 62.536 58.4077C62.3963 59.0742 62.4178 59.8052 62.665 60.5577C63.1273 62.009 64.3743 63.1485 65.8685 63.4387C68.6313 63.987 71.05 61.8907 71.05 59.2247C71.05 58.913 71.0178 58.6227 70.9533 58.3325C70.8028 57.6875 71.3403 57.0747 72.0068 57.0747H77.5" stroke="#00E3C0" stroke-width="1.8" stroke-linecap="round" stroke-linejoin="round"></path><path d="M77.5 57.0747V50.6247C77.5 39.8747 73.2 35.5747 62.45 35.5747H56" stroke="#00E3C0" stroke-width="1.8" stroke-linecap="round" stroke-linejoin="round"></path><path d="M77.5 57.0747H72.0068C71.308 57.0747 70.8243 57.7197 70.964 58.4077C71.1038 59.0742 71.0823 59.8052 70.835 60.5577C70.3728 62.009 69.1258 63.1485 67.6315 63.4387C64.8688 63.987 62.45 61.8907 62.45 59.2247C62.45 58.913 62.4823 58.6227 62.5468 58.3325C62.6973 57.6875 62.1598 57.0747 61.4933 57.0747H56V62.568C56 63.2667 55.355 63.7505 54.667 63.6107C54.0005 63.471 53.2695 63.4925 52.517 63.7397C51.0658 64.202 49.9263 65.449 49.636 66.9432C49.0878 69.706 51.184 72.1247 53.85 72.1247C54.1618 72.1247 54.452 72.0925 54.7423 72.028C55.3873 71.8775 56 72.415 56 73.0815V78.5747" stroke="#00E3C0" stroke-width="1.8" stroke-linecap="round" stroke-linejoin="round"></path><path d="M77.5 61.375V63.525C77.5 74.275 73.2 78.575 62.45 78.575H60.3" stroke="#00E3C0" stroke-width="1.8" stroke-linecap="round" stroke-linejoin="round"></path><path d="M56 78.5748V73.0815C56 72.3828 55.355 71.899 54.667 72.0388C54.0005 72.1785 53.2695 72.157 52.517 71.9098C51.0657 71.4475 49.9263 70.2005 49.636 68.7063C49.0878 65.9435 51.184 63.5248 53.85 63.5248C54.1618 63.5248 54.452 63.557 54.7423 63.6215C55.3873 63.772 56 63.2345 56 62.568V57.0748H50.5068C49.808 57.0748 49.3242 56.4298 49.464 55.7418C49.6037 55.0753 49.5822 54.3443 49.335 53.5918C48.8727 52.1405 47.6258 51.001 46.1315 50.7108C43.3688 50.1625 40.95 52.2588 40.95 54.9248C40.95 55.2365 40.9823 55.5268 41.0468 55.817C41.1973 56.462 40.6598 57.0748 39.9933 57.0748H34.5" stroke="#00E3C0" stroke-width="1.8" stroke-linecap="round" stroke-linejoin="round"></path><path d="M34.5 57.0747V63.5247C34.5 74.2747 38.8 78.5747 49.55 78.5747H56" stroke="#00E3C0" stroke-width="1.8" stroke-linecap="round" stroke-linejoin="round"></path><path d="M34.5 57.0747H39.9933C40.692 57.0747 41.1757 56.4297 41.036 55.7417C40.8962 55.0752 40.9178 54.3442 41.165 53.5917C41.6273 52.1405 42.8742 51.001 44.3685 50.7107C47.1312 50.1625 49.55 52.2587 49.55 54.9247C49.55 55.2365 49.5177 55.5267 49.4532 55.817C49.3027 56.462 49.8402 57.0747 50.5067 57.0747H56V51.5815C56 50.8827 56.645 50.399 57.3222 50.5387C57.9887 50.6785 58.7198 50.657 59.483 50.4097C60.9343 49.9367 62.063 48.6897 62.364 47.1955C62.9122 44.4435 60.816 42.0247 58.15 42.0247C57.8382 42.0247 57.548 42.057 57.2577 42.1215C56.6127 42.272 56 41.7345 56 41.068V35.5747" stroke="#00E3C0" stroke-width="1.8" stroke-linecap="round" stroke-linejoin="round"></path><path d="M51.7 35.5747H49.55C38.8 35.5747 34.5 39.8747 34.5 50.6247V52.7747" stroke="#00E3C0" stroke-width="1.8" stroke-linecap="round" stroke-linejoin="round"></path><path d="M108 121.75C100.412 121.75 94.25 115.588 94.25 108C94.25 100.412 100.412 94.25 108 94.25" stroke="#00E3C0" stroke-width="1.5" stroke-linecap="round" stroke-linejoin="round"></path><path d="M108 94.25C115.588 94.25 121.75 100.412 121.75 108" stroke="#00E3C0" stroke-width="1.5" stroke-linecap="round" stroke-linejoin="round"></path><path d="M104.4 108V106.088C104.4 103.381 105.669 102.513 108.125 103.931L109.775 104.881L111.425 105.831C113.681 107.131 113.681 108.831 111.425 110.138L109.775 111.088L108.125 112.038C105.669 113.456 104.4 112.6 104.4 109.881V108Z" stroke="#00E3C0" stroke-width="1.5" stroke-miterlimit="10" stroke-linecap="round" stroke-linejoin="round"></path><path d="M113.631 118.937C113.631 120.15 114.563 121.125 115.713 121.125H118.063C119.069 121.125 119.881 120.269 119.881 119.225C119.881 118.081 119.388 117.681 118.644 117.419L114.869 116.106C114.125 115.844 113.631 115.444 113.631 114.3C113.631 113.25 114.45 112.4 115.45 112.4H117.8C118.956 112.4 119.881 113.375 119.881 114.587" stroke="#00E3C0" stroke-width="1.5" stroke-linecap="round" stroke-linejoin="round"></path><path d="M116.75 110.5V123" stroke="#00E3C0" stroke-width="1.5" stroke-linecap="round" stroke-linejoin="round"></path><defs><linearGradient id="paint0_linear_892_28146" x1="56" y1="112" x2="56" y2="0.000240325" gradientUnits="userSpaceOnUse"><stop stop-color="#004A52"></stop><stop offset="1" stop-color="#002333"></stop></linearGradient><linearGradient id="paint1_linear_892_28146" x1="89.5" y1="89.5" x2="128" y2="127" gradientUnits="userSpaceOnUse"><stop stop-color="white"></stop><stop offset="1" stop-color="#F2F4F5"></stop></linearGradient></defs></svg> 