<svg width="256" height="256" viewBox="0 0 256 256" fill="none" xmlns="http://www.w3.org/2000/svg">
<rect width="256" height="256" fill="white"/>
<path d="M219.2 256H36.8C16.4 256 0 239.6 0 219.2V36.8C0 16.4 16.4 0 36.8 0H219C239.6 0 256 16.4 256 36.8V219C256 239.6 239.6 256 219.2 256Z" fill="#002333"/>
<path d="M219.2 0H36.8C16.4 0 0 16.4 0 36.8V158C37.8 173.8 81.6 182.8 128.4 182.8C174.8 182.8 218.4 174 256 158.4V36.8C256 16.4 239.6 0 219.2 0Z" fill="url(#paint0_linear_2030_122659)"/>
<path d="M219.2 8C235.2 8 248 21 248 36.8V219C248 235 235 247.8 219.2 247.8H36.8C20.8 247.8 8 234.8 8 219V36.8C8 21 21 8 36.8 8H219.2ZM219.2 0H36.8C16.4 0 0 16.4 0 36.8V219C0 239.6 16.4 256 36.8 256H219C239.4 256 255.8 239.6 255.8 219.2V36.8C256 16.4 239.6 0 219.2 0Z" fill="#002333"/>
<path d="M81.8161 105.428L125.524 130.722L168.936 105.576" stroke="#00E3C0" stroke-width="5" stroke-linecap="round" stroke-linejoin="round"/>
<path d="M125.525 175.57V130.673" stroke="#00E3C0" stroke-width="5" stroke-linecap="round" stroke-linejoin="round"/>
<path d="M173.095 132.108V113.991C173.095 107.16 168.195 98.8443 162.205 95.5278L135.772 80.876C130.129 77.708 120.922 77.708 115.279 80.876L88.8459 95.5278C82.8564 98.8443 77.9562 107.16 77.9562 113.991V142.008C77.9562 148.839 82.8564 157.155 88.8459 160.472L115.279 175.124C118.1 176.708 121.813 177.5 125.526 177.5C129.238 177.5 132.95 176.708 135.772 175.124" stroke="#00E3C0" stroke-width="5" stroke-linecap="round" stroke-linejoin="round"/>
<path d="M163.2 186.85H172C183 186.85 187.4 182.45 187.4 171.45V158.25C187.4 147.25 183 142.85 172 142.85H163.2C152.2 142.85 147.8 147.25 147.8 158.25V171.45C147.8 182.45 152.2 186.85 163.2 186.85Z" stroke="#00E3C0" stroke-width="4" stroke-linecap="round" stroke-linejoin="round"/>
<path d="M177.5 155.17V157.37C177.5 159.13 176.07 160.67 174.2 160.67H161C159.24 160.67 157.7 159.24 157.7 157.37V155.17C157.7 153.41 159.13 151.87 161 151.87H174.2C176.07 151.87 177.5 153.3 177.5 155.17Z" stroke="#00E3C0" stroke-width="4" stroke-linecap="round" stroke-linejoin="round"/>
<path d="M176.07 179.15C177.285 179.15 178.27 178.165 178.27 176.95C178.27 175.735 177.285 174.75 176.07 174.75C174.855 174.75 173.87 175.735 173.87 176.95C173.87 178.165 174.855 179.15 176.07 179.15Z" fill="#00E3C0"/>
<path d="M176.07 171.45C177.285 171.45 178.27 170.465 178.27 169.25C178.27 168.035 177.285 167.05 176.07 167.05C174.855 167.05 173.87 168.035 173.87 169.25C173.87 170.465 174.855 171.45 176.07 171.45Z" fill="#00E3C0"/>
<path d="M167.6 179.15C168.815 179.15 169.8 178.165 169.8 176.95C169.8 175.735 168.815 174.75 167.6 174.75C166.385 174.75 165.4 175.735 165.4 176.95C165.4 178.165 166.385 179.15 167.6 179.15Z" fill="#00E3C0"/>
<path d="M167.6 171.45C168.815 171.45 169.8 170.465 169.8 169.25C169.8 168.035 168.815 167.05 167.6 167.05C166.385 167.05 165.4 168.035 165.4 169.25C165.4 170.465 166.385 171.45 167.6 171.45Z" fill="#00E3C0"/>
<path d="M159.13 179.15C160.345 179.15 161.33 178.165 161.33 176.95C161.33 175.735 160.345 174.75 159.13 174.75C157.915 174.75 156.93 175.735 156.93 176.95C156.93 178.165 157.915 179.15 159.13 179.15Z" fill="#00E3C0"/>
<path d="M159.13 171.45C160.345 171.45 161.33 170.465 161.33 169.25C161.33 168.035 160.345 167.05 159.13 167.05C157.915 167.05 156.93 168.035 156.93 169.25C156.93 170.465 157.915 171.45 159.13 171.45Z" fill="#00E3C0"/>
<defs>
<linearGradient id="paint0_linear_2030_122659" x1="128" y1="255.999" x2="128" y2="0.000549314" gradientUnits="userSpaceOnUse">
<stop stop-color="#004A52"/>
<stop offset="1" stop-color="#002333"/>
</linearGradient>
</defs>
</svg>
