<svg width="128" height="128" viewBox="0 0 128 128" fill="none" xmlns="http://www.w3.org/2000/svg">
<g clip-path="url(#clip0_2001_5600)">
<path d="M109.6 128H18.4C8.2 128 0 119.8 0 109.6V18.4C0 8.2 8.2 0 18.4 0H109.5C119.8 0 128 8.2 128 18.4V109.5C128 119.8 119.8 128 109.6 128Z" fill="#002333"/>
<path d="M109.6 0H18.4C8.2 0 0 8.2 0 18.4V79C18.9 86.9 40.8 91.4 64.2 91.4C87.4 91.4 109.2 87 128 79.2V18.4C128 8.2 119.8 0 109.6 0Z" fill="url(#paint0_linear_2001_5600)"/>
<path d="M109.6 4C117.6 4 124 10.5 124 18.4V109.5C124 117.5 117.5 123.9 109.6 123.9H18.4C10.4 123.9 4 117.4 4 109.5V18.4C4 10.5 10.5 4 18.4 4H109.6ZM109.6 0H18.4C8.2 0 0 8.2 0 18.4V109.5C0 119.8 8.2 128 18.4 128H109.5C119.7 128 127.9 119.8 127.9 109.6V18.4C128 8.2 119.8 0 109.6 0Z" fill="#002333"/>
</g>
<path d="M49.9263 69.1079L64 77.2529L77.9725 69.1529" stroke="#00E3C0" stroke-width="1.8" stroke-linecap="round" stroke-linejoin="round"/>
<path d="M64 91.6867V77.2417" stroke="#00E3C0" stroke-width="1.8" stroke-linecap="round" stroke-linejoin="round"/>
<path d="M52.1987 65.9132L51.7624 65.126L51.7616 65.1265L52.1987 65.9132ZM52.1987 86.7932L52.6366 86.0069L52.6303 86.0035L52.1987 86.7932ZM60.7037 91.5295L60.2658 92.3158L60.2704 92.3183L60.7037 91.5295ZM67.3187 91.5295L67.7521 92.3183L67.7566 92.3158L67.3187 91.5295ZM75.8237 86.7932L75.3866 86.0065L75.3858 86.0069L75.8237 86.7932ZM75.8237 65.9132L75.3858 66.6995L75.3921 66.703L75.8237 65.9132ZM70.1875 62.8755L70.5271 62.0421C70.1896 61.9045 69.8025 61.9841 69.5466 62.2436L70.1875 62.8755ZM57.8125 62.8755L58.4669 62.2576C58.2129 61.9887 57.8203 61.9025 57.4771 62.0403L57.8125 62.8755ZM64 67.3758L63.9945 66.4758L63.9945 66.4758L64 67.3758ZM51.7616 65.1265C50.6268 65.757 49.6442 66.8254 48.9476 68.0032C48.2513 69.1807 47.7887 70.5557 47.7887 71.8532H49.5887C49.5887 70.957 49.9193 69.8964 50.497 68.9195C51.0745 67.9429 51.8469 67.1382 52.6358 66.7L51.7616 65.1265ZM47.7887 71.8532V80.8532H49.5887V71.8532H47.7887ZM47.7887 80.8532C47.7887 82.1543 48.2472 83.5317 48.943 84.7109C49.6387 85.8899 50.623 86.9577 51.7671 87.583L52.6303 86.0035C51.8394 85.5712 51.0688 84.7715 50.4932 83.7962C49.9178 82.821 49.5887 81.7571 49.5887 80.8532H47.7887ZM51.7608 87.5795L60.2658 92.3158L61.1416 90.7432L52.6366 86.0069L51.7608 87.5795ZM60.2704 92.3183C61.3475 92.91 62.7044 93.1804 64.0112 93.1804C65.318 93.1804 66.675 92.91 67.7521 92.3183L66.8854 90.7407C66.14 91.1502 65.1007 91.3804 64.0112 91.3804C62.9218 91.3804 61.8825 91.1502 61.1371 90.7407L60.2704 92.3183ZM67.7566 92.3158L76.2616 87.5795L75.3858 86.0069L66.8808 90.7432L67.7566 92.3158ZM76.2608 87.58C77.3957 86.9495 78.3783 85.881 79.0748 84.7032C79.7712 83.5257 80.2337 82.1507 80.2337 80.8532H78.4337C78.4337 81.7495 78.1032 82.8101 77.5255 83.787C76.9479 84.7636 76.1755 85.5682 75.3866 86.0065L76.2608 87.58ZM80.2337 80.8532V71.8532H78.4337V80.8532H80.2337ZM80.2337 71.8532C80.2337 70.5521 79.7753 69.1747 79.0795 67.9955C78.3837 66.8165 77.3994 65.7487 76.2553 65.1235L75.3921 66.703C76.183 67.1352 76.9537 67.9349 77.5292 68.9103C78.1047 69.8855 78.4337 70.9493 78.4337 71.8532H80.2337ZM76.2616 65.1269C74.1245 63.9368 72.3031 62.7659 70.5271 62.0421L69.8478 63.7089C71.4895 64.378 73.098 65.4255 75.3858 66.6995L76.2616 65.1269ZM57.4771 62.0403C55.6876 62.7588 53.9104 63.9356 51.7624 65.126L52.635 66.7004C54.9669 65.408 56.4942 64.3746 58.1478 63.7107L57.4771 62.0403ZM69.5466 62.2436C68.485 63.3202 67.4641 64.395 66.4645 65.2167C65.4367 66.0615 64.6218 66.472 63.9945 66.4758L64.0054 68.2758C65.3034 68.2679 66.5426 67.4825 67.6075 66.6072C68.7005 65.7088 69.8107 64.5393 70.8283 63.5074L69.5466 62.2436ZM63.9945 66.4758C63.4067 66.4794 62.575 66.0734 61.5222 65.221C60.5102 64.4016 59.4671 63.317 58.4669 62.2576L57.1581 63.4934C58.1484 64.5423 59.27 65.7135 60.3895 66.6199C61.4684 67.4934 62.735 68.2835 64.0054 68.2758L63.9945 66.4758Z" fill="#00E3C0"/>
<path d="M50.59 44.009C53.74 30.149 74.2825 30.1603 77.41 44.0203C79.255 52.154 74.1925 59.039 69.76 63.2915C64.135 68.7253 63.8875 68.7365 58.2175 63.2915C53.8075 59.039 48.745 52.1428 50.59 44.009Z" stroke="#00E3C0" stroke-width="1.8"/>
<path d="M64 51.9177C66.7563 51.9177 68.995 49.679 68.995 46.9227C68.995 44.1665 66.7563 41.9277 64 41.9277C61.2438 41.9277 59.005 44.1665 59.005 46.9227C59.005 49.679 61.2438 51.9177 64 51.9177Z" stroke="#00E3C0" stroke-width="1.8"/>
<defs>
<linearGradient id="paint0_linear_2001_5600" x1="64" y1="128" x2="64" y2="0.000274657" gradientUnits="userSpaceOnUse">
<stop stop-color="#004A52"/>
<stop offset="1" stop-color="#002333"/>
</linearGradient>
<clipPath id="clip0_2001_5600">
<rect width="128" height="128" fill="white"/>
</clipPath>
</defs>
</svg>
