<?xml version="1.0" encoding="UTF-8"?> <svg xmlns="http://www.w3.org/2000/svg" width="128" height="128" viewBox="0 0 128 128" fill="none"><path d="M95.9 112H16.1C7.175 112 0 104.825 0 95.9V16.1C0 7.175 7.175 0 16.1 0H95.8125C104.825 0 112 7.175 112 16.1V95.8125C112 104.825 104.825 112 95.9 112Z" fill="#002333"></path><path d="M95.9 0H16.1C7.175 0 0 7.175 0 16.1V69.125C16.5375 76.0375 35.7 79.975 56.175 79.975C76.475 79.975 95.55 76.125 112 69.3V16.1C112 7.175 104.825 0 95.9 0Z" fill="url(#paint0_linear_918_28509)"></path><path d="M95.9 3.5C102.9 3.5 108.5 9.1875 108.5 16.1V95.8125C108.5 102.812 102.813 108.413 95.9 108.413H16.1C9.1 108.413 3.5 102.725 3.5 95.8125V16.1C3.5 9.1875 9.1875 3.5 16.1 3.5H95.9ZM95.9 0H16.1C7.175 0 0 7.175 0 16.1V95.8125C0 104.825 7.175 112 16.1 112H95.8125C104.738 112 111.913 104.825 111.913 95.9V16.1C112 7.175 104.825 0 95.9 0Z" fill="#002333"></path><rect x="88.5" y="88.5" width="39" height="39" rx="4.5" fill="url(#paint1_linear_918_28509)" stroke="#C2CACE"></rect><path d="M56 35.5747V41.068C56 41.7667 56.645 42.2505 57.3222 42.1107C57.9887 41.971 58.7198 41.9925 59.483 42.2397C60.9343 42.7127 62.063 43.949 62.364 45.4432C62.9122 48.206 60.816 50.6247 58.15 50.6247C57.8383 50.6247 57.548 50.5925 57.2577 50.528C56.6127 50.3775 56 50.915 56 51.5815V57.0747H61.4933C62.192 57.0747 62.6758 57.7197 62.536 58.4077C62.3963 59.0742 62.4178 59.8052 62.665 60.5577C63.1273 62.009 64.3743 63.1485 65.8685 63.4387C68.6313 63.987 71.05 61.8907 71.05 59.2247C71.05 58.913 71.0178 58.6227 70.9533 58.3325C70.8028 57.6875 71.3403 57.0747 72.0068 57.0747H77.5" stroke="#00E3C0" stroke-width="1.8" stroke-linecap="round" stroke-linejoin="round"></path><path d="M77.5 57.0747V50.6247C77.5 39.8747 73.2 35.5747 62.45 35.5747H56" stroke="#00E3C0" stroke-width="1.8" stroke-linecap="round" stroke-linejoin="round"></path><path d="M77.4999 57.0747H72.0067C71.3079 57.0747 70.8242 57.7197 70.9639 58.4077C71.1037 59.0742 71.0822 59.8052 70.8349 60.5577C70.3727 62.009 69.1257 63.1485 67.6314 63.4387C64.8687 63.987 62.4499 61.8907 62.4499 59.2247C62.4499 58.913 62.4822 58.6227 62.5467 58.3325C62.6972 57.6875 62.1597 57.0747 61.4932 57.0747H55.9999V62.568C55.9999 63.2667 55.3549 63.7505 54.6669 63.6107C54.0004 63.471 53.2694 63.4925 52.5169 63.7397C51.0657 64.202 49.9262 65.449 49.6359 66.9432C49.0877 69.706 51.1839 72.1247 53.8499 72.1247C54.1617 72.1247 54.4519 72.0925 54.7422 72.028C55.3872 71.8775 55.9999 72.415 55.9999 73.0815V78.5747" stroke="#00E3C0" stroke-width="1.8" stroke-linecap="round" stroke-linejoin="round"></path><path d="M77.4999 61.375V63.525C77.4999 74.275 73.1999 78.575 62.4499 78.575H60.2999" stroke="#00E3C0" stroke-width="1.8" stroke-linecap="round" stroke-linejoin="round"></path><path d="M56 78.5748V73.0815C56 72.3828 55.355 71.899 54.667 72.0388C54.0005 72.1785 53.2695 72.157 52.517 71.9098C51.0657 71.4475 49.9263 70.2005 49.636 68.7063C49.0878 65.9435 51.184 63.5248 53.85 63.5248C54.1618 63.5248 54.452 63.557 54.7423 63.6215C55.3873 63.772 56 63.2345 56 62.568V57.0748H50.5068C49.808 57.0748 49.3242 56.4298 49.464 55.7418C49.6037 55.0753 49.5822 54.3443 49.335 53.5918C48.8727 52.1405 47.6258 51.001 46.1315 50.7108C43.3688 50.1625 40.95 52.2588 40.95 54.9248C40.95 55.2365 40.9823 55.5268 41.0468 55.817C41.1973 56.462 40.6598 57.0748 39.9933 57.0748H34.5" stroke="#00E3C0" stroke-width="1.8" stroke-linecap="round" stroke-linejoin="round"></path><path d="M34.5 57.0747V63.5247C34.5 74.2747 38.8 78.5747 49.55 78.5747H56" stroke="#00E3C0" stroke-width="1.8" stroke-linecap="round" stroke-linejoin="round"></path><path d="M34.5 57.0747H39.9933C40.692 57.0747 41.1757 56.4297 41.036 55.7417C40.8962 55.0752 40.9178 54.3442 41.165 53.5917C41.6273 52.1405 42.8742 51.001 44.3685 50.7107C47.1312 50.1625 49.55 52.2587 49.55 54.9247C49.55 55.2365 49.5177 55.5267 49.4532 55.817C49.3027 56.462 49.8402 57.0747 50.5067 57.0747H56V51.5815C56 50.8827 56.645 50.399 57.3222 50.5387C57.9887 50.6785 58.7198 50.657 59.483 50.4097C60.9343 49.9367 62.063 48.6897 62.364 47.1955C62.9122 44.4435 60.816 42.0247 58.15 42.0247C57.8382 42.0247 57.548 42.057 57.2577 42.1215C56.6127 42.272 56 41.7345 56 41.068V35.5747" stroke="#00E3C0" stroke-width="1.8" stroke-linecap="round" stroke-linejoin="round"></path><path d="M51.7 35.5747H49.55C38.8 35.5747 34.5 39.8747 34.5 50.6247V52.7747" stroke="#00E3C0" stroke-width="1.8" stroke-linecap="round" stroke-linejoin="round"></path><path fill-rule="evenodd" clip-rule="evenodd" d="M98.6819 103.255L98.7668 113L100.931 115.705L107.426 119.183L115.405 115.233L117.061 111.24L116.891 98.3174L110.864 98.1457L104.582 99.176L98.8519 102.525L98.6819 103.255Z" fill="#301506"></path><path d="M107.98 96.2121C104.197 96.2121 100.898 96.9529 98.1722 98.4137V110.092C98.1722 112.55 99.0851 114.605 100.812 116.036C102.415 117.367 107.373 119.559 107.98 119.825C108.556 119.571 113.573 117.345 115.151 116.036C116.876 114.606 117.789 112.55 117.789 110.092V98.4137C115.064 96.9527 111.764 96.2119 107.98 96.2119L107.98 96.2121ZM113.581 98.4734C114.709 98.4884 115.817 98.5588 116.888 98.6595V110.092C116.888 112.289 116.1 114.064 114.579 115.331C113.22 116.463 109.123 118.319 107.98 118.829C106.822 118.313 102.715 116.433 101.381 115.332C99.8688 114.086 99.073 112.269 99.073 110.093V103.412C103.417 99.3825 108.693 98.409 113.581 98.4737L113.581 98.4734ZM108.236 103.797C107.305 103.797 106.554 104.007 105.936 104.411V115.66H107.643V112.026C107.813 112.077 108.06 112.124 108.411 112.124C110.304 112.124 111.393 110.397 111.393 107.877C111.393 105.36 110.272 103.797 108.236 103.797L108.236 103.797ZM114.069 103.797C112.946 103.83 111.772 104.653 111.779 106.047C111.782 106.965 112.034 107.652 113.441 108.487C114.191 108.933 114.494 109.226 114.507 109.768C114.521 110.37 114.11 110.733 113.484 110.731C112.939 110.726 112.288 110.421 111.852 110.028V111.617C112.387 111.94 113.054 112.153 113.728 112.153C115.414 112.153 116.167 110.948 116.2 109.844C116.232 108.837 115.957 108.076 114.531 107.228C113.894 106.851 113.392 106.603 113.408 105.974C113.425 105.361 113.928 105.146 114.412 105.15C115.008 105.155 115.585 105.489 115.941 105.859V104.358C115.641 104.124 115.006 103.768 114.069 103.797L114.069 103.797ZM99.9448 103.972V109.398C99.9448 111.227 100.8 112.153 102.489 112.153C103.533 112.153 104.408 111.908 105.06 111.46V103.972H103.357V110.478C103.171 110.606 102.896 110.689 102.549 110.689C101.767 110.689 101.65 109.963 101.65 109.474V103.972H99.9447L99.9448 103.972ZM108.247 105.187C109.237 105.187 109.648 105.987 109.648 107.92C109.648 109.807 109.178 110.719 108.196 110.719C107.965 110.719 107.764 110.661 107.642 110.614V105.312C107.781 105.242 108.016 105.187 108.247 105.187V105.187Z" fill="#FAB80A"></path><defs><linearGradient id="paint0_linear_918_28509" x1="56" y1="112" x2="56" y2="0.000240325" gradientUnits="userSpaceOnUse"><stop stop-color="#004A52"></stop><stop offset="1" stop-color="#002333"></stop></linearGradient><linearGradient id="paint1_linear_918_28509" x1="89.5" y1="89.5" x2="128" y2="127" gradientUnits="userSpaceOnUse"><stop stop-color="white"></stop><stop offset="1" stop-color="#F2F4F5"></stop></linearGradient></defs></svg> 