<svg xmlns="http://www.w3.org/2000/svg" fill="none" viewBox="0 0 120 120"><mask id="a" width="120" height="120" x="0" y="0" maskUnits="userSpaceOnUse" style="mask-type:luminance"><path fill="#fff" d="M120 0H0v120h120V0Z"/></mask><g mask="url(#a)"><mask id="b" width="120" height="120" x="0" y="0" maskUnits="userSpaceOnUse" style="mask-type:luminance"><path fill="#fff" d="M120 0H0v120h120V0Z"/></mask><g mask="url(#b)"><path fill="#fff" d="M74.822 32.531H27.299v72.3h47.523v-72.3Z"/><path fill="#3C4043" fill-rule="evenodd" d="M26.617 32.526c0-.377.305-.682.682-.682h47.523c.376 0 .681.305.681.682v72.3a.681.681 0 0 1-.681.681H27.299a.681.681 0 0 1-.682-.681v-72.3Zm1.364.681v70.937H74.14V33.207H27.98Z" clip-rule="evenodd"/><path fill="#3C4043" fill-rule="evenodd" d="M33.573 81.533c0-.376.306-.681.682-.681h17.618a.682.682 0 1 1 0 1.363H34.255a.682.682 0 0 1-.682-.682Z" clip-rule="evenodd"/><path fill="#FBBC04" d="M35.4 91.343c.927 0 1.69-.75 1.69-1.691 0-.941-.75-1.691-1.69-1.691-.941 0-1.691.75-1.691 1.69a1.69 1.69 0 0 0 1.69 1.692ZM42.247 91.343c.927 0 1.69-.75 1.69-1.691 0-.941-.75-1.691-1.69-1.691-.941 0-1.691.75-1.691 1.69 0 .942.75 1.692 1.69 1.692ZM49.078 91.343c.927 0 1.69-.75 1.69-1.691 0-.941-.75-1.691-1.69-1.691-.941 0-1.691.75-1.691 1.69a1.69 1.69 0 0 0 1.69 1.692Z"/><path fill="#D2E3FC" d="M68.442 38.89H33.669v34.773h34.773V38.891Z"/><path fill="#fff" d="M102.737 18.023H55.214v72.3h47.523v-72.3Z"/><path fill="#3C4043" fill-rule="evenodd" d="M54.532 18.018c0-.377.306-.682.682-.682h47.523c.376 0 .682.305.682.682v72.3a.682.682 0 0 1-.682.682H55.214a.682.682 0 0 1-.682-.682v-72.3Zm1.364.682v70.936h46.159V18.7h-46.16Z" clip-rule="evenodd"/><path fill="#3C4043" fill-rule="evenodd" d="M61.486 67.041c0-.376.306-.682.682-.682h23.36a.682.682 0 1 1 0 1.364h-23.36a.682.682 0 0 1-.682-.682Z" clip-rule="evenodd"/><path fill="#FBBC04" d="M63.313 76.679c.927 0 1.69-.75 1.69-1.691 0-.941-.75-1.691-1.69-1.691s-1.69.75-1.69 1.69c0 .942.763 1.692 1.69 1.692ZM70.159 76.679c.927 0 1.69-.75 1.69-1.691 0-.941-.75-1.691-1.69-1.691-.941 0-1.691.75-1.691 1.69 0 .942.75 1.692 1.69 1.692ZM77.003 76.679c.928 0 1.691-.75 1.691-1.691 0-.941-.75-1.691-1.69-1.691-.942 0-1.692.75-1.692 1.69 0 .942.764 1.692 1.691 1.692ZM83.836 76.679c.928 0 1.691-.75 1.691-1.691 0-.941-.75-1.691-1.69-1.691-.942 0-1.692.75-1.692 1.69 0 .942.764 1.692 1.691 1.692ZM90.803 76.679c.928 0 1.691-.75 1.691-1.691 0-.941-.75-1.691-1.69-1.691-.942 0-1.692.75-1.692 1.69 0 .942.764 1.692 1.691 1.692Z"/><path fill="#D2E3FC" d="M96.368 24.398H61.595v34.773h34.773V24.398Z"/><path fill="#3C4043" d="m55.214 90.602 19.609 3.3v-3.3h-19.61Z"/><path fill="#3C4043" fill-rule="evenodd" d="M54.535 90.547a.682.682 0 0 1 .68-.625h19.608c.377 0 .682.305.682.682v3.3a.682.682 0 0 1-.795.672l-19.61-3.3a.682.682 0 0 1-.565-.73Zm8.839.739 10.767 1.811v-1.811H63.374Z" clip-rule="evenodd"/><path fill="#34A853" d="M85.486 51.617V40.98c.668.655 1.323 1.323 1.991 1.978l4.473-4.487-4.596-4.595a6.58 6.58 0 0 0-3.94-1.882l-1.323-.04-.11.422a3.015 3.015 0 0 1-2.917 2.29c-1.378 0-2.591-.94-2.919-2.29l-.177-.423h-.436a6.54 6.54 0 0 0-4.664 1.936l-4.5 4.5 4.487 4.473c.64-.627 1.281-1.268 1.922-1.895v10.636h12.71v.014Z"/><path fill="#4285F4" d="M27.163 53.118c9.041 0 16.364-7.323 16.364-16.364 0-9.04-7.323-16.363-16.364-16.363-9.04 0-16.363 7.322-16.363 16.363s7.322 16.364 16.363 16.364Z"/><path fill="#fff" fill-rule="evenodd" d="M33.808 34.198a1.023 1.023 0 0 1-.061 1.445l-6.6 6.068c-.39.358-.99.36-1.38.003L23.47 39.63c-.538-.487-1.076-.975-1.613-1.464l-4.344 3.92a1.023 1.023 0 1 1-1.37-1.518l5.031-4.54c.39-.353.985-.352 1.374.002.763.695 1.529 1.39 2.296 2.085l1.607 1.458 5.912-5.435a1.023 1.023 0 0 1 1.445.06Z" clip-rule="evenodd"/><path fill="#fff" d="m36.394 31.625-5.7 1.364 4.35 4.35 1.35-5.7v-.014Z"/><path fill="#fff" fill-rule="evenodd" d="M36.817 31.084c.164.13.26.327.26.535v.014a.681.681 0 0 1-.019.157l-1.35 5.7a.682.682 0 0 1-1.146.325l-4.35-4.35a.682.682 0 0 1 .324-1.145l5.7-1.364a.682.682 0 0 1 .58.128Zm-4.779 2.278 2.625 2.625.816-3.448-3.44.823Z" clip-rule="evenodd"/></g></g></svg>