<svg width="88" height="88" viewBox="0 0 88 88" fill="none" xmlns="http://www.w3.org/2000/svg">
<g clip-path="url(#clip0_10970_67056)">
<rect width="88" height="88" fill="white"/>
<g opacity="0.3">
<mask id="mask0_10970_67056" style="mask-type:luminance" maskUnits="userSpaceOnUse" x="0" y="0" width="88" height="88">
<path d="M88 0H0V88H88V0Z" fill="white"/>
</mask>
<g mask="url(#mask0_10970_67056)">
<mask id="mask1_10970_67056" style="mask-type:luminance" maskUnits="userSpaceOnUse" x="0" y="0" width="88" height="88">
<path d="M88 0H0V88H88V0Z" fill="white"/>
</mask>
<g mask="url(#mask1_10970_67056)">
<path d="M54.8695 23.8516H20.0195V76.8716H54.8695V23.8516Z" fill="white" stroke="#3C4043" stroke-linecap="round" stroke-linejoin="round"/>
<path d="M25.1201 59.7891H38.0401" stroke="#3C4043" stroke-linecap="round" stroke-linejoin="round"/>
<path d="M25.9597 66.98C26.6397 66.98 27.1997 66.43 27.1997 65.74C27.1997 65.05 26.6497 64.5 25.9597 64.5C25.2697 64.5 24.7197 65.05 24.7197 65.74C24.7197 66.43 25.2797 66.98 25.9597 66.98Z" fill="#FBBC04"/>
<path d="M30.9802 66.98C31.6602 66.98 32.2202 66.43 32.2202 65.74C32.2202 65.05 31.6702 64.5 30.9802 64.5C30.2902 64.5 29.7402 65.05 29.7402 65.74C29.7402 66.43 30.2902 66.98 30.9802 66.98Z" fill="#FBBC04"/>
<path d="M35.99 66.98C36.67 66.98 37.23 66.43 37.23 65.74C37.23 65.05 36.68 64.5 35.99 64.5C35.3 64.5 34.75 65.05 34.75 65.74C34.75 66.43 35.31 66.98 35.99 66.98Z" fill="#FBBC04"/>
<path d="M50.1904 28.5156H24.6904V54.0156H50.1904V28.5156Z" fill="#D2E3FC"/>
<path d="M75.3402 13.2109H40.4902V66.2309H75.3402V13.2109Z" fill="white" stroke="#3C4043" stroke-linecap="round" stroke-linejoin="round"/>
<path d="M45.5898 49.1562H62.7198" stroke="#3C4043" stroke-linecap="round" stroke-linejoin="round"/>
<path d="M46.4295 56.23C47.1095 56.23 47.6695 55.68 47.6695 54.99C47.6695 54.3 47.1195 53.75 46.4295 53.75C45.7395 53.75 45.1895 54.3 45.1895 54.99C45.1895 55.68 45.7495 56.23 46.4295 56.23Z" fill="#FBBC04"/>
<path d="M51.45 56.23C52.13 56.23 52.69 55.68 52.69 54.99C52.69 54.3 52.14 53.75 51.45 53.75C50.76 53.75 50.21 54.3 50.21 54.99C50.21 55.68 50.76 56.23 51.45 56.23Z" fill="#FBBC04"/>
<path d="M56.4695 56.23C57.1495 56.23 57.7095 55.68 57.7095 54.99C57.7095 54.3 57.1595 53.75 56.4695 53.75C55.7795 53.75 55.2295 54.3 55.2295 54.99C55.2295 55.68 55.7895 56.23 56.4695 56.23Z" fill="#FBBC04"/>
<path d="M61.4802 56.23C62.1602 56.23 62.7202 55.68 62.7202 54.99C62.7202 54.3 62.1702 53.75 61.4802 53.75C60.7902 53.75 60.2402 54.3 60.2402 54.99C60.2402 55.68 60.8002 56.23 61.4802 56.23Z" fill="#FBBC04"/>
<path d="M66.5896 56.23C67.2696 56.23 67.8296 55.68 67.8296 54.99C67.8296 54.3 67.2796 53.75 66.5896 53.75C65.8996 53.75 65.3496 54.3 65.3496 54.99C65.3496 55.68 65.9096 56.23 66.5896 56.23Z" fill="#FBBC04"/>
<path d="M70.6699 17.8906H45.1699V43.3906H70.6699V17.8906Z" fill="#D2E3FC"/>
<path d="M40.4902 66.4375L54.8702 68.8575V66.4375H40.4902Z" fill="#3C4043" stroke="#3C4043" stroke-linecap="round" stroke-linejoin="round"/>
<path d="M62.6899 37.8497V30.0497C63.1799 30.5297 63.6599 31.0197 64.1499 31.4997L67.4299 28.2097L64.0599 24.8397C63.2799 24.0597 62.2599 23.5797 61.1699 23.4597L60.1999 23.4297L60.1199 23.7397C59.8699 24.7297 58.9899 25.4197 57.9799 25.4197C56.9699 25.4197 56.0799 24.7297 55.8399 23.7397L55.7099 23.4297H55.3899C54.0999 23.4297 52.8899 23.9297 51.9699 24.8497L48.6699 28.1497L51.9599 31.4297C52.4299 30.9697 52.8999 30.4997 53.3699 30.0397V37.8397H62.6899V37.8497Z" fill="#34A853"/>
<path d="M19.9199 38.9531C26.5499 38.9531 31.9199 33.5831 31.9199 26.9531C31.9199 20.3231 26.5499 14.9531 19.9199 14.9531C13.2899 14.9531 7.91992 20.3231 7.91992 26.9531C7.91992 33.5831 13.2899 38.9531 19.9199 38.9531Z" fill="#4285F4"/>
<path d="M24.2398 25.5781C22.6298 27.0581 21.0198 28.5381 19.3998 30.0281C18.2798 29.0081 17.1498 27.9881 16.0298 26.9681C14.7998 28.0781 13.5698 29.1881 12.3398 30.2981" stroke="white" stroke-width="1.5" stroke-linecap="round" stroke-linejoin="round"/>
<path d="M26.6898 23.1875L22.5098 24.1875L25.6998 27.3775L26.6898 23.1975V23.1875Z" fill="white" stroke="white" stroke-linecap="round" stroke-linejoin="round"/>
</g>
</g>
</g>
<g style="mix-blend-mode:color">
<rect y="0.5" width="88" height="87" fill="white"/>
</g>
</g>
<defs>
<clipPath id="clip0_10970_67056">
<rect width="88" height="88" fill="white"/>
</clipPath>
</defs>
</svg>
