<?xml version="1.0" encoding="UTF-8"?><svg id="Livello_1" xmlns="http://www.w3.org/2000/svg" viewBox="0 0 170.08 113.39"><defs><style>.cls-1{fill:#f0e19a;}.cls-2{fill:#edb369;}.cls-3{fill:#e8532b;}.cls-4{fill:#e69c8a;}.cls-5{fill:#e5d7c8;}.cls-6{fill:#8db7d8;}.cls-7{fill:#bb4740;}.cls-8{fill:#cf8331;}.cls-9{fill:#bcd5e7;}.cls-10{fill:#df7f70;}.cls-11{fill:#e2a242;}.cls-12{fill:#3f8cad;}.cls-13{fill:#6da4ce;}.cls-14{fill:#315171;}.cls-15{fill:#273558;}.cls-16{fill:#4ec68a;}.cls-17{fill:#765341;}</style></defs><path class="cls-5" d="M131.07,104.11c-3.38-.12-15.5,4.88-19.57,3.93-4.07-.95-13.6-2.37-15.35-2.34-4.26,.07-6.26,2.1-11.12,2.02-4.79-.08-17.96-3.41-20.37-3.41-1.97,0-4.54,1.5-9.34,2.11-4.8,.61-10.17,.88-14.3-.67-2.16-.81-3.78-2.06-6.03-2.79-2.6-.84-5.72-.88-8.69-.88-2.97,0-6.07,.01-8.75-.75-2.67-.76-4.75-2.55-3.87-4.21,7.24-1.48,14.83-2.98,22.43-2.36,2.57,.21,5.13,.66,7.71,.52,4.83-.26,9.61-.97,14.46-.82,4.28,.13,7.23,.57,11.51,.74,3.68,.14,7.04-1.1,10.56-1.76,4.91-.92,10-2.44,15.14-2.2,3.06,.14,6.33,2.02,9.4,2.16,2.81,.13,5.63,.26,8.43,.08,2.78-.17,6.85-1.8,9.65-1.87,3.37-.07,5.34,1.6,8.6,2.11,5.31,.83,10.61,1.76,15.96,2.49,3.73,.51,5.44,.61,7.51,2.61,1.7,1.63,2.37,2.11,.19,3.44-1.48,.9-3.9,1.56-5.83,2.07-4.2,1.1-13.76-.22-18.31-.22Z"/><g><path class="cls-16" d="M142.53,39.2s10.19,34.15,3.69,50.85h-4.34s-6.29-29.28-8.89-35.13l-11.71,9.54s-3.69,12.15-7.59,14.53l-3.69-.22s-.22-15.62,1.95-19.95c2.17-4.34,11.71-14.31,11.71-14.31l18.87-5.3Z"/><path class="cls-3" d="M112.74,31.93s3.81-9.98,9.54-16.27c5.73-6.29,12.34-9.73,17.11-6.79,4.77,2.94,4.55,13.3,4.55,13.3l-5.53,1.39-3.25-7.18-8.24,4.63s11.93,8.97,17.78,19.38c0,0-8.24,10.19-23.42,6.07l1-2.39-9.54-12.15Z"/><path class="cls-7" d="M124.67,47.16c.04-7.1-5.91-12.01-5.91-12.01l-.44,3.9,3.95,5.02-1,2.39c1.18,.32,2.3,.54,3.4,.7Z"/><g><path class="cls-6" d="M114.69,93.39c-4.1,7.33-8.45,9.79-11.25,8.22s-2.98-6.56,1.12-13.89l10.13,5.66Z"/><rect class="cls-13" x="103.72" y="90.53" width="11.61" height=".4" transform="translate(58.22 -41.92) rotate(29.22)"/></g><path class="cls-12" d="M139.71,84.84l8.68-.27s-1.74,12.09-2.82,15.56h-6.65v-1.08s1.95-.4,2.46-2.28c.51-1.9-.21-5.45-1.66-11.93Z"/><path class="cls-12" d="M108.79,74.27l8.58,1.33s-3.94,11.91-5.99,14.91l-8.09-2.47,.32-1.04s3.71,.72,4.74-.93c1.04-1.67,.68-5.17,.44-11.8Z"/><path class="cls-3" d="M112.74,31.93c-.51,5.45,4.42,24.72,4.42,29.5h5.12s4.47-27.98-9.54-29.5Z"/><path class="cls-4" d="M117.23,62.72s.65,7.3,.29,8.68c-.36,1.37-.47,2.55-.42,3.3,.06,.75,3.38,1.54,3.74,1.11,.36-.43,1.08-2.75,.94-3.33-.14-.58-1.45-1.45-1.45-1.45l1.88-8.31h-4.99Z"/><polygon class="cls-7" points="116.29 60.23 116.83 63.59 122.96 63.48 122.96 60.77 116.29 60.23"/><path class="cls-2" d="M150.07,19.93l-10.68,19.35-10.77,19.3-10.85,19.25-5.43,9.62c-1.83,3.2-3.51,6.48-5.87,9.38-.11,.13-.31,.15-.44,.05-.11-.09-.14-.23-.1-.35,1.23-3.53,3.15-6.68,4.91-9.91l5.36-9.66,10.73-19.32,10.8-19.28,10.9-19.23c.23-.4,.73-.54,1.13-.31,.39,.22,.53,.72,.32,1.12Z"/><path class="cls-4" d="M138.63,24.55s1.33,5.93,.1,10.26c0,0,1.93,1.95,2.94,1.66,1.01-.29,1.77-2.87,1.63-3.52-.14-.65-1.45-1.16-1.45-1.16l1.93-6.97-5.14-.29Z"/><polygon class="cls-7" points="136.89 21.9 138.3 25.57 144.81 25.48 144.38 20.3 136.89 21.9"/><path class="cls-4" d="M117.1,73.89s1.14,1.44,1.95,.98c0,0,.49,.79,1.55,.89,0,0,1.06-1.35,1.14-3.4,0,0-1.63-1.15-2.44,1.39l-.41-.92s.84-.05,.76-1.06c-.08-1-1.83-.19-1.83-.19l-.73,2.3Z"/><path class="cls-7" d="M114.69,27.51s1.21,1.6,3.14,2.36v-3.36l3.91-1.12-3.01-5.09s-2.5,3.78-4.04,7.2Z"/><path class="cls-4" d="M117.4,26.09c.43-1.22,1.43-3.39,.99-5.25,0,0-8.6-7.14-9.43-7.03-.83,.11-4.31,3.62-4.15,4.27,.16,.65,2.81,4.96,6.21,6.57l1.6-1.72,2.47,3.73s.93,.17,2.31-.57Z"/><path class="cls-17" d="M108.99,16.82s-.41,2.95-3.32,3.29c-2.96,.34-3.17-4.19-.68-4.02-2.06-2.52,1.21-3.66,3.54-2.42,1.04-2.29,2.63-.19,2.63,.62,.36-1.13,2.85-1.69,2.8,1.76,1.63-.75,1.16,2.1,2.21,2.97,0,0-3.99-.52-5.05-1.2,0,0,.86-1.3-.2-1.5-.71-.13-.5,1.23-.5,1.23l-1.44-.74Z"/></g><g><path class="cls-16" d="M92.73,98.24c-.38-2.11-.41-4.21-.18-6.3,.1-1.05,.38-2.08,.47-3.05,.09-1,.05-2.03-.03-3.05-.16-2.05-.48-4.1-.59-6.17-.07-1.03-.06-2.07,0-3.11,.08-1.03,.27-2.06,.56-3.05-.54,2-.54,4.09-.35,6.14,.18,2.05,.57,4.08,.8,6.14,.12,1.03,.21,2.07,.14,3.13-.07,1.08-.31,2.07-.37,3.08-.16,2.02-.04,4.09,.38,6.04v.03c.06,.23-.09,.47-.33,.52-.23,.05-.47-.1-.52-.33,0,0,0-.01,0-.01Z"/><path class="cls-16" d="M92.51,95.23c-.47-.45-.8-.9-1.13-1.39-.33-.48-.6-.99-.85-1.51-.5-1.04-.86-2.12-1.14-3.22-.3-1.1-.45-2.22-.58-3.34-.05-.56-.08-1.12-.12-1.69l-.02-1.69,.13,1.68c.08,.56,.14,1.11,.23,1.66,.2,1.1,.42,2.2,.78,3.25,.34,1.06,.76,2.08,1.3,3.04,.28,.47,.56,.94,.89,1.37,.32,.43,.7,.86,1.06,1.16l-.55,.67Z"/><path class="cls-16" d="M93.06,89.63c.35-.09,.79-.3,1.15-.54,.38-.24,.73-.53,1.06-.85,.66-.64,1.21-1.41,1.66-2.23,.47-.81,.82-1.7,1.14-2.59l.4-1.37,.32-1.4-.21,1.42c-.09,.47-.2,.94-.3,1.41-.26,.93-.54,1.86-.96,2.73-.41,.88-.92,1.73-1.58,2.48-.34,.37-.69,.72-1.1,1.02-.42,.31-.82,.57-1.39,.76l-.2-.84Z"/><path class="cls-16" d="M87.04,90.42c-1.09-.38-.99-2.01-.99-2.01,0,0,.92-1.35,2.02-.97s1.94,2.33,1.94,2.33c0,0-1.88,1.02-2.97,.64Z"/><path class="cls-16" d="M97.7,83.01c.74-.89,2.23-.22,2.23-.22,0,0,.93,1.34,.19,2.23-.74,.89-2.87,.99-2.87,.99,0,0-.29-2.12,.45-3Z"/><path class="cls-16" d="M93.51,90.76c.74-.89,2.23-.22,2.23-.22,0,0,.93,1.34,.19,2.23-.74,.89-2.87,.99-2.87,.99,0,0-.29-2.12,.45-3Z"/><path class="cls-16" d="M90.84,89.32c-.69-.61-.11-1.8-.11-1.8,0,0,1.11-.73,1.8-.12s.71,2.34,.71,2.34c0,0-1.71,.2-2.41-.42Z"/><path class="cls-16" d="M90.6,84.34c-.89-.31-.81-1.64-.81-1.64,0,0,.75-1.1,1.65-.79,.89,.31,1.59,1.91,1.59,1.91,0,0-1.53,.83-2.43,.52Z"/><path class="cls-16" d="M94.22,86.17c.16-.93,1.49-1.07,1.49-1.07,0,0,1.21,.56,1.05,1.5-.16,.93-1.62,1.88-1.62,1.88,0,0-1.07-1.38-.91-2.31Z"/><path class="cls-16" d="M89.94,77c-.45-1.07,.84-2.07,.84-2.07,0,0,1.62-.21,2.07,.86,.45,1.07-.45,3.01-.45,3.01,0,0-2.01-.72-2.46-1.79Z"/><path class="cls-16" d="M93.42,82.71c.68-.93,2.21-.35,2.21-.35,0,0,1.01,1.28,.33,2.21-.68,.93-2.8,1.17-2.8,1.17,0,0-.42-2.09,.26-3.03Z"/><path class="cls-16" d="M86.74,86.01c-.7-.46-.34-1.59-.34-1.59,0,0,.89-.78,1.59-.32,.7,.46,.95,1.99,.95,1.99,0,0-1.5,.38-2.2-.08Z"/><path class="cls-16" d="M89.38,85.04c.49-.68,1.6-.28,1.6-.28,0,0,.75,.92,.26,1.6-.49,.68-2.03,.87-2.03,.87,0,0-.32-1.52,.16-2.2Z"/><path class="cls-16" d="M92.85,78.42c.49-.68,1.6-.28,1.6-.28,0,0,.75,.92,.26,1.6-.49,.68-2.03,.87-2.03,.87,0,0-.32-1.52,.16-2.2Z"/><path class="cls-16" d="M98.84,79.37c.49-.68,1.6-.28,1.6-.28,0,0,.75,.92,.26,1.6-.49,.68-2.03,.87-2.03,.87,0,0-.32-1.52,.16-2.2Z"/><path class="cls-16" d="M88.61,81.43c.28-.79,1.17-.81,1.17-.81,0,0,.69,.57,.41,1.37-.28,.79-1.41,1.5-1.41,1.5,0,0-.44-1.27-.17-2.06Z"/><path class="cls-16" d="M92.56,72.34c.28-.79,1.17-.81,1.17-.81,0,0,.69,.57,.41,1.37-.28,.79-1.41,1.5-1.41,1.5,0,0-.44-1.27-.17-2.06Z"/></g><g><path class="cls-16" d="M125.66,98.04c.41-1.61,.53-3.36,.37-5.05-.06-.85-.3-1.67-.37-2.59-.06-.9,.02-1.78,.14-2.65,.23-1.74,.61-3.44,.79-5.16,.11-.86,.13-1.73,.1-2.6-.04-.87-.2-1.72-.46-2.56,.29,.82,.48,1.68,.55,2.55,.06,.87,.07,1.75,0,2.62-.12,1.75-.44,3.47-.6,5.19-.08,.86-.13,1.72-.04,2.56,.09,.81,.37,1.68,.47,2.56,.23,1.77,.19,3.55-.19,5.33-.05,.21-.26,.35-.47,.3-.21-.05-.35-.26-.3-.47,0,0,0,0,0-.01v-.03Z"/><path class="cls-16" d="M126.19,95.08c.7-.5,1.35-1.25,1.87-2.01,.53-.78,.96-1.64,1.32-2.52,.35-.89,.6-1.82,.79-2.77,.1-.47,.15-.95,.23-1.43l.13-1.45-.03,1.46c-.05,.48-.06,.97-.13,1.45-.13,.97-.32,1.93-.61,2.87-.3,.94-.68,1.85-1.19,2.71-.52,.86-1.09,1.66-1.93,2.35l-.45-.66Z"/><path class="cls-16" d="M126.21,93.9c-.9-.63-1.59-1.36-2.25-2.16-.65-.8-1.2-1.66-1.68-2.56-.46-.91-.87-1.84-1.16-2.81-.17-.47-.27-.97-.41-1.46-.11-.49-.2-.99-.3-1.48,.13,.49,.25,.97,.39,1.45,.17,.47,.3,.96,.5,1.42,.36,.94,.82,1.82,1.32,2.68,.53,.84,1.12,1.64,1.79,2.36,.66,.71,1.42,1.39,2.21,1.87l-.41,.68Z"/><path class="cls-16" d="M132.16,91.65c1.09-.32,.99-1.69,.99-1.69,0,0-.92-1.13-2.02-.82-1.09,.32-1.94,1.96-1.94,1.96,0,0,1.88,.86,2.97,.54Z"/><path class="cls-16" d="M121.5,85.41c-.74-.75-2.23-.18-2.23-.18,0,0-.93,1.13-.19,1.87,.74,.75,2.87,.83,2.87,.83,0,0,.29-1.78-.45-2.53Z"/><path class="cls-16" d="M122.45,90.49c-1.05-.04-1.74,1.4-1.74,1.4,0,0,.09,1.46,1.15,1.5,1.05,.04,2.66-1.36,2.66-1.36,0,0-1.01-1.49-2.06-1.53Z"/><path class="cls-16" d="M128.36,90.73c.69-.52,.11-1.52,.11-1.52,0,0-1.11-.61-1.8-.1s-.71,1.97-.71,1.97c0,0,1.71,.16,2.41-.35Z"/><path class="cls-16" d="M128.69,84.99c.69-.63,.12-1.6,.12-1.6,0,0-1.09-.5-1.77,.13-.69,.63-.72,2.14-.72,2.14,0,0,1.69-.05,2.37-.68Z"/><path class="cls-16" d="M124.98,88.07c-.16-.78-1.49-.9-1.49-.9,0,0-1.21,.47-1.05,1.26,.16,.78,1.62,1.58,1.62,1.58,0,0,1.07-1.16,.91-1.94Z"/><path class="cls-16" d="M128.85,80.22c.43-.9-.46-1.59-.46-1.59,0,0-1.22,0-1.65,.9-.43,.9,.09,2.38,.09,2.38,0,0,1.59-.78,2.02-1.69Z"/><path class="cls-16" d="M125.78,85.16c-.68-.79-2.21-.3-2.21-.3,0,0-1.01,1.08-.33,1.86,.68,.79,2.8,.98,2.8,.98,0,0,.42-1.76-.26-2.55Z"/><path class="cls-16" d="M132.46,87.94c.7-.39,.34-1.34,.34-1.34,0,0-.89-.66-1.59-.27-.7,.39-.95,1.68-.95,1.68,0,0,1.5,.32,2.2-.07Z"/><path class="cls-16" d="M129.82,87.12c-.49-.58-1.6-.23-1.6-.23,0,0-.75,.77-.26,1.35s2.03,.73,2.03,.73c0,0,.32-1.28-.16-1.85Z"/><path class="cls-16" d="M126,81.07c-.65-.81-1.84-.58-1.84-.58,0,0-.71,.83-.05,1.64,.65,.81,2.41,1.28,2.41,1.28,0,0,.14-1.54-.51-2.34Z"/><path class="cls-16" d="M120.36,82.35c-.49-.58-1.6-.23-1.6-.23,0,0-.75,.77-.26,1.35s2.03,.73,2.03,.73c0,0,.32-1.28-.16-1.85Z"/><path class="cls-16" d="M131.29,83.78c-.13-.89-1.21-1.18-1.21-1.18,0,0-.98,.37-.85,1.26,.13,.89,1.33,1.96,1.33,1.96,0,0,.87-1.15,.74-2.03Z"/><path class="cls-16" d="M126.61,76.65c-.36-.91-1.29-1.02-1.29-1.02,0,0-.66,.56-.3,1.46,.36,.91,1.61,1.81,1.61,1.81,0,0,.34-1.35-.02-2.25Z"/></g><g><path class="cls-16" d="M69.92,95.83c2.7-.51,5.26-.34,7.57,.31,1.17,.32,2.2,.86,3.23,1.25,1.05,.4,2.16,.72,3.26,1.07,2.19,.69,4.37,1.47,6.32,2.62,1.96,1.13,3.69,2.65,4.79,4.54-1.16-1.85-2.93-3.3-4.9-4.35-1.97-1.07-4.15-1.77-6.37-2.39-1.11-.31-2.25-.6-3.37-.97-1.14-.38-2.14-.86-3.28-1.12-2.24-.55-4.77-.61-7.23-.06-.01,0-.02,0-.03,0-.3,.07-.54-.08-.55-.32,0-.25,.23-.51,.54-.57,0,0,.01,0,.02,0Z"/><path class="cls-16" d="M73.65,95.64c1.35-.86,2.75-1.29,4.2-1.58,1.44-.27,2.9-.31,4.3-.18,1.42,.11,2.77,.45,4.08,.87,.65,.22,1.27,.49,1.89,.75,.6,.3,1.19,.61,1.78,.93-.6-.29-1.21-.57-1.83-.84-.64-.23-1.27-.46-1.93-.64-1.32-.35-2.67-.6-4.05-.64-1.38-.05-2.77,.06-4.12,.39-1.32,.32-2.69,.85-3.69,1.57-.21-.21-.41-.42-.62-.62Z"/><path class="cls-16" d="M79.91,97.21c-.09,.79,.2,1.73,.6,2.54,.41,.83,.97,1.59,1.59,2.3,.6,.73,1.3,1.38,1.97,2.05,.36,.31,.71,.63,1.05,.95,.36,.3,.71,.61,1.05,.92-.36-.29-.74-.57-1.12-.84-.37-.3-.74-.59-1.12-.87-.73-.61-1.49-1.22-2.17-1.92-.7-.68-1.37-1.43-1.9-2.27-.26-.43-.5-.87-.67-1.34-.18-.48-.31-.95-.3-1.55,.34,0,.68,.02,1.02,.03Z"/><path class="cls-16" d="M81.78,91.22c1.04-.92,2.98-.15,2.97-.14,.01,0,1.05,1.42,0,2.24-1.03,.79-3.67,.9-3.68,.92,0,0-.32-2.12,.7-3.02Z"/><path class="cls-16" d="M84.6,103.92c.47,1.05-.73,2.11-.72,2.11,0-.01-1.49,.33-2.03-.66-.56-1,.11-3.04,.13-3.04,0-.02,2.15,.51,2.62,1.59Z"/><path class="cls-16" d="M78.47,97.35c.69,.94-.58,2.23-.56,2.24,0-.01-1.72,.65-2.48-.2-.78-.86-.24-3.04-.22-3.04,0-.03,2.57,.03,3.27,1Z"/><path class="cls-16" d="M81.21,95.17c1.03-.46,2.08,.54,2.07,.54,0,0,.25,1.3-.73,1.71-.96,.4-2.84-.09-2.85-.08,0,0,.48-1.72,1.51-2.18Z"/><path class="cls-16" d="M86.77,97c.82-.64,2.16,.17,2.15,.17,0,0,.66,1.25-.16,1.82-.81,.56-2.73,.38-2.73,.39,0,0-.06-1.75,.75-2.38Z"/><path class="cls-16" d="M83.08,99.45c.88,.51,.4,1.79,.41,1.78,0,0-1.05,.89-1.9,.43-.85-.46-1.28-2.14-1.28-2.14,0-.01,1.88-.6,2.77-.08Z"/><path class="cls-16" d="M94.25,100.92c1.25,.44,1.2,2.12,1.2,2.11,0,0-.92,1.28-2.05,.88-1.12-.4-2.27-2.31-2.29-2.31-.02,0,1.88-1.14,3.14-.69Z"/><path class="cls-16" d="M86.9,100.26c.53,1.06-.78,2.1-.77,2.1,0-.01-1.64,.31-2.23-.68-.61-1,.1-3.04,.11-3.04,0-.02,2.35,.53,2.89,1.61Z"/><path class="cls-16" d="M87.15,92.81c.95-.38,2,.56,1.99,.57,0,0,.29,1.18-.63,1.51-.91,.32-2.71-.2-2.72-.19,0,0,.41-1.51,1.36-1.89Z"/><path class="cls-16" d="M86.7,95.6c.45,.76-.59,1.53-.58,1.54,0,0-1.34,.24-1.83-.48-.5-.73,.08-2.21,.08-2.21,0-.01,1.87,.37,2.33,1.15Z"/><path class="cls-16" d="M91.16,102.2c.3,.81-.7,1.44-.69,1.45,0,0-1.19,.06-1.53-.72-.35-.79,.32-2.18,.33-2.18,0-.01,1.59,.62,1.89,1.44Z"/><path class="cls-16" d="M87.2,106.63c.32,.77-.51,1.52-.5,1.53,0,0-1.03,.21-1.38-.53-.36-.74,.11-2.2,.12-2.2,0,0,1.44,.42,1.76,1.2Z"/><path class="cls-16" d="M90.91,96.95c.62,.71,.07,1.44,.07,1.44,0,0-.97,.2-1.59-.48-.62-.68-.7-2.02-.7-2.02,0,0,1.6,.34,2.22,1.07Z"/><path class="cls-16" d="M96.24,106.21c.39,.79-.21,1.41-.21,1.41,0,0-.85,.04-1.24-.73-.39-.77-.22-2.09-.22-2.09,0,0,1.28,.61,1.67,1.41Z"/></g><path class="cls-17" d="M100.35,98.65c.72-.36,1.65-.42,2.29,.06,.4,.3,.84,.83,1.28,.59,.13-.07,.23-.21,.38-.25,.42-.1,.51,.58,.8,.9,.3,.33,.84,.25,1.23,.04,.39-.2,.76-.51,1.2-.55,.35-.03,.69,.1,1.02,.23,.49,.2,.98,.4,1.48,.6,.82,.34,1.68,.7,2.22,1.4,.17,.22,.31,.51,.24,.79-.07,.26-.32,.42-.56,.54-.79,.38-1.41,.3-2.23,.27-.99-.03-1.97,.16-2.98,.09-1.52-.09-3.03-.41-4.46-.95-.97-.37-2.9-.85-3.45-1.79-.45-.78,.83-1.63,1.55-1.99Z"/><g><path class="cls-15" d="M52.09,58.31s0,22.37,3.51,37.77c0,0-10.7-.15-13.54-39.28l10.03,1.5Z"/><path class="cls-14" d="M53.43,46.27c-7.69-6.69-15.88-1.84-19.56,5.02s-7.36,41.01,.84,45.25c0,0,1.5-21.34,8.19-37.56,0,0,.33,.18,.88,.46,.76-2.08,3.62-8.39,9.15-4.3,2.37,1.58,3.52,5.76,3.66,8.23,.01,0,.03,0,.04,0,.03-2.06-.32-6.66-3.62-9.57l4.68-.57s1.6,2.85,2.07,6.62c.58-3.58-1.29-9.17-6.33-13.56Z"/><path class="cls-1" d="M48.29,89.45l6.52-1.84s.77,6.68,1.29,7.99c.28,.7,2.14,1.6,2.14,1.6v.66h-5.99s-3.06-4.86-3.96-8.4Z"/><path class="cls-1" d="M29.52,87.61h6.98s-1.1,6.74-.62,7.99c.36,.93,1.26,1.6,1.26,1.6l-.08,.66h-5.31s-2.22-4.98-2.23-10.24Z"/><path class="cls-3" d="M52.93,55.13c-5.53-4.09-8.39,2.22-9.15,4.3,2.38,1.21,9.05,4.36,12.81,3.92-.14-2.47-1.29-6.65-3.66-8.23Z"/><path class="cls-3" d="M53.01,53.78c3.3,2.91,3.64,7.52,3.62,9.57,.1-.01,.21-.01,.31-.03,1.55-.29,2.52-1.62,2.82-3.5-.46-3.77-2.07-6.62-2.07-6.62l-4.68,.57Z"/><path class="cls-4" d="M55.1,78.54c-.07-1.66,0-4.88,.12-8.07l-5.19-1.12c-.87,3.18-1.21,6.77-.27,9.86,4.07,13.38,14.21,15.23,14.21,15.23-5.52-7.18-8.86-15.89-8.86-15.89Z"/><path class="cls-3" d="M55.6,61.49c-.65-2.37-4,2.07-5.58,7.86l5.19,1.12c.16-4.51,.39-8.98,.39-8.98Z"/><path class="cls-3" d="M56.14,58.31s2.84,4.16,5.63,8.45l2.93-3.73c-4.58-4.63-9.54-7-8.56-4.72Z"/><path class="cls-10" d="M70.76,72.03c-1.27-3.41-3.61-6.53-6.06-9.01l-2.93,3.73c1.99,3.06,3.96,6.18,4.84,7.9,0,0,3.44,8.17,3.59,17.23,0,0,5.42-6.75,.55-19.86Z"/><path class="cls-4" d="M57,63.27s1.22,1.72,1.71,3.3c.8,2.59,1.92,3.41,2.33,3.52s3.51-.17,6.32-5.19c2.45-4.37-3.1-7.99-4.56-5.38-2.16,3.87-4.3-.35-4.3-.35,0,0-1.13-1.54-1.5,4.09Z"/><path class="cls-17" d="M59.76,60.73s-1.41,5.32,7.16,4.92c0,0,3.35-2.65,.3-6.32-1.33-1.48-2.95-1.33-2.95-1.33,0,0,2.29-2.99-1.51-2.5-3.8,.49-1.64,3.16-.7,3.14,0,0-1.15,.31-2.3,2.08Z"/><path class="cls-11" d="M69.69,93.68c0,.98-.48,1.98-2.56,1.77-1.41-.15-2.56-.79-2.56-1.77s.82-1.98,2.56-1.77c2.14,.27,2.56,.79,2.56,1.77Z"/><path class="cls-9" d="M62.83,92.9s3.48-.36,3.64,0c.17,.36-1.42,.86-1.42,.86,0,0,1.67,1.59,2.51,1.76,0,0-3.75,3.4-6.31-2.02l1.58-.6Z"/><path class="cls-9" d="M70.15,89.29s-2.77,2.12-2.65,2.5c.13,.38,1.62-.35,1.62-.35,0,0-.08,1.52-.38,2.46-.08,.26,.14,.51,.41,.45,1.3-.26,3.99-1.33,2.55-5.72l-1.56,.65Z"/></g><g><g><path class="cls-11" d="M42.57,81.17c0,.87-.43,1.78-2.29,1.58-1.26-.13-2.29-.71-2.29-1.58s.73-1.78,2.29-1.58c1.91,.24,2.29,.71,2.29,1.58Z"/><path class="cls-11" d="M39.2,80.77c0,.87-.43,1.78-2.29,1.58-1.26-.13-2.29-.71-2.29-1.58s.73-1.78,2.29-1.58c1.91,.24,2.29,.71,2.29,1.58Z"/><path class="cls-11" d="M31.87,79.9c.62,.61,.97,1.55-.48,2.74-.98,.81-2.11,1.14-2.74,.53-.62-.61-.75-1.77,.48-2.74,1.51-1.2,2.11-1.14,2.74-.53Z"/><path class="cls-11" d="M35.46,79.59c.62,.61,.97,1.55-.48,2.74-.98,.81-2.11,1.14-2.74,.53-.62-.61-.75-1.77,.48-2.74,1.51-1.2,2.11-1.14,2.74-.53Z"/><path class="cls-8" d="M31.72,77.71c.73-.49,1.72-.63,2.59,1.03,.59,1.12,.68,2.3-.04,2.79-.73,.49-1.88,.38-2.59-1.03-.86-1.72-.68-2.3,.04-2.79Z"/><path class="cls-11" d="M36.41,76.93c.86,.14,1.69,.7,1.21,2.51-.32,1.22-1.05,2.16-1.92,2.02-.86-.14-1.64-1-1.21-2.51,.53-1.85,1.05-2.16,1.92-2.02Z"/><path class="cls-8" d="M36.75,82.06c-.7-.52-1.17-1.41,.1-2.78,.86-.93,1.94-1.41,2.64-.89s.99,1.65-.1,2.78c-1.34,1.39-1.94,1.41-2.64,.89Z"/></g><path class="cls-6" d="M27.51,93.34c-.06,0-.12-.03-.15-.08-1.31-1.94-.69-6.45,1.56-11.5,.04-.09,.15-.14,.25-.09,.09,.04,.14,.15,.09,.25-2.17,4.86-2.81,9.33-1.59,11.14,.06,.09,.04,.2-.05,.26-.03,.02-.07,.03-.1,.03Z"/><polygon class="cls-9" points="40.9 98.52 29.37 98.52 27.05 81.83 43.22 81.83 40.9 98.52"/><path class="cls-6" d="M43.22,82.28H27.05c-.25,0-.45-.2-.45-.45s.2-.45,.45-.45h16.17c.25,0,.45,.2,.45,.45s-.2,.45-.45,.45Z"/><path class="cls-6" d="M29.22,94.24c-.79,0-1.43-.34-1.87-.99-.06-.09-.04-.2,.05-.26,.09-.06,.2-.04,.26,.05,.37,.55,.89,.82,1.56,.82,3.02,0,7.9-5.43,10.89-12.11,.04-.09,.15-.14,.25-.09,.09,.04,.14,.15,.09,.25-3.04,6.8-8.08,12.33-11.23,12.33Z"/></g><g><path class="cls-11" d="M64.16,98.93c-.33,.81-1.08,1.48-2.72,.59-1.11-.6-1.85-1.53-1.51-2.34,.33-.81,1.35-1.36,2.72-.59,1.68,.95,1.85,1.53,1.51,2.34Z"/><path class="cls-11" d="M68.68,97.95c.5,.71,.67,1.7-.96,2.62-1.1,.62-2.28,.75-2.79,.03-.5-.71-.43-1.87,.96-2.62,1.7-.91,2.28-.75,2.79-.03Z"/><path class="cls-8" d="M72.12,97.78c.3,.56,.32,1.29-.95,1.8-.86,.34-1.72,.32-2.02-.25-.3-.56-.13-1.4,.95-1.8,1.32-.49,1.72-.32,2.02,.25Z"/></g></svg>