<?xml version="1.0" encoding="UTF-8"?>
<svg xmlns="http://www.w3.org/2000/svg" xmlns:xlink="http://www.w3.org/1999/xlink" width="25px" height="26px" viewBox="0 0 25 25" version="1.1">
<g id="surface1">
<path style=" stroke:none;fill-rule:evenodd;fill:rgb(100%,23.921569%,0%);fill-opacity:1;" d="M 20.320312 0.574219 L 17.855469 2.839844 L 14.824219 0 L 20.097656 0 C 20.398438 0 20.550781 0.367188 20.320312 0.574219 Z M 14.832031 25 L 20.136719 25 C 20.441406 25 20.589844 24.625 20.359375 24.425781 L 17.871094 22.113281 L 14.832031 24.992188 Z M 1.324219 14.703125 C 0.695312 14.089844 0.355469 13.261719 0.355469 12.40625 C 0.355469 11.546875 0.71875 10.71875 1.347656 10.128906 L 7.136719 4.644531 L 11.484375 8.683594 L 7.710938 12.140625 C 7.636719 12.214844 7.589844 12.316406 7.589844 12.421875 C 7.589844 12.523438 7.636719 12.628906 7.71875 12.699219 L 11.535156 16.230469 L 7.183594 20.269531 L 1.316406 14.6875 Z M 4.941406 0 L 12.871094 0 L 23.652344 10.152344 C 24.28125 10.742188 24.644531 11.570312 24.644531 12.429688 C 24.652344 13.269531 24.304688 14.105469 23.699219 14.703125 L 12.902344 24.976562 L 4.917969 24.976562 C 4.617188 24.976562 4.464844 24.609375 4.695312 24.402344 L 17.289062 12.738281 C 17.363281 12.667969 17.410156 12.5625 17.410156 12.460938 C 17.410156 12.355469 17.363281 12.253906 17.28125 12.183594 L 4.71875 0.574219 C 4.496094 0.375 4.648438 0 4.941406 0 Z M 4.941406 0 "/>
</g>
</svg>
