<?xml version="1.0" encoding="UTF-8"?>
<svg id="Livello_1" data-name="Livello 1" xmlns="http://www.w3.org/2000/svg" viewBox="0 0 30.55 31.44">
  <defs>
    <style>
      .cls-1 {
        fill: #ff3d00;
        fill-rule: evenodd;
        stroke-width: 0px;
      }
    </style>
  </defs>
  <path class="cls-1" d="M25.11.72l-3.1,2.85-3.81-3.57h6.63c.38,0,.57.46.28.72ZM18.21,31.44h6.67c.38,0,.57-.47.28-.72l-3.13-2.91-3.82,3.62ZM1.22,18.49c-.79-.77-1.22-1.81-1.22-2.89s.46-2.12,1.25-2.86l7.28-6.9,5.47,5.08-4.75,4.35c-.09.09-.15.22-.15.35s.06.26.16.35l4.8,4.44-5.47,5.08-7.38-7.02ZM5.77,0h9.97l13.56,12.77c.79.74,1.25,1.78,1.25,2.86.01,1.06-.43,2.11-1.19,2.86l-13.58,12.92H5.74c-.38,0-.57-.46-.28-.72l15.84-14.67c.09-.09.15-.22.15-.35s-.06-.26-.16-.35L5.49.72c-.28-.25-.09-.72.28-.72Z"/>
</svg>