<?xml version="1.0" encoding="UTF-8"?><svg id="Layer_1" xmlns="http://www.w3.org/2000/svg" xmlns:xlink="http://www.w3.org/1999/xlink" viewBox="0 0 192.29 40"><defs><style>.cls-1{mask:url(#mask);}.cls-2{fill:#f89e1c;}.cls-3{fill:#f7f7f7;}.cls-4{fill:#f9a533;}.cls-5{fill:#0066b2;}.cls-6{fill:#006fcf;}.cls-7{fill:#fff;}.cls-8{fill:#f16522;}.cls-9{fill:#e41b24;}.cls-10{fill:#36495d;}.cls-11{mask:url(#mask-1);}</style><mask id="mask" x="129.21" y="9.91" width="54.46" height="22.3" maskUnits="userSpaceOnUse"/><mask id="mask-1" x="139.95" y="24.24" width="43.76" height="6.42" maskUnits="userSpaceOnUse"/></defs><rect class="cls-5" x="0" y=".81" width="54.5" height="38.38" rx="6.33" ry="6.33"/><rect class="cls-10" x="64.61" y=".81" width="54.5" height="38.38" rx="6.33" ry="6.33"/><rect class="cls-6" x="129.21" y=".81" width="54.5" height="38.38" rx="6.33" ry="6.33"/><g><g><polygon class="cls-7" points="24.94 26.01 22.1 26.01 23.87 15.11 26.71 15.11 24.94 26.01"/><path class="cls-7" d="M19.71,15.11l-2.71,7.5-.32-1.61h0s-.96-4.9-.96-4.9c0,0-.12-.98-1.35-.98h-4.47l-.05,.18s1.37,.28,2.97,1.25l2.47,9.47h2.96l4.52-10.9h-3.06Z"/><path class="cls-7" d="M42.04,26.01h2.61l-2.27-10.9h-2.28c-1.05,0-1.31,.81-1.31,.81l-4.23,10.09h2.96l.59-1.62h3.61l.33,1.62Zm-3.12-3.86l1.49-4.08,.84,4.08h-2.33Z"/><path class="cls-7" d="M34.77,17.73l.41-2.34s-1.25-.48-2.55-.48c-1.41,0-4.75,.62-4.75,3.61,0,2.82,3.93,2.85,3.93,4.33s-3.52,1.21-4.68,.28l-.42,2.45s1.27,.62,3.2,.62,4.86-1,4.86-3.73-3.96-3.1-3.96-4.33,2.76-1.07,3.98-.41Z"/></g><path class="cls-4" d="M16.68,20.99l-.96-4.9s-.12-.98-1.35-.98h-4.47l-.05,.18s2.15,.45,4.21,2.12c1.97,1.6,2.61,3.58,2.61,3.58Z"/></g><g><rect class="cls-8" x="87.28" y="11.77" width="9.16" height="16.45"/><path class="cls-9" d="M87.86,20c0-3.34,1.56-6.31,4-8.23-1.78-1.4-4.03-2.24-6.47-2.24-5.78,0-10.46,4.69-10.46,10.46s4.68,10.46,10.46,10.46c2.44,0,4.69-.84,6.47-2.24-2.43-1.92-4-4.89-4-8.23"/><path class="cls-2" d="M108.79,20c0,5.78-4.68,10.46-10.46,10.46-2.44,0-4.69-.84-6.47-2.24,2.43-1.92,4-4.89,4-8.23s-1.56-6.31-4-8.23c1.78-1.4,4.03-2.24,6.47-2.24,5.78,0,10.46,4.68,10.46,10.46m-1,6.48v-.34h.14v-.07h-.35v.07h.14v.34h.07Zm.67,0v-.41h-.11l-.12,.28-.12-.28h-.11v.41h.07v-.31l.11,.26h.08l.11-.27v.31h.08Z"/></g><g><g class="cls-1"><path class="cls-3" d="M177,19.42h4.09V9.91h-4.36v1.52l-.97-1.52h-3.8v1.92l-.85-1.92h-6.29c-.3,0-.6,.02-.88,.07-.24,.04-.48,.09-.71,.16-.18,.06-.35,.12-.52,.2-.2,.09-.39,.2-.56,.31v-.74h-20.52l-.56,1.66-.57-1.66h-4.78v1.94l-.86-1.94h-3.9l-1.74,4.07v5.44h2.76l.51-1.37h.97l.52,1.37h21.23v-1.38l1.06,1.38h5.87v-.69c.15,.1,.31,.18,.47,.26,.16,.07,.32,.14,.49,.19,.2,.07,.41,.12,.62,.15,.34,.06,.68,.09,1,.09h3.51l.51-1.37h.97l.52,1.37h5.88v-1.41l.89,1.41Zm6.67,12.2v-8.93h-33.78l-.86,1.22-.85-1.22h-9.72v9.51h9.68l.84-1.24,.87,1.24h6.06v-2.05h-.06c.75,0,1.44-.14,2.04-.36v2.41h4.23v-1.38l1.06,1.38h18.33c.53,0,1.02-.09,1.47-.25,.25-.09,.48-.2,.7-.34Z"/></g><g class="cls-11"><path class="cls-6" d="M181.55,29.38h-3.29v1.28h3.24c1.38,0,2.21-.84,2.21-2.04s-.74-1.81-1.99-1.81h-1.48c-.37,0-.62-.24-.62-.61s.26-.64,.62-.64h2.79l.57-1.3h-3.31c-1.38,0-2.21,.84-2.21,2s.78,1.86,2,1.86h1.48c.37,0,.63,.24,.63,.62s-.27,.65-.63,.65Zm-6.1,0h-3.29v1.28h3.24c1.38,0,2.21-.84,2.21-2.04s-.74-1.81-1.99-1.81h-1.48c-.37,0-.62-.24-.62-.61s.26-.64,.62-.64h2.79l.57-1.3h-3.31c-1.38,0-2.21,.84-2.21,2s.78,1.86,2,1.86h1.48c.37,0,.63,.24,.63,.62s-.27,.65-.63,.65Zm-4.23-3.83v-1.3h-5.13v6.42h5.13v-1.29h-3.59v-1.29h3.51v-1.28h-3.51v-1.25h3.59Zm-8.6,0c.55,0,.84,.36,.84,.8s-.29,.79-.84,.79h-1.81v-1.59h1.81Zm-1.81,2.8h.72l1.92,2.31h1.92l-2.14-2.36c1.09-.2,1.74-.99,1.74-2.02,0-1.2-.85-2.03-2.22-2.03h-3.48v6.42h1.54v-2.31Zm-3.92-1.95c0,.43-.27,.79-.82,.79h-1.84v-1.58h1.84c.54,0,.82,.35,.82,.79Zm-4.2-2.15v6.42h1.54v-2.12h1.93c1.4,0,2.27-.92,2.27-2.15s-.85-2.14-2.22-2.14h-3.53Zm-2.26,6.42h1.92l-2.58-3.24,2.56-3.18h-1.87l-1.58,2.03-1.57-2.03h-1.92l2.57,3.21-2.56,3.21h1.87l1.58-2.06,1.58,2.06Zm-5.34-5.11v-1.3h-5.13v6.42h5.13v-1.29h-3.59v-1.29h3.51v-1.28h-3.51v-1.25h3.59Z"/></g><path class="cls-6" d="M174.87,14.03l-.02-.53,.32,.53,2.46,3.84h1.8v-6.42h-1.5v3.71l.02,.48-.28-.48-2.4-3.71h-1.89v6.42h1.5v-3.84Zm-6.14-.18l.47-1.2,.47,1.2,.57,1.42h-2.06l.56-1.42Zm2.55,4.02h1.73l-2.74-6.42h-2.03l-2.75,6.42h1.64l.54-1.38h3.05l.55,1.38Zm-6.72,0h.08l.63-1.37h-.47c-1.05,0-1.68-.66-1.68-1.8v-.09c0-1.02,.56-1.78,1.66-1.78h1.67v-1.38h-1.8c-1.98,0-3.06,1.33-3.06,3.15v.11c0,1.91,1.11,3.14,2.96,3.15Zm-5.47,0h1.54v-6.42h-1.54v6.42Zm-3.24-5.11c.55,0,.84,.36,.84,.8s-.29,.79-.84,.79h-1.81v-1.59h1.81Zm-1.81,2.8h.72l1.92,2.31h1.92l-2.14-2.36c1.09-.2,1.74-.99,1.74-2.02,0-1.2-.85-2.04-2.22-2.04h-3.48v6.42h1.54v-2.31Zm-2.67-2.81v-1.3h-5.13v6.42h5.13v-1.31h-3.59v-1.27h3.51v-1.28h-3.51v-1.25h3.59Zm-12.77,.73l-.04-1.73,1.78,6.11h1.39l1.78-6.08-.04,1.69v4.39h1.49v-6.42h-2.71l-1.22,4.55-1.23-4.55h-2.7v6.42h1.49v-4.38Zm-6.13,.36l.47-1.2,.47,1.2,.57,1.42h-2.06l.56-1.42Zm2.55,4.02h1.73l-2.74-6.42h-2.03l-2.75,6.42h1.64l.54-1.38h3.05l.55,1.38Z"/></g></svg>