<?xml version="1.0" encoding="UTF-8"?><svg xmlns="http://www.w3.org/2000/svg" viewBox="0 0 95.46 113.39"><defs><style>.cls-1{stroke-width:1.1px;}.cls-1,.cls-2,.cls-3{stroke:#000;}.cls-1,.cls-2,.cls-3,.cls-4{stroke-miterlimit:10;}.cls-1,.cls-4{fill:none;stroke-linecap:round;}.cls-5{fill:#e89438;}.cls-6{fill:#ef9845;}.cls-7{fill:#fff;}.cls-8{fill:#f09a79;}.cls-9{fill:#e5d1af;}.cls-10{fill:#faf4e3;}.cls-11{fill:#e85a3c;}.cls-12{fill:#f0b85d;}.cls-13{fill:#e29239;}.cls-14{fill:#d83a23;}.cls-15{fill:#231b2c;}.cls-16{fill:#3d6378;}.cls-17{fill:#627c85;}.cls-18{fill:#4ec68a;}.cls-19{fill:#502818;}.cls-20{opacity:.46;}.cls-20,.cls-21{fill:#0f0f0f;mix-blend-mode:soft-light;}.cls-21{opacity:.34;}.cls-2{stroke-width:.49px;}.cls-3{stroke-width:.46px;}.cls-4{stroke:#3d6378;stroke-width:1.22px;}.cls-22{opacity:.35;}.cls-23{isolation:isolate;}</style></defs><g class="cls-23"><g id="Livello_1"><g><g class="cls-22"><path class="cls-18" d="M82.59,46.14c0,.5-.07,1.75-.2,3.73s-.56,4.29-1.29,6.89c-.74,2.62-1.86,5.39-3.4,8.3-1.52,2.92-3.68,5.63-6.46,8.12-2.79,2.47-6.3,4.53-10.55,6.15-4.25,1.62-9.43,2.41-15.53,2.41-4.91,0-9.36-.59-13.34-1.76-3.98-1.19-7.4-2.99-10.26-5.41-2.84-2.43-5.07-5.54-6.66-9.32-1.59-3.79-2.39-8.36-2.39-13.69,0-4.48,.69-8.86,2.1-13.15,1.38-4.29,3.55-8.1,6.46-11.46,2.91-3.36,6.7-6.02,11.35-8.01,4.65-1.99,10.16-2.99,16.53-2.99,11.03,0,19.39,2.62,25.09,7.82,5.7,5.22,8.56,12.69,8.56,22.36Z"/></g><g><g><path class="cls-13" d="M60.85,33.45c-.5,.95-6.55-1.32-12.73-4.96-6.18-3.64-10.78-7.36-10.28-8.31,.5-.95,5.92,1.23,12.1,4.87,6.18,3.64,11.41,7.45,10.9,8.41Z"/><g><path class="cls-3" d="M53.49,36.22s3.64-1.1,1.32-10.53l-3.53,.44,2.21,10.09Z"/><g><g><path class="cls-8" d="M39.91,28.55c.59-3.75,4.32-10.01,10.95-6.16,2.08,1.21,2.97,3.43,3.4,5.72,.3,1.6-.27,16.45-.27,16.45-.46,5.83-9.56,6.71-10.15-.04l.18-4.2c-4.8-1.54-4.77-7.57-4.11-11.78Z"/><path class="cls-19" d="M44.02,40.33s2.71,.91,7.83-2.27c0,0-2.78,4.14-7.99,5.86l.16-3.59Z"/></g><g><path class="cls-8" d="M57.7,30.53c-.17-1.43-1.48-2.46-2.93-2.31-1.45,.16-2.5,1.45-2.33,2.88,.17,1.43,1.48,2.46,2.93,2.3,1.45-.16,2.49-1.45,2.33-2.88Z"/><path class="cls-15" d="M55.54,29.68c-.61,.63-.94,.94-1.59,1.52-.92-.91,.72-2.47,1.59-1.52h0Z"/></g><g><g><path class="cls-20" d="M52.11,33.73c0,1.53-1.24,2.76-2.76,2.76s-2.76-1.24-2.76-2.76,1.24-2.76,2.76-2.76,2.76,1.24,2.76,2.76Z"/><path class="cls-20" d="M39.7,30.24c-.17,1.81-.16,3.77,.29,5.51,1.38-.15,2.46-1.32,2.46-2.74,0-1.52-1.23-2.76-2.75-2.76Z"/></g><g><path class="cls-3" d="M47.58,27.47c-.02,.23-.37,.4-.78,.37-.42-.03-.74-.25-.72-.48,.02-.23,.37-.4,.78-.37,.42,.03,.74,.25,.72,.48Z"/><path class="cls-3" d="M42.71,26.94c.1,.21-.13,.52-.51,.69-.38,.17-.77,.13-.87-.08-.1-.21,.13-.52,.51-.69,.38-.17,.77-.13,.87,.08Z"/><g><path class="cls-7" d="M45.71,33.23c-.4,1.15-1.71,1.62-2.49,.05l2.49-.05Z"/><g><path class="cls-3" d="M41.86,29.58c-.02,.29,.1,.53,.27,.54,.17,.01,.32-.21,.33-.5,.02-.29-.1-.53-.27-.54-.17-.01-.32,.21-.33,.5Z"/><path class="cls-3" d="M46.12,29.72c-.02,.29,.1,.53,.27,.54,.17,.01,.32-.21,.33-.5,.02-.29-.1-.53-.27-.54s-.32,.21-.33,.5Z"/><path class="cls-15" d="M44.05,29.32c.3,.84,.17,1.62-.19,2.37,0,0-.34-.56-.34-.56,1.61,.75,.55,.88-.55,.88,.02-1.02,.23-2.01,1.09-2.7h0Z"/></g></g></g></g><path d="M40.65,26.03s3.42,1.05,7.28-3.03c0,0,1.05,8.1,4.91,6.78,0,0,.44-1.4,1.93-1.55,0,0,2-6.78-6.13-8.12-.42-.07-.84-.08-1.26-.04-1.9,.19-7.22,1.16-6.73,5.96Z"/></g></g><g><path class="cls-12" d="M56.54,26.85c.1-1.59,.2-3.18,.3-4.77,.02-.3,.04-.61-.07-.88-.15-.36-.49-.56-.81-.74-2.08-1.16-4.16-2.33-6.24-3.49-.23-.13-.47-.26-.73-.27-.45-.02-.87,.31-1.24,.61-1.08,.9-2.16,1.8-3.23,2.7-3.4-1.1-5.96-1.17-6.56,.02,0,0,7.17,2.35,12.77,5.77,5.73,3.51,10.12,7.52,10.12,7.52,.49-.76-1.18-3.61-4.29-6.47Z"/><path class="cls-5" d="M56.55,26.59c-.08,.07-.61-.48-1.57-1.21-.95-.74-2.37-1.63-4.02-2.47-.83-.42-1.63-.81-2.35-1.16-.73-.36-1.38-.68-1.93-.93-1.1-.5-1.83-.66-1.82-.76,0-.09,.81-.09,1.99,.31,.59,.2,1.27,.48,2.02,.81,.74,.33,1.56,.7,2.4,1.13,1.68,.86,3.12,1.84,4.02,2.71,.91,.86,1.32,1.53,1.25,1.58Z"/></g></g><g><g><g><g><g><path class="cls-8" d="M35.2,73.26c4.45-7.47,8.27-23.62,8.27-23.62l-6.26-2.7-13.07,17.77-3.24-7.5c-2.02,.87-5.35,2.18-6.44,2.57,1.31,7.52,2.01,17.96,4.14,20.18,4.7,4.89,12.16,.78,16.6-6.69Z"/><line class="cls-1" x1="24.09" y1="64.43" x2="26.2" y2="71"/></g><polygon class="cls-20" points="33.41 52.19 36.03 73.22 32.73 76.8 26.88 60.97 33.41 52.19"/></g><path class="cls-9" d="M38.38,67.38l-11.92-8.63s10.79-17.39,18.23-12.72l3.36,2.18-9.67,19.17Z"/><g><path class="cls-8" d="M19.87,50.67c-.87-1.3-1.56,2.54-1.39,3.17,0,0-1.61-6.78-2.77-6.7-.66,.05,.77,5.18,.77,5.18,0,0-2.25-5.54-2.8-5.34-.54,.2,1.31,5.58,1.31,5.58,0,0-2.06-4.62-2.67-4.35-.51,.23,1.08,5.11,1.08,5.11,0,0-1.95-3.16-2.45-2.91-.45,.23,1.05,3.15,1.31,4.16,.46,1.82,1.3,4.34,3.23,6.79l5.55-2.6s-.06-6.44-1.16-8.1Z"/><path class="cls-15" d="M18.47,53.85c-.86,1.57-.67,2.78-.76,4.44-1.47-1.13-1.24-4.08,.76-4.44h0Z"/></g></g><path class="cls-9" d="M39.89,46.31l3.04-.97,.57-1.28,11.09-.22,.5,1.64c.9,.12,2.99,.54,3.1,.77,6.55,13.21,3.87,38.62,3.87,38.62l-26.98,.23c-3.46-14.01-.16-35.71,4.81-38.77Z"/><g><path class="cls-16" d="M55.09,45.47s-4.13,5.26-4.83,11.06l-1.45,1.87-1.09-1.97s.68-7.64,5.84-10.9l1.53-.06Z"/><path class="cls-16" d="M42.93,45.34s-6.14,8.18-5.12,12.32l-1.56,2.51-.84-3.63s.3-6.89,5.66-11.23c0,0,.65-.1,.89-.1,.25,0,.98,.13,.98,.13Z"/><path class="cls-17" d="M46.01,111.94c.46-.33,1.24-3.18,1.24-3.18-.06,.92-.1,1.83-.14,2.74-.02,.56,.48,1,1.03,.92l5.06-.79c.16-.03,1.97-.08,2.13-.07l7.05,.87c.9,.08,1.68-.6,1.72-1.5,0,0,0-.01,0-.02,.59-14.91-2.5-26.05-2.5-26.05l-11.79-.8,.44-27.52h-14.85l-3.06,29.27c-2.61,8.26-5.82,26.45-5.24,26.79s3.03-.62,5.24-.77,5.37,.77,7.54,.77,5.67-.32,6.13-.65Z"/><path class="cls-16" d="M37.27,66.09l8.92-.65c1.16,.84,1.82,9.71,2.02,14.6,0,0-11.94,.04-12.48-.03-.54-.07,1.1-12.41,1.53-13.92Z"/><g><path class="cls-21" d="M39.45,88.89c2.52,.62,5.11,.92,7.5,1.97,2.18,.97,5.25,1.84,7.64,1.74,2.16-.09,2.86-.34,5.01,0,1.22,.19,2.4,.51,3.59,.82l-1.03-6.49c-16.03,1.66-24.03,.55-27.52-.34,1.13,1.34,3.06,1.87,4.81,2.3Z"/><g><path class="cls-4" d="M32.35,85.8s6.19,3.57,29.81,1.12"/><path class="cls-4" d="M42.18,87.82s-1.87,14.11,4.85,21.06"/><path class="cls-4" d="M35.74,86.9s-1.52,8.99-5.8,8.64"/><path class="cls-4" d="M57.4,87.37s.11,7.99,6.06,8.82"/></g></g></g><g><g><g><path class="cls-8" d="M69.92,70.67c-1.81-8.5-9.97-22.96-9.97-22.96l-6.43,2.26,2.47,21.92-6.85-4.77c-.89,2.02-1.77,4.03-2.77,6.01-.52,1.04-1.06,2.07-1.59,3.09,6.07,4.64,14.42,10.45,17.49,10.63,6.77,.4,9.45-7.68,7.64-16.19Z"/><line class="cls-1" x1="55.77" y1="71.73" x2="61.78" y2="75.12"/></g><polygon class="cls-20" points="54.39 57.78 63.66 54.8 68.51 66.16 56.01 71.92 54.39 57.78"/></g><path class="cls-9" d="M54.47,67.72l14.01-4.51s-4.87-19.88-13.39-17.74l-1.76,4.5,1.15,17.75Z"/></g></g><g><g><g><g><path class="cls-6" d="M38.59,83.01c-.21-.06,.49-2.51,.43-5.59-.02-3.09-.79-5.51-.58-5.58,.09-.03,.39,.54,.7,1.54,.31,1,.58,2.43,.6,4.03,.02,1.6-.22,3.04-.49,4.04-.28,1.01-.57,1.59-.66,1.56Z"/><path class="cls-6" d="M37.67,83.31c-.09,.04-.27-.15-.35-.55-.08-.39,0-.96,.31-1.48,.3-.51,.69-.85,.98-1.05,.3-.2,.52-.28,.58-.21,.07,.07-.03,.28-.23,.57-.19,.29-.48,.64-.72,1.05-.24,.4-.36,.8-.42,1.11-.06,.3-.06,.52-.16,.56Z"/><path class="cls-6" d="M40.6,82.31c-.07,.06-.25,0-.45-.2-.21-.19-.4-.58-.5-.92-.11-.33-.23-.54-.36-.75-.12-.2-.21-.36-.15-.44,.05-.08,.24-.07,.49,.06,.12,.07,.27,.18,.39,.33,.13,.15,.24,.36,.3,.55,.13,.39,.19,.66,.26,.89,.06,.23,.1,.4,.02,.47Z"/></g><g><path class="cls-6" d="M43.76,83.87c-.21-.06,.49-2.51,.43-5.59-.02-3.09-.79-5.51-.58-5.58,.09-.03,.39,.54,.7,1.54,.31,1,.58,2.43,.6,4.03,.02,1.6-.22,3.04-.49,4.04-.28,1.01-.57,1.59-.66,1.56Z"/><path class="cls-6" d="M42.84,84.17c-.09,.04-.27-.15-.35-.55-.08-.39,0-.96,.31-1.48,.3-.51,.69-.85,.98-1.05,.3-.2,.52-.28,.58-.21,.07,.07-.03,.28-.23,.57-.19,.29-.48,.64-.72,1.05-.24,.4-.36,.8-.42,1.11-.06,.3-.06,.52-.16,.56Z"/><path class="cls-6" d="M45.52,83.35c-.07,.06-.27-.03-.42-.3-.15-.26-.23-.63-.33-.95-.09-.33-.21-.58-.33-.78-.11-.21-.2-.36-.14-.45,.05-.07,.25-.07,.5,.09,.25,.15,.54,.51,.66,.94,.12,.43,.11,.77,.12,1,0,.23,.02,.38-.06,.45Z"/></g></g><g><g><path class="cls-11" d="M55.36,65.64c1.21-.6,1.5-2.15,2.04-3.39,.52-1.2,1.43-2.29,2.8-2.54,.55-.1,1.13-.02,1.61,.25,1.37,.77,1.38,2.51,1.29,3.97,.54,.52,1.48,.28,1.97-.28,.49-.56,.63-1.33,.76-2.07-.18,.88-.35,1.75-.53,2.63,.73,.32,1.62-.1,2.09-.74,.47-.64,.63-1.46,.77-2.24-.28,1.15-.3,2.37-.05,3.53,2.17-1.23,3.52-3.69,3.68-6.18,.16-2.49-.78-4.99-2.33-6.95-1.34-1.7-3.17-3.05-5.26-3.61-2.09-.56-4.44-.26-6.2,1-1.21,.86-2.09,2.11-2.77,3.42-1.72,3.31-3.4,6.64-2.79,10.08,.2,1.1,.77,2.11,1.68,2.76,.43,.31,.9,.52,1.26,.34Z"/><g><path class="cls-14" d="M55.54,65c-.08,0-.11-.97,.33-2.47,.23-.74,.57-1.61,1.13-2.49,.56-.87,1.37-1.78,2.54-2.27,1.17-.5,2.45-.41,3.44,.01,1.01,.42,1.7,1.18,2.07,1.89,.38,.71,.49,1.36,.49,1.8,0,.44-.07,.68-.12,.67-.05,0-.07-.24-.16-.64-.08-.4-.26-.97-.65-1.57-.39-.6-1.01-1.21-1.88-1.53-.86-.33-1.94-.38-2.92,.04-.98,.41-1.73,1.2-2.27,1.98-.55,.79-.92,1.6-1.2,2.29-.54,1.38-.7,2.31-.81,2.3Z"/><path class="cls-14" d="M54.55,64.8s-.14-.45-.19-1.29c-.05-.84-.05-2.07,.17-3.56,.23-1.49,.63-3.27,1.55-5.09,.47-.9,1.06-1.8,1.86-2.59,.79-.79,1.81-1.45,2.95-1.81,1.14-.37,2.36-.44,3.47-.15,1.12,.28,2.08,.95,2.73,1.76,.67,.81,1.07,1.72,1.34,2.58,.27,.87,.39,1.7,.44,2.46,.11,1.52-.06,2.75-.24,3.57-.18,.83-.36,1.26-.4,1.25-.05-.01,.04-.47,.13-1.29,.09-.82,.17-2.02,0-3.48-.08-.73-.23-1.52-.5-2.32-.27-.8-.67-1.63-1.28-2.34-.6-.71-1.43-1.27-2.4-1.51-.97-.25-2.06-.18-3.08,.15-1.03,.33-1.94,.9-2.67,1.62-.74,.72-1.31,1.55-1.77,2.4-.9,1.7-1.35,3.42-1.63,4.86-.54,2.91-.36,4.77-.48,4.77Z"/><path class="cls-14" d="M54.85,64.71c-.1,0-.15-1.1,.28-2.79,.21-.84,.54-1.83,1.05-2.87,.51-1.04,1.22-2.13,2.21-3.07,.99-.93,2.19-1.59,3.39-1.77,.6-.1,1.19-.08,1.72,.06,.53,.13,.99,.38,1.35,.66,.71,.59,1.05,1.25,1.24,1.7,.17,.46,.22,.73,.18,.74-.05,.02-.19-.21-.43-.61-.25-.39-.64-.96-1.29-1.42-.33-.21-.73-.4-1.18-.49-.45-.09-.96-.09-1.47,.01-1.04,.2-2.1,.8-3.01,1.64-.91,.85-1.6,1.87-2.11,2.84-.52,.98-.89,1.91-1.15,2.71-.54,1.6-.66,2.65-.76,2.64Z"/></g></g><g><g><path class="cls-11" d="M38.76,54.82c.66-.15,1.28-.44,1.83-.84,.38-.28,.74-.63,.89-1.07,.15-.45,.03-1.01-.37-1.26-.2-.13-.46-.17-.63-.34-.41-.43,.1-1.11,.13-1.71,.03-.51-.34-.99-.81-1.2-.46-.22-1-.21-1.51-.13-.25,.04-.51,.1-.74,0-.18-.08-.3-.24-.42-.4-.66-.85-1.55-1.74-2.62-1.6-.82,.1-1.47,.85-1.62,1.66-.16,.81,.11,1.66,.54,2.36,.37,.6,.87,1.11,1.44,1.51,.48,.33,1.02,.57,1.48,.92,.78,.59,1.32,1.48,1.48,2.44"/><g><path class="cls-14" d="M35.05,50.33s-.2-.09-.4-.35c-.19-.25-.45-.65-.51-1.19-.05-.56,.22-1.03,.51-1.24,.3-.22,.55-.17,.55-.12,.01,.06-.17,.13-.34,.34-.17,.2-.32,.58-.29,.98,.04,.42,.22,.79,.34,1.07,.12,.28,.19,.47,.14,.5Z"/><path class="cls-14" d="M39.58,49.77c-.06-.02-.07-.13-.14-.25-.06-.12-.18-.27-.34-.33-.14-.07-.32-.03-.48,.02-.15,.05-.27,.07-.31,.02-.03-.05,.02-.15,.16-.28,.07-.06,.17-.13,.31-.17,.13-.04,.33-.05,.49,.02,.33,.14,.47,.46,.47,.67,0,.22-.11,.32-.16,.3Z"/></g></g><g><path class="cls-6" d="M34.93,52.7c-.91,.11-1.81,.28-2.7,.5,.81,.51,1.66,.95,2.55,1.31"/><g><path class="cls-10" d="M58.15,64.87c-.49-.91-1.6-1.27-2.59-1.55-4.09-1.17-8.12-2.53-12.1-4.05-.96-.37-1.7-1.18-1.92-2.19,0,0,0-.01,0-.02-.34-1.54-.44-3.14-1.01-4.61-.57-1.45-1.84-2.86-3.6-2.29-.35,.11-.67,.31-.95,.54-.99,.85-1.39,2.08-1.73,3.28-1.09,3.94-1.6,8.23-.15,12.05,.46,1.21,1.98,6.65,7.69,8.62,6.34,2.19,8.69,1.75,12.05-.17,2.69-1.54,4.3-4.72,4.57-7.81,.06-.62,.04-1.27-.25-1.81Z"/><g><g><path class="cls-11" d="M34.14,54.11s-1.59,.92-2.21,2.15c-.5,.99,.21,2.09,.92,2.04,.71-.06,1.3-.64,1.55-1.31,.25-.67-.03-2.82-.25-2.87Z"/><path class="cls-2" d="M37.03,52.88c-.02,.3,.11,.56,.28,.57,.17,.01,.33-.22,.35-.53,.02-.3-.11-.56-.28-.57-.17-.01-.33,.22-.35,.53Z"/></g><g><path class="cls-11" d="M39.18,60.62c-.3,.18-.45,.53-.39,.87,.78,4.42,3.63,8.45,7.57,10.61,.58,.32,1.28,.6,1.86,.14,.35-.28,.49-.73,.43-1.17-.13-.94-.87-1.53-1.58-2.06,2.23,2.68,5.12,.94,2.49-1.01,2.06,1.47,6.59-.04,4.81-2-.66-.73-9.83-5.41-14.74-5.51-.16,0-.32,.04-.46,.13h0Z"/><path class="cls-14" d="M48.17,69.49c-.03,.09-.49,.02-1.17-.27-.68-.28-1.57-.8-2.42-1.54-.85-.75-1.47-1.57-1.84-2.21-.37-.64-.49-1.08-.41-1.13,.19-.1,1.12,1.4,2.72,2.8,1.59,1.42,3.2,2.15,3.12,2.35Z"/><path class="cls-14" d="M50.76,67.7c-.08,.17-1.73-.44-3.53-1.61-1.81-1.17-3.03-2.42-2.91-2.57,.13-.16,1.54,.82,3.3,1.96,1.76,1.15,3.23,2.03,3.14,2.21Z"/></g></g></g></g></g></g></g><g><path class="cls-8" d="M56.04,71.9l-7.83-2.12c-.11-.31-1.62-4.43-2.47-4.9-1.37-.75-1.3,3.49-.75,3.86,0,0-4.89-4.7-5.7-3.87-.46,.47,2.38,3.32,2.38,3.32,0,0-4.75-2.75-5.03-2.25-.28,.51,4.06,3.41,4.06,3.41,0,0-3.85-1.64-4.13-1.04-.24,.51,3.44,2.66,3.44,2.66,0,0-2.8-.39-3.01,.13-.19,.47,2.12,.98,2.97,1.57,.58,.4,1.27,.84,2.06,1.27,5.74,4.71,16.46,12.72,20.13,12.98,4.82,.34,7.61-3.66,8.2-9.07-1.52-1.22-14.32-5.95-14.32-5.95Z"/><line class="cls-1" x1="56.53" y1="72.07" x2="63.35" y2="74.73"/></g></g></g></g></g></g></g></svg>