<?xml version="1.0" encoding="UTF-8"?><svg id="Livello_1" xmlns="http://www.w3.org/2000/svg" viewBox="0 0 95.46 65.62"><defs><style>.cls-1{fill:#e8532b;}.cls-2{fill:#e5d7c8;}.cls-3{fill:#1a3946;}.cls-4{fill:#4ec68a;}.cls-5{fill:#765341;}</style></defs><path class="cls-1" d="M22.46,50.38c-.16,0-.32-.08-.41-.23l-5.27-8.47c-.14-.22-.07-.52,.15-.66,.22-.14,.52-.07,.66,.15l5.27,8.47c.14,.22,.07,.52-.15,.66-.08,.05-.17,.07-.25,.07Z"/><path class="cls-5" d="M59.27,51.24s-.08,0-.12-.02c-.26-.07-.41-.33-.34-.58l3.06-11.67c.07-.26,.33-.41,.58-.34,.26,.07,.41,.33,.34,.58l-3.06,11.67c-.06,.22-.25,.36-.46,.36Z"/><path class="cls-1" d="M48.72,14.67s-2-1.55-2.6-4.62c-.6-3.07,4.79-5.17,5.21,.27,0,0,1.22-1.12,2.77-.49,1.55,.64,1.4,2.28,.73,3.95,0,0,2.4,2.68-.94,4.07l-5.17-3.19Z"/><path class="cls-1" d="M76.57,30.32c.12-3.47,.91-6.08,3.83-6.2,2.92-.12,3.95,2.07,2.55,5.65,0,0,2.49,.3,3.4-1.16v1.64s2.31-.06,3.22-1.76v1.76s1.82,.36,3.4-3.04c1.58-3.4,2.01-14.95-8.21-17.75-10.21-2.8-16.66,6.87-14.17,15.02s2.8,8.21,2.8,8.21l3.16-2.37Z"/><path class="cls-5" d="M74.49,29.96c-.21,0-.4-.14-.46-.35-.08-.31-2.03-7.54,.9-11.39,1.16-1.53,2.92-2.3,5.23-2.3,2,0,3.63,.69,4.82,2.04,2.98,3.37,2.25,9.67,2.22,9.94-.03,.26-.28,.44-.53,.42-.26-.03-.45-.27-.42-.53,0-.06,.71-6.15-1.99-9.19-1.01-1.14-2.39-1.71-4.11-1.71-1.99,0-3.49,.65-4.47,1.92-2.64,3.47-.76,10.48-.74,10.55,.07,.25-.08,.52-.33,.59-.04,.01-.08,.02-.13,.02Z"/><path class="cls-2" d="M76.57,30.32l-21.04-8.51s-1.46-9.24-4.38-9.48c-2.92-.24-3.77,3.16-3.77,3.16l-4.13,.49,4.13,.85s-4.16,21.07,12.52,26.14c5.59,1.7,15.44-1.95,16.66-12.65Z"/><path class="cls-1" d="M47.39,16.82s-4.68,2.92-2.25,4.8c2.43,1.88,3.28-1.88,2.25-4.8Z"/><ellipse class="cls-3" cx="50.18" cy="14.99" rx=".52" ry=".76"/><path class="cls-1" d="M62.64,37.81c-2.71,0-5.11-.83-6.65-2.34-2.58-2.55-2.47-5.53-1.92-7.58,.22-.83,.8-1.54,1.58-1.94,.8-.41,1.74-.45,2.58-.12l9.76,3.81c.25,.1,.37,.37,.27,.62-.1,.25-.38,.37-.62,.27l-9.76-3.81c-.59-.23-1.24-.2-1.8,.09-.54,.28-.93,.75-1.09,1.33-.49,1.81-.59,4.43,1.67,6.65,1.67,1.64,4.54,2.38,7.68,1.96,3.28-.44,6.18-2.05,7.38-4.1,.13-.23,.43-.31,.66-.17,.23,.13,.31,.43,.17,.66-1.37,2.34-4.46,4.09-8.08,4.57-.62,.08-1.23,.12-1.83,.12Z"/><path class="cls-1" d="M63.85,34.66c-1.29,0-2.51-.22-3.54-.56-2.25-.75-3.81-2.15-4.15-3.73-.06-.26,.11-.51,.36-.57,.26-.06,.51,.11,.57,.36,.27,1.23,1.62,2.39,3.52,3.03,2.5,.83,6.54,.85,9.68-1.84,.2-.17,.5-.15,.68,.05,.17,.2,.15,.5-.05,.68-2.21,1.89-4.76,2.58-7.07,2.58Z"/><path class="cls-5" d="M64.71,52.57s-.04,0-.06,0c-.26-.03-.45-.27-.41-.54l1.53-11.67c.03-.26,.28-.45,.54-.41,.26,.03,.45,.27,.41,.54l-1.53,11.67c-.03,.24-.24,.42-.47,.42Z"/><path class="cls-4" d="M49.67,52.21c0,.81-3.59,1.46-8.01,1.46s-8.01-.65-8.01-1.46,3.59-1.46,8.01-1.46,8.01,.65,8.01,1.46Z"/><path class="cls-5" d="M8.38,19.09s24.29,17.67,27.37,19.05c3.08,1.38,3.73,4.05,3.16,5.76l.81,1.95-2.11-1.62s-8.67-1.95-11.67-3.81c0,0-5.51,6.49-14.11,.41-8.59-6.08-3.46-21.73-3.46-21.73Z"/><path class="cls-1" d="M37.62,44.22s-4.88,4.17-4.43-1.13l4.43,1.13Z"/><path class="cls-1" d="M39.1,42.73s2.88-1.95,1.85-5.72c-1.03-3.77-3.81-1.28-1.85,5.72Z"/><ellipse class="cls-3" cx="37.25" cy="42" rx=".36" ry=".57"/><path class="cls-1" d="M18.11,39.55c-1.34,0-2.65-.39-3.88-1.17-5.33-3.38-4.18-9.28-4.16-9.34,.05-.26,.31-.42,.56-.37,.26,.05,.43,.31,.37,.56-.04,.22-1.02,5.32,3.74,8.34,2.91,1.85,5.61,.86,7.37-.3,.32-.21,.51-.55,.53-.92,.02-.38-.14-.74-.44-.99l-10.35-8.45c-.21-.17-.24-.47-.07-.67,.17-.21,.47-.24,.67-.07l10.35,8.45c.54,.44,.82,1.09,.79,1.78-.04,.69-.38,1.3-.96,1.68-1.49,.98-3.03,1.47-4.53,1.47Z"/><path class="cls-1" d="M17.8,36.45c-.85,0-1.69-.19-2.48-.58-2.04-1.01-3.29-3.1-3.18-5.33,.01-.26,.23-.46,.5-.46,.26,.01,.47,.24,.46,.5-.09,1.85,.95,3.58,2.65,4.42,1.83,.91,3.92,.55,5.73-.98,.2-.17,.5-.15,.67,.06,.17,.2,.15,.5-.06,.67-1.32,1.11-2.82,1.69-4.29,1.69Z"/><path class="cls-2" d="M13.87,23.71S19.86,9.04,3.73,2.56c0,0-.97,.89,0,3.24,0,0-1.54,1.95,.24,4.3,0,0-1.3,.08,.08,3.04,0,0-2.2,1.24,4.33,5.96l5.48,4.62Z"/><path class="cls-1" d="M15.65,51.23c-.21,0-.4-.14-.46-.34l-3.05-10.34c-.07-.25,.07-.52,.32-.6,.26-.07,.52,.07,.6,.32l3.05,10.34c.07,.25-.07,.52-.32,.6-.05,.01-.09,.02-.14,.02Z"/><path class="cls-4" d="M73.33,51.65c0,.31-.94,.55-2.1,.55s-2.1-.25-2.1-.55,.94-.55,2.1-.55,2.1,.25,2.1,.55Z"/><path class="cls-4" d="M28.13,53.23c0,.24-1.08,.44-2.42,.44s-2.42-.2-2.42-.44,1.08-.44,2.42-.44,2.42,.2,2.42,.44Z"/><path class="cls-4" d="M52.59,46.25c0,.37-1.3,.67-2.91,.67s-2.91-.3-2.91-.67,1.3-.67,2.91-.67,2.91,.3,2.91,.67Z"/><path class="cls-4" d="M37.25,58.8c0,.39-3.7,.71-8.26,.71s-8.26-.32-8.26-.71,3.7-.71,8.26-.71,8.26,.32,8.26,.71Z"/></svg>