<?xml version="1.0" encoding="UTF-8"?><svg id="Layer_1" xmlns="http://www.w3.org/2000/svg" viewBox="0 0 57.13 40"><defs><style>.cls-1{fill:#fff;}.cls-2{fill:#253b80;}</style></defs><rect class="cls-2" x="1.31" y=".81" width="54.5" height="38.38" rx="6.33" ry="6.33"/><g><path class="cls-1" d="M14.4,17.7c-.16,1.07-.98,1.07-1.76,1.07h-.45l.31-1.99c.02-.12,.12-.21,.24-.21h.21c.54,0,1.04,0,1.3,.31,.16,.18,.2,.45,.14,.83Zm-.34-2.78h-2.97c-.2,0-.38,.15-.41,.35l-1.2,7.61c-.02,.15,.09,.29,.24,.29h1.42c.2,0,.38-.15,.41-.35l.32-2.05c.03-.2,.2-.35,.41-.35h.94c1.96,0,3.08-.95,3.38-2.82,.13-.82,0-1.47-.38-1.92-.42-.5-1.17-.76-2.16-.76Z"/><path class="cls-1" d="M20.95,20.43c-.14,.81-.78,1.36-1.6,1.36-.41,0-.74-.13-.95-.38-.21-.25-.29-.6-.22-1,.13-.81,.78-1.37,1.59-1.37,.4,0,.73,.13,.95,.39,.22,.26,.3,.61,.24,1.01Zm1.98-2.77h-1.42c-.12,0-.23,.09-.24,.21l-.06,.4-.1-.14c-.31-.45-.99-.6-1.68-.6-1.57,0-2.91,1.19-3.17,2.86-.14,.83,.06,1.63,.53,2.18,.43,.51,1.05,.72,1.79,.72,1.27,0,1.97-.81,1.97-.81l-.06,.4c-.02,.15,.09,.29,.24,.29h1.28c.2,0,.38-.15,.41-.35l.77-4.87c.02-.15-.09-.29-.24-.29Z"/><path class="cls-1" d="M30.51,17.66h-1.43c-.14,0-.26,.07-.34,.18l-1.97,2.9-.84-2.79c-.05-.17-.21-.29-.4-.29h-1.4c-.17,0-.29,.17-.23,.33l1.57,4.62-1.48,2.09c-.12,.16,0,.39,.2,.39h1.43c.14,0,.26-.07,.34-.18l4.75-6.86c.11-.16,0-.39-.2-.39Z"/><path class="cls-1" d="M35.58,17.7c-.16,1.07-.98,1.07-1.76,1.07h-.45l.31-1.99c.02-.12,.12-.21,.24-.21h.21c.54,0,1.04,0,1.3,.31,.16,.18,.2,.45,.14,.83Zm-.34-2.78h-2.97c-.2,0-.38,.15-.41,.35l-1.2,7.61c-.02,.15,.09,.29,.24,.29h1.52c.14,0,.26-.1,.28-.24l.34-2.16c.03-.2,.2-.35,.41-.35h.94c1.96,0,3.08-.95,3.38-2.82,.13-.82,0-1.47-.38-1.92-.42-.5-1.17-.76-2.16-.76Z"/><path class="cls-1" d="M42.13,20.43c-.14,.81-.78,1.36-1.6,1.36-.41,0-.74-.13-.95-.38-.21-.25-.29-.6-.22-1,.13-.81,.78-1.37,1.59-1.37,.4,0,.73,.13,.95,.39,.22,.26,.3,.61,.24,1.01Zm1.98-2.77h-1.42c-.12,0-.23,.09-.24,.21l-.06,.4-.1-.14c-.31-.45-.99-.6-1.68-.6-1.57,0-2.91,1.19-3.17,2.86-.14,.83,.06,1.63,.53,2.18,.43,.51,1.05,.72,1.79,.72,1.27,0,1.97-.81,1.97-.81l-.06,.4c-.02,.15,.09,.29,.24,.29h1.28c.2,0,.38-.15,.41-.35l.77-4.87c.02-.15-.09-.29-.25-.29Z"/><path class="cls-1" d="M45.79,15.12l-1.22,7.75c-.02,.15,.09,.29,.24,.29h1.23c.2,0,.38-.15,.41-.35l1.2-7.61c.02-.15-.09-.29-.24-.29h-1.37c-.12,0-.23,.09-.24,.21Z"/></g></svg>