<?xml version="1.0" encoding="UTF-8"?><svg id="Layer_1" xmlns="http://www.w3.org/2000/svg" viewBox="0 0 57.13 40"><defs><style>.cls-1{fill:#fff;}.cls-2{fill:#ef373f;}</style></defs><rect class="cls-2" x="1.31" y=".81" width="54.5" height="38.38" rx="6.33" ry="6.33"/><g id="g18"><g id="g88"><g id="g90"><g id="g96"><path id="path98" class="cls-1" d="M18.72,21.72h.08c.49,.1,.93,.18,1.36,.18,.65,0,1.12-.16,1.12-.71,0-1.03-2.54-.62-2.54-2.31,0-.92,.86-1.41,1.94-1.41,.43,0,.86,.06,1.26,.19v.77h-.08c-.45-.15-.84-.21-1.18-.21-.51,0-1.05,.12-1.05,.66,0,.97,2.54,.59,2.54,2.23,0,1.19-.96,1.55-2.03,1.55-.52,0-1.05-.07-1.41-.16v-.77Z"/></g><g id="g100"><path id="path102" class="cls-1" d="M30.73,22.46c-.29,.1-.63,.19-1.05,.19-.51,0-1.32-.12-1.32-1.3v-3.01h-.65v-.73h.65v-1.17l.74-.16h.08v1.33h1.61v.73h-1.61v2.99c0,.53,.45,.58,.66,.58s.54-.07,.81-.16l.07,.71Z"/></g><g id="g104"><path id="path106" class="cls-1" d="M33.79,21.72h.08c.49,.1,.93,.18,1.36,.18,.65,0,1.12-.16,1.12-.71,0-1.03-2.54-.62-2.54-2.31,0-.92,.86-1.41,1.94-1.41,.43,0,.86,.06,1.26,.19v.77h-.08c-.45-.15-.84-.21-1.18-.21-.51,0-1.05,.12-1.05,.66,0,.97,2.54,.59,2.54,2.23,0,1.19-.96,1.55-2.03,1.55-.52,0-1.05-.07-1.41-.16v-.77Z"/></g><g id="g108"><path id="path110" class="cls-1" d="M39.18,21.79c.32,.05,.67,.1,1.11,.1,1.03,0,1.67-.65,1.67-1.92,0-1.17-.39-1.77-1.22-1.77-.49,0-1.04,.21-1.56,.67v2.91Zm-.84-4.18l.73-.16h.1v.64c.49-.37,1.03-.64,1.75-.64,1.08,0,1.91,.76,1.91,2.4s-.84,2.79-2.58,2.79c-.41,0-.73-.05-1.08-.13v2.44l-.73,.16h-.1v-7.5Z"/></g><g id="g112"><path id="path114" class="cls-1" d="M49.78,22.45l-1.69-4.84h.96l1.19,3.81h.07l1.3-3.81h.95l-1.85,5.09c-.44,1.26-.98,1.86-1.88,2.43l-.47-.61c.91-.65,1.14-1.02,1.49-1.86"/></g><g id="g116"><path id="path118" class="cls-1" d="M46.53,20.23l-1.35,.2c-.36,.05-.75,.2-.75,.76,0,.41,.28,.69,.71,.69,.46,0,.98-.29,1.39-.59v-1.07Zm.84,2.26l-.68,.14h-.12v-.69h-.02c-.44,.33-.97,.68-1.7,.68-.64,0-1.31-.46-1.31-1.36,0-1.21,1.09-1.38,1.67-1.47l1.31-.18v-.33c0-.84-.4-1.07-1.12-1.07-.27,0-.95,.08-1.51,.33l-.09-.77c.46-.18,1.18-.31,1.76-.31,1.04,0,1.8,.43,1.8,1.82v3.21Z"/></g><g id="g120"><path id="path122" class="cls-1" d="M25.91,21.3c-.41,.29-.93,.59-1.39,.59-.43,0-.71-.28-.71-.69,0-.56,.4-.71,.75-.76l1.35-.2v1.07Zm.84-2.02c0-1.39-.76-1.82-1.8-1.82-.58,0-1.3,.14-1.76,.31l.09,.77c.55-.25,1.23-.33,1.51-.33,.72,0,1.12,.23,1.12,1.07v.33l-1.31,.18c-.59,.08-1.67,.25-1.67,1.46,0,.9,.67,1.36,1.31,1.36,.72,0,1.26-.35,1.7-.68h.02v.69h.12l.68-.14v-3.21Z"/></g><g id="g124"><path id="path126" class="cls-1" d="M31.75,22.63h0s0,0,0,0Z"/></g><g id="g128"><path id="path130" class="cls-1" d="M32.48,17.46l-.73,.16v5.01h0s.1,0,.1,0l.73-.16v-5.01h-.1Z"/></g><g id="g132"><path id="path134" class="cls-1" d="M32.48,15.76l-.73,.16v.89h0s.1,0,.1,0l.73-.16v-.89h-.1Z"/></g><g id="g136"><path id="path138" class="cls-1" d="M39.18,19.69c0,.23-.19,.42-.42,.42s-.42-.19-.42-.42,.19-.42,.42-.42,.42,.19,.42,.42"/></g><g id="g140"><path id="path142" class="cls-1" d="M13.59,14.65c.11-.11,.03-.3-.13-.3h-2.62l1.52,1.52,1.22-1.22Z"/></g><g id="g144"><path id="path146" class="cls-1" d="M9.92,18.32l-1.87-1.87-1.69,1.69-1.75,1.75c-.07,.07-.07,.18,0,.25l1.75,1.75,1.69,1.69,1.87-1.87-1.56-1.56-.13-.12,.13-.13,1.56-1.56Z"/></g><g id="g148"><path id="path150" class="cls-1" d="M12.37,24.13l-1.52,1.52h2.61c.16,0,.24-.19,.13-.3l-1.22-1.22Z"/></g><g id="g152"><path id="path154" class="cls-1" d="M15.8,19.88l-1.75-1.75-1.97-1.97-1.76-1.76s-.07-.05-.12-.05c0,0,0,0,0,0h-3.25c-.16,0-.24,.19-.12,.3l1.51,1.51,1.87,1.87,1.85,1.85,.12,.13-.12,.12-1.85,1.85-1.87,1.87-1.5,1.5c-.11,.11-.03,.3,.12,.3h3.25s.09-.02,.12-.05l1.75-1.75,1.97-1.97,1.75-1.75c.07-.07,.07-.18,0-.25"/></g></g></g></g></svg>