<?xml version="1.0" encoding="UTF-8"?><svg xmlns="http://www.w3.org/2000/svg" xmlns:xlink="http://www.w3.org/1999/xlink" viewBox="0 0 95.46 113.39"><defs><style>.cls-1,.cls-2,.cls-3{fill:none;}.cls-2{stroke:#000;stroke-width:1.08px;}.cls-2,.cls-3{stroke-linecap:round;stroke-miterlimit:10;}.cls-4{clip-path:url(#clippath);}.cls-5{opacity:.34;}.cls-5,.cls-6{mix-blend-mode:overlay;}.cls-7{fill:#ef9e5b;}.cls-8{fill:#e9873c;}.cls-9{fill:#eda1a0;}.cls-10{fill:#e85a3c;}.cls-11{fill:#e8532b;}.cls-12{fill:#e5d7c8;}.cls-13{fill:#9eb1cc;}.cls-14{fill:#8da955;}.cls-15{fill:#e39496;}.cls-16{fill:#6f883e;}.cls-17{fill:#3a2020;}.cls-18{fill:#3b201f;}.cls-19{fill:#4b681f;}.cls-20{fill:#4ec68a;}.cls-21{fill:#502818;}.cls-22{fill:#765341;}.cls-23{fill:#0f0f0f;mix-blend-mode:soft-light;opacity:.46;}.cls-3{stroke:#6e90b6;stroke-width:1.2px;}.cls-24{opacity:.36;}.cls-25{opacity:.35;}.cls-26{isolation:isolate;}</style><clipPath id="clippath"><path class="cls-1" d="M62.65,65.86l11.48-1.86c-8.59-24.44-20.28-20.96-20.28-20.96-.17,.26-1.64,1.89-4.5,1.91-3.75,.03-5.25-1.7-5.25-1.7l-.57-.07h0c-7.66-1.32-23.24,18.87-23.24,18.87l13.12,2.44c-.29,2.46-.55,4.75-.97,7.46-1.43,9.25,1.34,11.61,2.61,11.26,0,0,14.99,3.94,19.41,3.35,1.7-.23,5.9-2.08,5.9-2.08,0,0,2.85-5.46,2.72-10.85-.06-2.39-.18-5.05-.43-7.78Z"/></clipPath></defs><g class="cls-26"><g id="Livello_1"><g><g class="cls-25"><path class="cls-12" d="M81.78,36.2c0,.47-.07,1.64-.19,3.5-.12,1.87-.53,4.03-1.21,6.47-.7,2.46-1.75,5.06-3.19,7.79-1.43,2.74-3.45,5.28-6.07,7.62-2.62,2.32-5.91,4.25-9.91,5.77-3.99,1.52-8.85,2.27-14.58,2.27-4.6,0-8.78-.56-12.52-1.66-3.74-1.12-6.95-2.81-9.63-5.07-2.67-2.28-4.76-5.2-6.25-8.75s-2.24-7.85-2.24-12.85c0-4.2,.65-8.32,1.97-12.34,1.29-4.03,3.33-7.6,6.07-10.76s6.29-5.65,10.65-7.51c4.37-1.87,9.53-2.81,15.51-2.81,10.35,0,18.2,2.46,23.55,7.34,5.35,4.9,8.04,11.91,8.04,20.99Z"/></g><g><g><path d="M51.2,39.73l9.82-.37s1.58-6.73-1.19-8.22c-2.77-1.49-.32-8.59-7.52-10.31-.13-.03-.26-.06-.38-.09-5.95-1.22-10.27,5.59-6.75,10.53l6.02,8.46Z"/><g><g><path class="cls-9" d="M40.31,28.56c.57-3.6,4.15-9.61,10.52-5.91,2,1.16,2.86,3.29,3.26,5.49,.28,1.54-.26,15.2-.26,15.2-.54,6.06-9.45,7.6-9.76,.22l.19-3.69c-4.61-1.48-4.58-7.27-3.94-11.31Z"/><path class="cls-21" d="M44.25,39.87s2.6,.87,7.52-2.18c0,0-2.68,4.02-7.68,5.68l.16-3.49Z"/><path class="cls-23" d="M52.2,34.01c0,1.46-1.19,2.65-2.65,2.65s-2.65-1.19-2.65-2.65,1.19-2.65,2.65-2.65,2.65,1.19,2.65,2.65Z"/><path class="cls-23" d="M40.11,30.15c-.17,1.72-.16,3.6,.27,5.26,1.26-.21,2.22-1.3,2.22-2.61,0-1.41-1.1-2.56-2.49-2.64Z"/></g><g><path class="cls-9" d="M57.01,30.36c.25,1.05-.39,2.11-1.44,2.36-1.05,.25-2.11-.39-2.36-1.44-.25-1.05,.39-2.11,1.44-2.36,1.05-.25,2.11,.39,2.36,1.44Z"/><path d="M54.2,31.37c-.44-1.3,1.8-1.9,1.81-.44-.9,.07-.78,.28-1.81,.44h0Z"/></g><g><g><path d="M44.9,28.01c.04,1.22-.43,2.27-1.09,3.23,0,0-.26-.62-.26-.62,.49,.25,.98,.52,1.42,.92-.74,.08-1.41-.03-2.11-.15,.35-1.32,.89-2.54,2.04-3.38h0Z"/><path d="M47.25,28.82c.06,.38,.21,1.19,.33,1.25-.15,0,.03,0,.25-.2,.22-.18,.47-.46,.72-.68,.18-.16,.45-.15,.61,.03,.1,.11,.13,.25,.1,.39-.16,.65-.47,1.23-1.08,1.61-.95,.58-1.99-.32-1.9-1.33,.04-.47,.09-1.57,.76-1.37,.13,.06,.2,.18,.21,.31h0Z"/></g><path d="M41.83,28.21c.09,.42,.1,.88,.25,1.23,.04,.09,.05-.01-.12-.08-.2-.04-.22,.05-.15-.02,.31-.24,.57-.64,.89-.94,.17-.17,.45-.17,.62,0,.1,.1,.14,.24,.12,.37-.1,.6-.32,1.13-.78,1.58-.66,.64-1.66,.24-1.8-.53-.14-.5,.01-2.19,.77-1.91,.12,.06,.19,.17,.2,.29h0Z"/></g><path d="M43.48,33.76c.91,.06,1.53,.12,2.39-.05,.35,1.85-2.59,1.9-2.39,.05h0Z"/></g><path d="M41.27,25.59s5.72-.29,9.11-3.21c0,0-1.58,9.81,3.68,6.72,0,0,2.75-7.42-5.78-8.65,0,0-5.72,.35-7.01,5.14Z"/><path class="cls-11" d="M46.66,21.25c1.07,.14,2.13,.16,3.19,.05-.1-.03-.19-.06-.29-.09,0,0,6.45-3.07,5.67-7.51,0,0-4.4,.57-7.07,7.46,0,0-1.87-6.52-6.27-6.99,0,0,.13,2.23,1.1,4.44,.97,2.21,4.05,2.58,4.05,2.58,0,0-.14,.01-.37,.06Z"/><path class="cls-10" d="M41.27,25.59s3.45-4.97,7.48-4.15,4.61,7.94,4.61,7.94l.7-.29s1.29-6.72-4.91-8.06c0,0-4.73-1.17-7.89,4.56Z"/></g><g><g><g><g><g><path class="cls-15" d="M63.41,46.48s8.87,12.43,11.35,20.03c2.48,7.61,.81,15.26-5.42,15.55-3.55,.17-15.58-6.97-21.07-10.56-1.1-.72-1.64-1.71-1.83-2.78-.65-3.72,3.41-6.49,6.72-4.67l8.99,4.94-4.39-19.82,5.66-2.7Z"/><line class="cls-2" x1="61.91" y1="68.85" x2="67.75" y2="71.37"/></g><g><path class="cls-9" d="M38.6,46.01s-12.31,9.04-17.04,15.49c-4.73,6.45-5.54,14.24,.29,16.47,3.32,1.27,16.98-1.76,23.32-3.45,1.27-.34,2.09-1.11,2.61-2.07,1.78-3.33-1.21-7.23-4.92-6.53l-10.09,1.89,10.36-17.45-4.54-4.33Z"/><line class="cls-2" x1="33.03" y1="67.74" x2="26.7" y2="68.31"/></g><g><path class="cls-20" d="M62.65,65.86l11.48-1.86c-8.59-24.44-20.28-20.96-20.28-20.96-.17,.26-1.64,1.89-4.5,1.91-3.75,.03-5.25-1.7-5.25-1.7l-.57-.07h0c-7.66-1.32-23.24,18.87-23.24,18.87l13.12,2.44c-.29,2.46-.49,4.82-.9,7.53-1.43,9.25,1.28,11.54,2.55,11.19,0,0,14.99,3.94,19.41,3.35,1.7-.23,5.9-2.08,5.9-2.08,0,0,2.85-5.46,2.72-10.85-.06-2.39-.18-5.05-.43-7.78Z"/><g class="cls-4"><g><g><path class="cls-12" d="M41.33,47.58c-.1,.14-1.76-.93-3.69-2.39-1.94-1.46-3.42-2.75-3.32-2.89,.1-.14,1.76,.93,3.69,2.39,1.94,1.46,3.42,2.75,3.32,2.89Z"/><path class="cls-12" d="M41.4,51.82c-.06,.07-.67-.35-1.68-.97-1.01-.63-2.44-1.43-4.04-2.34-1.59-.91-3-1.82-3.93-2.6-.94-.77-1.42-1.35-1.37-1.41,.07-.07,.65,.39,1.63,1.05,.98,.67,2.39,1.51,3.98,2.41,1.59,.9,3.01,1.78,3.97,2.52,.97,.73,1.48,1.28,1.43,1.34Z"/><path class="cls-12" d="M41.17,56.9c-.06,.08-.93-.48-2.39-1.28-1.46-.81-3.54-1.81-5.83-2.97-1.14-.58-2.22-1.17-3.18-1.75-.95-.59-1.79-1.15-2.45-1.69-1.33-1.05-2-1.87-1.95-1.92,.07-.07,.84,.62,2.21,1.56,.68,.48,1.53,.99,2.48,1.55,.96,.54,2.03,1.11,3.17,1.69,2.28,1.15,4.35,2.23,5.77,3.14,1.43,.91,2.21,1.6,2.17,1.66Z"/><path class="cls-12" d="M43.88,61.94c-.03,.08-1.36-.3-3.46-1.03-2.11-.74-4.98-1.85-8.09-3.25-3.11-1.4-5.86-2.8-7.81-3.89-1.95-1.08-3.11-1.83-3.07-1.9,.04-.08,1.28,.53,3.28,1.51,2,.98,4.76,2.32,7.86,3.71,3.1,1.39,5.93,2.56,7.99,3.4,2.06,.84,3.34,1.36,3.31,1.45Z"/><path class="cls-12" d="M42.7,64.29c-.02,.08-1.48-.24-3.82-.84-2.34-.6-5.55-1.49-9.07-2.55-3.53-1.06-6.7-2.08-8.98-2.86-2.28-.78-3.68-1.32-3.65-1.4,.03-.08,1.47,.3,3.78,.97,2.33,.69,5.51,1.64,9.03,2.68,3.51,1.06,6.69,2.02,9.01,2.72,2.3,.71,3.72,1.18,3.7,1.27Z"/></g><g><path class="cls-12" d="M66.08,42.17c.07,.16-2.08,1.24-4.84,2.3-2.76,1.06-5.08,1.69-5.13,1.53-.06-.17,2.16-1.06,4.91-2.12,2.75-1.05,4.99-1.87,5.06-1.71Z"/><path class="cls-12" d="M72.88,44.26c.03,.08-.83,.49-2.26,1.05-1.43,.56-3.42,1.28-5.66,1.97-2.24,.69-4.29,1.23-5.78,1.56-1.5,.34-2.44,.48-2.46,.4-.04-.17,3.6-1.19,8.05-2.56,4.45-1.37,8.03-2.59,8.1-2.42Z"/><path class="cls-12" d="M73.67,49.15c.04,.17-3.56,1.26-8.02,2.58-4.46,1.31-8.08,2.36-8.13,2.19-.05-.16,3.49-1.48,7.96-2.79,4.47-1.32,8.15-2.14,8.2-1.97Z"/><path class="cls-12" d="M77.56,53.6c.02,.08-1.1,.47-2.94,.99-1.84,.52-4.4,1.17-7.26,1.79-2.85,.62-5.46,1.08-7.35,1.36-1.89,.28-3.07,.39-3.09,.31-.01-.09,1.14-.35,3.01-.75,1.89-.4,4.46-.94,7.3-1.54,2.83-.62,5.39-1.19,7.28-1.61,1.86-.41,3.03-.64,3.05-.56Z"/><path class="cls-12" d="M84.77,57.28c.02,.08-1.44,.49-3.82,1.05-2.38,.57-5.67,1.3-9.33,2.04-3.66,.74-6.98,1.35-9.39,1.75-2.41,.4-3.91,.6-3.93,.52-.02-.09,1.45-.44,3.84-.95,2.39-.51,5.69-1.19,9.35-1.93,3.65-.74,6.96-1.4,9.36-1.86,2.4-.46,3.89-.71,3.91-.62Z"/></g><g><path class="cls-12" d="M56.33,46.51c.02,.08-.84,.34-2.27,.54-1.42,.21-3.41,.34-5.6,.33-1.1,0-2.13-.03-3.08-.06-.95-.03-1.82-.1-2.54-.27-.72-.16-1.27-.39-1.63-.61-.35-.21-.51-.38-.49-.41,.05-.09,.81,.4,2.2,.58,.69,.1,1.53,.13,2.47,.13,.95,0,1.98,0,3.07,0,2.18,0,4.14-.05,5.56-.14,1.42-.09,2.3-.19,2.32-.1Z"/><path class="cls-12" d="M58.07,51.83c.01,.08-1.01,.31-2.69,.51-1.68,.2-4.02,.33-6.61,.24-2.59-.09-4.91-.4-6.57-.72-1.66-.32-2.67-.62-2.65-.7,.04-.19,4.13,.62,9.25,.79,5.11,.2,9.25-.31,9.28-.12Z"/></g></g></g></g></g><g><path class="cls-13" d="M54.65,42.9s.92-.13,1.44-.06c0,0,2.47,8.58,2.15,12.7-.32,.2-.8-.35-.8-.35l-.75-1.8s-.61-7.25-2.05-10.49Z"/><path class="cls-13" d="M42.47,43.14s-.93,.09-1.48,.29c0,0-2.47,8.34-2.15,12.47,.32,.2,.8-.35,.8-.35l.75-1.8s.65-7.36,2.08-10.6Z"/><g><path class="cls-13" d="M46.09,111.12c1.18,.14,2.23-.75,2.29-1.94,.23-4.79,.16-6.38,.16-6.38l1.17-.06c.16,2.46,.29,4.01,.38,6.58,.04,1.09,1.02,1.91,2.09,1.75l3.98-.59c.46-.07,.94-.07,1.4-.02l5.21,.66c1.08,.14,2.04-.7,2.06-1.78,.35-25.32-3.14-35.05-3.14-35.05l-3.47-21.2c-10.01,1.86-19.33-.32-19.33-.32l-3.66,20.22c-1.95,8.18-3.16,21.18-3.91,35.75-.07,1.33,1.14,2.38,2.44,2.11l3.41-.69c.3-.06,.6-.07,.9-.04l8.02,.98Z"/><g><path class="cls-3" d="M33.74,81.65s14.43,2.5,29.37,.48"/><line class="cls-3" x1="49.89" y1="83.14" x2="49.72" y2="102.75"/><path class="cls-3" d="M46.61,82.96s-2.26,19.48,3.16,18.35"/><path class="cls-3" d="M39.28,82.6s-1.51,13.93-6.82,13.1"/><path class="cls-3" d="M58.17,82.84s-.48,12.75,6.38,13.7"/><path class="cls-3" d="M33.96,79.82s15.43,1.95,28.97,.38"/><line class="cls-3" x1="36.23" y1="80.13" x2="35.98" y2="81.96"/><line class="cls-3" x1="37.87" y1="80.26" x2="37.62" y2="82.08"/><line class="cls-3" x1="58.9" y1="80.76" x2="59.16" y2="82.59"/><line class="cls-3" x1="60.23" y1="80.76" x2="60.48" y2="82.59"/></g></g></g></g><path class="cls-23" d="M35.22,73l14.43-3.86,12.08,5.23,.93,4.27s-11.53-.17-13.86-2.29c-2.33-2.12-14.58,1.43-14.58,1.43l1-4.78Z"/></g><g><g><g><path class="cls-15" d="M62.14,68.99l-8.99-4.94c-3.31-1.82-7.37,.95-6.72,4.67,.19,1.08,.73,2.06,1.83,2.78,5.5,3.59,17.53,10.73,21.07,10.56,4.98-.23,7.04-5.16,6.41-11.01-.07-.02-13.61-2.07-13.61-2.07Z"/><line class="cls-2" x1="61.91" y1="68.85" x2="67.75" y2="71.37"/></g><g><path class="cls-18" d="M38.21,62.7c-.06-.19-2.45-3.46-2.45-3.46,0,0,.16-2.72,2.88-2.78,2.72-.06,26.29-.62,20.23,5.57-6.06,6.19-20.66,.68-20.66,.68Z"/><g><g><path class="cls-16" d="M58.36,60.51c-.09-1.54,.42-3.04,.98-4.47,2.03-5.12,5.08-10,9.62-13.12-5.24,4.66-8.53,11.44-8.97,18.44"/><path class="cls-16" d="M59.13,60.71c2.04-6.06,6.21-11.39,11.61-14.82-.79,.86-1.57,1.73-2.36,2.59-2.92,3.21-6.01,6.82-6.15,11.15"/></g><g><g><path class="cls-7" d="M43.85,67.95c-3.24-1.01-5.46-4.56-4.96-7.91,.5-3.35,3.67-6.09,7.06-6.11,.97,0,1.96,.19,2.92,.01,1.43-.27,2.81-1.36,4.2-.92,.5,.16,.91,.49,1.4,.68,1.21,.46,2.61-.09,3.86,.26,1.27,.36,2.11,1.57,2.7,2.76,.54,1.07,.97,2.21,1.11,3.41,.53,4.32-3.05,8.37-7.23,9.56-4.19,1.19-9.27-.25-12.8-2.54"/><path class="cls-22" d="M49.42,55.08c-.64-1.16-1.37-2.28-2.17-3.34-.48-.64-.19-1.61,.59-1.81,.09-.02,.19-.04,.29-.03,.48,.04,.78,.51,.99,.94,.64,1.36,1.01,2.84,1.07,4.34"/></g><g class="cls-5"><path class="cls-17" d="M46.19,67.46c-.11,.06-.64-.63-1.1-1.94-.46-1.3-.8-3.24-.49-5.36,.16-1.06,.44-2.03,.81-2.89,.19-.43,.43-.84,.73-1.17,.29-.33,.61-.58,.92-.77,.62-.38,1.16-.54,1.54-.63,.38-.08,.6-.08,.62-.02,.02,.07-.16,.19-.48,.38-.32,.19-.79,.45-1.27,.84-.49,.4-.92,.94-1.21,1.73-.29,.79-.53,1.71-.68,2.68-.28,1.95-.08,3.76,.19,5.03,.26,1.28,.57,2.06,.43,2.13Z"/><path class="cls-17" d="M53.58,66.83c-.13,.03-.42-.67-.58-1.87-.08-.6-.13-1.31-.17-2.08-.04-.78-.07-1.62-.19-2.47-.11-.86-.3-1.65-.57-2.32-.27-.68-.63-1.21-.98-1.67-.35-.45-.66-.84-.84-1.13-.18-.29-.24-.48-.19-.52,.05-.04,.22,.06,.48,.26,.26,.2,.63,.5,1.07,.92,.44,.41,.94,1.01,1.29,1.77,.36,.75,.6,1.64,.72,2.56,.12,.93,.13,1.8,.12,2.59-.02,.76-.03,1.46-.05,2.06-.02,1.16,.02,1.88-.12,1.91Z"/><path class="cls-17" d="M59.67,67.77c-.14,.01-.34-1.06-.56-2.8-.11-.87-.23-1.91-.34-3.06-.12-1.15-.2-2.41-.59-3.59-.2-.58-.48-1.11-.85-1.53-.36-.42-.81-.74-1.29-.98-.95-.48-1.96-.62-2.8-.67-.85-.05-1.55-.02-2.05-.02-.49,0-.77-.03-.78-.1,0-.07,.25-.17,.73-.28,.48-.11,1.19-.25,2.09-.29,.9-.04,2.03,.03,3.18,.55,.57,.26,1.15,.63,1.62,1.16,.48,.52,.83,1.17,1.06,1.85,.46,1.37,.5,2.69,.57,3.84,.06,1.16,.11,2.2,.13,3.08,.04,1.75,0,2.84-.13,2.85Z"/><path class="cls-17" d="M49.03,54.49c-.02,.15-.95,.09-2.36,.41-.7,.16-1.52,.43-2.34,.88-.82,.45-1.67,1.06-2.17,1.93-.5,.88-.64,1.93-.77,2.9-.13,.97-.22,1.85-.31,2.59-.17,1.48-.32,2.41-.46,2.4-.13,0-.23-.93-.24-2.44,0-.75,.02-1.65,.1-2.65,.09-.98,.19-2.16,.82-3.29,.32-.56,.75-1.02,1.21-1.38,.46-.37,.94-.64,1.4-.87,.94-.45,1.86-.67,2.64-.76,1.56-.16,2.5,.17,2.47,.28Z"/></g></g><g><g><g><path class="cls-19" d="M36.17,51.24c-1.84-2.85-1.69-6.84,.35-9.54,.86,3.22,.9,6.66,.11,9.9"/><path class="cls-16" d="M35.58,52.22c-3.32-2.06-5.33-6.06-4.99-9.96,2.35,2.65,4.23,5.72,5.52,9.02"/><path class="cls-19" d="M35.08,51.61c-2.13-.07-4.15-1.51-4.89-3.51,2.42,.21,4.76,1.32,6.45,3.07"/><path class="cls-14" d="M36.06,52c-1.98-1.99-2.88-4.98-2.34-7.73,1.78,1.76,2.84,4.23,2.9,6.73"/></g><path class="cls-8" d="M36.03,51.25c-.95-.36-1.97,.63-2.04,1.64s.49,1.95,1.04,2.8c2.49,3.85,5.25,7.51,8.01,11.17,.46-.17,.44-.82,.32-1.3-1.16-4.66-2.73-9.22-4.68-13.61-.19-.42-.4-.87-.78-1.13-.39-.26-1-.23-1.22,.18"/></g><g class="cls-24"><g class="cls-6"><path class="cls-17" d="M36.47,54.03c.12,.24-.19,.65-.72,.87-.53,.22-1.04,.15-1.13-.11-.08-.26,.26-.6,.75-.8,.49-.2,.97-.2,1.1,.04Z"/></g><g class="cls-6"><path class="cls-17" d="M38.33,55.77c-.02-.27,.3-.53,.71-.66,.41-.12,.82-.1,.95,.14,.13,.24-.14,.65-.66,.81-.52,.16-.98-.02-1-.29Z"/></g><g class="cls-6"><path class="cls-17" d="M39.26,58.8c.12,.24-.07,.59-.43,.77-.36,.18-.75,.13-.88-.11-.12-.24,.07-.59,.43-.77,.36-.18,.75-.13,.88,.11Z"/></g><g class="cls-6"><path class="cls-17" d="M37.28,50.7c-.02,.28-.55,.47-1.15,.67-.6,.19-1.15,.35-1.32,.13-.08-.11-.04-.3,.14-.51,.18-.21,.49-.43,.88-.56,.39-.13,.77-.13,1.04-.06,.27,.07,.42,.2,.42,.33Z"/></g></g><path class="cls-17" d="M37.28,50.7c-.02,.28-.55,.47-1.15,.67-.6,.19-1.15,.35-1.32,.13-.08-.11-.04-.3,.14-.51,.18-.21,.49-.43,.88-.56,.39-.13,.77-.13,1.04-.06,.27,.07,.42,.2,.42,.33Z"/></g><path class="cls-22" d="M38.45,70.24c4.82,1.54,10.57,2.18,15.76,1.85,2.79-.18,5.92-.83,7.42-3.26,.85-1.38,1-3.08,1.12-4.71,.09-1.14,.17-2.27,.26-3.41,.04-.46,0-1.05-.43-1.21-.28-.1-.57,.05-.84,.19-4.51,2.42-9.88,2.14-14.95,1.81-3.8-.25-7.47-.88-11.03-2.27,0,0-.97,9.84,2.68,11Z"/><g><g><path class="cls-19" d="M55.33,62.81c.52-1.71,1.21-3.41,2.4-4.74,1.19-1.33,2.97-2.24,4.74-2.02,1.88,.24,3.38,1.67,4.5,3.19,1.85,2.52,3.05,5.52,3.45,8.62,.08,.61,.12,1.24-.06,1.83-.19,.59-.66,1.12-1.27,1.2-.96,.13-1.69-.8-2.21-1.62-.9-1.44-1.81-2.88-2.71-4.32-.63-1-1.27-2.01-2.14-2.81-.87-.79-2.03-1.35-3.2-1.26s-2.32,.97-2.47,2.14"/><g class="cls-6"><path class="cls-17" d="M68.61,66.5c-.05,.03-.64-.81-1.54-2.2-.45-.7-.98-1.53-1.57-2.45-.6-.9-1.29-1.89-2.3-2.58-.99-.7-2.2-.97-3.19-.65-1,.3-1.75,.97-2.32,1.54-1.15,1.16-1.62,2.09-1.69,2.05-.03-.01,.06-.26,.29-.67,.23-.41,.6-.98,1.17-1.6,.57-.61,1.32-1.34,2.43-1.71,.55-.18,1.19-.22,1.8-.09,.62,.12,1.22,.39,1.76,.77,1.09,.76,1.8,1.8,2.39,2.73,.58,.94,1.07,1.79,1.49,2.5,.84,1.43,1.33,2.33,1.27,2.37Z"/><path class="cls-17" d="M63.54,62.89c-.06-.03,.05-.29,.09-.72,.05-.42,0-1.02-.23-1.63-.23-.62-.55-1.14-.77-1.53-.22-.39-.35-.65-.3-.68,.05-.04,.26,.15,.56,.5,.29,.35,.68,.87,.93,1.56,.25,.69,.26,1.38,.12,1.85-.13,.47-.36,.69-.4,.66Z"/><path class="cls-17" d="M65.72,65.42c-.13-.01-.14-.87-.15-1.92,0-1.05,.02-1.9,.14-1.92,.12-.01,.31,.84,.31,1.92,0,1.07-.18,1.93-.3,1.92Z"/><path class="cls-17" d="M65.7,58.46c0,.12-.69,.21-1.54,.25-.85,.03-1.54-.01-1.56-.13-.01-.12,.68-.28,1.54-.31,.86-.03,1.56,.08,1.56,.2Z"/><path class="cls-17" d="M67.74,61.75c0,.12-.51,.21-1.11,.03-.6-.18-.96-.55-.89-.65,.07-.11,.5,.06,1.03,.22,.52,.17,.97,.27,.97,.4Z"/></g></g><path class="cls-22" d="M54.78,61.61s2.96-.38,3.84-.66l-.2,2.84-3.93,.18,.29-2.37Z"/></g></g></g></g><g><g><path class="cls-9" d="M43.95,66.56c-.24,0-11.18,1.24-11.18,1.24,0,0-6.19-1.62-8.91-1.36-1.79,.17-3.6,.36-5.34,.79-1.61,4.74-.83,9.16,3.33,10.74,3.32,1.27,16.68-3.73,23.02-5.42,.01,0-.54-3.56-.92-5.98Z"/><line class="cls-2" x1="33.17" y1="67.55" x2="27.03" y2="68.43"/></g><path class="cls-9" d="M42.63,66.84s.92,6.04,1.99,5.79c3.15-.56,8.09,1.15,8.69,.4,.65-.82-2.86-1.37-2.86-1.37,1.19-.17,5.59,1.09,5.5,.23-.06-.52-4.57-1.69-4.57-1.69,0,0,1.76,.02,3.93,.4,1.57,.27,1.55-.28,1.55-.28-.15-1.03-5.28-1.72-5.28-1.72,0,0,1.26-.1,2.18,0,.92,.1,2.15-.27,2.01-.63-.39-.97-6.82-.88-6.82-.88,0,0-.67,.05,.87-1.18,1.54-1.23,.82-1.78,.82-1.78,0,0-2.67,1.24-3.86,1.58-.47,.13-4.16,1.12-4.16,1.12Z"/></g></g></g></g></g></g></g></svg>