<?xml version="1.0" encoding="UTF-8"?><svg id="Livello_1" xmlns="http://www.w3.org/2000/svg" viewBox="0 0 95.46 113.39"><defs><style>.cls-1{fill:#e99b89;}.cls-2{fill:#fff;}.cls-3{fill:#e8532b;}.cls-4{fill:#8ab5d7;}.cls-5{fill:#9e513e;}.cls-6{fill:#315070;}.cls-7{fill:#bb624e;}.cls-8{fill:#cd812e;}.cls-9{fill:#e07f6f;}.cls-10{fill:#e0a041;}.cls-11{fill:#6ca2cc;}.cls-12{fill:#2b665d;}.cls-13{fill:#273558;}.cls-14{fill:#4ec68a;}.cls-15{fill:#765341;}</style></defs><g><path class="cls-14" d="M75.25,109.73c-1.86-.03-4.52,.7-6.92,.69-5.14-.03-11.33-.34-12.29-.33-2.35,.02-3.44,.47-6.12,.45-2.64-.02-9.88-.76-11.21-.76-1.09,0-2.5,.33-5.14,.47-2.64,.13-5.21-.66-6.45-.82-1.43-.19-6.8,.25-8.44,.25s-4.42-.39-5.89-.55c-1.47-.17-2.61-.57-2.13-.93,3.99-.33,8.16-.66,12.34-.52,1.41,.05,2.82,.15,4.24,.12,2.66-.06,3.38-.71,6.05-.68,2.35,.03,5.89,.62,8.24,.66,2.03,.03,3.88-.24,5.81-.39,2.7-.2,5.4-.58,7.93-.27,3.62,.44,6.23-.03,7.92,0,1.54,.03,2.87,.64,4.41,.6,1.53-.04,3.5-.74,5.04-.75,1.85-.02,3.37,.76,5.17,.88,2.92,.18,3.55,0,6.49,.16,2.06,.11,2.99,.13,4.13,.58,.94,.36,1.31,.47,.1,.76-.82,.2-2.15,.35-3.21,.46-2.31,.24-7.57-.05-10.08-.05Z"/><path class="cls-15" d="M35.12,63.29s1.56,4.31,2.99,6.42c1.42,2.11,4.36,3.67,4.81,4.53,0,0,4.26,.85,6.55,3.41,2.29,2.56-1.55,12.36-1.27,16.7,.28,4.34-.84,11.51-1.89,14.11,3.28,.74,6.91,.74,10.9,0,0,0-2.89-14.22-2.33-19.32,.57-5.1,.51-12.92,.75-15.05,.24-2.13,10.14-2.51,12.09-4.38s4.93-4.86,7.07-4.86,5.12-8.39,5.12-8.39h-.85s-2.4,6.8-6.03,7.66c-3.64,.87-4.38,4.59-7.73,3.42-3.35-1.17,.34-12.76,.34-12.76l-1.32,.33s-.66,10.01-2.8,14.37c-.85,1.74-2.63-1.17-3.64-.23-3.52,3.27-4.05-12.23-4.05-12.23l-1.49,.28s2.14,8.29,.68,12.94c-.7,2.25-3.9,2.28-5.43,2.7-4.69,1.28-6.09-1.54-5.52-2.83,.57-1.29,2.9-9.86,2.9-9.86l-1.05-.53s-1.55,9.53-4.55,9.53c-1.56,0-3.84-6.66-3.84-6.66l-.43,.69Z"/><path class="cls-14" d="M6.01,48.7c1.72,1.6,4.82,1.79,5.83,3.87,.53,1.08,.29,2.38,.73,3.5,.44,1.12,2.29,1.85,2.87,.79-.6,1.32,.6,2.86,2.05,3.28s3.01,.05,4.47-.32c-.69,1.83,0,4.04,1.63,5.23,1.63,1.18,4.07,1.25,5.76,.15,1.05-.68,2.07-1.82,3.32-1.55,1.63,.35,2.05,2.89,3.73,2.95,1.38,.05,2.06-1.64,3.34-2.15,2.26-.9,4.71,2.34,6.94,1.37,2.07-.91,1.61-4.56,3.83-5.05,1.72-.38,3.33,1.69,5,1.15,1.27-.41,1.62-2.08,2.83-2.63,1.44-.65,3,.64,3.89,1.89,.89,1.26,1.91,2.78,3.51,2.8,2.39,.03,3.25-3.2,5.43-4.11,.94-.4,2.03-.31,3.04-.14,1.72,.3,3.4,.82,4.97,1.56,1.95,.92,3.94,2.2,6.1,1.9,1.5-.21,2.84-1.25,3.34-2.6,.51-1.35,.16-2.95-.87-4.01,1.43,.32,3.04-.28,3.84-1.44s.74-2.8-.15-3.9c-.99-1.23-2.82-1.79-3.46-3.21-.42-.95-.19-2.04-.43-3.04-.24-1-1.44-1.98-2.33-1.4,1.29-1.74,2.61-3.57,2.95-5.68,.34-2.1-.64-4.56-2.75-5.28-1.53-.52-3.2-.04-4.82,.07-1.62,.12-3.59-.4-4.01-1.88-.25-.86,.08-1.91-.57-2.55-.81-.8-2.29-.18-3.36-.61-.97-.39-1.35-1.53-1.35-2.53s.24-2.02,0-2.99c-.4-1.61-2.08-2.71-3.8-3.03-1.72-.31-3.49,0-5.21,.32,1.29-.65,.61-2.64-.63-3.37-1.24-.74-2.84-.94-3.85-1.94-1.82-1.8-.62-4.83-1.44-7.21-.56-1.63-2.18-2.89-3.97-3.09-1.8-.21-3.68,.65-4.64,2.11-.1-.89-1.22-1.37-2.17-1.32-.95,.05-1.86,.42-2.81,.42-2.63-.01-4.32-2.75-6.83-3.48-2.93-.86-6.29,1.96-5.75,4.82,.3,1.59,1.56,3.09,1.13,4.66-.45,1.64-2.44,2.34-4.15,2.86s-3.68,1.41-3.86,3.1c-.27,2.53,3.81,4.34,3.03,6.78-.38,1.2-1.79,1.78-2.79,2.61s-1.46,2.66-.23,3.14c-5.98-2.33-12.06,1.12-13.31,6.6-.9,3.93-8.71,8.24-4,12.61Z"/><g><g><path class="cls-3" d="M30.51,36.8c.62,.86,.65,2-.13,2.71s-1.89,.54-2.71-.13c-.83-.69-.44-2.19,.68-2.17,.04-.97,1.55-1.26,2.17-.4Z"/><path class="cls-5" d="M28.53,37.38c-.19-.12-.36-.26-.49-.45-.07-.1-.12-.2-.15-.32-.03-.12-.03-.25,0-.38l.31,.1c-.03,.08-.05,.16-.04,.24,0,.09,.03,.18,.07,.26,.08,.17,.22,.34,.37,.47l-.06,.09Z"/><path class="cls-8" d="M28.67,37.05s.03,.25-.1,.37c-.13,.12-.35,.09-.38,.06s.15-.04,.28-.16c.13-.12,.16-.29,.19-.27Z"/></g><g><path class="cls-3" d="M62.06,23.64c.42,.58,.44,1.35-.09,1.83-.53,.48-1.28,.37-1.83-.09-.56-.47-.3-1.48,.46-1.47,.03-.66,1.05-.85,1.46-.27Z"/><path class="cls-5" d="M60.72,24.04c-.13-.08-.24-.18-.33-.3-.04-.06-.08-.14-.1-.22-.02-.08-.02-.17,0-.26l.21,.06c-.02,.05-.03,.11-.03,.16,0,.06,.02,.12,.05,.18,.06,.12,.15,.23,.25,.32l-.04,.06Z"/><path class="cls-8" d="M60.82,23.81s.02,.17-.06,.25c-.09,.08-.24,.06-.25,.04s.1-.03,.19-.11c.09-.08,.11-.2,.13-.18Z"/></g><g><path class="cls-3" d="M34.21,20.18c-.27,.66-.92,1.09-1.6,.89-.69-.2-.98-.89-.89-1.6,.1-.72,1.1-1.03,1.49-.39,.57-.32,1.28,.44,1,1.1Z"/><path class="cls-5" d="M33.17,19.25c0-.15,.02-.3,.08-.44,.03-.07,.07-.14,.13-.2,.06-.06,.14-.11,.22-.14l.05,.21c-.05,.01-.11,.03-.15,.06-.05,.04-.09,.08-.13,.14-.07,.11-.12,.24-.14,.38h-.07Z"/><path class="cls-8" d="M33.41,19.21s-.13,.11-.25,.08-.18-.17-.17-.19c0-.02,.08,.07,.19,.1s.23-.01,.22,.01Z"/></g><g><path class="cls-3" d="M81.14,52.03c.15,.7-.14,1.41-.82,1.64-.68,.23-1.32-.18-1.64-.82-.33-.65,.32-1.47,1.01-1.16,.29-.59,1.3-.36,1.45,.34Z"/><path class="cls-5" d="M79.75,51.84c-.08-.12-.15-.26-.18-.41-.01-.08-.02-.16,0-.24,.02-.08,.05-.17,.1-.24l.16,.14s-.07,.08-.09,.14c-.02,.06-.03,.12-.03,.18,0,.13,.04,.27,.1,.39l-.06,.04Z"/><path class="cls-8" d="M79.93,51.68s-.05,.16-.16,.2c-.11,.04-.24-.04-.25-.07s.11,.01,.22-.02c.11-.04,.18-.14,.19-.11Z"/></g><g><path class="cls-3" d="M41.32,47.72c-.45,.96-1.42,1.55-2.42,1.22-1.01-.33-1.4-1.38-1.22-2.42,.19-1.07,1.69-1.46,2.23-.48,.87-.44,1.86,.73,1.41,1.69Z"/><path class="cls-5" d="M39.84,46.27c0-.22,.05-.44,.15-.65,.05-.1,.12-.2,.21-.29,.09-.09,.21-.15,.33-.19l.07,.31c-.08,.01-.16,.04-.23,.08-.07,.05-.14,.11-.19,.19-.11,.16-.19,.35-.23,.55h-.1Z"/><path class="cls-8" d="M40.21,46.24s-.2,.15-.37,.1c-.17-.06-.25-.26-.24-.3s.11,.11,.28,.17c.17,.06,.34,0,.32,.03Z"/></g><g><path class="cls-3" d="M77.87,41.53c-.45,.96-1.42,1.55-2.42,1.22-1.01-.33-1.4-1.38-1.22-2.42,.19-1.07,1.69-1.46,2.23-.48,.87-.44,1.86,.73,1.41,1.69Z"/><path class="cls-5" d="M76.39,40.09c0-.22,.05-.44,.15-.65,.05-.1,.12-.2,.21-.29,.09-.09,.21-.15,.33-.19l.07,.31c-.08,.01-.16,.04-.23,.08-.07,.05-.14,.11-.19,.19-.11,.16-.19,.35-.23,.55h-.1Z"/><path class="cls-8" d="M76.76,40.05s-.2,.15-.37,.1c-.17-.06-.25-.26-.24-.3,.01-.04,.11,.11,.28,.17,.17,.06,.34,0,.32,.03Z"/></g><g><path class="cls-3" d="M20.75,53.53c.75,.75,1.86,.97,2.69,.32,.83-.66,.85-1.78,.32-2.69-.54-.94-2.08-.8-2.26,.31-.96-.12-1.5,1.32-.75,2.07Z"/><path class="cls-5" d="M21.65,51.67c-.08-.2-.2-.39-.36-.56-.08-.08-.18-.15-.3-.2-.12-.05-.25-.07-.38-.07l.04,.32c.08-.02,.16-.02,.25,0,.08,.02,.17,.06,.25,.12,.16,.11,.3,.27,.4,.44l.09-.04Z"/><path class="cls-8" d="M21.3,51.75s.24,.08,.38-.03c.14-.11,.14-.33,.12-.36-.02-.03-.07,.14-.21,.25s-.32,.11-.29,.14Z"/></g><g><path class="cls-3" d="M46.56,9.94c-.36,.77-1.14,1.25-1.95,.98-.81-.27-1.13-1.11-.98-1.95,.15-.86,1.36-1.18,1.79-.39,.7-.36,1.5,.59,1.14,1.36Z"/><path class="cls-5" d="M45.36,8.78c0-.18,.04-.35,.12-.52,.04-.08,.1-.16,.17-.24,.07-.07,.17-.12,.27-.15l.05,.25c-.06,0-.13,.03-.19,.07-.06,.04-.11,.09-.16,.16-.09,.13-.15,.28-.19,.44h-.08Z"/><path class="cls-8" d="M45.66,8.75s-.16,.12-.3,.08c-.13-.04-.2-.21-.19-.24,0-.03,.09,.09,.23,.13s.27,0,.26,.03Z"/></g><g><path class="cls-3" d="M44.86,28.1c-.52,1.11-1.64,1.79-2.8,1.41-1.16-.39-1.62-1.6-1.41-2.8,.22-1.23,1.95-1.69,2.57-.56,1-.51,2.15,.84,1.64,1.95Z"/><path class="cls-5" d="M43.15,26.43c.01-.26,.06-.51,.17-.75,.06-.12,.14-.24,.24-.34,.11-.1,.24-.17,.38-.22l.08,.36c-.09,.01-.18,.04-.27,.1-.08,.06-.16,.13-.22,.22-.13,.18-.22,.41-.27,.64h-.12Z"/><path class="cls-8" d="M43.57,26.39s-.23,.18-.43,.11c-.19-.06-.29-.3-.27-.34,.01-.04,.13,.13,.32,.19,.19,.06,.39,0,.37,.04Z"/></g></g><g><path class="cls-12" d="M46.25,45.33c.48,.3,.95,.63,1.4,.98,.45,.35,.89,.72,1.3,1.13,.1,.11,.2,.21,.3,.33,.09,.13,.19,.23,.27,.44,.02,.06,.03,.13,.02,.23-.01,.11-.11,.22-.19,.27-.17,.08-.27,.06-.36,.06-.18-.02-.33-.06-.47-.1-.57-.17-1.09-.42-1.6-.67l.37-.22c-.03,.36-.08,.7-.15,1.04-.08,.34-.16,.69-.32,1.02-.08,.16-.18,.33-.33,.47-.07,.07-.17,.13-.28,.15-.11,.02-.22,.01-.32-.03-.36-.17-.55-.48-.71-.77,.23,.24,.49,.51,.77,.57,.27,.06,.43-.24,.53-.53,.1-.3,.16-.63,.2-.95,.04-.33,.07-.66,.08-.99v-.39s.37,.16,.37,.16c.51,.23,1.03,.45,1.54,.62,.12,.04,.26,.07,.36,.08,.05,0,.1,0,.06,0-.03,0-.07,.07-.07,.1,0,.03,0,.03,0,.02-.01-.06-.09-.18-.16-.28-.08-.11-.16-.21-.25-.32-.73-.83-1.56-1.62-2.35-2.44Z"/><path class="cls-12" d="M32.64,53.15c-.52,.47-1.03,.94-1.46,1.47-.22,.26-.42,.54-.57,.83-.15,.28-.23,.6-.13,.81,.05,.11,.14,.2,.25,.28,.11,.08,.27,.13,.41,.19,.29,.08,.58,.09,.84-.01,.53-.21,.93-.8,1.17-1.38l.12-.3,.27,.15c.43,.25,.88,.49,1.33,.7,.45,.2,.92,.41,1.38,.48,.23,.03,.46,.03,.56-.09,.11-.12,.11-.38,.07-.61-.09-.48-.32-.95-.52-1.42,.3,.42,.57,.86,.75,1.36,.08,.25,.16,.56-.04,.87-.1,.14-.27,.23-.42,.26-.15,.04-.3,.03-.44,.03-.56-.05-1.05-.23-1.54-.42-.48-.2-.95-.42-1.41-.68l.39-.14c-.14,.37-.31,.68-.55,.99-.24,.3-.55,.57-.94,.71-.39,.15-.83,.13-1.2,0-.18-.09-.35-.14-.52-.27-.17-.12-.33-.29-.41-.51-.08-.22-.07-.45-.02-.65,.05-.2,.14-.37,.24-.53,.2-.32,.44-.58,.69-.83,.52-.49,1.08-.91,1.68-1.27Z"/><path class="cls-12" d="M69.03,33.78c-.05-.41-.05-.83,0-1.25,.03-.21,.07-.42,.16-.62,.09-.2,.21-.43,.48-.52,.26-.08,.51,.01,.71,.11,.21,.11,.4,.3,.48,.54,.08,.24,.06,.49,0,.7-.06,.22-.15,.42-.28,.61l-.08-.24c.3,.1,.59,.22,.88,.36,.28,.14,.56,.3,.81,.54,.06,.06,.12,.13,.16,.22,.04,.09,.05,.21,0,.31-.1,.18-.27,.25-.42,.3-.31,.1-.62,.14-.93,.17,.3-.09,.6-.16,.87-.3,.13-.07,.26-.15,.3-.25,.04-.09-.04-.19-.14-.29-.21-.18-.5-.31-.77-.44-.28-.12-.57-.23-.85-.32l-.19-.06,.11-.18c.19-.31,.34-.72,.23-1.03-.05-.15-.17-.28-.32-.37-.16-.09-.33-.14-.48-.11-.15,.03-.27,.18-.35,.35-.09,.17-.15,.36-.19,.56-.1,.39-.14,.8-.17,1.22Z"/><path class="cls-12" d="M21.55,37.93c-.23-.22-.43-.44-.62-.66-.19-.21-.38-.44-.57-.57-.09-.07-.15-.08-.16-.08-.03-.02-.11,.07-.18,.18-.14,.22-.25,.51-.4,.79-.07-.31-.09-.63,0-.96,.05-.16,.13-.36,.38-.49,.13-.06,.28-.05,.39-.02,.12,.03,.21,.08,.28,.14,.29,.23,.46,.5,.6,.78,.14,.28,.23,.58,.26,.9Z"/><path class="cls-12" d="M80.87,48.78c.32-.02,.63-.01,.93,0,.29,0,.59,.03,.83-.01,.12-.01,.19-.06,.18-.05,.02,.01,.02-.11-.02-.23-.08-.25-.24-.52-.36-.82,.29,.15,.55,.34,.74,.63,.09,.14,.21,.34,.11,.64-.06,.14-.18,.25-.28,.29-.11,.05-.2,.07-.3,.09-.37,.04-.68-.02-.99-.11-.3-.09-.59-.22-.85-.42Z"/><path class="cls-12" d="M17.64,45.99c-.59,.09-1.2,.1-1.81-.02-.3-.05-.61-.16-.9-.34-.28-.17-.56-.48-.6-.86-.03-.09,0-.18-.02-.27,0-.09,0-.18,.03-.26l.07-.25,.13-.25c.2-.34,.6-.53,.95-.54,.7-.04,1.28,.21,1.84,.51l-.34,.28c-.07-.25-.11-.49-.15-.74-.04-.25-.05-.5-.03-.77,.02-.13,.04-.27,.13-.41,.09-.15,.31-.19,.43-.15,.26,.09,.44,.26,.61,.43-.21-.12-.43-.24-.64-.26-.11,0-.17,.03-.2,.1-.03,.08-.04,.18-.04,.29,.03,.44,.17,.91,.32,1.34l.18,.51-.51-.23c-.5-.23-1.08-.41-1.57-.38-.24,.03-.43,.12-.55,.29-.02,.05-.05,.1-.08,.15l-.05,.18c-.02,.06-.02,.12-.03,.17,0,.06-.03,.12,0,.17,.03,.45,.55,.77,1.08,.94,.54,.18,1.13,.28,1.72,.35Z"/><path class="cls-12" d="M49.47,23.58c.25-.5,.52-.98,.81-1.45,.29-.47,.6-.93,.95-1.37,.17-.22,.35-.44,.55-.65,.1-.1,.21-.2,.34-.3,.07-.05,.13-.09,.22-.14,.08-.04,.2-.09,.37-.06,.1,.02,.18,.06,.23,.13,.07,.07,.09,.13,.1,.18,.05,.12,.04,.19,.05,.29,0,.16-.02,.32-.04,.46-.05,.29-.12,.56-.19,.83l-.24-.33c.36,.03,.69,.09,1.03,.17,.34,.1,.68,.21,.98,.45,.15,.12,.29,.28,.34,.5,.05,.21-.02,.42-.12,.57-.19,.31-.46,.53-.74,.71,.22-.25,.44-.51,.55-.8,.11-.3,.02-.54-.24-.68-.25-.15-.56-.23-.87-.29-.31-.06-.64-.09-.95-.1h-.32s.08-.33,.08-.33c.06-.26,.13-.52,.16-.78,.02-.13,.03-.25,.03-.36,0-.04,0-.11-.01-.12,0-.01,0-.02,0,0,.02,0,.03,.02,.06,.03,.04,0,.01,0-.02,.02-.03,0-.09,.05-.13,.08-.1,.07-.19,.15-.29,.24-.19,.18-.38,.38-.56,.58-.72,.81-1.41,1.67-2.13,2.51Z"/><path class="cls-12" d="M37.64,17.01c-.31-.42-.55-.88-.72-1.38-.09-.25-.15-.51-.18-.78-.02-.27-.02-.57,.12-.89,.15-.32,.55-.52,.84-.51,.28-.02,.65,.03,.88,.31,.23,.26,.26,.58,.24,.84-.02,.27-.1,.53-.21,.76,0-.26,0-.51-.06-.75-.04-.23-.14-.45-.27-.55-.13-.1-.32-.13-.53-.09-.21,.02-.32,.09-.39,.24-.08,.15-.1,.37-.09,.6,0,.23,.04,.47,.08,.71,.08,.49,.2,.98,.31,1.48Z"/></g></g><g><polygon class="cls-11" points="60.39 60.27 60 60.27 47.28 109.02 47.97 109.02 60.35 61.53 60.39 60.27"/><path class="cls-4" d="M77.23,109.02h-.68l-17.89-52.24c-.31-.91-1.31-1.65-2.23-1.65h-2.3v-.67h2.08c1.3,0,2.71,1.05,3.14,2.33l17.9,52.24Z"/><g><g><g><path class="cls-10" d="M49.32,57.73c-.35,.49-.37,1.13,.08,1.54s1.07,.31,1.54-.08c.47-.39,.25-1.24-.38-1.23-.02-.55-.88-.72-1.23-.23Z"/><path class="cls-5" d="M50.45,58.06c.11-.07,.2-.15,.28-.26,.04-.05,.07-.12,.09-.18,.02-.07,.02-.14,0-.22l-.17,.05s.03,.09,.02,.14c0,.05-.02,.1-.04,.15-.05,.1-.12,.19-.21,.27l.03,.05Z"/><path class="cls-8" d="M50.37,57.87s-.02,.14,.05,.21c.07,.07,.2,.05,.21,.03,.01-.02-.09-.03-.16-.09-.07-.07-.09-.17-.11-.15Z"/></g><g><path class="cls-3" d="M46.34,58.86c.37,.81,1.19,1.3,2.04,1.02,.84-.28,1.18-1.16,1.02-2.04-.16-.9-1.42-1.23-1.87-.4-.73-.37-1.56,.61-1.19,1.42Z"/><path class="cls-5" d="M47.58,57.65c0-.19-.04-.37-.13-.54-.04-.09-.1-.17-.17-.25-.08-.07-.17-.13-.28-.16l-.06,.26c.07,0,.13,.03,.19,.07,.06,.04,.11,.1,.16,.16,.09,.13,.16,.3,.19,.46h.09Z"/><path class="cls-8" d="M47.28,57.61s.17,.13,.31,.08c.14-.05,.21-.22,.2-.25-.01-.03-.1,.09-.24,.14-.14,.05-.28,0-.27,.03Z"/></g><g><path class="cls-10" d="M54.13,58.67c.37,.81,1.19,1.3,2.04,1.02,.84-.28,1.18-1.16,1.02-2.04-.16-.9-1.42-1.23-1.87-.4-.73-.37-1.56,.61-1.19,1.42Z"/><path class="cls-5" d="M55.38,57.46c0-.19-.04-.37-.13-.54-.04-.09-.1-.17-.17-.25-.08-.07-.17-.13-.28-.16l-.06,.26c.07,0,.13,.03,.19,.07,.06,.04,.11,.1,.16,.16,.09,.13,.16,.3,.19,.46h.09Z"/><path class="cls-8" d="M55.07,57.43s.17,.13,.31,.08c.14-.05,.21-.22,.2-.25-.01-.03-.1,.09-.24,.14-.14,.05-.28,0-.27,.03Z"/></g><g><path class="cls-3" d="M59.57,59.78c-.63,.63-1.56,.82-2.26,.27-.7-.55-.71-1.49-.27-2.26,.46-.79,1.75-.67,1.9,.26,.81-.1,1.26,1.11,.63,1.74Z"/><path class="cls-5" d="M58.81,58.22c.07-.17,.17-.33,.3-.47,.07-.07,.15-.13,.25-.17,.1-.04,.21-.06,.32-.06l-.04,.27c-.07-.01-.14-.02-.21,0-.07,.02-.14,.05-.21,.1-.13,.09-.25,.23-.34,.37l-.08-.04Z"/><path class="cls-8" d="M59.11,58.29s-.2,.06-.32-.03c-.12-.09-.12-.28-.1-.3,.02-.03,.06,.12,.17,.21s.27,.09,.25,.12Z"/></g><g><path class="cls-3" d="M51.3,58.44c.43,.93,1.38,1.5,2.35,1.18s1.36-1.34,1.18-2.35c-.18-1.03-1.64-1.42-2.16-.47-.84-.43-1.81,.71-1.37,1.64Z"/><path class="cls-5" d="M52.74,57.04c0-.21-.05-.42-.15-.63-.05-.1-.11-.2-.2-.28-.09-.08-.2-.15-.32-.19l-.07,.31c.08,.01,.15,.04,.22,.08,.07,.05,.13,.11,.19,.19,.11,.15,.18,.34,.22,.53h.1Z"/><path class="cls-8" d="M52.38,57.01s.2,.15,.36,.09c.16-.05,.24-.25,.23-.29-.01-.04-.11,.11-.27,.16-.16,.05-.33,0-.31,.03Z"/></g></g><g><path class="cls-9" d="M60.14,59.2c0,1.67-.21,6.02-2.43,8.87-.59,.75-1.49,1.19-2.44,1.19h-4.41c-.95,0-1.85-.44-2.44-1.19-2.22-2.84-2.43-7.19-2.43-8.87,0-.38,.31-.69,.7-.69h12.76c.38,0,.69,.31,.7,.69Z"/><g><path class="cls-7" d="M46.09,61.29c.33-.59,.76-1.09,1.22-1.55,.47-.46,.96-.89,1.55-1.22-.33,.6-.76,1.09-1.22,1.56-.47,.46-.96,.89-1.56,1.22Z"/><path class="cls-7" d="M46.55,64.03c.4-.52,.81-1.03,1.25-1.51,.43-.49,.88-.95,1.34-1.42,.92-.92,1.87-1.8,2.92-2.59-.78,1.06-1.67,2-2.58,2.93-.92,.91-1.87,1.81-2.93,2.58Z"/><path class="cls-7" d="M47.39,66.39c1.18-1.44,2.46-2.79,3.77-4.1,1.32-1.31,2.66-2.59,4.1-3.77-1.17,1.45-2.46,2.79-3.76,4.11-1.32,1.31-2.66,2.59-4.11,3.76Z"/><path class="cls-7" d="M48.65,68.34c1.51-1.76,3.11-3.44,4.74-5.08,.82-.82,1.65-1.63,2.49-2.42,.84-.8,1.71-1.57,2.58-2.33-1.5,1.77-3.11,3.44-4.74,5.08-1.64,1.63-3.31,3.24-5.08,4.74Z"/><path class="cls-7" d="M50.92,69.26c.71-.83,1.43-1.64,2.17-2.43,.74-.79,1.5-1.57,2.26-2.34,1.54-1.53,3.11-3.03,4.77-4.44-1.4,1.67-2.9,3.23-4.43,4.77-1.54,1.53-3.1,3.03-4.77,4.43Z"/><path class="cls-7" d="M54.12,69.26c.78-1.06,1.66-2.02,2.57-2.94,.92-.92,1.88-1.8,2.94-2.57-.38,.54-.8,1.04-1.23,1.53-.43,.49-.88,.96-1.34,1.42-.46,.46-.93,.91-1.42,1.34-.49,.43-.99,.85-1.53,1.23Z"/><path class="cls-7" d="M57.26,58.52c.61,.31,1.11,.74,1.57,1.2,.46,.47,.89,.96,1.2,1.57-.61-.31-1.11-.74-1.57-1.2-.46-.47-.89-.96-1.2-1.57Z"/><polygon class="cls-7" points="59.46 63.92 57.68 62.51 58.05 62.13 59.46 63.92"/><rect class="cls-7" x="55.2" y="58.79" width=".53" height="2.26" transform="translate(-26.13 56.77) rotate(-45)"/><rect class="cls-7" x="52" y="58.79" width=".53" height="2.26" transform="translate(-27.06 54.51) rotate(-45)"/><polygon class="cls-7" points="58.73 66.39 57.68 65.71 58.05 65.33 58.73 66.39"/><rect class="cls-7" x="55.2" y="61.99" width=".53" height="2.26" transform="translate(-28.39 57.71) rotate(-45)"/><rect class="cls-7" x="50.4" y="60.39" width=".53" height="2.26" transform="translate(-28.66 53.83) rotate(-44.99)"/><polygon class="cls-7" points="57.48 68.34 56.08 67.31 56.45 66.93 57.48 68.34"/><rect class="cls-7" x="53.6" y="63.59" width=".53" height="2.26" transform="translate(-29.99 57.05) rotate(-45.01)"/><polygon class="cls-7" points="48.08 59.31 47.66 58.52 48.45 58.93 48.08 59.31"/><rect class="cls-7" x="53.6" y="66.79" width=".53" height="2.26" transform="translate(-32.25 57.98) rotate(-45)"/><rect class="cls-7" x="47.2" y="60.39" width=".53" height="2.26" transform="translate(-29.6 51.58) rotate(-45)"/><rect class="cls-7" x="50.4" y="63.59" width=".53" height="2.26" transform="translate(-30.93 54.78) rotate(-45)"/><rect class="cls-7" x="48.8" y="65.19" width=".53" height="2.26" transform="translate(-32.53 54.12) rotate(-45)"/><path class="cls-7" d="M52,69.26c-.24,.06-.36,0-.46-.08-.08-.1-.14-.22-.08-.46,.24-.06,.36,0,.46,.08,.08,.1,.14,.22,.08,.46Z"/><path class="cls-7" d="M46.66,63.92c-.18,.12-.24,.12-.28,.1-.02-.03-.02-.1,.1-.28,.18-.12,.24-.12,.28-.1,.02,.04,.02,.1-.1,.28Z"/></g></g></g><polygon class="cls-11" points="49.47 60.27 49.09 60.27 36.37 109.02 37.05 109.02 49.43 61.57 49.47 60.27"/><polygon class="cls-11" points="52.23 91.73 41.38 91.73 41.39 91.36 52.24 91.36 52.23 91.73"/><path class="cls-4" d="M66.31,109.02h-.68l-17.9-52.24c-.43-1.28,.27-2.33,1.57-2.33h4.81v.67h-4.58c-.92,0-1.42,.74-1.11,1.65l17.89,52.24Z"/><polygon class="cls-4" points="71.91 94.79 60.99 94.79 60.69 93.9 71.6 93.9 71.91 94.79"/><polygon class="cls-4" points="69.81 88.63 58.9 88.63 58.6 87.74 69.51 87.74 69.81 88.63"/><polygon class="cls-4" points="73.94 100.51 63.02 100.51 62.72 99.61 73.63 99.61 73.94 100.51"/><polygon class="cls-4" points="67.72 82.48 56.81 82.48 56.5 81.58 67.42 81.58 67.72 82.48"/><polygon class="cls-4" points="65.63 76.32 54.72 76.32 54.41 75.42 65.33 75.42 65.63 76.32"/><polygon class="cls-4" points="63.54 70.16 46.92 70.16 47.1 69.26 63.17 69.26 63.54 70.16"/></g><g><path class="cls-1" d="M54.81,53.93s5.66-.06,8.41-1.54l.31,3.25s-5.45,.97-8.86-.58c0,0-1.37,.88-1.8,.69-.6-.26-.83-1.22-.51-2.01,.21-.53,1.56-.07,2.44,.19Z"/><path class="cls-4" d="M52.84,54.46h-1.31v.67h1.31c.18,0,.33-.15,.33-.33h0c0-.18-.15-.33-.33-.33Z"/><path class="cls-15" d="M84.53,87.26s.37,1.77-.75,4.23l.25,.34,3.72-3.01-2.12-2.38-1.1,.81Z"/><path class="cls-15" d="M66.97,90.73s-.04,1.43-2.41,2.75v.42h4.08l-.3-3.17h-1.36Z"/><path class="cls-6" d="M73.08,52.4s13.46,21.61,13.46,34.5l-2.27,.95-18.64-32.38,7.45-3.07Z"/><path class="cls-13" d="M70.59,55.94s2.46,4.22,2.97,13.32l-3.38-5.88,.41-7.44Z"/><path class="cls-6" d="M62.42,55.66l3.88,35.89h2.8s4.65-10.3,1.09-39.11c0,0-4.95-.64-7.78,3.22Z"/><path class="cls-1" d="M61.43,41.85s-.47-1.35,.26-2.89c0,0-1.03,.44-1.67,0-.42-.28,.41-3.95,2.41-5.27,2-1.33,3.4,1.9,2.65,3.09-.75,1.19-2.59,1.58-1.64,4.45,0,0-.86,.6-2.02,.61Z"/><path class="cls-15" d="M66.31,35.47c.02-2.84-4.76-3.18-4.59-1.47,.08,.77,.29,1.88,.72,2.51,0,0,.65-.45,.78,.05,.13,.5-.71,.62-.71,.62,0,0-.21,2.15,.59,4.25,1.16,.65,3.12,.46,3.65-.22,.51-2.49-.4-4.35-.46-5.74Z"/><path class="cls-2" d="M60.69,40.97s3.32-.43,5.08,.85c1.77,1.28,6.23,8.47,8.16,12.1,0,0-4.74-1.87-11.82,2.54,0,0-3.58-12.51-1.43-15.5Z"/><path class="cls-2" d="M62.11,40.9s-2-.65-4.95-2.14l-1.53,3.61c4.16,2.33,7.53,2.74,6.48-1.48Z"/><path class="cls-1" d="M45.15,30.04c-1.25,3.31,5.26,9.43,10.49,12.34l1.53-3.61c-3.75-1.89-7.4-3.71-12.02-8.73Z"/><path class="cls-1" d="M46.26,31.21s-2.08-3.56-2.26-3.54c-.18,.02,.2,1.19,.2,1.19,0,0-2.07-1.44-2.25-1.04-.11,.23,1.05,.94,1.05,.94,0,0-1.31-.43-1.38-.09s.09,1.31,.6,1.81,4.03,.72,4.03,.72Z"/><path class="cls-13" d="M60.02,45.25s1.69,10.09,5.38,8.92c3.7-1.16,7-1.25,8.24-.78l.29,.54s-6.45-.54-9.1,2.02c0,0,1.1,12.56-1.3,15.1l-1.92-14.58s-1.86-4.95-1.59-11.22Z"/></g><g><g><g><path class="cls-10" d="M26.88,95.73c.37,.51,.39,1.19-.08,1.62s-1.13,.32-1.62-.08c-.5-.41-.26-1.31,.4-1.3,.03-.58,.92-.75,1.29-.24Z"/><path class="cls-5" d="M25.7,96.07c-.11-.07-.21-.16-.29-.27-.04-.06-.07-.12-.09-.19-.02-.07-.02-.15,0-.23l.18,.06s-.03,.09-.02,.14c0,.05,.02,.1,.04,.16,.05,.1,.13,.2,.22,.28l-.04,.05Z"/><path class="cls-8" d="M25.79,95.87s.02,.15-.06,.22c-.08,.07-.21,.05-.22,.04-.02-.02,.09-.03,.17-.1,.08-.07,.1-.18,.11-.16Z"/></g><g><path class="cls-3" d="M30.45,97.41c-.39,.85-1.25,1.37-2.14,1.07-.89-.29-1.24-1.22-1.07-2.14,.17-.94,1.49-1.29,1.97-.42,.76-.39,1.64,.64,1.25,1.49Z"/><path class="cls-5" d="M29.14,96.14c0-.2,.05-.39,.13-.57,.05-.09,.1-.18,.18-.26,.08-.08,.18-.13,.29-.17l.06,.28c-.07,.01-.14,.03-.2,.07-.06,.04-.12,.1-.17,.17-.1,.14-.17,.31-.2,.49h-.09Z"/><path class="cls-8" d="M29.46,96.1s-.18,.14-.32,.09-.22-.23-.21-.26,.1,.1,.25,.15,.3,0,.29,.03Z"/></g><g><path class="cls-10" d="M21.62,96.62c-.39,.85-1.25,1.37-2.14,1.07-.89-.29-1.24-1.22-1.07-2.14,.17-.94,1.49-1.29,1.97-.42,.76-.39,1.64,.64,1.25,1.49Z"/><path class="cls-5" d="M20.31,95.35c0-.2,.05-.39,.13-.57,.05-.09,.1-.18,.18-.26,.08-.08,.18-.13,.29-.17l.06,.28c-.07,.01-.14,.03-.2,.07-.06,.04-.12,.1-.17,.17-.1,.14-.17,.31-.2,.49h-.09Z"/><path class="cls-8" d="M20.64,95.31s-.18,.14-.33,.09c-.15-.05-.22-.23-.21-.26,.01-.03,.1,.1,.25,.15,.15,.05,.3,0,.29,.03Z"/></g><g><path class="cls-3" d="M16.39,97.87c.66,.66,1.65,.86,2.38,.28,.73-.58,.75-1.57,.28-2.38-.48-.83-1.84-.71-1.99,.27-.85-.11-1.33,1.16-.67,1.83Z"/><path class="cls-5" d="M17.18,96.22c-.07-.18-.17-.35-.32-.49-.07-.07-.16-.13-.26-.18-.1-.04-.22-.06-.33-.06l.04,.28c.07-.01,.14-.02,.22,0,.07,.02,.15,.05,.22,.1,.14,.1,.26,.24,.36,.39l.08-.04Z"/><path class="cls-8" d="M16.87,96.3s.21,.07,.33-.03c.12-.1,.13-.29,.11-.32-.02-.03-.06,.13-.18,.22-.12,.1-.28,.1-.26,.13Z"/></g><g><path class="cls-3" d="M25.23,96.98c-.46,.98-1.45,1.58-2.48,1.24-1.03-.34-1.43-1.41-1.24-2.48,.19-1.09,1.72-1.49,2.27-.49,.88-.45,1.9,.74,1.44,1.73Z"/><path class="cls-5" d="M23.72,95.5c0-.23,.05-.45,.15-.66,.05-.11,.12-.21,.21-.3,.09-.09,.21-.15,.34-.19l.07,.32c-.08,.01-.16,.04-.24,.08-.07,.05-.14,.12-.2,.2-.11,.16-.19,.36-.24,.56h-.11Z"/><path class="cls-8" d="M24.09,95.47s-.21,.16-.38,.1c-.17-.06-.25-.27-.24-.3s.12,.11,.29,.17,.34,0,.33,.04Z"/></g></g><g><path class="cls-9" d="M30.69,97.78c0,1.76-.22,6.34-2.56,9.33-.62,.79-1.56,1.25-2.57,1.25h-4.64c-1,0-1.95-.46-2.57-1.25-2.33-2.99-2.56-7.57-2.56-9.33,0-.4,.33-.73,.73-.73h13.42c.4,0,.73,.32,.73,.73Z"/><g><path class="cls-7" d="M15.91,99.97c.17-.32,.38-.6,.59-.87,.21-.27,.45-.52,.69-.77,.25-.24,.5-.48,.77-.69,.27-.22,.55-.42,.87-.59-.34,.63-.8,1.15-1.28,1.64-.49,.48-1.01,.94-1.64,1.28Z"/><path class="cls-7" d="M16.4,102.85c.83-1.1,1.76-2.1,2.72-3.07,.97-.96,1.97-1.89,3.07-2.72-.82,1.11-1.76,2.11-2.72,3.08-.49,.48-.98,.95-1.49,1.41-.51,.46-1.03,.9-1.59,1.31Z"/><path class="cls-7" d="M17.28,105.33c1.25-1.51,2.59-2.93,3.96-4.31,1.38-1.38,2.8-2.72,4.31-3.96-1.23,1.53-2.59,2.93-3.96,4.32-1.39,1.37-2.8,2.72-4.32,3.96Z"/><path class="cls-7" d="M18.6,107.38c1.59-1.86,3.27-3.61,4.99-5.34,.86-.86,1.73-1.71,2.62-2.54,.88-.84,1.79-1.65,2.72-2.45-1.58,1.87-3.27,3.62-4.98,5.34-1.73,1.71-3.48,3.41-5.34,4.98Z"/><path class="cls-7" d="M20.99,108.36c.74-.87,1.5-1.73,2.28-2.56,.78-.84,1.58-1.65,2.38-2.46,1.62-1.61,3.27-3.19,5.02-4.67-1.47,1.76-3.05,3.4-4.66,5.02-1.62,1.61-3.26,3.19-5.02,4.66Z"/><path class="cls-7" d="M24.36,108.36c.82-1.12,1.75-2.12,2.71-3.1,.97-.96,1.98-1.89,3.1-2.71-.4,.57-.84,1.09-1.29,1.61-.45,.52-.93,1.01-1.41,1.49-.49,.48-.98,.95-1.49,1.41-.51,.45-1.04,.9-1.61,1.3Z"/><path class="cls-7" d="M27.66,97.05c.64,.33,1.16,.78,1.66,1.26,.24,.25,.47,.5,.69,.77,.21,.27,.41,.56,.58,.88-.33-.16-.61-.36-.88-.58-.27-.21-.53-.45-.77-.69-.48-.49-.93-1.01-1.26-1.66Z"/><polygon class="cls-7" points="29.98 102.74 28.1 101.25 28.49 100.86 29.98 102.74"/><rect class="cls-7" x="25.49" y="97.34" width=".56" height="2.38" transform="translate(-62.12 47.07) rotate(-44.99)"/><rect class="cls-7" x="22.13" y="97.34" width=".56" height="2.38" transform="translate(-63.11 44.7) rotate(-45)"/><polygon class="cls-7" points="29.21 105.34 28.1 104.62 28.49 104.23 29.21 105.34"/><rect class="cls-7" x="25.49" y="100.71" width=".56" height="2.38" transform="translate(-64.5 48.06) rotate(-44.99)"/><rect class="cls-7" x="20.44" y="99.02" width=".56" height="2.38" transform="translate(-64.79 44.01) rotate(-45)"/><polygon class="cls-7" points="27.89 107.38 26.42 106.3 26.81 105.91 27.89 107.38"/><rect class="cls-7" x="23.81" y="102.39" width=".56" height="2.38" transform="translate(-66.19 47.37) rotate(-45)"/><polygon class="cls-7" points="18 97.89 17.56 97.05 18.4 97.49 18 97.89"/><rect class="cls-7" x="23.81" y="105.76" width=".56" height="2.38" transform="translate(-68.57 48.37) rotate(-45.01)"/><rect class="cls-7" x="17.08" y="99.02" width=".56" height="2.38" transform="translate(-65.79 41.64) rotate(-45.01)"/><rect class="cls-7" x="20.44" y="102.39" width=".56" height="2.38" transform="translate(-67.17 44.98) rotate(-44.99)"/><rect class="cls-7" x="18.76" y="104.07" width=".56" height="2.38" transform="translate(-68.86 44.29) rotate(-45)"/><path class="cls-7" d="M22.13,108.36c-.25,.06-.38,0-.48-.09-.04-.05-.08-.11-.1-.19-.02-.08-.02-.17,.01-.3,.13-.03,.22-.03,.3-.01,.08,.02,.13,.05,.18,.1,.09,.1,.15,.23,.09,.48Z"/><path class="cls-7" d="M16.52,102.74c-.19,.12-.25,.13-.29,.1-.01-.02-.02-.04,0-.09,.01-.04,.04-.1,.11-.2,.1-.07,.16-.09,.2-.11,.05-.02,.07,0,.09,0,.02,.04,.02,.1-.1,.29Z"/></g></g></g><g><path class="cls-14" d="M41.07,108.74s-2.45-6,.98-.38c0,0,.88-16.36,1.57-.28,0,0,3.99-8.58,1.56,.67,0,0,3.71-2.77,4.21-1.99,.5,.78-2.56,2.83-2.56,2.83l-5.74-.83Z"/><path class="cls-14" d="M60.88,109.31s5.74-8.51-.86-.6c0,0,6.56-14.17-1.46-.64,0,0-.14-12.26-1.67,.29,0,0-2.96-3.56-3.63-2.92-.67,.64,1.35,3.87,1.35,3.87h6.26Z"/><path class="cls-14" d="M80.62,108.36s-3.01-5.75,.95-.57c0,0,5.94-8.42,1.83,.95l-2.79-.38Z"/></g></svg>