<?xml version="1.0" encoding="UTF-8"?><svg id="Livello_1" xmlns="http://www.w3.org/2000/svg" viewBox="0 0 569.21 130.83"><defs><style>.cls-1{fill:#069460;}</style></defs><path class="cls-1" d="M138.39,56.97v-1.75s-60.94-15.07-60.94-15.07c0,0-3.4,.9-5.1,1.37-5.64,1.58-11.28,3.18-16.93,4.74-.42,.12-32.17,8.69-32.17,8.69l-.02,1.64s.04,21.79,.01,32.69c0,.82,.23,1.2,1.02,1.46,10.19,3.33,20.36,6.68,30.54,10.04,9.94,3.28,19.89,6.56,29.81,9.89,1.15,.38,2.13,.29,3.21-.11,11.2-4.16,22.42-8.3,33.63-12.43,5.24-1.93,10.48-3.86,15.75-5.71,.97-.34,1.21-.82,1.21-1.79-.03-11.22-.02-33.66-.02-33.66Zm-61.71-11.31v23.58l-36.87-9.93-2.3-2.25,39.16-11.4Zm9.04,60.37c-.46-.09-.84-.14-1.2-.25-6.78-2.18-13.57-4.36-20.35-6.55-6.99-2.25-13.98-4.5-20.97-6.75-4.8-1.54-9.6-3.08-14.4-4.6-.6-.19-1.1-.32-1.09-1.18,.03-8.48,.02-16.95,.02-25.43,0-.18,.02-.35,.05-.73,2.69,.74,5.25,1.44,7.8,2.16,9.21,2.59,18.42,5.18,27.63,7.78,7.23,2.04,14.46,4.12,21.7,6.16,.64,.18,.89,.39,.89,1.15-.03,9.05,0,18.11,0,27.16,0,.32-.05,.63-.09,1.09Zm38.94-34.78c-.04,.27-.35,.62-.61,.71-5.81,2.12-11.64,4.21-17.45,6.31-1.99,.72-3.99,1.43-5.96,2.22-.85,.34-1.16,.22-1.18-.75-.04-2.26-.08-2.3,2.28-3.16,7.3-2.66,14.61-5.3,21.93-7.93,.34-.12,.72-.15,1.21-.25-.07,1.07-.08,1.96-.21,2.84Zm4.68-13.13c-1.65,.57-3.31,1.14-4.96,1.71-3.31,1.14-6.62,2.28-9.94,3.42h0s-1.01,.34-1.01,.34c-2.51,.86-5.01,1.72-7.52,2.56-.07,.02-.15,.04-.23,.06l-9.17,3.1c-.58,.22-1.15,.46-1.73,.67-2.04,.71-4.08,1.42-6.12,2.12-.61,.21-1.22,.33-1.59-.4l-6.09-1.24v-20.97s0-3.84,0-3.84c16.26,4.08,32.3,8.12,48.35,12.15,0,.1,0,.21,0,.31Z"/><path class="cls-1" d="M147.15,33.12l-8.55,22.16-61.16-15.12,8.61-19.89c.15-.35,.53-.55,.91-.47l60.19,13.32Z"/><path class="cls-1" d="M12.59,35.17l10.63,21.43,64.91,17.95-1.05-2.82-7.67-17.14c-.23-.52-.68-.9-1.22-1.06L13.08,34.58c-.35-.1-.65,.26-.49,.58Z"/><g><path class="cls-1" d="M166.64,91.71c-.59,0-1.01-.21-1.25-.63-.24-.42-.36-.86-.36-1.34,.06-1.01,.3-1.58,.71-1.7,.42-.12,.92-.18,1.52-.18,1.61,0,2.83-.33,3.66-.98,.83-.66,1.5-1.52,2.01-2.59,.51-1.07,1-2.17,1.47-3.31l15.64-37c.59-1.43,.71-2.52,.36-3.26-.36-.74-.95-1.28-1.79-1.61-.83-.33-1.76-.58-2.77-.76-.89-.18-1.49-.34-1.79-.49-.3-.15-.45-.67-.45-1.56,0-1.01,.36-1.56,1.07-1.65,.71-.09,1.55-.13,2.5-.13,2.44,0,4.53,.24,6.26,.72,1.73,.48,3.22,1.38,4.47,2.73s2.41,3.35,3.49,6.03l15.01,37c.42,1.01,.86,2.06,1.34,3.13,.48,1.07,1.12,1.95,1.92,2.64,.8,.69,1.83,1.06,3.08,1.12,.66,0,1.18,.06,1.56,.18,.39,.12,.61,.69,.67,1.7,0,.48-.13,.92-.4,1.34-.27,.42-.67,.63-1.21,.63-1.91-.12-3.58-.19-5-.22-1.43-.03-3.04-.04-4.83-.04-3.52,0-7.21,.09-11.08,.27-.6,0-1.01-.21-1.25-.63-.24-.42-.36-.86-.36-1.34,.06-1.01,.3-1.58,.71-1.7,.42-.12,.92-.18,1.52-.18,2.92,0,4.51-.54,4.78-1.61,.27-1.07-.01-2.83-.85-5.27l-3.04-7.42h-22.07c-.89,2.26-1.54,3.9-1.92,4.92-.39,1.01-.63,1.67-.71,1.97-.09,.3-.17,.48-.22,.54-.66,2.03-1,3.53-1.03,4.51-.03,.98,.45,1.62,1.43,1.92,.98,.3,2.64,.45,4.96,.45,.66,0,1.18,.06,1.56,.18,.39,.12,.61,.69,.67,1.7,0,.48-.13,.92-.4,1.34-.27,.42-.67,.63-1.21,.63-1.91-.12-3.56-.19-4.96-.22-1.4-.03-2.99-.04-4.78-.04-1.19,0-2.19,.01-2.99,.04-.8,.03-1.62,.06-2.46,.09-.83,.03-1.91,.07-3.22,.13Zm16.98-21.99h18.77l-9.03-22.97h-.27l-9.47,22.97Z"/><path class="cls-1" d="M245.74,110.92c-12.57,0-18.86-3.58-18.86-10.72,0-1.97,.63-3.71,1.88-5.23s2.92-2.28,5-2.28c1.37,0,2.5,.37,3.4,1.12,.89,.74,1.34,1.27,1.34,1.56,0,.12-.22,.39-.67,.8-.45,.42-.89,.98-1.34,1.7s-.67,1.67-.67,2.86c0,4.59,3.93,6.88,11.8,6.88,4.47,0,7.94-.78,10.41-2.32,2.47-1.55,3.71-3.9,3.71-7.06,0-1.73-.55-3.04-1.65-3.93-1.1-.89-2.56-1.52-4.38-1.88-1.82-.36-3.83-.58-6.03-.67-2.21-.09-4.42-.16-6.66-.22-2.23-.06-4.31-.24-6.21-.54-2.09-.36-3.83-1.06-5.23-2.1-1.4-1.04-2.1-2.76-2.1-5.14,0-2.2,.79-4.13,2.37-5.76,1.58-1.64,3.95-2.46,7.11-2.46-3.81-1.49-6.36-3.31-7.64-5.45-1.28-2.14-1.92-4.35-1.92-6.61,0-2.56,.73-4.87,2.19-6.93,1.46-2.05,3.49-3.69,6.08-4.92,2.59-1.22,5.59-1.83,8.98-1.83,1.67,0,3.41,.13,5.23,.4,1.82,.27,3.38,.73,4.69,1.38l12.24-2.32c.65-.06,1.1,.15,1.34,.62,.24,.48,.36,.98,.36,1.52,0,.78-.12,1.54-.36,2.28-.24,.75-.57,1.12-.98,1.12l-8.85-.36v.18c1.01,1.01,1.88,2.35,2.59,4.02,.72,1.67,1.07,3.25,1.07,4.74,0,2.86-.82,5.33-2.46,7.42-1.64,2.09-3.72,3.68-6.26,4.78-2.53,1.1-5.17,1.65-7.91,1.65h-3.93c-3.1,0-5.35,.3-6.75,.89-1.4,.6-2.1,1.58-2.1,2.95,0,1.07,.37,1.89,1.12,2.46,.75,.57,2.1,.91,4.07,1.03l12.24,.45c6.38,.24,10.92,1.25,13.63,3.04,2.71,1.79,4.07,4.44,4.07,7.95,0,3.16-1,5.85-2.99,8.09-2,2.23-4.8,3.93-8.4,5.09-3.61,1.16-7.79,1.74-12.56,1.74Zm.89-36.29c2.74,0,4.97-.97,6.7-2.91,1.73-1.93,2.59-4.72,2.59-8.36,0-3.34-.88-5.97-2.64-7.91-1.76-1.94-4.01-2.9-6.75-2.9s-4.81,.94-6.57,2.82c-1.76,1.88-2.64,4.48-2.64,7.82,0,3.63,.88,6.45,2.64,8.45,1.76,2,3.98,2.99,6.66,2.99Z"/><path class="cls-1" d="M275.59,91.71c-.42,0-.76-.19-1.03-.58-.27-.39-.4-.79-.4-1.21,.12-.89,.36-1.38,.71-1.47,.36-.09,.83-.13,1.43-.13,1.67,0,2.8-.28,3.4-.85,.59-.57,.94-1.33,1.03-2.28,.09-.95,.13-1.94,.13-2.95v-20.47c0-1.07-.04-2.07-.13-2.99-.09-.92-.43-1.67-1.03-2.23-.6-.57-1.73-.85-3.4-.85-.54,0-1.03-.07-1.47-.22-.45-.15-.67-.67-.67-1.56s.48-1.43,1.43-1.61c2.74-.42,4.84-.83,6.3-1.25,1.46-.42,2.56-.77,3.31-1.07,.75-.3,1.42-.48,2.01-.54,.48-.06,.88,.03,1.21,.27,.33,.24,.49,.72,.49,1.43v5.54h.27c2.02-1.97,4.11-3.59,6.26-4.87,2.15-1.28,4.11-1.92,5.9-1.92,2.08,0,3.68,.78,4.78,2.32,1.1,1.55,1.65,3.19,1.65,4.92,0,1.49-.48,2.94-1.43,4.33-.95,1.4-2.38,2.1-4.29,2.1-.95,0-1.71-.19-2.28-.58-.57-.39-.88-.67-.94-.85,0-.12,.28-.48,.85-1.07,.57-.59,.85-1.34,.85-2.23,0-1.07-.28-1.94-.85-2.59-.57-.65-1.33-.98-2.28-.98-1.01,0-2.31,.51-3.89,1.52-1.58,1.01-3.08,2.23-4.51,3.66v21.81c0,1.01,.04,2,.13,2.95,.09,.95,.45,1.71,1.07,2.28,.63,.57,1.77,.85,3.44,.85,.54,0,1,.04,1.38,.13,.39,.09,.61,.58,.67,1.47,0,.42-.12,.82-.36,1.21-.24,.39-.6,.58-1.07,.58-1.73-.12-3.32-.19-4.78-.22-1.46-.03-2.99-.04-4.6-.04s-3.13,.01-4.56,.04c-1.43,.03-3.01,.1-4.74,.22Z"/><path class="cls-1" d="M313.57,91.71c-.42,0-.76-.19-1.03-.58-.27-.39-.4-.79-.4-1.21,.12-.89,.36-1.38,.71-1.47,.36-.09,.83-.13,1.43-.13,1.67,0,2.8-.28,3.4-.85,.59-.57,.94-1.33,1.03-2.28,.09-.95,.13-1.94,.13-2.95v-20.47c0-1.07-.04-2.07-.13-2.99-.09-.92-.43-1.67-1.03-2.23-.6-.57-1.73-.85-3.4-.85-.54,0-1.03-.07-1.47-.22-.45-.15-.67-.67-.67-1.56s.48-1.43,1.43-1.61c2.74-.42,4.84-.83,6.3-1.25,1.46-.42,2.58-.77,3.35-1.07,.77-.3,1.46-.48,2.06-.54,.48-.06,.88,.03,1.21,.27,.33,.24,.49,.72,.49,1.43v31.1c0,1.01,.04,2,.13,2.95,.09,.95,.45,1.71,1.07,2.28,.63,.57,1.77,.85,3.44,.85,.54,0,1,.04,1.38,.13,.39,.09,.61,.58,.67,1.47,0,.42-.12,.82-.36,1.21-.24,.39-.6,.58-1.07,.58-1.73-.12-3.32-.19-4.78-.22-1.46-.03-2.99-.04-4.6-.04s-3.13,.01-4.56,.04c-1.43,.03-3.01,.1-4.74,.22Zm8.85-52.19c-1.67,0-3.07-.52-4.2-1.56-1.13-1.04-1.7-2.34-1.7-3.89,0-1.37,.68-2.59,2.06-3.66,1.37-1.07,2.92-1.61,4.65-1.61,1.49,0,2.71,.52,3.66,1.56,.95,1.04,1.43,2.37,1.43,3.98,0,1.43-.57,2.65-1.7,3.67-1.13,1.01-2.53,1.52-4.2,1.52Z"/><path class="cls-1" d="M355.13,92.51c-4.59,0-8.42-.82-11.48-2.46-3.07-1.64-4.6-4.01-4.6-7.1,0-1.73,.52-3.13,1.56-4.2,1.04-1.07,2.4-1.61,4.07-1.61,1.07,0,1.95,.28,2.64,.85,.68,.57,1.03,.97,1.03,1.21,0,.18-.34,.58-1.03,1.21-.69,.62-1.03,1.62-1.03,2.99,0,1.67,.79,3.05,2.37,4.16,1.58,1.1,3.98,1.65,7.19,1.65,2.8,0,4.99-.61,6.57-1.83,1.58-1.22,2.37-2.93,2.37-5.14,0-1.79-.58-3.17-1.74-4.16s-2.65-1.77-4.47-2.37c-1.82-.59-3.75-1.19-5.81-1.79-2.06-.6-4.01-1.34-5.85-2.23-1.85-.89-3.35-2.13-4.51-3.71-1.16-1.58-1.74-3.68-1.74-6.3s.8-4.88,2.41-6.61c1.61-1.73,3.66-3.02,6.17-3.89,2.5-.86,5.03-1.3,7.6-1.3,2.2,0,4.29,.31,6.26,.94,1.97,.63,3.59,1.56,4.87,2.82,1.28,1.25,1.92,2.83,1.92,4.74,0,1.49-.48,2.83-1.43,4.02-.95,1.19-2.27,1.79-3.93,1.79-1.07,0-1.95-.28-2.64-.85-.69-.57-1.03-.97-1.03-1.21,0-.12,.22-.34,.67-.67,.45-.33,.88-.77,1.3-1.34,.42-.57,.63-1.3,.63-2.19-.12-1.73-.95-3.01-2.5-3.84-1.55-.83-3.28-1.25-5.18-1.25-2.09,0-4.02,.51-5.81,1.52-1.79,1.01-2.68,2.47-2.68,4.38,0,1.73,.37,3.07,1.12,4.02,.74,.95,1.94,1.77,3.58,2.46,1.64,.69,3.77,1.45,6.39,2.28,2.62,.83,4.93,1.7,6.93,2.59,2,.89,3.54,2.07,4.65,3.53,1.1,1.46,1.65,3.44,1.65,5.94s-.71,4.74-2.14,6.7c-1.43,1.97-3.38,3.5-5.85,4.6-2.47,1.1-5.29,1.65-8.45,1.65Z"/><path class="cls-1" d="M378.72,110.03c-.42,0-.76-.19-1.03-.58-.27-.39-.4-.79-.4-1.21,.06-.89,.28-1.38,.67-1.47,.39-.09,.85-.13,1.39-.13,1.61,0,2.73-.28,3.35-.85,.62-.57,1-1.33,1.12-2.28,.12-.95,.18-1.94,.18-2.95V61.77c0-1.07-.04-2.07-.13-2.99-.09-.92-.43-1.67-1.03-2.23-.6-.57-1.73-.85-3.4-.85-.54,0-1.03-.07-1.47-.22-.45-.15-.67-.67-.67-1.56s.48-1.43,1.43-1.61c2.74-.42,4.84-.83,6.3-1.25,1.46-.42,2.56-.77,3.31-1.07,.74-.3,1.42-.48,2.01-.54,.48-.06,.88,.03,1.21,.27,.33,.24,.49,.72,.49,1.43v4.29h.27c1.67-1.55,3.66-2.86,5.99-3.93,2.32-1.07,4.56-1.61,6.7-1.61,3.63,0,6.85,.89,9.65,2.68,2.8,1.79,5,4.28,6.61,7.46,1.61,3.19,2.41,6.9,2.41,11.13s-.98,8.04-2.95,11.26c-1.97,3.22-4.5,5.71-7.6,7.46-3.1,1.76-6.41,2.64-9.92,2.64-2.68,0-4.84-.28-6.48-.85-1.64-.57-3.05-1.21-4.25-1.92h-.36v10.81c0,1.01,.06,2,.18,2.95,.12,.95,.5,1.71,1.16,2.28,.65,.57,1.76,.85,3.31,.85,.54,0,1,.04,1.38,.13,.39,.09,.61,.58,.67,1.47,0,.42-.12,.82-.36,1.21-.24,.39-.6,.58-1.07,.58-1.73-.12-3.32-.19-4.78-.22-1.46-.03-2.99-.04-4.6-.04s-3.13,.01-4.56,.04c-1.43,.03-3.01,.1-4.74,.22Zm23.77-20.56c2.32,0,4.26-.58,5.81-1.74,1.55-1.16,2.79-2.65,3.71-4.47,.92-1.82,1.58-3.78,1.97-5.9,.39-2.11,.58-4.1,.58-5.94,0-2.8-.43-5.5-1.3-8.09-.87-2.59-2.23-4.74-4.11-6.43-1.88-1.7-4.33-2.55-7.37-2.55-2.27,0-4.14,.46-5.63,1.39-1.49,.92-2.83,2.01-4.02,3.26v23.95c.65,1.55,1.86,3.02,3.62,4.42,1.76,1.4,4.01,2.1,6.75,2.1Z"/><path class="cls-1" d="M452.01,92.51c-4.59,0-8.45-.98-11.57-2.95-3.13-1.97-5.47-4.59-7.02-7.86-1.55-3.28-2.32-6.85-2.32-10.72,0-2.62,.46-5.17,1.39-7.64,.92-2.47,2.25-4.74,3.98-6.79,1.73-2.05,3.81-3.68,6.26-4.87,2.44-1.19,5.21-1.79,8.31-1.79,5.48,0,9.61,1.42,12.38,4.25s4.36,6.42,4.78,10.77c0,2.09-.58,3.46-1.74,4.11-1.16,.66-2.67,.98-4.51,.98h-21.72c0,3.46,.48,6.54,1.43,9.25,.95,2.71,2.46,4.86,4.51,6.43,2.06,1.58,4.78,2.37,8.18,2.37,2.5,0,4.65-.54,6.43-1.61s3.51-2.95,5.18-5.63c.48-.59,1.13-.62,1.97-.09,.48,.24,.77,.61,.89,1.12,.12,.51,.06,.94-.18,1.3-1.85,2.92-4.17,5.21-6.97,6.88-2.8,1.67-6.02,2.5-9.65,2.5Zm-11.8-25.92h14.57c1.43,0,2.58-.28,3.44-.85,.86-.57,1.33-1.53,1.38-2.91,0-2.56-.7-4.84-2.1-6.84-1.4-2-3.56-2.99-6.48-2.99s-5.47,1.19-7.46,3.57c-2,2.38-3.11,5.72-3.35,10.01Z"/><path class="cls-1" d="M491.78,92.51c-4.59,0-8.42-.82-11.48-2.46-3.07-1.64-4.6-4.01-4.6-7.1,0-1.73,.52-3.13,1.56-4.2,1.04-1.07,2.4-1.61,4.07-1.61,1.07,0,1.95,.28,2.64,.85,.68,.57,1.03,.97,1.03,1.21,0,.18-.34,.58-1.03,1.21-.69,.62-1.03,1.62-1.03,2.99,0,1.67,.79,3.05,2.37,4.16,1.58,1.1,3.98,1.65,7.19,1.65,2.8,0,4.99-.61,6.57-1.83,1.58-1.22,2.37-2.93,2.37-5.14,0-1.79-.58-3.17-1.74-4.16s-2.65-1.77-4.47-2.37c-1.82-.59-3.75-1.19-5.81-1.79-2.06-.6-4.01-1.34-5.85-2.23-1.85-.89-3.35-2.13-4.51-3.71-1.16-1.58-1.74-3.68-1.74-6.3s.8-4.88,2.41-6.61c1.61-1.73,3.66-3.02,6.17-3.89,2.5-.86,5.03-1.3,7.6-1.3,2.2,0,4.29,.31,6.26,.94,1.97,.63,3.59,1.56,4.87,2.82,1.28,1.25,1.92,2.83,1.92,4.74,0,1.49-.48,2.83-1.43,4.02-.95,1.19-2.27,1.79-3.93,1.79-1.07,0-1.95-.28-2.64-.85-.69-.57-1.03-.97-1.03-1.21,0-.12,.22-.34,.67-.67,.45-.33,.88-.77,1.3-1.34,.42-.57,.63-1.3,.63-2.19-.12-1.73-.95-3.01-2.5-3.84-1.55-.83-3.28-1.25-5.18-1.25-2.09,0-4.02,.51-5.81,1.52-1.79,1.01-2.68,2.47-2.68,4.38,0,1.73,.37,3.07,1.12,4.02,.74,.95,1.94,1.77,3.58,2.46,1.64,.69,3.77,1.45,6.39,2.28,2.62,.83,4.93,1.7,6.93,2.59,2,.89,3.54,2.07,4.65,3.53,1.1,1.46,1.65,3.44,1.65,5.94s-.71,4.74-2.14,6.7c-1.43,1.97-3.38,3.5-5.85,4.6-2.47,1.1-5.29,1.65-8.45,1.65Z"/><path class="cls-1" d="M526.9,92.51c-3.63,0-6.54-1.04-8.71-3.13-2.18-2.08-3.26-4.59-3.26-7.51s.79-5.42,2.37-7.15c1.58-1.73,3.66-3.01,6.26-3.84,2.59-.83,5.42-1.4,8.49-1.7,3.07-.3,6.06-.54,8.98-.71v-7.06c0-2.8-.7-4.99-2.1-6.57-1.4-1.58-3.77-2.37-7.11-2.37-1.67,0-3.23,.54-4.69,1.61-1.46,1.07-2.19,2.62-2.19,4.65,0,.95,.24,1.76,.71,2.41,.48,.66,.95,1.16,1.43,1.52,.48,.36,.71,.6,.71,.72,0,.24-.34,.67-1.03,1.3-.69,.62-1.62,.94-2.82,.94-1.85,0-3.28-.68-4.29-2.05-1.01-1.37-1.52-2.89-1.52-4.56,0-2.26,.7-4.05,2.1-5.36,1.4-1.31,3.2-2.26,5.41-2.86,2.2-.6,4.44-.89,6.7-.89,2.68,0,5.29,.33,7.82,.98,2.53,.66,4.62,1.91,6.26,3.75,1.64,1.85,2.46,4.62,2.46,8.31v20.82c.06,.6,.21,1.31,.45,2.14,.24,.83,.7,1.56,1.38,2.19,.68,.63,1.62,.94,2.82,.94,.42,0,.74,.08,.98,.22,.24,.15,.36,.55,.36,1.21,0,.54-.3,.95-.89,1.25-.6,.3-1.28,.5-2.06,.62-.78,.12-1.43,.18-1.97,.18-2.21,0-4.17-.64-5.9-1.92-1.73-1.28-2.74-3.05-3.04-5.32-1.31,2.38-3.26,4.19-5.85,5.41s-5.35,1.83-8.27,1.83Zm2.86-4.83c2.03,0,3.89-.5,5.59-1.52,1.7-1.01,3.07-2.4,4.11-4.16,1.04-1.76,1.56-3.71,1.56-5.85v-5.09c-6.14,.42-10.52,1.4-13.14,2.95-2.62,1.55-3.93,4.08-3.93,7.6,0,4.05,1.94,6.08,5.81,6.08Z"/></g></svg>