<?xml version="1.0" encoding="UTF-8"?>
<!DOCTYPE svg PUBLIC "-//W3C//DTD SVG 1.1//EN" "http://www.w3.org/Graphics/SVG/1.1/DTD/svg11.dtd">
<svg xmlns="http://www.w3.org/2000/svg" version="1.1" width="256px" height="256px" style="shape-rendering:geometricPrecision; text-rendering:geometricPrecision; image-rendering:optimizeQuality; fill-rule:evenodd; clip-rule:evenodd" xmlns:xlink="http://www.w3.org/1999/xlink">
<g><path style="opacity:1" fill="#d8d8d8" d="M -0.5,-0.5 C 84.8333,-0.5 170.167,-0.5 255.5,-0.5C 255.5,84.8333 255.5,170.167 255.5,255.5C 170.167,255.5 84.8333,255.5 -0.5,255.5C -0.5,170.167 -0.5,84.8333 -0.5,-0.5 Z"/></g>
<g><path style="opacity:1" fill="#ebebec" d="M 147.5,53.5 C 145.167,53.5 142.833,53.5 140.5,53.5C 140.5,55.8333 140.5,58.1667 140.5,60.5C 143.5,60.5 146.5,60.5 149.5,60.5C 149.5,59.1667 149.5,57.8333 149.5,56.5C 149.833,56.5 150.167,56.5 150.5,56.5C 154.97,57.4861 159.637,57.8195 164.5,57.5C 164.818,62.0323 164.485,66.3656 163.5,70.5C 161.62,70.2291 160.287,70.8958 159.5,72.5C 158.795,69.7719 158.128,66.9386 157.5,64C 139.5,63.3333 121.5,63.3333 103.5,64C 102.517,72.4149 102.183,80.9149 102.5,89.5C 101.167,89.5 99.8333,89.5 98.5,89.5C 97.5073,87.5967 97.0073,83.5967 97,77.5C 96.3333,65.8333 96.3333,54.1667 97,42.5C 97.5,42 98,41.5 98.5,41C 114.83,40.5001 131.163,40.3334 147.5,40.5C 147.5,44.8333 147.5,49.1667 147.5,53.5 Z"/></g>
<g><path style="opacity:1" fill="#6d6d6d" d="M 150.5,56.5 C 150.167,56.5 149.833,56.5 149.5,56.5C 148.89,55.609 148.557,54.609 148.5,53.5C 148.334,49.4862 148.501,45.4862 149,41.5C 153.833,46.3333 158.667,51.1667 163.5,56C 159.179,56.499 154.846,56.6657 150.5,56.5 Z"/></g>
<g><path style="opacity:1" fill="#95c5dd" d="M 120.5,60.5 C 120.5,58.5 120.5,56.5 120.5,54.5C 117.833,54.5 115.167,54.5 112.5,54.5C 112.5,56.5 112.5,58.5 112.5,60.5C 111.532,58.3926 111.198,56.0593 111.5,53.5C 114.833,53.5 118.167,53.5 121.5,53.5C 121.802,56.0593 121.468,58.3926 120.5,60.5 Z"/></g>
<g><path style="opacity:1" fill="#96c6dd" d="M 134.5,60.5 C 134.5,58.5 134.5,56.5 134.5,54.5C 131.833,54.5 129.167,54.5 126.5,54.5C 126.5,56.5 126.5,58.5 126.5,60.5C 125.532,58.3926 125.198,56.0593 125.5,53.5C 128.833,53.5 132.167,53.5 135.5,53.5C 135.802,56.0593 135.468,58.3926 134.5,60.5 Z"/></g>
<g><path style="opacity:1" fill="#4694ba" d="M 134.5,60.5 C 131.833,60.5 129.167,60.5 126.5,60.5C 126.5,58.5 126.5,56.5 126.5,54.5C 129.167,54.5 131.833,54.5 134.5,54.5C 134.5,56.5 134.5,58.5 134.5,60.5 Z"/></g>
<g><path style="opacity:1" fill="#4e98bd" d="M 147.5,53.5 C 147.833,53.5 148.167,53.5 148.5,53.5C 148.557,54.609 148.89,55.609 149.5,56.5C 149.5,57.8333 149.5,59.1667 149.5,60.5C 146.5,60.5 143.5,60.5 140.5,60.5C 140.5,58.1667 140.5,55.8333 140.5,53.5C 142.833,53.5 145.167,53.5 147.5,53.5 Z"/></g>
<g><path style="opacity:1" fill="#4290b6" d="M 120.5,60.5 C 117.833,60.5 115.167,60.5 112.5,60.5C 112.5,58.5 112.5,56.5 112.5,54.5C 115.167,54.5 117.833,54.5 120.5,54.5C 120.5,56.5 120.5,58.5 120.5,60.5 Z"/></g>
<g><path style="opacity:1" fill="#ebebeb" d="M 136.5,65.5 C 143.5,65.5 150.5,65.5 157.5,65.5C 157.5,68.1667 157.5,70.8333 157.5,73.5C 150.687,74.4912 143.687,74.8245 136.5,74.5C 136.5,71.5 136.5,68.5 136.5,65.5 Z"/></g>
<g><path style="opacity:1" fill="#a51f1c" d="M 163.5,70.5 C 166.476,73.3021 169.642,75.9688 173,78.5C 173.5,82 172,83.5 168.5,83C 165.833,81 163.167,79 160.5,77C 159.177,76.1841 158.511,75.0174 158.5,73.5C 159.167,73.5 159.5,73.1667 159.5,72.5C 160.287,70.8958 161.62,70.2291 163.5,70.5 Z"/></g>
<g><path style="opacity:1" fill="#89a0b9" d="M 121.5,65.5 C 121.5,68.5 121.5,71.5 121.5,74.5C 125.634,75.4849 129.968,75.8182 134.5,75.5C 134.177,71.774 134.511,68.1073 135.5,64.5C 136.107,64.6236 136.44,64.9569 136.5,65.5C 135.521,68.6248 135.187,71.9581 135.5,75.5C 163.5,75.8333 163.5,76.1667 135.5,76.5C 135.5,79.5 135.5,82.5 135.5,85.5C 140.032,85.1818 144.366,85.5151 148.5,86.5C 144.167,86.5 139.833,86.5 135.5,86.5C 135.167,97.1667 134.833,97.1667 134.5,86.5C 129.968,86.1818 125.634,86.5151 121.5,87.5C 121.5,89.8333 121.5,92.1667 121.5,94.5C 120.833,95.8333 120.167,95.8333 119.5,94.5C 119.5,92.1667 119.5,89.8333 119.5,87.5C 114.349,86.6733 109.016,86.1733 103.5,86C 109.016,85.8267 114.349,85.3267 119.5,84.5C 119.5,82.1667 119.5,79.8333 119.5,77.5C 114.349,76.6733 109.016,76.1733 103.5,76C 109.016,75.8267 114.349,75.3267 119.5,74.5C 119.5,71.5 119.5,68.5 119.5,65.5C 120.167,64.1667 120.833,64.1667 121.5,65.5 Z"/></g>
<g><path style="opacity:1" fill="#e1e3e5" d="M 121.5,76.5 C 125.833,76.5 130.167,76.5 134.5,76.5C 134.5,79.5 134.5,82.5 134.5,85.5C 130.167,85.5 125.833,85.5 121.5,85.5C 121.5,82.5 121.5,79.5 121.5,76.5 Z"/></g>
<g><path style="opacity:1" fill="#ebeae9" d="M 155.5,77.5 C 153.727,80.0599 151.727,82.3932 149.5,84.5C 145.167,84.5 140.833,84.5 136.5,84.5C 136.5,82.1667 136.5,79.8333 136.5,77.5C 142.833,77.5 149.167,77.5 155.5,77.5 Z"/></g>
<g><path style="opacity:1" fill="#dce5ec" d="M 119.5,77.5 C 119.5,79.8333 119.5,82.1667 119.5,84.5C 114.5,84.5 109.5,84.5 104.5,84.5C 104.5,82.1667 104.5,79.8333 104.5,77.5C 109.5,77.5 114.5,77.5 119.5,77.5 Z"/></g>
<g><path style="opacity:1" fill="#e8e6e4" d="M 147.5,87.5 C 145.833,90.1667 144.167,92.8333 142.5,95.5C 142.167,95.5 141.833,95.5 141.5,95.5C 140.081,94.5489 138.415,94.2155 136.5,94.5C 136.5,92.1667 136.5,89.8333 136.5,87.5C 140.167,87.5 143.833,87.5 147.5,87.5 Z"/></g>
<g><path style="opacity:1" fill="#efbf55" d="M 155.5,77.5 C 157.153,77.6596 158.486,78.3263 159.5,79.5C 153.795,85.2026 148.462,91.2026 143.5,97.5C 142.662,97.1583 142.328,96.4916 142.5,95.5C 144.167,92.8333 145.833,90.1667 147.5,87.5C 148.167,87.5 148.5,87.1667 148.5,86.5C 149.338,86.1583 149.672,85.4916 149.5,84.5C 151.727,82.3932 153.727,80.0599 155.5,77.5 Z"/></g>
<g><path style="opacity:1" fill="#e7b128" d="M 159.5,79.5 C 162.651,81.583 165.651,83.9163 168.5,86.5C 166.069,90.3733 163.402,94.0399 160.5,97.5C 159.91,95.0095 159.743,92.3429 160,89.5C 157.667,92.1667 155.333,94.8333 153,97.5C 152.384,94.2424 152.717,91.2424 154,88.5C 152,91.1667 150,93.8333 148,96.5C 147.184,97.8228 146.017,98.4894 144.5,98.5C 144.5,97.8333 144.167,97.5 143.5,97.5C 148.462,91.2026 153.795,85.2026 159.5,79.5 Z"/></g>
<g><path style="opacity:1" fill="#e5e4e3" d="M 140.5,97.5 C 140.552,99.9029 140.219,102.236 139.5,104.5C 138.5,104.5 137.5,104.5 136.5,104.5C 136.5,102.167 136.5,99.8333 136.5,97.5C 137.833,97.5 139.167,97.5 140.5,97.5 Z"/></g>
<g><path style="opacity:1" fill="#eed8ac" d="M 141.5,95.5 C 141.833,95.5 142.167,95.5 142.5,95.5C 142.328,96.4916 142.662,97.1583 143.5,97.5C 144.167,97.5 144.5,97.8333 144.5,98.5C 147.681,100.592 150.681,102.925 153.5,105.5C 151.211,107.387 148.545,108.721 145.5,109.5C 143.853,107.674 141.853,106.34 139.5,105.5C 139.5,105.167 139.5,104.833 139.5,104.5C 140.219,102.236 140.552,99.9029 140.5,97.5C 140.833,96.8333 141.167,96.1667 141.5,95.5 Z"/></g>
<g><path style="opacity:1" fill="#eebd4f" d="M 160.5,97.5 C 159.5,98.8333 158.5,100.167 157.5,101.5C 156.5,102.833 155.5,104.167 154.5,105.5C 154.167,105.5 153.833,105.5 153.5,105.5C 150.681,102.925 147.681,100.592 144.5,98.5C 146.017,98.4894 147.184,97.8228 148,96.5C 150,93.8333 152,91.1667 154,88.5C 152.717,91.2424 152.384,94.2424 153,97.5C 155.333,94.8333 157.667,92.1667 160,89.5C 159.743,92.3429 159.91,95.0095 160.5,97.5 Z"/></g>
<g><path style="opacity:1" fill="#a1b2c4" d="M 159.5,72.5 C 159.5,73.1667 159.167,73.5 158.5,73.5C 158.167,73.5 157.833,73.5 157.5,73.5C 157.5,70.8333 157.5,68.1667 157.5,65.5C 150.5,65.5 143.5,65.5 136.5,65.5C 136.44,64.9569 136.107,64.6236 135.5,64.5C 134.511,68.1073 134.177,71.774 134.5,75.5C 129.968,75.8182 125.634,75.4849 121.5,74.5C 125.5,74.5 129.5,74.5 133.5,74.5C 133.5,71.5 133.5,68.5 133.5,65.5C 129.5,65.5 125.5,65.5 121.5,65.5C 120.833,64.1667 120.167,64.1667 119.5,65.5C 114.5,65.5 109.5,65.5 104.5,65.5C 104.5,68.5 104.5,71.5 104.5,74.5C 109.5,74.5 114.5,74.5 119.5,74.5C 114.349,75.3267 109.016,75.8267 103.5,76C 109.016,76.1733 114.349,76.6733 119.5,77.5C 114.5,77.5 109.5,77.5 104.5,77.5C 104.5,79.8333 104.5,82.1667 104.5,84.5C 109.5,84.5 114.5,84.5 119.5,84.5C 114.349,85.3267 109.016,85.8267 103.5,86C 109.016,86.1733 114.349,86.6733 119.5,87.5C 114.5,87.5 109.5,87.5 104.5,87.5C 104.5,89.8333 104.5,92.1667 104.5,94.5C 109.5,94.5 114.5,94.5 119.5,94.5C 120.167,95.8333 120.833,95.8333 121.5,94.5C 125.5,94.5 129.5,94.5 133.5,94.5C 133.5,92.1667 133.5,89.8333 133.5,87.5C 129.5,87.5 125.5,87.5 121.5,87.5C 125.634,86.5151 129.968,86.1818 134.5,86.5C 134.833,97.1667 135.167,97.1667 135.5,86.5C 139.833,86.5 144.167,86.5 148.5,86.5C 148.5,87.1667 148.167,87.5 147.5,87.5C 143.833,87.5 140.167,87.5 136.5,87.5C 136.5,89.8333 136.5,92.1667 136.5,94.5C 138.415,94.2155 140.081,94.5489 141.5,95.5C 141.167,96.1667 140.833,96.8333 140.5,97.5C 139.167,97.5 137.833,97.5 136.5,97.5C 136.5,99.8333 136.5,102.167 136.5,104.5C 137.5,104.5 138.5,104.5 139.5,104.5C 139.5,104.833 139.5,105.167 139.5,105.5C 139.795,107.735 139.461,109.735 138.5,111.5C 138.762,110.022 138.429,108.689 137.5,107.5C 136.516,110.428 136.183,113.428 136.5,116.5C 143.5,116.5 150.5,116.5 157.5,116.5C 157.5,113.167 157.5,109.833 157.5,106.5C 156.209,106.737 155.209,106.404 154.5,105.5C 155.5,104.167 156.5,102.833 157.5,101.5C 158.825,106.901 158.825,112.401 157.5,118C 139.5,118.667 121.5,118.667 103.5,118C 102.515,108.583 102.182,99.0834 102.5,89.5C 102.183,80.9149 102.517,72.4149 103.5,64C 121.5,63.3333 139.5,63.3333 157.5,64C 158.128,66.9386 158.795,69.7719 159.5,72.5 Z"/></g>
<g><path style="opacity:1" fill="#dcdee0" d="M 121.5,96.5 C 125.833,96.5 130.167,96.5 134.5,96.5C 134.5,99.5 134.5,102.5 134.5,105.5C 130.167,105.5 125.833,105.5 121.5,105.5C 121.5,102.5 121.5,99.5 121.5,96.5 Z"/></g>
<g><path style="opacity:1" fill="#dbe4eb" d="M 104.5,96.5 C 109.5,96.5 114.5,96.5 119.5,96.5C 119.5,99.1667 119.5,101.833 119.5,104.5C 114.5,104.5 109.5,104.5 104.5,104.5C 104.5,101.833 104.5,99.1667 104.5,96.5 Z"/></g>
<g><path style="opacity:1" fill="#e8e7e7" d="M 121.5,87.5 C 125.5,87.5 129.5,87.5 133.5,87.5C 133.5,89.8333 133.5,92.1667 133.5,94.5C 129.5,94.5 125.5,94.5 121.5,94.5C 121.5,92.1667 121.5,89.8333 121.5,87.5 Z"/></g>
<g><path style="opacity:1" fill="#dde6ec" d="M 119.5,87.5 C 119.5,89.8333 119.5,92.1667 119.5,94.5C 114.5,94.5 109.5,94.5 104.5,94.5C 104.5,92.1667 104.5,89.8333 104.5,87.5C 109.5,87.5 114.5,87.5 119.5,87.5 Z"/></g>
<g><path style="opacity:1" fill="#dce5ec" d="M 119.5,65.5 C 119.5,68.5 119.5,71.5 119.5,74.5C 114.5,74.5 109.5,74.5 104.5,74.5C 104.5,71.5 104.5,68.5 104.5,65.5C 109.5,65.5 114.5,65.5 119.5,65.5 Z"/></g>
<g><path style="opacity:1" fill="#ebebeb" d="M 121.5,65.5 C 125.5,65.5 129.5,65.5 133.5,65.5C 133.5,68.5 133.5,71.5 133.5,74.5C 129.5,74.5 125.5,74.5 121.5,74.5C 121.5,71.5 121.5,68.5 121.5,65.5 Z"/></g>
<g><path style="opacity:1" fill="#282726" d="M 139.5,105.5 C 141.853,106.34 143.853,107.674 145.5,109.5C 143.426,111.736 141.092,112.403 138.5,111.5C 139.461,109.735 139.795,107.735 139.5,105.5 Z"/></g>
<g><path style="opacity:1" fill="#dbe4eb" d="M 104.5,106.5 C 109.5,106.5 114.5,106.5 119.5,106.5C 119.5,109.833 119.5,113.167 119.5,116.5C 114.5,116.5 109.5,116.5 104.5,116.5C 104.5,113.167 104.5,109.833 104.5,106.5 Z"/></g>
<g><path style="opacity:1" fill="#dbdcdd" d="M 121.5,106.5 C 125.833,106.5 130.167,106.5 134.5,106.5C 134.5,109.833 134.5,113.167 134.5,116.5C 130.167,116.5 125.833,116.5 121.5,116.5C 121.5,113.167 121.5,109.833 121.5,106.5 Z"/></g>
<g><path style="opacity:1" fill="#dcdddd" d="M 153.5,105.5 C 153.833,105.5 154.167,105.5 154.5,105.5C 155.209,106.404 156.209,106.737 157.5,106.5C 157.5,109.833 157.5,113.167 157.5,116.5C 150.5,116.5 143.5,116.5 136.5,116.5C 136.183,113.428 136.516,110.428 137.5,107.5C 138.429,108.689 138.762,110.022 138.5,111.5C 141.092,112.403 143.426,111.736 145.5,109.5C 148.545,108.721 151.211,107.387 153.5,105.5 Z"/></g>
<g><path style="opacity:1" fill="#ababab" d="M 98.5,124.5 C 118.169,124.333 137.836,124.5 157.5,125C 166.766,125.862 166.766,127.028 157.5,128.5C 137.153,129.836 116.819,129.67 96.5,128C 96.0426,127.586 95.7093,127.086 95.5,126.5C 96.6016,125.824 97.6016,125.158 98.5,124.5 Z"/></g>
<g><path style="opacity:1" fill="#030303" d="M 102.5,135.5 C 103.167,135.5 103.833,135.5 104.5,135.5C 104.5,140.5 104.5,145.5 104.5,150.5C 106.5,150.5 108.5,150.5 110.5,150.5C 110.5,151.167 110.5,151.833 110.5,152.5C 107.833,152.5 105.167,152.5 102.5,152.5C 102.5,146.833 102.5,141.167 102.5,135.5 Z"/></g>
<g><path style="opacity:1" fill="#131313" d="M 147.5,135.5 C 152.437,134.603 156.437,136.103 159.5,140C 156.676,140.343 154.009,139.843 151.5,138.5C 145.287,140.014 143.953,143.514 147.5,149C 150.628,150.967 153.628,150.8 156.5,148.5C 157.167,148.833 157.833,149.167 158.5,149.5C 153.114,154.974 147.947,154.64 143,148.5C 141.379,142.923 142.879,138.589 147.5,135.5 Z"/></g>
<g><path style="opacity:1" fill="#0e0e0e" d="M 85.5,146.5 C 84.5386,148.265 84.2053,150.265 84.5,152.5C 83.5,152.5 82.5,152.5 81.5,152.5C 81.5,146.833 81.5,141.167 81.5,135.5C 85.2568,135.071 88.7568,135.737 92,137.5C 93.7131,143.427 91.5464,146.427 85.5,146.5 Z"/></g>
<g><path style="opacity:1" fill="#393939" d="M 102.5,135.5 C 102.5,141.167 102.5,146.833 102.5,152.5C 105.167,152.5 107.833,152.5 110.5,152.5C 107.713,153.477 104.713,153.81 101.5,153.5C 101.177,147.31 101.51,141.31 102.5,135.5 Z"/></g>
<g><path style="opacity:1" fill="#747474" d="M 104.5,135.5 C 105.486,139.97 105.819,144.637 105.5,149.5C 107.415,149.216 109.081,149.549 110.5,150.5C 108.5,150.5 106.5,150.5 104.5,150.5C 104.5,145.5 104.5,140.5 104.5,135.5 Z"/></g>
<g><path style="opacity:1" fill="#151515" d="M 124.5,135.5 C 125.675,135.281 126.675,135.614 127.5,136.5C 129.833,141.833 132.167,147.167 134.5,152.5C 133.311,153.429 131.978,153.762 130.5,153.5C 130.837,150.17 129.337,148.504 126,148.5C 122.663,148.504 121.163,150.17 121.5,153.5C 120.022,153.762 118.689,153.429 117.5,152.5C 120.036,146.885 122.37,141.218 124.5,135.5 Z"/></g>
<g><path style="opacity:1" fill="#070707" d="M 177.5,150.5 C 175.012,152.388 172.012,153.055 168.5,152.5C 168.5,146.833 168.5,141.167 168.5,135.5C 171.5,135.5 174.5,135.5 177.5,135.5C 177.5,136.5 177.5,137.5 177.5,138.5C 175.5,138.5 173.5,138.5 171.5,138.5C 171.5,139.833 171.5,141.167 171.5,142.5C 173.5,142.5 175.5,142.5 177.5,142.5C 177.5,143.5 177.5,144.5 177.5,145.5C 175.5,145.5 173.5,145.5 171.5,145.5C 171.5,147.167 171.5,148.833 171.5,150.5C 173.5,150.5 175.5,150.5 177.5,150.5 Z"/></g>
<g><path style="opacity:1" fill="#c2c2c2" d="M 84.5,138.5 C 88.6759,137.831 90.0093,139.331 88.5,143C 87.2068,143.49 85.8734,143.657 84.5,143.5C 84.5,141.833 84.5,140.167 84.5,138.5 Z"/></g>
<g><path style="opacity:1" fill="#bebebe" d="M 125.5,140.5 C 126.931,141.78 127.598,143.447 127.5,145.5C 126.5,145.5 125.5,145.5 124.5,145.5C 124.629,143.784 124.962,142.117 125.5,140.5 Z"/></g>
<g><path style="opacity:1" fill="#808080" d="M 85.5,146.5 C 85.5,148.833 85.5,151.167 85.5,153.5C 83.901,153.768 82.5676,153.434 81.5,152.5C 82.5,152.5 83.5,152.5 84.5,152.5C 84.2053,150.265 84.5386,148.265 85.5,146.5 Z"/></g>
<g><path style="opacity:1" fill="#606060" d="M 177.5,150.5 C 178.404,151.209 178.737,152.209 178.5,153.5C 174.958,153.813 171.625,153.479 168.5,152.5C 172.012,153.055 175.012,152.388 177.5,150.5 Z"/></g>
<g><path style="opacity:1" fill="#121212" d="M 84.5,168.5 C 94.212,167.709 98.0454,172.043 96,181.5C 93.4586,186.069 89.6253,187.569 84.5,186C 76.5548,180.17 76.5548,174.336 84.5,168.5 Z"/></g>
<g><path style="opacity:1" fill="#121212" d="M 114.5,169.5 C 117.332,171.407 118.166,174.073 117,177.5C 115.926,178.618 114.76,179.618 113.5,180.5C 115.027,182.193 116.36,184.027 117.5,186C 116.167,186.667 114.833,186.667 113.5,186C 110.577,180.161 109.243,180.327 109.5,186.5C 108.5,186.5 107.5,186.5 106.5,186.5C 106.5,180.833 106.5,175.167 106.5,169.5C 109.167,169.5 111.833,169.5 114.5,169.5 Z"/></g>
<g><path style="opacity:1" fill="#0b0b0b" d="M 133.5,169.5 C 136.561,169.444 138.728,170.778 140,173.5C 140.667,176.167 140.667,178.833 140,181.5C 139.252,183.751 137.752,185.084 135.5,185.5C 132.833,185.5 130.167,185.5 127.5,185.5C 127.5,180.167 127.5,174.833 127.5,169.5C 129.5,169.5 131.5,169.5 133.5,169.5 Z"/></g>
<g><path style="opacity:1" fill="#060606" d="M 153.5,179.5 C 152.566,180.568 152.232,181.901 152.5,183.5C 154.833,183.5 157.167,183.5 159.5,183.5C 159.5,184.5 159.5,185.5 159.5,186.5C 156.5,186.5 153.5,186.5 150.5,186.5C 150.5,180.833 150.5,175.167 150.5,169.5C 153.247,169.187 155.914,169.52 158.5,170.5C 156.604,171.466 154.604,171.799 152.5,171.5C 152.5,173.167 152.5,174.833 152.5,176.5C 159.887,176.686 160.221,177.686 153.5,179.5 Z"/></g>
<g><path style="opacity:1" fill="#141414" d="M 168.5,168.5 C 172.839,167.846 176.673,168.846 180,171.5C 181.059,175.381 179.892,178.381 176.5,180.5C 177.711,182.422 179.044,184.255 180.5,186C 179.167,186.667 177.833,186.667 176.5,186C 175.044,184.255 173.711,182.422 172.5,180.5C 171.534,182.396 171.201,184.396 171.5,186.5C 170.5,186.5 169.5,186.5 168.5,186.5C 168.5,180.5 168.5,174.5 168.5,168.5 Z"/></g>
<g><path style="opacity:1" fill="#2d2d2d" d="M 133.5,169.5 C 131.5,169.5 129.5,169.5 127.5,169.5C 127.5,174.833 127.5,180.167 127.5,185.5C 130.167,185.5 132.833,185.5 135.5,185.5C 132.713,186.477 129.713,186.81 126.5,186.5C 126.5,180.5 126.5,174.5 126.5,168.5C 129.059,168.198 131.393,168.532 133.5,169.5 Z"/></g>
<g><path style="opacity:1" fill="#535353" d="M 114.5,169.5 C 111.833,169.5 109.167,169.5 106.5,169.5C 106.5,175.167 106.5,180.833 106.5,186.5C 105.51,180.69 105.177,174.69 105.5,168.5C 108.713,168.19 111.713,168.523 114.5,169.5 Z"/></g>
<g><path style="opacity:1" fill="#cecece" d="M 85.5,171.5 C 91.8197,171.32 94.3197,174.32 93,180.5C 88.9266,184.619 85.26,184.285 82,179.5C 81.2793,175.946 82.4459,173.28 85.5,171.5 Z"/></g>
<g><path style="opacity:1" fill="#5d5d5d" d="M 113.5,172.5 C 112.167,172.5 110.833,172.5 109.5,172.5C 109.5,173.833 109.5,175.167 109.5,176.5C 110.5,176.5 111.5,176.5 112.5,176.5C 111.432,177.434 110.099,177.768 108.5,177.5C 108.5,175.5 108.5,173.5 108.5,171.5C 110.415,171.216 112.081,171.549 113.5,172.5 Z"/></g>
<g><path style="opacity:1" fill="#d3d3d3" d="M 113.5,172.5 C 114.124,172.917 114.457,173.584 114.5,174.5C 114.253,175.713 113.586,176.38 112.5,176.5C 111.5,176.5 110.5,176.5 109.5,176.5C 109.5,175.167 109.5,173.833 109.5,172.5C 110.833,172.5 112.167,172.5 113.5,172.5 Z"/></g>
<g><path style="opacity:1" fill="#7e7e7e" d="M 133.5,172.5 C 132.5,172.5 131.5,172.5 130.5,172.5C 130.5,175.833 130.5,179.167 130.5,182.5C 131.5,182.5 132.5,182.5 133.5,182.5C 132.432,183.434 131.099,183.768 129.5,183.5C 129.5,179.5 129.5,175.5 129.5,171.5C 131.099,171.232 132.432,171.566 133.5,172.5 Z"/></g>
<g><path style="opacity:1" fill="#d6d6d6" d="M 133.5,172.5 C 137.254,173.828 138.421,176.494 137,180.5C 136.184,181.823 135.017,182.489 133.5,182.5C 132.5,182.5 131.5,182.5 130.5,182.5C 130.5,179.167 130.5,175.833 130.5,172.5C 131.5,172.5 132.5,172.5 133.5,172.5 Z"/></g>
<g><path style="opacity:1" fill="#7c7c7c" d="M 175.5,172.5 C 174.5,172.5 173.5,172.5 172.5,172.5C 172.5,173.833 172.5,175.167 172.5,176.5C 173.5,176.5 174.5,176.5 175.5,176.5C 174.432,177.434 173.099,177.768 171.5,177.5C 171.5,175.5 171.5,173.5 171.5,171.5C 173.099,171.232 174.432,171.566 175.5,172.5 Z"/></g>
<g><path style="opacity:1" fill="#d2d2d2" d="M 175.5,172.5 C 178.167,173.833 178.167,175.167 175.5,176.5C 174.5,176.5 173.5,176.5 172.5,176.5C 172.5,175.167 172.5,173.833 172.5,172.5C 173.5,172.5 174.5,172.5 175.5,172.5 Z"/></g>
<g><path style="opacity:1" fill="#5b5b5b" d="M 153.5,179.5 C 160.221,177.686 159.887,176.686 152.5,176.5C 152.5,174.833 152.5,173.167 152.5,171.5C 154.604,171.799 156.604,171.466 158.5,170.5C 155.914,169.52 153.247,169.187 150.5,169.5C 150.5,175.167 150.5,180.833 150.5,186.5C 149.51,180.69 149.177,174.69 149.5,168.5C 152.833,168.5 156.167,168.5 159.5,168.5C 159.5,169.833 159.5,171.167 159.5,172.5C 157.5,172.5 155.5,172.5 153.5,172.5C 153.5,173.5 153.5,174.5 153.5,175.5C 155.5,175.5 157.5,175.5 159.5,175.5C 159.5,176.833 159.5,178.167 159.5,179.5C 157.5,179.5 155.5,179.5 153.5,179.5 Z"/></g>
</svg>
