<?xml version="1.0" encoding="utf-8"?>
<!-- Generator: Adobe Illustrator 27.0.1, SVG Export Plug-In . SVG Version: 6.00 Build 0)  -->
<svg version="1.1" id="OBJECTS" xmlns="http://www.w3.org/2000/svg" xmlns:xlink="http://www.w3.org/1999/xlink" x="0px" y="0px"
	 viewBox="0 0 184.3 225.1" style="enable-background:new 0 0 184.3 225.1;" xml:space="preserve">
<style type="text/css">
	.st0{fill:#E5D7C8;}
</style>
<path class="st0" d="M49.3,121.9c0.2-0.5,0.4-1.1,0.8-2c-1.1,0.8-1.8,1.5-2.5,2c-1.6,1.1-3.3,2.2-5,3.2c-0.6,0.3-1.3,0.5-1.9,0.7
	c-0.2,0-0.4-0.2-0.8-0.5c4.8-1.4,8.2-4.6,11.9-7.5c-0.5-1.1-0.9-2.2-1.3-3.2c-4.6-0.9-11,1.7-12.5,5.1c3.4-0.8,6.9-1,9.8-3.2l0,0
	c1,0.4,1.2,0.9,0.6,1.5c-0.4,0.3-0.8,0.6-1.2,0.8c-2.4,1.4-4.6,2.9-6.1,5.3c-0.1,0.1-0.3,0.2-0.6,0.4c0.6-2.6,2.4-3.9,4.5-5.6
	c-2,0.4-3.5,0.8-5,1.1c-0.7,0.1-1.3,0.3-2,0.4c-0.3,0-0.7-0.2-1.1-0.4c1.3-3.5,4.3-4.7,7.5-6c-0.8-0.3-1.3-0.6-1.9-0.8
	c-0.5-0.2-1-0.5-1.5-0.8c-0.8-0.5-1.6-1-2.3-1.6c-1.1-1-0.8-2.2,0.6-2.7c0.7-0.3,1.6-0.3,2.6-0.5c-0.4-0.4-0.7-0.7-1.1-1
	c-0.5-0.4-1-0.8-1.4-1.2c-1.3-1.4-1.4-2-0.3-3.8c-0.3-0.3-0.6-0.6-0.9-0.8c-0.5-2.8-1-5.4-1.5-8c1.7,1.9,1.3,4.5,2.4,6.7
	c2.6,0,4.8,1.1,7.2,2.1c-0.2-0.2-0.3-0.5-0.5-0.7c-1.2-1.3-2.5-2.7-3.7-4c-0.5-0.6-1-1.1-1.3-1.8c-0.5-1.4-0.9-2.8-1.4-4.3
	c0-0.1,0.1-0.2,0.3-0.4c1.1,1.2,1.2,2.9,2,4.3c2.1-0.5,3.7,0.6,5.2,1.9c0.5,0.4,1,0.9,1.6,1.3l0.2,0.1l0.2-0.1
	c0.2,0.2,0.4,0.3,0.5,0.5c0.5,0.9,1,1.8,1.5,2.6c0.5,0.8,1.1,1.5,1.7,2.3c0.6,0.8,1.1,1.7,1.6,2.4c0.8-0.2,1.1-0.6,0.7-1.2
	c-0.6-1.1-1.2-2.2-1.9-3.3c-1.3-2.1-2.6-4.3-3.9-6.4c-0.3-0.5-0.6-1.2-1.4-1.4v1.9l0,0c-0.4-0.5-0.7-1.1-1.2-1.8
	c-2.3-0.8-3.9-2.8-5.2-5c-0.1-0.2,0-0.4-0.1-0.6l0,0.1c0.8,0.7,1.7,1.4,2.4,2.2c0.9,1,1.9,1.9,3,2.6c1.2-0.8,1.3-0.8,2.1,0
	c0.5,0.6,0.9,1.2,1.3,1.8c0.3,0.4,0.7,0.8,1,1.2c0,0.1,0.1,0.2,0.1,0.4c0.1-0.1,0.1-0.1,0.2-0.2c-0.1-0.1-0.2-0.1-0.3-0.2
	c-0.1-0.5-0.1-1.1-0.2-1.6c-0.2-1.2-0.4-2.4-0.5-3.6c-0.1-0.7,0-1.4,0.8-1.9c0.3,0.2,0.8,0.2,1.1,0.6c0.6,0.6,1.1,1.2,1.5,1.9
	c0.9,1.9,1.7,3.8,2.6,5.8c0.2,0.4,0.4,0.7,0.8,1.5c0-1.9,0-3.4,0-4.9c0-1.4,0.1-2.9,1-4.1c1.5-2,0.7-2.6-1.1-3.6
	c-0.5-0.3-1-0.3-1.6-0.5c-0.7-0.2-1.5-0.4-2.2-0.6c-2.5-0.7-4.9-1.5-7.5-1.7c-0.2,0-0.5-0.2-1.1-0.5c3-0.6,5.4,0.3,7.8,1
	c2.4,0.7,5,0.9,7,2.7c0.3-0.5,0.6-0.9,0.8-1.3c-0.4-0.6-1.2-0.3-1.6-1.1c4.1-0.1,8.1,0.6,12,1.1c-0.5-0.3-0.9-0.5-1.4-0.7
	c-0.3-0.1-0.8-0.3-0.8-0.5C68.3,83,67.8,83,67.2,83c-1.6,0-3.1,0-4.7-0.1c-0.8,0-1.6-0.2-2.4-0.4c-0.2-0.1-0.3-0.5-0.5-0.8l-0.1,0
	c1.9,0.3,3.8,0.3,5.7,0.2c1-0.1,2,0.1,3,0.2c4.3,0.8,8.8,1.2,13,3.2c-0.1-1.1-0.8-1.7-1.1-2.4c-0.3-0.8-0.8-1.6-0.5-2.7
	c0.4,0.2,0.7,0.4,0.8,0.6c1,1.2,1.9,2.4,2.8,3.7c1.3,1.8,2.7,3.3,4.6,4.6c2.9,1.9,5.3,4.4,7.4,7.3c0.2,0.3,0.5,0.6,0.8,0.9
	c0,0,0.1,0,0.2,0c0-0.1,0.1-0.3,0.1-0.4c-1-4.5-2.4-8.9-4.8-13c-0.4-0.7-0.9-1.2-1.5-1.6c-1.7-0.9-3.1-2.2-4.5-3.5
	c-1.4-1.2-2.7-2.5-4.3-3.3c-1.1,0.2-1.6,0.9-2.1,1.7c-0.6,1-1.4,1.8-2.1,2.7c-0.2,0.3-0.7,0.4-1.1,0.7c-0.3-0.9,0.3-1.2,0.6-1.7
	c0.3-0.5,0.6-1,1-1.7c-1.7,0.4-3.3,0.8-4.9,1c-1.5,0.1-3,1-4.8,0c2.7-1,5.3-0.6,7.9-1.6c-0.4-0.2-0.7-0.4-0.9-0.5
	c-1.7-0.6-3.5-1.2-5.2-1.9c-1.1-0.4-1.3-0.6-2-1.8c0.6,0.2,0.9,0.4,1.2,0.5c2.1,0.9,4.3,1.8,6.4,2.5c1.8,0.6,2.5,0.4,4.4-0.4
	c-0.4-0.8-1.2-0.9-1.8-1.2c-1.9-1.1-3.9-2.2-5.8-3.4s-3.5-2.8-4.9-4.6c0.7-0.4,1,0.1,1.3,0.3c1.2,1,2.3,2.1,3.5,3.1
	c1.5,1.3,1.9,1.5,4.1,2.1c-0.4-1.3-0.7-1.8-1.5-2.3c-0.5-0.3-1-0.5-1.4-0.9c-1.2-1-2.3-1.8-3.7-2.5c-0.9-0.4-1.8-1-1.8-2.4
	c0.3,0,0.7-0.1,0.9,0.1c1,0.7,2,1.4,3,2.1c0.3,0.2,0.6,0.5,1.1,0.8c-0.2-1.1-0.6-1.9-1-2.6c-0.4-0.7-1-1.4-1.1-2.3
	c1.7,1.1,2.3,3.1,4.2,4.3c-1.6-4.8-2.7-9.6-2.7-14.7c-0.8,0.8-1,1.7-1.4,2.4c-1.2,2.5-2.3,5.1-3.6,7.6c-0.3,0.7-0.8,1.3-1.3,1.8
	c-0.8,0.7-1.8,0.4-2-0.7c-0.1-0.5-0.1-1-0.1-1.4c0.1-0.8,0.3-1.6,0.5-2.4c0.1-0.7,0.3-1.3,0.5-2.3c-1.1,0.9-2,1.7-2.9,2.3
	c-0.7,0.5-1.4,0.8-2.2,1c-0.9,0.2-1.5-0.4-1.2-1.3c0.3-1,0.7-2.1,1.1-3.1c1.1-2.6,2.8-4.8,4.5-7c0.4-0.5,0.7-1,1.4-1.8
	c-0.7,0.2-1,0.3-1.2,0.4c-2.5,1.9-5.1,3.9-7.6,5.8c-0.7,0.5-1.2,1-1.9,1.5c-0.3,0.2-0.6,0.4-0.9,0.5c-1.1,0.4-2-0.4-1.8-1.5
	c0.2-0.6,0.5-1.3,0.8-1.8c1.7-2.5,3.6-4.8,6.1-6.6c0.6-0.4,1.2-0.9,2-1.6c-0.5,0-0.8,0-1,0.1c-2.8,1.2-5.8,1.6-8.7,2.2
	c-1.2,0.2-2.5,0.2-3.6-0.2c-0.3-0.1-0.8-0.4-0.9-0.7s0.2-0.8,0.5-1c1.1-1,3.3-1.6,5-1.4c-1.5,0.9-3.3,0.8-4.6,2.2
	c0.4,0.2,0.7,0.5,1.1,0.5c1.2,0,2.3,0,3.4-0.2c2.1-0.4,4.3-0.9,6.4-1.5c2.1-0.6,4.1-1.4,6.3-2.2c-0.2-0.8-0.5-1.6-0.6-2.4
	c-0.1-0.8-0.1-1.6,0-2.4c0.1-0.9,0.3-1.7,0.5-2.6c-2-0.9-3.9-1.7-6-2.2c-1.9-0.4-3.7-0.8-5.6-1.1c-0.9-0.1-1.8-0.1-2.6,0
	c-0.3,0-0.8,0.4-0.9,0.7c-0.2,0.5,0.2,0.9,0.6,1.1c0.7,0.3,1.4,0.5,2.1,0.8c3,0.9,6.1,1.9,9.2,2.8c0.4,0.1,0.7,0.3,1.4,0.6
	c-2.6,0.9-5.1,0.8-7.4,1.3c-2.3,0.6-4.8,0.9-7.3,1.8c0.9,0.7,1.7,0.8,2.4,0.8c2.3,0.2,4.6,0.1,6.9-0.3c1.8-0.3,3.6-0.7,5.8-0.5
	c-0.5,0.3-0.7,0.6-1,0.6c-2.6,0.4-5.2,0.9-7.9,1.1c-1.7,0.1-3.4,0-5.1-0.2c-0.7-0.1-1.4-0.5-2-0.8c-0.6-0.4-0.5-1.2,0.1-1.5
	c0.5-0.2,1-0.4,1.5-0.5c2.7-0.6,5.5-1.1,8.2-1.7c0.6-0.1,1.2-0.3,1.8-0.7c-2.3-0.7-4.7-1.4-7-2.1c-0.8-0.2-1.6-0.5-2.3-0.9
	c-0.7-0.4-1.2-1-1-1.9c0.2-0.9,0.9-1.2,1.7-1.3c1.2,0,2.3,0,3.4,0.2c3.5,0.6,7,1.3,10.2,2.8c0.3,0.2,0.8,0.1,1.2,0.2
	c-0.1-0.9-0.8-1-1.3-1.3c-2.2-1.3-4-3-5.5-5.1c-0.5-0.6-0.9-1.4-1.2-2.1c-0.5-1.2,0.1-2.1,1.5-1.9c0.8,0.1,1.7,0.4,2.5,0.8
	c0.8,0.4,1.6,1,2.4,1.6c0.3,0.2,0.6,0.3,1,0.5c0-0.9,0-1.6,0.1-2.4c0.1-0.9,1-1.2,1.7-0.6c0.4,0.4,0.8,0.8,1,1.2
	c0.6,1.2,1.1,2.5,1.6,3.8c0.1,0.3,0,0.6-0.1,1c0,0.3-0.1,0.6-0.1,1c-0.3-0.1-0.6-0.1-0.8-0.2c-1.2-0.8-2.4-1.7-3.6-2.5
	c-1.3-0.9-2.5-1.8-3.8-2.6c-0.7-0.5-1.5-0.8-2.4-0.3c0.9,2.7,4,6,7.8,8.1c0.9-0.8,1.9-1.7,2.8-2.5c0.7-0.3,1.4-0.6,2-0.9
	c0.1-3.5,1-6.9,2.1-10.1c0.3-0.8,0.7-1.6,1.4-2.2c0.8-0.6,1.6-0.4,2.1,0.4c0.6,1.1,0.7,2.3,0.7,3.6c0,1-0.1,2-0.2,3.4
	c0.6-0.5,0.9-0.8,1.2-1.2c1.2-1.5,2.5-3.1,4.1-4.3c0.4-0.3,0.8-0.6,1.2-0.7c0.2-0.1,0.6,0.1,1.2,0.2c-3,2-5.1,4.5-7,7.1
	c-0.8,1-1.5,2.1-1.5,3.6c0.3,0.1,0.7,0.2,1.1,0.3c2.6-3.6,5.2-7.1,7.7-10.6c0.1,0.1,0.2,0.1,0.3,0.2c-0.1,0.4-0.2,0.9-0.4,1.2
	c-1.1,1.7-2.3,3.4-3.5,5c-0.9,1.3-1.8,2.5-2.7,3.8c0.6,0.4,0.9-0.1,1.2-0.3c3.9-2.8,8.3-3.5,13-3.5c0.4,0,0.8,0.1,1.2,0.2
	c0.6,0.2,1.3,0.4,1.9,0.5c0.3,0.1,0.7,0.1,1,0.3c1.1,0.5,1.2,1.4,0.3,2c-1,0.7-2.1,1.3-3.2,1.8c-1.7,0.7-3.5,1.1-5.2,1.8
	c-0.6,0.2-1.4,0.2-1.8,0.9h-0.8c0,0.1,0,0.1,0,0.2c0.2-0.1,0.5-0.2,0.7-0.2c3.5-0.5,7.1-0.6,10.6-0.5c0.3,0,0.7,0,1,0
	c0.9,0.1,1.5,0.5,2.1,1.1c0.7,0.7,0.3,1.5,0.1,2.2c2.2,1.8,2.1,3.4-0.2,4.9c-1,0.7-2.1,1-3.3,0.9c-0.5,0-1.1,0-1.7,0.1
	c1.1,0.5,2.2,0.9,3.3,1.4c1,0.4,1.7,1.2,2,2.2c0.4,1.2,0.3,1.5-0.7,2.5c-0.2,0.1-0.3,0.2-0.6,0.5c0.3,0.8,0.5,1.6,0.8,2.4
	c0.1,0,0.2,0,0.3,0c0.1-0.4,0.1-0.7,0.2-1.1c0-0.4,0-0.8,0-1c1-1.3,2.3-1.6,3.9-1.6c-0.3-1.2-1.8-1.8-1.4-3.1
	c1.2-0.6,2.2,0.2,3.3,0.5c1.1,0.4,2.1,0.8,3.3,1.3c0.1-0.6-0.3-0.8-0.5-1.1c-0.7-1.1-1.4-2.2-1.9-3.3c-0.4-0.8,0.3-1.5,1.2-1.3
	c0.6,0.2,1.3,0.5,1.8,0.9c0.9,0.8,1.7,1.7,2.6,2.6c0.3,0.3,0.5,0.6,1,1.3c-0.1-2.1-0.7-3.6-0.8-5.4c0.3-0.4,0.8-1,1.3-1.7
	c1.5,1.2,1.6,3,2.4,4.7c0.2-0.6,0.3-1,0.5-1.5s0.2-1,0.3-1.4c0.2-0.5,0.5-0.9,0.8-1.6c0.3,0.4,0.6,0.6,0.6,0.8c0,1.5,0.5,3,0,4.9
	c-0.7-1.4-0.1-2.5-0.6-3.6c-0.7,1.4-0.6,2.8-0.7,4.4c1.3-0.1,2.5-0.2,3.8-0.2c0.5-0.9,0-1.7,0.1-2.7c-0.4,0.3-0.6,0.5-0.8,0.8
	c-0.1-1.8-0.1-1.8,0.9-3c0.4,0.4,0.7,1.1,0.8,2c0.7-0.4,0.7-1.2,1.1-1.7c0.7-0.9,1.3-1.8,2-2.5c0.6-0.6,1.4-0.2,1.5,0.6
	c0.1,0.5,0,1.1-0.1,1.6c-0.1,0.8-0.3,1.6-0.5,2.7c0.8-0.8,1.3-1.3,1.8-1.8c0.6-0.5,1.2-1.1,1.9-1.5c0.8-0.5,1.5,0,1.4,1
	c-0.1,0.7-0.3,1.5-0.6,2.2c-0.4,0.9-0.8,1.7-1.2,2.6c-0.2,0.3-0.3,0.7-0.5,1.1c0.6,0.4,0.8-0.1,1.1-0.3c1.9-1.4,3.9-2.7,6.2-3.6
	c0.6-0.2,1.2-0.4,1.8-0.5c0.6-0.1,1,0.6,0.7,1.1c-0.2,0.4-0.6,0.8-0.9,1.1c-1.2,1-2.5,1.9-3.7,2.9c-0.4,0.3-0.8,0.5-1.1,1
	c1.3-0.3,2.7-0.6,4-0.8c0.9-0.2,1.9-0.3,2.8-0.5c1.4-0.2,2.7,0,4,0.6c0.9,0.4,0.9,1.2,0.1,1.8c-0.4,0.3-1,0.5-1.5,0.7
	c-1.1,0.4-2.2,0.7-3.5,1.2c3.4,1.1,6.8,1.8,7.9,5.5c-0.2,0.6-0.7,0.8-1.2,0.7c-0.9-0.1-1.9-0.3-2.8-0.5c-2.5-0.5-5.1-1-7.6-1.4
	c-0.3-0.1-0.7,0-1.4,0c0.6,0.4,1,0.6,1.3,0.8c1.1,0.4,2.2,0.7,3.2,1.2c1,0.5,2,1.2,2.9,1.8c0.4,0.3,0.9,0.8,0.6,1.4
	c-0.3,0.5-0.8,0.5-1.3,0.4c-1.9-0.3-3.7-0.7-5.6-1.1c-0.5-0.1-1-0.3-1.6-0.5c-0.2,0.5,0.2,0.6,0.3,0.8c0.2,0.3,0.5,0.7,0.7,1
	c0.2,0.3,0.4,0.6,0.5,0.9c0.3,0.5,0.6,1.1,0.8,1.7c0.1,0.3,0.1,0.8-0.1,1.1c-0.3,0.4-0.8,0.5-1.3,0.3c-0.7-0.3-1.5-0.7-2.1-1.2
	c-0.9-0.6-1.7-1.3-2.7-2.2c0.1,0.7,0.2,1.1,0.2,1.5c0.1,1.1,0.2,2.2,0.1,3.2c-0.1,1.3-1.2,1.9-2.3,1.2c-0.5-0.3-0.9-0.7-1.2-1
	c-0.9-1-1.5-2.1-1.9-3.3c-0.7-1.7-1.4-3.4-2.1-5.1c-0.6-1.2-0.6-1.2-2.2-1c-1.2,2.7-1.6,5.8-0.9,8.3c0.5-2.6,1-4.9,1.5-7.3
	c0.7,0.2,1.1,0.5,1.2,1.2c0.1,2,0.2,4.1,0.3,6.1c0,1.1-0.1,2.2-1,3c-0.3,0.3-0.4,0.8-0.5,1.3c-1.1,4.2-1.7,8.4-2.1,12.7
	c-0.2,1.5-0.4,3.1-0.6,4.6c1.8,0.6,3.4,1.2,5.2,1.8c0-0.5-0.3-0.7-0.6-0.9c-0.8-0.8-1.6-1.5-2.3-2.3c-0.4-0.4-0.7-0.8-0.9-1.3
	c-0.4-0.9,0.1-1.6,1-1.4c0.7,0.2,1.3,0.4,1.9,0.8c1.6,1,3.1,2,4.8,3.2c-0.2-0.8-0.8-1.2-1.2-1.7c-1.1-1.2-2.1-2.6-2.5-4.2
	c-0.1-0.3,0-0.7,0-1.2c1.9,0.3,3.1,1.5,4.4,2.6c1.2,1.1,2.4,2.1,3.8,3.3c-0.3-1.9-0.7-3.7-0.9-5.5c-0.1-0.6-0.2-1.2-0.1-1.8
	c0-0.4,0.3-0.8,0.6-1c0.4-0.3,0.9,0,1.3,0.3c0.4,0.4,0.7,0.8,0.9,1.3c0.7,1.6,1.3,3.1,1.9,4.7c0.1,0.3,0.3,0.7,0.5,1.3
	c0.9-1.7,0.8-3.6,2.1-5c0.3,0.2,0.6,0.4,0.6,0.6c0.6,2.8,0.8,5.6,0.3,8.5c-0.1-0.3-0.4-0.5-0.4-0.8c-0.1-1.3,0-2.6-0.1-3.9
	c0-0.8-0.1-1.6-0.2-2.6c-1.5,1.8-1.6,3.9-0.8,8.5c1.5,0.3,3,0.5,4.6,0.8c0.9-2.4,1.1-6.7,0.4-8.6c-1.1,0.9-1.1,2.2-1.4,3.3
	c-0.3,1.2-0.3,2.4-0.8,3.8c-0.2-0.4-0.5-0.6-0.5-0.8c0.3-1.7,0.6-3.5,1-5.2c0.1-0.5,0.4-1,0.7-1.4c0.3-0.4,0.6-0.8,1.1-0.6
	c0.3,0.1,0.6,0.5,0.7,0.9c0.2,0.6,0.3,1.3,0.3,2c-0.1,1.4-0.3,2.8-0.4,4.3c-0.1,0.7-0.4,1.4,0,2.4c0.4-0.4,0.8-0.7,1.1-1
	c1.7-1.6,3.5-3,5.6-4.1c0.7-0.4,1.6-0.9,2.2-0.2c0.6,0.6,0,1.4-0.3,2.1c-0.6,1.4-1.5,2.6-2.6,3.6c-1,1-2,2-3.1,3.1
	c0.3,0.7,0.5,1.3,0.8,1.9c2.5-0.7,4.9-1.1,7.5-2.2c-2.3-0.4-4,1.2-6.1,0.9c1.2-1,3.3-1.7,5.6-1.9c0.8-0.1,1.6-0.5,2.4,0.4
	c-0.3,0.4-0.7,0.9-1,1.3c0.1,0.1,0.2,0.2,0.3,0.2c2,0,3.9,0,5.9,0.1c0.5,0,1.1,0.1,1.3,0.8c-0.1,0.8-0.9,1-1.5,1.1
	c-0.8,0.2-1.7,0.4-2.6,0.5c-0.7,0.2-1.4,0.3-2.2,0.7c1.5,0.3,2.9,0.6,4.4,0.9c0.6,0.1,1.2,0.3,1.8,0.5c0.3,0.1,0.4,0.4,0.6,0.7
	c-0.5,0.8-1.2,0.8-1.8,0.9c-2.4,0.1-4.8,0.2-7.1,0.4c-0.6,0-1.3,0-2.1,0.3c0.3,0.2,0.7,0.3,1,0.6c2,1.4,4,2.8,6,4.2
	c0.5,0.3,0.9,0.8,1.2,1.3c0.5,0.7,0.4,0.9-0.5,1.7c0.1,0.3,0.4,0.7,0.4,1.1c0.2,0.8-0.3,1.4-1.1,1.3c-0.6-0.1-1.2-0.2-1.7-0.5
	c-0.7-0.4-1.3-0.9-1.9-1.5c-2.2-2.3-4.7-4.3-7.3-6.2c-0.9-0.7-1.8-1.4-2.9-2.2c-0.6,0.2-1.3,0.4-2.2,0.6c0.5,0.8,1,1.5,1.4,2.2
	c1.5,2.3,3.1,4.5,4.3,6.9c0.9,1.8,1.4,2.1,3.8,1.9c0.1-0.9-0.5-1.5-0.9-2.2c-1.4-2.4-3.3-4.3-5.2-6.3c-0.6-0.7-1.4-1.2-1.8-2.4
	c0.4,0.1,0.7,0,0.8,0.1c2.5,2.6,5.2,5,7,8.2c0.4,0.7,0.7,1.3,0.9,2c0.3,0.8-0.2,1.4-1,1.3c-1-0.1-2-0.3-3.1-0.5
	c-1,0.7-2.4,0.8-4.2,0.2c-1.7,0.9-3.3,1.8-5,2.7c-0.9,0.4-1.5,0.9-1.7,1.9c-0.2,0.9-0.6,1.8-1,2.8c0.9,0,1.6-0.6,2.3-0.9
	c0.8-0.2,1.5-0.6,2.3-0.8c0.9-0.2,1.7-0.5,2.6-0.7c0.8-0.2,1.6-0.3,2.4-0.4c0.8-0.1,1.5-0.6,2.6-0.1c-0.4,0.3-0.7,0.6-1,0.7
	c-1.4,0.5-2.8,0.9-4.2,1.4c-1.6,0.5-3,1.2-4.4,2.2c-0.9,0.6-1.9,1-2.9,1.5c-1,0.4-1.8,1.1-2.8,2.1c0.6-0.1,0.9-0.1,1.1-0.2
	c1.1-0.3,2.1-0.8,3.1-0.9c3.1-0.3,5.6-2.1,8-3.8c0.8-0.6,1.6-1.1,2.4-1.6c0.2-0.1,0.5-0.1,1.1-0.3c-0.4,0.5-0.4,0.8-0.7,1
	c-1,0.8-2.1,1.5-3.1,2.3c-0.3,0.2-0.6,0.4-1.2,0.8c1.7,0.3,3-0.5,4.8-0.2c-0.4,0.3-0.6,0.5-0.8,0.6c-3.2,1.4-6.6,2.1-10,2.8
	c-2.6,0.5-5.1,1.4-7.3,3c-0.9,0.7-2.1,0.7-3.1,1.1c-0.3-0.3-0.2-1.1-1-0.8c-1,5-1.9,9.9-2.9,14.9c0.1,0,0.2,0.1,0.2,0.1
	c0.6-0.6,1.2-1.3,1.7-1.9c1.1-1.2,2.2-2.4,3.6-3.3c0.5-0.3,1-0.8,1.3-1.3c1.1-1.9,2.3-3.9,3.3-5.9c0.8-1.5,1.6-2.8,2.8-4
	c0.4-0.4,0.8-0.7,1.5-1.2c0,0.6,0.1,0.9,0,1.2c-0.5,0.9-1.1,1.8-1.6,2.6c-0.8,1.2-1.7,2.3-2.5,3.5c-0.4,0.7-0.9,1.3-1,2.1
	c0.4,0.4,0.7,0,0.9-0.1c1.6-1.4,3.1-2.8,4.7-4.3c0.6-0.6,1.1-1.4,2.1-1.5c-0.3,1.2-1.3,2.3-3.5,4.3c-1.4,1.3-2.7,2.8-4,4.3
	c-1.3,1.4-2.6,2.7-3.7,4.3c0.3-0.2,0.6-0.4,1-0.6c1.1-0.8,2.2-1.7,3.3-2.4c0.8-0.5,1.6-1,2.5-1.3c1.8-0.6,3.7-1.1,5.6-1.7
	c0,0.1,0.1,0.3,0.1,0.3c-1.6,1.2-3.4,2-5.2,2.6l0,0V138c-0.6,0.2-1.3,0.3-1.7,1l0.1-0.1c-0.4,0.1-0.3,0.2,0,0.4l0,0
	c-0.6,0.4-1.2,0.8-1.8,1.2c-1,0.6-2.1,1-2.8,2c1.5-0.2,3-0.6,4.5-0.6c1.5,0,2.8-0.8,4.5-0.6c-0.4,1.1-1.1,1.2-1.9,1.3
	c-1.9,0.3-3.9,0.6-5.9,0.8c-2.7,0.2-5,1.1-6.7,3.3c-0.7,0.9-1.9,1.4-2.2,2.6c-0.8,0.1-0.8,0.9-1,1.4c-0.7,2.2-1.6,4.3-2.5,6.4
	c-1.4,3.1-2.9,6.4-3.5,9.8c-0.4,2.2-0.4,4.5-0.5,6.7c-0.3,5.2-0.6,10.5-0.8,15.7c-0.1,3.2-0.1,6.4-0.2,9.6c-0.1,1.4-0.3,2.7-0.5,4
	c0,0.2-0.2,0.3-0.5,0.7c0.9-6.6,0.3-12.9,0.6-19.3c0.4-8.2,0.5-16.3,0.9-24.5c0.3-5.6,0.5-11.3,0.2-16.9c-0.1-2.1-0.3-4.2-0.8-6.2
	c-0.9-3.2-1.6-6.4-3.1-9.4c-1.5-3-2.9-6-4.5-8.9c-0.7-1.3-1.1-2.4-0.3-3.8c0.4-0.6,1-1.5,0.1-2.3c-0.1-0.1,0.1-0.4,0.2-0.6
	c0.9-1.7,1.9-3.4,2.9-5.2c0.1-0.1,0.2-0.1,0.3-0.2l0,0c0,0.4,0,0.8,0,1.2c-0.1,0.1-0.2,0.1-0.3,0.2c0,0,0,0.1,0,0.1
	c0.1-0.1,0.1-0.2,0.2-0.4c0.4-0.4,0.9-0.8,1.1-1.3c1.1-2.7,2.4-5.4,2.9-8.2c1.1-5.4,1.7-10.8,2.4-16.2c0.1-0.6,0.1-1.2-0.4-1.7l0,0
	c0.1-1.7,0.3-3.3,0.4-5c-1.1,2.6-1.4,5.4-1.5,8.2c-0.2,4.5-1,8.9-2,13.3c-0.1,0.4-0.3,0.7-0.5,1.1c-0.8-0.5-1.1-1.1-1.3-1.9
	c-0.7-2.6-1.4-5.1-2.2-7.6c-0.5-1.6-1.4-2.8-3-4.1c0.8,1.8,1.4,3.3,2.2,4.8c1,1.9,1.7,3.9,2.3,5.9c0.5,1.6,0.9,3.3,1.2,4.9
	c0.1,0.6,0,1.3-0.2,2s-0.4,1.3-0.6,1.9c-0.2,0.3-0.3,0.6-0.4,0.8l0.1-0.1c-0.2,0.3-0.3,0.6-0.4,0.9l0.1-0.1
	c-1.5,2.4-3.3,4.6-4.2,7.4c-0.2,0.7-0.6,1.2-1.4,1.5c-1.2-2.5-2.4-4.9-3.7-7.3c-1.2-2.3-2.6-4.6-3.9-6.9c-1,0.4-1.2,0.4-1.7-0.2
	c-0.5-0.9-1-1.8-1.6-2.6c-0.5-0.7-0.9-1.7-2.1-1.6c-0.3,0-0.8-0.7-1.2-1.1c-0.7-0.8-1.4-1.6-3-2.1c0.5,0.6,0.6,0.8,0.8,1.1
	c1.2,1.1,2.4,2.2,3.6,3.3c1.4,1.4,2.6,2.9,3.4,4.8c0.3,0.7,0.7,0.9,1.5,0.5c1.4,2.3,2.9,4.6,4.3,6.9c0.1,0.2,0.1,0.5,0.1,0.8l0,0
	c-0.3-0.1-0.6-0.2-0.9-0.3c0-0.2,0-0.3,0-0.5c0,0-0.1,0.1-0.1,0.1c0,0.1,0.1,0.2,0.2,0.3c0.4,0.8,0.9,1.6,1.3,2.4l0-0.1
	c0.2,0.3,0.3,0.6,0.4,0.9l0-0.1c0.5,1.3,1,2.7,1.6,3.9c2,4,4,8,6,12c0.1,0.3,0.4,0.5,0.6,0.8c0.1,0.1,0.1,0.2,0.2,0.3
	c-0.1-0.1-0.2-0.2-0.2-0.3c0.1-1.3-0.7-2.4-1.1-3.6c-0.2-0.6-0.3-1.1-0.5-1.7l0,0c0.9,0.6,1.1,1.7,1.5,2.5c0.4,0.8,0.7,1.7,1,2.7
	c0.2,0.8,0.5,1.5,1.2,2c0.1,0.1,0,0.4,0.1,0.6l0.1,0c-0.4,0.8-0.4,1.6-0.3,2.4c0.7,3.3,1.4,6.6,2.1,10c0.1-2.5-0.3-5-0.7-7.5
	c-0.1-0.7-0.2-1.3-0.2-2l0,0c0.2,0.2,0.4,0.4,0.4,0.6c0.7,3.1,1.2,6.1,1.2,9.3c0,2.9,0.2,5.8,0.4,8.8c0,0.4,0,0.8-0.3,1.2
	c-0.1-0.9-0.2-1.9-0.4-3.3c-0.3,0.6-0.5,0.8-0.5,1c-0.4,4.9-0.8,9.9-1.1,14.9c-0.3,4.9-0.5,9.8-0.7,14.7c-0.1,2.4-0.1,4.8-0.2,7.1
	c-0.1,2.3-0.4,4.6-0.7,6.9c-0.2,2-0.4,3.9-0.7,5.9c-0.1,0.4-0.2,0.9-0.3,1.3c-0.6-0.1-0.6-0.5-0.5-0.8c0.1-1.6,0.2-3.3,0.4-4.9
	c0.8-4.8,0.8-9.6,1-14.4c0.1-2,0.1-4.1,0.2-6.1c0.2-3.6-1.5-6.3-4.2-8.4c-0.9-0.7-1.8-1.4-2.6-2.2c-1.4-1.4-4.1-1.5-5.6-0.2
	c-1.3,1.1-2.6,2.2-3.8,3.4c-1.1,1-1.8,2.1-2,3.6c-0.3,1.9-1,3.8-1.5,5.7c-0.2,0.6-0.5,1.1-0.8,1.6c-0.2,0.4-0.4,0.9-1.1,0.8
	c-0.7-0.2-0.6-0.8-0.5-1.4c0.1-0.6,0.2-1.2,0.3-1.8c-1.2-0.3-2.2,0.8-3.3,0.2c0-0.8,0.6-0.9,1-1.2c0.3-0.2,0.6-0.4,0.9-0.4
	c2.1-0.4,3-1.9,3.7-3.7c0.1-0.4,0.3-0.8,0.5-1.2c-1.3-0.5-2.4,0.3-3.6,0.2c-1.1-0.1-2.3,0-3.7,0c0.6-0.7,1.2-0.7,1.8-0.8l0-0.1
	c0.3,0.5,0.8,0.5,1.3,0.4c1.5-0.3,3.1-0.6,4.6-0.9c0.6-0.1,1.1-0.6,1.6-0.9c1.2-1,2.3-2.1,3.5-3.1c0.2-0.2,0.3-0.4,0.6-0.9
	c-0.6,0.1-1,0.1-1.2,0.2c-0.7,0.6-1.2,1.3-1.9,1.9c-0.7,0.6-1.4,1.4-2.3,1.7c-1.6,0.6-3.3,0.9-4.9,1.2l0.1,0.1
	c0.8-0.5,1.7-1,2.8-1.6c-0.6-0.1-1-0.3-1.4-0.3c-0.9,0.1-1.9,0.1-2.8,0.4c-1.4,0.4-2.8-0.1-4.6-0.2c0.6-0.4,0.8-0.7,1.1-0.7
	c2.5-0.5,5-0.6,7.5-0.2c2.2,0.4,3.8,0,5.1-1.9c0.2-0.3,0.5-0.6,0.9-1c-0.6-0.2-1.1-0.4-1.5-0.6c-0.4-0.2-0.8-0.5-1.2-0.8
	c-1-0.8-2.2-1.1-3.4-0.7c-1.3,0.4-2.5,0.2-3.7-0.5c-0.9-0.5-1.8-0.9-2.7-1.4c-0.2-0.1-0.2-0.3-0.5-0.6c0.4-0.1,0.7-0.2,1-0.1
	c0.4,0.1,0.7,0.3,1.3,0.5c-0.3-0.9-0.5-1.5-0.8-2.4c0.8,0.1,1.1,0.6,1.4,1c1.2,1.8,2.8,2.1,4.9,2.1c-0.2-1.2-1.3-1.9-1.7-2.8
	c-0.5-1-0.9-1.9-0.7-3.4c1.2,1,2.2,1.9,3.4,3c0.4-3.1-0.4-6,0.4-9.2c1,1.7,0.2,3.4,1.2,4.8c0.6-0.7,1.1-1.4,1.6-2.1
	c0.5-0.7,1-1.4,1.6-2.3c0.4,1-0.1,1.5-0.4,2c-1.1,1.6-1.7,3.4-2.2,5.2c-0.7,2.7-0.2,5,2,6.6c2.2-0.1,4.3-0.3,6.4-0.4
	c0-0.1,0.2-0.2,0.1-0.3c-0.7-2-0.8-4-0.7-6c0.1-1.7,0-3.4-0.1-5.1c0-0.3,0-0.6-0.1-0.8c-1.4-1.5-2.2-3.6-4.6-4.1
	c-0.7-0.1-1.3-0.5-1.9-0.6c-1.5-0.2-2.3-1.2-3.7-2.2c0.7-0.1,0.9-0.2,1.1-0.1c0.9,0.4,1.7,0.8,2.6,1.2c0.7,0.3,1.3,0.8,2.3,0.4
	c-0.4-1.4-1.6-2.6-1.4-4.4c0.4,0.3,0.7,0.4,0.9,0.6c0.3,0.5,0.4,1,0.7,1.5c0.6,0.9,1.1,1.9,1.7,2.7c0.7,1,1.5,1.9,2.4,2.9
	c0.2-2.3-0.1-5-0.6-6.5c-0.1-0.2-0.2-0.4-0.2-0.6c0.1-1,0.2-2.1,0.3-3.4c0.4,0.4,0.8,0.5,1,0.8c0.3,0.9,0.5,1.8,0.8,2.8h1.3
	c-0.6,0.5-1,0.9-1.4,1.2c-0.4,0.6,0.6,0.9,0.2,1.5c-0.4,0.5-0.2,1-0.1,1.5c0.6,0.2,0.6-0.3,0.7-0.5c0.8-1.7,1.5-3.4,2.2-5
	c0.3-0.6,0.3-1.3,1.2-1.8c0.1,2-1.2,3.5-1.4,5.3c1.1-0.4,1.4-0.6,2.4-1.6c1.4-1.4,1.4-1.4,2.3-1.6c-0.9,2.8-2.7,4.8-5.2,6.6
	c0-0.5,0-0.8-0.1-1c0.6-0.3,1-0.8,1.3-1.4c-0.7,0.3-1.3,0.6-1.3,1.4c-0.3,0.4-0.6,0.7-0.8,1.1c-1.1,2.9-1.2,6-0.8,9.1
	c0.2,1.8,0.5,3.5,0.6,5.3c0.1,1.1,0.4,2,1.4,2.8c1.9,1.4,3.3,3.2,4.6,5.2c0.2,0.3,0.4,0.7,0.6,1c0.6-0.2,0.4-0.7,0.4-1.1
	c0.4-4.7,0.8-9.5,1.2-14.2c0.5-7.3,0.2-14.6-2-21.6c-0.3-1-0.8-2-1.2-3c-0.4-0.9-0.8-1.7-1.2-2.6c-0.9-2.2-2.5-3.6-4.8-4.4
	c-4.3-1.4-8.8-2.2-13.3-2.9c-2.2-0.3-4.3-0.8-6.5-1.2c-1.4,1.3-3.2,1.1-5.1,1.3c0.3,0.4,0.4,0.7,0.6,0.9c0.6,1,0.5,1.3-0.4,2
	c-0.3,0.2-0.7,0.4-1.1,0.7c0.2-0.7,0.4-1,1.1-1.7c-0.2-0.8-0.9-1.2-1.6-1.7c-2-1.4-4.3-2.4-6.6-3.2c-1.1-0.4-2.2-0.7-3.1-1.7
	c0.4-0.4,0.9-0.3,1.3-0.1c1.7,0.7,3.3,1.5,5.1,2.2c1.4,0.6,2.9,1.1,4.4,1.6c1.2,0.3,2.5,0.2,4.1-0.2c-2.1-1.5-3.9-2.8-5.7-4.1
	c-2.2-1.5-4.7-2.1-7.3-2c-0.3,0-0.6-0.1-1.1-0.1c1.4-0.8,2.6-1,4-0.7c0.5,0.1,0.9,0.2,1.4,0.4c1.9,0.8,3.8,0.8,5.8,0.7
	c1,0,1.9-0.2,2.8-1c-0.4-0.4-0.8-0.8-1.3-1.3c1-0.2,1.6,0.2,2,0.8c0.3,0.4,0.2,0.9-0.2,1.1c-0.8,0.4-1.6,0.7-2.5,0.8
	c-0.9,0.1-1.9,0-3.1,0c0.3,0.4,0.5,0.7,0.7,0.8c1.8,1.1,3.8,1.7,6,2c2.7,0.3,5.4,0.6,8.1,0.9c0.9,0.1,1.7,0.2,2.9,0.4
	c-0.4-0.7-0.7-1.1-1-1.5c-1.3-1.7-2.6-3.3-3.4-5.3c-0.3-0.8-0.9-1.3-1.7-1.7c-0.6-0.3-1.2-0.7-1.8-0.8c-1.8-0.5-3.2-1.7-4.4-3.1
	c-1.1-1.3-2.2-2.6-3.3-3.9c-0.5,0.2-0.9,0.4-1.3,0.6c-2.3,1.2-4.6,2.3-6.9,3.5c-0.7,0.4-1.6,0.5-2,1.3c-0.1,0-0.3,0.1-0.4,0.1
	c0,0,0.1,0.1,0.1,0.1c0.1-0.1,0.2-0.1,0.3-0.2c1.5-0.2,3.1-0.4,4.6-0.6c1.5-0.1,3-0.3,4.5-0.2c1.2,0.1,2.4,0.4,3.6,0.8
	c0.6,0.2,1.1,0.6,1.2,1.3c0.1,0.8-0.5,1.2-1.1,1.5c-0.6,0.3-1.2,0.6-1.9,0.7c-3,0.6-6,1.2-9.1,1.1c-1.1,0-2.3,0.1-3.3,0.1
	c-0.1,0.2-0.2,0.3-0.2,0.4c-0.1,2.8-0.9,5.3-2.5,7.6c-0.1,0.1-0.1,0.3-0.1,0.4c-0.8,0.3-1.6,0.5-2.3,0.8c0.4,0.8,0.7,1.5,0.9,2.2
	c0.8,2.4,1.8,4.7,3.4,6.6c0.9,1.1,2,1.8,3.2,2.4c0.6,0.3,1.3,0.4,1.9,0c0-0.2,0.1-0.4,0-0.6c-0.7-1.7-1.4-3.4-2.8-4.7
	c-1-1-1.8-2-2.7-3.1c-0.7-0.8-1.3-1.7-1.9-2.6c-0.3-0.4-0.2-0.8,0.1-1.1c0.4,0.3,0.8,0.6,1.2,1c1.8,2.3,3.7,4.3,5.9,6.2
	c1.3,1.1,2,1.4,3.7,1.8c0-0.3,0.1-0.5,0-0.8c-0.6-2.5-1.9-4.6-4-6.2c-1.4-1.1-2.8-2.2-4.2-3.3c-0.3-0.2-0.4-0.6-0.9-1.2
	c1.4,0.3,2.1,1,2.8,1.6c0.8,0.6,1.5,1.2,2.3,1.7s1.5,1.2,2.3,1.7c0.8,0.5,1.6,1,2.7,1.7c-0.8-0.1-1.2-0.1-1.8-0.1
	c0.7,1.9,1.7,3.6,1.8,5.6c-1.9,0.6-3.1-0.9-4.7-1.3c0.1,0.9,0.6,1.5,0.8,2.3c0.9,2,0.3,2.8-1.9,2.6c-1.9-0.2-3.3-1.1-4.5-2.6
	c-0.9-1.1-1.6-2.3-2.4-3.5c-0.2-0.3-0.3-0.6-0.7-0.8c0,0.7,0,1.3,0,2c0,1.8,0.1,3.7,0,5.5c0,1.1-0.3,2.1-0.5,3.2
	c-0.1,0.6-0.2,0.6-1.1,1.3c-1.9-0.9-2.2-1.4-3.1-5.4c-0.3,0.6-0.5,1-0.6,1.4c-0.5,1.4-1.1,2.6-2.2,3.6c-0.4,0.4-0.9,0.7-1.3,0.9
	c-0.5,0.3-1.2,0-1.3-0.6c-0.1-0.7-0.2-1.5-0.1-2.2c0.1-1.2,0.3-2.4,0.5-3.6c0.1-0.1,0.1-0.2,0.1-0.2c0,0.1-0.1,0.2-0.1,0.3
	c-0.3,0.4-0.6,0.9-0.9,1.3c-0.5,0.7-1.1,1.4-1.6,2.1c-0.3,0.4-0.8,0.8-1.4,0.6c-0.6-0.2-0.6-0.9-0.7-1.4c-0.1-1.4,0.2-2.7,0.6-4
	c0.4-1,0.8-2,1.2-3c0-0.1,0-0.2,0-0.3c0,0.1,0,0.2,0,0.4c-0.6-0.1-0.8,0.4-1,0.8c-1.2,1.4-2.5,2.4-4.2,3c-0.6,0.2-1.3,0.5-1.8-0.2
	c3.2-0.7,5.5-2.5,7.1-5.3c0.8-1.4,1.6-2.8,2.4-4.3c0.3-0.6,0.5-1.3,1.3-1.5c0,0.3,0.1,0.5,0.1,0.8c0.1,0,0.2-0.1,0.2-0.1
	c-0.1-0.2-0.3-0.4-0.4-0.6c-0.8-0.9-1.7-1.7-2.5-2.6C51.5,119.9,50.6,121.1,49.3,121.9L49.3,121.9z M102.1,74.5l-0.4-0.9
	c0-0.2-0.1-0.5-0.1-0.8c-0.1,0-0.2,0.1-0.2,0.1c0.1,0.2,0.3,0.4,0.4,0.6C101.9,73.9,102,74.2,102.1,74.5c0.1,0.1,0.2,0.2,0.2,0.3
	c0,0,0.1-0.1,0-0.1C102.3,74.7,102.2,74.6,102.1,74.5z M51.8,107.4c-0.3-0.1-0.6-0.2-0.8,0.2c-1,0-1.7-0.7-2.6-1.1
	c-2.2-1.2-4.4-2.3-6.7-3.5c-0.5-0.2-1-0.4-1.6-0.4c-0.9-0.1-1.4,0.8-0.8,1.5c1.5,1.8,3,3.7,5.6,3.9c1.1,0.1,2.2,0.5,3.3,0.8
	c0.7,0.2,1.4,0.4,1.8,1.2c-0.8-0.2-1.6-0.3-2.4-0.5c-2.3-0.7-4.7-0.8-7-0.6c-0.7,0.1-1.5,0.1-2,1.1c0.9,0.9,1.7,1.9,3.2,2.1
	c0.4,0.3,0.7,0.7,1.1,0.8c2.2,0.8,4.5,1,6.8,0.6c0,0,0-0.2,0.1-0.4c-0.2-0.1-0.4-0.2-0.6-0.2c-1.7-0.3-3.5-0.6-5.2-0.8
	c-0.7-0.1-1.5,0-2.2,0c0.8-0.6,1.7-0.3,2.6-0.2c1.5,0.1,3,0.3,4.5,0.5c0.3,0,0.7-0.1,1.5-0.3c-1.8-1-3.6-0.5-5.1-1.4
	c1.8-0.4,3.4,0.4,5.2,0.2c-0.2-0.4-0.3-0.7-0.5-0.9c0.3-0.2,0.7-0.3,0.9-0.6c0.3-0.4,0.5-0.9,0.8-1.4
	C51.8,107.8,51.8,107.6,51.8,107.4L51.8,107.4z M135.7,103.1c-0.4,0.1-0.4,0.4-0.4,0.8c-0.1,0.1-0.2,0.1-0.3,0.2
	c0.1,0.1,0.1,0.1,0.2,0.2l0.1-0.4C135.3,103.6,135.5,103.3,135.7,103.1c0.4-0.2,0.4-0.5,0.3-0.9c0.2-0.2,0.3-0.5,0.5-0.7
	c0.1-0.1,0.1-0.3,0-0.1c0-0.2,0,0,0,0.1c-0.5,0-0.5,0.4-0.5,0.7C135.9,102.5,135.8,102.8,135.7,103.1L135.7,103.1z M54.4,123.6
	c-0.2,0.2-0.3,0.5-0.5,0.7c-0.2,0.4-0.3,0.8-0.4,1.1l-0.4,0.9c-0.2,0.4-0.3,0.8-0.4,1.2c-0.1,0.5-0.2,0.9-0.3,1.4
	c-1.5,1.8-2,3.9-2.1,6.1c0,0.3,0.1,0.6,0.2,0.9c1.4-1.1,1.7-1.5,2.4-2.9c1-2.2,1.8-4.4,2.7-6.6c0.4-1,0.7-2.1,1.1-3.1
	c0.1-0.3,0.3-0.5,0.5-0.7c0.2,0.5,0.2,1,0.1,1.5c-0.6,2.4-1.2,4.7-1.7,7.1c-0.5,2-0.9,4-1.3,6c-0.1,0.5-0.2,1.1,0.4,1.4
	c2-1.1,3.2-2.9,3.5-5.2c0.3-3.2,0.5-6.5,0.7-9.7c0-0.4,0-0.9,0-1.4c-1-0.2-1.9-0.5-3-0.7c-1.1,3.1-2,6.2-3.6,9
	c0.1-0.6,0.1-1.1,0.2-1.7c0.1-0.5,0.2-0.9,0.3-1.4c0.6-0.2,0.4-0.7,0.4-1.2c0.1-0.3,0.3-0.6,0.4-0.9c0.2-0.4,0.3-0.8,0.4-1.1
	C54,124.1,54.2,123.8,54.4,123.6c0-0.2,0-0.3,0-0.2C54.4,123.3,54.4,123.5,54.4,123.6L54.4,123.6z M114,128.3c0,0.1,0,0.2,0.1,0.3
	C114.1,128.5,114,128.4,114,128.3c-0.1-0.1-0.2-0.2-0.3-0.3C113.8,128,113.9,128.2,114,128.3L114,128.3z M71.5,105.5
	c0.3-0.1,0.5-0.3,0.8-0.4c3-1.1,5.8-2.4,8.3-4.6c-0.3-0.4-0.4-0.9-0.7-1.1c-0.4-0.2-0.9-0.4-1.3-0.3c-0.7,0.1-1.4,0.4-2.1,0.6
	c-3,1.1-5.7,2.8-8.3,4.6c-0.9,0.6-1.6,1.4-2.1,2.4c0.2,0.3,0.3,0.5,0.4,0.8c0.1,0.2,0.3,0.2,0.4,0.3c1.4-0.3,2.1-1.1,2.6-2.3
	c1.5-0.3,2.7-1.5,4.1-2.1c0.3-0.2,0.6-0.5,0.8-0.8c0.4,0,0.8,0,1.2,0l0,0c-0.6,0.5-1.3,0.9-1.9,1.4c-0.5,0.3-1.2,0.4-1.3,1.1
	C71.9,105.1,71.6,105.1,71.5,105.5c-0.1,0.1-0.2,0.2-0.3,0.2C71.3,105.7,71.4,105.6,71.5,105.5L71.5,105.5z M136.9,121
	c0.3-0.2,0.5-0.3,0.8-0.4c1.5,0,2.4-0.9,3.6-1.8c-1.8,0.4-2.4,0.7-3.6,1.9C137.3,120.6,137,120.5,136.9,121
	c-0.3,0.2-0.6,0.3-0.9,0.4c-1.5,0.3-2.8,1.1-4,2.1c-0.6,0.5-1.4,0.7-1.6,1.6c-0.9,0-1.3,0.7-1.5,1.5l1.4-1.6
	c2.2-0.7,4.1-1.9,5.7-3.7C136.3,121.3,136.6,121.1,136.9,121L136.9,121z M89.9,51.2c0.1,0.3,0.2,0.6,0.4,0.9
	c0.5,1.9,0.7,3.9,1.9,5.6c-0.3,0-0.5,0.1-0.6,0.1c-0.3-0.4-0.7-0.8-1-1.2c-0.8,0.2-1.5,0.4-2.3,0.6c0.6,0.7,1.1,1.3,1.6,1.9
	c0.1,0.1,0.3,0.2,0.5,0.4V58c0.2-0.1,0.2-0.2,0.4-0.2c0.3-0.1,0.5-0.1,0.8-0.2c0.5,0.8,1.1,0.6,1.7,0.2c0-0.7,0-1.2,0-1.8
	c0-1-0.2-2-1-2.7c-0.1-1.3-0.6-2.4-1.6-3.3c-0.1-0.3-0.2-0.6-0.3-0.9l-0.4-0.8c-0.1-0.3-0.3-0.5-0.4-0.8c-0.1-0.1-0.2-0.1-0.2-0.2
	c0.1,0,0.2,0.1,0.3,0.1c0,0.3,0,0.7,0.4,0.8c0,0.4-0.2,0.8,0.4,0.8c-0.1,0.4-0.1,0.7,0.3,0.9c0.2,1.3,0.8,2.3,1.6,3.3
	c0.1,0.8,0.2,1.6,0.3,2.4c-0.6-0.5-0.8-1.1-1.1-1.7c-0.3-0.7-0.4-1.5-1.3-1.8C90.3,51.7,90.3,51.3,89.9,51.2c0-0.3,0-0.7-0.5-0.8
	c0.1-0.4,0-0.7-0.4-0.8c-0.2-0.7-0.4-1.4-0.7-2.1c-0.5-1.2-1-2.5-0.7-3.9c-1.5-0.9-3-1.8-4.9-3c0.4,0.6,0.5,0.8,0.7,1
	c1.7,1.9,3,4,4.2,6.2c0.4,0.6,0.9,1.1,1.3,1.7c-0.1,0.4-0.1,0.7,0.4,0.8C89.4,50.7,89.4,51,89.9,51.2L89.9,51.2z M131.5,100.2
	c-0.4,0.1-0.8,0.3-1.2,0.4c-0.4,0.1-0.9,0-1.1,0.5c-0.1,0-0.2,0-0.6,0.1c0.4-0.1,0.5-0.1,0.6-0.1c0.4-0.2,0.7-0.3,1.1-0.5
	C130.7,100.6,131.2,100.7,131.5,100.2c0.2-0.1,0.5-0.1,0.7-0.1c0-0.1-0.1-0.2-0.1-0.3C131.9,99.9,131.7,100,131.5,100.2L131.5,100.2
	z M104.6,122.6c0.1,0.1,0.1,0.2,0.2,0.2c0.1,0,0.2-0.1,0.2-0.1c-0.1,0-0.1-0.1-0.2-0.1C104.7,122.7,104.6,122.7,104.6,122.6
	c-0.3-0.4-0.8-0.4-1.2-0.4c-0.1-0.1-0.1-0.3-0.2-0.3c-2.4-0.8-4.8-1.9-7.3-2.4c-4.2-0.8-8.6-1.2-12.8-1.7c0.3,0.4,0.7,0.6,1.1,0.7
	c3.4,0.8,6.9,1.6,10.4,2c0.4,0,0.9,0.2,1.2,0c0.7-0.4,1.3,0,1.9,0.2c1.9,0.7,3.8,1.3,5.9,1.5C103.6,122.8,104.1,122.6,104.6,122.6
	L104.6,122.6z M74.3,89.6c-0.1-0.1-0.1-0.2-0.2-0.3c0,0-0.1,0-0.2,0C74.1,89.4,74.2,89.5,74.3,89.6c0.3,0,0.5,0.1,0.7,0.2
	c0-0.1,0-0.2,0.1-0.2C74.8,89.6,74.6,89.6,74.3,89.6z M145,104.2L145,104.2c-0.2-0.4-0.5-0.9-0.8-1.4c-0.1-0.1-0.1-0.2-0.2-0.2
	c-0.2-0.3-0.4-0.6-0.6-0.8c-0.1,0-0.3,0-0.4-0.1c-0.1-0.3-0.2-0.6-0.3-0.8c-0.2-0.7-0.2-0.7-1.4-0.5c0.8,3,2.4,5.4,4.6,7.5
	c0,0.2-0.1,0.5-0.1,0.8c-2.4-1.9-4-4.7-5.5-9.3c1.2-0.2,2.4-0.4,3.6-0.6c1.1-0.2,1.8-0.9,2.1-2c0.4-1.8-0.7-4.7-2.4-5.9
	c-0.5-0.4-1.1-0.6-1.5-1c-1-0.8-2.2-1-3.4-1.1c-1.5-0.1-2.8,0.3-4.1,0.9c-1.9,0.8-2.7,2.4-2.2,4.4c0.1,0.6,0.3,1.2,0.6,1.7
	c0.2,0.4,0.5,0.9,1.2,0.9c-0.1-0.8-0.2-1.6-0.4-2.3l0,0c0.3,0.3,0.6,0.7,0.8,1.1c0.3,0.6,0.6,1.2,0.9,1.8l0-0.1
	c0,0.4-0.1,0.8-0.1,1.3c-0.4-0.1-0.6-0.1-0.8-0.2c-1-0.8-2-0.7-3-0.3c-1.3,0.6-2.6,1.1-3.9,1.7c-0.9,0.4-1.7,0.9-2.2,1.8
	c-0.1,0.2-0.1,0.6-0.2,0.9c0.8,0,1.3-0.2,1.7-0.8c0.2-0.3,0.4-0.7,0.8-0.8c1.8-0.7,3.6-1.3,5.3-1.9c0.4-0.2,0.9-0.1,1.2,0.4
	c-0.1,0.1-0.2,0.1-0.3,0.2c0.1-0.1,0.2-0.2,0.3-0.2c0.4-0.1,0.7-0.3,1.1-0.4c0.1,0.7-0.1,1.6-0.7,2.5c0-0.1-0.1-0.2-0.1-0.3
	c-0.1,0.1-0.2,0.2-0.3,0.3c-1.4,1.3-2.1,3.1-2.8,4.9c-0.2,0.5-0.5,1.1,0,1.8c1.9,0.1,2.2-1.7,3.1-2.6c0-0.6-0.6-1-0.2-1.6
	c0.9-1.6,1.7-3.2,2.5-4.8c0.3,0.1,0.4,0.2,0.6,0.3c0,0.1-0.1,0.2-0.1,0.3c0-0.1,0.1-0.2,0.1-0.4c0.6,0.1,1,0.3,0.8,1.1
	c-0.9,2.9-2.7,5.3-4.5,7.7c-0.5,0.7-1.4,0.9-2.2,0.9c-0.6,0-1.1-0.4-1.1-1c0-0.5,0-1,0.1-1.4c0.5-1.3,1-2.5,1.6-3.7
	c0.3-0.6,0.6-1.1,1.1-1.9c-0.5,0.1-0.8,0-1,0.1c-1.9,0.7-3.9,1.3-5.8,2c-1.4,0.5-1.5,0.5-2.4-0.9c-0.1-0.1-0.2-0.2-0.2-0.3
	c-0.9,0.7-1.8,1.3-2.8,2c-0.5,0.3-0.8,0.8-0.7,1.4c0.2,1.6,0.5,3.1,0.7,4.8c0.9-0.7,1.8-1.4,2.8-2.1c2.1-1.5,4.3-2.9,5.8-5.1
	c0.1-0.1,0.2-0.1,0.4-0.1c0.1,0.2,0.1,0.4,0.2,0.6c-0.2,0.2-0.4,0.4-0.6,0.6l0.2,0.1c0.1-0.3,0.2-0.5,0.3-0.8c0.3-0.1,0.7-0.1,1-0.2
	c-1.4,2.1-3,3.8-4.8,5.4c-2.4,2.2-5.1,4.1-7.8,5.9c-2.4,1.6-3.7,4-4.2,6.7c-0.1,0.4,0,0.9,0,1.5c1.2-1.5,1-3.4,2.3-4.6
	c-0.4,2.6-1.9,5-0.7,7.7c0.8-1.6,1.6-3.1,2.3-4.6c0.7-1.5,1.9-2.8,2-4.6c0-0.2,0.3-0.3,0.6-0.6c0.2,0.4,0.3,0.6,0.3,0.9
	c0.3,3.4,0.9,6.9,0.8,10.4c0,0.6-0.2,1.4,0.4,1.9c1.2-0.2,2-1.2,3.3-1.3c-0.5,0.8-1.1,1.1-1.7,1.4c-0.5,0.3-1.2,0.7-1.4,1.2
	c-0.3,1.1-1.1,2-1.4,3.1c-0.6,1.9-1.2,3.8-1.7,5.7c-0.2,0.6-0.2,1.1-0.4,2c1-1.2,1.2-2.3,1.5-3.4c0.4-1.3,0.8-2.6,1.4-3.8
	c0.6-1.5,1.7-2.7,3-3.9c-0.1,1.7-0.7,3.1-1.7,4.4c-0.7,0.9-1.1,2-1.5,3.1c-0.4,1.1-0.8,2.2-1.2,3.2c-1,2.3-1.8,4.7-2.1,7.2
	c-0.1,0.8-0.5,1.5-0.7,2.3c-0.2,0.9-0.4,1.7-0.4,2.6c-0.1,2.4,0,4.8,0,7.2c0.7-1,1.2-2.1,1.6-3.3c1.4-4,2.9-7.9,4.3-11.9
	c1.8-5.2,3.2-10.5,3.3-16.1c0-1.8-0.1-3.2-1.1-4.7c-0.8-1.3-1.5-2.7-2.4-4c-0.4-0.6-0.7-1.3-0.9-2c-0.1-0.4,0.2-0.8,0.3-1.3
	c0.7,0.2,1.2,0.4,1.8,0.6c-0.2-0.8-0.7-1.4-0.3-2.2c0.3-0.7,0-1.6,0.8-2.3c0.4,0.9,0.7,1.6,1,2.2c0.9-0.1,1.2-0.7,1.5-1.3
	c0.3-0.7,0.5-1.4,1.4-1.7c0.4,0.5,0.7,1.3,1.1,1.3c1.6,0.2,1.4,1.3,1.3,2.3c-0.1,1.4-0.6,2.6-1.3,3.8c-0.5,0.9-0.9,1.8-0.8,2.9
	c0.1,0.6-0.1,1.2-0.7,1.6c-0.1,0.1-0.3,0.1-0.6,0.1c0.1-0.5,0.2-0.9,0.3-1.2c-0.5-0.4-0.9-0.8-1.4-1.3c-0.3,0.7-0.6,1.3-0.3,2
	c0.3,0.6,0.6,1,1.3,1.2c0.3,0.1,0.5,0.6,0.8,0.9c0.8-0.7,1.5-1.4,2.3-2c0.9-0.7,1.9-1.4,2.8-2c0.5-0.3,1.1-0.7,1.2-1.3
	c0.4-1.5,1.7-2.8,1.5-4.4c-0.3-2.2,0.3-4.3,0.2-6.5c0-0.2,0.3-0.5,0.6-1c0.6,2.1,0.1,4,0.2,6.1c0.9-1.4,1.5-2.6,2.3-3.7
	c0.9-1.1,2-1.9,3.1-2.9c-0.3-0.4-0.5-0.7-0.7-1.1c-0.5-0.7-1-1.3-1.4-2c-1.1-1.6-1.4-3.2-0.8-4.9c0.2,0.8,0.2,1.3,0.4,1.9
	c0.3,0.8,0.5,1.8,1,2.4c1.4,1.9,2.8,3.7,4.3,5.4c0.7,0.9,1.7,1.3,2.8,1.6c0.6,0.1,1.1-0.5,0.9-1c-0.5-1.1-1-2.2-1.5-3.3
	c-0.2-0.3-0.6-0.5-0.8-0.8l0.1,0.1c-0.1-0.3-0.3-0.7-0.4-1c-0.1-0.1-0.1-0.1-0.2-0.2C145.5,104.8,145.2,104.5,145,104.2L145,104.2z
	 M118,59.3c0.1-0.7,0.3-1.4,0.4-2c0.2-0.8,0.5-1.5,0.8-2.3c0.2-0.8-0.3-1-1-1.1c-1.2,2.3-3.2,8.4-3.3,10.2c0,0.3,0.1,0.6,0.2,1
	c1.3-0.9,1.8-1.8,2.5-4.5C118.2,60.3,118,59.8,118,59.3L118,59.3z M139.8,112.1c-0.9,0.3-1.1,1-1,1.8
	C139.1,113.3,139.4,112.7,139.8,112.1c0-0.1,0.1-0.2,0.2-0.3c0,0-0.1-0.1-0.1-0.1C139.9,111.8,139.8,112,139.8,112.1L139.8,112.1z
	 M119.6,110.3c0.7-1.7,0.7-2.4-0.2-4.2C119.5,107.5,119.6,108.9,119.6,110.3c0,0.1,0,0.2-0.1,0.4
	C119.6,110.6,119.6,110.4,119.6,110.3z M120,155.6c0.1,0,0.3,0,0.4-0.1c0.8-1,1.4-2.9,1.3-4.4C121.1,152.6,120.6,154.1,120,155.6
	c0,0.1,0,0.2,0,0.2c0,0.1,0,0.1,0,0.1C120,155.8,120,155.7,120,155.6L120,155.6z M94.6,65.2c0.6,0.2,1.2,0.4,1.8,0.7
	c0.1,0.2,0.2,0.5,0.4,0.9c-0.7-0.2-1.1-0.3-1.5-0.5c-1.7-0.8-3.4-1.6-5-2.6c-0.7-0.4-1.5-1-1.5-2.1c0.5-0.2,0.9-0.4,1.4-0.7
	c0.2,0.1,0.4,0.3,0.7,0.4c0.1,0,0.3-0.1,0.4-0.1c0-0.1,0-0.1,0-0.2c-0.4,0-0.8,0-1.1,0c-0.8-1-1.5-2-2.3-3.1c-0.4-0.6-0.9-1-1.1-1.9
	c-0.1-0.7-0.7-1.4-1.6-1.5c0-0.2-0.1-0.3-0.1-0.4c0,0-0.1,0.1-0.1,0.1c0.1,0.1,0.1,0.2,0.2,0.3c0.1,0.3,0.1,0.5,0.2,0.8
	c0.4,0.9,0.8,1.9,1.1,2.8c-0.7,1.3,0.6,1.7,1.2,2.3c0.1,0.1,0.1,0.3,0.3,0.7c-0.8-0.3-1.3-0.5-1.9-0.8c-0.5,1.3,0,2.6,0.7,3.4
	c0.8,0.8,1.2,1.8,1.7,2.7c1.1,2,2.2,4.1,3.3,6.1c0.2,0.3,0.5,0.6,0.7,0.8c0-1-0.2-1.9-0.4-2.8c-0.2-1.2-0.6-2.4-0.3-3.6
	c0.1-0.3,0.2-0.7,0.8-0.5c-0.2,2.8,0.8,5.4,1.4,8.1c0.5,2.2,1.9,3.7,3.3,5.4c-0.5-2.6-1-5.1-1.5-7.5c-0.2-0.7-0.2-1.5,0.4-2.2
	c1.2,1.4,0.7,3.2,1.6,4.6c0.6-1.4-0.2-2.9,0.4-4.2c0.1,0.1,1.4,1.2,1.5,1.3c-1.2,3.7-1.1,7.5,0.1,11.5c0.3-0.6,0.5-0.8,0.6-1.1
	c0.4-1.2,0.8-2.4,1.2-3.7c0.2-0.5,0.3-0.9,0.8-1.1c0,0.5,0,1-0.1,1.4c-0.5,2.4-1.2,4.9-1.2,7.4c0,0.2-0.1,0.4-0.1,0.6
	c-0.2,1.4-0.5,2.8-0.6,4.2c-0.1,1.4-0.5,2.7-1.1,3.9c-0.4,0.8-0.7,1.6-1,2.4c-0.2,0.7-0.1,1.4,0.3,2.1c1,1.5,1.9,3.2,2.8,4.7
	c0.1,0.2,0.4,0.4,0.6,0.6c0.3-3.2,0.7-6.3,0.9-9.4c0.3-3.7,0.8-7.3,0.5-11c-0.1-0.8,0-1.6,0.1-2.4c0.1-0.4,0.4-0.8,0.7-1.3
	c-0.6-1-1.2-2.1-1.9-3.2c0-0.2,0-0.4-0.1-0.6c-1.3-2.3-2.2-4.8-2.9-7.3c-0.3-1.5-1.3-2.5-2.2-3.6c-0.2-0.2-0.6-0.2-0.9-0.3
	C96.1,64.9,95.4,65,94.6,65.2c-0.8-1.8-2.5-2.2-4.1-2.8C91.7,63.7,93.3,64.3,94.6,65.2L94.6,65.2z M113.5,118.9
	c0.7-0.2,0.8-0.9,1.1-1.4c0.9-1.6,1.9-3,3.5-3.8c0.3-0.2,0.5-0.6,0.8-0.9c0.6-0.2,1.3-0.4,1.8-0.8c2-1.6,4-3.2,6-4.8
	c0.1-0.1,0-0.2,0-0.5c-1,0.7-2,1.3-2.8,2c-1.7,1.3-3.3,2.7-4.9,4.1c-2.6,0.9-4.2,2.8-5.3,5.3C113.5,118.4,113.6,118.7,113.5,118.9
	c-0.8,1.7-0.8,3.7-1.1,5.5c0,0.3,0.2,0.7,0.5,1.2c0.2-1.9,0.3-3.4,0.5-4.9C113.4,120.1,113.5,119.5,113.5,118.9L113.5,118.9z
	 M100.5,61c0.6-1.3,1-2.7,1.2-4.3c-0.5,0-1-0.1-1.4-0.1C99.9,58.2,100.5,59.6,100.5,61c-0.4-0.2-0.9-0.5-0.9-1.2
	c-0.1-0.8-0.2-1.6-0.4-2.3c-0.4,1.8-0.2,3.6,0.3,4.5c0.1,0.2,0.4,0.3,0.8,0.5C100.4,61.9,100.4,61.4,100.5,61L100.5,61z M100.2,88.5
	c-0.3,0.3-0.5,0.6-0.8,0.9c-0.1-0.3-0.2-0.6-0.4-1.2c-0.2,2.6-0.4,4.8-0.6,7.3c1.2-1.6,1.5-2.3,1.6-4
	C100.1,90.4,100.1,89.4,100.2,88.5c0-0.4,0.1-0.7,0.2-1.1c-0.1,0-0.1,0-0.2,0L100.2,88.5L100.2,88.5z M95.7,116
	c0,0.1,0.1,0.3,0.1,0.4C95.8,116.3,95.7,116.1,95.7,116c-0.8-1.2-1-2.7-2.1-3.9c-1.1-1.1-1.7-2.6-2.6-3.9c-1.6-2.4-1.7-2.6-2.9-3.2
	c0.5,0.8,0.8,1.4,1.2,2c1.2,2,2.5,4.1,3.7,6.1c0.5,0.9,1.1,1.7,1.8,2.5C95.1,115.8,95.4,115.8,95.7,116L95.7,116z M90.2,25
	c-3.9-0.1-8.8,1.7-10.9,4.1c0.7,0.5,0.7,0.5,0.9,0.3c1.4-1.2,3.1-1.6,4.8-2.2c1.6-0.6,3.2-1.2,4.8-1.8C90,25.3,90.1,25.1,90.2,25
	l1.1,0c0-0.1,0-0.2,0-0.3C90.9,24.8,90.6,24.9,90.2,25L90.2,25z M129.9,90.8c0.1,0.2,0.2,0.5,0.5,0.1
	C130.2,90.9,130,90.8,129.9,90.8c-0.2-0.2-0.4-0.5-0.7-0.7c-2.7-1.3-5.3-2.7-8.1-3.9c-0.7-0.3-1.5-0.7-2.4-0.6
	c0.5,1.1,1.4,1.5,2.2,1.8c2.1,0.9,4.2,1.7,6.2,2.5C128.1,90.3,129,90.5,129.9,90.8L129.9,90.8z M90.5,79.1c0-0.2,0.1-0.3,0-0.2
	C90.5,78.8,90.5,78.9,90.5,79.1c3,5.4,4.9,11.2,6.5,17.1c0-1.1-0.2-2.2-0.3-3.2c-0.6-4.9-2.9-9.2-5.3-13.4
	C91.3,79.3,91,78.9,90.5,79.1L90.5,79.1z M88.7,75.2c0.1,0.2,0.1,0.3,0.1,0.5c0.1,0,0.1-0.1,0.2-0.1C88.8,75.5,88.7,75.4,88.7,75.2
	c-0.1-0.3-0.1-0.6-0.2-0.9c-1.2-3.6-2.4-7.2-2.9-11c-0.1-0.5-0.2-0.9-0.3-1.4c-0.5,0.1-1,0.2-1.4,0.4c0.1,0.3,0.1,0.5,0.1,0.7
	c0.6,1.9,1.2,3.9,1.8,5.8c0.2,0.7,0.3,1.5,0.6,2.2C86.8,72.5,87.2,74.2,88.7,75.2z M87.4,90.4c0.1,0.2,0.2,0.5,0.5,0.2
	C87.7,90.5,87.6,90.4,87.4,90.4c-0.3-0.2-0.5-0.6-0.8-0.8c-1.5-0.8-3.1-1.6-4.7-2.4c-3.5-1.9-7.3-2.9-11.2-3.4
	c-0.4-0.1-0.8-0.2-1.2-0.3c0,0.1,0,0.2,0,0.3c0.4,0,0.9-0.1,1.3-0.1c0.2,0.2,0.3,0.4,0.6,0.5c2.2,0.8,4.3,1.6,6.5,2.4
	c1.8,0.7,3.5,1.4,5.3,2.1C84.5,89.3,86,89.8,87.4,90.4L87.4,90.4z M126.6,54.9c-0.1-0.1-0.1-0.3-0.1-0.4c0,0-0.1,0.1-0.1,0.1
	C126.5,54.7,126.5,54.8,126.6,54.9c0.4,1.3,0.8,2.7,1.1,4.1c0.1,0.5,0.5,1,0.2,1.8c-0.4-0.5-0.7-0.9-0.9-1.3
	c-0.1-0.1-0.1-0.2-0.2-0.3l0.2,0.3v1.4c-1.5-2-1.2-4.7-2.6-6.7c-0.5,0.1-0.9,0.2-1.3,0.2c1,2.4,1.9,4.6,2.9,6.8c0.5,1,1.3,1.9,2,2.7
	c0.2,0.2,0.7,0.2,1,0.4c0.5-0.9,0.5-1.8,0.2-2.5c-0.6-2-1.3-4-2-5.9C127.3,55.4,126.9,55.2,126.6,54.9L126.6,54.9z M118.5,91.3
	L118.5,91.3c0,0.6-0.1,1.2-0.1,1.8c0,0.6-0.2,1.3,0.2,2c1.1-0.9,0.8-2.3,1.5-3.2c0.7-0.9,1.3-1.9,1.9-2.9c-1.3-0.8-2.6-1.5-3.9-2.2
	c-0.1,0.2-0.3,0.3-0.3,0.5c-0.5,3.2-1.1,6.4-1.6,9.6c-0.1,0.9,0.4,1.6,1.3,2.2c-0.1-0.8-0.2-1.4-0.2-2.1c-0.2-1.6-0.1-3.2,0.5-4.8
	C118,91.8,118.3,91.6,118.5,91.3L118.5,91.3z M106.5,51.9c-0.9,0.1-1.8,0.2-2.6,0.4c-2.3,0.3-4.6,0.7-6.9,1c-0.5,0.1-1.1,0.1-1.6,0
	c-0.3-0.1-0.8-0.4-0.9-0.7c-0.3-0.5,0.1-0.9,0.5-1.2c0.6-0.4,1.2-0.7,1.8-1c-0.3-1.5-0.6-2.8-0.9-4.3c-0.7-0.1-1.3-0.2-2.1-0.3
	c0.2,1.7,1.7,2.8,1.6,4.8c-1.3-1-1.2-2.6-2.5-3.6c0.2,1.2,0.2,2.2,0.4,3.1c0.5,2.2,1.1,4.5,1.6,6.7c0,0,0.1,0.1,0.2,0.1
	c0.1,0,0.1,0,0.2,0c0.4-0.6-0.1-1.5,0.9-2c0.9,0.8,0.7,2.2,1.7,3c0.1-0.4,0.3-0.7,0.3-1c0-1.6,1-2.4,2.4-2.8c1.7-0.5,3.4-1,5.1-1.5
	C106,52.3,106.2,52,106.5,51.9c0.5,0,1,0.3,1.7-0.4C107.5,51.7,107,51.8,106.5,51.9L106.5,51.9z M114.8,49.9
	c0.1,0.1,0.1,0.3,0.2,0.4c0,0,0.1-0.1,0-0.2C114.9,50.1,114.8,50,114.8,49.9c0.3-0.8,0.9-0.4,1.5-0.4c1.2,1.2,1.6,3.1,3.4,4
	c-0.1-1.5-1.6-2.3-1.5-4c0.9,1.1,1.6,2,2.2,2.8c0.1,0.2,0.3,0.4,0.4,0.7c0.1-0.1,0.1-0.1,0.2-0.2c-0.2-0.1-0.4-0.3-0.7-0.4
	c0.1-0.4,0.2-0.8,0.2-1.1c0.6,0.1,1.2,0.1,1.8,0.3c0.6,0.3,1.1,0.7,1.8,1.2c0.8-0.3,1.8-0.5,2.6-0.9c1.9-0.9,2.2-1.9,1.3-3.8
	c-0.1-0.2-0.2-0.4-0.3-0.5c-1.3-1.5-2.4-3.2-4.5-3.6c-0.4-0.1-0.8-0.3-1.1-0.4c-1.7-0.7-3.4-0.4-4.9,0.3c-2.3,1-3.8,2.9-5.3,5.1
	c0.6,0.4,1.1,0.8,1.7,1.2c0-0.7,0.1-1.1,0.1-1.7C114.2,49.1,114.5,49.5,114.8,49.9L114.8,49.9z M116.9,53.6
	c-0.9-1.3-1.2-1.5-2.2-0.9c-2.2,1.1-4.5,2.2-6.7,3.4c-0.8,0.4-1.5,0.9-2.2,1.4c-0.4,0.3-0.8,0.8-0.4,1.4c0.6,0.2,1.2,0.1,1.7-0.2
	C110.3,56.9,113.6,55.2,116.9,53.6c0.1,0.9-0.6,1.4-1.3,1.8c-2.8,1.4-5.5,2.9-8.3,4.3c-0.5,0.3-1.2,0.4-1.8,0.4
	c-0.9,0-1.5-0.7-1.4-1.6c0.1-0.5,0.4-1,0.6-1.5c0.2-0.3,0.4-0.6,0.6-1c0.1,0,0.2,0,0.3,0c-0.1,0-0.2,0-0.3,0.1
	c-0.8,0.2-1.6,0.4-2.2,0.5c-0.4,1.4-0.5,2.7-1,3.7c-0.8,1.4-1.1,2.9-1,4.5c0.1,1-0.1,1.9-0.7,2.6c0.3,0.8,0.5,1.5,0.8,2.2
	c0.1,0.3,0.2,0.7,0.4,0.9c1.4,1.4,2.8,2.9,4.3,4.3c0.2,0.2,0.5,0.3,1.2,0.7c-0.9-1.5-1.7-2.5-2.2-3.6c-0.5-1.1-1.8-1.8-1.5-3.5
	c1.9,2,2.5,4.6,4.3,6.3c0.7-0.9-0.1-2.1,0.7-3c0.4,0.9,0.8,1.7,1.2,2.6c0.9-0.9,1.1-1.8,1-2.7c-0.1-1.8-0.4-3.7-1.6-5.2
	c-0.2-0.2-0.2-0.6-0.3-1.1c1.8,1,1.9,2.8,2.7,4.2c0.7-1.4-0.6-2.5,0-3.7c1.4,0.2,1.7,0.5,1.5,1.8c-0.4,2.1-0.4,4.3-1.7,6.2
	c-0.7,1-1,2.2-0.8,3.5c0.7,0.6,1.4,1.1,2.2,1.7c0.3-1.4,0.5-2.7,0.8-4.1c0.2,0.3,0.3,0.5,0.3,0.6c0.1,3.1,0.3,6.1,0.3,9.2
	c0,2.2-0.3,4.3-0.4,6.5c-0.1,1.1,0,2.2-0.7,3.1c-0.3,0.4-0.2,0.8,0.3,1.3c0.2-0.4,0.3-0.7,0.3-0.9c1-4,1.5-8,1.7-12.1
	c0.1-1.7,0.3-3.4,0.6-5.1c0.9-3.9,1.8-7.8,2.8-11.7c0.3-1.2,0.2-2.1-0.6-3.1c-0.3,0.6-0.6,1.1-0.9,1.6c-0.3,0.4-0.6,0.9-1,1.3
	c-0.9,0.8-1.8,0.5-2-0.7c-0.1-0.5-0.1-1,0.1-1.4c0.5-1.8,1-3.7,1.6-5.5c0.3-1.1,0.8-2.2,1.2-3.3C117,54.4,116.9,53.9,116.9,53.6
	L116.9,53.6z M42.6,95.6c0.3,0.6,0.5,0.9,0.7,1.2c2,2.4,3.9,4.9,6,7.2c0.7,0.8,1.4,1.4,2.2,2.1c0.5,0.4,1.1,0.8,1.5,1.2
	c-0.1,0.7-0.1,1.4-0.2,2.1c-0.9,0.5-1,0.7-1.2,1.5c-0.1,0.4-0.1,0.8-0.2,1.2c-0.2,3.6,2.4,7.5,5.8,8.8c2.5,0.9,4.8,0.4,7-0.9
	c0.6-0.3,1.1-0.9,1.3-1.5c0.9-1.8,1.5-3.8,1.3-5.9c-0.3-3.2-1.7-5.7-4.8-6.9c-2.3-0.9-4.5-0.5-6.7,0.6c-0.5,0.3-0.9,0.9-1.4,0.7
	c-0.4-0.8-0.7-1.5-1.1-2c-1.4-1.9-2.8-3.7-4.2-5.5c-0.9-1-1.9-1.9-2.9-2.8C45,96.1,44.1,95.5,42.6,95.6L42.6,95.6z M73.2,44
	c0.4,0,0.8-0.1,1.1,0c0.9,0.2,1.6-0.1,2.2-0.7c1.1-1.2,2.2-2.4,3.2-3.7c0.7-0.8,1.2-1.8,1.6-2.8c1-2.5,0.4-4.5-1.6-6.2
	c-0.4-0.4-0.8-0.7-1.3-1c-2.6-1.8-6.2-2-8.8-0.2c-0.7,0.5-1.4,1.1-2,1.7c-1.8,1.8-2.5,3.9-2.2,6.2c0.5,0.3,0.9,0.5,1,0.7
	c0.2,0.6,0.1,1.2,0.2,1.8c0.1,0.3,0.3,0.7,0.4,1c0.2-0.8,0.2-1.5,0.2-2.2c0-0.1,0.2-0.2,0.3-0.3c0.2,0.3,0.4,0.6,0.5,0.8
	c0.2-0.1,0.3-0.2,0.4-0.3c0.8,1.2,0.4,2.6,1,3.8c0-0.8,0.1-1.6,0.4-2.3c0.3,1,0.6,1.9,0.9,3c0.2-0.7,0.2-1.2,0.4-2.1
	c0.3,1,0.5,1.6,0.7,2.1C73.1,42.7,72.9,43.7,73.2,44z M69.5,102.3c0.9-0.5,1.5-0.9,2.2-1.2c2-0.9,3.9-1.9,6-2.6
	c2.5-0.8,3.7,0.4,3.4,3c1.3,1.2,4.6,3.2,6.1,3.7c-1-1.8-2-3.5-2.8-5.2c-0.6-1.3-0.9-2.7-1.3-4.1c-0.2-0.6,0.1-1,0.9-1.4
	c1.3,3,2.5,5.9,4.6,8.6c0.1-0.4,0.1-0.6,0.1-0.8c-0.3-2.2-0.7-4.3-1.1-6.4c-0.2-1-0.4-2,0.2-3.1c-1.9-1.2-3.5-3-6-3.3v0.8
	c-1,0.1-2,0.2-3,0.4c-0.3,0.1-0.8,0.4-0.9,0.7c-0.3,0.7-0.6,1.5-0.5,2.1c0.2,1.5-0.5,2.6-1.1,3.8c-0.1,0.1-0.3,0.2-0.6,0.3
	c0-1.2,1.1-2,0.8-3.3c-1.2,0.6-2.2,1-3.2,1.6c-0.5,0.3-1,0.9-1.3,1.5C71.1,99,70.4,100.5,69.5,102.3L69.5,102.3z M81.1,40.3
	c-1.1,1-2.1,2-3.1,2.9c-0.7,0.7-0.8,1.5-0.6,2.4c0.7,2.5,1.2,5,2,7.5c0.8,2.5,1.8,5,3.5,7.1c0.4,0.5,0.8,1,1.5,0.8
	c0.8-0.2,0.7-0.9,0.8-1.5c0-0.1,0-0.3,0-0.4c-0.2-1.3-0.2-2.7-0.8-4c-1-2-1.9-4.1-2.9-6.1c-0.6-1.2-1.3-2.4-1.9-3.6
	c-0.3-0.6-0.5-1.2,0-2c0.8,0.7,1.1,1.6,1.4,2.4c1.4,3.1,3.6,5.8,5.6,8.5c0.5,0.7,1.3,1.2,2,1.6c0.5,0.3,1.2-0.1,1.2-0.7
	c0-0.7-0.1-1.5-0.3-2.2c-0.4-1-0.9-2-1.4-2.9C86.1,46.6,83.8,43.2,81.1,40.3L81.1,40.3z M94.4,106.6c-0.1,1-0.2,1.9-0.3,2.8
	c0,0.7-0.1,1.6,0.2,2.2c1,2.2,2.1,4.2,3.2,6.4c0.5,1,1.3,1.6,2.2,1.9c1.8,0.7,3.6,1.3,5.4,1.9c0.2,0.1,0.4,0,0.7-0.1
	c-0.3-0.7-0.6-1.3-0.8-1.9c-1.8-3.7-3.6-7.5-5.3-11.2c-0.9-1.9-2-3.7-3.4-5.3c-0.5-0.6-0.9-1.3-1.3-2c-0.4-0.9-0.9-1.8-1.8-2.5
	c-0.1,1.4-0.3,2.6-0.3,3.9c0,1.3-0.1,2.6,0.3,3.8C93.7,106.5,93.9,106.5,94.4,106.6L94.4,106.6z M108.1,88c-0.4,0.8-0.5,1-0.7,1.3
	c-0.8,1.8-1,3.7-1.2,5.6c-0.2,1.7-0.6,3.3-1.6,4.8c-0.3,0.4-0.4,1-0.5,1.5c-0.2,1.6-0.3,3.1-0.4,4.7c-0.2,2.1,0.6,4.4,2.2,6.3
	c0.6-1.3,1.1-2.6,1.9-3.8c1.4-2,2.4-4.3,3.5-6.5c0.6-1.2,0.7-2.3,0.4-3.6c-0.6-2-1.1-4.1-1.7-6.1C109.6,91,108.9,89.7,108.1,88
	L108.1,88z M78.2,53l-0.3,0.1c0.1,1.7,0.2,3.4,0.4,5c0.2,2.1,0.4,4.2-0.1,6.3c-0.1,0.6-0.3,1.2-0.6,1.7c-0.3,0.4-1,0.6-1.5,0.8
	c0.6,1,1.2,2,1.8,3c1.3,2,2.8,3.8,4.8,5.2c1.9,1.4,3.7,2.9,5.6,4.4c0.2,0.2,0.5,0.3,0.7,0.5c-0.1-0.8-0.4-1.3-0.8-1.9
	c-2.2-3.7-3.8-7.6-4.5-11.9c-0.1-0.5-0.2-0.9-0.4-1.4c-1-2.3-1.8-4.8-3-7.1C79.4,56.3,78.9,54.6,78.2,53L78.2,53z M113.7,105
	c-2,3.8-4.6,7.1-5.8,11.2c0.8,2.1,2.8,5.7,3.8,6.8c0.2-0.9,0.4-1.6,0.5-2.4c0.4-2.9,1.8-5.2,4.1-7.1c0.7-0.6,1.4-1,1.9-1.4
	c1-2.3,0.4-4.4-0.1-6.6C116.7,105.3,115.2,105.2,113.7,105z M53.3,53.9c1.1-0.3,1.8-1,2.5-1.6c3.1-2.4,6.1-4.8,9.2-7.1
	c0.4-0.3,0.8-0.5,1.2-0.8c0.6-0.3,1-0.1,1.4,0.4c-1.5,2-3,4-4.5,6c-1.4,1.8-2.4,3.9-3.3,6.1c-0.2,0.5-0.3,1-0.4,1.7
	c0.6-0.1,1,0,1.3-0.2c2.2-1.4,4-3.1,5.3-5.2c1.2-2,2.4-4,3.6-6c0.5-0.8,1.2-1.6,1.3-2.5c-1.8-1.1-3.3-2.2-4.9-3.2
	c-0.4,0.1-0.7,0.2-1,0.3c-2.5,1.3-4.9,2.7-6.9,4.7c-1.6,1.6-2.9,3.4-4.3,5.1C53.3,52.2,52.8,52.9,53.3,53.9L53.3,53.9z M81.5,39.4
	c0.7,0.2,1.3,0.3,1.8,0.6c4,3.1,8.7,4.6,13.6,5.5c0.5,0.1,0.9,0.1,1.4,0.1c0.8,0,1.6,0,1.9-0.8c0.3-0.8-0.2-1.6-0.8-2.2
	c-0.2-0.2-0.6-0.4-0.9-0.5c-1-0.4-2-0.9-3-1.2c-2.8-0.8-5.6-1.5-8.5-2.2C86.1,38.5,85,38.2,84,38C82.5,37.7,82.2,38,81.5,39.4
	L81.5,39.4z M119.2,120.9c-0.5,1.2-0.9,2-1.2,2.8c-0.4,1.1-0.7,2.2-1.3,3.2c-1,1.4-1.1,2.9-1,4.5c0.2,2,0.4,4,0.8,6
	c0.4,1.9,0.7,3.9,0.7,5.9c0,0.8,0.1,1.6,0.1,2.5c0.3-0.3,0.3-0.5,0.3-0.8c0.2-3.1,0.9-6.1,1.9-9.1C121,131,121.1,126.2,119.2,120.9
	L119.2,120.9z M82.6,36.9c0.8,0.1,1.6,0.1,2.3,0.2c1.2,0.3,2.4,0.6,3.5,1c3,1.1,6.2,1,9.3,1.2c1.4,0.1,2.6-0.6,3.6-1.6
	c0.9-1,0.4-2.4-0.7-2.5c-0.7,0-1.3-0.2-2-0.2c-4.1,0.2-8.3,0.5-12.4,0.8c-1,0.1-2,0.3-3,0.5C82.9,36.3,82.8,36.6,82.6,36.9
	L82.6,36.9z M97.6,91.9c0.4-2.1,0.9-4.1,1-6.2c0.2-2-0.2-3.9-2.1-5.2c-0.8-0.5-1.3-1.3-1.9-2.1c-1.9-2.7-3.7-5.3-5.6-8
	c-0.3-0.5-0.7-0.9-1.2-1.6c0.7,3.5,1.5,5.8,3.1,8.4c0.7,1,1.4,2,1.9,3.1C95,84,96.6,87.8,97.6,91.9L97.6,91.9z M76.8,65.7
	c0.9-2.1,1-3.3,0.8-6c-0.3-4.5-0.6-9.1-0.9-13.6c0-0.4-0.2-0.9-0.3-1.4c-0.9,0.3-1.7,0.5-2.4,0.7c-0.5,2.4-0.9,4.6-0.8,7
	c0.2,3.7,1,7.4,2,11c0.2,0.6,0.4,1.1,0.7,1.7C76.1,65.2,76.4,65.3,76.8,65.7L76.8,65.7z M124.6,78.2c0.6,2.3,5.1,7.9,8.7,10.9
	c1-0.3,2-0.7,3-1.1c-0.7-2.6-1.3-5.1-2.1-7.6c-0.4-1.4-1.1-2.8-1.6-4.2c-0.1-0.3-0.5-0.6-0.9-1c-0.4,1.8,0,3.2,0.3,4.7
	c0.3,1.4,0.8,2.7,1.1,4.1c0.3,1.4,1.2,2.7,1.2,4.3c-1-0.1-1.1-0.9-1.4-1.5C131.4,83.5,128.2,80.1,124.6,78.2L124.6,78.2z
	 M58.5,104.1c0.7,0.2,1.1,0.1,1.1-0.6c0-1.2-0.1-2.4-0.2-3.7c-0.2-1.8-0.1-3.6-0.1-5.7c0.5,0.3,0.8,0.4,0.9,0.6
	c0.1,0.3,0.1,0.7,0.1,1c0,2.4-0.1,4.9-0.2,7.3c0,0.4-0.2,0.8,0.4,1c0.1-0.1,0.2-0.2,0.3-0.3c0.4-3.1,0.8-6.2,1.1-9.3
	c0.1-1.5,0.1-3-0.2-4.4c-0.2-1.1-0.6-2.1-0.7-3.2c0-0.3-0.2-0.6-0.4-1.1c-0.6,1.1-1,2.1-1.5,2.9c-1.3,1.8-1.5,3.7-1.3,5.8
	c0.3,2.8,0.4,5.5,0.5,8.3C58.4,103.2,58.5,103.6,58.5,104.1L58.5,104.1z M63.6,91.4c0.4-0.9,0.7-1.4,1-1.9c0.4-0.6,0.8-1.3,1.3-1.8
	c0.8-0.8,1.5-0.5,1.8,0.5c0.5,1.8,1,3.5,0.6,5.4c1-0.1,1.9-0.3,2.7-0.2c1.1,0.1,1.2,1.3,1.7,2c1.1-0.6,1.9-1,2.9-1.5
	c0-0.7-0.1-1.3-0.1-2c-2.2,0.2-4.3,0.9-6.6,0c1.2-1.3,3-0.8,4.4-1.7c-2.4-1.2-4.7-2.4-5.9-4.9c-1.7-0.1-3.3-0.7-5.3-0.5
	C62.5,87.1,63,89.1,63.6,91.4L63.6,91.4z M135.5,61.6c-0.7-2.1-1.4-3.1-3-4.5c-1.1-1-2.3-1.9-3.5-2.8c-0.3-0.3-0.6-0.6-0.1-1.1
	c1.8,0.9,3.7,1.9,5.6,2.8c2,0.9,4.2,1.1,6.6,1.4c-0.9-1.3-2-1.8-3.1-2.2c-2.1-0.8-4.2-1.6-6.3-2.3c-0.9-0.3-1.8-0.6-2.7-0.8
	c-0.6,0.6-1.4,0.7-1.7,1.5C130.2,58.6,132.6,61,135.5,61.6L135.5,61.6z M129.6,51.1c2.1,0.3,3.9,0.6,5.6,0.9
	c1.9,0.3,3.7,0.6,5.6,0.8c1.8,0.2,3.4,1.1,5.4,0.8c-0.3-1.4-1.2-2-2.2-2.6c-4.4-2.3-8.9-2.4-13.6-0.9
	C130.2,50.1,130,50.5,129.6,51.1z M147,98.1c0.9,0.4,1.8,0.4,2.7,0.4c1.2,0,2.4,0,3.7,0c2,0,3.9,0,5.9-0.1c0.7,0,1.4-0.1,2.2-0.6
	c-3.2-0.9-6.4-1.3-9.6-0.9c-1.1,0.1-2.1,0.4-3.2,0.6c-0.4,0.1-0.7-0.1-1.3-0.1c0.5-0.8,1-1.2,1.7-1.3c0.8-0.2,1.6-0.3,2.4-0.4
	c2.7-0.4,5.5-0.9,8.2-1.3c0.5-0.1,0.9-0.3,1.6-0.5c-2.4-0.8-8.2-0.4-13.9,0.8C147.2,95.8,147.1,96.8,147,98.1L147,98.1z M82.9,33.4
	c0.1,0.6,0.1,1.2,0.2,2c0.8-0.2,1.4-0.4,2.1-0.5c0.1,0,0.1-0.2,0.1-0.2c-0.4-0.1-0.7-0.2-1.1-0.2c0.7-0.3,1.4-0.3,2-0.2
	c2,0.4,4,0.4,6.1,0.3c2.2-0.1,4.3-0.3,6.5-0.4c0.4,0,0.8-0.1,1.2-0.2c0.7-0.3,0.8-1,0.2-1.5c-0.7-0.6-1.4-0.6-2.3-0.7
	C92.8,31.4,87.9,31.8,82.9,33.4L82.9,33.4z M71.9,44.7c-1.2,1.8-2.2,3.5-3.3,5.1c-0.7,1.1-0.9,2.4-1.5,3.5c-1.2,2-1.7,4.3-2.2,6.5
	c-0.1,0.5-0.2,1.1-0.2,1.6c0,0.3,0.3,0.7,0.5,1.1c1.2-0.7,1.6-1.8,2.1-2.8c1.7-3.7,3.3-7.4,5-11.1c0.5-1,0.8-2,0.8-3.1
	c0-0.1-0.1-0.2-0.1-0.4C72.7,45,72.4,44.9,71.9,44.7z M61.9,138c0.3-0.4,0.5-0.7,0.6-1c0.2-1,0.4-2,0.4-3c-0.1-3.7-0.3-7.3-0.5-11
	c0-0.4-0.1-0.7-0.2-1.2c-1,0.2-1.8,0.3-2.7,0.4c0,0.3-0.1,0.6-0.1,0.9c-0.2,3.4,0,6.8,0.3,10.2c0.1,1.3,0.5,2.5,1.2,3.6
	C61.1,137.3,61.5,137.6,61.9,138L61.9,138z M102.8,73.1c0.2,0.8,0.2,1.1,0.3,1.3c1,3.3,2.7,6.3,4.8,8.9c1.6,2.1,3,4.2,3.7,6.7
	c0,0.1,0.1,0.1,0.4,0.3c-1.5-4.9-1.7-9.9-4.2-14.3C105.9,75.9,104.6,74.6,102.8,73.1L102.8,73.1z M63,104.7c0.2-0.3,0.5-0.6,0.6-0.9
	c1.8-3.4,2.9-7,3.9-10.7c0.1-0.2,0.1-0.4,0.1-0.6c0.2-1.5-0.4-2.8-1.1-4.4c-1.3,1.3-1.8,2.6-2.2,4.1c-0.4,1.7-0.8,3.4-1.1,5.2
	c-0.5,2.2-0.9,4.5-1.4,6.9C62.1,104.4,62.6,104.6,63,104.7L63,104.7z M68,111.4c1.5,0,2.8,0,4,0c2.9,0.1,5.8-0.6,8.7-1.1
	c0.5-0.1,1-0.3,1.5-0.6c0.3-0.2,0.5-0.5,0.8-0.8c-0.9-1-2-1.2-3-1.3c-4.2-0.3-8.3,0.4-12.5,1.3C67.3,109.8,67.7,110.6,68,111.4z
	 M51,89.5c0,0.8-0.1,1.3-0.1,1.8c0.1,2.1,0.8,4,1.7,5.8c0.8,1.6,1.5,3.2,2.2,4.8c0.4,0.9,0.8,1.7,1.3,2.5c0.1,0.1,0.4,0.2,0.5,0.2
	c0.2-0.1,0.4-0.3,0.5-0.5c0.1-0.1,0-0.3,0-0.4c-0.7-4.4-2.2-8.5-4.3-12.4C52.5,90.7,52.1,90,51,89.5L51,89.5z M82.6,31.1
	c2.2-0.1,9.4-2.3,12.2-3.6c0.7-0.3,1.5-0.6,1.9-1.4c-1.1-0.6-1.4-0.8-2.7-0.5C92,26,89.9,26.4,87.9,27c-1.6,0.5-3.2,1.2-4.8,1.8
	c-0.9,0.3-1.7,0.8-2.3,1.4c0.4,0.7,0.8,0.5,1.3,0.3c1.6-0.8,3.2-1.6,4.8-2.3c0.4-0.2,0.8-0.4,1.4,0C86.4,29.2,84.7,30,82.6,31.1
	L82.6,31.1z M131.2,94.1c-0.1-0.7-0.1-1.2-0.1-1.8c-1.4-0.5-2.7-1.1-4-1.6c-1.4-0.5-2.7-1.2-4.2-1.5c-0.9,1.5-1.7,3-2.2,4.8
	C124.2,93.4,127.5,94,131.2,94.1L131.2,94.1z M65.2,106c0.4-0.6,0.8-1.1,1.2-1.7c0.5-0.7,1-1.5,1.6-2.1c1.5-1.7,2.4-3.8,3.3-5.8
	c0.2-0.4,0.2-0.8,0.3-1.2c0.1-0.9-0.5-1.4-1.4-1.2c-0.7,0.2-1.4,0.5-2.1,0.7c-0.6,1.8-1.1,3.6-1.8,5.3c-0.7,1.8-1.5,3.4-2.2,5.2
	C64.4,105.5,64.7,105.7,65.2,106L65.2,106z M119.5,102.5c0.4-0.4,0.7-0.8,1-1.1c0.3-0.3,0.6-0.7,0.9-1.1c0.3-0.3,0.5-0.8,1.3-0.9
	c-0.5,1-0.9,1.7-1.3,2.4c1.8-1.1,3.6-1.8,5.3-2.7c1.7-1,3.7-1.6,5.9-2.5c-0.7-0.3-1.1-0.5-1.4-0.5c-0.9,0.1-1.7,0.3-2.6,0.5
	c-2.9,0.8-5.8,1.8-8.9,1.2C119,99.4,118.8,100.8,119.5,102.5L119.5,102.5z M75.2,27.4c0.1-0.6,0.2-1.2,0.4-1.8
	c0.3-1.8,0.7-3.6,1-5.4c0.2-1.4,0.2-2.8-0.8-4c-1.2,0.8-1.4,0.9-1.8,2.4c-0.7,2.5-1.3,5-1.9,7.5c-0.1,0.4-0.1,0.9-0.2,1.4L75.2,27.4
	L75.2,27.4z M132.6,89.8c-0.9-0.8-1.7-1.7-2.6-2.4c-2.5-2.1-5-4.1-7.9-5.8c-0.5-0.3-1-0.7-1.9-0.4c3.2,4.2,7.2,7,11.6,9.6
	C132.1,90.4,132.3,90.1,132.6,89.8L132.6,89.8z M88.6,93.9c-0.1,0.1-0.3,0.1-0.4,0.2c0,0.4,0,0.8,0.1,1.2c0.3,1,0.7,2.1,1.1,3.1
	c0.8,2,1.5,3.9,1.5,6.1c0,0.9,0.2,1.8,0.5,2.6c0.1,0.4,0.5,0.7,0.9,1.2V97.3C91.1,96.3,89.9,95.1,88.6,93.9z M129.8,48.9
	c3.1-0.5,6.1-0.9,9.2-1.5c1.6-0.3,3.3-0.7,4.9-1.8c-0.5-0.2-0.9-0.5-1.2-0.5c-1.2,0-2.5-0.2-3.6,0c-2.3,0.4-4.6,1-6.9,1.6
	c-0.8,0.2-1.5,0.5-2.3,0.9C129.3,48,129.4,48.4,129.8,48.9L129.8,48.9z M149.2,101c1.3,1,2.6,2,3.8,3.1c1.3,1.1,2.4,2.3,3.7,3.5
	c0.6,0.6,1.4,1,2.2,1.4c0.2,0.1,0.5,0,0.9-0.1c-0.6-0.8-1.1-1.5-1.6-2.2c0.2-0.2,0.2-0.4,0.3-0.4c0.4-0.2,0.7-0.2,1.1-0.4
	c-2.1-2.7-7.2-5.9-10.4-6.4c2.9,1.7,5.4,3.6,7.5,6C153.9,104.4,152,101.9,149.2,101L149.2,101z M112.8,46.3c-2-1.5-6.2-3.2-7.7-3.2
	c0.4,1.3,1.9,1.7,2.3,2.9c-1.2,0.5-2.4-0.5-3.7,0c1.3,1,3.8,1.8,7.4,2.3C111.6,47.8,112.1,47.1,112.8,46.3z M119.9,96.7
	c1,0.8,2.2,0.7,3.3,0.5c1.8-0.3,3.6-0.8,5.3-1.3c0.9-0.2,1.7-0.5,2.6-0.7c-2.8-0.7-5.6-0.7-8.4-0.6c-0.5,0-0.9,0.2-1.4,0.3
	C120.3,95,119.8,95.6,119.9,96.7L119.9,96.7z M95.8,52.2c5.3-0.2,10.3-1.3,15.7-2c-1.5-0.7-3.9-1.2-5.5-0.9
	c-3.3,0.5-6.5,1.2-9.6,2.5C96.2,51.8,96,52,95.8,52.2L95.8,52.2z M151.4,84c-2.1,0.5-2.4,0.7-8,5.6c0.4,0.3,0.7,0.6,1.1,0.9
	c0.4,0.3,0.8,0.7,1.2,1C147.7,89,150.4,87.3,151.4,84z M104.8,82c-0.2,1.3-0.3,9.8,0,10.9c1.3-1.9,1.9-4,2.5-6
	c0.1-0.2,0-0.4-0.1-0.6C106.6,84.8,106,83.3,104.8,82z M80.8,89.2c-2.8-1.5-10.3-3.5-12.2-3.3c0.2,0.2,0.3,0.4,0.4,0.4
	c1.8,0.8,3.6,1.6,5.4,2.4c0.5,0.2,1.1,0.2,1.5,0.6C77.5,90.4,78.9,89.8,80.8,89.2z M100.2,55.5c1,0.3,2,0.3,2.8,0.1
	c1.8-0.5,3.7-1,5.4-1.6c1.7-0.5,3.3-1.2,4.9-1.8c0.2-0.1,0.4-0.3,0.6-0.4c-0.8-0.8-1.9-1-2.4-0.3c-0.6,0.8-1.3,0.8-2.1,1
	c-2.6,0.7-5.2,1.3-7.8,2C101.2,54.6,100.6,54.7,100.2,55.5L100.2,55.5z M91.4,58.8c1,3.2,3.7,4.6,6.3,6.4c-0.1-0.6,0-1.2-0.2-1.5
	c-0.9-1.6-1.9-3.1-2.9-4.8C93.6,58.9,92.6,58.8,91.4,58.8z M130.6,37.8c-0.8,0.2-1.3,0.7-1.7,1.4c-0.7,1-1.3,2-1.9,3.1
	c-0.3,0.6-0.6,1.2-1,1.8c0.3,0.3,0.5,0.6,0.8,0.8c0.1,0.1,0.3,0.2,0.5,0.2C129.3,42.5,130.7,39.5,130.6,37.8z M137.5,40.5
	c-3.7,1.3-6.4,3.7-9.2,5.8c0.4,0.6,0.8,0.6,1.4,0.2c2.5-1.8,4.9-3.5,7.4-5.3C137.2,41.1,137.2,40.9,137.5,40.5L137.5,40.5z
	 M126,119.9c0.6,0.4,1,0.6,1.4,0.9c1.3-1.6,2.4-3.6,2.6-5.1c0.1-0.4,0-0.8-0.1-1.7c-0.5,0.6-0.9,0.8-1,1.2c-0.2,0.6-0.2,1.2-0.3,1.8
	c-0.1,1-0.5,1.8-1.5,2.2c-0.6-0.4-1.2-1-2.1-0.8c0,0.4-0.1,0.7-0.1,1.2c-0.4-0.2-0.6-0.4-0.8-0.5s-0.3-0.6-0.8-0.2
	c0.5,0.7,0.9,1.3,1.4,2C125.2,120.6,125.5,120.3,126,119.9L126,119.9z M114.2,103.6h3.7c-0.1-1.7-0.5-2.8-1.3-4.1
	c-0.2-0.2-0.4-0.4-0.8-0.7C115.3,100.5,114.8,102,114.2,103.6z M113.4,45.3c0.6-0.2,0.8-0.5,0.5-1.1c-1.2-2-2.6-3.8-4.6-5.1
	c-0.1-0.1-0.3,0-0.5-0.1C109.2,41.2,110.8,43.4,113.4,45.3z M39.5,100.8c0.8,1.1,2.2,1.1,3.2,1.6c1.1,0.6,2.2,1.1,3.3,1.7
	c1,0.5,2,1.3,3.4,1.9C46.5,102.5,42,100.2,39.5,100.8L39.5,100.8z M88.7,44.1c1.2,2.8,2.5,4.9,3.6,5.9c-0.1-1.6-0.1-3.1-0.2-4.7
	C91,45,90,44.6,88.7,44.1z M124.4,43.4c2-5.2,2.2-5.7,2-7.5c-0.1,0-0.3,0-0.4,0c-0.8,0.5-0.9,1.1-0.8,2c0.1,0.7-0.5,1.5-0.7,2.3
	c-0.2,0.8-0.3,1.5-0.6,2.7c-0.4-0.7-0.6-1-0.8-1.4c-0.2,0.4-0.3,0.8-0.4,1.2C123.3,43,123.8,43.1,124.4,43.4L124.4,43.4z M83,104.2
	c1.5,2.4,3.2,4.4,6.7,4.7c-0.8-0.6-1.4-0.8-1.8-1.3C86.7,105.8,84.8,105,83,104.2z M115,37.5c-0.5,1.2-0.6,1.2-0.4,2.2
	c0.2,1.3,0.5,2.5,0.7,3.8c0,0.1,0.2,0.2,0.3,0.3c0.4-0.3,0.8-0.5,1.3-0.9C116.3,41,116,39.2,115,37.5L115,37.5z M121.4,58.2
	c-0.8,2-0.9,4.2-1.1,6.4c0.3,0.2,0.6,0.3,1,0.5c0.2-0.4,0.4-0.7,0.4-1C121.8,62.1,122.1,60.2,121.4,58.2L121.4,58.2z M97.9,49.9
	c1.5-0.3,1.6-0.3,1.4-1.3c-0.1-0.7-0.3-1.3-0.5-2c-0.8-0.2-1.5-0.4-2.2-0.2C97,47.7,97.4,48.8,97.9,49.9L97.9,49.9z M66.1,22.5
	c-0.7,2.7-0.1,3.8,2.2,4.4C67.7,25.3,67.5,23.7,66.1,22.5z M140.6,112.5c1.6-0.7,2.7-1.3,4-1.8c-0.6-0.6-1.1-1.2-1.6-1.7
	C141.8,109.8,141.4,111,140.6,112.5z M110.4,78.6c0.3,2.1,0.9,3.9,1.9,5.1c0-0.9-0.1-1.8,0-2.6C112.5,79.7,111.9,79,110.4,78.6z
	 M96.2,56.8c0.1,2.4,1.1,4.7,2.6,6.3C98.5,61.7,97.2,58.4,96.2,56.8z M99.5,164.8c0.4,0,0.6,0.1,0.7,0c2.4-0.9,4.5-0.7,6.3,1.4
	c0.3,0.4,0.7,0.7,1.1,0.9c0.2,0.1,0.5,0.2,1,0.4C105.6,163.9,102.7,163,99.5,164.8L99.5,164.8z M95,162.5c-1.2-2.8-2-3.8-3.8-4.7
	C91.9,159.2,93.3,161,95,162.5z M135.7,119.8c1.7-1.2,2.5-2.9,2-4.6C137.2,116.9,135.7,118,135.7,119.8z M119.1,70.3
	c0.4-1.3,0.9-2.7,1.3-4c0.2-0.5,0-0.8-0.8-0.6C119.4,67.1,118.6,68.6,119.1,70.3z M124.6,146.6l0.3,0.3c0.7-0.8,1.3-1.7,2-2.4
	c1.7-1.7,1.7-1.7,2-2.8C127.3,143.5,125.6,144.8,124.6,146.6z M112.9,86.2c0.2-1.7,0.7-3.3,0.3-5C112.7,82.9,112.6,84.5,112.9,86.2z
	 M104.6,48.6c0.1-0.1,0.1-0.3,0.1-0.4c-0.7-0.5-1.5-0.9-2.6-1.1c0.1,0.6,0.1,1.1,0.2,1.8C103.2,48.8,103.9,48.7,104.6,48.6
	L104.6,48.6z M105.2,94.9c-0.8,1-1,2.1-0.9,3.6C105.2,97.3,105.3,96.1,105.2,94.9z M104.2,157.4c-0.2,1.4-0.3,2.7,0.6,4.1
	C104.9,160,105,158.7,104.2,157.4z M99.2,67l0.4-0.1c0.1-0.5,0.3-1,0.4-1.5c0-0.1-0.3-0.5-0.5-0.4c-0.6,0.1-0.8,0.7-0.8,1.2
	C98.7,66.5,99,66.7,99.2,67L99.2,67z M89.4,100.3c-0.1,2.3-0.1,2.4,0.9,3.6C90,102.5,89.7,101.4,89.4,100.3z M128.9,140.3
	c2.2-0.9,2.4-1.1,3.1-2.4C130.8,138.4,130,139.1,128.9,140.3z M76.6,69.6c-0.3-0.9-0.7-1.8-1.9-2.6C75.1,68.4,76,68.9,76.6,69.6z
	 M91,162.2c-1-0.4-1.6-0.4-2.6-0.2C89.3,162.5,89.9,162.9,91,162.2z M128.4,113.9l-0.4-0.2c-0.3,0.6-0.7,1.2-0.3,2.3
	C128,115.1,128.2,114.5,128.4,113.9z M147.4,99c-0.2-0.1-0.5-0.3-0.7-0.4c0,0-0.2,0.3-0.2,0.3c0.2,0.2,0.4,0.4,0.7,0.5
	C147.2,99.3,147.3,99.2,147.4,99L147.4,99z M76.8,92.2c-0.1-0.2-0.1-0.3-0.2-0.5c-0.2,0.1-0.3,0.3-0.5,0.4c0,0.1,0.1,0.2,0.1,0.3
	C76.4,92.4,76.6,92.3,76.8,92.2z M117.9,78.3C117.9,78.3,117.8,78.3,117.9,78.3l-0.1,0.8c0,0,0,0,0.1,0V78.3z M129.9,127
	c0.2,0.1,0.2,0.2,0.3,0.2c0.5,0,0.7-0.2,0.8-0.6c0-0.1-0.1-0.2-0.1-0.4c-0.2,0.1-0.4,0.2-0.6,0.3C130.2,126.6,130.1,126.7,129.9,127
	z M115.1,126.9C115.1,126.9,115,126.9,115.1,126.9c-0.1,0.1-0.1,0.3-0.1,0.4c0,0,0.1,0.1,0.1,0.1C115,127.2,115,127,115.1,126.9
	L115.1,126.9z M109.5,51.3c0,0.1,0,0.2,0,0.3c0.2,0,0.5-0.1,0.7-0.2C110,51.4,109.7,51.3,109.5,51.3L109.5,51.3z M82.8,85.4
	c0,0.4,0.2,0.6,0.6,0.8C83.2,85.8,83,85.6,82.8,85.4z M84.7,31.9c0.1,0,0.1,0,0.2,0c0,0-0.1-0.1-0.1-0.1c0,0-0.1,0-0.2,0
	C84.6,31.8,84.6,31.8,84.7,31.9z M82.6,32.4c0.1-0.1,0.2-0.1,0.3-0.2c0,0-0.1-0.1-0.1-0.1c-0.1,0-0.2,0-0.3,0.1
	C82.5,32.2,82.6,32.3,82.6,32.4L82.6,32.4z M118.6,71.7c0,0.1,0,0.1,0,0.2C118.7,71.8,118.7,71.8,118.6,71.7
	C118.7,71.7,118.7,71.7,118.6,71.7L118.6,71.7z M91.7,177.8c0,0.1-0.1,0.2-0.1,0.4c0,0,0.1,0.1,0.1,0.1c0-0.1,0.1-0.2,0.1-0.4
	C91.8,177.9,91.7,177.8,91.7,177.8L91.7,177.8z M140.6,123.3c0.1,0,0.1,0.1,0.2,0.1c0,0,0.1-0.1,0.1-0.2
	C140.8,123.2,140.8,123.2,140.6,123.3C140.7,123.2,140.7,123.3,140.6,123.3L140.6,123.3z M116.9,104.5c0,0-0.1-0.1-0.1-0.1
	c-0.1,0-0.2,0-0.3,0.1c0,0,0.1,0.1,0.1,0.1C116.7,104.6,116.8,104.5,116.9,104.5z M122.2,53c0,0,0-0.1-0.1-0.1c-0.1,0-0.1,0-0.2,0
	c0,0,0,0.1,0.1,0.1C122,53.1,122.1,53.1,122.2,53L122.2,53z M87.6,103.7c0,0.1,0,0.1,0,0.2l0.2-0.1
	C87.7,103.8,87.7,103.8,87.6,103.7L87.6,103.7z M50.3,106.6C50.3,106.6,50.3,106.5,50.3,106.6c-0.1-0.1-0.1-0.1-0.2-0.1
	c0,0,0,0.1,0,0.1C50.2,106.6,50.3,106.6,50.3,106.6L50.3,106.6z M133.7,125.3l-0.2,0.1l0.2,0.1V125.3L133.7,125.3z M143.4,122.8
	l-0.1,0.1L143.4,122.8L143.4,122.8L143.4,122.8z"/>
<path class="st0" d="M51.9,74.5c-1.5,0.5-3.1,0.9-4.7,1.4c-0.4,0.1-0.9,0.2-1.5,0.3c0.4-1.2,1.4-1.4,2.1-1.7c2.3-1,4.7-1.9,7-2.8
	c1.8-0.7,3.7-1.4,5.5-2.1c1.1-0.4,1.1-0.5,2-1.5c-0.4-0.1-0.6-0.3-0.9-0.3c-1.9-0.2-3.7,0.1-5.4,0.8c-3,1.2-5.8,2.6-8.5,4.5
	c-0.8,0.6-1.5,1.3-2.4,2c-0.3-0.2-0.6-0.4-0.9-0.6c0.2-0.9,0.9-1.1,1.4-1.5c2.2-1.5,4.4-2.9,6.5-4.5c1.5-1.1,2.9-2.5,4.3-3.8
	c0.4-0.4,0.9-0.8,0.8-1.6c-1.7-0.4-3.2,0.4-4.5,1.2c-1.3,0.8-2.5,2-4,3.2c1-2.4,2.7-3.6,4.6-4.5c1-0.5,2-0.7,3.1-0.9
	c0.6-0.1,1.3,0,1.6,0.6c0.4,0.6,0.2,1.2-0.2,1.7c-0.7,0.9-1.5,1.7-2.3,2.6c-0.4,0.4-0.8,0.7-1.5,1.4c0.9-0.3,1.4-0.4,1.9-0.5
	c1.7-0.7,3.4-0.9,5.2-0.8c0.3,0,0.7,0,1,0.1c0.8,0.2,1,0.7,0.8,1.5c-0.1,0.2-0.2,0.5-0.4,0.9c1-0.1,1.8-0.2,2.6-0.2
	c0.3,0,0.8,0.3,0.9,0.6c0.1,0.2-0.1,0.7-0.2,0.9c-0.8,1-1.8,1.6-2.9,2.2c-3.7,1.9-7.6,3.2-11.7,4.3c-1,0.3-2.1,0.6-3.1,1.2
	c0.5,0,0.9,0,1.4-0.1c2.8-0.5,5.6-1.1,8.4-1.7c2.5-0.5,5-0.1,7.4,0.6c0.3,0.1,0.5,0.2,0.7,0.3c0.8,0.6,0.9,1.5,0,2
	c-0.7,0.4-1.5,0.6-2.3,0.9c-1.5,0.5-3,0.9-4.5,1.3l0.1,0c-1,0.1-1.9,0.1-2.8,0.2c-2.5,0.1-4.9,0.2-7.3,0.3c-1,0-2-0.1-2.9-0.7
	c3.3-0.2,6.6-0.4,9.8-0.6c3.3-0.2,7.8-1.3,9.3-2.4c-0.1-0.1-0.1-0.3-0.2-0.3c-0.4-0.2-0.8-0.3-1.1-0.4c-2.5-0.8-5.1-0.6-7.7,0
	c-3.5,0.8-7.1,1.4-10.6,2c-0.5,0.1-1,0.3-1.5,0.4c-0.7,3.6-0.8,3.7-2.8,6.6c-0.2,0.3-0.4,0.7-0.6,1.1l0-0.1
	c-0.9,0.9-1.8,1.8-2.8,2.7c-0.3,0.2-0.6,0.4-1.3,0.7c0.4-1.2,1.1-1.8,1.7-2.4c1-1,1.9-2.1,2.8-3.2c1.1-1.4,1.7-3.1,1.9-4.9
	c0.1-1.5-1.1-3.7-2.4-4.3c-1-0.5-2.2-0.7-3.3-0.7c-2.6,0.1-4.8,1.3-6.9,2.6c-0.3,0.2-0.7,0.3-1.1,0.5l0,0c0.2-1,1-1.4,1.7-1.9
	c0.1-0.1,0.3-0.1,0.4-0.2c2.2-1.6,4.5-2.4,7-2.2c1.8-2.6,3.6-5,5.1-7.6c1-1.7,1.8-3.5,2.6-5.3c0.3-0.6,0.5-1.3,0.2-2
	c-1.2,0-2.1,0.7-2.9,1.3c-2.5,1.9-4.4,4.3-5.5,7.2c-0.7,2-1.5,3.9-2.2,6c-0.3-0.1-0.5-0.2-0.8-0.2c0.5-4.3,0.7-8.6,0.4-13.2
	c-1.1,0.7-1.4,1.5-1.4,2.5c-0.2,2.4-0.3,4.8-0.5,7.1c-0.1,1.3-0.2,2.7-0.4,4.3C33,73.5,33,73.5,33,72.5c0-0.8,0-1.6,0-2.4
	c0-0.7,0-1.5,0-2.5c-0.8,2.8-0.7,5.3-0.8,8c-0.2-0.3-0.4-0.6-0.4-1c-0.4-2.4-0.2-4.9,0.3-7.3c0.3-1.7,0.8-3.3,1.4-4.9
	c0.4-1.1,1-2.2,2.3-2.5c0.7,0.4,0.6,1,0.6,1.5c0,2.4,0,4.8,0.1,7.1c0,0.4,0,0.9,0,1.6c0.8-0.8,0.9-1.7,1.2-2.4
	c1.5-3.6,3.9-6.4,7.2-8.3c0.3-0.2,0.6-0.3,0.9-0.4c1.5-0.6,2.3-0.1,2.1,1.5c-0.1,0.7-0.3,1.5-0.6,2.2c-1.2,3-2.7,5.8-4.7,8.3
	c-0.9,1.2-1.6,2.5-2.3,3.9c0.2-0.1,0.6-0.2,0.7-0.4c1.1-1.8,2.6-3.1,4.2-4.4c0.2-0.2,0.5-0.3,1-0.6c-0.3,1-0.3,0.9-1,1.5
	c-0.5,0.4-0.9,0.8-1.3,1.2S43,73,42.6,73.5c-0.4,0.5-0.8,0.9-1.2,1.6c1.4,0.7,1.9,2.3,3.5,2.8C47.2,76.8,49.6,75.9,51.9,74.5
	c1.5-0.2,2.9-0.8,4.1-1.7c0.1-0.1,0.3-0.2,0.4-0.3c-0.1,0.1-0.2,0.2-0.4,0.3C54.4,72.9,53.1,73.5,51.9,74.5L51.9,74.5z M50.6,76.5
	c0.5,0,1,0.1,1.4-0.1c2.8-1,5.6-2,8.4-3.1c1.2-0.5,2.4-1.2,3.6-1.9c0.3-0.2,0.5-0.6,0.9-1c-1.5,0-2.8-0.1-3.6,0.8
	c-1,1.1-2.2,1.5-3.4,2.1c-2,0.9-4,1.7-6,2.5C51.5,75.9,51.1,76.3,50.6,76.5c-0.2,0.1-0.5,0.1-0.7,0.1c0,0.1,0.1,0.2,0.1,0.3
	L50.6,76.5L50.6,76.5z M44.8,78.8c0.2-0.2,0.4-0.3,0.5-0.5c-0.1-0.1-0.2-0.2-0.3-0.2c-0.2,0.1-0.3,0.2-0.5,0.3
	C44.7,78.6,44.7,78.7,44.8,78.8z"/>
<path class="st0" d="M99.2,134.8c0-1,0.5-2.2,1.3-3.4c-0.4,0.1-0.7,0.1-0.9,0.2c-0.6,0.3-1.2,0.6-1.8,0.9c-0.9,0.4-1.6,1-2.1,1.9
	c-1.1,2.1-2.9,3.4-4.7,4.8c-0.2,0.1-0.5,0.1-0.7,0.1c0,0-0.1-0.1-0.2-0.3c1.2-2.1,3.5-3.3,5.2-5.5c-1.5,0.3-2.4,0.9-3.4,1.4
	c-1,0.5-2,0.8-3,1.2c-0.2,0.1-0.5,0-0.9-0.1c0.1-0.4,0.2-0.7,0.3-1c0.7-0.9,1.7-1.4,2.8-1.6c1.2-0.3,2.5-0.6,3.9-1
	c-0.8-1-1.5-1.8-2.2-2.6c-0.7-0.7-1.7-1.1-2.4-2.3c0.7,0.1,1,0.1,1.3,0.2c1.1,0.6,2.1,1.5,2.9,2.6c0.3,0.4,0.6,0.8,0.8,1.1
	c0.3,0.4,0.8,0.6,1.3,0.4c0.3-0.1,0.6-0.1,0.8-0.2c1.9-0.9,3.7-1.9,5.7-2.9c-0.7-0.5-1.4-0.6-2.2-0.7c-3.7-0.5-6.4-2.4-8.6-5.3
	c-0.1-0.1-0.1-0.4-0.1-0.7c0.3,0.1,0.6,0,0.8,0.2c0.4,0.2,0.8,0.5,1.2,0.8c2.1,1.9,4.7,2.8,7.4,3.9c0.3-0.6-0.1-1-0.4-1.3
	c-0.5-0.6-1.1-1.2-1.5-2c0.3,0.1,0.8,0,1,0.2c1,0.9,1.9,1.9,2.8,2.9c0.6,0.6,1.1,1.1,1.9,1.5c1.1,0.5,2.1,1.2,3.1,1.9
	c0.7,0.5,1.2,1.1,2,1.9c-1.7-0.1-2.5-1.3-3.8-1.8c-0.3,0.2-0.7,0.4-1,0.7c-1.2,1-2.3,2.1-3.5,3.1
	C101.3,134.5,100.4,135.1,99.2,134.8L99.2,134.8z M90.3,134.5c0.2,0,0.5,0.2,0.4-0.3C90.5,134.3,90.4,134.4,90.3,134.5
	c-0.1,0.1-0.3,0.1-0.5,0.1c0.1,0.1,0.1,0.1,0.1,0.2L90.3,134.5L90.3,134.5z M100.2,133.8c2.2-0.8,3.7-2.4,5.2-3.9
	c-0.8-0.6-1.3-0.1-1.7,0.2C102.3,131.1,100.7,131.9,100.2,133.8L100.2,133.8z"/>
<path class="st0" d="M22,105.9c-0.7,1.1-1.8,0.9-2.9,0.8c-0.7-1-0.5-2-0.1-2.9c0.7-1.8,1.6-3.4,2.8-4.9c1.5-1.8,2.9-3.7,4.4-5.6
	c0.2-0.2,0.5-0.4,0.7-0.6c0.8-0.8,1.5-1.6,2.3-2.5c0.4-0.4,0.7-0.8,0.6-1.4l0,0c0.2,0.1,0.4,0.2,0.5,0.3c1.1,1.1,2.1,2.4,4.2,1.8
	c-0.4,0.8-0.7,1.3-0.9,1.8c-0.2,0.6-0.2,1.2-0.3,1.8c-0.8,4.3-1.1,8.6-0.7,13c0.2,1.8,0.5,3.4,1.7,4.9c1.3-1,1.6-2.1,1.8-5.4
	c0.4,1.4,0.4,3.9-0.2,5c-0.1,0.3-0.3,0.6-0.6,0.8c-0.7,0.7-1.5,0.7-2-0.2c-0.8-1.3-1.3-2.7-1.5-4.2c-0.4-3.7-0.4-7.4,0.3-11.2
	c0.2-0.9,0.2-1.8,0.2-2.6c0.2-0.5,0.3-1,0.5-1.6c0-0.2,0.1-0.4,0.2-0.7c0,0-0.1,0-0.1,0V93c-0.6,0.4-0.5,1-0.5,1.6
	c-0.1,0-0.2,0.1-0.2,0.1c-1.1,3.1-2.2,6.1-2.8,9.3c-0.1,0.6,0,1.2-0.8,1.7c0-5.1,2.5-9.5,3.6-14.3c-0.3-0.1-0.5-0.2-0.8-0.2l0,0.1
	c-0.2-0.2-0.4-0.3-0.5-0.5c-3.2,4.4-5.2,6.7-6.9,7.8c0.3-0.5,0.4-0.8,0.5-1c1-1.2,2-2.3,2.9-3.4c0.2-0.3,0.7-0.4,0.4-1
	c-2.5,2.1-4.3,4.7-6.2,7.3c-1,1.4-1.6,3-2.3,4.5c-0.1,0.3-0.1,0.8-0.1,1.1C20.1,106.3,21,106.2,22,105.9L22,105.9L22,105.9z"/>
<path class="st0" d="M26.9,92.6c-0.2,0.2-0.5,0.4-0.7,0.6c-2.9,1.5-6,2.4-9.2,3.1c-0.5,0.1-0.9,0.2-1.4,0.2c-0.5,0-1-0.1-1.2-0.5
	c-0.3-0.5-0.2-1.1,0.2-1.5c0.9-1,1.8-1.9,3-2.4c0.9-0.4,1.9-0.8,2.7-1.4c1.9-1.2,3.9-2.2,6-3c0.3-0.1,0.5-0.4,0.8-0.6l-0.1,0
	c0.5,0,0.9,0,1.3,0.1c0.6,0.2,0.6-0.2,0.8-0.6l0,0c0.6,0.6,0.9,1.2,0.8,2l0,0c-0.5-0.3-1-0.2-1.5,0.1c-2.4,1.6-4.9,3.2-7.4,4.7
	c-0.3,0.2-0.7,0.6-1.3,0.2c1.4-1.1,2.7-2.1,4-3c1.2-0.9,2.8-1.5,4.1-2.6c-0.4,0-0.5-0.1-0.6-0.1c-2.1,0.9-4.3,1.6-6.2,3
	c-0.7,0.5-1.5,1-2.3,1.3c-1.4,0.5-2.3,1.4-3.3,2.3c-0.2,0.2-0.3,0.5-0.5,0.9c0.4,0.1,0.7,0.2,0.9,0.2c3.3-0.7,6.7-1.3,9.6-3.2
	c0.3-0.2,0.6-0.4,0.9-0.5C26.6,92,26.8,92.3,26.9,92.6L26.9,92.6z"/>
<path class="st0" d="M27,87.1c-1.4,0-2.8,0-4.3,0c-1.8-0.1-3.5-0.1-5.2-0.3c-1-0.2-2-0.7-3-1.1c-0.2-0.1-0.5-0.2-0.7-0.4
	c-0.7-0.6-1.1-1.6-0.8-2.1c0.4-0.7,1.1-0.8,1.7-0.8c2.7,0.2,5.4,0.3,8.1,0.5c1.4,0.1,2.8,0.2,4.2,0.2l-0.1,0c0,0.4-0.1,0.8-0.6,0.8
	c-1,0-2-0.1-3-0.2c-2.8-0.3-5.5-0.7-8.3-0.6c-0.4,0-0.7,0.1-1.1,0.2c-0.2,0.8,0.1,1.2,0.6,1.5c1.1,0.5,2.1,1,3.2,1.2
	c1.6,0.3,3.2,0.3,4.8,0.3c1.1,0,2.3,0,3.4,0c0.8,0,1.6,0.1,2.3-0.3c0.1-0.3,0.1-0.6,0.2-0.9l0,0c0.5,0.4,0.4,1.1,0.4,1.6l0,0
	C28.2,86.7,27.5,86.6,27,87.1L27,87.1L27,87.1z"/>
<path class="st0" d="M31.4,91.2c-0.3,0.9-0.5,1.8-0.9,2.7c-1.5,3.4-2.3,7-2.3,10.7c0,1,0,2,0,3.1c0,0.6,0,1.2,0.1,1.8
	c0.3,1.7,0.6,2.5,2.7,2.2c0.2,0,0.4,0.1,0.6,0.1c-0.6,0.9-1.4,0.8-2.2,0.7c-0.8-0.1-1.4-0.6-1.6-1.4c-0.3-1.2-0.5-2.4-0.5-3.6
	c0-2.5-0.1-5,0.4-7.5c0-0.2,0-0.4-0.1-0.6c-0.8,0.2-1,0.9-1.4,1.4c-0.6,1-1.2,2.1-1.9,3.2c-0.6,0.9-1.2,1.8-2.4,2l0,0
	c1.1-1.2,2.1-2.4,2.9-3.9c0.8-1.6,1.7-3.2,3.2-4.3c0.7-1.7,1.4-3.4,2.1-5C30.5,92.1,31.1,91.7,31.4,91.2L31.4,91.2L31.4,91.2z"/>
<path class="st0" d="M27,83.1c-1.6-0.8-3.3-1.7-5-2.3c-1.9-0.8-3.5-1.7-5-3c-0.6-0.6-1.2-1.3-1.7-2c-0.2-0.3-0.2-0.9,0-1.1
	c0.2-0.2,0.7-0.3,1.1-0.3c0.7,0.1,1.3,0.3,2,0.5c2.1,0.9,4.2,1.9,6.3,2.9c0.4,0.2,0.7,0.5,1,0.9c-1.6-0.2-3-1.2-4.4-1.7
	c-1.5-0.6-2.8-1.6-4.9-1.7c0.5,0.6,0.7,1.1,1.1,1.4c1.6,1.3,3.3,2.6,5.3,3.4c1.8,0.7,3.5,1.5,5.2,2.3c0.3-0.3,0.5-0.6,0.8-0.9l0,0
	c0,1.2,0,2.4,0,3.7l0,0c-0.1-0.4-0.3-0.7-0.4-1.1C28.1,83.1,28.1,83.1,27,83.1L27,83.1L27,83.1z"/>
<path class="st0" d="M28,78.5c-2.2-2.5-4-5.3-4.7-8.6c-0.3-1.3-0.4-2.6-0.5-3.8c0-0.4,0.2-1,0.5-1.2c0.5-0.4,1,0,1.5,0.3
	c0.2,0.1,0.3,0.3,0.5,0.4c2.6,2.9,4.7,6.2,6,9.9c0.1,0.3,0,0.6,0.1,1.2c-1.3-1.4-1.4-3-2.2-4.2c-0.8-1.2-1.4-2.5-2.3-3.6
	c-0.9-1.2-1.6-2.5-3.1-3.4c-0.3,1.8,0.1,3.3,0.5,4.8c0.4,1.4,1.1,2.8,1.8,4.1c0.7,1.4,1.6,2.6,2.4,4C28.2,78.3,28.1,78.4,28,78.5
	L28,78.5z"/>
<path class="st0" d="M43.2,63.1c0.4,1-0.5,1.5-0.8,2.1c-0.3,0.7-0.8,1.2-1.2,1.9c-0.4,0.7-0.9,1.4-1.3,2.1c-0.4,0.7-0.7,1.3-1,2
	c-0.4,0.7-0.3,1.6-1.2,2.2c-0.2-1.1,0.2-2,0.5-2.8C39.2,68,41.8,64.3,43.2,63.1L43.2,63.1z"/>
<path class="st0" d="M35.7,91.9c0.3,3.6,0.1,7.3,0,11c-0.1-0.2-0.3-0.5-0.3-0.7C35.2,98.7,35.3,95.3,35.7,91.9L35.7,91.9z"/>
<path class="st0" d="M103.7,112.9c0.3,0.3,0.6,0.5,0.8,0.9c0.7,1.3,1.3,2.7,2,4c0.8,1.6,1.6,3.1,2.4,4.7c0.2,0.5,0.3,1,0.5,1.5l0,0
	c-1.2-1.2-1.9-2.7-2.7-4.2c-0.9-1.9-1.8-3.8-2.7-5.7C103.9,113.6,103.9,113.2,103.7,112.9L103.7,112.9L103.7,112.9z"/>
<path class="st0" d="M28.8,76.1c-1.2-1.1-3.1-4.8-3.8-7.4C26.5,70.6,28.6,74.6,28.8,76.1z"/>
<path class="st0" d="M46.6,124.9c-0.2,0.4-0.3,0.9-0.5,1.3c-0.6,1.3-1.2,2.5-1.8,3.8c-0.4,0.7-0.3,1.4-0.1,2.1
	c-0.6-0.2-0.9-0.7-0.8-1.3C43.9,128.6,44.5,126.3,46.6,124.9L46.6,124.9z"/>
<path class="st0" d="M33.4,87.8c0.4,0.9,1.1,1.5,0.9,2.4c-2.1-0.6-2.2-0.7-2.4-2.7c0.3,0.5,0.5,0.9,0.8,1.4
	C33,88.5,33.1,88.3,33.4,87.8z"/>
<path class="st0" d="M44.2,117.4c0.4-0.2,0.7-0.6,1.1-0.7c1.3-0.5,2.6-1,4.1-1.2c-0.6,0.4-1.1,0.7-1.7,1.1l0,0
	c-0.6,0.1-1.1,0.2-1.7,0.4C45.4,117.1,44.8,117.2,44.2,117.4L44.2,117.4L44.2,117.4z"/>
<path class="st0" d="M72.6,127c-0.2-0.1-0.4-0.2-0.6-0.3c-0.8-0.9-1.7-1.9-2.8-3.1C70.8,124.5,71.6,125.4,72.6,127z"/>
<path class="st0" d="M38.3,86.3c0.1,0.1,0.4,0.3,0.4,0.5c0.1,0.5-0.5,1.1-0.9,1c-0.2,0-0.4-0.4-0.4-0.6
	C37.3,86.7,37.7,86.3,38.3,86.3L38.3,86.3z"/>
<path class="st0" d="M41.6,78.2c-0.6,1-1.1,1.3-1.9,1C39.9,78.3,40.5,78.2,41.6,78.2z"/>
<path class="st0" d="M36.5,78.4c-0.7,0.6-1.1,0.6-1.6,0C35.4,77.7,35.8,77.8,36.5,78.4z"/>
<path class="st0" d="M102.5,110.4c0.8,0.6,1.2,1.5,1.2,2.4l0,0c-0.3-0.1-0.6-0.3-0.9-0.4l0,0.1c-0.2-0.3-0.3-0.6-0.4-0.9l0,0.1
	C102.6,111.2,102.6,110.8,102.5,110.4L102.5,110.4L102.5,110.4z"/>
<path class="st0" d="M36.2,82.5c-0.7-0.5-0.6-1,0-1.8V82.5z"/>
<path class="st0" d="M113.1,131.6c0.7,0.9,0.9,1.8,0.8,2.9l0,0C113.5,133.6,113,132.7,113.1,131.6L113.1,131.6L113.1,131.6z"/>
<path class="st0" d="M35,88.2c0.2,0.2,0.5,0.4,0.7,0.7c0.1,0.1,0,0.3,0,0.5c-0.2,0-0.4,0-0.5-0.1c-0.2-0.3-0.3-0.6-0.4-0.9
	C34.9,88.3,34.9,88.2,35,88.2z"/>
<path class="st0" d="M37.9,88.9c-0.3,0.2-0.5,0.4-0.7,0.4c-0.1,0-0.2-0.2-0.4-0.4c0.2-0.2,0.3-0.3,0.5-0.4
	C37.5,88.5,37.7,88.7,37.9,88.9z"/>
<path class="st0" d="M40.5,83.6c0.2,0.4,0.5,0.6,0.4,0.7c0,0.2-0.3,0.3-0.5,0.4c-0.1,0-0.3-0.2-0.3-0.3C40.1,84.1,40.3,84,40.5,83.6
	L40.5,83.6z"/>
<path class="st0" d="M111.1,106.3c0-0.4,0-0.8,0-1.3l-0.1,0.1c0.2-0.3,0.3-0.6,0.4-0.9l-0.1,0.1c0.2,0,0.3,0,0.5-0.1
	C111.9,105,111.8,105.8,111.1,106.3L111.1,106.3L111.1,106.3z"/>
<path class="st0" d="M42.6,117.8c0.4-0.6,1-0.5,1.6-0.4l0,0C43.6,117.5,43,117.6,42.6,117.8L42.6,117.8z"/>
<path class="st0" d="M29.8,78.9c0,0.6-0.2,1.1-0.9,1.2l0,0C29.2,79.7,29.5,79.4,29.8,78.9L29.8,78.9L29.8,78.9z"/>
<path class="st0" d="M37.7,81.4c0.1,0.2,0.2,0.3,0.1,0.4c-0.1,0.1-0.3,0.2-0.4,0.3c0-0.1-0.2-0.3-0.1-0.3
	C37.4,81.7,37.6,81.6,37.7,81.4L37.7,81.4z"/>
<path class="st0" d="M38.4,84.5c-0.2,0.2-0.4,0.4-0.5,0.4c-0.1,0-0.2-0.2-0.4-0.3c0.1-0.1,0.2-0.3,0.4-0.3
	C38,84.2,38.2,84.4,38.4,84.5z"/>
<path class="st0" d="M28.9,80.1c-0.1,0.4-0.2,0.9-0.3,1.4l0,0C28.7,81,28.8,80.6,28.9,80.1L28.9,80.1z"/>
<path class="st0" d="M87.8,170.9c0.4-0.1,0.9-0.3,1.3-0.4l-0.1-0.1C88.6,170.6,88.2,170.7,87.8,170.9L87.8,170.9L87.8,170.9z"/>
<path class="st0" d="M49,97.8l-0.2,0.1l-0.2-0.1c0-0.3,0-0.6,0-0.9l0,0C49,97.1,49,97.4,49,97.8L49,97.8z"/>
<path class="st0" d="M137.2,139c-0.1,0.5-0.4,0.5-0.8,0.4l0,0l0-0.4l-0.1,0.1L137.2,139L137.2,139L137.2,139z"/>
<path class="st0" d="M138.1,138.6c-0.1,0.4-0.5,0.5-0.8,0.4l0,0C137.4,138.5,137.7,138.5,138.1,138.6L138.1,138.6L138.1,138.6z"/>
<path class="st0" d="M47.4,123.8c-0.2,0.3-0.4,0.6-0.7,0.9C47,124.4,47.2,124.1,47.4,123.8z"/>
<path class="st0" d="M48.6,96.9c-0.1-0.3-0.3-0.6-0.4-0.8l0,0C48.3,96.4,48.4,96.7,48.6,96.9L48.6,96.9z"/>
<path class="st0" d="M42.5,117.8c-0.1,0.1-0.2,0.1-0.3,0.2C42.3,117.9,42.4,117.8,42.5,117.8L42.5,117.8L42.5,117.8z"/>
<path class="st0" d="M48.2,96.1c-0.1-0.3-0.3-0.6-0.4-0.8l0,0C47.9,95.6,48,95.8,48.2,96.1L48.2,96.1z"/>
<path class="st0" d="M102.1,109.6c0.5,0.1,0.5,0.4,0.4,0.8l0,0C102.1,110.3,102.1,109.9,102.1,109.6L102.1,109.6z"/>
<path class="st0" d="M145.8,108c-0.3-0.7-0.4-1.4-0.8-2c-0.4-0.8-1-1.6-1.5-2.4c-0.3-0.5-0.4-1.1-0.6-1.7c0.1,0,0.3,0,0.4,0.1
	c0.2,0.3,0.4,0.6,0.6,0.8c0.1,0.1,0.1,0.2,0.2,0.2c0.3,0.5,0.6,0.9,0.9,1.4l-0.1-0.1c0.2,0.3,0.4,0.6,0.7,0.9
	c0.1,0.1,0.1,0.1,0.2,0.2c0.1,0.3,0.3,0.7,0.4,1l-0.1-0.1c0.1,0.6,0.3,1.1,0.5,1.8C146.3,108,146.1,108,145.8,108L145.8,108z"/>
<path class="st0" d="M51,107.5c0.3,0,0.5-0.1,0.8-0.1c0,0.2,0,0.4,0,0.5C51.6,107.8,51.3,107.7,51,107.5L51,107.5z"/>
<path class="st0" d="M49.1,126.1c-0.6,0.4-1.1,0.9-1.7,1.3c0.4-1.8,3.2-5.5,4.9-6.7c0.6,0.5,0.3,1,0,1.4c-1,1.6-2,3.1-3.2,5V126.1
	c0-0.1,0-0.2,0-0.3L49.1,126.1L49.1,126.1z"/>
<path class="st0" d="M137.4,98.6c-0.9-1.2-1-2.4-0.8-3.7c0.2,0.5,0.5,1.1,0.8,1.6c0.4,0.1,0.9,0,1.1,0.3c0.4,0.4,0.8,1,0.2,1.7
	c-0.3-0.2-0.5-0.4-0.8-0.6C137.7,98.1,137.6,98.3,137.4,98.6L137.4,98.6z"/>
<path class="st0" d="M135.2,97.3c-0.1-1-0.2-2-0.4-2.9c1,1.2,1.1,2.6,1.5,3.9C135.5,98.3,135.6,97.6,135.2,97.3
	C135.2,97.3,135.2,97.3,135.2,97.3z"/>
<path class="st0" d="M141.9,97.5c-0.2-0.4-0.5-0.7-0.4-0.8c0.1-0.2,0.4-0.4,0.7-0.6c0.1,0,0.4,0.4,0.4,0.5
	C142.4,97,142.2,97.2,141.9,97.5L141.9,97.5z"/>
<path class="st0" d="M144.2,93.2c-0.3,0.3-0.5,0.5-0.7,0.5c-0.2,0-0.4-0.3-0.6-0.4c0.1-0.2,0.3-0.4,0.4-0.5
	C143.6,92.8,143.9,93,144.2,93.2L144.2,93.2z"/>
<path class="st0" d="M144.7,95.6c-0.1,0.2-0.2,0.4-0.3,0.5c-0.2-0.1-0.3-0.3-0.5-0.4c0.1-0.1,0.2-0.3,0.4-0.4S144.5,95.5,144.7,95.6
	L144.7,95.6z"/>
<path class="st0" d="M140.1,98.1c0.2-0.2,0.3-0.3,0.4-0.4c0.1,0,0.3,0.1,0.3,0.1c0,0.2-0.1,0.3-0.2,0.5
	C140.5,98.3,140.4,98.3,140.1,98.1L140.1,98.1z"/>
<path class="st0" d="M133.1,103.9c-0.1,0.4-0.3,0.8-0.4,1.2l0.1,0.1C132.9,104.7,133.1,104.3,133.1,103.9
	C133.2,103.9,133.1,103.9,133.1,103.9z"/>
<path class="st0" d="M132.8,105.1c-0.1,0.1-0.1,0.2-0.2,0.3c0-0.1,0-0.1,0-0.1C132.6,105.2,132.7,105.2,132.8,105.1L132.8,105.1
	L132.8,105.1z"/>
<path class="st0" d="M134,101.4c0.1,0,0.3,0,0.5,0c-0.1,0.3-0.3,0.5-0.5,0.8l0.1,0C134,102,134,101.7,134,101.4L134,101.4z"/>
<path class="st0" d="M133.6,94.5c-0.1-0.1-0.2-0.3-0.3-0.4C133.8,94,133.6,94.3,133.6,94.5L133.6,94.5L133.6,94.5z"/>
<path class="st0" d="M133.6,103c0.1-0.3,0.3-0.5,0.4-0.8l-0.1,0C133.8,102.5,133.7,102.7,133.6,103L133.6,103L133.6,103z"/>
<path class="st0" d="M133.5,103c-0.1,0.3-0.2,0.6-0.4,0.9l0.1,0L133.5,103L133.5,103L133.5,103z"/>
<path class="st0" d="M58.3,119.2c0.8-0.1,1.6-0.1,2.8-0.2c-0.5,0.6-0.8,1-1,1c-0.6,0-1.2-0.2-1.8-0.3
	C58.3,119.7,58.3,119.5,58.3,119.2z"/>
<path class="st0" d="M65.1,112.6c-0.3,0.3-0.5,0.4-0.7,0.6c-0.2-0.2-0.4-0.4-0.5-0.6c0-0.1,0.2-0.4,0.3-0.4
	C64.5,112.2,64.7,112.3,65.1,112.6L65.1,112.6z"/>
<path class="st0" d="M56.8,114.4c0,0.2,0.1,0.4,0.1,0.5c0,0.3,0,0.7-0.4,0.8c-0.1,0-0.3-0.1-0.3-0.2c-0.3-0.4,0-0.8,0.3-1
	C56.5,114.5,56.5,114.5,56.8,114.4z"/>
<path class="st0" d="M55.5,110.7c-0.8,0.3-1,0.5-1.2,0.5c-0.1,0-0.2-0.2-0.3-0.4c0.2-0.1,0.3-0.3,0.5-0.3
	C54.8,110.4,55,110.5,55.5,110.7L55.5,110.7z"/>
<path class="st0" d="M65,110.6c0.2,0.2,0.5,0.3,0.5,0.3c-0.1,0.2-0.2,0.4-0.4,0.6c-0.1-0.1-0.3-0.2-0.4-0.4
	C64.7,111,64.9,110.8,65,110.6L65,110.6z"/>
<path class="st0" d="M63,117.8c0.2-0.2,0.3-0.4,0.4-0.4c0.1,0,0.3,0.1,0.5,0.2c-0.1,0.2-0.2,0.4-0.4,0.6
	C63.3,118.1,63.2,118,63,117.8L63,117.8z"/>
<path class="st0" d="M56.2,116.8c0,0.1-0.1,0.2-0.1,0.3c-0.1-0.1-0.2-0.1-0.3-0.2c0-0.1,0-0.2,0.1-0.3
	C56,116.7,56.1,116.8,56.2,116.8L56.2,116.8z"/>
<path class="st0" d="M61.2,117.3c0.1,0.3,0.2,0.4,0.3,0.6c-0.2,0.1-0.3,0.2-0.5,0.2c0,0-0.2-0.2-0.2-0.3
	C61,117.7,61.1,117.6,61.2,117.3z"/>
<path class="st0" d="M55.2,109.2c-0.3-0.7-0.5-0.8-0.4-0.9c0.1-0.1,0.3-0.2,0.4-0.3c0.1,0.1,0.2,0.3,0.3,0.4
	C55.5,108.6,55.4,108.8,55.2,109.2z"/>
<path class="st0" d="M64.8,114.9c-0.1,0.1-0.1,0.3-0.2,0.3c-0.1,0-0.2-0.1-0.3-0.1c0.1-0.1,0.1-0.3,0.2-0.3
	C64.5,114.7,64.7,114.8,64.8,114.9z"/>
<path class="st0" d="M63,119.2c0,0.1-0.1,0.2-0.2,0.4c-0.1-0.1-0.3-0.1-0.3-0.2c0-0.1,0.1-0.2,0.1-0.4
	C62.8,119.1,62.9,119.2,63,119.2z"/>
<path class="st0" d="M53.7,113.5c0,0-0.1,0.1-0.1,0.1c-0.1,0-0.2-0.1-0.3-0.1c0.1,0,0.2-0.1,0.3-0.1
	C53.6,113.4,53.7,113.4,53.7,113.5z"/>
<path class="st0" d="M54.2,108.6c-0.1,0-0.2,0.1-0.3,0.1c0,0-0.1-0.1-0.1-0.1c0.1,0,0.2-0.1,0.3-0.1
	C54.1,108.4,54.1,108.5,54.2,108.6z"/>
<path class="st0" d="M55.9,89.1c-0.5,0-1,0.1-1.4,0c-3.5-1.3-7.1-2.2-10.6-4.6c0.6,0,0.9-0.1,1.2-0.1c0.4,0.1,0.8,0.2,1.2,0.4
	c2.6,1.4,5.4,2.2,8.2,3.1C55,88.2,55.7,88.2,55.9,89.1L55.9,89.1z"/>
<path class="st0" d="M43.3,86.3c3.1,1.3,4.9,3,5.5,4.4c-0.1,0.1-0.2,0.2-0.4,0.1c-0.2,0-0.4-0.1-0.5-0.2
	C46.4,89.2,44.8,87.8,43.3,86.3L43.3,86.3z"/>
<path class="st0" d="M77.2,39.6c-0.4,0.3-0.7,0.6-1,0.7c-0.1,0-0.5-0.3-0.5-0.5c-0.1-0.4,0.2-0.8,0.7-0.8
	C76.6,39,76.8,39.3,77.2,39.6L77.2,39.6z"/>
<path class="st0" d="M76.2,30.2c0.4-0.3,0.7-0.5,0.9-0.5c0.1,0,0.4,0.4,0.4,0.5c-0.1,0.2-0.3,0.4-0.5,0.5
	C76.8,30.7,76.6,30.5,76.2,30.2L76.2,30.2z"/>
<path class="st0" d="M74.7,30.1c-0.2-0.4-0.4-0.6-0.3-0.8c0.1-0.2,0.3-0.3,0.5-0.5c0.1,0.2,0.4,0.4,0.4,0.6
	C75.3,29.6,75,29.7,74.7,30.1L74.7,30.1z"/>
<path class="st0" d="M79.3,39c-0.3,0.1-0.6,0.2-0.8,0.2c-0.1,0-0.2-0.3-0.3-0.4c0.2-0.1,0.4-0.3,0.6-0.3
	C78.9,38.5,79.1,38.7,79.3,39z"/>
<path class="st0" d="M77.4,36.4c0.2,0.2,0.3,0.3,0.4,0.4c-0.2,0.2-0.3,0.3-0.5,0.5C77.2,37.1,77,37,77,36.8
	C77,36.7,77.2,36.5,77.4,36.4L77.4,36.4z"/>
<path class="st0" d="M77.3,35.5c-0.2-0.2-0.4-0.4-0.4-0.5c0.1-0.2,0.3-0.5,0.5-0.5c0.1,0,0.3,0.3,0.5,0.4
	C77.7,35.2,77.5,35.3,77.3,35.5L77.3,35.5z"/>
<path class="st0" d="M77.6,31.2c0.1,0.3,0.3,0.5,0.3,0.8c0,0.1-0.2,0.3-0.4,0.4c-0.3,0.1-0.6-0.4-0.4-0.7
	C77.1,31.5,77.3,31.4,77.6,31.2z"/>
<path class="st0" d="M74.3,31.7c-0.5,0.2-0.7,0.3-0.8,0.3c-0.2,0-0.4-0.2-0.6-0.4c0.1-0.1,0.2-0.4,0.3-0.4
	C73.5,31.2,73.7,31.4,74.3,31.7L74.3,31.7z"/>
<path class="st0" d="M70.2,31.8c-0.1,0.2-0.2,0.3-0.4,0.5c-0.2-0.1-0.3-0.3-0.5-0.4c0.1-0.1,0.2-0.3,0.4-0.4
	C69.8,31.5,70,31.7,70.2,31.8L70.2,31.8z"/>
<path class="st0" d="M71.4,37.9c0.2,0.2,0.4,0.3,0.4,0.5c0,0.1-0.2,0.3-0.3,0.4c-0.1-0.1-0.4-0.2-0.4-0.3
	C71.1,38.3,71.3,38.1,71.4,37.9L71.4,37.9z"/>
<path class="st0" d="M79.6,32.4c0.2,0.1,0.3,0.2,0.4,0.2c-0.1,0.1-0.2,0.3-0.3,0.4c0,0-0.3-0.1-0.3-0.2
	C79.4,32.7,79.5,32.6,79.6,32.4z"/>
<path class="st0" d="M67.5,33.8c0.1,0.1,0.1,0.2,0.2,0.3c-0.1,0.1-0.3,0.2-0.4,0.2c-0.1-0.1-0.2-0.2-0.1-0.3S67.4,33.8,67.5,33.8
	L67.5,33.8z"/>
<path class="st0" d="M74.8,34.3c0.1,0.3,0.3,0.5,0.2,0.5c-0.1,0.1-0.3,0.2-0.4,0.3c-0.1-0.1-0.2-0.2-0.2-0.3
	C74.5,34.7,74.6,34.5,74.8,34.3z"/>
<path class="st0" d="M74.3,42.3c-0.2-0.7-0.4-0.9-0.3-1s0.3-0.2,0.4-0.2c0.1,0,0.2,0.2,0.2,0.3C74.5,41.6,74.4,41.8,74.3,42.3
	L74.3,42.3z"/>
<path class="st0" d="M70.8,36.4c-0.1,0.1-0.2,0.1-0.3,0.2c-0.1-0.1-0.1-0.3-0.2-0.4c0.1,0,0.2-0.1,0.3,0
	C70.8,36.1,70.8,36.3,70.8,36.4L70.8,36.4z"/>
<path class="st0" d="M79.9,35.8c-0.1,0-0.2,0.1-0.3,0.1c0,0-0.1-0.1-0.1-0.1c0.1,0,0.2-0.1,0.3-0.1C79.8,35.7,79.8,35.8,79.9,35.8z"
	/>
<path class="st0" d="M117.9,48.7c-0.3-0.3-0.5-0.6-0.5-0.7c0-0.2,0.3-0.4,0.5-0.5c0.1,0,0.4,0.2,0.4,0.3
	C118.3,48,118.1,48.3,117.9,48.7z"/>
<path class="st0" d="M123.3,47.6c-0.2-0.2-0.3-0.3-0.5-0.4c0.2-0.2,0.3-0.3,0.4-0.5c0.1,0.1,0.3,0.2,0.3,0.4S123.4,47.4,123.3,47.6
	L123.3,47.6z"/>
<path class="st0" d="M118.2,45.5c-0.3,0.3-0.6,0.5-0.7,0.5c-0.2,0-0.4-0.3-0.4-0.5c0-0.1,0.2-0.4,0.4-0.4
	C117.6,45.2,117.8,45.4,118.2,45.5L118.2,45.5z"/>
<path class="st0" d="M121.7,48.9c0.2,0.2,0.4,0.3,0.4,0.5c0,0.1-0.2,0.3-0.3,0.4c-0.1,0-0.4-0.2-0.4-0.3
	C121.3,49.3,121.5,49.1,121.7,48.9L121.7,48.9z"/>
<path class="st0" d="M115.4,48.1c-0.3,0.1-0.6,0.2-0.8,0.2c-0.1,0-0.2-0.3-0.3-0.4c0.2-0.1,0.4-0.3,0.6-0.3
	C115.1,47.6,115.2,47.9,115.4,48.1z"/>
<path class="st0" d="M58.5,48.7c0.1-0.2,0.1-0.4,0.2-0.5c2-1.5,3.9-3.1,5.9-4.6c0.1-0.1,0.3-0.1,0.6,0.1c-2.2,1.7-4.3,3.5-6.5,5.2
	C58.6,48.9,58.5,48.8,58.5,48.7L58.5,48.7z"/>
<path class="st0" d="M75.3,58.4c-0.2-0.3-0.4-0.7-0.4-1c-0.2-3-0.3-6.1-0.4-9.2c0-0.6,0.2-1.2,0.7-1.7v2.3l0.3,0
	c0.1-0.7,0.2-1.4,0.3-2.2C76.5,50.6,75.2,54.4,75.3,58.4L75.3,58.4z"/>
<path class="st0" d="M117.1,80v1.1c0,0-0.1,0-0.1,0C117.1,80.8,117.1,80.4,117.1,80L117.1,80L117.1,80z"/>
<path class="st0" d="M111.9,104.3c0-0.3,0-0.6,0-0.9C112.1,103.7,112.3,104,111.9,104.3z"/>
<path class="st0" d="M71.9,47.1c-0.1,0.3-0.1,0.7-0.3,1c-1.2,2.3-2.5,4.7-3.7,7c-0.2,0.3-0.4,0.6-0.9,0.8c0.2-0.6,0.4-1.3,0.7-1.8
	c1.2-2.2,2.4-4.3,3.6-6.4C71.4,47.4,71.7,47.3,71.9,47.1L71.9,47.1L71.9,47.1z"/>
<path class="st0" d="M71.9,47.1c0.1-0.2,0.1-0.3,0.2-0.5c0,0,0.1,0.1,0.1,0.1C72.1,46.9,72,47,71.9,47.1L71.9,47.1z"/>
<path class="st0" d="M60.3,126.3c0,1.1,0.1,2.3,0.2,3.4c0.1,0,0.2,0,0.2,0c0.2-2,0.3-3.9,0.5-6.2c0.2,0.4,0.4,0.7,0.4,0.9
	c0.1,0.8,0.1,1.6,0.1,2.4c0,1.9-0.1,3.8-0.2,5.7c0,0.3-0.3,0.7-0.5,0.7c-0.2,0-0.7-0.2-0.8-0.5c-0.2-0.5-0.3-1.1-0.3-1.6
	c0-1.6,0-3.2,0-4.9C60.1,126.3,60.2,126.3,60.3,126.3L60.3,126.3z"/>
<path class="st0" d="M65.6,92.6c-0.3,3.5-1.6,6.8-2.5,10.2c0-0.1-0.2-0.3-0.1-0.4C63.5,99,64.5,95.8,65.6,92.6L65.6,92.6z"/>
<path class="st0" d="M76.4,109.2h3.3c-0.4,0.3-0.5,0.6-0.7,0.6c-2.8,0.3-5.7,0.6-8.5,0.9c-0.4,0-0.8-0.2-1.2-0.5
	c1.9-0.2,3.9-0.4,5.8-0.6C75.5,109.5,76,109.3,76.4,109.2L76.4,109.2L76.4,109.2z"/>
<path class="st0" d="M76.4,109.2h-4.6c0-0.1,0-0.2,0-0.3c1.5-0.1,3-0.1,4.5-0.2l0,0C76.3,108.9,76.3,109,76.4,109.2L76.4,109.2
	L76.4,109.2z"/>
<path class="st0" d="M76.3,108.7c0.1-0.1,0.2-0.1,0.3-0.2C76.5,108.6,76.4,108.7,76.3,108.7L76.3,108.7L76.3,108.7z"/>
<path class="st0" d="M70.6,131.2c-0.8-0.2-1.2-0.7-1.6-1.2c-3.9-5.1-4.4-5.8-4.6-7.4C65.5,123.3,69.1,128.3,70.6,131.2L70.6,131.2z"
	/>
<path class="st0" d="M66.4,101.9c-0.1-0.1-0.2-0.2-0.2-0.3c0.7-1.8,1.4-3.7,2.1-5.7C68.6,97.6,67.6,100.5,66.4,101.9L66.4,101.9z"/>
<path class="st0" d="M73.2,26.7c-0.4-1.8,0-3,0.5-4.2c0.1-0.2,0.3-0.4,0.6-0.5c0.4-0.2,0.8-0.3,1.2-0.5c0.1,0.1,0.2,0.3,0.1,0.4
	C75,23.5,74.3,25,73.2,26.7L73.2,26.7z"/>
<path class="st0" d="M74.3,102.7c-1.9,0.5-3.6,1.4-4.9,2.8c-0.6,0.2-1.2,0.4-1.8,0.7c-0.3-0.4,0.1-0.6,0.3-0.8
	c1.1-0.7,2.3-1.5,3.4-2.1c1.7-1,3.4-1.9,5.2-2.8c0.4-0.2,0.8-0.4,1.4-0.3c-0.1,0.2-0.2,0.4-0.4,0.5C76.5,101.3,75.4,102,74.3,102.7
	L74.3,102.7z"/>
<path class="st0" d="M75.6,102.7c0.1-0.1,0.2-0.2,0.3-0.3l0.1,0.1C75.8,102.5,75.7,102.6,75.6,102.7
	C75.5,102.6,75.6,102.7,75.6,102.7z"/>
<path class="st0" d="M118.5,91.3c0-0.1,0-0.2,0-0.3C118.5,91,118.5,91.2,118.5,91.3L118.5,91.3L118.5,91.3z"/>
<path class="st0" d="M118.1,59.4c-0.1,0.4-0.3,0.8-0.4,1.2c-0.2,0-0.4-0.1-0.7-0.1c0.4-1.7,0.8-3.5,1.2-5.2c0.1,0,0.2,0,0.3,0v2
	C118.3,58,118.2,58.7,118.1,59.4z"/>
</svg>
