<?xml version="1.0" encoding="UTF-8"?><svg id="Livello_1" xmlns="http://www.w3.org/2000/svg" viewBox="0 0 266.23 112.64"><defs><style>.cls-1{fill:#069460;}</style></defs><path class="cls-1" d="M76.78,15.19c-.3-.32-.48-.7-.53-1.15-.07-.56,.07-1.05,.41-1.5,.35-.44,.8-.68,1.35-.75,.55-.07,1.05,.06,1.48,.41,.07,.06,.14,.12,.21,.18l11.08,11.68c1.39-.56,2.53-.81,3.39-.75l.02,.03,6.58,.48c.91,.18,1.56,.69,1.96,1.52l5.11,7.6c.18,.25,.29,.55,.34,.89,.06,.55-.08,1.05-.42,1.48-.34,.44-.78,.7-1.34,.76-.56,.06-1.07-.08-1.5-.41-.17-.14-.32-.29-.44-.46l-5.01-7.41-2.66-.19,4.8,8c.67,1.23,1.15,2.37,1.44,3.41,.63,1.8,1.45,2.94,2.47,3.39,1.65,.33,3.89-.77,6.73-3.28h0s.08-.05,.13-.09c.45-.34,.95-.46,1.51-.38,.55,.07,.99,.33,1.32,.78,.34,.45,.46,.95,.38,1.51-.08,.49-.29,.9-.65,1.23-4.34,3.84-8.07,5.15-11.2,3.93-2.01-1.27-3.63-2.88-4.85-4.84-1.88,3.99-.91,7.56,2.94,10.7,.09,.09,.18,.18,.27,.29,.27,.32,.42,.68,.45,1.08,.01,.13,.01,.26,0,.39-.05,.56-.3,1.02-.73,1.37-.42,.35-.92,.5-1.48,.44-.42-.04-.78-.19-1.09-.44h0c-.7-.57-1.34-1.17-1.91-1.79-.11-.12-.22-.25-.33-.37-3.57-4.12-4.25-9.07-2.02-14.83l-5.87-8.54-1.73-3.18-10.62-11.2h0Z"/><path class="cls-1" d="M88.99,15.42c.74-.95,1.71-1.5,2.91-1.63,1.19-.14,2.26,.17,3.21,.91,.95,.74,1.49,1.71,1.63,2.91,.14,1.19-.16,2.26-.9,3.21-.74,.95-1.71,1.49-2.9,1.64-1.19,.13-2.26-.17-3.21-.9-.25-.21-.47-.42-.66-.64-.29-.33-.52-.7-.67-1.1-.15-.36-.25-.76-.29-1.17-.15-1.19,.15-2.26,.89-3.21"/><path class="cls-1" d="M111.57,38.35c-2.39,2.11-4.26,3.12-5.62,3.03-.68-.43-1.25-1.29-1.72-2.59-.22-.8-.21-1.51,.05-2.14,.68,.53,1.46,.75,2.34,.66h.02c.87-.11,1.57-.51,2.11-1.21v.02c.52-.68,.74-1.46,.64-2.32,0,0,0-.02,0-.03-.07-.53-.24-.99-.52-1.38-.01-.01-.02-.02-.03-.03l-3.29-4.89c.59,.36,1.14,.7,1.65,1.02,1.9,1.16,3.33,2.05,4.29,2.67,5.44,3.47,9.58,6.73,12.43,9.78l-.02,.18c-1.09-.28-2.2-.3-3.33-.05-1.36,.3-2.11,.92-2.25,1.86-.19,1.38-.44,2.36-.73,2.94-.49,.95-1.25,1.38-2.29,1.28-.15-.01-.69-.13-1.64-.34-.94-.21-1.49-.32-1.64-.34-.34-.03-.65-.03-.94,0,1.49-.78,3.05-1.89,4.69-3.34,0,0,.02,0,.03-.01,.55-.51,.88-1.14,1-1.89h0c.13-.89-.07-1.68-.6-2.38-.53-.7-1.22-1.1-2.07-1.22-.87-.13-1.66,.07-2.36,.6l.02-.03s-.03,.02-.04,.03c-.07,.04-.13,.08-.19,.14"/><path class="cls-1" d="M33.21,31.56c-4.31,0-8.02,2.69-9.93,7.19-1.51,3.56-1.4,7.25,.28,8.99,.89,.92,1.92,1.39,3.06,1.39,1.64,0,3.13-.96,4.45-1.8,.79-.51,1.68-1.08,2.15-1.08s1.39,.57,2.2,1.07c1.33,.83,2.84,1.77,4.46,1.77,1.13,0,2.13-.45,2.99-1.35,1.71-1.78,1.84-5.54,.31-9.13-1.88-4.41-5.61-7.04-9.97-7.04"/><path class="cls-1" d="M28.91,29.9c.2,0,.41-.02,.61-.06,2.26-.46,3.56-3.35,2.97-6.59-.54-2.92-2.44-5.04-4.53-5.04-.2,0-.41,.02-.61,.06-2.26,.46-3.56,3.35-2.97,6.59,.54,2.92,2.44,5.04,4.53,5.04"/><path class="cls-1" d="M23.89,28.71c-1.03-1.5-2.58-2.43-4.04-2.43-.7,0-1.36,.21-1.89,.62-1.68,1.28-1.76,4.07-.2,6.35,1.03,1.5,2.58,2.43,4.04,2.43,.7,0,1.36-.22,1.89-.62,1.68-1.28,1.76-4.07,.2-6.35"/><path class="cls-1" d="M36.91,29.84c.2,.04,.4,.06,.61,.06,2.09,0,3.99-2.12,4.53-5.04,.59-3.23-.71-6.13-2.97-6.59-.2-.04-.4-.06-.61-.06-2.09,0-3.99,2.12-4.53,5.04-.6,3.23,.71,6.13,2.97,6.59"/><path class="cls-1" d="M48.46,26.91c-.53-.41-1.19-.62-1.89-.62-1.46,0-3.01,.93-4.04,2.43-1.57,2.28-1.48,5.07,.2,6.35,.53,.41,1.19,.62,1.89,.62,1.46,0,3.01-.93,4.04-2.43,1.57-2.28,1.48-5.07-.2-6.35"/><g><path class="cls-1" d="M21.52,71.8c-.25,.65-.29,1.36-.4,2.02-.08,.49-.04,1.48-.48,1.87-.37,.33-1.04,.32-1.42,.17-.61-.23-.59-.62-.51-1.24,.4-3.07,.92-6.16,1.54-9.23,.27-1.37,.59-1.93,2-2.27,1.13-.27,1.95,.51,2.24,1.49,.62,2.06-.36,6.33-2.97,7.19Zm.75-4.8c-.14,0-.28,1.03-.31,1.2,.03,0,.29-1.1,.31-1.2Zm.05-.75"/><path class="cls-1" d="M26.44,73.74c.54-1.77,1.07-3.54,1.58-5.32,.37-1.29,.94-3.67,2.27-4.48,1.26-.77,2.15,.33,2.29,1.32,.24,1.64,.05,3.52-.05,5.22-.06,.96,.28,3.72-.98,4.2-1.83,.7-1.39-1.47-1.4-2.45,0-.46-.18-1.15-.88-.63-.46,.34-.6,1.47-.83,1.96-.22,.48-.41,.9-.97,1.03-.66,.15-1.14-.22-1.04-.86Zm4-6.29c-.12,.29-1.08,2.49-.37,2.36,.57-.11,.39-2.01,.37-2.36Z"/><path class="cls-1" d="M38.73,72.24c-.65,1.49-2.22,3.97-3.66,2.09-1.21-1.58-.36-4.38,0-6.32,.15-.82,0-2.46,.57-3.15,.54-.66,1.46-.3,1.63,.32,.23,.89-.27,2.32-.4,3.27-.15,1.04-.54,2.55-.28,3.51,.38-.35,.47-1.25,.61-1.73,.19-.62,.38-1.24,.57-1.85,.23-.74,.49-2.92,1.19-3.44,.97-.72,1.63,.33,1.67,1.09,.06,1.28-.03,2.59-.1,3.89,.48-.24,.7-1.99,.84-2.5,.17-.63,.27-2.13,1.02-2.47,2.26-1.05,.78,3,.59,3.68-.3,1.08-.54,2.16-.74,3.24-.13,.71-.31,1.68-.91,2.23-.53,.48-1.24,.48-1.75,.17-.65-.39-.68-1.31-.83-2.02Z"/></g><g><path class="cls-1" d="M85.3,93.61c-.25,.65-.29,1.36-.4,2.02-.08,.49-.04,1.48-.48,1.87-.37,.33-1.04,.32-1.42,.17-.61-.23-.59-.62-.51-1.24,.4-3.07,.92-6.16,1.54-9.23,.27-1.37,.59-1.93,2-2.27,1.13-.27,1.95,.51,2.24,1.49,.62,2.06-.36,6.33-2.97,7.19Zm.75-4.8c-.14,0-.28,1.03-.31,1.2,.03,0,.29-1.1,.31-1.2Zm.05-.75"/><path class="cls-1" d="M97.29,90.2c-.28,1.54-.82,2.99-1.45,4.47-.45,1.06-1.34,2.69-2.58,3.03-3.29,.9-3.18-3.57-2.96-5.6,.16-1.44,.48-2.95,.99-4.37,.57-1.57,1.26-2.28,2.89-2.53,1.13-.17,2.27,.2,2.87,1.06,.72,1.04,.32,2.66,.23,3.94Zm-4.46,5.19c1.03-1.33,1.56-2.85,1.92-4.4,.22-.92,1.07-3.65-.14-3.96-2-.5-2.21,7.18-1.78,8.36Z"/><path class="cls-1" d="M103.51,94.05c-.65,1.49-2.22,3.97-3.66,2.09-1.21-1.58-.36-4.38,0-6.32,.15-.82,0-2.46,.57-3.15,.54-.66,1.46-.3,1.63,.32,.23,.89-.27,2.32-.4,3.27-.15,1.04-.54,2.55-.28,3.51,.38-.35,.47-1.25,.61-1.73,.19-.62,.38-1.24,.57-1.85,.23-.74,.49-2.92,1.19-3.44,.97-.72,1.63,.33,1.67,1.09,.06,1.28-.03,2.59-.1,3.89,.48-.24,.7-1.99,.84-2.5,.17-.63,.27-2.13,1.02-2.47,2.26-1.05,.78,3,.59,3.68-.3,1.08-.54,2.16-.74,3.24-.13,.71-.31,1.68-.91,2.23-.53,.48-1.24,.48-1.75,.17-.64-.39-.68-1.31-.83-2.02Z"/><path class="cls-1" d="M113.22,86.44c-.35,.99-.51,2.24-.58,3.24-.09,1.3,.71,.53,1.57,.9,.63,.27,.79,.9,.08,1.35-.98,.63-1.68-.28-1.91,1.18-.1,.69-.34,2.37,.15,2.88,.53,.56,1.89-.17,2.39,.5,1.18,1.58-2.99,1.46-3.61,1.12-1.52-.84-1.15-3.35-1.05-4.94,.12-2.09,.49-4.25,.91-6.36,.21-1.03,.48-1.5,1.58-1.67,.81-.12,2.13-.31,2.88-.09,.54,.16,1.11,.8,.55,1.4-.52,.56-2.25,.28-2.97,.47Z"/><path class="cls-1" d="M120.51,95.61c-.2,.67-.13,1.41-.86,1.72-.9,.39-1.41-.1-1.46-.86-.11-1.71,.25-3.62,.58-5.37,.34-1.78,.43-3.8,1.02-5.55,.46-1.35,1.79-1.37,2.79-.9,1.28,.59,1.45,1.84,1.28,3.23-.1,.83-.24,1.7-.53,2.52-.28,.81-.8,1.5-1.17,2.27-.44,.93-.18,1.31,.35,1.99,.33,.42,1.13,1.08,1.07,1.72-.07,.68-.81,.89-1.37,.81-.84-.13-1.2-1.04-1.71-1.58Zm1.17-8.44c-.2,1.11-.41,2.22-.61,3.33,.56-1.1,.67-2.21,.61-3.33Z"/></g><g><path class="cls-1" d="M196.34,73.99c-.15,.89-1.31,1.11-1.79,.56-.56-.63-.06-2.22,.07-3.04,.21-1.35,.5-2.7,.8-4.05,.19-.83,.25-2.64,.84-3.36,.41-.5,1.22-.32,1.53,.1,.46,.62-.17,1.94-.3,2.71-.43,2.36-.8,4.72-1.15,7.09Z"/><path class="cls-1" d="M199.85,69.81c.15-1.3,2.33-7.47,4.52-5.76,.9,.7-1,1.86-1.45,2.66-.71,1.24-1.09,2.81-1.12,4.13-.03,1.25,.34,1.79,1.46,2.15,.47,.15,1.1,.33,.88,1.01-.15,.48-.56,.63-1,.68-2.77,.33-3.83-2.56-3.3-4.87Z"/><path class="cls-1" d="M213.45,68.39c-.28,1.54-.82,2.99-1.45,4.47-.45,1.06-1.34,2.69-2.58,3.03-3.29,.9-3.18-3.57-2.96-5.6,.16-1.44,.48-2.95,.99-4.37,.57-1.57,1.26-2.28,2.89-2.53,1.13-.17,2.27,.2,2.87,1.06,.72,1.04,.32,2.66,.23,3.94Zm-4.46,5.19c1.03-1.33,1.56-2.85,1.92-4.4,.22-.92,1.07-3.65-.14-3.96-2-.5-2.21,7.18-1.78,8.36Z"/><path class="cls-1" d="M218.22,70.31c-.5,.97-.48,2.54-.65,3.56-.12,.69-.05,2-.98,2.26-2.21,.61-.73-4.06-.58-5,.2-1.2,.3-2.44,.65-3.63,.3-.99,.6-2.36,1.83-2.26,2.22,.19,1.21,3.63,2.06,5.02,.61-.47,.52-2.73,.59-3.4,.11-1.07-.02-2.69,.45-3.73,.42-.95,1.66-.62,1.85,.16,.26,1.04-.21,2.73-.29,3.85-.08,1.2-.4,2.39-.52,3.58-.1,.99,.09,2.54-.95,3.27-2.36,1.67-2.73-2.84-3.47-3.67Z"/><path class="cls-1" d="M225.29,73.74c.54-1.77,1.07-3.54,1.58-5.32,.37-1.29,.94-3.67,2.27-4.48,1.26-.77,2.15,.33,2.29,1.32,.24,1.64,.05,3.52-.05,5.22-.06,.96,.28,3.72-.98,4.2-1.83,.7-1.39-1.47-1.4-2.45,0-.46-.18-1.15-.88-.63-.46,.34-.6,1.47-.83,1.96-.22,.48-.41,.9-.97,1.03-.66,.15-1.14-.22-1.04-.86Zm4-6.29c-.12,.29-1.08,2.49-.37,2.36,.57-.11,.39-2.01,.37-2.36Z"/><path class="cls-1" d="M238.17,69.01c.27-1.66,.34-6.42,3.13-5.25,2.23,.93,2.25,4.24,1.67,6.46-.45,1.72-2.1,4.78-4.16,5.03-2.84,.34-.25-6.24-.63-6.24Zm2.67-2.13c-.13,.79-1.09,4.14-.53,4.52,.59-1.5,.86-3.07,.53-4.52Z"/><path class="cls-1" d="M247.08,73.99c-.15,.89-1.31,1.11-1.79,.56-.56-.63-.06-2.22,.07-3.04,.21-1.35,.5-2.7,.8-4.05,.19-.83,.25-2.64,.84-3.36,.41-.5,1.22-.32,1.53,.1,.46,.62-.17,1.94-.3,2.71-.43,2.36-.8,4.72-1.15,7.09Z"/></g><g><path class="cls-1" d="M209.93,38.55c-22.89-11.01-49.2-12.57-73.2-4.19-1.65,.58-.94,3.21,.73,2.63,23.29-8.14,48.85-6.79,71.09,3.91,1.57,.76,2.96-1.59,1.38-2.35"/><path class="cls-1" d="M201.71,28.05c2.18,3.78,4.35,7.56,6.53,11.34,.87,1.52,3.23,.15,2.35-1.38-2.18-3.78-4.35-7.56-6.53-11.34-.87-1.52-3.23-.15-2.35,1.38"/><path class="cls-1" d="M209.66,38.52c-4.79,1.86-9.59,3.72-14.38,5.58-1.62,.63-.91,3.27,.73,2.63,4.79-1.86,9.58-3.72,14.38-5.58,1.62-.63,.91-3.27-.73-2.63"/></g><path class="cls-1" d="M71.4,37.15c-.61,1.85-2.39,.41-3.5,.95-1.26,.61-.5,2.6-2.41,2.95-1.87,.34-1.73-1.46-1.6-2.77-.86-.36-3.13-1.18-1.38-2.51,1.4-1.06,1.82,.18,2.32-1.71,.33-1.24,.85-2.46,2.34-1.86,1.42,.57,.41,2.42,1.55,3.01,.9,.46,3.31,.02,2.69,1.93Z"/><g><path class="cls-1" d="M87.3,71.24c.18-1.23-.74-2.16-.65-3.43,.1-1.26,.66-2.75,1.87-3.54,.67-.43,2.32-.62,1.93,.61-.15,.46-.88,.78-1.19,1.16-.42,.53-.63,1.23-.67,1.84-.08,1.22,.71,2.13,.69,3.35-.02,1.33-.67,2.66-1.86,3.53-.62,.45-2.99,1.05-2.32-.44,.22-.5,1.18-.87,1.55-1.35,.4-.52,.59-1.14,.65-1.74Z"/><path class="cls-1" d="M94.47,71.93c.58-.36,.72-1.71,.86-2.26,.24-.92,.42-1.83,.61-2.76,.12-.59,.17-1.3,.88-1.5,.53-.14,1.21,.28,1.28,.75,.08,.6-.35,1.66-.47,2.33-.15,.86-.37,1.71-.62,2.56-.38,1.3-.91,3.46-2.63,3.46-3.26,0-1.94-5.59-1.31-7.62,.16-.51,.34-1.36,.97-1.52,.7-.18,1.13,.42,1.13,.96-.01,1.81-1.07,3.79-.7,5.59Z"/><path class="cls-1" d="M102.7,71.8c-.25,.65-.29,1.36-.4,2.02-.08,.49-.04,1.48-.48,1.87-.37,.33-1.04,.32-1.42,.17-.61-.23-.59-.62-.51-1.24,.4-3.07,.92-6.16,1.54-9.23,.27-1.37,.59-1.93,2-2.27,1.13-.27,1.95,.51,2.24,1.49,.62,2.06-.36,6.33-2.97,7.19Zm.75-4.8c-.14,0-.28,1.03-.31,1.2,.03,0,.29-1.1,.31-1.2Zm.05-.75"/><path class="cls-1" d="M110.67,64.63c-.35,.99-.51,2.24-.58,3.24-.09,1.3,.71,.53,1.57,.9,.63,.27,.79,.9,.08,1.35-.98,.63-1.68-.28-1.91,1.18-.1,.69-.34,2.37,.15,2.88,.53,.56,1.89-.17,2.39,.5,1.18,1.58-2.99,1.46-3.61,1.12-1.52-.84-1.15-3.35-1.05-4.94,.12-2.09,.49-4.25,.91-6.36,.21-1.03,.48-1.5,1.58-1.67,.81-.12,2.13-.31,2.88-.09,.54,.16,1.11,.8,.55,1.4-.52,.56-2.25,.28-2.97,.47Z"/><path class="cls-1" d="M117.97,73.8c-.2,.67-.13,1.41-.86,1.72-.9,.39-1.41-.1-1.46-.86-.11-1.71,.25-3.62,.58-5.37,.34-1.78,.43-3.8,1.02-5.55,.46-1.35,1.79-1.37,2.79-.9,1.28,.59,1.45,1.84,1.28,3.23-.1,.83-.24,1.7-.53,2.52-.28,.81-.8,1.5-1.17,2.27-.44,.93-.18,1.31,.35,1.99,.33,.42,1.13,1.08,1.07,1.72-.07,.68-.81,.89-1.37,.81-.84-.13-1.2-1.04-1.71-1.58Zm1.17-8.44c-.2,1.11-.41,2.22-.61,3.33,.56-1.1,.67-2.21,.61-3.33Z"/></g><g><path class="cls-1" d="M197.47,93.74c.58-.36,.72-1.71,.86-2.26,.24-.92,.42-1.83,.61-2.76,.12-.59,.17-1.3,.88-1.5,.53-.14,1.21,.28,1.28,.75,.08,.6-.35,1.66-.47,2.33-.15,.86-.37,1.71-.62,2.56-.38,1.3-.91,3.46-2.63,3.46-3.26,0-1.94-5.59-1.31-7.62,.16-.51,.34-1.36,.97-1.52,.7-.18,1.13,.42,1.13,.96-.01,1.81-1.07,3.79-.7,5.59Z"/><path class="cls-1" d="M205.69,92.12c-.5,.97-.48,2.54-.65,3.56-.12,.69-.05,2-.98,2.26-2.21,.61-.73-4.06-.58-5,.2-1.2,.3-2.44,.65-3.63,.3-.99,.6-2.36,1.83-2.26,2.22,.19,1.21,3.63,2.06,5.02,.61-.47,.52-2.73,.59-3.4,.11-1.07-.02-2.69,.45-3.73,.42-.95,1.66-.62,1.85,.16,.26,1.04-.21,2.73-.29,3.85-.08,1.2-.4,2.39-.52,3.58-.1,.99,.09,2.54-.95,3.27-2.36,1.67-2.73-2.84-3.47-3.67Z"/><path class="cls-1" d="M219.97,86.44c-.35,.99-.51,2.24-.58,3.24-.09,1.3,.71,.53,1.57,.9,.63,.27,.79,.9,.08,1.35-.98,.63-1.68-.28-1.91,1.18-.1,.69-.34,2.37,.15,2.88,.53,.56,1.89-.17,2.39,.5,1.18,1.58-2.99,1.46-3.61,1.12-1.52-.84-1.15-3.35-1.05-4.94,.12-2.09,.49-4.25,.91-6.36,.21-1.03,.48-1.5,1.58-1.67,.81-.12,2.13-.31,2.88-.09,.54,.16,1.11,.8,.55,1.4-.52,.56-2.25,.28-2.97,.47Z"/><path class="cls-1" d="M227.27,95.61c-.2,.67-.13,1.41-.86,1.72-.9,.39-1.41-.1-1.46-.86-.11-1.71,.25-3.62,.58-5.37,.34-1.78,.43-3.8,1.02-5.55,.46-1.35,1.79-1.37,2.79-.9,1.28,.59,1.45,1.84,1.28,3.23-.1,.83-.24,1.7-.53,2.52-.28,.81-.8,1.5-1.17,2.27-.44,.93-.18,1.31,.35,1.99,.33,.42,1.13,1.08,1.07,1.72-.07,.68-.81,.89-1.37,.81-.84-.13-1.2-1.04-1.71-1.58Zm1.17-8.44c-.2,1.11-.41,2.22-.61,3.33,.56-1.1,.67-2.21,.61-3.33Z"/><path class="cls-1" d="M239.51,90.2c-.28,1.54-.82,2.99-1.45,4.47-.45,1.06-1.34,2.69-2.58,3.03-3.29,.9-3.18-3.57-2.96-5.6,.16-1.44,.48-2.95,.99-4.37,.57-1.57,1.26-2.28,2.89-2.53,1.13-.17,2.27,.2,2.87,1.06,.72,1.04,.32,2.66,.23,3.94Zm-4.46,5.19c1.03-1.33,1.56-2.85,1.92-4.4,.22-.92,1.07-3.65-.14-3.96-2-.5-2.21,7.18-1.78,8.36Z"/><path class="cls-1" d="M244.52,86.44c-.35,.99-.51,2.24-.58,3.24-.09,1.3,.71,.53,1.57,.9,.63,.27,.79,.9,.08,1.35-.98,.63-1.68-.28-1.91,1.18-.1,.69-.34,2.37,.15,2.88,.53,.56,1.89-.17,2.39,.5,1.18,1.58-2.99,1.46-3.61,1.12-1.52-.84-1.15-3.35-1.05-4.94,.12-2.09,.49-4.25,.91-6.36,.21-1.03,.48-1.5,1.58-1.67,.81-.12,2.13-.31,2.88-.09,.54,.16,1.11,.8,.55,1.4-.52,.56-2.25,.28-2.97,.47Z"/></g></svg>