<?xml version="1.0" encoding="UTF-8"?><svg id="Livello_1" xmlns="http://www.w3.org/2000/svg" viewBox="0 0 223.54 250.26"><defs><style>.cls-1{letter-spacing:.1em;}.cls-2{letter-spacing:.1em;}.cls-3{letter-spacing:.1em;}.cls-4,.cls-5{fill:#e8532b;}.cls-6,.cls-7{fill:#069460;}.cls-8{fill:#715444;}.cls-5{font-family:Barlow-Regular, Barlow;font-size:11.9px;}.cls-7{font-family:Alice-Regular, Alice;font-size:15.71px;}.cls-9{letter-spacing:.03em;}.cls-10{letter-spacing:.14em;}</style></defs><text class="cls-5" transform="translate(29.05 209.4)"><tspan class="cls-3" x="0" y="0">PET</tspan><tspan class="cls-1" x="24.58" y="0">F</tspan><tspan class="cls-2" x="32.49" y="0">OOD 100% N</tspan><tspan class="cls-9" x="107.05" y="0">A</tspan><tspan class="cls-2" x="114.69" y="0">TU</tspan><tspan class="cls-10" x="131.55" y="0">R</tspan><tspan class="cls-2" x="140.47" y="0">ALE </tspan></text><g><path class="cls-4" d="M60.05,167.72c.02-.84,.02-1.42,0-1.79h0c-.18-3.17-1.33-5.67-3.41-7.44-2.07-1.76-4.79-2.57-8.06-2.38l-13.98,.79c-.43,.03-.82,.21-1.1,.53-.24,.27-.4,.6-.45,1.04l-2.23,33.91c-.07,.47,.07,.92,.39,1.25,.29,.3,.67,.47,1.09,.47,.03,0,.06,0,.1,0l6.89-.39c.44-.02,.82-.21,1.11-.53,.24-.27,.39-.6,.45-1.04l.73-11.48,5.27-.3c2.44-.14,4.65-.75,6.57-1.82,1.94-1.08,3.51-2.58,4.66-4.45,1.15-1.86,1.82-3.99,1.97-6.36Zm-10.01-.02c.07,1.16-.24,2.09-.94,2.84-.71,.76-1.63,1.16-2.84,1.23l-4.1,.23,.41-6.43,4.38-.25c.95-.06,1.68,.14,2.24,.59,.53,.43,.8,1,.85,1.79Z"/><path class="cls-4" d="M89.99,188.95l-8.14-33.39s-.02-.07-.03-.1c-.27-.75-.89-1.17-1.62-1.12l-9.13,.52c-.68,.04-1.24,.45-1.56,1.2l-12.57,34.56c-.28,.77-.02,1.27,.16,1.49,.16,.2,.52,.53,1.17,.53,.03,0,.07,0,.11,0l7.39-.42c.71-.04,1.28-.46,1.61-1.22l1.4-4.11,9.9-.56,.83,3.85c.09,.31,.26,.57,.51,.79,.21,.19,.59,.41,1.13,.38l7.44-.42c.58-.03,.92-.29,1.11-.49,.18-.2,.39-.55,.36-1.09v-.2c-.01-.06-.02-.12-.04-.18Zm-13.2-10.94l-5.1,.29,3.13-9.19,1.98,8.9Z"/><path class="cls-4" d="M129.56,151.55l-7.14,.4c-.82,.04-1.41,.56-1.58,1.32l-4.1,14.81-2.39-14.27c-.14-.84-.78-1.38-1.62-1.31l-6.74,.38c-.82,.05-1.42,.56-1.58,1.33l-3.96,14.72-2.38-14.2c-.13-.83-.79-1.39-1.62-1.31l-7.34,.41c-.96,.05-1.56,.71-1.51,1.64v.1s.02,.09,.02,.14l6.81,33.57c.2,.76,.78,1.22,1.54,1.22,.04,0,.07,0,.11,0l6.49-.37c.82-.05,1.42-.56,1.58-1.34l4.02-15.63,2.29,14.97c.05,.91,.72,1.52,1.64,1.46l6.94-.39c.81-.05,1.4-.53,1.57-1.25l10.49-34.54c.17-.67-.04-1.11-.25-1.36-.21-.25-.6-.55-1.31-.5Z"/><path class="cls-4" d="M159.53,149.86s-.06,0-.09,0l-22.91,1.29c-.41,.02-.78,.19-1.09,.49-.31,.31-.48,.71-.48,1.13l-2.23,33.86c-.07,.47,.07,.92,.39,1.25,.29,.3,.67,.46,1.1,.46,.03,0,.06,0,.09,0l22.91-1.29c.44-.02,.82-.21,1.11-.53,.24-.27,.39-.6,.45-1.04l.36-5.85c.07-.47-.07-.92-.39-1.25-.31-.32-.7-.48-1.19-.46l-14.33,.81,.33-5.13,9.12-.51c.43-.03,.82-.21,1.1-.53,.24-.27,.39-.6,.45-1.04l.36-5.8c.07-.47-.07-.92-.39-1.25-.31-.32-.72-.48-1.19-.46l-8.84,.5,.3-4.67,14.56-.82c.43-.03,.81-.21,1.1-.53,.24-.27,.39-.59,.45-1.03l.41-5.86c.07-.47-.07-.92-.39-1.25-.29-.3-.67-.46-1.09-.46Z"/><path class="cls-4" d="M190.15,166.42c1.27-1.84,2.01-4,2.2-6.46,.03-.77,.03-1.32,0-1.69-.17-3.09-1.27-5.54-3.27-7.29-1.99-1.74-4.61-2.53-7.79-2.35l-14.37,.81c-.41,.02-.78,.19-1.09,.49-.31,.31-.48,.71-.48,1.13l-2.23,33.86c-.07,.47,.07,.92,.39,1.25,.29,.3,.67,.46,1.1,.46,.03,0,.06,0,.09,0l6.89-.39c.43-.03,.82-.21,1.1-.53,.24-.27,.39-.59,.45-1.04l.82-12.54,2.03-.12,4.62,12.58c.28,.69,.89,1.1,1.66,1.04l7.24-.41c.5-.03,.9-.2,1.17-.51,.17-.19,.37-.53,.34-1.03-.01-.22-.06-.42-.15-.6l-5.2-12.79c1.82-.91,3.32-2.21,4.46-3.87Zm-7.82-6.48c.06,1.02-.21,1.83-.82,2.47-.63,.66-1.44,1.01-2.48,1.07l-4.5,.25,.35-5.63,4.72-.27c.86-.04,1.5,.12,1.99,.51,.46,.37,.69,.87,.73,1.59Z"/></g><g><text class="cls-7" transform="translate(73.89 231.63)"><tspan x="0" y="0">Agrispesa</tspan></text><g><path class="cls-6" d="M67.22,220.46h.35s.07,.02,.07,.07v4.68s-.02,.07-.07,.07h-.35s-.07-.02-.07-.07v-.29s0-.01-.01-.02c0,0-.01,0-.02,0-.1,.13-.23,.24-.38,.31-.15,.07-.32,.11-.5,.11-.32,0-.59-.08-.81-.25-.22-.17-.37-.39-.45-.68-.06-.21-.1-.5-.1-.87s.03-.67,.08-.85c.08-.29,.23-.52,.45-.69,.22-.17,.49-.25,.82-.25,.18,0,.34,.04,.5,.11,.15,.07,.28,.17,.38,.31,0,0,.02,.01,.02,.01,0,0,.01,0,.01-.02v-1.62s.02-.07,.07-.07Zm-.1,3.6c.02-.12,.03-.3,.03-.52s0-.39-.03-.52c-.02-.13-.05-.24-.1-.33-.06-.16-.15-.28-.27-.38s-.28-.14-.45-.14c-.18,0-.34,.05-.48,.14s-.23,.21-.29,.37c-.06,.1-.1,.21-.12,.34-.03,.13-.04,.3-.04,.53s0,.38,.03,.51c.02,.12,.05,.23,.1,.33,.06,.17,.15,.3,.29,.39,.14,.1,.31,.14,.5,.14s.34-.05,.46-.14,.22-.22,.28-.39c.04-.09,.07-.2,.09-.32Z"/><path class="cls-6" d="M70.91,222.06c.23,.21,.34,.49,.34,.84v2.31s-.02,.07-.07,.07h-.35s-.07-.02-.07-.07v-.28s0-.02-.01-.02c0,0-.02,0-.02,0-.11,.14-.26,.24-.45,.31-.18,.07-.39,.11-.61,.11-.33,0-.6-.08-.82-.25-.22-.17-.33-.42-.33-.76s.12-.62,.38-.82c.25-.2,.6-.3,1.04-.3h.8s.03,0,.03-.03v-.26c0-.23-.07-.42-.2-.55-.13-.13-.33-.2-.61-.2-.22,0-.4,.04-.54,.13-.14,.08-.22,.2-.25,.35-.01,.05-.04,.07-.08,.06l-.37-.05c-.05,0-.07-.03-.06-.05,.04-.26,.17-.47,.41-.63s.54-.24,.9-.24c.41,0,.73,.11,.96,.32Zm-.45,2.66c.2-.13,.3-.32,.3-.55v-.54s0-.03-.03-.03h-.72c-.3,0-.55,.06-.73,.19s-.28,.3-.28,.52c0,.2,.07,.35,.21,.46,.14,.1,.32,.15,.55,.15,.27,0,.5-.07,.7-.2Z"/></g></g><path class="cls-8" d="M184.37,40.9c-4.66-.6-16.7-.45-18.21-1.05-1.5-.6-5.27-6.02-12.64-6.17-7.37-.15-21.22,1.35-23.93,4.97-2.71,3.61-4.06,9.48-4.37,12.64,0,0-4.36,4.51-5.42,7.52-.66,1.9-1.57,4.95-2.87,11.79-1.02,9.09,3.76,13.82,12.35,15.14,3.44,.53,5.13-.59,2.81-10.42-2.31-9.83,1.14-15.2,1.14-15.2-2.64,12.5,8.24,28.44-.17,29.28-8.25,.84-14.93-4.68-18.01-7.82-.26,1.68-.53,3.44-.82,5.38,0,0-.76,1.96-1.2,2.41-.18,.18-2.59,3.01-5.35,6.46,4.64,2.35,10.43,4.14,17.45,4.14,9.1,0,17.92-3.27,24.83-9.21,.14-.12,.31-.14,.48-.11,1.09-6.41,2.2-25.05,8.04-25.05h17.61s9.03,1.2,9.93-17.61c0,0,3.01-6.47-1.66-7.07"/><path class="cls-4" d="M150.63,94.41c-.21-.12-.49-.1-.68,.07-6.91,5.94-15.72,9.21-24.83,9.21-20.78,0-31.1-15.54-31.21-15.72-8.51-12.08-21.82-19.66-36.51-20.79-.25-.02-.49,.13-.59,.36l-.08,.21c-.07,.16-.06,.35,.03,.5,.08,.15,.23,.26,.41,.3,8.58,1.7,14.81,9.29,14.81,18.05s-6.23,16.35-14.81,18.05c-.17,.04-.32,.14-.4,.3-.08,.16-.09,.34-.02,.5,7.66,18.51,25.55,30.48,45.58,30.48,24.08,0,44.52-17.21,48.6-40.91,.04-.25-.07-.49-.29-.61"/></svg>