<?xml version="1.0" encoding="UTF-8"?><svg id="Layer_1" xmlns="http://www.w3.org/2000/svg" viewBox="0 0 24 24"><defs><style>.cls-1{fill:#f2b614;}</style></defs><path class="cls-1" d="M3.27,12.49l2.91,2.13-1.11,3.42c-.37,1.09,.03,2.29,.97,2.95,.93,.68,2.19,.68,3.11-.02l2.85-2.1,2.85,2.09c1.17,.86,2.83,.61,3.69-.56,.5-.68,.65-1.57,.39-2.37l-1.11-3.42,2.91-2.13c1.18-.86,1.43-2.51,.57-3.69-.5-.68-1.29-1.08-2.13-1.08h-3.58l-1.09-3.38c-.44-1.39-1.93-2.15-3.32-1.71-.81,.26-1.45,.9-1.71,1.71l-1.09,3.38h-3.57c-1.46,0-2.64,1.19-2.64,2.64,0,.84,.4,1.63,1.08,2.13h0Z"/></svg>