<svg enable-background="new 0 0 256 256" height="256" viewBox="0 0 256 256" width="256" xmlns="http://www.w3.org/2000/svg"><path d="m137.051 128 75.475-75.475c2.5-2.5 2.5-6.551 0-9.051s-6.551-2.5-9.051 0l-75.475 75.475-75.475-75.474c-2.5-2.5-6.551-2.5-9.051 0s-2.5 6.551 0 9.051l75.475 75.474-75.475 75.475c-2.5 2.5-2.5 6.551 0 9.051 1.25 1.25 2.888 1.875 4.525 1.875s3.275-.625 4.525-1.875l75.476-75.475 75.475 75.475c1.25 1.25 2.888 1.875 4.525 1.875s3.275-.625 4.525-1.875c2.5-2.5 2.5-6.551 0-9.051z"/></svg>