<svg width="13" height="12" viewBox="0 0 13 12" fill="none" xmlns="http://www.w3.org/2000/svg">
<path d="M7.06314 10.2299C6.86788 10.4252 6.86788 10.7418 7.06314 10.9371C7.2584 11.1323 7.57499 11.1323 7.77025 10.937L7.06314 10.2299ZM12 6.00015L12.3536 6.3537L12.7071 6.00015L12.3536 5.6466L12 6.00015ZM7.77025 1.06328C7.57498 0.868014 7.2584 0.868014 7.06314 1.06328C6.86788 1.25854 6.86788 1.57512 7.06314 1.77038L7.77025 1.06328ZM1.16669 5.50015C0.890549 5.50015 0.666691 5.72401 0.666691 6.00015C0.666691 6.27629 0.890549 6.50015 1.16669 6.50015L1.16669 5.50015ZM7.77025 10.937L12.3536 6.3537L11.6464 5.6466L7.06314 10.2299L7.77025 10.937ZM12.3536 5.6466L7.77025 1.06328L7.06314 1.77038L11.6464 6.3537L12.3536 5.6466ZM12 5.50015L1.16669 5.50015L1.16669 6.50015L12 6.50015L12 5.50015Z" fill="#002333"/>
</svg>
