<svg width="188" height="60" viewBox="0 0 188 60" fill="none" xmlns="http://www.w3.org/2000/svg">
<g clip-path="url(#clip0_3235_225113)">
<path d="M45.2597 32.9382C43.649 32.9382 42.3384 31.6206 42.3384 30.0013C42.3384 28.3821 43.649 27.0645 45.2597 27.0645C46.8704 27.0645 48.181 28.3821 48.181 30.0013C48.181 31.6206 46.8704 32.9382 45.2597 32.9382ZM45.2597 27.9376C44.128 27.9376 43.2069 28.8636 43.2069 30.0013C43.2069 31.1391 44.128 32.0651 45.2597 32.0651C46.3914 32.0651 47.3125 31.1391 47.3125 30.0013C47.3125 28.8636 46.3914 27.9376 45.2597 27.9376Z" fill="black"/>
<path d="M27.8527 32.4381C18.9887 32.4381 14.4883 32.0624 14.4883 30.0013C14.4883 27.9428 18.9887 27.5645 27.8527 27.5645C28.3975 27.5645 41.2198 27.5909 41.2198 30.0013C41.2171 32.409 28.3975 32.4381 27.8527 32.4381ZM27.8527 28.4376C24.1129 28.4376 15.3568 28.4376 15.3568 30.0013C15.3568 31.565 24.1129 31.565 27.8527 31.565C35.2245 31.565 39.8354 30.6548 40.3328 30.0013C39.8354 29.3478 35.2245 28.4376 27.8527 28.4376Z" fill="black"/>
<path d="M19.894 40.9365C19.4966 40.9365 19.1781 40.8439 18.9439 40.6586C18.6912 40.4602 18.5518 40.1612 18.5518 39.8146C18.5518 37.6662 23.5943 33.7239 31.8293 33.7239C37.2404 33.7239 40.267 35.1262 42.7514 36.5629C42.7593 36.5629 42.7646 36.5629 42.7725 36.5629C51.2417 36.5629 59.2477 33.372 59.2477 29.9985C59.2477 26.625 51.2417 23.4341 42.7725 23.4341C42.7672 23.4341 42.7593 23.4341 42.7514 23.4341C40.2696 24.8708 37.2404 26.2731 31.8293 26.2731C23.5917 26.2731 18.5518 22.3282 18.5518 20.1824C18.5518 19.8358 18.6912 19.5368 18.9439 19.3384C19.1781 19.1532 19.4966 19.0605 19.894 19.0605C20.523 19.0605 21.6626 19.3489 23.3891 19.7855C27.4473 20.8121 34.2111 22.5266 42.5198 22.561C42.8093 22.3917 43.0936 22.2197 43.3725 22.053C45.5069 20.7724 47.5203 19.5606 50.7311 19.5606C55.9079 19.5606 60.1188 24.2438 60.1188 29.9985C60.1188 35.7532 55.9079 40.4364 50.7311 40.4364C47.5203 40.4364 45.5069 39.2272 43.3725 37.944C43.0936 37.7773 42.8093 37.6053 42.5198 37.436C34.2138 37.4704 27.4473 39.1823 23.3891 40.2115C21.6652 40.6481 20.5256 40.9365 19.894 40.9365ZM31.832 34.597C23.6891 34.597 19.4229 38.4732 19.4229 39.8146C19.4229 39.9257 19.4624 39.9548 19.4808 39.9707C19.515 39.9972 19.6255 40.0633 19.8966 40.0633C20.4177 40.0633 21.6363 39.7538 23.1785 39.3648C27.0236 38.3911 33.2716 36.8089 40.9749 36.5893C38.8116 35.5019 36.085 34.597 31.832 34.597ZM44.1726 37.4069C46.1438 38.5843 47.9282 39.5633 50.7311 39.5633C54.6052 39.5633 57.8818 36.6449 58.9135 32.6655C56.3632 35.3616 50.1705 37.1608 44.1726 37.4069ZM44.1726 22.5928C50.1732 22.8388 56.3659 24.638 58.9135 27.3341C57.8844 23.3548 54.6052 20.4364 50.7311 20.4364C47.9282 20.4364 46.1412 21.4154 44.1726 22.5928ZM19.894 19.9363C19.6255 19.9363 19.515 19.9998 19.4782 20.0289C19.4571 20.0448 19.4203 20.0739 19.4203 20.185C19.4203 21.5265 23.6865 25.4027 31.8293 25.4027C36.0824 25.4027 38.8116 24.4978 40.9723 23.4103C33.2689 23.1907 27.0183 21.6085 23.1759 20.6348C21.6363 20.2459 20.4177 19.9363 19.894 19.9363Z" fill="black"/>
<path d="M77.3285 37.804C75.8467 37.804 74.5045 37.4679 73.336 36.8091C72.1701 36.1503 71.2489 35.2137 70.6041 34.031C69.9567 32.8483 69.6304 31.491 69.6304 30.0013C69.6304 28.5117 69.9593 27.1571 70.6041 25.9717C71.2489 24.789 72.1701 23.8524 73.336 23.1936C74.5045 22.5321 75.8467 22.1987 77.3285 22.1987C78.8102 22.1987 80.1472 22.5348 81.3025 23.1936C82.4579 23.8524 83.3711 24.7864 84.0186 25.9717C84.666 27.1571 84.9923 28.5117 84.9923 30.0013C84.9923 31.5095 84.6634 32.8721 84.0186 34.0469C83.3738 35.219 82.4632 36.1503 81.3183 36.8091C80.1735 37.4679 78.8286 37.804 77.3285 37.804ZM77.3285 23.5349C75.8652 23.5349 74.6993 24.109 73.8623 25.2388C73.0281 26.3659 72.6043 27.9693 72.6043 30.0013C72.6043 32.036 73.0281 33.642 73.8623 34.7798C74.6993 35.9201 75.8652 36.4996 77.3285 36.4996C78.7918 36.4996 79.9524 35.9201 80.7814 34.7798C81.6052 33.6447 82.0236 32.036 82.0236 30.0013C82.0236 27.9879 81.6052 26.3924 80.7814 25.2547C79.9524 24.1143 78.7918 23.5349 77.3285 23.5349Z" fill="black"/>
<path d="M93.7693 37.8037C92.3112 37.8037 91.0216 37.4597 89.9373 36.7771C88.853 36.0971 88.0134 35.1525 87.4423 33.9672C86.8686 32.7845 86.5791 31.451 86.5791 29.9984C86.5791 28.5088 86.8949 27.1594 87.5213 25.9846C88.1477 24.8125 89.0083 23.8812 90.0794 23.2224C91.1506 22.5636 92.3612 22.2275 93.6745 22.2275C94.6535 22.2275 95.6089 22.4233 96.5169 22.8123C97.4222 23.1986 98.1618 23.7463 98.7118 24.4342C99.2619 25.1221 99.5382 25.9026 99.5382 26.7572C99.5382 27.1065 99.4461 27.4002 99.2645 27.633C99.0829 27.8659 98.825 27.9796 98.4802 27.9796C98.0933 27.9796 97.7854 27.8659 97.5643 27.6436C97.338 27.4161 97.1485 27.0906 97.0064 26.6752C96.9459 25.7703 96.6327 25.0083 96.08 24.4183C95.5247 23.8283 94.6746 23.5293 93.5482 23.5293C92.8034 23.5293 92.1033 23.7568 91.4664 24.204C90.8321 24.6511 90.311 25.2994 89.9163 26.1302C89.5267 26.9583 89.3267 27.9373 89.3267 29.0433C89.3267 31.0144 89.782 32.6707 90.6795 33.9645C91.5796 35.2637 92.8744 35.9225 94.5272 35.9225C95.501 35.9225 96.3853 35.7002 97.1564 35.2663C97.9275 34.8324 98.596 34.2556 99.1461 33.5544C99.2882 33.3322 99.433 33.2237 99.5856 33.2237C99.7777 33.2237 99.904 33.2925 99.9698 33.4354C100.038 33.5835 100.054 33.7502 100.015 33.9301C99.4961 35.0732 98.7039 36.0177 97.6617 36.7295C96.6222 37.4412 95.3115 37.8037 93.7693 37.8037Z" fill="black"/>
<path d="M106.836 37.7721C105.465 37.7721 104.381 37.3699 103.615 36.5788C102.847 35.7877 102.457 34.5256 102.457 32.8297V24.5032C102.457 24.2571 102.391 24.0825 102.265 23.9899C102.139 23.8999 101.965 23.8549 101.746 23.8549H101.304C101.128 23.8549 100.994 23.7994 100.896 23.6803C100.796 23.5612 100.749 23.4369 100.749 23.2966C100.749 23.0532 100.862 22.7569 101.089 22.4182C101.32 22.069 101.691 21.5742 102.194 20.9445C102.778 20.2116 103.281 19.6295 103.691 19.2167C104.091 18.8146 104.436 18.6108 104.718 18.6108C104.913 18.6108 105.044 18.6717 105.12 18.7961C105.199 18.9257 105.239 19.1268 105.239 19.3914V21.426C105.239 21.9261 105.26 22.2277 105.305 22.3468C105.355 22.4817 105.484 22.5532 105.697 22.5532H110.089C110.287 22.5532 110.426 22.5876 110.503 22.6537C110.576 22.7172 110.613 22.8627 110.613 23.0797C110.613 23.3205 110.537 23.511 110.389 23.6485C110.242 23.7888 110.045 23.8576 109.805 23.8576H105.918C105.405 23.8576 105.144 24.0878 105.144 24.5402V32.3904C105.144 33.5387 105.386 34.4145 105.865 34.994C106.347 35.5734 107.023 35.8697 107.876 35.8697C108.387 35.8697 108.926 35.7136 109.479 35.4041C110.031 35.0945 110.505 34.6235 110.887 34.0044C111.024 33.8086 111.168 33.7081 111.321 33.7081C111.474 33.7081 111.584 33.7742 111.661 33.9065C111.74 34.0441 111.747 34.187 111.69 34.3431C110.818 36.6159 109.187 37.7721 106.836 37.7721Z" fill="black"/>
<path d="M119.422 37.804C117.94 37.804 116.598 37.4679 115.429 36.8091C114.263 36.1503 113.342 35.2137 112.697 34.031C112.05 32.8483 111.724 31.491 111.724 30.0013C111.724 28.5117 112.053 27.1571 112.697 25.9717C113.345 24.789 114.263 23.8524 115.429 23.1936C116.595 22.5321 117.94 22.1987 119.422 22.1987C120.903 22.1987 122.24 22.5348 123.396 23.1936C124.554 23.8524 125.467 24.789 126.112 25.9717C126.759 27.1571 127.086 28.5144 127.086 30.0013C127.086 31.5095 126.757 32.8695 126.112 34.0469C125.467 35.219 124.559 36.1503 123.412 36.8091C122.264 37.4679 120.922 37.804 119.422 37.804ZM119.422 23.5349C117.958 23.5349 116.793 24.109 115.956 25.2388C115.121 26.3633 114.698 27.9667 114.698 30.0013C114.698 32.036 115.121 33.6447 115.956 34.7798C116.793 35.9201 117.958 36.4996 119.422 36.4996C120.885 36.4996 122.046 35.9201 122.872 34.7798C123.696 33.6447 124.114 32.036 124.114 30.0013C124.114 27.9879 123.696 26.3924 122.872 25.2547C122.043 24.1143 120.882 23.5349 119.422 23.5349Z" fill="black"/>
<path d="M129.378 37.5789C128.652 37.5789 128.147 37.5207 127.881 37.407C127.623 37.2985 127.499 37.1397 127.499 36.9254C127.499 36.6291 127.665 36.4359 128.002 36.3354C128.591 36.2507 129.018 36.1211 129.262 35.9464C129.515 35.7718 129.673 35.531 129.739 35.2347C129.802 34.9437 129.836 34.4753 129.836 33.843V18.37C129.836 17.9335 129.784 17.6292 129.67 17.4413C129.557 17.2482 129.31 17.1397 128.939 17.1159H128.936C128.723 17.1159 128.52 17.1265 128.331 17.1477C128.144 17.1688 127.975 17.1794 127.831 17.1794C127.628 17.1794 127.481 17.1556 127.394 17.1053C127.315 17.063 127.275 16.9624 127.275 16.8116C127.275 16.6344 127.346 16.4968 127.494 16.3883C127.649 16.2745 127.873 16.1634 128.162 16.0602C128.791 15.8697 129.181 15.7533 129.328 15.711C129.812 15.5628 130.276 15.4252 130.718 15.2982C131.155 15.1739 131.489 15.1104 131.715 15.1104C131.997 15.1104 132.205 15.1712 132.331 15.2876C132.457 15.404 132.521 15.6184 132.521 15.92V33.843C132.521 34.4806 132.552 34.9437 132.618 35.2188C132.684 35.5046 132.85 35.7401 133.113 35.9147C133.368 36.0867 133.8 36.2295 134.394 36.3354C134.75 36.4359 134.926 36.6291 134.926 36.9254C134.926 37.1397 134.816 37.2985 134.589 37.407C134.355 37.5207 133.868 37.5763 133.139 37.5763L131.276 37.5445L129.378 37.5789Z" fill="black"/>
<path d="M137.821 37.5792C137.116 37.5792 136.621 37.521 136.355 37.4072C136.097 37.2987 135.974 37.14 135.974 36.9256C135.974 36.6293 136.129 36.4362 136.447 36.3356C137.034 36.2509 137.469 36.1213 137.724 35.9493C137.984 35.7747 138.148 35.5392 138.203 35.2508C138.255 34.973 138.282 34.502 138.282 33.8432V25.6146C138.282 25.1569 138.232 24.8447 138.134 24.6542C138.032 24.4584 137.79 24.3605 137.416 24.3605L136.308 24.3922C136.087 24.3922 135.929 24.3684 135.842 24.3182C135.763 24.2732 135.724 24.1885 135.724 24.0562C135.724 23.8789 135.795 23.7414 135.942 23.6329C136.097 23.5191 136.321 23.408 136.611 23.3048L137.903 22.9238C139.032 22.5454 139.792 22.3549 140.166 22.3549C140.469 22.3549 140.687 22.4158 140.814 22.5322C140.94 22.6486 141.003 22.8629 141.003 23.1646V33.8406C141.003 34.4888 141.035 34.9386 141.1 35.2164C141.166 35.5022 141.332 35.7377 141.593 35.9123C141.851 36.0843 142.282 36.2271 142.874 36.333C143.23 36.4335 143.403 36.6267 143.403 36.923C143.403 37.14 143.293 37.2961 143.066 37.4045C142.83 37.5183 142.343 37.5739 141.616 37.5739L139.721 37.5421L137.821 37.5792ZM139.087 19.6906C138.469 19.6906 137.969 19.5397 137.597 19.2408C137.232 18.9444 137.045 18.5555 137.045 18.0845C137.045 17.6162 137.229 17.2379 137.595 16.9627C137.966 16.6849 138.466 16.542 139.084 16.542C139.682 16.542 140.166 16.6822 140.527 16.96C140.882 17.2352 141.061 17.6136 141.061 18.0819C141.061 18.5528 140.879 18.9418 140.524 19.2381C140.169 19.5397 139.685 19.6906 139.087 19.6906Z" fill="black"/>
<path d="M156.007 37.7378C155.82 37.7378 155.568 37.706 155.257 37.6425C155.152 37.6214 154.849 37.5843 154.352 37.5314C153.857 37.4785 153.289 37.452 152.654 37.452H145.385C144.84 37.452 144.577 37.2801 144.577 36.9282C144.577 36.7059 144.69 36.4281 144.917 36.0974L153.828 24.4688C153.899 24.3524 153.933 24.2598 153.933 24.1857C153.933 24.0852 153.891 23.9159 153.602 23.9159H148.227C147.883 23.9159 147.614 23.9714 147.43 24.0799C147.238 24.1937 147.072 24.4397 146.919 24.834C146.772 25.215 146.59 25.8579 146.38 26.7469C146.259 27.03 146.14 27.2338 146.03 27.3449C145.925 27.4507 145.759 27.5063 145.54 27.5063C145.364 27.5063 145.24 27.4613 145.167 27.366C145.09 27.2708 145.051 27.0538 145.051 26.7284C145.051 26.2839 145.125 25.6462 145.272 24.8313C145.438 23.9979 145.569 23.4052 145.667 23.0718C145.759 22.7517 145.856 22.54 145.956 22.4395C146.051 22.3442 146.212 22.2939 146.43 22.2939C146.596 22.2939 146.943 22.3363 147.498 22.4209C148.043 22.5056 148.833 22.5479 149.846 22.5479H157.02C157.239 22.5479 157.41 22.6035 157.526 22.7093C157.642 22.8152 157.699 22.9263 157.699 23.0401C157.699 23.22 157.576 23.4766 157.328 23.8074L148.446 35.5338C148.354 35.6714 148.309 35.7746 148.309 35.8486C148.309 35.9704 148.378 36.1185 148.704 36.1185H154.173C154.607 36.1185 154.915 36.0524 155.115 35.9201C155.315 35.7851 155.481 35.5126 155.623 35.0866C155.762 34.6686 155.96 33.9251 156.207 32.8747C156.307 32.6128 156.426 32.4223 156.557 32.3111C156.684 32.2027 156.849 32.1471 157.049 32.1471C157.184 32.1471 157.289 32.1974 157.376 32.3059C157.463 32.4143 157.507 32.6445 157.507 32.9911C157.507 33.4938 157.423 34.1765 157.255 35.0152C157.086 35.7322 156.939 36.3143 156.813 36.7588C156.66 37.2986 156.536 37.505 156.462 37.5817C156.357 37.6849 156.205 37.7378 156.007 37.7378Z" fill="black"/>
<path d="M165.974 37.772C164.495 37.772 163.2 37.4122 162.126 36.7004C161.055 35.9887 160.229 35.0071 159.679 33.7821C159.126 32.5544 158.844 31.1653 158.844 29.6545C158.844 28.2284 159.186 26.9399 159.865 25.818C160.542 24.6962 161.452 23.8098 162.566 23.1801C163.679 22.5504 164.89 22.2329 166.161 22.2329C167.327 22.2329 168.366 22.4816 169.251 22.9737C170.135 23.4659 170.83 24.122 171.319 24.9264C171.809 25.7307 172.056 26.5933 172.056 27.4929C172.056 28.4295 171.869 29.1042 171.501 29.4931C171.132 29.8847 170.485 30.0832 169.574 30.0832L162.397 30.1467C162.16 30.1467 161.879 30.2551 161.879 30.7658C161.879 31.5331 162.066 32.3242 162.434 33.1206C162.805 33.9196 163.363 34.5864 164.095 35.1103C164.826 35.6315 165.711 35.8987 166.729 35.8987C167.764 35.8987 168.693 35.6712 169.485 35.2267C170.277 34.7822 170.935 34.2001 171.443 33.4963C171.503 33.4143 171.572 33.3428 171.64 33.282C171.706 33.2264 171.772 33.1973 171.845 33.1973C172.038 33.1973 172.169 33.2767 172.246 33.4407C172.324 33.6101 172.335 33.7715 172.277 33.9276C171.759 35.0335 170.948 35.9622 169.877 36.6846C168.808 37.4042 167.495 37.772 165.974 37.772ZM165.816 23.6299C164.776 23.6299 163.845 24.0347 163.05 24.8364C162.255 25.6355 161.768 26.7494 161.597 28.1517C161.576 28.4004 161.631 28.5988 161.768 28.7444C161.902 28.8925 162.097 28.9666 162.339 28.9666L168.282 28.9349C168.785 28.9349 169.111 28.8528 169.279 28.6835C169.448 28.5142 169.529 28.1649 169.529 27.6172C169.529 26.5086 169.195 25.5587 168.54 24.7914C167.877 24.0215 166.961 23.6299 165.816 23.6299Z" fill="black"/>
</g>
<defs>
<clipPath id="clip0_3235_225113">
<rect width="187.241" height="60" fill="white"/>
</clipPath>
</defs>
</svg>
