<?xml version="1.0" encoding="UTF-8"?> <svg xmlns="http://www.w3.org/2000/svg" width="80" height="80" viewBox="0 0 80 80" fill="none"><path d="M60.98 40C60.98 42.89 60.39 45.65 59.33 48.15C58.27 50.66 56.74 52.91 54.84 54.81C52.94 56.71 50.69 58.24 48.18 59.3C45.67 60.36 42.92 60.95 40.03 60.95C37.14 60.95 34.38 60.36 31.88 59.3C29.38 58.24 27.12 56.71 25.22 54.81C23.32 52.91 21.79 50.66 20.73 48.15" stroke="#00E3C0" stroke-width="1.8" stroke-linecap="round" stroke-linejoin="round"></path><path d="M19.08 39.9998C19.08 37.1098 19.67 34.3498 20.73 31.8498C21.79 29.3398 23.32 27.0898 25.22 25.1898C27.12 23.2898 29.37 21.7598 31.88 20.6998C34.39 19.6398 37.14 19.0498 40.03 19.0498C42.92 19.0498 45.68 19.6398 48.18 20.6998C50.69 21.7598 52.94 23.2898 54.84 25.1898C56.74 27.0898 58.27 29.3398 59.33 31.8498" stroke="#00E3C0" stroke-width="1.8" stroke-linecap="round" stroke-linejoin="round"></path><path d="M19.9901 48.1499V56.3499M19.9901 48.1499H27.5601H19.9901Z" stroke="#00E3C0" stroke-width="1.8" stroke-linecap="round" stroke-linejoin="round"></path><path d="M60.07 31.8499V23.6499M60.07 31.8499H52.5H60.07Z" stroke="#00E3C0" stroke-width="1.8" stroke-linecap="round" stroke-linejoin="round"></path><path d="M35.04 43.4898C35.04 45.4298 36.53 46.9898 38.37 46.9898H42.13C43.74 46.9898 45.04 45.6198 45.04 43.9498C45.04 42.1198 44.25 41.4798 43.06 41.0598L37.02 38.9598C35.83 38.5398 35.04 37.8998 35.04 36.0698C35.04 34.3898 36.35 33.0298 37.95 33.0298H41.71C43.56 33.0298 45.04 34.5898 45.04 36.5298" stroke="#00E3C0" stroke-width="1.8" stroke-linecap="round" stroke-linejoin="round"></path><path d="M40.03 30V50" stroke="#00E3C0" stroke-width="1.8" stroke-linecap="round" stroke-linejoin="round"></path><path d="M40 1.8C51.44 1.8 61.06 5.38 67.84 12.16C74.62 18.94 78.2 28.56 78.2 40C78.2 51.44 74.62 61.06 67.84 67.84C61.06 74.62 51.44 78.2 40 78.2C28.56 78.2 18.94 74.62 12.16 67.84C5.38 61.06 1.8 51.44 1.8 40C1.8 28.56 5.38 18.94 12.16 12.16C18.94 5.38 28.56 1.8 40 1.8ZM40 0C15.7 0 0 15.7 0 40C0 64.3 15.7 80 40 80C64.3 80 80 64.3 80 40C80 15.7 64.3 0 40 0Z" fill="#00E3C0"></path></svg> 