<svg width="65" height="65" viewBox="0 0 65 65" fill="none" xmlns="http://www.w3.org/2000/svg">
<g clip-path="url(#clip0_2339_45680)">
<path d="M45.5 32.175V25.2525C45.5 18.7037 43.9725 17.0625 37.83 17.0625H25.545C19.4025 17.0625 17.875 18.7037 17.875 25.2525V43.55C17.875 47.8725 20.2475 48.8963 23.1237 45.8088L23.14 45.7925C24.4725 44.3787 26.5038 44.4925 27.6575 46.0363L29.2988 48.23" stroke="#00E3C0" stroke-width="2" stroke-linecap="round" stroke-linejoin="round"/>
<path d="M25.1875 25.1875H38.1875" stroke="#00E3C0" stroke-width="2" stroke-linecap="round" stroke-linejoin="round"/>
<path d="M26.8125 31.6875H36.5625" stroke="#00E3C0" stroke-width="2" stroke-linecap="round" stroke-linejoin="round"/>
<path fill-rule="evenodd" clip-rule="evenodd" d="M41.7803 37.814L36.0279 43.5664C35.8004 43.7939 35.589 44.2165 35.5403 44.5252L35.2316 46.719C35.1179 47.5152 35.6703 48.0677 36.4666 47.954L38.6604 47.6452C38.9691 47.5965 39.4078 47.3852 39.6191 47.1577L45.3716 41.4052C46.3629 40.4139 46.8341 39.2602 45.3716 37.7977C43.9254 36.3515 42.7716 36.8227 41.7803 37.814Z" stroke="#00E3C0" stroke-width="2" stroke-linecap="round" stroke-linejoin="round"/>
<path d="M40.9485 38.6426C41.436 40.3976 42.801 41.7626 44.556 42.2501" stroke="#00E3C0" stroke-width="2" stroke-linecap="round" stroke-linejoin="round"/>
<path d="M32.5 1.4625C41.795 1.4625 49.6112 4.37125 55.12 9.88C60.6287 15.3888 63.5375 23.205 63.5375 32.5C63.5375 41.795 60.6287 49.6112 55.12 55.12C49.6112 60.6287 41.795 63.5375 32.5 63.5375C23.205 63.5375 15.3888 60.6287 9.88 55.12C4.37125 49.6112 1.4625 41.795 1.4625 32.5C1.4625 23.205 4.37125 15.3888 9.88 9.88C15.3888 4.37125 23.205 1.4625 32.5 1.4625ZM32.5 0C12.7563 0 0 12.7563 0 32.5C0 52.2437 12.7563 65 32.5 65C52.2437 65 65 52.2437 65 32.5C65 12.7563 52.2437 0 32.5 0Z" fill="#00E3C0"/>
</g>
<defs>
<clipPath id="clip0_2339_45680">
<rect width="65" height="65" fill="white"/>
</clipPath>
</defs>
</svg>
