<?xml version="1.0" encoding="UTF-8" standalone="no"?>
<!DOCTYPE svg PUBLIC "-//W3C//DTD SVG 1.1//EN" "http://www.w3.org/Graphics/SVG/1.1/DTD/svg11.dtd">
<svg width="100%" height="100%" viewBox="0 0 40 40" version="1.1" xmlns="http://www.w3.org/2000/svg" xmlns:xlink="http://www.w3.org/1999/xlink" xml:space="preserve" xmlns:serif="http://www.serif.com/" style="fill-rule:evenodd;clip-rule:evenodd;stroke-linejoin:round;stroke-miterlimit:2;">
    <path d="M40,8C40,3.585 36.415,0 32,0L8,0C3.585,0 0,3.585 0,8L0,32C0,36.415 3.585,40 8,40L32,40C36.415,40 40,36.415 40,32L40,8Z" style="fill:rgb(5,39,58);"/>
    <g transform="matrix(0.0823163,0,0,0.0823163,6.32708,32.7787)">
        <path d="M0,-48.875C-5.561,-48.875 -9.993,-46.709 -13.174,-42.439C-16.346,-38.18 -17.955,-32.123 -17.955,-24.437C-17.955,-16.75 -16.346,-10.673 -13.174,-6.377C-9.993,-2.066 -5.561,0.12 0,0.12C5.559,0.12 9.971,-2.066 13.116,-6.378C16.247,-10.671 17.833,-16.747 17.833,-24.437C17.833,-32.046 16.247,-38.082 13.116,-42.377C9.971,-46.689 5.559,-48.875 0,-48.875M0,5.05C-5.628,5.05 -10.73,3.785 -15.167,1.29C-19.602,-1.205 -23.093,-4.737 -25.545,-9.21C-28.003,-13.682 -29.249,-18.805 -29.249,-24.437C-29.249,-30.068 -28.003,-35.192 -25.545,-39.665C-23.093,-44.139 -19.599,-47.672 -15.167,-50.165C-10.73,-52.66 -5.628,-53.925 0,-53.925C5.628,-53.925 10.71,-52.66 15.103,-50.165C19.497,-47.674 22.968,-44.142 25.426,-39.665C27.882,-35.185 29.127,-30.062 29.127,-24.437C29.127,-18.733 27.882,-13.59 25.426,-9.15C22.974,-4.718 19.519,-1.205 15.164,1.29C10.807,3.785 5.703,5.05 0,5.05" style="fill:rgb(37,227,192);fill-rule:nonzero;"/>
    </g>
    <g transform="matrix(0.0823163,0,0,0.0823163,11.4697,28.3497)">
        <path d="M0,58.855C-5.545,58.855 -10.442,57.551 -14.555,54.979C-18.672,52.408 -21.861,48.836 -24.039,44.363C-26.218,39.893 -27.322,34.848 -27.322,29.367C-27.322,23.736 -26.118,18.633 -23.743,14.198C-21.368,9.764 -18.096,6.251 -14.018,3.757C-9.943,1.264 -5.348,0 -0.36,0C3.361,0 6.993,0.742 10.442,2.207C13.88,3.671 16.687,5.735 18.78,8.341C20.867,10.94 21.924,13.893 21.924,17.117C21.924,18.434 21.573,19.549 20.881,20.431C20.186,21.314 19.212,21.744 17.897,21.744C16.429,21.744 15.261,21.317 14.42,20.475C13.559,19.616 12.845,18.386 12.296,16.818C12.067,13.399 10.879,10.513 8.778,8.288C6.669,6.06 3.435,4.93 -0.839,4.93C-3.668,4.93 -6.328,5.789 -8.748,7.484C-11.162,9.174 -13.141,11.621 -14.633,14.759C-16.117,17.889 -16.87,21.592 -16.87,25.764C-16.87,33.217 -15.142,39.473 -11.735,44.361C-8.313,49.273 -3.394,51.763 2.884,51.763C6.58,51.763 9.943,50.927 12.878,49.278C15.807,47.634 18.348,45.458 20.435,42.808C20.972,41.972 21.529,41.555 22.102,41.555C22.832,41.555 23.311,41.816 23.56,42.353C23.823,42.916 23.879,43.544 23.729,44.221C21.761,48.54 18.752,52.112 14.793,54.802C10.84,57.491 5.863,58.855 0,58.855" style="fill:rgb(37,227,192);fill-rule:nonzero;"/>
    </g>
    <g transform="matrix(0.0823163,0,0,0.0823163,15.5568,27.2226)">
        <path d="M0,72.427C-5.213,72.427 -9.332,70.91 -12.241,67.917C-15.159,64.924 -16.637,60.157 -16.637,53.748L-16.637,22.282C-16.637,21.348 -16.883,20.693 -17.368,20.338C-17.844,19.996 -18.506,19.823 -19.336,19.823L-21.016,19.823C-21.689,19.823 -22.196,19.608 -22.564,19.166C-22.94,18.715 -23.123,18.242 -23.123,17.718C-23.123,16.797 -22.688,15.679 -21.833,14.393C-20.953,13.075 -19.541,11.201 -17.636,8.821C-15.419,6.049 -13.506,3.851 -11.945,2.29C-10.425,0.771 -9.113,0 -8.047,0C-7.308,0 -6.807,0.228 -6.516,0.697C-6.215,1.187 -6.062,1.944 -6.062,2.946L-6.062,10.632C-6.062,12.521 -5.979,13.661 -5.811,14.117C-5.625,14.631 -5.127,14.893 -4.324,14.893L12.368,14.893C13.121,14.893 13.647,15.02 13.935,15.27C14.215,15.514 14.356,16.055 14.356,16.877C14.356,17.783 14.071,18.507 13.509,19.03C12.95,19.556 12.202,19.823 11.289,19.823L-3.482,19.823C-5.434,19.823 -6.422,20.691 -6.422,22.402L-6.422,52.067C-6.422,56.411 -5.5,59.722 -3.679,61.909C-1.849,64.103 0.723,65.215 3.964,65.215C5.905,65.215 7.953,64.622 10.054,63.451C12.158,62.278 13.957,60.5 15.402,58.165C15.92,57.427 16.477,57.048 17.052,57.048C17.631,57.048 18.054,57.294 18.342,57.8C18.638,58.322 18.672,58.862 18.447,59.45C15.131,68.061 8.925,72.427 0,72.427" style="fill:rgb(37,227,192);fill-rule:nonzero;"/>
    </g>
    <g transform="matrix(0.0823163,0,0,0.0823163,19.4925,32.7787)">
        <path d="M0,-48.875C-5.561,-48.875 -9.993,-46.709 -13.174,-42.439C-16.346,-38.184 -17.955,-32.127 -17.955,-24.437C-17.955,-16.746 -16.346,-10.669 -13.174,-6.377C-9.993,-2.066 -5.561,0.12 0,0.12C5.559,0.12 9.968,-2.066 13.113,-6.378C16.244,-10.671 17.83,-16.747 17.83,-24.437C17.83,-32.046 16.244,-38.082 13.113,-42.377C9.968,-46.689 5.556,-48.875 0,-48.875M0,5.05C-5.631,5.05 -10.732,3.785 -15.167,1.29C-19.602,-1.204 -23.095,-4.736 -25.548,-9.21C-28.003,-13.683 -29.249,-18.806 -29.249,-24.437C-29.249,-30.066 -28.003,-35.19 -25.548,-39.665C-23.093,-44.14 -19.602,-47.672 -15.167,-50.165C-10.732,-52.66 -5.631,-53.925 0,-53.925C5.625,-53.925 10.708,-52.66 15.103,-50.165C19.499,-47.671 22.971,-44.138 25.423,-39.665C27.882,-35.182 29.127,-30.058 29.127,-24.437C29.127,-18.736 27.882,-13.593 25.423,-9.15C22.974,-4.718 19.519,-1.205 15.162,1.29C10.807,3.785 5.705,5.05 0,5.05" style="fill:rgb(37,227,192);fill-rule:nonzero;"/>
    </g>
    <g transform="matrix(0.0823163,0,0,0.0823163,22.6073,26.1351)">
        <path d="M0,84.918C-2.763,84.918 -4.678,84.7 -5.691,84.271C-6.669,83.86 -7.145,83.265 -7.145,82.453C-7.145,81.331 -6.519,80.6 -5.232,80.221C-2.995,79.904 -1.376,79.409 -0.437,78.755C0.518,78.092 1.127,77.187 1.376,76.066C1.619,74.969 1.741,73.198 1.741,70.803L1.741,12.314C1.741,10.664 1.536,9.515 1.116,8.801C0.684,8.07 -0.252,7.657 -1.669,7.573L-1.68,7.573C-2.494,7.573 -3.258,7.615 -3.981,7.694C-4.692,7.774 -5.329,7.813 -5.882,7.813C-6.649,7.813 -7.208,7.72 -7.538,7.535C-7.834,7.37 -7.986,6.998 -7.986,6.429C-7.986,5.762 -7.715,5.239 -7.159,4.83C-6.572,4.401 -5.719,3.985 -4.62,3.593C-2.228,2.876 -0.75,2.437 -0.188,2.276C1.653,1.716 3.413,1.194 5.096,0.714C6.754,0.241 8.031,0 8.889,0C9.96,0 10.749,0.227 11.233,0.674C11.712,1.117 11.956,1.922 11.956,3.066L11.956,70.803C11.956,73.213 12.078,74.963 12.321,76.007C12.571,77.089 13.202,77.974 14.198,78.637C15.173,79.289 16.811,79.823 19.068,80.225C20.418,80.602 21.083,81.332 21.083,82.453C21.083,83.267 20.665,83.863 19.801,84.275C18.91,84.701 17.058,84.918 14.295,84.918L7.211,84.798L0,84.918Z" style="fill:rgb(37,227,192);fill-rule:nonzero;"/>
    </g>
    <g transform="matrix(0.0823163,0,0,0.0823163,25.6437,32.146)">
        <path d="M0,-55.721C-2.35,-55.721 -4.252,-56.294 -5.655,-57.423C-7.045,-58.542 -7.751,-60.011 -7.751,-61.789C-7.751,-63.564 -7.048,-64.991 -5.661,-66.031C-4.255,-67.083 -2.35,-67.617 0,-67.617C2.267,-67.617 4.111,-67.084 5.476,-66.032C6.824,-64.99 7.507,-63.563 7.507,-61.789C7.507,-60.013 6.821,-58.543 5.47,-57.422C4.108,-56.293 2.267,-55.721 0,-55.721M-4.808,11.896C-7.491,11.896 -9.368,11.678 -10.381,11.249C-11.358,10.838 -11.834,10.243 -11.834,9.431C-11.834,8.307 -11.247,7.577 -10.038,7.198C-7.804,6.882 -6.162,6.387 -5.188,5.734C-4.194,5.073 -3.579,4.186 -3.369,3.099C-3.17,2.053 -3.067,0.264 -3.067,-2.219L-3.067,-33.325C-3.067,-35.053 -3.253,-36.239 -3.632,-36.952C-4.022,-37.691 -4.944,-38.066 -6.367,-38.066L-10.575,-37.946C-11.416,-37.946 -12.014,-38.04 -12.346,-38.224C-12.648,-38.391 -12.795,-38.714 -12.795,-39.21C-12.795,-39.877 -12.523,-40.4 -11.967,-40.809C-11.38,-41.238 -10.528,-41.654 -9.429,-42.046L-4.518,-43.484C-0.224,-44.914 2.666,-45.639 4.08,-45.639C5.229,-45.639 6.06,-45.412 6.544,-44.965C7.023,-44.522 7.267,-43.717 7.267,-42.573L7.267,-2.219C7.267,0.228 7.386,1.931 7.635,2.985C7.881,4.066 8.512,4.951 9.509,5.615C10.486,6.267 12.125,6.801 14.381,7.203C15.729,7.58 16.393,8.31 16.393,9.431C16.393,10.246 15.975,10.842 15.115,11.253C14.218,11.679 12.363,11.896 9.606,11.896L2.403,11.776L-4.808,11.896Z" style="fill:rgb(37,227,192);fill-rule:nonzero;"/>
    </g>
    <g transform="matrix(0.0823163,0,0,0.0823163,30.9357,28.3694)">
        <path d="M0,58.375C-0.706,58.375 -1.666,58.255 -2.849,58.018C-3.25,57.937 -4.399,57.795 -6.287,57.595C-8.164,57.395 -10.331,57.294 -12.734,57.294L-40.355,57.294C-42.42,57.294 -43.422,56.645 -43.422,55.31C-43.422,54.473 -42.988,53.415 -42.13,52.167L-8.269,8.218C-7.997,7.773 -7.87,7.429 -7.87,7.149C-7.87,6.769 -8.033,6.131 -9.13,6.131L-29.545,6.131C-30.855,6.131 -31.873,6.341 -32.577,6.756C-33.302,7.183 -33.936,8.116 -34.514,9.607C-35.079,11.048 -35.768,13.481 -36.563,16.836C-37.025,17.905 -37.476,18.674 -37.897,19.094C-38.301,19.498 -38.924,19.702 -39.755,19.702C-40.427,19.702 -40.892,19.528 -41.177,19.169C-41.471,18.805 -41.618,17.994 -41.618,16.757C-41.618,15.079 -41.335,12.665 -40.782,9.582C-40.153,6.435 -39.649,4.197 -39.284,2.935C-38.932,1.725 -38.564,0.922 -38.188,0.549C-37.825,0.185 -37.219,0 -36.391,0C-35.766,0 -34.44,0.156 -32.336,0.478C-30.262,0.799 -27.262,0.961 -23.419,0.961L3.842,0.961C4.673,0.961 5.318,1.168 5.766,1.575C6.204,1.979 6.428,2.4 6.428,2.825C6.428,3.503 5.954,4.478 5.022,5.721L-28.726,50.038C-29.077,50.561 -29.244,50.947 -29.244,51.226C-29.244,51.69 -28.983,52.244 -27.743,52.244L-6.968,52.244C-5.315,52.244 -4.144,51.998 -3.386,51.494C-2.624,50.986 -1.993,49.954 -1.453,48.339C-0.927,46.758 -0.177,43.945 0.77,39.978C1.154,38.99 1.603,38.267 2.096,37.85C2.58,37.439 3.208,37.231 3.964,37.231C4.471,37.231 4.878,37.426 5.207,37.827C5.539,38.235 5.708,39.107 5.708,40.417C5.708,42.319 5.384,44.894 4.748,48.069C4.108,50.783 3.549,52.981 3.07,54.66C2.489,56.703 2.024,57.477 1.736,57.767C1.332,58.17 0.747,58.375 0,58.375" style="fill:rgb(37,227,192);fill-rule:nonzero;"/>
    </g>
    <g transform="matrix(0.0823163,0,0,0.0823163,34.0033,32.7491)">
        <path d="M0,-48.155C-3.953,-48.155 -7.491,-46.622 -10.514,-43.599C-13.534,-40.582 -15.389,-36.365 -16.031,-31.065C-16.114,-30.13 -15.898,-29.376 -15.383,-28.821C-14.871,-28.266 -14.137,-27.984 -13.21,-27.984L9.368,-28.104C11.275,-28.104 12.515,-28.416 13.155,-29.057C13.797,-29.697 14.107,-31.015 14.107,-33.085C14.107,-37.273 12.842,-40.868 10.345,-43.77C7.837,-46.68 4.357,-48.155 0,-48.155M0.601,5.29C-5.022,5.29 -9.941,3.926 -14.016,1.236C-18.09,-1.453 -21.221,-5.166 -23.32,-9.799C-25.421,-14.442 -26.486,-19.69 -26.486,-25.399C-26.486,-30.785 -25.183,-35.663 -22.608,-39.899C-20.034,-44.137 -16.579,-47.49 -12.344,-49.865C-8.111,-52.241 -3.513,-53.445 1.32,-53.445C5.75,-53.445 9.703,-52.503 13.063,-50.645C16.421,-48.789 19.068,-46.304 20.925,-43.261C22.783,-40.221 23.724,-36.959 23.724,-33.566C23.724,-30.023 23.012,-27.478 21.609,-26.001C20.211,-24.524 17.75,-23.775 14.292,-23.775L-12.975,-23.534C-13.874,-23.534 -14.948,-23.129 -14.948,-21.195C-14.948,-18.296 -14.237,-15.301 -12.834,-12.293C-11.427,-9.277 -9.304,-6.749 -6.527,-4.777C-3.751,-2.803 -0.385,-1.802 3.482,-1.802C7.416,-1.802 10.943,-2.658 13.957,-4.347C16.969,-6.032 19.472,-8.231 21.401,-10.882C21.634,-11.191 21.888,-11.465 22.154,-11.693C22.403,-11.907 22.658,-12.011 22.938,-12.011C23.671,-12.011 24.167,-11.71 24.46,-11.091C24.762,-10.448 24.798,-9.845 24.576,-9.247C22.603,-5.065 19.53,-1.554 15.452,1.176C11.377,3.906 6.381,5.29 0.601,5.29" style="fill:rgb(37,227,192);fill-rule:nonzero;"/>
    </g>
    <g transform="matrix(0.0823163,0,0,0.0823163,25.3209,15.7989)">
        <path d="M0,-34.684C-9.565,-34.684 -17.345,-26.904 -17.345,-17.342C-17.345,-7.779 -9.565,-0 0,-0C9.559,-0 17.339,-7.779 17.339,-17.342C17.339,-26.904 9.559,-34.684 0,-34.684M0,7.338C-13.609,7.338 -24.682,-3.733 -24.682,-17.342C-24.682,-30.95 -13.609,-42.022 0,-42.022C13.609,-42.022 24.676,-30.95 24.676,-17.342C24.676,-3.733 13.609,7.338 0,7.338" style="fill:rgb(37,227,192);fill-rule:nonzero;"/>
    </g>
    <g transform="matrix(0.0823163,0,0,0.0823163,13.2144,15.4529)">
        <path d="M0,-26.278C-31.595,-26.278 -105.581,-26.278 -105.581,-13.139C-105.581,0 -31.595,0 0,0C62.291,0 101.235,-7.65 105.433,-13.139C101.235,-18.628 62.291,-26.278 0,-26.278M0,7.338C-74.891,7.338 -112.918,4.171 -112.918,-13.139C-112.918,-30.449 -74.891,-33.616 0,-33.616C4.61,-33.616 112.924,-33.383 112.924,-13.139C112.924,7.105 4.61,7.338 0,7.338" style="fill:rgb(37,227,192);fill-rule:nonzero;"/>
    </g>
    <g transform="matrix(0.0823163,0,0,0.0823163,7.68047,21.333)">
        <path d="M0,-169.145C-2.271,-169.145 -3.207,-168.605 -3.502,-168.373C-3.675,-168.237 -4.001,-167.984 -4.001,-167.058C-4.001,-155.787 32.05,-123.202 100.847,-123.202C136.788,-123.202 159.827,-130.803 178.089,-139.948C112.998,-141.801 60.204,-155.096 27.729,-163.274C14.705,-166.554 4.413,-169.145 0,-169.145M205.105,-146.825C255.799,-144.756 308.119,-129.629 329.644,-106.974C320.94,-140.425 293.242,-164.943 260.52,-164.943C236.835,-164.943 221.755,-156.727 205.105,-146.825M205.105,-22.32C221.755,-12.418 236.835,-4.202 260.52,-4.202C293.242,-4.202 320.94,-28.72 329.644,-62.171C308.119,-39.516 255.799,-24.389 205.105,-22.32M100.847,-45.943C32.05,-45.943 -4.001,-13.358 -4.001,-2.087C-4.001,-1.161 -3.675,-0.908 -3.502,-0.772C-3.207,-0.54 -2.271,-0 0,-0C4.413,-0 14.705,-2.591 27.729,-5.871C60.204,-14.049 112.998,-27.344 178.089,-29.197C159.827,-38.342 136.788,-45.943 100.847,-45.943M0,7.338C-3.348,7.338 -6.051,6.553 -8.026,5.005C-10.162,3.334 -11.338,0.815 -11.338,-2.087C-11.338,-20.135 31.256,-53.281 100.847,-53.281C146.556,-53.281 172.137,-41.498 193.114,-29.414L193.287,-29.414C264.841,-29.414 332.487,-56.22 332.487,-84.572C332.487,-112.925 264.841,-139.731 193.287,-139.731L193.114,-139.731C172.137,-127.647 146.556,-115.864 100.847,-115.864C31.256,-115.864 -11.338,-149.009 -11.338,-167.058C-11.338,-169.96 -10.162,-172.479 -8.026,-174.15C-6.051,-175.698 -3.348,-176.483 0,-176.483C5.324,-176.483 14.951,-174.059 29.521,-170.39C63.811,-161.755 120.963,-147.361 191.151,-147.073C193.607,-148.504 196.001,-149.934 198.359,-151.345C216.381,-162.111 233.4,-172.281 260.52,-172.281C304.247,-172.281 339.825,-132.935 339.825,-84.572C339.825,-36.21 304.247,3.136 260.52,3.136C233.4,3.136 216.381,-7.033 198.359,-17.8C196.001,-19.21 193.601,-20.641 191.145,-22.072C120.963,-21.784 63.811,-7.39 29.521,1.245C14.951,4.914 5.324,7.338 0,7.338" style="fill:rgb(37,227,192);fill-rule:nonzero;"/>
    </g>
</svg>
