<svg xmlns="http://www.w3.org/2000/svg" fill="none" viewBox="0 0 212 212"><path fill="#F7F7F7" d="M157.423 106.008c0-28.4-22.999-51.423-51.37-51.423-28.37 0-51.369 23.023-51.369 51.423 0 28.4 22.999 51.423 51.369 51.423 28.371 0 51.37-23.023 51.37-51.423Z"/><path fill="#E3E3E3" d="M157.467 106.3v-.605H138.37v.605h19.097ZM106.4 157.421v-19.117h-.604v19.117h.604ZM106.4 73.691V54.574h-.604v19.117h.604ZM73.825 106.3v-.605H54.728v.605h19.097ZM135.949 76.78l-.427-.428-6.701 6.708.427.427 6.701-6.708ZM83.463 129.026l-.213-.214-.214-.213-6.591 6.598.427.427 6.591-6.598ZM136.914 134.76l-6.971-6.978-.427.428 6.971 6.978.427-.428ZM125.848 153.434l-5.027-8.62-.521.305 5.027 8.62.521-.305ZM155.265 91.116l-.144-.587-8.686 2.141.144.587 8.686-2.141ZM66.197 95.288l-9.818-2.294-.137.589 9.818 2.293.137-.588ZM87.307 142.639l-.486-.359-6.156 8.361.486.358 6.156-8.36Z"/><path fill="#E3E3E3" d="M56.743 120.599c4.86 0 8.682-4.123 8.354-8.945l-.019-.23-.5-5.269-.602.058.501 5.268.018.214c.304 4.474-3.242 8.3-7.752 8.3v.604ZM147.617 108.239c0 3.026 2.207 5.6 5.195 6.058l3.891.596.091-.597-3.891-.597a5.522 5.522 0 0 1-4.682-5.46v-1.93h-.604v1.93ZM130.905 150.96l-1.489-1.819a4.016 4.016 0 0 0-5.061-.966l-.08.046-1.354.794.306.522 1.353-.795.068-.039a3.414 3.414 0 0 1 4.301.821l1.489 1.819.467-.383Z"/><path fill="#DFE1E5" d="M65.281 99.924c.741.14 1.455-.329 1.63-1.054l.015-.07.051-.272c2.233-11.467 9.26-21.223 18.913-27.086l.29-.175a40.566 40.566 0 0 1 20.483-5.723l.362-.002.073-.002a1.41 1.41 0 0 0 0-2.816l-.073-.001-.387.001a43.38 43.38 0 0 0-22.209 6.307c-10.314 6.265-17.828 16.69-20.216 28.958l-.056.29-.011.071a1.41 1.41 0 0 0 1.135 1.575Z"/><path fill="#4688F1" d="M147.256 99.535a1.41 1.41 0 1 0 2.778-.47c-3.48-20.629-21.41-36.342-43.009-36.342a43.387 43.387 0 0 0-22.596 6.308 1.41 1.41 0 0 0 1.461 2.41 40.572 40.572 0 0 1 21.135-5.899c20.201 0 36.976 14.698 40.231 33.993Z"/><path fill="#010B4E" d="M106.4 65.774v-3.365h-.604v3.365h.604ZM148.726 92.717l-.164-.581-3.2.903.164.581 3.2-.903ZM67.901 95.746l-3.243-.822-.149.585 3.244.823.148-.586Z"/><path fill="#3E80F2" d="M138.605 134.974a1.905 1.905 0 1 1-3.809 0 1.905 1.905 0 1 1 3.809 0Z"/><path fill="#18A558" d="M122.465 144.966a1.905 1.905 0 1 1-1.904-1.906c1.052 0 1.904.853 1.904 1.906Z"/><path fill="#F8B82C" d="M88.969 142.459a1.906 1.906 0 0 1-1.905 1.907 1.906 1.906 0 0 1 0-3.813c1.052 0 1.905.853 1.905 1.906Z"/><path fill="#3E80F2" d="M78.1 135.873a1.906 1.906 0 0 1-1.904 1.907 1.906 1.906 0 0 1 0-3.813c1.052 0 1.905.853 1.905 1.906ZM73.542 105.927c0-17.894 14.491-32.4 32.367-32.4 17.876 0 32.367 14.506 32.367 32.4s-14.491 32.401-32.367 32.401c-17.876 0-32.367-14.507-32.367-32.401Z"/><path fill="#fff" d="m124.56 96.343-13.152-.052 5.012 5.054-8.64 8.585-7.48-7.314-14.422 14.183 3.066 3.124 11.365-11.176 7.496 7.329 11.697-11.622 5.011 5.053.047-13.164ZM83.642 98.052l.548-1.68a.142.142 0 0 1 .27 0l.546 1.676a1.861 1.861 0 0 0 1.254 1.212l2.01.578c.137.04.137.234 0 .273l-1.99.573a1.862 1.862 0 0 0-1.264 1.244l-.556 1.814c-.04.133-.23.133-.27 0l-.559-1.819a1.864 1.864 0 0 0-1.256-1.242l-1.949-.57c-.136-.04-.136-.233 0-.272l1.97-.576a1.862 1.862 0 0 0 1.246-1.21ZM90.68 101.246l.259-.792c.02-.061.107-.061.127 0l.257.79c.09.277.312.491.591.571l.947.273c.064.018.064.11 0 .128l-.937.27a.879.879 0 0 0-.596.586l-.262.855c-.02.063-.108.063-.127 0l-.263-.857a.879.879 0 0 0-.592-.585l-.918-.269a.067.067 0 0 1 0-.128l.928-.271a.878.878 0 0 0 .587-.571ZM128.665 102.527l.258-.792a.067.067 0 0 1 .127 0l.257.789c.09.277.312.491.591.571l.947.273c.064.019.064.11 0 .128l-.937.271a.877.877 0 0 0-.596.585l-.262.855a.066.066 0 0 1-.127 0l-.263-.857a.879.879 0 0 0-.592-.585l-.918-.269c-.064-.018-.064-.109 0-.128l.928-.271a.879.879 0 0 0 .587-.57ZM92.115 93.983l.343-1.055a.089.089 0 0 1 .17 0l.342 1.052c.12.368.415.653.787.76l1.26.363c.086.025.086.146 0 .171l-1.248.36c-.379.108-.677.402-.793.779l-.348 1.138c-.026.084-.145.084-.17 0l-.35-1.141a1.167 1.167 0 0 0-.788-.778l-1.222-.358c-.085-.025-.085-.146 0-.171l1.235-.361c.37-.109.662-.392.782-.76ZM130.819 97.783l.344-1.055c.026-.081.142-.081.169 0l.342 1.052c.12.368.415.653.787.76l1.261.363c.085.025.085.146 0 .171l-1.248.359c-.379.11-.677.403-.793.78l-.349 1.138c-.026.083-.144.083-.17 0l-.349-1.141a1.169 1.169 0 0 0-.788-.779l-1.222-.358c-.086-.024-.086-.145 0-.17l1.235-.362c.369-.108.662-.392.781-.758Z"/><path fill="#F7F7F7" d="M39.083 65.774c0-7.404-5.995-13.406-13.391-13.406S12.3 58.37 12.3 65.774c0 7.404 5.996 13.406 13.392 13.406 7.396 0 13.391-6.002 13.391-13.406Z"/><path fill="#F81728" d="M33.408 62.017a1.956 1.956 0 0 0-1.375-1.376c-1.22-.334-6.104-.334-6.104-.334s-4.882 0-6.103.321c-.655.18-1.195.72-1.375 1.39-.321 1.221-.321 3.755-.321 3.755s0 2.547.321 3.756c.18.67.707 1.197 1.375 1.377 1.234.334 6.104.334 6.104.334s4.883 0 6.103-.321a1.954 1.954 0 0 0 1.375-1.377c.321-1.222.321-3.756.321-3.756s.013-2.547-.321-3.769Z"/><path fill="#fff" d="m24.375 68.115 4.06-2.341-4.06-2.341v4.682Z"/><path fill="#F7F7F7" d="M187.046 164.557c0-7.404-5.996-13.406-13.392-13.406-7.396 0-13.392 6.002-13.392 13.406 0 7.404 5.996 13.406 13.392 13.406 7.396 0 13.392-6.002 13.392-13.406Z"/><path fill="#126B26" d="M179.862 169.218h-3.104v-6.991h3.104v6.991Zm-3.88-3.884h-8.536v-3.107h8.536v3.107Zm0 3.884h-8.536v-3.107h8.536v3.107Zm3.88-10.875h-12.416c-.858 0-1.544.695-1.544 1.554l-.008 9.321c0 .858.694 1.553 1.552 1.553h12.416c.857 0 1.552-.695 1.552-1.553v-9.321c0-.859-.695-1.554-1.552-1.554Z"/><path fill="#F7F7F7" d="M53.012 164.557c0-7.404-5.996-13.406-13.392-13.406-7.396 0-13.392 6.002-13.392 13.406 0 7.404 5.996 13.406 13.392 13.406 7.396 0 13.392-6.002 13.392-13.406Z"/><path fill="#F9BD00" d="m31.77 165.688 7.8.009a1.132 1.132 0 0 0 1.224-1.135v-.002c0-.024-.001-.047-.003-.071 0-.011 0-.023-.002-.035a1.132 1.132 0 0 0-.372-.74l-5.524-5.543-1.61 1.608 3.626 3.638-5.136-.006-.002 2.277Z"/><path fill="#EE4231" d="m38.415 156.685.053 7.807a1.137 1.137 0 0 0 1.143 1.217h.002c.024 0 .047-.002.07-.004l.036-.002c.293-.029.552-.17.736-.378l5.494-5.573-1.62-1.599-3.605 3.658-.034-5.141-2.275.015Z"/><path fill="#35A858" d="m40.73 172.441-.01-7.806a1.138 1.138 0 0 0-1.138-1.224h-.002a.821.821 0 0 0-.07.004l-.035.002a1.127 1.127 0 0 0-.74.374l-5.523 5.543 1.61 1.608 3.626-3.638.007 5.14 2.274-.003Z"/><path fill="#4186F3" d="M47.47 163.412h-7.8a1.138 1.138 0 0 0-1.224 1.137l.001.002c0 .024.002.047.003.071l.002.035c.028.294.167.554.374.74l5.53 5.536 1.608-1.61-3.63-3.634h5.135v-2.277Z"/><path fill="#F7F7F7" d="M119.211 13.474c0-7.404-5.995-13.406-13.391-13.406-7.397 0-13.393 6.002-13.393 13.406 0 7.404 5.996 13.406 13.393 13.406 7.396 0 13.391-6.002 13.391-13.406Z"/><mask id="a" width="16" height="15" x="98" y="6" maskUnits="userSpaceOnUse" style="mask-type:luminance"><path fill="#fff" d="M98.852 13.474a7.412 7.412 0 0 0 7.429 7.438c3.715 0 7.092-2.705 7.092-7.438 0-.44-.067-.913-.169-1.352h-6.923v2.874h3.985c-.371 1.825-1.925 2.873-3.985 2.873a4.384 4.384 0 0 1-4.39-4.395 4.384 4.384 0 0 1 4.39-4.395c1.047 0 1.993.372 2.736.98l2.161-2.163c-1.317-1.149-3.006-1.859-4.897-1.859a7.412 7.412 0 0 0-7.43 7.437Z"/></mask><g mask="url(#a)"><path fill="#F8BA2D" d="M98.176 17.869v-8.79l5.741 4.395-5.741 4.395Z"/></g><mask id="b" width="16" height="15" x="98" y="6" maskUnits="userSpaceOnUse" style="mask-type:luminance"><path fill="#fff" d="M98.852 13.474a7.412 7.412 0 0 0 7.429 7.438c3.715 0 7.092-2.705 7.092-7.438 0-.44-.067-.913-.169-1.352h-6.923v2.874h3.985c-.371 1.825-1.925 2.873-3.985 2.873a4.384 4.384 0 0 1-4.39-4.395 4.384 4.384 0 0 1 4.39-4.395c1.047 0 1.993.372 2.736.98l2.161-2.163c-1.317-1.149-3.006-1.859-4.897-1.859a7.412 7.412 0 0 0-7.43 7.437Z"/></mask><g mask="url(#b)"><path fill="#E6453C" d="m98.176 9.08 5.741 4.394 2.364-2.062 8.105-1.319V5.36h-16.21v3.72Z"/></g><mask id="c" width="16" height="15" x="98" y="6" maskUnits="userSpaceOnUse" style="mask-type:luminance"><path fill="#fff" d="M98.852 13.474a7.412 7.412 0 0 0 7.429 7.438c3.715 0 7.092-2.705 7.092-7.438 0-.44-.067-.913-.169-1.352h-6.923v2.874h3.985c-.371 1.825-1.925 2.873-3.985 2.873a4.384 4.384 0 0 1-4.39-4.395 4.384 4.384 0 0 1 4.39-4.395c1.047 0 1.993.372 2.736.98l2.161-2.163c-1.317-1.149-3.006-1.859-4.897-1.859a7.412 7.412 0 0 0-7.43 7.437Z"/></mask><g mask="url(#c)"><path fill="#3AA657" d="m98.176 17.869 10.131-7.776 2.668.338 3.411-5.07v16.226h-16.21V17.87Z"/></g><mask id="d" width="16" height="15" x="98" y="6" maskUnits="userSpaceOnUse" style="mask-type:luminance"><path fill="#fff" d="M98.852 13.474a7.412 7.412 0 0 0 7.429 7.438c3.715 0 7.092-2.705 7.092-7.438 0-.44-.067-.913-.169-1.352h-6.923v2.874h3.985c-.371 1.825-1.925 2.873-3.985 2.873a4.384 4.384 0 0 1-4.39-4.395 4.384 4.384 0 0 1 4.39-4.395c1.047 0 1.993.372 2.736.98l2.161-2.163c-1.317-1.149-3.006-1.859-4.897-1.859a7.412 7.412 0 0 0-7.43 7.437Z"/></mask><g mask="url(#d)"><path fill="#4687F0" d="m114.386 21.587-10.469-8.113-1.351-1.014 11.82-3.38v12.507Z"/></g><path fill="#F7F7F7" d="M202.257 65.774c0-7.404-5.996-13.406-13.392-13.406-7.396 0-13.392 6.002-13.392 13.406 0 7.404 5.996 13.406 13.392 13.406 7.396 0 13.392-6.002 13.392-13.406Z"/><path fill="#2376E4" d="M190.912 57.926a5.642 5.642 0 0 0-6.052 1.753l2.671 2.244 3.381-3.997Z"/><path fill="#E6453C" d="M184.861 59.68a5.662 5.662 0 0 0-1.324 3.63c0 1.066.209 1.924.564 2.697l3.43-4.083-2.67-2.244Z"/><path fill="#4687F0" d="M189.197 61.15a2.166 2.166 0 0 1 1.653 3.57s1.703-2.036 3.369-4.01a5.643 5.643 0 0 0-3.308-2.784l-3.38 3.997a2.195 2.195 0 0 1 1.666-.772Z"/><path fill="#F8BA2D" d="M189.197 65.48a2.165 2.165 0 0 1-2.168-2.17c0-.528.183-1.019.502-1.386l-3.43 4.083c.588 1.3 1.568 2.354 2.572 3.666l4.177-4.966a2.148 2.148 0 0 1-1.653.773Z"/><path fill="#3AA657" d="M190.777 71.047c1.886-2.955 4.079-4.292 4.079-7.725 0-.945-.233-1.827-.637-2.612l-7.546 8.963c.319.417.649.896.968 1.386 1.151 1.778.833 2.833 1.568 2.833.735 0 .416-1.067 1.568-2.845Z"/></svg>