<?xml version="1.0" standalone="no"?>
<!DOCTYPE svg PUBLIC "-//W3C//DTD SVG 20010904//EN"
 "http://www.w3.org/TR/2001/REC-SVG-20010904/DTD/svg10.dtd">
<svg version="1.0" xmlns="http://www.w3.org/2000/svg"
 width="1200.000000pt" height="1200.000000pt" viewBox="0 0 1200.000000 1200.000000"
 preserveAspectRatio="xMidYMid meet">
<metadata>
Created by potrace 1.14, written by Peter Selinger 2001-2017
</metadata>
<g transform="translate(0.000000,1200.000000) scale(0.100000,-0.100000)"
fill="#000000" stroke="none">
<path d="M6502 9463 c-11 -10 -52 -94 -92 -188 -40 -93 -80 -188 -90 -210 -22
-47 -11 -24 -193 -445 -260 -602 -295 -682 -304 -690 -6 -6 -344 -101 -443
-125 -8 -2 -78 -22 -155 -44 -227 -64 -444 -125 -700 -195 -132 -37 -267 -75
-300 -85 -163 -50 -137 -52 -460 43 -159 46 -375 109 -480 140 -104 30 -244
70 -310 90 -131 38 -358 104 -555 160 -69 20 -161 47 -205 61 -44 13 -199 58
-345 100 -146 42 -310 90 -365 107 -55 16 -107 31 -115 33 -8 2 -117 33 -242
69 -124 36 -233 66 -241 66 -30 0 -27 -36 7 -106 18 -38 201 -406 407 -819
l372 -750 2 -1270 c0 -925 4 -1276 12 -1290 16 -29 36 -38 213 -95 162 -53
1010 -331 1430 -470 135 -44 506 -166 825 -271 319 -105 589 -194 600 -199 11
-5 382 -129 825 -276 864 -287 878 -291 981 -259 24 7 177 62 339 123 662 247
895 332 900 331 3 -2 15 3 28 10 20 11 142 57 212 81 14 4 54 19 90 33 36 13
142 52 235 86 155 57 247 92 330 124 17 6 35 12 40 14 13 2 603 220 630 232
11 5 61 24 110 41 50 18 133 48 185 66 52 19 102 37 110 41 8 3 20 7 25 9 6 1
55 19 110 40 131 48 331 120 422 151 83 28 123 66 124 116 0 18 0 637 0 1376
0 1085 2 1346 13 1355 7 6 41 85 76 176 59 154 114 299 210 548 22 56 58 150
81 210 22 59 45 116 50 127 10 24 139 356 143 370 2 6 6 17 9 25 29 66 85 226
81 231 -2 4 -25 10 -51 14 -27 5 -52 9 -58 11 -96 22 -249 57 -280 64 -40 8
-154 33 -315 69 -73 17 -176 39 -525 116 -33 7 -166 37 -295 65 -129 29 -242
54 -250 55 -8 2 -118 27 -245 55 -126 28 -241 54 -255 56 -14 3 -41 9 -60 14
-19 5 -46 11 -60 14 -36 6 -102 21 -230 50 -36 8 -76 17 -90 20 -23 4 -189 41
-235 52 -11 3 -38 9 -60 14 -22 4 -50 11 -61 13 -12 3 -66 15 -120 26 -96 21
-237 52 -319 72 -22 5 -51 11 -65 13 -14 2 -47 10 -75 16 -27 6 -57 13 -65 15
-27 6 -345 76 -364 80 -10 3 -89 20 -176 40 -87 20 -166 37 -176 39 -11 2 -54
11 -96 20 -93 19 -82 20 -106 -1z m-734 -2238 c0 -248 -2 -275 -17 -275 -9 0
-54 12 -101 26 -47 14 -93 27 -103 29 -9 2 -47 13 -85 25 -82 25 -439 130
-467 137 -11 3 -58 16 -104 30 l-84 26 359 104 c197 58 409 120 469 138 61 18
115 33 121 34 8 1 11 -77 12 -274z m605 209 c144 -36 269 -68 277 -69 8 -2
114 -29 235 -60 121 -31 238 -61 260 -66 35 -7 64 -15 135 -34 32 -8 186 -46
208 -51 13 -2 49 -12 80 -20 32 -8 163 -42 292 -74 129 -33 259 -66 288 -74
28 -8 52 -12 52 -10 0 3 8 0 18 -5 9 -5 31 -11 47 -14 17 -3 59 -13 95 -22 36
-10 81 -21 100 -26 19 -4 55 -13 80 -19 25 -6 52 -13 60 -15 8 -2 275 -70 592
-150 318 -80 580 -145 583 -145 3 0 5 -6 5 -13 0 -7 -28 -22 -62 -34 -35 -11
-182 -62 -328 -112 -146 -51 -303 -105 -350 -121 -47 -16 -191 -65 -320 -110
-214 -74 -1051 -358 -1075 -364 -5 -2 -17 -6 -25 -9 -8 -3 -94 -33 -190 -66
-96 -33 -249 -86 -340 -119 -345 -124 -439 -153 -472 -150 -39 4 -44 12 -153
258 -37 85 -80 182 -95 215 -63 136 -85 186 -140 310 -32 72 -73 162 -91 200
l-34 70 -3 483 c-1 265 0 482 3 482 3 0 123 -30 268 -66z m-4013 -1152 c80
-22 228 -64 330 -92 102 -29 199 -56 215 -61 17 -4 64 -17 105 -29 41 -11 82
-23 90 -25 40 -10 953 -268 1080 -305 80 -23 153 -43 162 -45 9 -2 135 -37
280 -79 353 -100 447 -127 483 -136 17 -4 68 -19 115 -33 47 -14 126 -37 175
-50 197 -55 243 -68 305 -87 36 -11 187 -53 335 -95 407 -115 403 -113 416
-137 8 -14 11 -320 11 -1077 0 -581 0 -1071 -1 -1089 -1 -32 -2 -33 -40 -28
-21 2 -107 27 -192 54 -178 58 -625 202 -1014 327 -148 48 -358 115 -465 150
-326 105 -495 160 -730 235 -124 39 -256 82 -295 95 -38 13 -171 55 -295 95
-124 39 -243 78 -265 85 -22 8 -148 48 -280 90 -678 216 -737 235 -783 251
-23 9 -47 24 -52 34 -10 20 -15 1996 -5 2023 6 15 3 15 315 -71z m7075 -613
c-8 -114 -11 -130 -32 -150 -10 -9 -108 -49 -218 -89 -110 -39 -243 -88 -295
-107 -52 -19 -106 -39 -120 -43 -14 -5 -70 -25 -125 -45 -127 -46 -394 -142
-460 -165 -126 -44 -506 -185 -557 -206 -74 -31 -106 -31 -113 -1 -6 24 -9
101 -7 155 3 57 41 79 315 180 138 51 259 95 267 96 8 2 40 14 70 26 30 12 62
24 70 26 8 2 47 15 85 30 39 14 113 41 165 60 52 18 133 48 180 65 47 17 132
48 190 69 564 202 563 202 583 192 5 -2 5 -44 2 -93z"/>
</g>
</svg>
